<?xml version="1.0" standalone="yes"?>

<svg version="1.1" viewBox="0.0 0.0 960.0 540.0" fill="none" stroke="none" stroke-linecap="square" stroke-miterlimit="10" xmlns="http://www.w3.org/2000/svg" xmlns:xlink="http://www.w3.org/1999/xlink"><clipPath id="g2a56d30cab_0_0.0"><path d="m0 0l960.0 0l0 540.0l-960.0 0l0 -540.0z" clip-rule="nonzero"></path></clipPath><g clip-path="url(#g2a56d30cab_0_0.0)"><path fill="#ffffff" d="m0 0l960.0 0l0 540.0l-960.0 0z" fill-rule="evenodd"></path><path fill="#000000" fill-opacity="0.0" d="m415.8058 70.35171l-0.12600708 23.968506" fill-rule="evenodd"></path><path stroke="#595959" stroke-width="1.0" stroke-linejoin="round" stroke-linecap="butt" d="m415.8058 70.35171l-0.12600708 23.968506" fill-rule="evenodd"></path><path fill="#000000" fill-opacity="0.0" d="m415.66403 131.16536l-79.370056 32.377945" fill-rule="evenodd"></path><path stroke="#595959" stroke-width="1.0" stroke-linejoin="round" stroke-linecap="butt" d="m415.66403 131.16536l-79.370056 32.377945" fill-rule="evenodd"></path><path fill="#000000" fill-opacity="0.0" d="m415.66403 131.16536l96.06299 32.377945" fill-rule="evenodd"></path><path stroke="#595959" stroke-width="1.0" stroke-linejoin="round" stroke-linecap="butt" d="m415.66403 131.16536l96.06299 32.377945" fill-rule="evenodd"></path><path fill="#3c78d8" d="m336.30972 28.902887l158.99213 0l0 41.448822l-158.99213 0z" fill-rule="evenodd"></path><path stroke="#434343" stroke-width="2.0" stroke-linejoin="round" stroke-linecap="butt" d="m336.30972 28.902887l158.99213 0l0 41.448822l-158.99213 0z" fill-rule="evenodd"></path><path fill="#ffffff" d="m360.49527 56.78167q-2.453125 0 -3.8125 -1.34375q-1.359375 -1.34375 -1.359375 -3.8125l0 -7.75l1.578125 0l0 7.71875q0 1.734375 0.90625 2.765625q0.921875 1.015625 2.6875 1.015625q1.765625 0 2.671875 -1.015625q0.90625 -1.03125 0.90625 -2.765625l0 -7.71875l1.578125 0l0 7.734375q0 2.46875 -1.328125 3.828125q-1.328125 1.34375 -3.828125 1.34375zm14.028137 -0.234375l0 -6.0q0 -1.21875 -0.5625 -1.671875q-0.5625 -0.453125 -1.5 -0.453125q-0.796875 0 -1.5625 0.421875q-0.765625 0.421875 -1.15625 1.0l0 6.703125l-1.421875 0l0 -9.171875l1.421875 0l0 1.328125q0.59375 -0.6875 1.453125 -1.125q0.875 -0.4375 1.828125 -0.4375q2.921875 0 2.921875 2.96875l0 6.4375l-1.421875 0zm6.982727 0.234375q-2.328125 0 -3.703125 -1.453125l0.75 -1.015625q0.453125 0.53125 1.25 0.921875q0.8125 0.375 1.765625 0.375q1.0625 0 1.609375 -0.4375q0.5625 -0.453125 0.5625 -1.140625q0 -0.59375 -0.609375 -0.9375q-0.59375 -0.359375 -2.234375 -0.75q-1.375 -0.28125 -2.109375 -0.890625q-0.734375 -0.625 -0.734375 -1.671875q0 -1.15625 0.921875 -1.890625q0.9375 -0.75 2.5 -0.75q2.0625 0 3.390625 1.328125l-0.65625 0.984375q-0.421875 -0.484375 -1.140625 -0.8125q-0.703125 -0.34375 -1.59375 -0.34375q-0.953125 0 -1.5 0.421875q-0.53125 0.421875 -0.53125 1.03125q0 0.546875 0.609375 0.875q0.609375 0.3125 2.234375 0.65625q1.390625 0.328125 2.109375 0.984375q0.71875 0.65625 0.71875 1.734375q0 1.28125 -0.984375 2.03125q-0.984375 0.75 -2.625 0.75zm9.784515 0q-2.0 0 -3.28125 -1.359375q-1.265625 -1.359375 -1.265625 -3.46875q0 -2.125 1.265625 -3.46875q1.28125 -1.34375 3.28125 -1.34375q1.984375 0 3.25 1.34375q1.28125 1.34375 1.28125 3.46875q0 2.109375 -1.28125 3.46875q-1.265625 1.359375 -3.25 1.359375zm0 -1.28125q1.328125 0 2.171875 -1.0q0.859375 -1.0 0.859375 -2.546875q0 -1.546875 -0.859375 -2.53125q-0.84375 -1.0 -2.171875 -1.0q-1.328125 0 -2.203125 0.984375q-0.859375 0.984375 -0.859375 2.546875q0 1.578125 0.84375 2.5625q0.859375 0.984375 2.21875 0.984375zm6.6557617 1.046875l0 -9.171875l1.421875 0l0 1.484375q1.28125 -1.671875 3.0625 -1.671875l0 1.453125l-0.5625 -0.0625q-0.65625 0 -1.4375 0.46875q-0.765625 0.46875 -1.0625 1.0l0 6.5l-1.421875 0zm8.48468 0.234375q-2.046875 0 -2.046875 -2.15625l0 -6.0l-1.515625 0l0 -1.25l1.515625 0l0 -2.515625l1.4375 0l0 2.515625l1.859375 0l0 1.25l-1.859375 0l0 5.703125q0 0.515625 0.21875 0.84375q0.234375 0.328125 0.703125 0.328125q0.59375 0 0.96875 -0.375l0.421875 1.0625q-0.59375 0.59375 -1.703125 0.59375zm7.297455 0q-2.0625 0 -3.375 -1.34375q-1.296875 -1.359375 -1.296875 -3.484375q0 -2.03125 1.296875 -3.421875q1.296875 -1.390625 3.234375 -1.390625q1.96875 0 3.1875 1.375q1.21875 1.359375 1.21875 3.546875l0 0.359375l-7.4375 0q0.078125 1.40625 1.015625 2.296875q0.9375 0.875 2.296875 0.875q1.671875 0 2.828125 -1.15625l0.6875 0.9375q-1.40625 1.40625 -3.65625 1.40625zm2.859375 -5.40625q0 -1.265625 -0.84375 -2.15625q-0.828125 -0.90625 -2.1875 -0.90625q-1.265625 0 -2.109375 0.90625q-0.84375 0.890625 -0.890625 2.15625l6.03125 0zm10.1596985 5.171875l0 -1.375q-0.515625 0.703125 -1.328125 1.15625q-0.796875 0.453125 -1.765625 0.453125q-1.84375 0 -2.96875 -1.3125q-1.125 -1.3125 -1.125 -3.5q0 -2.203125 1.125 -3.515625q1.140625 -1.3125 2.96875 -1.3125q0.921875 0 1.734375 0.4375q0.8125 0.421875 1.359375 1.171875l0 -4.875l1.421875 0l0 12.671875l-1.421875 0zm-2.765625 -1.046875q0.859375 0 1.609375 -0.40625q0.765625 -0.421875 1.15625 -1.03125l0 -4.171875q-0.390625 -0.609375 -1.15625 -1.03125q-0.75 -0.4375 -1.609375 -0.4375q-1.328125 0 -2.140625 0.96875q-0.796875 0.96875 -0.796875 2.578125q0 1.578125 0.796875 2.5625q0.796875 0.96875 2.140625 0.96875zm20.7594 1.046875l-1.125 -2.8125l-6.3125 0l-1.125 2.8125l-1.796875 0l5.09375 -12.671875l1.953125 0l5.109375 12.671875l-1.796875 0zm-4.28125 -11.03125l-2.703125 6.8125l5.390625 0l-2.6875 -6.8125zm7.447693 11.03125l0 -9.171875l1.421875 0l0 1.484375q1.28125 -1.671875 3.0625 -1.671875l0 1.453125l-0.5625 -0.0625q-0.65625 0 -1.4375 0.46875q-0.765625 0.46875 -1.0625 1.0l0 6.5l-1.421875 0zm6.1565857 0l0 -9.171875l1.421875 0l0 1.484375q1.28125 -1.671875 3.0625 -1.671875l0 1.453125l-0.5625 -0.0625q-0.65625 0 -1.4375 0.46875q-0.765625 0.46875 -1.0625 1.0l0 6.5l-1.421875 0zm11.89093 0l0 -1.046875q-1.15625 1.28125 -3.03125 1.28125q-1.390625 0 -2.3125 -0.875q-0.90625 -0.875 -0.90625 -2.171875q0 -1.328125 0.90625 -2.171875q0.90625 -0.84375 2.3125 -0.84375q1.96875 0 3.03125 1.25l0 -1.65625q0 -0.921875 -0.65625 -1.421875q-0.640625 -0.515625 -1.65625 -0.515625q-1.609375 0 -2.8125 1.28125l-0.65625 -1.0q1.453125 -1.515625 3.65625 -1.515625q1.6875 0 2.625 0.828125q0.9375 0.8125 0.9375 2.265625l0 6.3125l-1.4375 0zm-2.515625 -0.796875q1.6875 0 2.515625 -1.140625l0 -1.734375q-0.828125 -1.140625 -2.515625 -1.140625q-1.015625 0 -1.640625 0.5625q-0.625 0.5625 -0.625 1.453125q0 0.875 0.625 1.4375q0.625 0.5625 1.640625 0.5625zm6.331848 3.09375q0.296875 0.15625 0.78125 0.15625q0.46875 0 0.796875 -0.203125q0.328125 -0.203125 0.5625 -0.765625l0.609375 -1.390625l-3.828125 -9.265625l1.53125 0l3.0625 7.515625l3.03125 -7.515625l1.5625 0l-4.59375 11.03125q-0.765625 1.828125 -2.703125 1.859375q-0.546875 0 -1.046875 -0.125l0.234375 -1.296875z" fill-rule="nonzero"></path><path fill="#3c78d8" d="m376.51443 94.314964l78.299225 0l0 36.850395l-78.299225 0z" fill-rule="evenodd"></path><path stroke="#434343" stroke-width="2.0" stroke-linejoin="round" stroke-linecap="butt" d="m376.51443 94.314964l78.299225 0l0 36.850395l-78.299225 0z" fill-rule="evenodd"></path><path fill="#ffffff" d="m392.074 118.60016l0 -10.671875l3.640625 0q2.4375 0 3.953125 1.515625q1.53125 1.515625 1.53125 3.828125q0 2.34375 -1.53125 3.84375q-1.53125 1.484375 -3.953125 1.484375l-3.640625 0zm3.640625 -1.1875q1.828125 0 2.953125 -1.140625q1.140625 -1.140625 1.140625 -3.0q0 -1.859375 -1.125 -3.0q-1.109375 -1.15625 -2.96875 -1.15625l-2.3125 0l0 8.296875l2.3125 0zm7.559387 1.1875l0 -10.671875l1.328125 0l0 10.671875l-1.328125 0zm7.011505 0l-4.296875 -10.671875l1.515625 0l3.609375 9.21875l3.59375 -9.21875l1.53125 0l-4.3125 10.671875l-1.640625 0zm7.340515 0l0 -10.671875l1.328125 0l0 10.671875l-1.328125 0zm3.8240051 0l0 -10.671875l3.640625 0q2.4375 0 3.953125 1.515625q1.53125 1.515625 1.53125 3.828125q0 2.34375 -1.53125 3.84375q-1.53125 1.484375 -3.953125 1.484375l-3.640625 0zm3.640625 -1.1875q1.828125 0 2.953125 -1.140625q1.140625 -1.140625 1.140625 -3.0q0 -1.859375 -1.125 -3.0q-1.109375 -1.15625 -2.96875 -1.15625l-2.3125 0l0 8.296875l2.3125 0zm7.5594177 1.1875l0 -10.671875l6.984375 0l0 1.1875l-5.65625 0l0 3.4375l5.546875 0l0 1.1875l-5.546875 0l0 3.671875l5.65625 0l0 1.1875l-6.984375 0z" fill-rule="nonzero"></path><path fill="#3c78d8" d="m279.38058 163.5328l113.82675 0l0 44.094498l-113.82675 0z" fill-rule="evenodd"></path><path stroke="#434343" stroke-width="2.0" stroke-linejoin="round" stroke-linecap="butt" d="m279.38058 163.5328l113.82675 0l0 44.094498l-113.82675 0z" fill-rule="evenodd"></path><path fill="#ffffff" d="m301.7301 192.73442q-3.0625 0 -4.875 -2.015625l0.9375 -1.203125q0.78125 0.875 1.8125 1.34375q1.046875 0.46875 2.171875 0.46875q1.375 0 2.171875 -0.609375q0.8125 -0.609375 0.8125 -1.578125q0 -1.5 -2.359375 -2.15625q-2.78125 -0.734375 -3.5625 -1.171875q-0.765625 -0.4375 -1.171875 -1.09375q-0.40625 -0.65625 -0.40625 -1.5625q0 -1.53125 1.21875 -2.515625q1.234375 -1.0 3.125 -1.0q2.859375 0 4.5 1.765625l-0.9375 1.15625q-1.375 -1.515625 -3.671875 -1.515625q-1.140625 0 -1.875 0.546875q-0.734375 0.546875 -0.734375 1.46875q0 0.65625 0.609375 1.125q0.609375 0.46875 1.765625 0.75q2.703125 0.734375 3.484375 1.21875q0.796875 0.46875 1.21875 1.171875q0.4375 0.6875 0.4375 1.671875q0 1.75 -1.28125 2.75q-1.265625 0.984375 -3.390625 0.984375zm12.963837 -0.234375l0 -1.296875q-0.53125 0.609375 -1.390625 1.078125q-0.859375 0.453125 -1.890625 0.453125q-2.921875 0 -2.921875 -2.9375l0 -6.46875l1.421875 0l0 6.03125q0 1.09375 0.5 1.59375q0.5 0.5 1.5625 0.5q0.828125 0 1.5625 -0.40625q0.75 -0.421875 1.15625 -0.984375l0 -6.734375l1.421875 0l0 9.171875l-1.421875 0zm5.498352 -2.484375q0.390625 0.609375 1.140625 1.03125q0.75 0.40625 1.609375 0.40625q1.34375 0 2.140625 -0.96875q0.8125 -0.984375 0.8125 -2.5625q0 -1.59375 -0.796875 -2.5625q-0.796875 -0.984375 -2.15625 -0.984375q-0.859375 0 -1.609375 0.4375q-0.75 0.421875 -1.140625 1.03125l0 4.171875zm-1.421875 2.484375l0 -12.671875l1.421875 0l0 4.875q1.1875 -1.609375 3.109375 -1.609375q1.8125 0 2.9375 1.328125q1.140625 1.328125 1.140625 3.5q0 2.203125 -1.140625 3.515625q-1.125 1.296875 -2.9375 1.296875q-0.96875 0 -1.78125 -0.453125q-0.8125 -0.453125 -1.328125 -1.15625l0 1.375l-1.421875 0zm24.650024 0l-1.125 -2.8125l-6.3125 0l-1.125 2.8125l-1.796875 0l5.09375 -12.671875l1.953125 0l5.109375 12.671875l-1.796875 0zm-4.28125 -11.03125l-2.703125 6.8125l5.390625 0l-2.6875 -6.8125zm7.447693 11.03125l0 -9.171875l1.421875 0l0 1.484375q1.28125 -1.671875 3.0625 -1.671875l0 1.453125l-0.5625 -0.0625q-0.65625 0 -1.4375 0.46875q-0.765625 0.46875 -1.0625 1.0l0 6.5l-1.421875 0zm6.156555 0l0 -9.171875l1.421875 0l0 1.484375q1.28125 -1.671875 3.0625 -1.671875l0 1.453125l-0.5625 -0.0625q-0.65625 0 -1.4375 0.46875q-0.765625 0.46875 -1.0625 1.0l0 6.5l-1.421875 0zm11.890961 0l0 -1.046875q-1.15625 1.28125 -3.03125 1.28125q-1.390625 0 -2.3125 -0.875q-0.90625 -0.875 -0.90625 -2.171875q0 -1.328125 0.90625 -2.171875q0.90625 -0.84375 2.3125 -0.84375q1.96875 0 3.03125 1.25l0 -1.65625q0 -0.921875 -0.65625 -1.421875q-0.640625 -0.515625 -1.65625 -0.515625q-1.609375 0 -2.8125 1.28125l-0.65625 -1.0q1.453125 -1.515625 3.65625 -1.515625q1.6875 0 2.625 0.828125q0.9375 0.8125 0.9375 2.265625l0 6.3125l-1.4375 0zm-2.515625 -0.796875q1.6875 0 2.515625 -1.140625l0 -1.734375q-0.828125 -1.140625 -2.515625 -1.140625q-1.015625 0 -1.640625 0.5625q-0.625 0.5625 -0.625 1.453125q0 0.875 0.625 1.4375q0.625 0.5625 1.640625 0.5625zm6.331848 3.09375q0.296875 0.15625 0.78125 0.15625q0.46875 0 0.796875 -0.203125q0.328125 -0.203125 0.5625 -0.765625l0.609375 -1.390625l-3.828125 -9.265625l1.53125 0l3.0625 7.515625l3.03125 -7.515625l1.5625 0l-4.59375 11.03125q-0.765625 1.828125 -2.703125 1.859375q-0.546875 0 -1.046875 -0.125l0.234375 -1.296875z" fill-rule="nonzero"></path><path fill="#3c78d8" d="m454.81366 163.5328l113.82678 0l0 44.094498l-113.82678 0z" fill-rule="evenodd"></path><path stroke="#434343" stroke-width="2.0" stroke-linejoin="round" stroke-linecap="butt" d="m454.81366 163.5328l113.82678 0l0 44.094498l-113.82678 0z" fill-rule="evenodd"></path><path fill="#ffffff" d="m477.16318 192.73442q-3.0625 0 -4.875 -2.015625l0.9375 -1.203125q0.78125 0.875 1.8125 1.34375q1.046875 0.46875 2.171875 0.46875q1.375 0 2.171875 -0.609375q0.8125 -0.609375 0.8125 -1.578125q0 -1.5 -2.359375 -2.15625q-2.78125 -0.734375 -3.5625 -1.171875q-0.765625 -0.4375 -1.171875 -1.09375q-0.40625 -0.65625 -0.40625 -1.5625q0 -1.53125 1.21875 -2.515625q1.234375 -1.0 3.125 -1.0q2.859375 0 4.5 1.765625l-0.9375 1.15625q-1.375 -1.515625 -3.671875 -1.515625q-1.140625 0 -1.875 0.546875q-0.734375 0.546875 -0.734375 1.46875q0 0.65625 0.609375 1.125q0.609375 0.46875 1.765625 0.75q2.703125 0.734375 3.484375 1.21875q0.796875 0.46875 1.21875 1.171875q0.4375 0.6875 0.4375 1.671875q0 1.75 -1.28125 2.75q-1.265625 0.984375 -3.390625 0.984375zm12.963837 -0.234375l0 -1.296875q-0.53125 0.609375 -1.390625 1.078125q-0.859375 0.453125 -1.890625 0.453125q-2.921875 0 -2.921875 -2.9375l0 -6.46875l1.421875 0l0 6.03125q0 1.09375 0.5 1.59375q0.5 0.5 1.5625 0.5q0.828125 0 1.5625 -0.40625q0.75 -0.421875 1.15625 -0.984375l0 -6.734375l1.421875 0l0 9.171875l-1.421875 0zm5.498352 -2.484375q0.390625 0.609375 1.140625 1.03125q0.75 0.40625 1.609375 0.40625q1.34375 0 2.140625 -0.96875q0.8125 -0.984375 0.8125 -2.5625q0 -1.59375 -0.796875 -2.5625q-0.796875 -0.984375 -2.15625 -0.984375q-0.859375 0 -1.609375 0.4375q-0.75 0.421875 -1.140625 1.03125l0 4.171875zm-1.421875 2.484375l0 -12.671875l1.421875 0l0 4.875q1.1875 -1.609375 3.109375 -1.609375q1.8125 0 2.9375 1.328125q1.140625 1.328125 1.140625 3.5q0 2.203125 -1.140625 3.515625q-1.125 1.296875 -2.9375 1.296875q-0.96875 0 -1.78125 -0.453125q-0.8125 -0.453125 -1.328125 -1.15625l0 1.375l-1.421875 0zm24.650024 0l-1.125 -2.8125l-6.3125 0l-1.125 2.8125l-1.796875 0l5.09375 -12.671875l1.953125 0l5.109375 12.671875l-1.796875 0zm-4.28125 -11.03125l-2.703125 6.8125l5.390625 0l-2.6875 -6.8125zm7.447693 11.03125l0 -9.171875l1.421875 0l0 1.484375q1.28125 -1.671875 3.0625 -1.671875l0 1.453125l-0.5625 -0.0625q-0.65625 0 -1.4375 0.46875q-0.765625 0.46875 -1.0625 1.0l0 6.5l-1.421875 0zm6.156555 0l0 -9.171875l1.421875 0l0 1.484375q1.28125 -1.671875 3.0625 -1.671875l0 1.453125l-0.5625 -0.0625q-0.65625 0 -1.4375 0.46875q-0.765625 0.46875 -1.0625 1.0l0 6.5l-1.421875 0zm11.89093 0l0 -1.046875q-1.15625 1.28125 -3.03125 1.28125q-1.390625 0 -2.3125 -0.875q-0.90625 -0.875 -0.90625 -2.171875q0 -1.328125 0.90625 -2.171875q0.90625 -0.84375 2.3125 -0.84375q1.96875 0 3.03125 1.25l0 -1.65625q0 -0.921875 -0.65625 -1.421875q-0.640625 -0.515625 -1.65625 -0.515625q-1.609375 0 -2.8125 1.28125l-0.65625 -1.0q1.453125 -1.515625 3.65625 -1.515625q1.6875 0 2.625 0.828125q0.9375 0.8125 0.9375 2.265625l0 6.3125l-1.4375 0zm-2.515625 -0.796875q1.6875 0 2.515625 -1.140625l0 -1.734375q-0.828125 -1.140625 -2.515625 -1.140625q-1.015625 0 -1.640625 0.5625q-0.625 0.5625 -0.625 1.453125q0 0.875 0.625 1.4375q0.625 0.5625 1.640625 0.5625zm6.331848 3.09375q0.296875 0.15625 0.78125 0.15625q0.46875 0 0.796875 -0.203125q0.328125 -0.203125 0.5625 -0.765625l0.609375 -1.390625l-3.828125 -9.265625l1.53125 0l3.0625 7.515625l3.03125 -7.515625l1.5625 0l-4.59375 11.03125q-0.765625 1.828125 -2.703125 1.859375q-0.546875 0 -1.046875 -0.125l0.234375 -1.296875z" fill-rule="nonzero"></path><path fill="#000000" fill-opacity="0.0" d="m432.2152 466.88452l-1.7952576 -102.26773" fill-rule="evenodd"></path><path stroke="#595959" stroke-width="1.0" stroke-linejoin="round" stroke-linecap="butt" d="m432.2152 466.88452l-1.7952576 -102.26773" fill-rule="evenodd"></path><path fill="#000000" fill-opacity="0.0" d="m430.42258 401.47244l81.29132 -113.322845" fill-rule="evenodd"></path><path stroke="#595959" stroke-width="1.0" stroke-linejoin="round" stroke-linecap="butt" d="m430.42258 401.47244l81.29132 -113.322845" fill-rule="evenodd"></path><path fill="#000000" fill-opacity="0.0" d="m430.42258 401.47244l-94.14172 -113.322845" fill-rule="evenodd"></path><path stroke="#595959" stroke-width="1.0" stroke-linejoin="round" stroke-linecap="butt" d="m430.42258 401.47244l-94.14172 -113.322845" fill-rule="evenodd"></path><path fill="#3c78d8" d="m352.71915 425.4357l158.99213 0l0 41.448822l-158.99213 0z" fill-rule="evenodd"></path><path stroke="#434343" stroke-width="2.0" stroke-linejoin="round" stroke-linecap="butt" d="m352.71915 425.4357l158.99213 0l0 41.448822l-158.99213 0z" fill-rule="evenodd"></path><path fill="#ffffff" d="m386.383 453.31448q-3.0625 0 -4.875 -2.015625l0.9375 -1.203125q0.78125 0.875 1.8125 1.34375q1.046875 0.46875 2.171875 0.46875q1.375 0 2.171875 -0.609375q0.8125 -0.609375 0.8125 -1.578125q0 -1.5 -2.359375 -2.15625q-2.78125 -0.734375 -3.5625 -1.171875q-0.765625 -0.4375 -1.171875 -1.09375q-0.40625 -0.65625 -0.40625 -1.5625q0 -1.53125 1.21875 -2.515625q1.234375 -1.0 3.125 -1.0q2.859375 0 4.5 1.765625l-0.9375 1.15625q-1.375 -1.515625 -3.671875 -1.515625q-1.140625 0 -1.875 0.546875q-0.734375 0.546875 -0.734375 1.46875q0 0.65625 0.609375 1.125q0.609375 0.46875 1.765625 0.75q2.703125 0.734375 3.484375 1.21875q0.796875 0.46875 1.21875 1.171875q0.4375 0.6875 0.4375 1.671875q0 1.75 -1.28125 2.75q-1.265625 0.984375 -3.390625 0.984375zm10.776337 0q-2.0 0 -3.28125 -1.359375q-1.265625 -1.359375 -1.265625 -3.46875q0 -2.125 1.265625 -3.46875q1.28125 -1.34375 3.28125 -1.34375q1.984375 0 3.25 1.34375q1.28125 1.34375 1.28125 3.46875q0 2.109375 -1.28125 3.46875q-1.265625 1.359375 -3.25 1.359375zm0 -1.28125q1.328125 0 2.171875 -1.0q0.859375 -1.0 0.859375 -2.546875q0 -1.546875 -0.859375 -2.53125q-0.84375 -1.0 -2.171875 -1.0q-1.328125 0 -2.203125 0.984375q-0.859375 0.984375 -0.859375 2.546875q0 1.578125 0.84375 2.5625q0.859375 0.984375 2.21875 0.984375zm6.655731 1.046875l0 -9.171875l1.421875 0l0 1.484375q1.28125 -1.671875 3.0625 -1.671875l0 1.453125l-0.5625 -0.0625q-0.65625 0 -1.4375 0.46875q-0.765625 0.46875 -1.0625 1.0l0 6.5l-1.421875 0zm8.484711 0.234375q-2.046875 0 -2.046875 -2.15625l0 -6.0l-1.515625 0l0 -1.25l1.515625 0l0 -2.515625l1.4375 0l0 2.515625l1.859375 0l0 1.25l-1.859375 0l0 5.703125q0 0.515625 0.21875 0.84375q0.234375 0.328125 0.703125 0.328125q0.59375 0 0.96875 -0.375l0.421875 1.0625q-0.59375 0.59375 -1.703125 0.59375zm7.2974243 0q-2.0625 0 -3.375 -1.34375q-1.296875 -1.359375 -1.296875 -3.484375q0 -2.03125 1.296875 -3.421875q1.296875 -1.390625 3.234375 -1.390625q1.96875 0 3.1875 1.375q1.21875 1.359375 1.21875 3.546875l0 0.359375l-7.4375 0q0.078125 1.40625 1.015625 2.296875q0.9375 0.875 2.296875 0.875q1.671875 0 2.828125 -1.15625l0.6875 0.9375q-1.40625 1.40625 -3.65625 1.40625zm2.859375 -5.40625q0 -1.265625 -0.84375 -2.15625q-0.828125 -0.90625 -2.1875 -0.90625q-1.265625 0 -2.109375 0.90625q-0.84375 0.890625 -0.890625 2.15625l6.03125 0zm10.159729 5.171875l0 -1.375q-0.515625 0.703125 -1.328125 1.15625q-0.796875 0.453125 -1.765625 0.453125q-1.84375 0 -2.96875 -1.3125q-1.125 -1.3125 -1.125 -3.5q0 -2.203125 1.125 -3.515625q1.140625 -1.3125 2.96875 -1.3125q0.921875 0 1.734375 0.4375q0.8125 0.421875 1.359375 1.171875l0 -4.875l1.421875 0l0 12.671875l-1.421875 0zm-2.765625 -1.046875q0.859375 0 1.609375 -0.40625q0.765625 -0.421875 1.15625 -1.03125l0 -4.171875q-0.390625 -0.609375 -1.15625 -1.03125q-0.75 -0.4375 -1.609375 -0.4375q-1.328125 0 -2.140625 0.96875q-0.796875 0.96875 -0.796875 2.578125q0 1.578125 0.796875 2.5625q0.796875 0.96875 2.140625 0.96875zm20.7594 1.046875l-1.125 -2.8125l-6.3125 0l-1.125 2.8125l-1.796875 0l5.09375 -12.671875l1.953125 0l5.109375 12.671875l-1.796875 0zm-4.28125 -11.03125l-2.703125 6.8125l5.390625 0l-2.6875 -6.8125zm7.447693 11.03125l0 -9.171875l1.421875 0l0 1.484375q1.28125 -1.671875 3.0625 -1.671875l0 1.453125l-0.5625 -0.0625q-0.65625 0 -1.4375 0.46875q-0.765625 0.46875 -1.0625 1.0l0 6.5l-1.421875 0zm6.156555 0l0 -9.171875l1.421875 0l0 1.484375q1.28125 -1.671875 3.0625 -1.671875l0 1.453125l-0.5625 -0.0625q-0.65625 0 -1.4375 0.46875q-0.765625 0.46875 -1.0625 1.0l0 6.5l-1.421875 0zm11.890961 0l0 -1.046875q-1.15625 1.28125 -3.03125 1.28125q-1.390625 0 -2.3125 -0.875q-0.90625 -0.875 -0.90625 -2.171875q0 -1.328125 0.90625 -2.171875q0.90625 -0.84375 2.3125 -0.84375q1.96875 0 3.03125 1.25l0 -1.65625q0 -0.921875 -0.65625 -1.421875q-0.640625 -0.515625 -1.65625 -0.515625q-1.609375 0 -2.8125 1.28125l-0.65625 -1.0q1.453125 -1.515625 3.65625 -1.515625q1.6875 0 2.625 0.828125q0.9375 0.8125 0.9375 2.265625l0 6.3125l-1.4375 0zm-2.515625 -0.796875q1.6875 0 2.515625 -1.140625l0 -1.734375q-0.828125 -1.140625 -2.515625 -1.140625q-1.015625 0 -1.640625 0.5625q-0.625 0.5625 -0.625 1.453125q0 0.875 0.625 1.4375q0.625 0.5625 1.640625 0.5625zm6.331848 3.09375q0.296875 0.15625 0.78125 0.15625q0.46875 0 0.796875 -0.203125q0.328125 -0.203125 0.5625 -0.765625l0.609375 -1.390625l-3.828125 -9.265625l1.53125 0l3.0625 7.515625l3.0312195 -7.515625l1.5625 0l-4.5937195 11.03125q-0.765625 1.828125 -2.703125 1.859375q-0.546875 0 -1.046875 -0.125l0.234375 -1.296875z" fill-rule="nonzero"></path><path fill="#3c78d8" d="m478.45407 364.62204l-96.06299 0l0 36.850403l96.06299 0z" fill-rule="evenodd"></path><path stroke="#434343" stroke-width="2.0" stroke-linejoin="round" stroke-linecap="butt" d="m478.45407 364.62204l-96.06299 0l0 36.850403l96.06299 0z" fill-rule="evenodd"></path><path fill="#ffffff" d="m397.68796 389.09476q-2.34375 0 -3.921875 -1.546875q-1.5625 -1.546875 -1.5625 -3.96875q0 -2.421875 1.5625 -3.96875q1.578125 -1.546875 3.921875 -1.546875q2.546875 0 4.0625 2.109375l-1.125 0.625q-0.46875 -0.671875 -1.25 -1.109375q-0.765625 -0.4375 -1.6875 -0.4375q-1.765625 0 -2.9375 1.234375q-1.171875 1.21875 -1.171875 3.09375q0 1.890625 1.15625 3.125q1.171875 1.21875 2.953125 1.21875q0.921875 0 1.6875 -0.4375q0.78125 -0.4375 1.25 -1.125l1.140625 0.625q-1.5625 2.109375 -4.078125 2.109375zm10.6285095 0q-2.34375 0 -3.828125 -1.5625q-1.46875 -1.5625 -1.46875 -3.953125q0 -2.40625 1.484375 -3.953125q1.484375 -1.5625 3.8125 -1.5625q2.359375 0 3.828125 1.5625q1.46875 1.5625 1.46875 3.953125q0 2.40625 -1.484375 3.96875q-1.46875 1.546875 -3.8125 1.546875zm0 -1.171875q1.75 0 2.828125 -1.21875q1.09375 -1.234375 1.09375 -3.125q0 -1.921875 -1.09375 -3.125q-1.078125 -1.203125 -2.828125 -1.203125q-1.71875 0 -2.828125 1.1875q-1.09375 1.171875 -1.09375 3.140625q0 1.921875 1.078125 3.140625q1.09375 1.203125 2.84375 1.203125zm16.505646 0.984375l0 -8.78125l-3.640625 8.78125l-0.546875 0l-3.609375 -8.78125l0 8.78125l-1.328125 0l0 -10.671875l1.90625 0l3.3125 8.03125l3.328125 -8.03125l1.90625 0l0 10.671875l-1.328125 0zm3.8190308 0l0 -10.671875l4.75 0q1.359375 0 2.171875 0.75q0.8125 0.734375 0.8125 1.96875q0 0.9375 -0.515625 1.59375q-0.515625 0.65625 -1.34375 0.859375q0.84375 0.125 1.453125 0.890625q0.625 0.765625 0.625 1.734375q0 1.3125 -0.828125 2.09375q-0.828125 0.78125 -2.265625 0.78125l-4.859375 0zm4.53125 -6.046875q0.90625 0 1.359375 -0.484375q0.46875 -0.5 0.46875 -1.234375q0 -0.71875 -0.46875 -1.21875q-0.453125 -0.5 -1.359375 -0.5l-3.203125 0l0 3.4375l3.203125 0zm0.0625 4.859375q0.9375 0 1.453125 -0.484375q0.53125 -0.484375 0.53125 -1.359375q0 -0.8125 -0.546875 -1.3125q-0.546875 -0.515625 -1.4375 -0.515625l-3.265625 0l0 3.671875l3.265625 0zm5.470276 1.1875l0 -10.671875l1.328125 0l0 10.671875l-1.328125 0zm11.37088 0l-6.21875 -8.515625l0 8.515625l-1.328125 0l0 -10.671875l1.359375 0l6.140625 8.328125l0 -8.328125l1.328125 0l0 10.671875l-1.28125 0zm3.7811584 0l0 -10.671875l6.984375 0l0 1.1875l-5.65625 0l0 3.4375l5.546875 0l0 1.1875l-5.546875 0l0 3.671875l5.65625 0l0 1.1875l-6.984375 0z" fill-rule="nonzero"></path><path fill="#3c78d8" d="m568.64044 288.1601l-113.82678 0l0 44.094513l113.82678 0z" fill-rule="evenodd"></path><path stroke="#434343" stroke-width="2.0" stroke-linejoin="round" stroke-linecap="butt" d="m568.64044 288.1601l-113.82678 0l0 44.094513l113.82678 0z" fill-rule="evenodd"></path><path fill="#ffffff" d="m471.70624 306.36172q-3.0625 0 -4.875 -2.015625l0.9375 -1.203125q0.78125 0.875 1.8125 1.34375q1.046875 0.46875 2.171875 0.46875q1.375 0 2.171875 -0.609375q0.8125 -0.609375 0.8125 -1.578125q0 -1.5 -2.359375 -2.15625q-2.78125 -0.734375 -3.5625 -1.171875q-0.765625 -0.4375 -1.171875 -1.09375q-0.40625 -0.65625 -0.40625 -1.5625q0 -1.53125 1.21875 -2.515625q1.234375 -1.0 3.125 -1.0q2.859375 0 4.5 1.765625l-0.9375 1.15625q-1.375 -1.515625 -3.671875 -1.515625q-1.140625 0 -1.875 0.546875q-0.734375 0.546875 -0.734375 1.46875q0 0.65625 0.609375 1.125q0.609375 0.46875 1.765625 0.75q2.703125 0.734375 3.484375 1.21875q0.796875 0.46875 1.21875 1.171875q0.4375 0.6875 0.4375 1.671875q0 1.75 -1.28125 2.75q-1.265625 0.984375 -3.390625 0.984375zm10.776337 0q-2.0 0 -3.28125 -1.359375q-1.265625 -1.359375 -1.265625 -3.46875q0 -2.125 1.265625 -3.46875q1.28125 -1.34375 3.28125 -1.34375q1.984375 0 3.25 1.34375q1.28125 1.34375 1.28125 3.46875q0 2.109375 -1.28125 3.46875q-1.265625 1.359375 -3.25 1.359375zm0 -1.28125q1.328125 0 2.171875 -1.0q0.859375 -1.0 0.859375 -2.546875q0 -1.546875 -0.859375 -2.53125q-0.84375 -1.0 -2.171875 -1.0q-1.328125 0 -2.203125 0.984375q-0.859375 0.984375 -0.859375 2.546875q0 1.578125 0.84375 2.5625q0.859375 0.984375 2.21875 0.984375zm6.655731 1.046875l0 -9.171875l1.421875 0l0 1.484375q1.28125 -1.671875 3.0625 -1.671875l0 1.453125l-0.5625 -0.0625q-0.65625 0 -1.4375 0.46875q-0.765625 0.46875 -1.0625 1.0l0 6.5l-1.421875 0zm8.484711 0.234375q-2.046875 0 -2.046875 -2.15625l0 -6.0l-1.515625 0l0 -1.25l1.515625 0l0 -2.515625l1.4375 0l0 2.515625l1.859375 0l0 1.25l-1.859375 0l0 5.703125q0 0.515625 0.21875 0.84375q0.234375 0.328125 0.703125 0.328125q0.59375 0 0.96875 -0.375l0.421875 1.0625q-0.59375 0.59375 -1.703125 0.59375zm7.2974243 0q-2.0625 0 -3.375 -1.34375q-1.296875 -1.359375 -1.296875 -3.484375q0 -2.03125 1.296875 -3.421875q1.296875 -1.390625 3.234375 -1.390625q1.96875 0 3.1875 1.375q1.21875 1.359375 1.21875 3.546875l0 0.359375l-7.4375 0q0.078125 1.40625 1.015625 2.296875q0.9375 0.875 2.296875 0.875q1.671875 0 2.828125 -1.15625l0.6875 0.9375q-1.40625 1.40625 -3.65625 1.40625zm2.859375 -5.40625q0 -1.265625 -0.84375 -2.15625q-0.828125 -0.90625 -2.1875 -0.90625q-1.265625 0 -2.109375 0.90625q-0.84375 0.890625 -0.890625 2.15625l6.03125 0zm10.1596985 5.171875l0 -1.375q-0.515625 0.703125 -1.328125 1.15625q-0.796875 0.453125 -1.765625 0.453125q-1.84375 0 -2.9687195 -1.3125q-1.125 -1.3125 -1.125 -3.5q0 -2.203125 1.125 -3.515625q1.1405945 -1.3125 2.9687195 -1.3125q0.921875 0 1.734375 0.4375q0.8125 0.421875 1.359375 1.171875l0 -4.875l1.421875 0l0 12.671875l-1.421875 0zm-2.765625 -1.046875q0.859375 0 1.609375 -0.40625q0.765625 -0.421875 1.15625 -1.03125l0 -4.171875q-0.390625 -0.609375 -1.15625 -1.03125q-0.75 -0.4375 -1.609375 -0.4375q-1.328125 0 -2.140625 0.96875q-0.796875 0.96875 -0.796875 2.578125q0 1.578125 0.796875 2.5625q0.796875 0.96875 2.140625 0.96875zm15.821899 1.28125q-3.0625 0 -4.875 -2.015625l0.9375 -1.203125q0.78125 0.875 1.8125 1.34375q1.046875 0.46875 2.171875 0.46875q1.375 0 2.171875 -0.609375q0.8125 -0.609375 0.8125 -1.578125q0 -1.5 -2.359375 -2.15625q-2.78125 -0.734375 -3.5625 -1.171875q-0.765625 -0.4375 -1.171875 -1.09375q-0.40625 -0.65625 -0.40625 -1.5625q0 -1.53125 1.21875 -2.515625q1.234375 -1.0 3.125 -1.0q2.859375 0 4.5 1.765625l-0.9375 1.15625q-1.375 -1.515625 -3.671875 -1.515625q-1.140625 0 -1.875 0.546875q-0.734375 0.546875 -0.734375 1.46875q0 0.65625 0.609375 1.125q0.609375 0.46875 1.765625 0.75q2.703125 0.734375 3.484375 1.21875q0.796875 0.46875 1.21875 1.171875q0.4375 0.6875 0.4375 1.671875q0 1.75 -1.28125 2.75q-1.265625 0.984375 -3.390625 0.984375zm12.963867 -0.234375l0 -1.296875q-0.53125 0.609375 -1.390625 1.078125q-0.859375 0.453125 -1.890625 0.453125q-2.921875 0 -2.921875 -2.9375l0 -6.46875l1.421875 0l0 6.03125q0 1.09375 0.5 1.59375q0.5 0.5 1.5625 0.5q0.828125 0 1.5625 -0.40625q0.75 -0.421875 1.15625 -0.984375l0 -6.734375l1.421875 0l0 9.171875l-1.421875 0zm5.498352 -2.484375q0.390625 0.609375 1.140625 1.03125q0.75 0.40625 1.609375 0.40625q1.34375 0 2.140625 -0.96875q0.8125 -0.984375 0.8125 -2.5625q0 -1.59375 -0.796875 -2.5625q-0.796875 -0.984375 -2.15625 -0.984375q-0.859375 0 -1.609375 0.4375q-0.75 0.421875 -1.140625 1.03125l0 4.171875zm-1.421875 2.484375l0 -12.671875l1.421875 0l0 4.875q1.1875 -1.609375 3.109375 -1.609375q1.8125 0 2.9375 1.328125q1.140625 1.328125 1.140625 3.5q0 2.203125 -1.140625 3.515625q-1.125 1.296875 -2.9375 1.296875q-0.96875 0 -1.78125 -0.453125q-0.8125 -0.453125 -1.328125 -1.15625l0 1.375l-1.421875 0z" fill-rule="nonzero"></path><path fill="#ffffff" d="m500.4771 328.12735l-1.125 -2.8125l-6.3125 0l-1.125 2.8125l-1.796875 0l5.09375 -12.671875l1.953125 0l5.109375 12.671875l-1.796875 0zm-4.28125 -11.03125l-2.703125 6.8125l5.390625 0l-2.6875 -6.8125zm7.447693 11.03125l0 -9.171875l1.421875 0l0 1.484375q1.28125 -1.671875 3.0625 -1.671875l0 1.453125l-0.5625 -0.0625q-0.65625 0 -1.4375 0.46875q-0.765625 0.46875 -1.0625 1.0l0 6.5l-1.421875 0zm6.156555 0l0 -9.171875l1.421875 0l0 1.484375q1.28125 -1.671875 3.0625 -1.671875l0 1.453125l-0.5625 -0.0625q-0.65625 0 -1.4375 0.46875q-0.765625 0.46875 -1.0625 1.0l0 6.5l-1.421875 0zm11.89093 0l0 -1.046875q-1.15625 1.28125 -3.03125 1.28125q-1.390625 0 -2.3125 -0.875q-0.90625 -0.875 -0.90625 -2.171875q0 -1.328125 0.90625 -2.171875q0.90625 -0.84375 2.3125 -0.84375q1.96875 0 3.03125 1.25l0 -1.65625q0 -0.921875 -0.65625 -1.421875q-0.640625 -0.515625 -1.65625 -0.515625q-1.609375 0 -2.8125 1.28125l-0.65625 -1.0q1.453125 -1.515625 3.65625 -1.515625q1.6875 0 2.625 0.828125q0.9375 0.8125 0.9375 2.265625l0 6.3125l-1.4375 0zm-2.515625 -0.796875q1.6875 0 2.515625 -1.140625l0 -1.734375q-0.828125 -1.140625 -2.515625 -1.140625q-1.015625 0 -1.640625 0.5625q-0.625 0.5625 -0.625 1.453125q0 0.875 0.625 1.4375q0.625 0.5625 1.640625 0.5625zm6.331848 3.09375q0.296875 0.15625 0.78125 0.15625q0.46875 0 0.796875 -0.203125q0.328125 -0.203125 0.5625 -0.765625l0.609375 -1.390625l-3.828125 -9.265625l1.53125 0l3.0625 7.515625l3.03125 -7.515625l1.5625 0l-4.59375 11.03125q-0.765625 1.828125 -2.703125 1.859375q-0.546875 0 -1.046875 -0.125l0.234375 -1.296875z" fill-rule="nonzero"></path><path fill="#3c78d8" d="m393.20734 288.1601l-113.82675 0l0 44.094513l113.82675 0z" fill-rule="evenodd"></path><path stroke="#434343" stroke-width="2.0" stroke-linejoin="round" stroke-linecap="butt" d="m393.20734 288.1601l-113.82675 0l0 44.094513l113.82675 0z" fill-rule="evenodd"></path><path fill="#ffffff" d="m296.27316 306.36172q-3.0625 0 -4.875 -2.015625l0.9375 -1.203125q0.78125 0.875 1.8125 1.34375q1.046875 0.46875 2.171875 0.46875q1.375 0 2.171875 -0.609375q0.8125 -0.609375 0.8125 -1.578125q0 -1.5 -2.359375 -2.15625q-2.78125 -0.734375 -3.5625 -1.171875q-0.765625 -0.4375 -1.171875 -1.09375q-0.40625 -0.65625 -0.40625 -1.5625q0 -1.53125 1.21875 -2.515625q1.234375 -1.0 3.125 -1.0q2.859375 0 4.5 1.765625l-0.9375 1.15625q-1.375 -1.515625 -3.671875 -1.515625q-1.140625 0 -1.875 0.546875q-0.734375 0.546875 -0.734375 1.46875q0 0.65625 0.609375 1.125q0.609375 0.46875 1.765625 0.75q2.703125 0.734375 3.484375 1.21875q0.796875 0.46875 1.21875 1.171875q0.4375 0.6875 0.4375 1.671875q0 1.75 -1.28125 2.75q-1.265625 0.984375 -3.390625 0.984375zm10.776337 0q-2.0 0 -3.28125 -1.359375q-1.265625 -1.359375 -1.265625 -3.46875q0 -2.125 1.265625 -3.46875q1.28125 -1.34375 3.28125 -1.34375q1.984375 0 3.25 1.34375q1.28125 1.34375 1.28125 3.46875q0 2.109375 -1.28125 3.46875q-1.265625 1.359375 -3.25 1.359375zm0 -1.28125q1.328125 0 2.171875 -1.0q0.859375 -1.0 0.859375 -2.546875q0 -1.546875 -0.859375 -2.53125q-0.84375 -1.0 -2.171875 -1.0q-1.328125 0 -2.203125 0.984375q-0.859375 0.984375 -0.859375 2.546875q0 1.578125 0.84375 2.5625q0.859375 0.984375 2.21875 0.984375zm6.655731 1.046875l0 -9.171875l1.421875 0l0 1.484375q1.28125 -1.671875 3.0625 -1.671875l0 1.453125l-0.5625 -0.0625q-0.65625 0 -1.4375 0.46875q-0.765625 0.46875 -1.0625 1.0l0 6.5l-1.421875 0zm8.484711 0.234375q-2.046875 0 -2.046875 -2.15625l0 -6.0l-1.515625 0l0 -1.25l1.515625 0l0 -2.515625l1.4375 0l0 2.515625l1.859375 0l0 1.25l-1.859375 0l0 5.703125q0 0.515625 0.21875 0.84375q0.234375 0.328125 0.703125 0.328125q0.59375 0 0.96875 -0.375l0.421875 1.0625q-0.59375 0.59375 -1.703125 0.59375zm7.2974243 0q-2.0625 0 -3.375 -1.34375q-1.296875 -1.359375 -1.296875 -3.484375q0 -2.03125 1.296875 -3.421875q1.296875 -1.390625 3.234375 -1.390625q1.96875 0 3.1875 1.375q1.21875 1.359375 1.21875 3.546875l0 0.359375l-7.4375 0q0.078125 1.40625 1.015625 2.296875q0.9375 0.875 2.296875 0.875q1.671875 0 2.828125 -1.15625l0.6875 0.9375q-1.40625 1.40625 -3.65625 1.40625zm2.859375 -5.40625q0 -1.265625 -0.84375 -2.15625q-0.828125 -0.90625 -2.1875 -0.90625q-1.265625 0 -2.109375 0.90625q-0.84375 0.890625 -0.890625 2.15625l6.03125 0zm10.159729 5.171875l0 -1.375q-0.515625 0.703125 -1.328125 1.15625q-0.796875 0.453125 -1.765625 0.453125q-1.84375 0 -2.96875 -1.3125q-1.125 -1.3125 -1.125 -3.5q0 -2.203125 1.125 -3.515625q1.140625 -1.3125 2.96875 -1.3125q0.921875 0 1.734375 0.4375q0.8125 0.421875 1.359375 1.171875l0 -4.875l1.421875 0l0 12.671875l-1.421875 0zm-2.765625 -1.046875q0.859375 0 1.609375 -0.40625q0.765625 -0.421875 1.15625 -1.03125l0 -4.171875q-0.390625 -0.609375 -1.15625 -1.03125q-0.75 -0.4375 -1.609375 -0.4375q-1.328125 0 -2.140625 0.96875q-0.796875 0.96875 -0.796875 2.578125q0 1.578125 0.796875 2.5625q0.796875 0.96875 2.140625 0.96875zm15.821899 1.28125q-3.0625 0 -4.875 -2.015625l0.9375 -1.203125q0.78125 0.875 1.8125 1.34375q1.046875 0.46875 2.171875 0.46875q1.375 0 2.171875 -0.609375q0.8125 -0.609375 0.8125 -1.578125q0 -1.5 -2.359375 -2.15625q-2.78125 -0.734375 -3.5625 -1.171875q-0.765625 -0.4375 -1.171875 -1.09375q-0.40625 -0.65625 -0.40625 -1.5625q0 -1.53125 1.21875 -2.515625q1.234375 -1.0 3.125 -1.0q2.859375 0 4.5 1.765625l-0.9375 1.15625q-1.375 -1.515625 -3.671875 -1.515625q-1.140625 0 -1.875 0.546875q-0.734375 0.546875 -0.734375 1.46875q0 0.65625 0.609375 1.125q0.609375 0.46875 1.765625 0.75q2.703125 0.734375 3.484375 1.21875q0.796875 0.46875 1.21875 1.171875q0.4375 0.6875 0.4375 1.671875q0 1.75 -1.28125 2.75q-1.265625 0.984375 -3.390625 0.984375zm12.963806 -0.234375l0 -1.296875q-0.53125 0.609375 -1.390625 1.078125q-0.859375 0.453125 -1.890625 0.453125q-2.921875 0 -2.921875 -2.9375l0 -6.46875l1.421875 0l0 6.03125q0 1.09375 0.5 1.59375q0.5 0.5 1.5625 0.5q0.828125 0 1.5625 -0.40625q0.75 -0.421875 1.15625 -0.984375l0 -6.734375l1.421875 0l0 9.171875l-1.421875 0zm5.498352 -2.484375q0.390625 0.609375 1.140625 1.03125q0.75 0.40625 1.609375 0.40625q1.34375 0 2.140625 -0.96875q0.8125 -0.984375 0.8125 -2.5625q0 -1.59375 -0.796875 -2.5625q-0.796875 -0.984375 -2.15625 -0.984375q-0.859375 0 -1.609375 0.4375q-0.75 0.421875 -1.140625 1.03125l0 4.171875zm-1.421875 2.484375l0 -12.671875l1.421875 0l0 4.875q1.1875 -1.609375 3.109375 -1.609375q1.8125 0 2.9375 1.328125q1.140625 1.328125 1.140625 3.5q0 2.203125 -1.140625 3.515625q-1.125 1.296875 -2.9375 1.296875q-0.96875 0 -1.78125 -0.453125q-0.8125 -0.453125 -1.328125 -1.15625l0 1.375l-1.421875 0z" fill-rule="nonzero"></path><path fill="#ffffff" d="m325.04404 328.12735l-1.125 -2.8125l-6.3125 0l-1.125 2.8125l-1.796875 0l5.09375 -12.671875l1.953125 0l5.109375 12.671875l-1.796875 0zm-4.28125 -11.03125l-2.703125 6.8125l5.390625 0l-2.6875 -6.8125zm7.447693 11.03125l0 -9.171875l1.421875 0l0 1.484375q1.28125 -1.671875 3.0625 -1.671875l0 1.453125l-0.5625 -0.0625q-0.65625 0 -1.4375 0.46875q-0.765625 0.46875 -1.0625 1.0l0 6.5l-1.421875 0zm6.156555 0l0 -9.171875l1.421875 0l0 1.484375q1.28125 -1.671875 3.0625 -1.671875l0 1.453125l-0.5625 -0.0625q-0.65625 0 -1.4375 0.46875q-0.765625 0.46875 -1.0625 1.0l0 6.5l-1.421875 0zm11.890961 0l0 -1.046875q-1.15625 1.28125 -3.03125 1.28125q-1.390625 0 -2.3125 -0.875q-0.90625 -0.875 -0.90625 -2.171875q0 -1.328125 0.90625 -2.171875q0.90625 -0.84375 2.3125 -0.84375q1.96875 0 3.03125 1.25l0 -1.65625q0 -0.921875 -0.65625 -1.421875q-0.640625 -0.515625 -1.65625 -0.515625q-1.609375 0 -2.8125 1.28125l-0.65625 -1.0q1.453125 -1.515625 3.65625 -1.515625q1.6875 0 2.625 0.828125q0.9375 0.8125 0.9375 2.265625l0 6.3125l-1.4375 0zm-2.515625 -0.796875q1.6875 0 2.515625 -1.140625l0 -1.734375q-0.828125 -1.140625 -2.515625 -1.140625q-1.015625 0 -1.640625 0.5625q-0.625 0.5625 -0.625 1.453125q0 0.875 0.625 1.4375q0.625 0.5625 1.640625 0.5625zm6.331848 3.09375q0.296875 0.15625 0.78125 0.15625q0.46875 0 0.796875 -0.203125q0.328125 -0.203125 0.5625 -0.765625l0.609375 -1.390625l-3.828125 -9.265625l1.53125 0l3.0625 7.515625l3.03125 -7.515625l1.5625 0l-4.59375 11.03125q-0.765625 1.828125 -2.703125 1.859375q-0.546875 0 -1.046875 -0.125l0.234375 -1.296875z" fill-rule="nonzero"></path><path fill="#000000" fill-opacity="0.0" d="m511.72745 222.20998l-7.2756042 3.0551147" fill-rule="evenodd"></path><path stroke="#595959" stroke-width="1.0" stroke-linejoin="round" stroke-linecap="butt" d="m511.72745 222.20998l-7.2756042 3.0551147" fill-rule="evenodd"></path><path fill="#000000" fill-opacity="0.0" d="m504.45547 230.682l-34.362213 4.7873993" fill-rule="evenodd"></path><path stroke="#595959" stroke-width="1.0" stroke-linejoin="round" stroke-linecap="butt" d="m504.45547 230.682l-34.362213 4.7873993" fill-rule="evenodd"></path><path fill="#000000" fill-opacity="0.0" d="m504.45547 230.682l41.5748 4.7873993" fill-rule="evenodd"></path><path stroke="#595959" stroke-width="1.0" stroke-linejoin="round" stroke-linecap="butt" d="m504.45547 230.682l41.5748 4.7873993" fill-rule="evenodd"></path><path fill="#3c78d8" d="m477.33374 216.09973l68.787415 0l0 6.1102448l-68.787415 0z" fill-rule="evenodd"></path><path stroke="#434343" stroke-width="2.0" stroke-linejoin="round" stroke-linecap="butt" d="m477.33374 216.09973l68.787415 0l0 6.1102448l-68.787415 0z" fill-rule="evenodd"></path><path fill="#3c78d8" d="m487.5106 225.2647l33.88974 0l0 5.4173126l-33.88974 0z" fill-rule="evenodd"></path><path stroke="#434343" stroke-width="2.0" stroke-linejoin="round" stroke-linecap="butt" d="m487.5106 225.2647l33.88974 0l0 5.4173126l-33.88974 0z" fill-rule="evenodd"></path><path fill="#3c78d8" d="m445.479 235.46002l49.259827 0l0 6.4881897l-49.259827 0z" fill-rule="evenodd"></path><path stroke="#434343" stroke-width="2.0" stroke-linejoin="round" stroke-linecap="butt" d="m445.479 235.46002l49.259827 0l0 6.4881897l-49.259827 0z" fill-rule="evenodd"></path><path fill="#3c78d8" d="m521.3921 235.46002l49.259827 0l0 6.4881897l-49.259827 0z" fill-rule="evenodd"></path><path stroke="#434343" stroke-width="2.0" stroke-linejoin="round" stroke-linecap="butt" d="m521.3921 235.46002l49.259827 0l0 6.4881897l-49.259827 0z" fill-rule="evenodd"></path><path fill="#000000" fill-opacity="0.0" d="m511.60764 280.14682l-0.78738403 -15.055115" fill-rule="evenodd"></path><path stroke="#595959" stroke-width="1.0" stroke-linejoin="round" stroke-linecap="butt" d="m511.60764 280.14682l-0.78738403 -15.055115" fill-rule="evenodd"></path><path fill="#000000" fill-opacity="0.0" d="m510.83432 270.49646l35.18112 -16.692902" fill-rule="evenodd"></path><path stroke="#595959" stroke-width="1.0" stroke-linejoin="round" stroke-linecap="butt" d="m510.83432 270.49646l35.18112 -16.692902" fill-rule="evenodd"></path><path fill="#000000" fill-opacity="0.0" d="m510.83432 270.49646l-40.724426 -16.692902" fill-rule="evenodd"></path><path stroke="#595959" stroke-width="1.0" stroke-linejoin="round" stroke-linecap="butt" d="m510.83432 270.49646l-40.724426 -16.692902" fill-rule="evenodd"></path><path fill="#3c78d8" d="m477.21393 274.0366l68.787415 0l0 6.1102295l-68.787415 0z" fill-rule="evenodd"></path><path stroke="#434343" stroke-width="2.0" stroke-linejoin="round" stroke-linecap="butt" d="m477.21393 274.0366l68.787415 0l0 6.1102295l-68.787415 0z" fill-rule="evenodd"></path><path fill="#3c78d8" d="m531.6217 265.07913l-41.5748 0l0 5.417328l41.5748 0z" fill-rule="evenodd"></path><path stroke="#434343" stroke-width="2.0" stroke-linejoin="round" stroke-linecap="butt" d="m531.6217 265.07913l-41.5748 0l0 5.417328l41.5748 0z" fill-rule="evenodd"></path><path fill="#3c78d8" d="m570.647 253.8168l-49.259827 0l0 6.4881897l49.259827 0z" fill-rule="evenodd"></path><path stroke="#434343" stroke-width="2.0" stroke-linejoin="round" stroke-linecap="butt" d="m570.647 253.8168l-49.259827 0l0 6.4881897l49.259827 0z" fill-rule="evenodd"></path><path fill="#3c78d8" d="m494.73392 253.8168l-49.259857 0l0 6.4881897l49.259857 0z" fill-rule="evenodd"></path><path stroke="#434343" stroke-width="2.0" stroke-linejoin="round" stroke-linecap="butt" d="m494.73392 253.8168l-49.259857 0l0 6.4881897l49.259857 0z" fill-rule="evenodd"></path><path fill="#3c78d8" d="m445.479 244.63763l49.259827 0l0 6.4881897l-49.259827 0z" fill-rule="evenodd"></path><path stroke="#434343" stroke-width="2.0" stroke-linejoin="round" stroke-linecap="butt" d="m445.479 244.63763l49.259827 0l0 6.4881897l-49.259827 0z" fill-rule="evenodd"></path><path fill="#ffffff" d="m459.86832 251.74673q-1.765625 0 -2.8125 -1.15625l0.53125 -0.703125q0.453125 0.515625 1.0625 0.78125q0.609375 0.265625 1.25 0.265625q0.796875 0 1.265625 -0.34375q0.46875 -0.359375 0.46875 -0.921875q0 -0.859375 -1.375 -1.234375q-1.609375 -0.4375 -2.0625 -0.6875q-0.4375 -0.25 -0.671875 -0.625q-0.234375 -0.390625 -0.234375 -0.90625q0 -0.890625 0.703125 -1.46875q0.703125 -0.578125 1.8125 -0.578125q1.640625 0 2.609375 1.03125l-0.5625 0.671875q-0.78125 -0.890625 -2.109375 -0.890625q-0.671875 0 -1.09375 0.328125q-0.421875 0.3125 -0.421875 0.84375q0 0.390625 0.34375 0.65625q0.359375 0.265625 1.03125 0.4375q1.5625 0.421875 2.015625 0.703125q0.453125 0.265625 0.703125 0.671875q0.25 0.40625 0.25 0.96875q0 1.015625 -0.734375 1.59375q-0.734375 0.5625 -1.96875 0.5625zm7.213379 0q-1.625 0 -2.640625 -1.078125q-1.0 -1.078125 -1.0 -2.703125q0 -1.65625 1.015625 -2.71875q1.015625 -1.078125 2.625 -1.078125q1.609375 0 2.625 1.078125q1.015625 1.078125 1.015625 2.71875q0 1.640625 -1.015625 2.71875q-1.015625 1.0625 -2.625 1.0625zm0 -0.8125q1.203125 0 1.9375 -0.828125q0.75 -0.84375 0.75 -2.140625q0 -1.328125 -0.75 -2.15625q-0.734375 -0.828125 -1.9375 -0.828125q-1.1875 0 -1.953125 0.8125q-0.75 0.8125 -0.75 2.171875q0 1.3125 0.734375 2.140625q0.75 0.828125 1.96875 0.828125zm9.05838 0.6875l-1.875 -2.921875l-1.46875 0l0 2.921875l-0.90625 0l0 -7.34375l2.953125 0q1.03125 0 1.65625 0.625q0.640625 0.609375 0.640625 1.59375q0 0.921875 -0.546875 1.5q-0.53125 0.5625 -1.359375 0.640625l1.984375 2.984375l-1.078125 0zm-1.40625 -3.71875q0.65625 0 1.046875 -0.390625q0.40625 -0.390625 0.40625 -1.015625q0 -0.625 -0.40625 -1.0q-0.390625 -0.390625 -1.046875 -0.390625l-1.9375 0l0 2.796875l1.9375 0zm5.447815 3.71875l0 -6.515625l-2.3125 0l0 -0.828125l5.5625 0l0 0.828125l-2.328125 0l0 6.515625l-0.921875 0z" fill-rule="nonzero"></path><path fill="#3c78d8" d="m521.3921 244.63821l49.259827 0l0 6.4881897l-49.259827 0z" fill-rule="evenodd"></path><path stroke="#434343" stroke-width="2.0" stroke-linejoin="round" stroke-linecap="butt" d="m521.3921 244.63821l49.259827 0l0 6.4881897l-49.259827 0z" fill-rule="evenodd"></path><path fill="#ffffff" d="m535.7814 251.74731q-1.765625 0 -2.8125 -1.15625l0.53125 -0.703125q0.453125 0.515625 1.0625 0.78125q0.609375 0.265625 1.25 0.265625q0.796875 0 1.265625 -0.34375q0.46875 -0.359375 0.46875 -0.921875q0 -0.859375 -1.375 -1.234375q-1.609375 -0.4375 -2.0625 -0.6875q-0.4375 -0.25 -0.671875 -0.625q-0.234375 -0.390625 -0.234375 -0.90625q0 -0.890625 0.703125 -1.46875q0.703125 -0.578125 1.8125 -0.578125q1.640625 0 2.609375 1.03125l-0.5625 0.671875q-0.78125 -0.890625 -2.109375 -0.890625q-0.671875 0 -1.09375 0.328125q-0.421875 0.3125 -0.421875 0.84375q0 0.390625 0.34375 0.65625q0.359375 0.265625 1.03125 0.4375q1.5625 0.421875 2.015625 0.703125q0.453125 0.265625 0.703125 0.671875q0.25 0.40625 0.25 0.96875q0 1.015625 -0.734375 1.59375q-0.734375 0.5625 -1.96875 0.5625zm7.213379 0q-1.625 0 -2.640625 -1.078125q-1.0 -1.078125 -1.0 -2.703125q0 -1.65625 1.015625 -2.71875q1.015625 -1.078125 2.625 -1.078125q1.609375 0 2.625 1.078125q1.015625 1.078125 1.015625 2.71875q0 1.640625 -1.015625 2.71875q-1.015625 1.0625 -2.625 1.0625zm0 -0.8125q1.203125 0 1.9375 -0.828125q0.75 -0.84375 0.75 -2.140625q0 -1.328125 -0.75 -2.15625q-0.734375 -0.828125 -1.9375 -0.828125q-1.1875 0 -1.953125 0.8125q-0.75 0.8125 -0.75 2.171875q0 1.3125 0.734375 2.140625q0.75 0.828125 1.96875 0.828125zm9.058411 0.6875l-1.875 -2.921875l-1.46875 0l0 2.921875l-0.90625 0l0 -7.34375l2.953125 0q1.03125 0 1.65625 0.625q0.640625 0.609375 0.640625 1.59375q0 0.921875 -0.546875 1.5q-0.53125 0.5625 -1.359375 0.640625l1.984375 2.984375l-1.078125 0zm-1.40625 -3.71875q0.65625 0 1.046875 -0.390625q0.40625 -0.390625 0.40625 -1.015625q0 -0.625 -0.40625 -1.0q-0.390625 -0.390625 -1.046875 -0.390625l-1.9375 0l0 2.796875l1.9375 0zm5.447815 3.71875l0 -6.515625l-2.3125 0l0 -0.828125l5.5625 0l0 0.828125l-2.328125 0l0 6.515625l-0.921875 0z" fill-rule="nonzero"></path><path fill="#000000" fill-opacity="0.0" d="m470.10892 241.94821l0 2.6771698" fill-rule="evenodd"></path><path stroke="#595959" stroke-width="1.0" stroke-linejoin="round" stroke-linecap="butt" d="m470.10892 241.94821l0 2.6771698" fill-rule="evenodd"></path><path fill="#000000" fill-opacity="0.0" d="m546.022 241.94821l0 2.6771698" fill-rule="evenodd"></path><path stroke="#595959" stroke-width="1.0" stroke-linejoin="round" stroke-linecap="butt" d="m546.022 241.94821l0 2.6771698" fill-rule="evenodd"></path><path fill="#000000" fill-opacity="0.0" d="m470.10892 251.12582l0 2.6771698" fill-rule="evenodd"></path><path stroke="#595959" stroke-width="1.0" stroke-linejoin="round" stroke-linecap="butt" d="m470.10892 251.12582l0 2.6771698" fill-rule="evenodd"></path><path fill="#000000" fill-opacity="0.0" d="m546.022 251.1264l0 2.6771698" fill-rule="evenodd"></path><path stroke="#595959" stroke-width="1.0" stroke-linejoin="round" stroke-linecap="butt" d="m546.022 251.1264l0 2.6771698" fill-rule="evenodd"></path><path fill="#000000" fill-opacity="0.0" d="m336.48334 222.74278l-6.173218 3.5905457" fill-rule="evenodd"></path><path stroke="#595959" stroke-width="1.0" stroke-linejoin="round" stroke-linecap="butt" d="m336.48334 222.74278l-6.173218 3.5905457" fill-rule="evenodd"></path><path fill="#000000" fill-opacity="0.0" d="m330.30585 231.75026l-34.362183 4.7873993" fill-rule="evenodd"></path><path stroke="#595959" stroke-width="1.0" stroke-linejoin="round" stroke-linecap="butt" d="m330.30585 231.75026l-34.362183 4.7873993" fill-rule="evenodd"></path><path fill="#000000" fill-opacity="0.0" d="m330.30585 231.75026l41.57483 4.7873993" fill-rule="evenodd"></path><path stroke="#595959" stroke-width="1.0" stroke-linejoin="round" stroke-linecap="butt" d="m330.30585 231.75026l41.57483 4.7873993" fill-rule="evenodd"></path><path fill="#3c78d8" d="m302.08966 216.63255l68.787384 0l0 6.1102295l-68.787384 0z" fill-rule="evenodd"></path><path stroke="#434343" stroke-width="2.0" stroke-linejoin="round" stroke-linecap="butt" d="m302.08966 216.63255l68.787384 0l0 6.1102295l-68.787384 0z" fill-rule="evenodd"></path><path fill="#3c78d8" d="m313.361 226.33293l33.88974 0l0 5.417328l-33.88974 0z" fill-rule="evenodd"></path><path stroke="#434343" stroke-width="2.0" stroke-linejoin="round" stroke-linecap="butt" d="m313.361 226.33293l33.88974 0l0 5.417328l-33.88974 0z" fill-rule="evenodd"></path><path fill="#3c78d8" d="m271.3294 236.52826l49.259827 0l0 6.4881897l-49.259827 0z" fill-rule="evenodd"></path><path stroke="#434343" stroke-width="2.0" stroke-linejoin="round" stroke-linecap="butt" d="m271.3294 236.52826l49.259827 0l0 6.4881897l-49.259827 0z" fill-rule="evenodd"></path><path fill="#3c78d8" d="m347.24246 236.52826l49.259857 0l0 6.4881897l-49.259857 0z" fill-rule="evenodd"></path><path stroke="#434343" stroke-width="2.0" stroke-linejoin="round" stroke-linecap="butt" d="m347.24246 236.52826l49.259857 0l0 6.4881897l-49.259857 0z" fill-rule="evenodd"></path><path fill="#000000" fill-opacity="0.0" d="m336.29398 288.1601l0.3779297 -22.015747" fill-rule="evenodd"></path><path stroke="#595959" stroke-width="1.0" stroke-linejoin="round" stroke-linecap="butt" d="m336.29398 288.1601l0.3779297 -22.015747" fill-rule="evenodd"></path><path fill="#000000" fill-opacity="0.0" d="m336.6847 271.5647l35.18112 -16.692902" fill-rule="evenodd"></path><path stroke="#595959" stroke-width="1.0" stroke-linejoin="round" stroke-linecap="butt" d="m336.6847 271.5647l35.18112 -16.692902" fill-rule="evenodd"></path><path fill="#000000" fill-opacity="0.0" d="m336.6847 271.5647l-40.724396 -16.692902" fill-rule="evenodd"></path><path stroke="#595959" stroke-width="1.0" stroke-linejoin="round" stroke-linecap="butt" d="m336.6847 271.5647l-40.724396 -16.692902" fill-rule="evenodd"></path><path fill="#3c78d8" d="m357.4721 266.1474l-41.5748 0l0 5.4172974l41.5748 0z" fill-rule="evenodd"></path><path stroke="#434343" stroke-width="2.0" stroke-linejoin="round" stroke-linecap="butt" d="m357.4721 266.1474l-41.5748 0l0 5.4172974l41.5748 0z" fill-rule="evenodd"></path><path fill="#3c78d8" d="m396.49738 254.88504l-49.259857 0l0 6.4881897l49.259857 0z" fill-rule="evenodd"></path><path stroke="#434343" stroke-width="2.0" stroke-linejoin="round" stroke-linecap="butt" d="m396.49738 254.88504l-49.259857 0l0 6.4881897l49.259857 0z" fill-rule="evenodd"></path><path fill="#3c78d8" d="m320.5843 254.88504l-49.259827 0l0 6.4881897l49.259827 0z" fill-rule="evenodd"></path><path stroke="#434343" stroke-width="2.0" stroke-linejoin="round" stroke-linecap="butt" d="m320.5843 254.88504l-49.259827 0l0 6.4881897l49.259827 0z" fill-rule="evenodd"></path><path fill="#3c78d8" d="m271.3294 245.70589l49.259827 0l0 6.4881897l-49.259827 0z" fill-rule="evenodd"></path><path stroke="#434343" stroke-width="2.0" stroke-linejoin="round" stroke-linecap="butt" d="m271.3294 245.70589l49.259827 0l0 6.4881897l-49.259827 0z" fill-rule="evenodd"></path><path fill="#ffffff" d="m285.71872 252.81497q-1.765625 0 -2.8125 -1.15625l0.53125 -0.703125q0.453125 0.515625 1.0625 0.78125q0.609375 0.265625 1.25 0.265625q0.796875 0 1.265625 -0.34375q0.46875 -0.359375 0.46875 -0.921875q0 -0.859375 -1.375 -1.234375q-1.609375 -0.4375 -2.0625 -0.6875q-0.4375 -0.25 -0.671875 -0.625q-0.234375 -0.390625 -0.234375 -0.90625q0 -0.890625 0.703125 -1.46875q0.703125 -0.578125 1.8125 -0.578125q1.640625 0 2.609375 1.03125l-0.5625 0.671875q-0.78125 -0.890625 -2.109375 -0.890625q-0.671875 0 -1.09375 0.328125q-0.421875 0.3125 -0.421875 0.84375q0 0.390625 0.34375 0.65625q0.359375 0.265625 1.03125 0.4375q1.5625 0.421875 2.015625 0.703125q0.453125 0.265625 0.703125 0.671875q0.25 0.40625 0.25 0.96875q0 1.015625 -0.734375 1.59375q-0.734375 0.5625 -1.96875 0.5625zm7.213379 0q-1.625 0 -2.640625 -1.078125q-1.0 -1.078125 -1.0 -2.703125q0 -1.65625 1.015625 -2.71875q1.015625 -1.078125 2.625 -1.078125q1.609375 0 2.625 1.078125q1.015625 1.078125 1.015625 2.71875q0 1.640625 -1.015625 2.71875q-1.015625 1.0625 -2.625 1.0625zm0 -0.8125q1.203125 0 1.9375 -0.828125q0.75 -0.84375 0.75 -2.140625q0 -1.328125 -0.75 -2.15625q-0.734375 -0.828125 -1.9375 -0.828125q-1.1875 0 -1.953125 0.8125q-0.75 0.8125 -0.75 2.171875q0 1.3125 0.734375 2.140625q0.75 0.828125 1.96875 0.828125zm9.05838 0.6875l-1.875 -2.921875l-1.46875 0l0 2.921875l-0.90625 0l0 -7.34375l2.953125 0q1.03125 0 1.65625 0.625q0.640625 0.609375 0.640625 1.59375q0 0.921875 -0.546875 1.5q-0.53125 0.5625 -1.359375 0.640625l1.984375 2.984375l-1.078125 0zm-1.40625 -3.71875q0.65625 0 1.046875 -0.390625q0.40625 -0.390625 0.40625 -1.015625q0 -0.625 -0.40625 -1.0q-0.390625 -0.390625 -1.046875 -0.390625l-1.9375 0l0 2.796875l1.9375 0zm5.447815 3.71875l0 -6.515625l-2.3125 0l0 -0.828125l5.5625 0l0 0.828125l-2.328125 0l0 6.515625l-0.921875 0z" fill-rule="nonzero"></path><path fill="#3c78d8" d="m347.24246 245.70647l49.259857 0l0 6.4881897l-49.259857 0z" fill-rule="evenodd"></path><path stroke="#434343" stroke-width="2.0" stroke-linejoin="round" stroke-linecap="butt" d="m347.24246 245.70647l49.259857 0l0 6.4881897l-49.259857 0z" fill-rule="evenodd"></path><path fill="#ffffff" d="m361.6318 252.81555q-1.765625 0 -2.8125 -1.15625l0.53125 -0.703125q0.453125 0.515625 1.0625 0.78125q0.609375 0.265625 1.25 0.265625q0.796875 0 1.265625 -0.34375q0.46875 -0.359375 0.46875 -0.921875q0 -0.859375 -1.375 -1.234375q-1.609375 -0.4375 -2.0625 -0.6875q-0.4375 -0.25 -0.671875 -0.625q-0.234375 -0.390625 -0.234375 -0.90625q0 -0.890625 0.703125 -1.46875q0.703125 -0.578125 1.8125 -0.578125q1.640625 0 2.609375 1.03125l-0.5625 0.671875q-0.78125 -0.890625 -2.109375 -0.890625q-0.671875 0 -1.09375 0.328125q-0.421875 0.3125 -0.421875 0.84375q0 0.390625 0.34375 0.65625q0.359375 0.265625 1.03125 0.4375q1.5625 0.421875 2.015625 0.703125q0.453125 0.265625 0.703125 0.671875q0.25 0.40625 0.25 0.96875q0 1.015625 -0.734375 1.59375q-0.734375 0.5625 -1.96875 0.5625zm7.213379 0q-1.625 0 -2.640625 -1.078125q-1.0 -1.078125 -1.0 -2.703125q0 -1.65625 1.015625 -2.71875q1.015625 -1.078125 2.625 -1.078125q1.609375 0 2.625 1.078125q1.015625 1.078125 1.015625 2.71875q0 1.640625 -1.015625 2.71875q-1.015625 1.0625 -2.625 1.0625zm0 -0.8125q1.203125 0 1.9375 -0.828125q0.75 -0.84375 0.75 -2.140625q0 -1.328125 -0.75 -2.15625q-0.734375 -0.828125 -1.9375 -0.828125q-1.1875 0 -1.953125 0.8125q-0.75 0.8125 -0.75 2.171875q0 1.3125 0.734375 2.140625q0.75 0.828125 1.96875 0.828125zm9.05835 0.6875l-1.875 -2.921875l-1.46875 0l0 2.921875l-0.90625 0l0 -7.34375l2.953125 0q1.03125 0 1.65625 0.625q0.640625 0.609375 0.640625 1.59375q0 0.921875 -0.546875 1.5q-0.53125 0.5625 -1.359375 0.640625l1.984375 2.984375l-1.078125 0zm-1.40625 -3.71875q0.65625 0 1.046875 -0.390625q0.40625 -0.390625 0.40625 -1.015625q0 -0.625 -0.40625 -1.0q-0.390625 -0.390625 -1.046875 -0.390625l-1.9375 0l0 2.796875l1.9375 0zm5.447815 3.71875l0 -6.515625l-2.3125 0l0 -0.828125l5.5625 0l0 0.828125l-2.328125 0l0 6.515625l-0.921875 0z" fill-rule="nonzero"></path><path fill="#000000" fill-opacity="0.0" d="m295.95932 243.01645l0 2.6771698" fill-rule="evenodd"></path><path stroke="#595959" stroke-width="1.0" stroke-linejoin="round" stroke-linecap="butt" d="m295.95932 243.01645l0 2.6771698" fill-rule="evenodd"></path><path fill="#000000" fill-opacity="0.0" d="m371.87238 243.01645l0 2.6771698" fill-rule="evenodd"></path><path stroke="#595959" stroke-width="1.0" stroke-linejoin="round" stroke-linecap="butt" d="m371.87238 243.01645l0 2.6771698" fill-rule="evenodd"></path><path fill="#000000" fill-opacity="0.0" d="m295.95932 252.19408l0 2.6771545" fill-rule="evenodd"></path><path stroke="#595959" stroke-width="1.0" stroke-linejoin="round" stroke-linecap="butt" d="m295.95932 252.19408l0 2.6771545" fill-rule="evenodd"></path><path fill="#000000" fill-opacity="0.0" d="m371.87238 252.19466l0 2.6771545" fill-rule="evenodd"></path><path stroke="#595959" stroke-width="1.0" stroke-linejoin="round" stroke-linecap="butt" d="m371.87238 252.19466l0 2.6771545" fill-rule="evenodd"></path><path fill="#000000" fill-opacity="0.0" d="m336.48334 216.63255l-0.18896484 -9.007889" fill-rule="evenodd"></path><path stroke="#595959" stroke-width="1.0" stroke-linejoin="round" stroke-linecap="butt" d="m336.48334 216.63255l-0.18896484 -9.007889" fill-rule="evenodd"></path><path fill="#000000" fill-opacity="0.0" d="m511.72702 288.1601l-0.12597656 -8.0" fill-rule="evenodd"></path><path stroke="#595959" stroke-width="1.0" stroke-linejoin="round" stroke-linecap="butt" d="m511.72702 288.1601l-0.12597656 -8.0" fill-rule="evenodd"></path><path fill="#000000" fill-opacity="0.0" d="m511.72745 216.09973l0 -8.472427" fill-rule="evenodd"></path><path stroke="#595959" stroke-width="1.0" stroke-linejoin="round" stroke-linecap="butt" d="m511.72745 216.09973l0 -8.472427" fill-rule="evenodd"></path><path fill="#000000" fill-opacity="0.0" d="m96.40945 220.72179l499.99997 0l0 49.228348l-499.99997 0z" fill-rule="evenodd"></path><path fill="#000000" d="m114.22195 247.64178l-3.21875 -5.03125l-2.53125 0l0 5.03125l-1.578125 0l0 -12.671875l5.09375 0q1.78125 0 2.875 1.0625q1.09375 1.0625 1.09375 2.75q0 1.59375 -0.921875 2.578125q-0.921875 0.984375 -2.359375 1.109375l3.40625 5.171875l-1.859375 0zm-2.421875 -6.421875q1.140625 0 1.828125 -0.671875q0.6875 -0.671875 0.6875 -1.765625q0 -1.078125 -0.6875 -1.734375q-0.6875 -0.671875 -1.828125 -0.671875l-3.328125 0l0 4.84375l3.328125 0zm10.514877 6.65625q-2.0625 0 -3.375 -1.34375q-1.296875 -1.359375 -1.296875 -3.484375q0 -2.03125 1.296875 -3.421875q1.296875 -1.390625 3.234375 -1.390625q1.96875 0 3.1875 1.375q1.21875 1.359375 1.21875 3.546875l0 0.359375l-7.4375 0q0.078125 1.40625 1.015625 2.296875q0.9375 0.875 2.296875 0.875q1.671875 0 2.828125 -1.15625l0.6875 0.9375q-1.40625 1.40625 -3.65625 1.40625zm2.859375 -5.40625q0 -1.265625 -0.84375 -2.15625q-0.828125 -0.90625 -2.1875 -0.90625q-1.265625 0 -2.109375 0.90625q-0.84375 0.890625 -0.890625 2.15625l6.03125 0zm7.5503464 5.40625q-2.015625 0 -3.296875 -1.375q-1.28125 -1.375 -1.28125 -3.453125q0 -2.078125 1.28125 -3.4375q1.28125 -1.375 3.296875 -1.375q2.125 0 3.359375 1.59375l-0.9375 0.875q-0.875 -1.1875 -2.34375 -1.1875q-1.40625 0 -2.296875 0.984375q-0.875 0.96875 -0.875 2.546875q0 1.59375 0.875 2.578125q0.875 0.96875 2.296875 0.96875q1.4375 0 2.34375 -1.1875l0.9375 0.859375q-1.234375 1.609375 -3.359375 1.609375zm11.391098 -0.234375l0 -1.296875q-0.53125 0.609375 -1.390625 1.078125q-0.859375 0.453125 -1.890625 0.453125q-2.921875 0 -2.921875 -2.9375l0 -6.46875l1.421875 0l0 6.03125q0 1.09375 0.5 1.59375q0.5 0.5 1.5625 0.5q0.828125 0 1.5625 -0.40625q0.75 -0.421875 1.15625 -0.984375l0 -6.734375l1.421875 0l0 9.171875l-1.421875 0zm4.076477 0l0 -9.171875l1.421875 0l0 1.484375q1.28125 -1.671875 3.0625 -1.671875l0 1.453125l-0.5625 -0.0625q-0.65625 0 -1.4375 0.46875q-0.765625 0.46875 -1.0625 1.0l0 6.5l-1.421875 0zm9.06282 0.234375q-2.328125 0 -3.703125 -1.453125l0.75 -1.015625q0.453125 0.53125 1.25 0.921875q0.8125 0.375 1.765625 0.375q1.0625 0 1.609375 -0.4375q0.5625 -0.453125 0.5625 -1.140625q0 -0.59375 -0.609375 -0.9375q-0.59375 -0.359375 -2.234375 -0.75q-1.375 -0.28125 -2.109375 -0.890625q-0.734375 -0.625 -0.734375 -1.671875q0 -1.15625 0.921875 -1.890625q0.9375 -0.75 2.5 -0.75q2.0625 0 3.390625 1.328125l-0.65625 0.984375q-0.421875 -0.484375 -1.140625 -0.8125q-0.703125 -0.34375 -1.59375 -0.34375q-0.953125 0 -1.5 0.421875q-0.53125 0.421875 -0.53125 1.03125q0 0.546875 0.609375 0.875q0.609375 0.3125 2.234375 0.65625q1.390625 0.328125 2.109375 0.984375q0.71875 0.65625 0.71875 1.734375q0 1.28125 -0.984375 2.03125q-0.984375 0.75 -2.625 0.75zm6.4720306 -10.71875q-0.375 0 -0.671875 -0.265625q-0.28125 -0.28125 -0.28125 -0.6875q0 -0.40625 0.28125 -0.6875q0.296875 -0.28125 0.671875 -0.28125q0.40625 0 0.6875 0.28125q0.28125 0.28125 0.28125 0.6875q0 0.40625 -0.28125 0.6875q-0.28125 0.265625 -0.6875 0.265625zm-0.703125 10.484375l0 -9.171875l1.421875 0l0 9.171875l-1.421875 0zm8.213287 0.234375q-2.0 0 -3.28125 -1.359375q-1.265625 -1.359375 -1.265625 -3.46875q0 -2.125 1.265625 -3.46875q1.28125 -1.34375 3.28125 -1.34375q1.984375 0 3.25 1.34375q1.28125 1.34375 1.28125 3.46875q0 2.109375 -1.28125 3.46875q-1.265625 1.359375 -3.25 1.359375zm0 -1.28125q1.328125 0 2.171875 -1.0q0.859375 -1.0 0.859375 -2.546875q0 -1.546875 -0.859375 -2.53125q-0.84375 -1.0 -2.171875 -1.0q-1.328125 0 -2.203125 0.984375q-0.859375 0.984375 -0.859375 2.546875q0 1.578125 0.84375 2.5625q0.859375 0.984375 2.21875 0.984375zm12.858871 1.046875l0 -6.0q0 -1.21875 -0.5625 -1.671875q-0.5625 -0.453125 -1.5 -0.453125q-0.796875 0 -1.5625 0.421875q-0.765625 0.421875 -1.15625 1.0l0 6.703125l-1.421875 0l0 -9.171875l1.421875 0l0 1.328125q0.59375 -0.6875 1.453125 -1.125q0.875 -0.4375 1.828125 -0.4375q2.921875 0 2.921875 2.96875l0 6.4375l-1.421875 0z" fill-rule="nonzero"></path></g></svg>

