<?xml version="1.0" standalone="yes"?>

<svg version="1.1" viewBox="0.0 0.0 960.0 540.0" fill="none" stroke="none" stroke-linecap="square" stroke-miterlimit="10" xmlns="http://www.w3.org/2000/svg" xmlns:xlink="http://www.w3.org/1999/xlink"><clipPath id="g2b9afaac8a_0_0.0"><path d="m0 0l960.0 0l0 540.0l-960.0 0l0 -540.0z" clip-rule="nonzero"></path></clipPath><g clip-path="url(#g2b9afaac8a_0_0.0)"><path fill="#ffffff" d="m0 0l960.0 0l0 540.0l-960.0 0z" fill-rule="evenodd"></path><path fill="#3c78d8" d="m245.10236 52.682415l78.299225 0l0 72.8819l-78.299225 0z" fill-rule="evenodd"></path><path stroke="#434343" stroke-width="2.0" stroke-linejoin="round" stroke-linecap="butt" d="m245.10236 52.682415l78.299225 0l0 72.8819l-78.299225 0z" fill-rule="evenodd"></path><path fill="#ffffff" d="m284.29974 97.9446q-3.984375 0 -6.171875 -2.390625l1.90625 -2.375q1.703125 1.75 4.234375 1.75q1.453125 0 2.21875 -0.6875q0.765625 -0.703125 0.765625 -1.6875q0 -1.078125 -0.765625 -1.71875q-0.75 -0.65625 -2.109375 -0.65625q-2.015625 0 -3.359375 1.296875l-2.375 -0.625l0 -9.203125l10.984375 0l0 3.0l-7.578125 0l0 3.921875q0.5625 -0.578125 1.484375 -0.953125q0.9375 -0.390625 2.03125 -0.390625q2.171875 0 3.65625 1.4375q1.484375 1.4375 1.484375 3.75q0 2.53125 -1.734375 4.03125q-1.71875 1.5 -4.671875 1.5z" fill-rule="nonzero"></path><path fill="#3c78d8" d="m323.40158 52.695538l78.299194 0l0 72.8819l-78.299194 0z" fill-rule="evenodd"></path><path stroke="#434343" stroke-width="2.0" stroke-linejoin="round" stroke-linecap="butt" d="m323.40158 52.695538l78.299194 0l0 72.8819l-78.299194 0z" fill-rule="evenodd"></path><path fill="#ffffff" d="m356.4762 97.67648l0 -2.65625q5.671875 -4.234375 7.0625 -5.703125q1.40625 -1.484375 1.40625 -2.78125q0 -0.9375 -0.71875 -1.5q-0.71875 -0.578125 -1.859375 -0.578125q-2.5 0 -4.296875 1.84375l-1.953125 -2.25q1.171875 -1.375 2.828125 -2.0q1.65625 -0.625 3.34375 -0.625q2.703125 0 4.40625 1.421875q1.71875 1.40625 1.71875 3.6875q0 1.828125 -1.453125 3.734375q-1.453125 1.890625 -4.96875 4.40625l6.53125 0l0 3.0l-12.046875 0z" fill-rule="nonzero"></path><path fill="#3c78d8" d="m401.70078 52.700787l78.299225 0l0 72.8819l-78.299225 0z" fill-rule="evenodd"></path><path stroke="#434343" stroke-width="2.0" stroke-linejoin="round" stroke-linecap="butt" d="m401.70078 52.700787l78.299225 0l0 72.8819l-78.299225 0z" fill-rule="evenodd"></path><path fill="#ffffff" d="m441.9364 97.68173l0 -3.3125l-7.65625 0l0 -2.6875l6.359375 -10.015625l4.703125 0l0 9.703125l2.078125 0l0 3.0l-2.078125 0l0 3.3125l-3.40625 0zm0 -12.984375l-4.3125 6.671875l4.3125 0l0 -6.671875z" fill-rule="nonzero"></path><path fill="#3c78d8" d="m480.0 52.700787l78.299194 0l0 72.8819l-78.299194 0z" fill-rule="evenodd"></path><path stroke="#434343" stroke-width="2.0" stroke-linejoin="round" stroke-linecap="butt" d="m480.0 52.700787l78.299194 0l0 72.8819l-78.299194 0z" fill-rule="evenodd"></path><path fill="#ffffff" d="m519.588 97.96298q-3.25 0 -5.09375 -2.171875q-1.828125 -2.1875 -1.828125 -6.078125q0 -3.71875 1.984375 -6.0q2.0 -2.28125 5.484375 -2.28125q2.8125 0 4.734375 1.65625l-1.546875 2.625q-0.640625 -0.625 -1.375 -0.9375q-0.734375 -0.3125 -1.8125 -0.3125q-1.75 0 -2.890625 1.3125q-1.125 1.296875 -1.125 3.21875l0.03125 0.328125q0.671875 -0.921875 1.78125 -1.484375q1.125 -0.578125 2.328125 -0.578125q2.375 0 3.90625 1.453125q1.53125 1.4375 1.53125 3.765625q0 2.390625 -1.71875 3.9375q-1.703125 1.546875 -4.390625 1.546875zm-0.203125 -3.015625q1.28125 0 2.0625 -0.703125q0.796875 -0.71875 0.796875 -1.65625q0 -1.09375 -0.8125 -1.734375q-0.8125 -0.65625 -2.15625 -0.65625q-1.921875 0 -3.125 1.515625q0.125 1.4375 0.953125 2.34375q0.84375 0.890625 2.28125 0.890625z" fill-rule="nonzero"></path><path fill="#3c78d8" d="m558.2992 52.700787l78.299255 0l0 72.8819l-78.299255 0z" fill-rule="evenodd"></path><path stroke="#434343" stroke-width="2.0" stroke-linejoin="round" stroke-linecap="butt" d="m558.2992 52.700787l78.299255 0l0 72.8819l-78.299255 0z" fill-rule="evenodd"></path><path fill="#ffffff" d="m597.39185 97.68173l0 -11.609375l-2.671875 2.703125l-1.9375 -2.03125l5.03125 -5.078125l2.984375 0l0 16.015625l-3.40625 0z" fill-rule="nonzero"></path><path fill="#3c78d8" d="m636.59845 52.682415l78.299194 0l0 72.91339l-78.299194 0z" fill-rule="evenodd"></path><path stroke="#434343" stroke-width="2.0" stroke-linejoin="round" stroke-linecap="butt" d="m636.59845 52.682415l78.299194 0l0 72.91339l-78.299194 0z" fill-rule="evenodd"></path><path fill="#ffffff" d="m675.5009 97.96036q-2.234375 0 -3.828125 -0.734375q-1.59375 -0.75 -2.484375 -1.828125l1.765625 -2.28125q0.84375 0.859375 2.046875 1.34375q1.203125 0.484375 2.375 0.484375q1.46875 0 2.25 -0.5625q0.78125 -0.5625 0.78125 -1.484375q0 -0.953125 -0.78125 -1.390625q-0.765625 -0.453125 -2.4375 -0.453125l-0.5625 0l-1.4375 0.046875l0 -3.0625l0.890625 0.015625l1.109375 0q2.953125 0 2.953125 -1.703125q0 -0.953125 -0.859375 -1.421875q-0.84375 -0.46875 -2.125 -0.46875q-2.328125 0 -4.046875 1.65625l-1.703125 -2.140625q2.25 -2.546875 6.109375 -2.546875q2.828125 0 4.4375 1.1875q1.609375 1.171875 1.609375 3.15625q0 1.34375 -1.0 2.375q-0.984375 1.015625 -2.5 1.28125q1.65625 0.1875 2.703125 1.28125q1.046875 1.09375 1.046875 2.546875q0 2.125 -1.765625 3.421875q-1.75 1.28125 -4.546875 1.28125z" fill-rule="nonzero"></path><path fill="#000000" fill-opacity="0.0" d="m402.18896 17.060368l-0.9763794 107.55905" fill-rule="evenodd"></path><path stroke="#000000" stroke-width="2.0" stroke-linejoin="round" stroke-linecap="butt" d="m402.18896 17.060368l-0.9763794 107.55905" fill-rule="evenodd"></path><path fill="#000000" fill-opacity="0.0" d="m39.317585 61.614174l183.49606 0l0 63.937004l-183.49606 0z" fill-rule="evenodd"></path><path fill="#000000" d="m49.33321 83.41417l0 -8.671875l1.078125 0l0 8.671875l-1.078125 0zm7.3885345 0l0 -4.109375q0 -0.828125 -0.390625 -1.140625q-0.375 -0.3125 -1.015625 -0.3125q-0.546875 0 -1.078125 0.296875q-0.53125 0.28125 -0.78125 0.671875l0 4.59375l-0.984375 0l0 -6.28125l0.984375 0l0 0.90625q0.40625 -0.46875 0.984375 -0.765625q0.59375 -0.296875 1.25 -0.296875q2.0 0 2.0 2.03125l0 4.40625l-0.96875 0zm5.0937653 0.15625q-1.609375 0 -2.546875 -0.984375l0.515625 -0.703125q0.3125 0.359375 0.859375 0.625q0.5625 0.265625 1.203125 0.265625q0.734375 0 1.109375 -0.296875q0.375 -0.3125 0.375 -0.78125q0 -0.40625 -0.40625 -0.640625q-0.40625 -0.25 -1.53125 -0.515625q-0.953125 -0.1875 -1.453125 -0.609375q-0.5 -0.421875 -0.5 -1.140625q0 -0.796875 0.640625 -1.296875q0.640625 -0.515625 1.703125 -0.515625q1.421875 0 2.3281288 0.90625l-0.4531288 0.6875q-0.28125 -0.34375 -0.78125 -0.5625q-0.484375 -0.234375 -1.09375 -0.234375q-0.65625 0 -1.03125 0.296875q-0.359375 0.28125 -0.359375 0.6875q0 0.375 0.40625 0.609375q0.421875 0.21875 1.546875 0.453125q0.953125 0.21875 1.4375 0.671875q0.5000038 0.4375 0.5000038 1.1875q0 0.859375 -0.6875038 1.375q-0.671875 0.515625 -1.78125 0.515625zm7.0413094 0q-1.421875 0 -2.3125 -0.921875q-0.890625 -0.921875 -0.890625 -2.375q0 -1.390625 0.875 -2.34375q0.890625 -0.953125 2.21875 -0.953125q1.359375 0 2.1875 0.9375q0.828125 0.9375 0.828125 2.4375l0 0.234375l-5.078125 0q0.046875 0.96875 0.6875 1.578125q0.65625 0.59375 1.578125 0.59375q1.140625 0 1.9375 -0.78125l0.46875 0.625q-0.96875 0.96875 -2.5 0.96875zm1.953125 -3.6875q0 -0.875 -0.578125 -1.484375q-0.578125 -0.609375 -1.5 -0.609375q-0.859375 0 -1.453125 0.609375q-0.578125 0.609375 -0.59375 1.484375l4.125 0zm2.706833 3.53125l0 -6.28125l0.984375 0l0 1.015625q0.875 -1.140625 2.09375 -1.140625l0 1.0l-0.390625 -0.046875q-0.4375 0 -0.984375 0.328125q-0.53125 0.3125 -0.71875 0.671875l0 4.453125l-0.984375 0zm5.9920197 0.15625q-1.390625 0 -1.390625 -1.46875l0 -4.109375l-1.046875 0l0 -0.859375l1.046875 0l0 -1.71875l0.96875 0l0 1.71875l1.28125 0l0 0.859375l-1.28125 0l0 3.90625q0 0.34375 0.15625 0.578125q0.15625 0.21875 0.484375 0.21875q0.40625 0 0.65625 -0.25l0.296875 0.71875q-0.40625 0.40625 -1.171875 0.40625zm3.762207 2.4375q-0.890625 -1.21875 -1.359375 -2.703125q-0.46875 -1.484375 -0.46875 -3.046875q0 -1.578125 0.46875 -3.046875q0.46875 -1.484375 1.359375 -2.703125l0.578125 0.4375q-0.78125 1.5625 -1.0625 2.734375q-0.28125 1.15625 -0.28125 2.578125q0 1.40625 0.28125 2.59375q0.296875 1.171875 1.0625 2.6875l-0.578125 0.46875zm1.6022339 -2.59375l0 -0.859375q2.28125 -1.8125 3.140625 -2.625q0.859375 -0.828125 1.265625 -1.484375q0.40625 -0.65625 0.40625 -1.28125q0 -0.71875 -0.5 -1.15625q-0.484375 -0.4375 -1.3125 -0.4375q-1.515625 0 -2.34375 1.09375l-0.671875 -0.6875q0.5 -0.65625 1.296875 -1.0q0.796875 -0.359375 1.71875 -0.359375q1.265625 0 2.078125 0.703125q0.828125 0.6875 0.828125 1.84375q0 1.046875 -0.890625 2.21875q-0.875 1.15625 -3.3125 3.0625l4.25 0l0 0.96875l-5.953125 0zm7.352539 2.125q0.765625 -1.5 1.0625 -2.71875q0.3125 -1.234375 0.3125 -2.5625q0 -1.328125 -0.296875 -2.53125q-0.296875 -1.203125 -1.078125 -2.78125l0.59375 -0.4375q0.890625 1.21875 1.359375 2.703125q0.484375 1.46875 0.484375 3.046875q0 1.5625 -0.484375 3.046875q-0.46875 1.484375 -1.359375 2.703125l-0.59375 -0.46875zm9.087753 -1.96875q-1.390625 0 -1.390625 -1.46875l0 -4.109375l-1.046875 0l0 -0.859375l1.046875 0l0 -1.71875l0.96875 0l0 1.71875l1.28125 0l0 0.859375l-1.28125 0l0 3.90625q0 0.34375 0.15625 0.578125q0.15625 0.21875 0.484375 0.21875q0.40625 0 0.65625 -0.25l0.296875 0.71875q-0.40625 0.40625 -1.171875 0.40625zm5.074707 0q-1.359375 0 -2.234375 -0.921875q-0.875 -0.9375 -0.875 -2.375q0 -1.46875 0.875 -2.375q0.875 -0.921875 2.234375 -0.921875q1.359375 0 2.234375 0.921875q0.875 0.90625 0.875 2.375q0 1.4375 -0.875 2.375q-0.875 0.921875 -2.234375 0.921875zm0 -0.875q0.90625 0 1.484375 -0.671875q0.59375 -0.6875 0.59375 -1.75q0 -1.0625 -0.59375 -1.734375q-0.578125 -0.6875 -1.484375 -0.6875q-0.90625 0 -1.5 0.671875q-0.59375 0.671875 -0.59375 1.75q0 1.078125 0.578125 1.75q0.59375 0.671875 1.515625 0.671875zm10.312302 0.875q-1.609375 0 -2.546875 -0.984375l0.515625 -0.703125q0.3125 0.359375 0.859375 0.625q0.5625 0.265625 1.203125 0.265625q0.734375 0 1.109375 -0.296875q0.375 -0.3125 0.375 -0.78125q0 -0.40625 -0.40625 -0.640625q-0.40625 -0.25 -1.53125 -0.515625q-0.953125 -0.1875 -1.453125 -0.609375q-0.5 -0.421875 -0.5 -1.140625q0 -0.796875 0.640625 -1.296875q0.640625 -0.515625 1.703125 -0.515625q1.421875 0 2.328125 0.90625l-0.453125 0.6875q-0.28125 -0.34375 -0.78125 -0.5625q-0.484375 -0.234375 -1.09375 -0.234375q-0.65625 0 -1.03125 0.296875q-0.359375 0.28125 -0.359375 0.6875q0 0.375 0.40625 0.609375q0.421875 0.21875 1.546875 0.453125q0.953125 0.21875 1.4375 0.671875q0.5 0.4375 0.5 1.1875q0 0.859375 -0.6875 1.375q-0.671875 0.515625 -1.78125 0.515625zm6.9475555 0q-1.359375 0 -2.234375 -0.921875q-0.875 -0.9375 -0.875 -2.375q0 -1.46875 0.875 -2.375q0.875 -0.921875 2.234375 -0.921875q1.359375 0 2.234375 0.921875q0.875 0.90625 0.875 2.375q0 1.4375 -0.875 2.375q-0.875 0.921875 -2.234375 0.921875zm0 -0.875q0.90625 0 1.484375 -0.671875q0.59375 -0.6875 0.59375 -1.75q0 -1.0625 -0.59375 -1.734375q-0.578125 -0.6875 -1.484375 -0.6875q-0.90625 0 -1.5 0.671875q-0.59375 0.671875 -0.59375 1.75q0 1.078125 0.578125 1.75q0.59375 0.671875 1.515625 0.671875zm4.8736496 0.71875l0 -6.28125l0.984375 0l0 1.015625q0.875 -1.140625 2.09375 -1.140625l0 1.0l-0.390625 -0.046875q-0.4375 0 -0.984375 0.328125q-0.53125 0.3125 -0.71875 0.671875l0 4.453125l-0.984375 0zm5.9920197 0.15625q-1.390625 0 -1.390625 -1.46875l0 -4.109375l-1.046875 0l0 -0.859375l1.046875 0l0 -1.71875l0.96875 0l0 1.71875l1.28125 0l0 0.859375l-1.28125 0l0 3.90625q0 0.34375 0.15625 0.578125q0.15625 0.21875 0.484375 0.21875q0.40625 0 0.65625 -0.25l0.296875 0.71875q-0.40625 0.40625 -1.171875 0.40625zm5.168457 0q-1.421875 0 -2.3125 -0.921875q-0.890625 -0.921875 -0.890625 -2.375q0 -1.390625 0.875 -2.34375q0.890625 -0.953125 2.21875 -0.953125q1.359375 0 2.1875 0.9375q0.828125 0.9375 0.828125 2.4375l0 0.234375l-5.078125 0q0.046875 0.96875 0.6875 1.578125q0.65625 0.59375 1.578125 0.59375q1.140625 0 1.9375 -0.78125l0.46875 0.625q-0.96875 0.96875 -2.5 0.96875zm1.953125 -3.6875q0 -0.875 -0.578125 -1.484375q-0.578125 -0.609375 -1.5 -0.609375q-0.859375 0 -1.453125 0.609375q-0.578125 0.609375 -0.59375 1.484375l4.125 0zm7.269333 3.53125l0 -0.9375q-0.359375 0.484375 -0.921875 0.796875q-0.546875 0.296875 -1.203125 0.296875q-1.265625 0 -2.03125 -0.890625q-0.765625 -0.90625 -0.765625 -2.40625q0 -1.5 0.765625 -2.390625q0.78125 -0.90625 2.03125 -0.90625q0.640625 0 1.1875 0.296875q0.546875 0.296875 0.9375 0.8125l0 -3.34375l0.96875 0l0 8.671875l-0.96875 0zm-1.890625 -0.71875q0.578125 0 1.09375 -0.28125q0.53125 -0.28125 0.796875 -0.703125l0 -2.84375q-0.265625 -0.421875 -0.796875 -0.71875q-0.515625 -0.296875 -1.09375 -0.296875q-0.90625 0 -1.46875 0.671875q-0.546875 0.65625 -0.546875 1.75q0 1.09375 0.546875 1.765625q0.546875 0.65625 1.46875 0.65625zm8.43042 0.71875l0 -8.671875l0.984375 0l0 8.671875l-0.984375 0zm3.4831848 -7.171875q-0.25 0 -0.453125 -0.1875q-0.1875 -0.1875 -0.1875 -0.46875q0 -0.265625 0.1875 -0.453125q0.203125 -0.203125 0.453125 -0.203125q0.28125 0 0.46875 0.203125q0.203125 0.1875 0.203125 0.453125q0 0.28125 -0.203125 0.46875q-0.1875 0.1875 -0.46875 0.1875zm-0.484375 7.171875l0 -6.28125l0.984375 0l0 6.28125l-0.984375 0zm4.99881 0.15625q-1.609375 0 -2.546875 -0.984375l0.515625 -0.703125q0.3125 0.359375 0.859375 0.625q0.5625 0.265625 1.203125 0.265625q0.734375 0 1.109375 -0.296875q0.375 -0.3125 0.375 -0.78125q0 -0.40625 -0.40625 -0.640625q-0.40625 -0.25 -1.53125 -0.515625q-0.953125 -0.1875 -1.453125 -0.609375q-0.5 -0.421875 -0.5 -1.140625q0 -0.796875 0.640625 -1.296875q0.640625 -0.515625 1.703125 -0.515625q1.421875 0 2.328125 0.90625l-0.453125 0.6875q-0.28125 -0.34375 -0.78125 -0.5625q-0.484375 -0.234375 -1.09375 -0.234375q-0.65625 0 -1.03125 0.296875q-0.359375 0.28125 -0.359375 0.6875q0 0.375 0.40625 0.609375q0.421875 0.21875 1.546875 0.453125q0.953125 0.21875 1.4375 0.671875q0.5 0.4375 0.5 1.1875q0 0.859375 -0.6875 1.375q-0.671875 0.515625 -1.78125 0.515625zm5.7913055 0q-1.390625 0 -1.390625 -1.46875l0 -4.109375l-1.046875 0l0 -0.859375l1.046875 0l0 -1.71875l0.96875 0l0 1.71875l1.28125 0l0 0.859375l-1.28125 0l0 3.90625q0 0.34375 0.15625 0.578125q0.15625 0.21875 0.484375 0.21875q0.40625 0 0.65625 -0.25l0.296875 0.71875q-0.40625 0.40625 -1.171875 0.40625z" fill-rule="nonzero"></path><path fill="#000000" d="m51.286335 99.57042q-1.609375 0 -2.546875 -0.984375l0.515625 -0.703125q0.3125 0.359375 0.859375 0.625q0.5625 0.265625 1.203125 0.265625q0.734375 0 1.109375 -0.296875q0.375 -0.3125 0.375 -0.78125q0 -0.40625 -0.40625 -0.640625q-0.40625 -0.25 -1.53125 -0.515625q-0.953125 -0.1875 -1.453125 -0.609375q-0.5 -0.421875 -0.5 -1.140625q0 -0.796875 0.640625 -1.296875q0.640625 -0.515625 1.703125 -0.515625q1.421875 0 2.328125 0.90625l-0.453125 0.6875q-0.28125 -0.34375 -0.78125 -0.5625q-0.484375 -0.234375 -1.09375 -0.234375q-0.65625 0 -1.03125 0.296875q-0.359375 0.28125 -0.359375 0.6875q0 0.375 0.40625 0.609375q0.421875 0.21875 1.546875 0.453125q0.953125 0.21875 1.4375 0.671875q0.5 0.4375 0.5 1.1875q0 0.859375 -0.6875 1.375q-0.671875 0.515625 -1.78125 0.515625zm7.0413055 0q-1.421875 0 -2.3125 -0.921875q-0.890625 -0.921875 -0.890625 -2.375q0 -1.390625 0.875 -2.34375q0.890625 -0.953125 2.21875 -0.953125q1.359375 0 2.1875 0.9375q0.828125 0.9375 0.828125 2.4375l0 0.234375l-5.078125 0q0.046875 0.96875 0.6875 1.578125q0.65625 0.59375 1.578125 0.59375q1.140625 0 1.9375 -0.78125l0.46875 0.625q-0.96875 0.96875 -2.5 0.96875zm1.953125 -3.6875q0 -0.875 -0.578125 -1.484375q-0.578125 -0.609375 -1.5 -0.609375q-0.859375 0 -1.453125 0.609375q-0.578125 0.609375 -0.59375 1.484375l4.125 0zm6.6443367 3.53125l0 -0.71875q-0.796875 0.875 -2.078125 0.875q-0.9531288 0 -1.5781288 -0.59375q-0.625 -0.609375 -0.625 -1.484375q0 -0.90625 0.609375 -1.484375q0.625 -0.578125 1.5937538 -0.578125q1.34375 0 2.078125 0.84375l0 -1.125q0 -0.640625 -0.453125 -0.984375q-0.453125 -0.34375 -1.140625 -0.34375q-1.109375 0 -1.9218788 0.875l-0.453125 -0.671875q1.0 -1.046875 2.5000038 -1.046875q1.171875 0 1.796875 0.5625q0.640625 0.5625 0.640625 1.5625l0 4.3125l-0.96875 0zm-1.734375 -0.546875q1.15625 0 1.734375 -0.78125l0 -1.1875q-0.578125 -0.765625 -1.734375 -0.765625q-0.6875 0 -1.125 0.390625q-0.4218788 0.375 -0.4218788 0.984375q0 0.59375 0.4218788 0.984375q0.4375 0.375 1.125 0.375zm4.8207703 0.546875l0 -6.28125l0.984375 0l0 1.015625q0.875 -1.140625 2.09375 -1.140625l0 1.0l-0.390625 -0.046875q-0.4375 0 -0.984375 0.328125q-0.53125 0.3125 -0.71875 0.671875l0 4.453125l-0.984375 0zm7.1795197 0.15625q-1.390625 0 -2.265625 -0.9375q-0.875 -0.9375 -0.875 -2.359375q0 -1.421875 0.875 -2.359375q0.875 -0.9375 2.265625 -0.9375q1.453125 0 2.296875 1.09375l-0.65625 0.59375q-0.59375 -0.8125 -1.59375 -0.8125q-0.96875 0 -1.578125 0.671875q-0.59375 0.671875 -0.59375 1.75q0 1.09375 0.59375 1.765625q0.609375 0.65625 1.578125 0.65625q0.984375 0 1.59375 -0.8125l0.65625 0.59375q-0.84375 1.09375 -2.296875 1.09375zm8.066147 -0.15625l0 -4.140625q0 -0.703125 -0.328125 -1.0625q-0.328125 -0.359375 -1.078125 -0.359375q-0.53125 0 -1.03125 0.28125q-0.5 0.265625 -0.828125 0.6875l0 4.59375l-0.984375 0l0 -8.671875l0.984375 0l0 3.296875q0.40625 -0.46875 1.0 -0.765625q0.609375 -0.296875 1.25 -0.296875q2.0 0 2.0 2.0l0 4.4375l-0.984375 0zm4.5446014 2.59375q-0.890625 -1.21875 -1.359375 -2.703125q-0.46875 -1.484375 -0.46875 -3.046875q0 -1.578125 0.46875 -3.046875q0.46875 -1.484375 1.359375 -2.703125l0.578125 0.4375q-0.78125 1.5625 -1.0625 2.734375q-0.28125 1.15625 -0.28125 2.578125q0 1.40625 0.28125 2.59375q0.296875 1.171875 1.0625 2.6875l-0.578125 0.46875zm1.6022339 -2.59375l0 -0.859375q2.28125 -1.8125 3.140625 -2.625q0.859375 -0.828125 1.265625 -1.484375q0.40625 -0.65625 0.40625 -1.28125q0 -0.71875 -0.5 -1.15625q-0.484375 -0.4375 -1.3125 -0.4375q-1.515625 0 -2.34375 1.09375l-0.671875 -0.6875q0.5 -0.65625 1.296875 -1.0q0.796875 -0.359375 1.71875 -0.359375q1.265625 0 2.078125 0.703125q0.828125 0.6875 0.828125 1.84375q0 1.046875 -0.890625 2.21875q-0.875 1.15625 -3.3125 3.0625l4.25 0l0 0.96875l-5.953125 0zm7.352539 2.125q0.765625 -1.5 1.0625 -2.71875q0.3125 -1.234375 0.3125 -2.5625q0 -1.328125 -0.296875 -2.53125q-0.296875 -1.203125 -1.078125 -2.78125l0.59375 -0.4375q0.890625 1.21875 1.359375 2.703125q0.484375 1.46875 0.484375 3.046875q0 1.5625 -0.484375 3.046875q-0.46875 1.484375 -1.359375 2.703125l-0.59375 -0.46875zm12.931503 -2.125l-1.640625 -5.046875l-1.625 5.046875l-0.984375 0l-2.0 -6.28125l1.015625 0l1.53125 5.0l1.65625 -5.0l0.828125 0l1.65625 5.0l1.53125 -5.0l1.015625 0l-2.0 6.28125l-0.984375 0zm8.595306 0l0 -4.140625q0 -0.703125 -0.328125 -1.0625q-0.328125 -0.359375 -1.078125 -0.359375q-0.53125 0 -1.03125 0.28125q-0.5 0.265625 -0.828125 0.6875l0 4.59375l-0.984375 0l0 -8.671875l0.984375 0l0 3.296875q0.40625 -0.46875 1.0 -0.765625q0.609375 -0.296875 1.25 -0.296875q2.0 0 2.0 2.0l0 4.4375l-0.984375 0zm5.9508514 0.15625q-1.421875 0 -2.3125 -0.921875q-0.890625 -0.921875 -0.890625 -2.375q0 -1.390625 0.875 -2.34375q0.890625 -0.953125 2.21875 -0.953125q1.359375 0 2.1874924 0.9375q0.828125 0.9375 0.828125 2.4375l0 0.234375l-5.0781174 0q0.046875 0.96875 0.6875 1.578125q0.65625 0.59375 1.578125 0.59375q1.140625 0 1.9374924 -0.78125l0.46875 0.625q-0.9687424 0.96875 -2.4999924 0.96875zm1.9531174 -3.6875q0 -0.875 -0.5781174 -1.484375q-0.578125 -0.609375 -1.5 -0.609375q-0.859375 0 -1.453125 0.609375q-0.578125 0.609375 -0.59375 1.484375l4.1249924 0zm2.706833 3.53125l0 -6.28125l0.984375 0l0 1.015625q0.875 -1.140625 2.09375 -1.140625l0 1.0l-0.390625 -0.046875q-0.4375 0 -0.984375 0.328125q-0.53125 0.3125 -0.71875 0.671875l0 4.453125l-0.984375 0zm7.2420197 0.15625q-1.421875 0 -2.3125 -0.921875q-0.890625 -0.921875 -0.890625 -2.375q0 -1.390625 0.875 -2.34375q0.890625 -0.953125 2.21875 -0.953125q1.359375 0 2.1875 0.9375q0.828125 0.9375 0.828125 2.4375l0 0.234375l-5.078125 0q0.046875 0.96875 0.6875 1.578125q0.65625 0.59375 1.578125 0.59375q1.140625 0 1.9375 -0.78125l0.46875 0.625q-0.96875 0.96875 -2.5 0.96875zm1.953125 -3.6875q0 -0.875 -0.578125 -1.484375q-0.578125 -0.609375 -1.5 -0.609375q-0.859375 0 -1.453125 0.609375q-0.578125 0.609375 -0.59375 1.484375l4.125 0zm7.7392273 3.6875q-1.390625 0 -1.390625 -1.46875l0 -4.109375l-1.046875 0l0 -0.859375l1.046875 0l0 -1.71875l0.96875 0l0 1.71875l1.28125 0l0 0.859375l-1.28125 0l0 3.90625q0 0.34375 0.15625 0.578125q0.15625 0.21875 0.484375 0.21875q0.40625 0 0.65625 -0.25l0.296875 0.71875q-0.40625 0.40625 -1.171875 0.40625zm5.074707 0q-1.359375 0 -2.234375 -0.921875q-0.875 -0.9375 -0.875 -2.375q0 -1.46875 0.875 -2.375q0.875 -0.921875 2.234375 -0.921875q1.359375 0 2.234375 0.921875q0.875 0.90625 0.875 2.375q0 1.4375 -0.875 2.375q-0.875 0.921875 -2.234375 0.921875zm0 -0.875q0.90625 0 1.484375 -0.671875q0.59375 -0.6875 0.59375 -1.75q0 -1.0625 -0.59375 -1.734375q-0.578125 -0.6875 -1.484375 -0.6875q-0.90625 0 -1.5 0.671875q-0.59375 0.671875 -0.59375 1.75q0 1.078125 0.578125 1.75q0.59375 0.671875 1.515625 0.671875zm11.406052 0.875q-1.328125 0 -2.109375 -1.109375l0 3.34375l-0.984375 0l0 -8.671875l0.984375 0l0 0.9375q0.328125 -0.484375 0.890625 -0.78125q0.5625 -0.3125 1.21875 -0.3125q1.265625 0 2.03125 0.890625q0.765625 0.875 0.765625 2.40625q0 1.5 -0.765625 2.40625q-0.75 0.890625 -2.03125 0.890625zm-0.234375 -0.875q0.90625 0 1.453125 -0.65625q0.5625 -0.671875 0.5625 -1.765625q0 -1.078125 -0.546875 -1.75q-0.546875 -0.671875 -1.46875 -0.671875q-0.59375 0 -1.109375 0.296875q-0.515625 0.28125 -0.765625 0.703125l0 2.828125q0.25 0.421875 0.765625 0.71875q0.515625 0.296875 1.109375 0.296875zm4.764282 0.71875l0 -8.671875l0.984375 0l0 8.671875l-0.984375 0zm6.93631 0l0 -0.71875q-0.796875 0.875 -2.078125 0.875q-0.953125 0 -1.578125 -0.59375q-0.625 -0.609375 -0.625 -1.484375q0 -0.90625 0.609375 -1.484375q0.625 -0.578125 1.59375 -0.578125q1.34375 0 2.078125 0.84375l0 -1.125q0 -0.640625 -0.453125 -0.984375q-0.453125 -0.34375 -1.140625 -0.34375q-1.109375 0 -1.921875 0.875l-0.453125 -0.671875q1.0 -1.046875 2.5 -1.046875q1.171875 0 1.796875 0.5625q0.640625 0.5625 0.640625 1.5625l0 4.3125l-0.96875 0zm-1.734375 -0.546875q1.15625 0 1.734375 -0.78125l0 -1.1875q-0.578125 -0.765625 -1.734375 -0.765625q-0.6875 0 -1.125 0.390625q-0.421875 0.375 -0.421875 0.984375q0 0.59375 0.421875 0.984375q0.4375 0.375 1.125 0.375zm7.6020203 0.703125q-1.390625 0 -2.265625 -0.9375q-0.875 -0.9375 -0.875 -2.359375q0 -1.421875 0.875 -2.359375q0.875 -0.9375 2.265625 -0.9375q1.453125 0 2.296875 1.09375l-0.65625 0.59375q-0.59375 -0.8125 -1.59375 -0.8125q-0.96875 0 -1.578125 0.671875q-0.59375 0.671875 -0.59375 1.75q0 1.09375 0.59375 1.765625q0.609375 0.65625 1.578125 0.65625q0.984375 0 1.59375 -0.8125l0.65625 0.59375q-0.84375 1.09375 -2.296875 1.09375zm6.659897 0q-1.421875 0 -2.3125 -0.921875q-0.890625 -0.921875 -0.890625 -2.375q0 -1.390625 0.875 -2.34375q0.890625 -0.953125 2.21875 -0.953125q1.359375 0 2.1875 0.9375q0.828125 0.9375 0.828125 2.4375l0 0.234375l-5.078125 0q0.046875 0.96875 0.6875 1.578125q0.65625 0.59375 1.578125 0.59375q1.140625 0 1.9375 -0.78125l0.46875 0.625q-0.96875 0.96875 -2.5 0.96875zm1.953125 -3.6875q0 -0.875 -0.578125 -1.484375q-0.578125 -0.609375 -1.5 -0.609375q-0.859375 0 -1.453125 0.609375q-0.578125 0.609375 -0.59375 1.484375l4.125 0zm6.6298523 -3.640625q-0.25 0 -0.453125 -0.1875q-0.1875 -0.1875 -0.1875 -0.46875q0 -0.265625 0.1875 -0.453125q0.203125 -0.203125 0.453125 -0.203125q0.28125 0 0.46875 0.203125q0.203125 0.1875 0.203125 0.453125q0 0.28125 -0.203125 0.46875q-0.1875 0.1875 -0.46875 0.1875zm-0.484375 7.171875l0 -6.28125l0.984375 0l0 6.28125l-0.984375 0zm4.59256 0.15625q-1.390625 0 -1.390625 -1.46875l0 -4.109375l-1.046875 0l0 -0.859375l1.046875 0l0 -1.71875l0.96875 0l0 1.71875l1.28125 0l0 0.859375l-1.28125 0l0 3.90625q0 0.34375 0.15625 0.578125q0.15625 0.21875 0.484375 0.21875q0.40625 0 0.65625 -0.25l0.296875 0.71875q-0.40625 0.40625 -1.171875 0.40625z" fill-rule="nonzero"></path><path fill="#000000" d="m49.33321 115.41417l0 -8.671875l1.078125 0l0 8.671875l-1.078125 0zm7.3885345 0l0 -4.109375q0 -0.828125 -0.390625 -1.140625q-0.375 -0.3125 -1.015625 -0.3125q-0.546875 0 -1.078125 0.296875q-0.53125 0.28125 -0.78125 0.671875l0 4.59375l-0.984375 0l0 -6.28125l0.984375 0l0 0.90625q0.40625 -0.46875 0.984375 -0.765625q0.59375 -0.296875 1.25 -0.296875q2.0 0 2.0 2.03125l0 4.40625l-0.96875 0zm5.0937653 0.15625q-1.609375 0 -2.546875 -0.984375l0.515625 -0.703125q0.3125 0.359375 0.859375 0.625q0.5625 0.265625 1.203125 0.265625q0.734375 0 1.109375 -0.296875q0.375 -0.3125 0.375 -0.78125q0 -0.40625 -0.40625 -0.640625q-0.40625 -0.25 -1.53125 -0.515625q-0.953125 -0.1875 -1.453125 -0.609375q-0.5 -0.421875 -0.5 -1.140625q0 -0.796875 0.640625 -1.296875q0.640625 -0.515625 1.703125 -0.515625q1.421875 0 2.3281288 0.90625l-0.4531288 0.6875q-0.28125 -0.34375 -0.78125 -0.5625q-0.484375 -0.234375 -1.09375 -0.234375q-0.65625 0 -1.03125 0.296875q-0.359375 0.28125 -0.359375 0.6875q0 0.375 0.40625 0.609375q0.421875 0.21875 1.546875 0.453125q0.953125 0.21875 1.4375 0.671875q0.5000038 0.4375 0.5000038 1.1875q0 0.859375 -0.6875038 1.375q-0.671875 0.515625 -1.78125 0.515625zm7.0413094 0q-1.421875 0 -2.3125 -0.921875q-0.890625 -0.921875 -0.890625 -2.375q0 -1.390625 0.875 -2.34375q0.890625 -0.953125 2.21875 -0.953125q1.359375 0 2.1875 0.9375q0.828125 0.9375 0.828125 2.4375l0 0.234375l-5.078125 0q0.046875 0.96875 0.6875 1.578125q0.65625 0.59375 1.578125 0.59375q1.140625 0 1.9375 -0.78125l0.46875 0.625q-0.96875 0.96875 -2.5 0.96875zm1.953125 -3.6875q0 -0.875 -0.578125 -1.484375q-0.578125 -0.609375 -1.5 -0.609375q-0.859375 0 -1.453125 0.609375q-0.578125 0.609375 -0.59375 1.484375l4.125 0zm2.706833 3.53125l0 -6.28125l0.984375 0l0 1.015625q0.875 -1.140625 2.09375 -1.140625l0 1.0l-0.390625 -0.046875q-0.4375 0 -0.984375 0.328125q-0.53125 0.3125 -0.71875 0.671875l0 4.453125l-0.984375 0zm5.9920197 0.15625q-1.390625 0 -1.390625 -1.46875l0 -4.109375l-1.046875 0l0 -0.859375l1.046875 0l0 -1.71875l0.96875 0l0 1.71875l1.28125 0l0 0.859375l-1.28125 0l0 3.90625q0 0.34375 0.15625 0.578125q0.15625 0.21875 0.484375 0.21875q0.40625 0 0.65625 -0.25l0.296875 0.71875q-0.40625 0.40625 -1.171875 0.40625zm5.4977264 -0.15625l0 -0.859375q2.28125 -1.8125 3.140625 -2.625q0.859375 -0.828125 1.265625 -1.484375q0.40625 -0.65625 0.40625 -1.28125q0 -0.71875 -0.5 -1.15625q-0.484375 -0.4375 -1.3125 -0.4375q-1.515625 0 -2.34375 1.09375l-0.671875 -0.6875q0.5 -0.65625 1.296875 -1.0q0.796875 -0.359375 1.71875 -0.359375q1.265625 0 2.078125 0.703125q0.828125 0.6875 0.828125 1.84375q0 1.046875 -0.890625 2.21875q-0.875 1.15625 -3.3125 3.0625l4.25 0l0 0.96875l-5.953125 0zm12.525558 -1.703125q0.25 0.421875 0.765625 0.703125q0.515625 0.28125 1.109375 0.28125q0.921875 0 1.46875 -0.65625q0.546875 -0.671875 0.546875 -1.765625q0 -1.078125 -0.546875 -1.75q-0.53125 -0.671875 -1.46875 -0.671875q-0.59375 0 -1.109375 0.296875q-0.515625 0.296875 -0.765625 0.71875l0 2.84375zm-0.984375 1.703125l0 -8.671875l0.984375 0l0 3.34375q0.796875 -1.109375 2.109375 -1.109375q1.25 0 2.015625 0.921875q0.78125 0.90625 0.78125 2.375q0 1.515625 -0.78125 2.40625q-0.765625 0.890625 -2.015625 0.890625q-0.65625 0 -1.21875 -0.296875q-0.546875 -0.3125 -0.890625 -0.796875l0 0.9375l-0.984375 0zm10.5074005 0.15625q-1.421875 0 -2.3125 -0.921875q-0.890625 -0.921875 -0.890625 -2.375q0 -1.390625 0.875 -2.34375q0.890625 -0.953125 2.21875 -0.953125q1.359375 0 2.1875 0.9375q0.828125 0.9375 0.828125 2.4375l0 0.234375l-5.078125 0q0.046875 0.96875 0.6875 1.578125q0.65625 0.59375 1.578125 0.59375q1.140625 0 1.9375 -0.78125l0.46875 0.625q-0.96875 0.96875 -2.5 0.96875zm1.953125 -3.6875q0 -0.875 -0.578125 -1.484375q-0.578125 -0.609375 -1.5 -0.609375q-0.859375 0 -1.453125 0.609375q-0.578125 0.609375 -0.59375 1.484375l4.125 0zm2.988083 3.53125l0 -5.421875l-1.046875 0l0 -0.859375l1.046875 0l0 -0.484375q0 -0.96875 0.484375 -1.5q0.484375 -0.53125 1.328125 -0.53125q0.796875 0 1.328125 0.484375l-0.40625 0.625q-0.328125 -0.3125 -0.765625 -0.3125q-1.0 0 -1.0 1.234375l0 0.484375l1.28125 0l0 0.859375l-1.28125 0l0 5.421875l-0.96875 0zm6.2406006 0.15625q-1.359375 0 -2.234375 -0.921875q-0.875 -0.9375 -0.875 -2.375q0 -1.46875 0.875 -2.375q0.875 -0.921875 2.234375 -0.921875q1.359375 0 2.234375 0.921875q0.875 0.90625 0.875 2.375q0 1.4375 -0.875 2.375q-0.875 0.921875 -2.234375 0.921875zm0 -0.875q0.90625 0 1.484375 -0.671875q0.59375 -0.6875 0.59375 -1.75q0 -1.0625 -0.59375 -1.734375q-0.578125 -0.6875 -1.484375 -0.6875q-0.90625 0 -1.5 0.671875q-0.59375 0.671875 -0.59375 1.75q0 1.078125 0.578125 1.75q0.59375 0.671875 1.515625 0.671875zm4.873657 0.71875l0 -6.28125l0.984375 0l0 1.015625q0.875 -1.140625 2.09375 -1.140625l0 1.0l-0.390625 -0.046875q-0.4375 0 -0.984375 0.328125q-0.53125 0.3125 -0.71875 0.671875l0 4.453125l-0.984375 0zm7.242012 0.15625q-1.421875 0 -2.3125 -0.921875q-0.8906174 -0.921875 -0.8906174 -2.375q0 -1.390625 0.8749924 -2.34375q0.890625 -0.953125 2.21875 -0.953125q1.359375 0 2.1875 0.9375q0.828125 0.9375 0.828125 2.4375l0 0.234375l-5.078125 0q0.046875 0.96875 0.6875 1.578125q0.65625 0.59375 1.578125 0.59375q1.140625 0 1.9375 -0.78125l0.46875 0.625q-0.96875 0.96875 -2.5 0.96875zm1.953125 -3.6875q0 -0.875 -0.578125 -1.484375q-0.578125 -0.609375 -1.5 -0.609375q-0.859375 0 -1.453125 0.609375q-0.578125 0.609375 -0.59375 1.484375l4.125 0zm9.082977 3.6875q-2.0 0 -3.046875 -1.390625l0.65625 -0.71875q0.90625 1.140625 2.390625 1.140625q0.875 0 1.4375 -0.515625q0.578125 -0.53125 0.578125 -1.34375q0 -0.8125 -0.546875 -1.328125q-0.53125 -0.53125 -1.453125 -0.53125q-1.15625 0 -2.0 0.8125l-0.796875 -0.265625l0 -4.6875l5.3125 0l0 0.96875l-4.234375 0l0 3.015625q0.3125 -0.3125 0.84375 -0.546875q0.53125 -0.234375 1.1875 -0.234375q1.1875 0 1.96875 0.765625q0.796875 0.765625 0.796875 2.0q0 1.28125 -0.859375 2.078125q-0.84375 0.78125 -2.234375 0.78125z" fill-rule="nonzero"></path><path fill="#3c78d8" d="m245.10236 195.88977l78.299225 0l0 72.8819l-78.299225 0z" fill-rule="evenodd"></path><path stroke="#434343" stroke-width="2.0" stroke-linejoin="round" stroke-linecap="butt" d="m245.10236 195.88977l78.299225 0l0 72.8819l-78.299225 0z" fill-rule="evenodd"></path><path fill="#ffffff" d="m278.17697 240.87071l0 -2.65625q5.671875 -4.234375 7.0625 -5.703125q1.40625 -1.484375 1.40625 -2.78125q0 -0.9375 -0.71875 -1.5q-0.71875 -0.578125 -1.859375 -0.578125q-2.5 0 -4.296875 1.84375l-1.953125 -2.25q1.171875 -1.375 2.828125 -2.0q1.65625 -0.625 3.34375 -0.625q2.703125 0 4.40625 1.421875q1.71875 1.40625 1.71875 3.6875q0 1.828125 -1.453125 3.734375q-1.453125 1.890625 -4.96875 4.40625l6.53125 0l0 3.0l-12.046875 0z" fill-rule="nonzero"></path><path fill="#3c78d8" d="m323.40158 195.9029l78.299194 0l0 72.8819l-78.299194 0z" fill-rule="evenodd"></path><path stroke="#434343" stroke-width="2.0" stroke-linejoin="round" stroke-linecap="butt" d="m323.40158 195.9029l78.299194 0l0 72.8819l-78.299194 0z" fill-rule="evenodd"></path><path fill="#ffffff" d="m362.59894 241.16508q-3.984375 0 -6.171875 -2.390625l1.90625 -2.375q1.703125 1.75 4.234375 1.75q1.453125 0 2.21875 -0.6875q0.765625 -0.703125 0.765625 -1.6875q0 -1.078125 -0.765625 -1.71875q-0.75 -0.65625 -2.109375 -0.65625q-2.015625 0 -3.359375 1.296875l-2.375 -0.625l0 -9.203125l10.984375 0l0 3.0l-7.578125 0l0 3.921875q0.5625 -0.578125 1.484375 -0.953125q0.9375 -0.390625 2.03125 -0.390625q2.171875 0 3.65625 1.4375q1.484375 1.4375 1.484375 3.75q0 2.53125 -1.734375 4.03125q-1.71875 1.5 -4.671875 1.5z" fill-rule="nonzero"></path><path fill="#3c78d8" d="m401.70078 195.90814l78.299225 0l0 72.8819l-78.299225 0z" fill-rule="evenodd"></path><path stroke="#434343" stroke-width="2.0" stroke-linejoin="round" stroke-linecap="butt" d="m401.70078 195.90814l78.299225 0l0 72.8819l-78.299225 0z" fill-rule="evenodd"></path><path fill="#ffffff" d="m441.9364 240.88908l0 -3.3125l-7.65625 0l0 -2.6875l6.359375 -10.015625l4.703125 0l0 9.703125l2.078125 0l0 3.0l-2.078125 0l0 3.3125l-3.40625 0zm0 -12.984375l-4.3125 6.671875l4.3125 0l0 -6.671875z" fill-rule="nonzero"></path><path fill="#3c78d8" d="m480.0 195.90814l78.299194 0l0 72.8819l-78.299194 0z" fill-rule="evenodd"></path><path stroke="#434343" stroke-width="2.0" stroke-linejoin="round" stroke-linecap="butt" d="m480.0 195.90814l78.299194 0l0 72.8819l-78.299194 0z" fill-rule="evenodd"></path><path fill="#ffffff" d="m519.588 241.17033q-3.25 0 -5.09375 -2.171875q-1.828125 -2.1875 -1.828125 -6.078125q0 -3.71875 1.984375 -6.0q2.0 -2.28125 5.484375 -2.28125q2.8125 0 4.734375 1.65625l-1.546875 2.625q-0.640625 -0.625 -1.375 -0.9375q-0.734375 -0.3125 -1.8125 -0.3125q-1.75 0 -2.890625 1.3125q-1.125 1.296875 -1.125 3.21875l0.03125 0.328125q0.671875 -0.921875 1.78125 -1.484375q1.125 -0.578125 2.328125 -0.578125q2.375 0 3.90625 1.453125q1.53125 1.4375 1.53125 3.765625q0 2.390625 -1.71875 3.9375q-1.703125 1.546875 -4.390625 1.546875zm-0.203125 -3.015625q1.28125 0 2.0625 -0.703125q0.796875 -0.71875 0.796875 -1.65625q0 -1.09375 -0.8125 -1.734375q-0.8125 -0.65625 -2.15625 -0.65625q-1.921875 0 -3.125 1.515625q0.125 1.4375 0.953125 2.34375q0.84375 0.890625 2.28125 0.890625z" fill-rule="nonzero"></path><path fill="#3c78d8" d="m558.2992 195.90814l78.299255 0l0 72.8819l-78.299255 0z" fill-rule="evenodd"></path><path stroke="#434343" stroke-width="2.0" stroke-linejoin="round" stroke-linecap="butt" d="m558.2992 195.90814l78.299255 0l0 72.8819l-78.299255 0z" fill-rule="evenodd"></path><path fill="#ffffff" d="m597.39185 240.88908l0 -11.609375l-2.671875 2.703125l-1.9375 -2.03125l5.03125 -5.078125l2.984375 0l0 16.015625l-3.40625 0z" fill-rule="nonzero"></path><path fill="#3c78d8" d="m636.59845 195.88977l78.299194 0l0 72.91339l-78.299194 0z" fill-rule="evenodd"></path><path stroke="#434343" stroke-width="2.0" stroke-linejoin="round" stroke-linecap="butt" d="m636.59845 195.88977l78.299194 0l0 72.91339l-78.299194 0z" fill-rule="evenodd"></path><path fill="#ffffff" d="m675.5009 241.16771q-2.234375 0 -3.828125 -0.734375q-1.59375 -0.75 -2.484375 -1.828125l1.765625 -2.28125q0.84375 0.859375 2.046875 1.34375q1.203125 0.484375 2.375 0.484375q1.46875 0 2.25 -0.5625q0.78125 -0.5625 0.78125 -1.484375q0 -0.953125 -0.78125 -1.390625q-0.765625 -0.453125 -2.4375 -0.453125l-0.5625 0l-1.4375 0.046875l0 -3.0625l0.890625 0.015625l1.109375 0q2.953125 0 2.953125 -1.703125q0 -0.953125 -0.859375 -1.421875q-0.84375 -0.46875 -2.125 -0.46875q-2.328125 0 -4.046875 1.65625l-1.703125 -2.140625q2.25 -2.546875 6.109375 -2.546875q2.828125 0 4.4375 1.1875q1.609375 1.171875 1.609375 3.15625q0 1.34375 -1.0 2.375q-0.984375 1.015625 -2.5 1.28125q1.65625 0.1875 2.703125 1.28125q1.046875 1.09375 1.046875 2.546875q0 2.125 -1.765625 3.421875q-1.75 1.28125 -4.546875 1.28125z" fill-rule="nonzero"></path><path fill="#000000" fill-opacity="0.0" d="m480.97638 161.2441l-0.9763794 107.55907" fill-rule="evenodd"></path><path stroke="#000000" stroke-width="2.0" stroke-linejoin="round" stroke-linecap="butt" d="m480.97638 161.2441l-0.9763794 107.55907" fill-rule="evenodd"></path><path fill="#000000" fill-opacity="0.0" d="m357.95276 146.48032l468.12598 0l0 55.055115l-468.12598 0z" fill-rule="evenodd"></path><path fill="#000000" d="m465.34393 162.91594q-0.375 0 -0.671875 -0.265625q-0.28125 -0.28125 -0.28125 -0.6875q0 -0.40625 0.28125 -0.6875q0.296875 -0.28125 0.671875 -0.28125q0.40625 0 0.6875 0.28125q0.28125 0.28125 0.28125 0.6875q0 0.40625 -0.28125 0.6875q-0.28125 0.265625 -0.6875 0.265625zm-1.984375 14.203125q-0.703125 0 -1.140625 -0.171875q-0.4375 -0.171875 -0.875 -0.5l0.5 -1.09375q0.59375 0.59375 1.3125 0.59375q1.484375 0 1.484375 -1.65625l0 -10.0625l1.421875 0l0 10.0625q0 1.375 -0.703125 2.09375q-0.703125 0.734375 -2.0 0.734375z" fill-rule="nonzero"></path><path fill="#000000" fill-opacity="0.0" d="m362.55118 52.695538c0 -5.051182 -19.574799 -10.110237 -39.149597 -10.102364c-19.574799 0.00787735 -39.149597 5.0826797 -39.149597 10.165356" fill-rule="evenodd"></path><path stroke="#000000" stroke-width="1.0" stroke-linejoin="round" stroke-linecap="butt" d="m362.55118 52.695538c0 -5.051182 -19.574799 -10.110237 -39.149597 -10.102364c-9.787415 0.0039405823 -19.574799 1.2746086 -26.915375 3.1796265c-1.8351135 0.47625732 -3.517334 0.992157 -5.0083923 1.5378227c-0.7455139 0.2728386 -1.4432373 0.55311584 -2.0884094 0.839592c-0.16131592 0.07162094 -0.31930542 0.14363098 -0.473938 0.21600723l-0.38546753 0.18535995" fill-rule="evenodd"></path><path fill="#000000" stroke="#000000" stroke-width="1.0" stroke-linecap="butt" d="m287.3719 47.373886l-2.0775757 4.359619l4.3938293 -2.0042305z" fill-rule="evenodd"></path><path fill="#000000" fill-opacity="0.0" d="m362.55118 125.57743c0 14.616798 -19.574799 29.225716 -39.149597 29.23359c-19.574799 0.007873535 -39.149597 -14.585297 -39.149597 -29.1706" fill-rule="evenodd"></path><path stroke="#000000" stroke-width="1.0" stroke-linejoin="round" stroke-linecap="butt" d="m361.51904 131.48799l-0.07473755 0.21484375c-0.079956055 0.22384644 -0.16403198 0.44718933 -0.25216675 0.66996765c-0.17623901 0.4455719 -0.3685608 0.88890076 -0.57644653 1.3295441c-0.41577148 0.8813019 -0.89364624 1.7518921 -1.4289246 2.6081848c-2.1409912 3.4252014 -5.1995544 6.621887 -8.869843 9.362045c-7.3405457 5.480316 -17.12796 9.134506 -26.915344 9.138443c-19.574799 0.007873535 -39.149597 -14.585297 -39.149597 -29.1706" fill-rule="evenodd"></path><path fill="#000000" stroke="#000000" stroke-width="1.0" stroke-linecap="butt" d="m363.14612 131.77213l-0.84643555 -4.7545853l-2.4077759 4.186302z" fill-rule="evenodd"></path><path fill="#000000" fill-opacity="0.0" d="m278.90814 6.5590553l471.81104 0l0 55.05512l-471.81104 0z" fill-rule="evenodd"></path><path fill="#000000" d="m386.29932 22.994678q-0.375 0 -0.671875 -0.265625q-0.28125 -0.28125 -0.28125 -0.6875q0 -0.40625 0.28125 -0.6875q0.296875 -0.28125 0.671875 -0.28125q0.40625 0 0.6875 0.28125q0.28125 0.28125 0.28125 0.6875q0 0.40625 -0.28125 0.6875q-0.28125 0.265625 -0.6875 0.265625zm-1.984375 14.203125q-0.703125 0 -1.140625 -0.171875q-0.4375 -0.171875 -0.875 -0.5l0.5 -1.09375q0.59375 0.59375 1.3125 0.59375q1.484375 0 1.484375 -1.65625l0 -10.0625l1.421875 0l0 10.0625q0 1.375 -0.703125 2.09375q-0.703125 0.734375 -2.0 0.734375z" fill-rule="nonzero"></path><path fill="#000000" fill-opacity="0.0" d="m440.8504 268.79004c0 12.5 -19.574799 24.992126 -39.149628 25.0c-19.574799 0.007873535 -39.149597 -12.468506 -39.149597 -24.937012" fill-rule="evenodd"></path><path stroke="#000000" stroke-width="1.0" stroke-linejoin="round" stroke-linecap="butt" d="m440.8504 268.79004c0 12.5 -19.574799 24.992126 -39.149628 25.0c-9.787384 0.0039367676 -19.574799 -3.1131897 -26.915344 -7.7898865c-3.670288 -2.3383179 -6.7288513 -5.066559 -8.869843 -7.9894714c-0.5352478 -0.7307129 -1.0131531 -1.4736328 -1.4289246 -2.225647c-0.10391235 -0.18798828 -0.20397949 -0.3765564 -0.30010986 -0.5656738c-0.048034668 -0.09454346 -0.09509277 -0.18920898 -0.1411438 -0.2840271l-0.11532593 -0.24291992" fill-rule="evenodd"></path><path fill="#000000" stroke="#000000" stroke-width="1.0" stroke-linecap="butt" d="m365.5376 274.31284l-2.6504517 -4.0370483l-0.5645752 4.796234z" fill-rule="evenodd"></path><path fill="#000000" fill-opacity="0.0" d="m362.55118 195.9029c0 -12.5 19.574799 -25.007874 39.149597 -25.0c19.57483 0.007873535 39.149628 12.531494 39.149628 25.062988" fill-rule="evenodd"></path><path stroke="#000000" stroke-width="1.0" stroke-linejoin="round" stroke-linecap="butt" d="m362.55118 195.9029c0 -12.5 19.574799 -25.007874 39.149597 -25.0c9.787415 0.0039367676 19.57483 3.1368103 26.915375 7.835129c3.6702576 2.3491669 6.728821 5.089691 8.869812 8.026154c0.5352783 0.73410034 1.0131836 1.4804688 1.4289551 2.2360077c0.10391235 0.18888855 0.20397949 0.37835693 0.30010986 0.5683441c0.04800415 0.09500122 0.09509277 0.19012451 0.1411438 0.28536987l0.12741089 0.2697296" fill-rule="evenodd"></path><path fill="#000000" stroke="#000000" stroke-width="1.0" stroke-linecap="butt" d="m437.8753 190.4999l2.6420593 4.0425262l0.57455444 -4.795044z" fill-rule="evenodd"></path><path fill="#3c78d8" d="m245.10236 376.53018l78.299225 0l0 72.8819l-78.299225 0z" fill-rule="evenodd"></path><path stroke="#434343" stroke-width="2.0" stroke-linejoin="round" stroke-linecap="butt" d="m245.10236 376.53018l78.299225 0l0 72.8819l-78.299225 0z" fill-rule="evenodd"></path><path fill="#ffffff" d="m278.17697 421.51114l0 -2.65625q5.671875 -4.234375 7.0625 -5.703125q1.40625 -1.484375 1.40625 -2.78125q0 -0.9375 -0.71875 -1.5q-0.71875 -0.578125 -1.859375 -0.578125q-2.5 0 -4.296875 1.84375l-1.953125 -2.25q1.171875 -1.375 2.828125 -2.0q1.65625 -0.625 3.34375 -0.625q2.703125 0 4.40625 1.421875q1.71875 1.40625 1.71875 3.6875q0 1.828125 -1.453125 3.734375q-1.453125 1.890625 -4.96875 4.40625l6.53125 0l0 3.0l-12.046875 0z" fill-rule="nonzero"></path><path fill="#3c78d8" d="m323.40158 376.5433l78.299194 0l0 72.8819l-78.299194 0z" fill-rule="evenodd"></path><path stroke="#434343" stroke-width="2.0" stroke-linejoin="round" stroke-linecap="butt" d="m323.40158 376.5433l78.299194 0l0 72.8819l-78.299194 0z" fill-rule="evenodd"></path><path fill="#ffffff" d="m363.6372 421.52426l0 -3.3125l-7.65625 0l0 -2.6875l6.359375 -10.015625l4.703125 0l0 9.703125l2.078125 0l0 3.0l-2.078125 0l0 3.3125l-3.40625 0zm0 -12.984375l-4.3125 6.671875l4.3125 0l0 -6.671875z" fill-rule="nonzero"></path><path fill="#3c78d8" d="m401.70078 376.54855l78.299225 0l0 72.8819l-78.299225 0z" fill-rule="evenodd"></path><path stroke="#434343" stroke-width="2.0" stroke-linejoin="round" stroke-linecap="butt" d="m401.70078 376.54855l78.299225 0l0 72.8819l-78.299225 0z" fill-rule="evenodd"></path><path fill="#ffffff" d="m440.89816 421.81076q-3.984375 0 -6.171875 -2.390625l1.90625 -2.375q1.703125 1.75 4.234375 1.75q1.453125 0 2.21875 -0.6875q0.765625 -0.703125 0.765625 -1.6875q0 -1.078125 -0.765625 -1.71875q-0.75 -0.65625 -2.109375 -0.65625q-2.015625 0 -3.359375 1.296875l-2.375 -0.625l0 -9.203125l10.984375 0l0 3.0l-7.578125 0l0 3.921875q0.5625 -0.578125 1.484375 -0.953125q0.9375 -0.390625 2.03125 -0.390625q2.171875 0 3.65625 1.4375q1.484375 1.4375 1.484375 3.75q0 2.53125 -1.734375 4.03125q-1.71875 1.5 -4.671875 1.5z" fill-rule="nonzero"></path><path fill="#3c78d8" d="m480.0 376.54855l78.299194 0l0 72.8819l-78.299194 0z" fill-rule="evenodd"></path><path stroke="#434343" stroke-width="2.0" stroke-linejoin="round" stroke-linecap="butt" d="m480.0 376.54855l78.299194 0l0 72.8819l-78.299194 0z" fill-rule="evenodd"></path><path fill="#ffffff" d="m519.588 421.81076q-3.25 0 -5.09375 -2.171875q-1.828125 -2.1875 -1.828125 -6.078125q0 -3.71875 1.984375 -6.0q2.0 -2.28125 5.484375 -2.28125q2.8125 0 4.734375 1.65625l-1.546875 2.625q-0.640625 -0.625 -1.375 -0.9375q-0.734375 -0.3125 -1.8125 -0.3125q-1.75 0 -2.890625 1.3125q-1.125 1.296875 -1.125 3.21875l0.03125 0.328125q0.671875 -0.921875 1.78125 -1.484375q1.125 -0.578125 2.328125 -0.578125q2.375 0 3.90625 1.453125q1.53125 1.4375 1.53125 3.765625q0 2.390625 -1.71875 3.9375q-1.703125 1.546875 -4.390625 1.546875zm-0.203125 -3.015625q1.28125 0 2.0625 -0.703125q0.796875 -0.71875 0.796875 -1.65625q0 -1.09375 -0.8125 -1.734375q-0.8125 -0.65625 -2.15625 -0.65625q-1.921875 0 -3.125 1.515625q0.125 1.4375 0.953125 2.34375q0.84375 0.890625 2.28125 0.890625z" fill-rule="nonzero"></path><path fill="#3c78d8" d="m558.2992 376.54855l78.299255 0l0 72.8819l-78.299255 0z" fill-rule="evenodd"></path><path stroke="#434343" stroke-width="2.0" stroke-linejoin="round" stroke-linecap="butt" d="m558.2992 376.54855l78.299255 0l0 72.8819l-78.299255 0z" fill-rule="evenodd"></path><path fill="#ffffff" d="m597.39185 421.5295l0 -11.609375l-2.671875 2.703125l-1.9375 -2.03125l5.03125 -5.078125l2.984375 0l0 16.015625l-3.40625 0z" fill-rule="nonzero"></path><path fill="#3c78d8" d="m636.59845 376.53018l78.299194 0l0 72.91339l-78.299194 0z" fill-rule="evenodd"></path><path stroke="#434343" stroke-width="2.0" stroke-linejoin="round" stroke-linecap="butt" d="m636.59845 376.53018l78.299194 0l0 72.91339l-78.299194 0z" fill-rule="evenodd"></path><path fill="#ffffff" d="m675.5009 421.80814q-2.234375 0 -3.828125 -0.734375q-1.59375 -0.75 -2.484375 -1.828125l1.765625 -2.28125q0.84375 0.859375 2.046875 1.34375q1.203125 0.484375 2.375 0.484375q1.46875 0 2.25 -0.5625q0.78125 -0.5625 0.78125 -1.484375q0 -0.953125 -0.78125 -1.390625q-0.765625 -0.453125 -2.4375 -0.453125l-0.5625 0l-1.4375 0.046875l0 -3.0625l0.890625 0.015625l1.109375 0q2.953125 0 2.953125 -1.703125q0 -0.953125 -0.859375 -1.421875q-0.84375 -0.46875 -2.125 -0.46875q-2.328125 0 -4.046875 1.65625l-1.703125 -2.140625q2.25 -2.546875 6.109375 -2.546875q2.828125 0 4.4375 1.1875q1.609375 1.171875 1.609375 3.15625q0 1.34375 -1.0 2.375q-0.984375 1.015625 -2.5 1.28125q1.65625 0.1875 2.703125 1.28125q1.046875 1.09375 1.046875 2.546875q0 2.125 -1.765625 3.421875q-1.75 1.28125 -4.546875 1.28125z" fill-rule="nonzero"></path><path fill="#000000" fill-opacity="0.0" d="m558.7874 339.11548l-0.9763794 107.55905" fill-rule="evenodd"></path><path stroke="#000000" stroke-width="2.0" stroke-linejoin="round" stroke-linecap="butt" d="m558.7874 339.11548l-0.9763794 107.55905" fill-rule="evenodd"></path><path fill="#000000" fill-opacity="0.0" d="m429.2152 315.82022l468.12598 0l0 55.055115l-468.12598 0z" fill-rule="evenodd"></path><path fill="#000000" d="m536.6064 332.25583q-0.375 0 -0.671875 -0.265625q-0.28125 -0.28125 -0.28125 -0.6875q0 -0.40625 0.28125 -0.6875q0.296875 -0.28125 0.671875 -0.28125q0.40625 0 0.6875 0.28125q0.28125 0.28125 0.28125 0.6875q0 0.40625 -0.28125 0.6875q-0.28125 0.265625 -0.6875 0.265625zm-1.984375 14.203125q-0.703125 0 -1.140625 -0.171875q-0.4375 -0.171875 -0.875 -0.5l0.5 -1.09375q0.59375 0.59375 1.3125 0.59375q1.484375 0 1.484375 -1.65625l0 -10.0625l1.421875 0l0 10.0625q0 1.375 -0.703125 2.09375q-0.703125 0.734375 -2.0 0.734375z" fill-rule="nonzero"></path><path fill="#000000" fill-opacity="0.0" d="m39.317585 200.38058l189.22835 0l0 63.93701l-189.22835 0z" fill-rule="evenodd"></path><path fill="#000000" d="m49.33321 222.18057l0 -8.671875l1.078125 0l0 8.671875l-1.078125 0zm7.3885345 0l0 -4.109375q0 -0.828125 -0.390625 -1.140625q-0.375 -0.3125 -1.015625 -0.3125q-0.546875 0 -1.078125 0.296875q-0.53125 0.28125 -0.78125 0.671875l0 4.59375l-0.984375 0l0 -6.28125l0.984375 0l0 0.90625q0.40625 -0.46875 0.984375 -0.765625q0.59375 -0.296875 1.25 -0.296875q2.0 0 2.0 2.03125l0 4.40625l-0.96875 0zm5.0937653 0.15625q-1.609375 0 -2.546875 -0.984375l0.515625 -0.703125q0.3125 0.359375 0.859375 0.625q0.5625 0.265625 1.203125 0.265625q0.734375 0 1.109375 -0.296875q0.375 -0.3125 0.375 -0.78125q0 -0.40625 -0.40625 -0.640625q-0.40625 -0.25 -1.53125 -0.515625q-0.953125 -0.1875 -1.453125 -0.609375q-0.5 -0.421875 -0.5 -1.140625q0 -0.796875 0.640625 -1.296875q0.640625 -0.515625 1.703125 -0.515625q1.421875 0 2.3281288 0.90625l-0.4531288 0.6875q-0.28125 -0.34375 -0.78125 -0.5625q-0.484375 -0.234375 -1.09375 -0.234375q-0.65625 0 -1.03125 0.296875q-0.359375 0.28125 -0.359375 0.6875q0 0.375 0.40625 0.609375q0.421875 0.21875 1.546875 0.453125q0.953125 0.21875 1.4375 0.671875q0.5000038 0.4375 0.5000038 1.1875q0 0.859375 -0.6875038 1.375q-0.671875 0.515625 -1.78125 0.515625zm7.0413094 0q-1.421875 0 -2.3125 -0.921875q-0.890625 -0.921875 -0.890625 -2.375q0 -1.390625 0.875 -2.34375q0.890625 -0.953125 2.21875 -0.953125q1.359375 0 2.1875 0.9375q0.828125 0.9375 0.828125 2.4375l0 0.234375l-5.078125 0q0.046875 0.96875 0.6875 1.578125q0.65625 0.59375 1.578125 0.59375q1.140625 0 1.9375 -0.78125l0.46875 0.625q-0.96875 0.96875 -2.5 0.96875zm1.953125 -3.6875q0 -0.875 -0.578125 -1.484375q-0.578125 -0.609375 -1.5 -0.609375q-0.859375 0 -1.453125 0.609375q-0.578125 0.609375 -0.59375 1.484375l4.125 0zm2.706833 3.53125l0 -6.28125l0.984375 0l0 1.015625q0.875 -1.140625 2.09375 -1.140625l0 1.0l-0.390625 -0.046875q-0.4375 0 -0.984375 0.328125q-0.53125 0.3125 -0.71875 0.671875l0 4.453125l-0.984375 0zm5.9920197 0.15625q-1.390625 0 -1.390625 -1.46875l0 -4.109375l-1.046875 0l0 -0.859375l1.046875 0l0 -1.71875l0.96875 0l0 1.71875l1.28125 0l0 0.859375l-1.28125 0l0 3.90625q0 0.34375 0.15625 0.578125q0.15625 0.21875 0.484375 0.21875q0.40625 0 0.65625 -0.25l0.296875 0.71875q-0.40625 0.40625 -1.171875 0.40625zm3.762207 2.4375q-0.890625 -1.21875 -1.359375 -2.703125q-0.46875 -1.484375 -0.46875 -3.046875q0 -1.578125 0.46875 -3.046875q0.46875 -1.484375 1.359375 -2.703125l0.578125 0.4375q-0.78125 1.5625 -1.0625 2.734375q-0.28125 1.15625 -0.28125 2.578125q0 1.40625 0.28125 2.59375q0.296875 1.171875 1.0625 2.6875l-0.578125 0.46875zm5.430359 -2.59375l0 -2.203125l-4.109375 0l0 -0.890625l3.71875 -5.578125l1.46875 0l0 5.53125l1.234375 0l0 0.9375l-1.234375 0l0 2.203125l-1.078125 0zm0 -7.671875l-3.03125 4.53125l3.03125 0l0 -4.53125zm3.1245728 9.796875q0.765625 -1.5 1.0625 -2.71875q0.3125 -1.234375 0.3125 -2.5625q0 -1.328125 -0.296875 -2.53125q-0.296875 -1.203125 -1.078125 -2.78125l0.59375 -0.4375q0.890625 1.21875 1.359375 2.703125q0.484375 1.46875 0.484375 3.046875q0 1.5625 -0.484375 3.046875q-0.46875 1.484375 -1.359375 2.703125l-0.59375 -0.46875zm9.087753 -1.96875q-1.390625 0 -1.390625 -1.46875l0 -4.109375l-1.046875 0l0 -0.859375l1.046875 0l0 -1.71875l0.96875 0l0 1.71875l1.28125 0l0 0.859375l-1.28125 0l0 3.90625q0 0.34375 0.15625 0.578125q0.15625 0.21875 0.484375 0.21875q0.40625 0 0.65625 -0.25l0.296875 0.71875q-0.40625 0.40625 -1.171875 0.40625zm5.074707 0q-1.359375 0 -2.234375 -0.921875q-0.875 -0.9375 -0.875 -2.375q0 -1.46875 0.875 -2.375q0.875 -0.921875 2.234375 -0.921875q1.359375 0 2.234375 0.921875q0.875 0.90625 0.875 2.375q0 1.4375 -0.875 2.375q-0.875 0.921875 -2.234375 0.921875zm0 -0.875q0.90625 0 1.484375 -0.671875q0.59375 -0.6875 0.59375 -1.75q0 -1.0625 -0.59375 -1.734375q-0.578125 -0.6875 -1.484375 -0.6875q-0.90625 0 -1.5 0.671875q-0.59375 0.671875 -0.59375 1.75q0 1.078125 0.578125 1.75q0.59375 0.671875 1.515625 0.671875zm10.312302 0.875q-1.609375 0 -2.546875 -0.984375l0.515625 -0.703125q0.3125 0.359375 0.859375 0.625q0.5625 0.265625 1.203125 0.265625q0.734375 0 1.109375 -0.296875q0.375 -0.3125 0.375 -0.78125q0 -0.40625 -0.40625 -0.640625q-0.40625 -0.25 -1.53125 -0.515625q-0.953125 -0.1875 -1.453125 -0.609375q-0.5 -0.421875 -0.5 -1.140625q0 -0.796875 0.640625 -1.296875q0.640625 -0.515625 1.703125 -0.515625q1.421875 0 2.328125 0.90625l-0.453125 0.6875q-0.28125 -0.34375 -0.78125 -0.5625q-0.484375 -0.234375 -1.09375 -0.234375q-0.65625 0 -1.03125 0.296875q-0.359375 0.28125 -0.359375 0.6875q0 0.375 0.40625 0.609375q0.421875 0.21875 1.546875 0.453125q0.953125 0.21875 1.4375 0.671875q0.5 0.4375 0.5 1.1875q0 0.859375 -0.6875 1.375q-0.671875 0.515625 -1.78125 0.515625zm6.9475555 0q-1.359375 0 -2.234375 -0.921875q-0.875 -0.9375 -0.875 -2.375q0 -1.46875 0.875 -2.375q0.875 -0.921875 2.234375 -0.921875q1.359375 0 2.234375 0.921875q0.875 0.90625 0.875 2.375q0 1.4375 -0.875 2.375q-0.875 0.921875 -2.234375 0.921875zm0 -0.875q0.90625 0 1.484375 -0.671875q0.59375 -0.6875 0.59375 -1.75q0 -1.0625 -0.59375 -1.734375q-0.578125 -0.6875 -1.484375 -0.6875q-0.90625 0 -1.5 0.671875q-0.59375 0.671875 -0.59375 1.75q0 1.078125 0.578125 1.75q0.59375 0.671875 1.515625 0.671875zm4.8736496 0.71875l0 -6.28125l0.984375 0l0 1.015625q0.875 -1.140625 2.09375 -1.140625l0 1.0l-0.390625 -0.046875q-0.4375 0 -0.984375 0.328125q-0.53125 0.3125 -0.71875 0.671875l0 4.453125l-0.984375 0zm5.9920197 0.15625q-1.390625 0 -1.390625 -1.46875l0 -4.109375l-1.046875 0l0 -0.859375l1.046875 0l0 -1.71875l0.96875 0l0 1.71875l1.28125 0l0 0.859375l-1.28125 0l0 3.90625q0 0.34375 0.15625 0.578125q0.15625 0.21875 0.484375 0.21875q0.40625 0 0.65625 -0.25l0.296875 0.71875q-0.40625 0.40625 -1.171875 0.40625zm5.168457 0q-1.421875 0 -2.3125 -0.921875q-0.890625 -0.921875 -0.890625 -2.375q0 -1.390625 0.875 -2.34375q0.890625 -0.953125 2.21875 -0.953125q1.359375 0 2.1875 0.9375q0.828125 0.9375 0.828125 2.4375l0 0.234375l-5.078125 0q0.046875 0.96875 0.6875 1.578125q0.65625 0.59375 1.578125 0.59375q1.140625 0 1.9375 -0.78125l0.46875 0.625q-0.96875 0.96875 -2.5 0.96875zm1.953125 -3.6875q0 -0.875 -0.578125 -1.484375q-0.578125 -0.609375 -1.5 -0.609375q-0.859375 0 -1.453125 0.609375q-0.578125 0.609375 -0.59375 1.484375l4.125 0zm7.269333 3.53125l0 -0.9375q-0.359375 0.484375 -0.921875 0.796875q-0.546875 0.296875 -1.203125 0.296875q-1.265625 0 -2.03125 -0.890625q-0.765625 -0.90625 -0.765625 -2.40625q0 -1.5 0.765625 -2.390625q0.78125 -0.90625 2.03125 -0.90625q0.640625 0 1.1875 0.296875q0.546875 0.296875 0.9375 0.8125l0 -3.34375l0.96875 0l0 8.671875l-0.96875 0zm-1.890625 -0.71875q0.578125 0 1.09375 -0.28125q0.53125 -0.28125 0.796875 -0.703125l0 -2.84375q-0.265625 -0.421875 -0.796875 -0.71875q-0.515625 -0.296875 -1.09375 -0.296875q-0.90625 0 -1.46875 0.671875q-0.546875 0.65625 -0.546875 1.75q0 1.09375 0.546875 1.765625q0.546875 0.65625 1.46875 0.65625zm8.43042 0.71875l0 -8.671875l0.984375 0l0 8.671875l-0.984375 0zm3.4831848 -7.171875q-0.25 0 -0.453125 -0.1875q-0.1875 -0.1875 -0.1875 -0.46875q0 -0.265625 0.1875 -0.453125q0.203125 -0.203125 0.453125 -0.203125q0.28125 0 0.46875 0.203125q0.203125 0.1875 0.203125 0.453125q0 0.28125 -0.203125 0.46875q-0.1875 0.1875 -0.46875 0.1875zm-0.484375 7.171875l0 -6.28125l0.984375 0l0 6.28125l-0.984375 0zm4.99881 0.15625q-1.609375 0 -2.546875 -0.984375l0.515625 -0.703125q0.3125 0.359375 0.859375 0.625q0.5625 0.265625 1.203125 0.265625q0.734375 0 1.109375 -0.296875q0.375 -0.3125 0.375 -0.78125q0 -0.40625 -0.40625 -0.640625q-0.40625 -0.25 -1.53125 -0.515625q-0.953125 -0.1875 -1.453125 -0.609375q-0.5 -0.421875 -0.5 -1.140625q0 -0.796875 0.640625 -1.296875q0.640625 -0.515625 1.703125 -0.515625q1.421875 0 2.328125 0.90625l-0.453125 0.6875q-0.28125 -0.34375 -0.78125 -0.5625q-0.484375 -0.234375 -1.09375 -0.234375q-0.65625 0 -1.03125 0.296875q-0.359375 0.28125 -0.359375 0.6875q0 0.375 0.40625 0.609375q0.421875 0.21875 1.546875 0.453125q0.953125 0.21875 1.4375 0.671875q0.5 0.4375 0.5 1.1875q0 0.859375 -0.6875 1.375q-0.671875 0.515625 -1.78125 0.515625zm5.7913055 0q-1.390625 0 -1.390625 -1.46875l0 -4.109375l-1.046875 0l0 -0.859375l1.046875 0l0 -1.71875l0.96875 0l0 1.71875l1.28125 0l0 0.859375l-1.28125 0l0 3.90625q0 0.34375 0.15625 0.578125q0.15625 0.21875 0.484375 0.21875q0.40625 0 0.65625 -0.25l0.296875 0.71875q-0.40625 0.40625 -1.171875 0.40625z" fill-rule="nonzero"></path><path fill="#000000" d="m51.286335 238.33682q-1.609375 0 -2.546875 -0.984375l0.515625 -0.703125q0.3125 0.359375 0.859375 0.625q0.5625 0.265625 1.203125 0.265625q0.734375 0 1.109375 -0.296875q0.375 -0.3125 0.375 -0.78125q0 -0.40625 -0.40625 -0.640625q-0.40625 -0.25 -1.53125 -0.515625q-0.953125 -0.1875 -1.453125 -0.609375q-0.5 -0.421875 -0.5 -1.140625q0 -0.796875 0.640625 -1.296875q0.640625 -0.515625 1.703125 -0.515625q1.421875 0 2.328125 0.90625l-0.453125 0.6875q-0.28125 -0.34375 -0.78125 -0.5625q-0.484375 -0.234375 -1.09375 -0.234375q-0.65625 0 -1.03125 0.296875q-0.359375 0.28125 -0.359375 0.6875q0 0.375 0.40625 0.609375q0.421875 0.21875 1.546875 0.453125q0.953125 0.21875 1.4375 0.671875q0.5 0.4375 0.5 1.1875q0 0.859375 -0.6875 1.375q-0.671875 0.515625 -1.78125 0.515625zm7.0413055 0q-1.421875 0 -2.3125 -0.921875q-0.890625 -0.921875 -0.890625 -2.375q0 -1.390625 0.875 -2.34375q0.890625 -0.953125 2.21875 -0.953125q1.359375 0 2.1875 0.9375q0.828125 0.9375 0.828125 2.4375l0 0.234375l-5.078125 0q0.046875 0.96875 0.6875 1.578125q0.65625 0.59375 1.578125 0.59375q1.140625 0 1.9375 -0.78125l0.46875 0.625q-0.96875 0.96875 -2.5 0.96875zm1.953125 -3.6875q0 -0.875 -0.578125 -1.484375q-0.578125 -0.609375 -1.5 -0.609375q-0.859375 0 -1.453125 0.609375q-0.578125 0.609375 -0.59375 1.484375l4.125 0zm6.6443367 3.53125l0 -0.71875q-0.796875 0.875 -2.078125 0.875q-0.9531288 0 -1.5781288 -0.59375q-0.625 -0.609375 -0.625 -1.484375q0 -0.90625 0.609375 -1.484375q0.625 -0.578125 1.5937538 -0.578125q1.34375 0 2.078125 0.84375l0 -1.125q0 -0.640625 -0.453125 -0.984375q-0.453125 -0.34375 -1.140625 -0.34375q-1.109375 0 -1.9218788 0.875l-0.453125 -0.671875q1.0 -1.046875 2.5000038 -1.046875q1.171875 0 1.796875 0.5625q0.640625 0.5625 0.640625 1.5625l0 4.3125l-0.96875 0zm-1.734375 -0.546875q1.15625 0 1.734375 -0.78125l0 -1.1875q-0.578125 -0.765625 -1.734375 -0.765625q-0.6875 0 -1.125 0.390625q-0.4218788 0.375 -0.4218788 0.984375q0 0.59375 0.4218788 0.984375q0.4375 0.375 1.125 0.375zm4.8207703 0.546875l0 -6.28125l0.984375 0l0 1.015625q0.875 -1.140625 2.09375 -1.140625l0 1.0l-0.390625 -0.046875q-0.4375 0 -0.984375 0.328125q-0.53125 0.3125 -0.71875 0.671875l0 4.453125l-0.984375 0zm7.1795197 0.15625q-1.390625 0 -2.265625 -0.9375q-0.875 -0.9375 -0.875 -2.359375q0 -1.421875 0.875 -2.359375q0.875 -0.9375 2.265625 -0.9375q1.453125 0 2.296875 1.09375l-0.65625 0.59375q-0.59375 -0.8125 -1.59375 -0.8125q-0.96875 0 -1.578125 0.671875q-0.59375 0.671875 -0.59375 1.75q0 1.09375 0.59375 1.765625q0.609375 0.65625 1.578125 0.65625q0.984375 0 1.59375 -0.8125l0.65625 0.59375q-0.84375 1.09375 -2.296875 1.09375zm8.066147 -0.15625l0 -4.140625q0 -0.703125 -0.328125 -1.0625q-0.328125 -0.359375 -1.078125 -0.359375q-0.53125 0 -1.03125 0.28125q-0.5 0.265625 -0.828125 0.6875l0 4.59375l-0.984375 0l0 -8.671875l0.984375 0l0 3.296875q0.40625 -0.46875 1.0 -0.765625q0.609375 -0.296875 1.25 -0.296875q2.0 0 2.0 2.0l0 4.4375l-0.984375 0zm4.5446014 2.59375q-0.890625 -1.21875 -1.359375 -2.703125q-0.46875 -1.484375 -0.46875 -3.046875q0 -1.578125 0.46875 -3.046875q0.46875 -1.484375 1.359375 -2.703125l0.578125 0.4375q-0.78125 1.5625 -1.0625 2.734375q-0.28125 1.15625 -0.28125 2.578125q0 1.40625 0.28125 2.59375q0.296875 1.171875 1.0625 2.6875l-0.578125 0.46875zm5.430359 -2.59375l0 -2.203125l-4.109375 0l0 -0.890625l3.71875 -5.578125l1.46875 0l0 5.53125l1.234375 0l0 0.9375l-1.234375 0l0 2.203125l-1.078125 0zm0 -7.671875l-3.03125 4.53125l3.03125 0l0 -4.53125zm3.1245728 9.796875q0.765625 -1.5 1.0625 -2.71875q0.3125 -1.234375 0.3125 -2.5625q0 -1.328125 -0.296875 -2.53125q-0.296875 -1.203125 -1.078125 -2.78125l0.59375 -0.4375q0.890625 1.21875 1.359375 2.703125q0.484375 1.46875 0.484375 3.046875q0 1.5625 -0.484375 3.046875q-0.46875 1.484375 -1.359375 2.703125l-0.59375 -0.46875zm12.931503 -2.125l-1.640625 -5.046875l-1.625 5.046875l-0.984375 0l-2.0 -6.28125l1.015625 0l1.53125 5.0l1.65625 -5.0l0.828125 0l1.65625 5.0l1.53125 -5.0l1.015625 0l-2.0 6.28125l-0.984375 0zm8.595306 0l0 -4.140625q0 -0.703125 -0.328125 -1.0625q-0.328125 -0.359375 -1.078125 -0.359375q-0.53125 0 -1.03125 0.28125q-0.5 0.265625 -0.828125 0.6875l0 4.59375l-0.984375 0l0 -8.671875l0.984375 0l0 3.296875q0.40625 -0.46875 1.0 -0.765625q0.609375 -0.296875 1.25 -0.296875q2.0 0 2.0 2.0l0 4.4375l-0.984375 0zm5.9508514 0.15625q-1.421875 0 -2.3125 -0.921875q-0.890625 -0.921875 -0.890625 -2.375q0 -1.390625 0.875 -2.34375q0.890625 -0.953125 2.21875 -0.953125q1.359375 0 2.1875 0.9375q0.8281174 0.9375 0.8281174 2.4375l0 0.234375l-5.0781174 0q0.046875 0.96875 0.6875 1.578125q0.65625 0.59375 1.578125 0.59375q1.140625 0 1.9375 -0.78125l0.46874237 0.625q-0.9687424 0.96875 -2.4999924 0.96875zm1.953125 -3.6875q0 -0.875 -0.578125 -1.484375q-0.578125 -0.609375 -1.5 -0.609375q-0.859375 0 -1.453125 0.609375q-0.578125 0.609375 -0.59375 1.484375l4.125 0zm2.7068253 3.53125l0 -6.28125l0.984375 0l0 1.015625q0.875 -1.140625 2.09375 -1.140625l0 1.0l-0.390625 -0.046875q-0.4375 0 -0.984375 0.328125q-0.53125 0.3125 -0.71875 0.671875l0 4.453125l-0.984375 0zm7.2420197 0.15625q-1.421875 0 -2.3125 -0.921875q-0.890625 -0.921875 -0.890625 -2.375q0 -1.390625 0.875 -2.34375q0.890625 -0.953125 2.21875 -0.953125q1.359375 0 2.1875 0.9375q0.828125 0.9375 0.828125 2.4375l0 0.234375l-5.078125 0q0.046875 0.96875 0.6875 1.578125q0.65625 0.59375 1.578125 0.59375q1.140625 0 1.9375 -0.78125l0.46875 0.625q-0.96875 0.96875 -2.5 0.96875zm1.953125 -3.6875q0 -0.875 -0.578125 -1.484375q-0.578125 -0.609375 -1.5 -0.609375q-0.859375 0 -1.453125 0.609375q-0.578125 0.609375 -0.59375 1.484375l4.125 0zm7.7392273 3.6875q-1.390625 0 -1.390625 -1.46875l0 -4.109375l-1.046875 0l0 -0.859375l1.046875 0l0 -1.71875l0.96875 0l0 1.71875l1.28125 0l0 0.859375l-1.28125 0l0 3.90625q0 0.34375 0.15625 0.578125q0.15625 0.21875 0.484375 0.21875q0.40625 0 0.65625 -0.25l0.296875 0.71875q-0.40625 0.40625 -1.171875 0.40625zm5.074707 0q-1.359375 0 -2.234375 -0.921875q-0.875 -0.9375 -0.875 -2.375q0 -1.46875 0.875 -2.375q0.875 -0.921875 2.234375 -0.921875q1.359375 0 2.234375 0.921875q0.875 0.90625 0.875 2.375q0 1.4375 -0.875 2.375q-0.875 0.921875 -2.234375 0.921875zm0 -0.875q0.90625 0 1.484375 -0.671875q0.59375 -0.6875 0.59375 -1.75q0 -1.0625 -0.59375 -1.734375q-0.578125 -0.6875 -1.484375 -0.6875q-0.90625 0 -1.5 0.671875q-0.59375 0.671875 -0.59375 1.75q0 1.078125 0.578125 1.75q0.59375 0.671875 1.515625 0.671875zm11.406052 0.875q-1.328125 0 -2.109375 -1.109375l0 3.34375l-0.984375 0l0 -8.671875l0.984375 0l0 0.9375q0.328125 -0.484375 0.890625 -0.78125q0.5625 -0.3125 1.21875 -0.3125q1.265625 0 2.03125 0.890625q0.765625 0.875 0.765625 2.40625q0 1.5 -0.765625 2.40625q-0.75 0.890625 -2.03125 0.890625zm-0.234375 -0.875q0.90625 0 1.453125 -0.65625q0.5625 -0.671875 0.5625 -1.765625q0 -1.078125 -0.546875 -1.75q-0.546875 -0.671875 -1.46875 -0.671875q-0.59375 0 -1.109375 0.296875q-0.515625 0.28125 -0.765625 0.703125l0 2.828125q0.25 0.421875 0.765625 0.71875q0.515625 0.296875 1.109375 0.296875zm4.764282 0.71875l0 -8.671875l0.984375 0l0 8.671875l-0.984375 0zm6.93631 0l0 -0.71875q-0.796875 0.875 -2.078125 0.875q-0.953125 0 -1.578125 -0.59375q-0.625 -0.609375 -0.625 -1.484375q0 -0.90625 0.609375 -1.484375q0.625 -0.578125 1.59375 -0.578125q1.34375 0 2.078125 0.84375l0 -1.125q0 -0.640625 -0.453125 -0.984375q-0.453125 -0.34375 -1.140625 -0.34375q-1.109375 0 -1.921875 0.875l-0.453125 -0.671875q1.0 -1.046875 2.5 -1.046875q1.171875 0 1.796875 0.5625q0.640625 0.5625 0.640625 1.5625l0 4.3125l-0.96875 0zm-1.734375 -0.546875q1.15625 0 1.734375 -0.78125l0 -1.1875q-0.578125 -0.765625 -1.734375 -0.765625q-0.6875 0 -1.125 0.390625q-0.421875 0.375 -0.421875 0.984375q0 0.59375 0.421875 0.984375q0.4375 0.375 1.125 0.375zm7.6020203 0.703125q-1.390625 0 -2.265625 -0.9375q-0.875 -0.9375 -0.875 -2.359375q0 -1.421875 0.875 -2.359375q0.875 -0.9375 2.265625 -0.9375q1.453125 0 2.296875 1.09375l-0.65625 0.59375q-0.59375 -0.8125 -1.59375 -0.8125q-0.96875 0 -1.578125 0.671875q-0.59375 0.671875 -0.59375 1.75q0 1.09375 0.59375 1.765625q0.609375 0.65625 1.578125 0.65625q0.984375 0 1.59375 -0.8125l0.65625 0.59375q-0.84375 1.09375 -2.296875 1.09375zm6.659897 0q-1.421875 0 -2.3125 -0.921875q-0.890625 -0.921875 -0.890625 -2.375q0 -1.390625 0.875 -2.34375q0.890625 -0.953125 2.21875 -0.953125q1.359375 0 2.1875 0.9375q0.828125 0.9375 0.828125 2.4375l0 0.234375l-5.078125 0q0.046875 0.96875 0.6875 1.578125q0.65625 0.59375 1.578125 0.59375q1.140625 0 1.9375 -0.78125l0.46875 0.625q-0.96875 0.96875 -2.5 0.96875zm1.953125 -3.6875q0 -0.875 -0.578125 -1.484375q-0.578125 -0.609375 -1.5 -0.609375q-0.859375 0 -1.453125 0.609375q-0.578125 0.609375 -0.59375 1.484375l4.125 0zm6.6298523 -3.640625q-0.25 0 -0.453125 -0.1875q-0.1875 -0.1875 -0.1875 -0.46875q0 -0.265625 0.1875 -0.453125q0.203125 -0.203125 0.453125 -0.203125q0.28125 0 0.46875 0.203125q0.203125 0.1875 0.203125 0.453125q0 0.28125 -0.203125 0.46875q-0.1875 0.1875 -0.46875 0.1875zm-0.484375 7.171875l0 -6.28125l0.984375 0l0 6.28125l-0.984375 0zm4.59256 0.15625q-1.390625 0 -1.390625 -1.46875l0 -4.109375l-1.046875 0l0 -0.859375l1.046875 0l0 -1.71875l0.96875 0l0 1.71875l1.28125 0l0 0.859375l-1.28125 0l0 3.90625q0 0.34375 0.15625 0.578125q0.15625 0.21875 0.484375 0.21875q0.40625 0 0.65625 -0.25l0.296875 0.71875q-0.40625 0.40625 -1.171875 0.40625z" fill-rule="nonzero"></path><path fill="#000000" d="m49.33321 254.18057l0 -8.671875l1.078125 0l0 8.671875l-1.078125 0zm7.3885345 0l0 -4.109375q0 -0.828125 -0.390625 -1.140625q-0.375 -0.3125 -1.015625 -0.3125q-0.546875 0 -1.078125 0.296875q-0.53125 0.28125 -0.78125 0.671875l0 4.59375l-0.984375 0l0 -6.28125l0.984375 0l0 0.90625q0.40625 -0.46875 0.984375 -0.765625q0.59375 -0.296875 1.25 -0.296875q2.0 0 2.0 2.03125l0 4.40625l-0.96875 0zm5.0937653 0.15625q-1.609375 0 -2.546875 -0.984375l0.515625 -0.703125q0.3125 0.359375 0.859375 0.625q0.5625 0.265625 1.203125 0.265625q0.734375 0 1.109375 -0.296875q0.375 -0.3125 0.375 -0.78125q0 -0.40625 -0.40625 -0.640625q-0.40625 -0.25 -1.53125 -0.515625q-0.953125 -0.1875 -1.453125 -0.609375q-0.5 -0.421875 -0.5 -1.140625q0 -0.796875 0.640625 -1.296875q0.640625 -0.515625 1.703125 -0.515625q1.421875 0 2.3281288 0.90625l-0.4531288 0.6875q-0.28125 -0.34375 -0.78125 -0.5625q-0.484375 -0.234375 -1.09375 -0.234375q-0.65625 0 -1.03125 0.296875q-0.359375 0.28125 -0.359375 0.6875q0 0.375 0.40625 0.609375q0.421875 0.21875 1.546875 0.453125q0.953125 0.21875 1.4375 0.671875q0.5000038 0.4375 0.5000038 1.1875q0 0.859375 -0.6875038 1.375q-0.671875 0.515625 -1.78125 0.515625zm7.0413094 0q-1.421875 0 -2.3125 -0.921875q-0.890625 -0.921875 -0.890625 -2.375q0 -1.390625 0.875 -2.34375q0.890625 -0.953125 2.21875 -0.953125q1.359375 0 2.1875 0.9375q0.828125 0.9375 0.828125 2.4375l0 0.234375l-5.078125 0q0.046875 0.96875 0.6875 1.578125q0.65625 0.59375 1.578125 0.59375q1.140625 0 1.9375 -0.78125l0.46875 0.625q-0.96875 0.96875 -2.5 0.96875zm1.953125 -3.6875q0 -0.875 -0.578125 -1.484375q-0.578125 -0.609375 -1.5 -0.609375q-0.859375 0 -1.453125 0.609375q-0.578125 0.609375 -0.59375 1.484375l4.125 0zm2.706833 3.53125l0 -6.28125l0.984375 0l0 1.015625q0.875 -1.140625 2.09375 -1.140625l0 1.0l-0.390625 -0.046875q-0.4375 0 -0.984375 0.328125q-0.53125 0.3125 -0.71875 0.671875l0 4.453125l-0.984375 0zm5.9920197 0.15625q-1.390625 0 -1.390625 -1.46875l0 -4.109375l-1.046875 0l0 -0.859375l1.046875 0l0 -1.71875l0.96875 0l0 1.71875l1.28125 0l0 0.859375l-1.28125 0l0 3.90625q0 0.34375 0.15625 0.578125q0.15625 0.21875 0.484375 0.21875q0.40625 0 0.65625 -0.25l0.296875 0.71875q-0.40625 0.40625 -1.171875 0.40625zm9.325851 -0.15625l0 -2.203125l-4.109375 0l0 -0.890625l3.71875 -5.578125l1.46875 0l0 5.53125l1.234375 0l0 0.9375l-1.234375 0l0 2.203125l-1.078125 0zm0 -7.671875l-3.03125 4.53125l3.03125 0l0 -4.53125zm8.297592 5.96875q0.25 0.421875 0.765625 0.703125q0.515625 0.28125 1.109375 0.28125q0.921875 0 1.46875 -0.65625q0.546875 -0.671875 0.546875 -1.765625q0 -1.078125 -0.546875 -1.75q-0.53125 -0.671875 -1.46875 -0.671875q-0.59375 0 -1.109375 0.296875q-0.515625 0.296875 -0.765625 0.71875l0 2.84375zm-0.984375 1.703125l0 -8.671875l0.984375 0l0 3.34375q0.796875 -1.109375 2.109375 -1.109375q1.25 0 2.015625 0.921875q0.78125 0.90625 0.78125 2.375q0 1.515625 -0.78125 2.40625q-0.765625 0.890625 -2.015625 0.890625q-0.65625 0 -1.21875 -0.296875q-0.546875 -0.3125 -0.890625 -0.796875l0 0.9375l-0.984375 0zm10.5074005 0.15625q-1.421875 0 -2.3125 -0.921875q-0.890625 -0.921875 -0.890625 -2.375q0 -1.390625 0.875 -2.34375q0.890625 -0.953125 2.21875 -0.953125q1.359375 0 2.1875 0.9375q0.828125 0.9375 0.828125 2.4375l0 0.234375l-5.078125 0q0.046875 0.96875 0.6875 1.578125q0.65625 0.59375 1.578125 0.59375q1.140625 0 1.9375 -0.78125l0.46875 0.625q-0.96875 0.96875 -2.5 0.96875zm1.953125 -3.6875q0 -0.875 -0.578125 -1.484375q-0.578125 -0.609375 -1.5 -0.609375q-0.859375 0 -1.453125 0.609375q-0.578125 0.609375 -0.59375 1.484375l4.125 0zm2.988083 3.53125l0 -5.421875l-1.046875 0l0 -0.859375l1.046875 0l0 -0.484375q0 -0.96875 0.484375 -1.5q0.484375 -0.53125 1.328125 -0.53125q0.796875 0 1.328125 0.484375l-0.40625 0.625q-0.328125 -0.3125 -0.765625 -0.3125q-1.0 0 -1.0 1.234375l0 0.484375l1.28125 0l0 0.859375l-1.28125 0l0 5.421875l-0.96875 0zm6.2406006 0.15625q-1.359375 0 -2.234375 -0.921875q-0.875 -0.9375 -0.875 -2.375q0 -1.46875 0.875 -2.375q0.875 -0.921875 2.234375 -0.921875q1.359375 0 2.234375 0.921875q0.875 0.90625 0.875 2.375q0 1.4375 -0.875 2.375q-0.875 0.921875 -2.234375 0.921875zm0 -0.875q0.90625 0 1.484375 -0.671875q0.59375 -0.6875 0.59375 -1.75q0 -1.0625 -0.59375 -1.734375q-0.578125 -0.6875 -1.484375 -0.6875q-0.90625 0 -1.5 0.671875q-0.59375 0.671875 -0.59375 1.75q0 1.078125 0.578125 1.75q0.59375 0.671875 1.515625 0.671875zm4.873657 0.71875l0 -6.28125l0.984375 0l0 1.015625q0.875 -1.140625 2.09375 -1.140625l0 1.0l-0.390625 -0.046875q-0.4375 0 -0.984375 0.328125q-0.53125 0.3125 -0.71875 0.671875l0 4.453125l-0.984375 0zm7.242012 0.15625q-1.421875 0 -2.3124924 -0.921875q-0.890625 -0.921875 -0.890625 -2.375q0 -1.390625 0.875 -2.34375q0.8906174 -0.953125 2.2187424 -0.953125q1.359375 0 2.1875 0.9375q0.828125 0.9375 0.828125 2.4375l0 0.234375l-5.0781174 0q0.046875 0.96875 0.6874924 1.578125q0.65625 0.59375 1.578125 0.59375q1.140625 0 1.9375 -0.78125l0.46875 0.625q-0.96875 0.96875 -2.5 0.96875zm1.953125 -3.6875q0 -0.875 -0.578125 -1.484375q-0.578125 -0.609375 -1.5 -0.609375q-0.859375 0 -1.453125 0.609375q-0.5781174 0.609375 -0.5937424 1.484375l4.1249924 0zm9.082977 3.6875q-2.0 0 -3.046875 -1.390625l0.65625 -0.71875q0.90625 1.140625 2.390625 1.140625q0.875 0 1.4375 -0.515625q0.578125 -0.53125 0.578125 -1.34375q0 -0.8125 -0.546875 -1.328125q-0.53125 -0.53125 -1.453125 -0.53125q-1.15625 0 -2.0 0.8125l-0.796875 -0.265625l0 -4.6875l5.3125 0l0 0.96875l-4.234375 0l0 3.015625q0.3125 -0.3125 0.84375 -0.546875q0.53125 -0.234375 1.1875 -0.234375q1.1875 0 1.96875 0.765625q0.796875 0.765625 0.796875 2.0q0 1.28125 -0.859375 2.078125q-0.84375 0.78125 -2.234375 0.78125z" fill-rule="nonzero"></path><path fill="#000000" fill-opacity="0.0" d="m39.317585 381.021l189.22835 0l0 63.93701l-189.22835 0z" fill-rule="evenodd"></path><path fill="#000000" d="m49.33321 402.82098l0 -8.671875l1.078125 0l0 8.671875l-1.078125 0zm7.3885345 0l0 -4.109375q0 -0.828125 -0.390625 -1.140625q-0.375 -0.3125 -1.015625 -0.3125q-0.546875 0 -1.078125 0.296875q-0.53125 0.28125 -0.78125 0.671875l0 4.59375l-0.984375 0l0 -6.28125l0.984375 0l0 0.90625q0.40625 -0.46875 0.984375 -0.765625q0.59375 -0.296875 1.25 -0.296875q2.0 0 2.0 2.03125l0 4.40625l-0.96875 0zm5.0937653 0.15625q-1.609375 0 -2.546875 -0.984375l0.515625 -0.703125q0.3125 0.359375 0.859375 0.625q0.5625 0.265625 1.203125 0.265625q0.734375 0 1.109375 -0.296875q0.375 -0.3125 0.375 -0.78125q0 -0.40625 -0.40625 -0.640625q-0.40625 -0.25 -1.53125 -0.515625q-0.953125 -0.1875 -1.453125 -0.609375q-0.5 -0.421875 -0.5 -1.140625q0 -0.796875 0.640625 -1.296875q0.640625 -0.515625 1.703125 -0.515625q1.421875 0 2.3281288 0.90625l-0.4531288 0.6875q-0.28125 -0.34375 -0.78125 -0.5625q-0.484375 -0.234375 -1.09375 -0.234375q-0.65625 0 -1.03125 0.296875q-0.359375 0.28125 -0.359375 0.6875q0 0.375 0.40625 0.609375q0.421875 0.21875 1.546875 0.453125q0.953125 0.21875 1.4375 0.671875q0.5000038 0.4375 0.5000038 1.1875q0 0.859375 -0.6875038 1.375q-0.671875 0.515625 -1.78125 0.515625zm7.0413094 0q-1.421875 0 -2.3125 -0.921875q-0.890625 -0.921875 -0.890625 -2.375q0 -1.390625 0.875 -2.34375q0.890625 -0.953125 2.21875 -0.953125q1.359375 0 2.1875 0.9375q0.828125 0.9375 0.828125 2.4375l0 0.234375l-5.078125 0q0.046875 0.96875 0.6875 1.578125q0.65625 0.59375 1.578125 0.59375q1.140625 0 1.9375 -0.78125l0.46875 0.625q-0.96875 0.96875 -2.5 0.96875zm1.953125 -3.6875q0 -0.875 -0.578125 -1.484375q-0.578125 -0.609375 -1.5 -0.609375q-0.859375 0 -1.453125 0.609375q-0.578125 0.609375 -0.59375 1.484375l4.125 0zm2.706833 3.53125l0 -6.28125l0.984375 0l0 1.015625q0.875 -1.140625 2.09375 -1.140625l0 1.0l-0.390625 -0.046875q-0.4375 0 -0.984375 0.328125q-0.53125 0.3125 -0.71875 0.671875l0 4.453125l-0.984375 0zm5.9920197 0.15625q-1.390625 0 -1.390625 -1.46875l0 -4.109375l-1.046875 0l0 -0.859375l1.046875 0l0 -1.71875l0.96875 0l0 1.71875l1.28125 0l0 0.859375l-1.28125 0l0 3.90625q0 0.34375 0.15625 0.578125q0.15625 0.21875 0.484375 0.21875q0.40625 0 0.65625 -0.25l0.296875 0.71875q-0.40625 0.40625 -1.171875 0.40625zm3.762207 2.4375q-0.890625 -1.21875 -1.359375 -2.703125q-0.46875 -1.484375 -0.46875 -3.046875q0 -1.578125 0.46875 -3.046875q0.46875 -1.484375 1.359375 -2.703125l0.578125 0.4375q-0.78125 1.5625 -1.0625 2.734375q-0.28125 1.15625 -0.28125 2.578125q0 1.40625 0.28125 2.59375q0.296875 1.171875 1.0625 2.6875l-0.578125 0.46875zm4.899109 -2.4375q-1.5625 0 -2.453125 -1.171875q-0.890625 -1.1875 -0.890625 -3.296875q0 -2.0625 0.953125 -3.265625q0.96875 -1.21875 2.578125 -1.21875q1.484375 0 2.40625 1.03125l-0.546875 0.8125q-0.34375 -0.390625 -0.765625 -0.640625q-0.40625 -0.25 -1.09375 -0.25q-1.09375 0 -1.78125 0.953125q-0.671875 0.953125 -0.671875 2.453125l0 0.171875l0.015625 0.171875q0.390625 -0.59375 1.09375 -0.96875q0.703125 -0.390625 1.375 -0.390625q1.25 0 2.03125 0.75q0.796875 0.734375 0.796875 2.03125q0 1.21875 -0.84375 2.03125q-0.84375 0.796875 -2.203125 0.796875zm-0.03125 -0.96875q0.875 0 1.421875 -0.53125q0.5625 -0.546875 0.5625 -1.296875q0 -0.875 -0.546875 -1.375q-0.53125 -0.5 -1.453125 -0.5q-0.65625 0 -1.234375 0.359375q-0.578125 0.359375 -0.9375 0.9375q0.109375 1.109375 0.671875 1.765625q0.578125 0.640625 1.515625 0.640625zm4.126892 2.9375q0.765625 -1.5 1.0625 -2.71875q0.3125 -1.234375 0.3125 -2.5625q0 -1.328125 -0.296875 -2.53125q-0.296875 -1.203125 -1.078125 -2.78125l0.59375 -0.4375q0.890625 1.21875 1.359375 2.703125q0.484375 1.46875 0.484375 3.046875q0 1.5625 -0.484375 3.046875q-0.46875 1.484375 -1.359375 2.703125l-0.59375 -0.46875zm9.087753 -1.96875q-1.390625 0 -1.390625 -1.46875l0 -4.109375l-1.046875 0l0 -0.859375l1.046875 0l0 -1.71875l0.96875 0l0 1.71875l1.28125 0l0 0.859375l-1.28125 0l0 3.90625q0 0.34375 0.15625 0.578125q0.15625 0.21875 0.484375 0.21875q0.40625 0 0.65625 -0.25l0.296875 0.71875q-0.40625 0.40625 -1.171875 0.40625zm5.074707 0q-1.359375 0 -2.234375 -0.921875q-0.875 -0.9375 -0.875 -2.375q0 -1.46875 0.875 -2.375q0.875 -0.921875 2.234375 -0.921875q1.359375 0 2.234375 0.921875q0.875 0.90625 0.875 2.375q0 1.4375 -0.875 2.375q-0.875 0.921875 -2.234375 0.921875zm0 -0.875q0.90625 0 1.484375 -0.671875q0.59375 -0.6875 0.59375 -1.75q0 -1.0625 -0.59375 -1.734375q-0.578125 -0.6875 -1.484375 -0.6875q-0.90625 0 -1.5 0.671875q-0.59375 0.671875 -0.59375 1.75q0 1.078125 0.578125 1.75q0.59375 0.671875 1.515625 0.671875zm10.312302 0.875q-1.609375 0 -2.546875 -0.984375l0.515625 -0.703125q0.3125 0.359375 0.859375 0.625q0.5625 0.265625 1.203125 0.265625q0.734375 0 1.109375 -0.296875q0.375 -0.3125 0.375 -0.78125q0 -0.40625 -0.40625 -0.640625q-0.40625 -0.25 -1.53125 -0.515625q-0.953125 -0.1875 -1.453125 -0.609375q-0.5 -0.421875 -0.5 -1.140625q0 -0.796875 0.640625 -1.296875q0.640625 -0.515625 1.703125 -0.515625q1.421875 0 2.328125 0.90625l-0.453125 0.6875q-0.28125 -0.34375 -0.78125 -0.5625q-0.484375 -0.234375 -1.09375 -0.234375q-0.65625 0 -1.03125 0.296875q-0.359375 0.28125 -0.359375 0.6875q0 0.375 0.40625 0.609375q0.421875 0.21875 1.546875 0.453125q0.953125 0.21875 1.4375 0.671875q0.5 0.4375 0.5 1.1875q0 0.859375 -0.6875 1.375q-0.671875 0.515625 -1.78125 0.515625zm6.9475555 0q-1.359375 0 -2.234375 -0.921875q-0.875 -0.9375 -0.875 -2.375q0 -1.46875 0.875 -2.375q0.875 -0.921875 2.234375 -0.921875q1.359375 0 2.234375 0.921875q0.875 0.90625 0.875 2.375q0 1.4375 -0.875 2.375q-0.875 0.921875 -2.234375 0.921875zm0 -0.875q0.90625 0 1.484375 -0.671875q0.59375 -0.6875 0.59375 -1.75q0 -1.0625 -0.59375 -1.734375q-0.578125 -0.6875 -1.484375 -0.6875q-0.90625 0 -1.5 0.671875q-0.59375 0.671875 -0.59375 1.75q0 1.078125 0.578125 1.75q0.59375 0.671875 1.515625 0.671875zm4.8736496 0.71875l0 -6.28125l0.984375 0l0 1.015625q0.875 -1.140625 2.09375 -1.140625l0 1.0l-0.390625 -0.046875q-0.4375 0 -0.984375 0.328125q-0.53125 0.3125 -0.71875 0.671875l0 4.453125l-0.984375 0zm5.9920197 0.15625q-1.390625 0 -1.390625 -1.46875l0 -4.109375l-1.046875 0l0 -0.859375l1.046875 0l0 -1.71875l0.96875 0l0 1.71875l1.28125 0l0 0.859375l-1.28125 0l0 3.90625q0 0.34375 0.15625 0.578125q0.15625 0.21875 0.484375 0.21875q0.40625 0 0.65625 -0.25l0.296875 0.71875q-0.40625 0.40625 -1.171875 0.40625zm5.168457 0q-1.421875 0 -2.3125 -0.921875q-0.890625 -0.921875 -0.890625 -2.375q0 -1.390625 0.875 -2.34375q0.890625 -0.953125 2.21875 -0.953125q1.359375 0 2.1875 0.9375q0.828125 0.9375 0.828125 2.4375l0 0.234375l-5.078125 0q0.046875 0.96875 0.6875 1.578125q0.65625 0.59375 1.578125 0.59375q1.140625 0 1.9375 -0.78125l0.46875 0.625q-0.96875 0.96875 -2.5 0.96875zm1.953125 -3.6875q0 -0.875 -0.578125 -1.484375q-0.578125 -0.609375 -1.5 -0.609375q-0.859375 0 -1.453125 0.609375q-0.578125 0.609375 -0.59375 1.484375l4.125 0zm7.269333 3.53125l0 -0.9375q-0.359375 0.484375 -0.921875 0.796875q-0.546875 0.296875 -1.203125 0.296875q-1.265625 0 -2.03125 -0.890625q-0.765625 -0.90625 -0.765625 -2.40625q0 -1.5 0.765625 -2.390625q0.78125 -0.90625 2.03125 -0.90625q0.640625 0 1.1875 0.296875q0.546875 0.296875 0.9375 0.8125l0 -3.34375l0.96875 0l0 8.671875l-0.96875 0zm-1.890625 -0.71875q0.578125 0 1.09375 -0.28125q0.53125 -0.28125 0.796875 -0.703125l0 -2.84375q-0.265625 -0.421875 -0.796875 -0.71875q-0.515625 -0.296875 -1.09375 -0.296875q-0.90625 0 -1.46875 0.671875q-0.546875 0.65625 -0.546875 1.75q0 1.09375 0.546875 1.765625q0.546875 0.65625 1.46875 0.65625zm8.43042 0.71875l0 -8.671875l0.984375 0l0 8.671875l-0.984375 0zm3.4831848 -7.171875q-0.25 0 -0.453125 -0.1875q-0.1875 -0.1875 -0.1875 -0.46875q0 -0.265625 0.1875 -0.453125q0.203125 -0.203125 0.453125 -0.203125q0.28125 0 0.46875 0.203125q0.203125 0.1875 0.203125 0.453125q0 0.28125 -0.203125 0.46875q-0.1875 0.1875 -0.46875 0.1875zm-0.484375 7.171875l0 -6.28125l0.984375 0l0 6.28125l-0.984375 0zm4.99881 0.15625q-1.609375 0 -2.546875 -0.984375l0.515625 -0.703125q0.3125 0.359375 0.859375 0.625q0.5625 0.265625 1.203125 0.265625q0.734375 0 1.109375 -0.296875q0.375 -0.3125 0.375 -0.78125q0 -0.40625 -0.40625 -0.640625q-0.40625 -0.25 -1.53125 -0.515625q-0.953125 -0.1875 -1.453125 -0.609375q-0.5 -0.421875 -0.5 -1.140625q0 -0.796875 0.640625 -1.296875q0.640625 -0.515625 1.703125 -0.515625q1.421875 0 2.328125 0.90625l-0.453125 0.6875q-0.28125 -0.34375 -0.78125 -0.5625q-0.484375 -0.234375 -1.09375 -0.234375q-0.65625 0 -1.03125 0.296875q-0.359375 0.28125 -0.359375 0.6875q0 0.375 0.40625 0.609375q0.421875 0.21875 1.546875 0.453125q0.953125 0.21875 1.4375 0.671875q0.5 0.4375 0.5 1.1875q0 0.859375 -0.6875 1.375q-0.671875 0.515625 -1.78125 0.515625zm5.7913055 0q-1.390625 0 -1.390625 -1.46875l0 -4.109375l-1.046875 0l0 -0.859375l1.046875 0l0 -1.71875l0.96875 0l0 1.71875l1.28125 0l0 0.859375l-1.28125 0l0 3.90625q0 0.34375 0.15625 0.578125q0.15625 0.21875 0.484375 0.21875q0.40625 0 0.65625 -0.25l0.296875 0.71875q-0.40625 0.40625 -1.171875 0.40625z" fill-rule="nonzero"></path><path fill="#000000" d="m51.286335 418.97723q-1.609375 0 -2.546875 -0.984375l0.515625 -0.703125q0.3125 0.359375 0.859375 0.625q0.5625 0.265625 1.203125 0.265625q0.734375 0 1.109375 -0.296875q0.375 -0.3125 0.375 -0.78125q0 -0.40625 -0.40625 -0.640625q-0.40625 -0.25 -1.53125 -0.515625q-0.953125 -0.1875 -1.453125 -0.609375q-0.5 -0.421875 -0.5 -1.140625q0 -0.796875 0.640625 -1.296875q0.640625 -0.515625 1.703125 -0.515625q1.421875 0 2.328125 0.90625l-0.453125 0.6875q-0.28125 -0.34375 -0.78125 -0.5625q-0.484375 -0.234375 -1.09375 -0.234375q-0.65625 0 -1.03125 0.296875q-0.359375 0.28125 -0.359375 0.6875q0 0.375 0.40625 0.609375q0.421875 0.21875 1.546875 0.453125q0.953125 0.21875 1.4375 0.671875q0.5 0.4375 0.5 1.1875q0 0.859375 -0.6875 1.375q-0.671875 0.515625 -1.78125 0.515625zm7.0413055 0q-1.421875 0 -2.3125 -0.921875q-0.890625 -0.921875 -0.890625 -2.375q0 -1.390625 0.875 -2.34375q0.890625 -0.953125 2.21875 -0.953125q1.359375 0 2.1875 0.9375q0.828125 0.9375 0.828125 2.4375l0 0.234375l-5.078125 0q0.046875 0.96875 0.6875 1.578125q0.65625 0.59375 1.578125 0.59375q1.140625 0 1.9375 -0.78125l0.46875 0.625q-0.96875 0.96875 -2.5 0.96875zm1.953125 -3.6875q0 -0.875 -0.578125 -1.484375q-0.578125 -0.609375 -1.5 -0.609375q-0.859375 0 -1.453125 0.609375q-0.578125 0.609375 -0.59375 1.484375l4.125 0zm6.6443367 3.53125l0 -0.71875q-0.796875 0.875 -2.078125 0.875q-0.9531288 0 -1.5781288 -0.59375q-0.625 -0.609375 -0.625 -1.484375q0 -0.90625 0.609375 -1.484375q0.625 -0.578125 1.5937538 -0.578125q1.34375 0 2.078125 0.84375l0 -1.125q0 -0.640625 -0.453125 -0.984375q-0.453125 -0.34375 -1.140625 -0.34375q-1.109375 0 -1.9218788 0.875l-0.453125 -0.671875q1.0 -1.046875 2.5000038 -1.046875q1.171875 0 1.796875 0.5625q0.640625 0.5625 0.640625 1.5625l0 4.3125l-0.96875 0zm-1.734375 -0.546875q1.15625 0 1.734375 -0.78125l0 -1.1875q-0.578125 -0.765625 -1.734375 -0.765625q-0.6875 0 -1.125 0.390625q-0.4218788 0.375 -0.4218788 0.984375q0 0.59375 0.4218788 0.984375q0.4375 0.375 1.125 0.375zm4.8207703 0.546875l0 -6.28125l0.984375 0l0 1.015625q0.875 -1.140625 2.09375 -1.140625l0 1.0l-0.390625 -0.046875q-0.4375 0 -0.984375 0.328125q-0.53125 0.3125 -0.71875 0.671875l0 4.453125l-0.984375 0zm7.1795197 0.15625q-1.390625 0 -2.265625 -0.9375q-0.875 -0.9375 -0.875 -2.359375q0 -1.421875 0.875 -2.359375q0.875 -0.9375 2.265625 -0.9375q1.453125 0 2.296875 1.09375l-0.65625 0.59375q-0.59375 -0.8125 -1.59375 -0.8125q-0.96875 0 -1.578125 0.671875q-0.59375 0.671875 -0.59375 1.75q0 1.09375 0.59375 1.765625q0.609375 0.65625 1.578125 0.65625q0.984375 0 1.59375 -0.8125l0.65625 0.59375q-0.84375 1.09375 -2.296875 1.09375zm8.066147 -0.15625l0 -4.140625q0 -0.703125 -0.328125 -1.0625q-0.328125 -0.359375 -1.078125 -0.359375q-0.53125 0 -1.03125 0.28125q-0.5 0.265625 -0.828125 0.6875l0 4.59375l-0.984375 0l0 -8.671875l0.984375 0l0 3.296875q0.40625 -0.46875 1.0 -0.765625q0.609375 -0.296875 1.25 -0.296875q2.0 0 2.0 2.0l0 4.4375l-0.984375 0zm4.5446014 2.59375q-0.890625 -1.21875 -1.359375 -2.703125q-0.46875 -1.484375 -0.46875 -3.046875q0 -1.578125 0.46875 -3.046875q0.46875 -1.484375 1.359375 -2.703125l0.578125 0.4375q-0.78125 1.5625 -1.0625 2.734375q-0.28125 1.15625 -0.28125 2.578125q0 1.40625 0.28125 2.59375q0.296875 1.171875 1.0625 2.6875l-0.578125 0.46875zm4.899109 -2.4375q-1.5625 0 -2.453125 -1.171875q-0.890625 -1.1875 -0.890625 -3.296875q0 -2.0625 0.953125 -3.265625q0.96875 -1.21875 2.578125 -1.21875q1.484375 0 2.40625 1.03125l-0.546875 0.8125q-0.34375 -0.390625 -0.765625 -0.640625q-0.40625 -0.25 -1.09375 -0.25q-1.09375 0 -1.78125 0.953125q-0.671875 0.953125 -0.671875 2.453125l0 0.171875l0.015625 0.171875q0.390625 -0.59375 1.09375 -0.96875q0.703125 -0.390625 1.375 -0.390625q1.25 0 2.03125 0.75q0.796875 0.734375 0.796875 2.03125q0 1.21875 -0.84375 2.03125q-0.84375 0.796875 -2.203125 0.796875zm-0.03125 -0.96875q0.875 0 1.421875 -0.53125q0.5625 -0.546875 0.5625 -1.296875q0 -0.875 -0.546875 -1.375q-0.53125 -0.5 -1.453125 -0.5q-0.65625 0 -1.234375 0.359375q-0.578125 0.359375 -0.9375 0.9375q0.109375 1.109375 0.671875 1.765625q0.578125 0.640625 1.515625 0.640625zm4.126892 2.9375q0.765625 -1.5 1.0625 -2.71875q0.3125 -1.234375 0.3125 -2.5625q0 -1.328125 -0.296875 -2.53125q-0.296875 -1.203125 -1.078125 -2.78125l0.59375 -0.4375q0.890625 1.21875 1.359375 2.703125q0.484375 1.46875 0.484375 3.046875q0 1.5625 -0.484375 3.046875q-0.46875 1.484375 -1.359375 2.703125l-0.59375 -0.46875zm12.931503 -2.125l-1.640625 -5.046875l-1.625 5.046875l-0.984375 0l-2.0 -6.28125l1.015625 0l1.53125 5.0l1.65625 -5.0l0.828125 0l1.65625 5.0l1.53125 -5.0l1.015625 0l-2.0 6.28125l-0.984375 0zm8.595306 0l0 -4.140625q0 -0.703125 -0.328125 -1.0625q-0.328125 -0.359375 -1.078125 -0.359375q-0.53125 0 -1.03125 0.28125q-0.5 0.265625 -0.828125 0.6875l0 4.59375l-0.984375 0l0 -8.671875l0.984375 0l0 3.296875q0.40625 -0.46875 1.0 -0.765625q0.609375 -0.296875 1.25 -0.296875q2.0 0 2.0 2.0l0 4.4375l-0.984375 0zm5.9508514 0.15625q-1.421875 0 -2.3125 -0.921875q-0.890625 -0.921875 -0.890625 -2.375q0 -1.390625 0.875 -2.34375q0.890625 -0.953125 2.21875 -0.953125q1.359375 0 2.1874924 0.9375q0.828125 0.9375 0.828125 2.4375l0 0.234375l-5.0781174 0q0.046875 0.96875 0.6875 1.578125q0.65625 0.59375 1.578125 0.59375q1.140625 0 1.9374924 -0.78125l0.46875 0.625q-0.9687424 0.96875 -2.4999924 0.96875zm1.9531174 -3.6875q0 -0.875 -0.5781174 -1.484375q-0.578125 -0.609375 -1.5 -0.609375q-0.859375 0 -1.453125 0.609375q-0.578125 0.609375 -0.59375 1.484375l4.1249924 0zm2.706833 3.53125l0 -6.28125l0.984375 0l0 1.015625q0.875 -1.140625 2.09375 -1.140625l0 1.0l-0.390625 -0.046875q-0.4375 0 -0.984375 0.328125q-0.53125 0.3125 -0.71875 0.671875l0 4.453125l-0.984375 0zm7.2420197 0.15625q-1.421875 0 -2.3125 -0.921875q-0.890625 -0.921875 -0.890625 -2.375q0 -1.390625 0.875 -2.34375q0.890625 -0.953125 2.21875 -0.953125q1.359375 0 2.1875 0.9375q0.828125 0.9375 0.828125 2.4375l0 0.234375l-5.078125 0q0.046875 0.96875 0.6875 1.578125q0.65625 0.59375 1.578125 0.59375q1.140625 0 1.9375 -0.78125l0.46875 0.625q-0.96875 0.96875 -2.5 0.96875zm1.953125 -3.6875q0 -0.875 -0.578125 -1.484375q-0.578125 -0.609375 -1.5 -0.609375q-0.859375 0 -1.453125 0.609375q-0.578125 0.609375 -0.59375 1.484375l4.125 0zm7.7392273 3.6875q-1.390625 0 -1.390625 -1.46875l0 -4.109375l-1.046875 0l0 -0.859375l1.046875 0l0 -1.71875l0.96875 0l0 1.71875l1.28125 0l0 0.859375l-1.28125 0l0 3.90625q0 0.34375 0.15625 0.578125q0.15625 0.21875 0.484375 0.21875q0.40625 0 0.65625 -0.25l0.296875 0.71875q-0.40625 0.40625 -1.171875 0.40625zm5.074707 0q-1.359375 0 -2.234375 -0.921875q-0.875 -0.9375 -0.875 -2.375q0 -1.46875 0.875 -2.375q0.875 -0.921875 2.234375 -0.921875q1.359375 0 2.234375 0.921875q0.875 0.90625 0.875 2.375q0 1.4375 -0.875 2.375q-0.875 0.921875 -2.234375 0.921875zm0 -0.875q0.90625 0 1.484375 -0.671875q0.59375 -0.6875 0.59375 -1.75q0 -1.0625 -0.59375 -1.734375q-0.578125 -0.6875 -1.484375 -0.6875q-0.90625 0 -1.5 0.671875q-0.59375 0.671875 -0.59375 1.75q0 1.078125 0.578125 1.75q0.59375 0.671875 1.515625 0.671875zm11.406052 0.875q-1.328125 0 -2.109375 -1.109375l0 3.34375l-0.984375 0l0 -8.671875l0.984375 0l0 0.9375q0.328125 -0.484375 0.890625 -0.78125q0.5625 -0.3125 1.21875 -0.3125q1.265625 0 2.03125 0.890625q0.765625 0.875 0.765625 2.40625q0 1.5 -0.765625 2.40625q-0.75 0.890625 -2.03125 0.890625zm-0.234375 -0.875q0.90625 0 1.453125 -0.65625q0.5625 -0.671875 0.5625 -1.765625q0 -1.078125 -0.546875 -1.75q-0.546875 -0.671875 -1.46875 -0.671875q-0.59375 0 -1.109375 0.296875q-0.515625 0.28125 -0.765625 0.703125l0 2.828125q0.25 0.421875 0.765625 0.71875q0.515625 0.296875 1.109375 0.296875zm4.764282 0.71875l0 -8.671875l0.984375 0l0 8.671875l-0.984375 0zm6.93631 0l0 -0.71875q-0.796875 0.875 -2.078125 0.875q-0.953125 0 -1.578125 -0.59375q-0.625 -0.609375 -0.625 -1.484375q0 -0.90625 0.609375 -1.484375q0.625 -0.578125 1.59375 -0.578125q1.34375 0 2.078125 0.84375l0 -1.125q0 -0.640625 -0.453125 -0.984375q-0.453125 -0.34375 -1.140625 -0.34375q-1.109375 0 -1.921875 0.875l-0.453125 -0.671875q1.0 -1.046875 2.5 -1.046875q1.171875 0 1.796875 0.5625q0.640625 0.5625 0.640625 1.5625l0 4.3125l-0.96875 0zm-1.734375 -0.546875q1.15625 0 1.734375 -0.78125l0 -1.1875q-0.578125 -0.765625 -1.734375 -0.765625q-0.6875 0 -1.125 0.390625q-0.421875 0.375 -0.421875 0.984375q0 0.59375 0.421875 0.984375q0.4375 0.375 1.125 0.375zm7.6020203 0.703125q-1.390625 0 -2.265625 -0.9375q-0.875 -0.9375 -0.875 -2.359375q0 -1.421875 0.875 -2.359375q0.875 -0.9375 2.265625 -0.9375q1.453125 0 2.296875 1.09375l-0.65625 0.59375q-0.59375 -0.8125 -1.59375 -0.8125q-0.96875 0 -1.578125 0.671875q-0.59375 0.671875 -0.59375 1.75q0 1.09375 0.59375 1.765625q0.609375 0.65625 1.578125 0.65625q0.984375 0 1.59375 -0.8125l0.65625 0.59375q-0.84375 1.09375 -2.296875 1.09375zm6.659897 0q-1.421875 0 -2.3125 -0.921875q-0.890625 -0.921875 -0.890625 -2.375q0 -1.390625 0.875 -2.34375q0.890625 -0.953125 2.21875 -0.953125q1.359375 0 2.1875 0.9375q0.828125 0.9375 0.828125 2.4375l0 0.234375l-5.078125 0q0.046875 0.96875 0.6875 1.578125q0.65625 0.59375 1.578125 0.59375q1.140625 0 1.9375 -0.78125l0.46875 0.625q-0.96875 0.96875 -2.5 0.96875zm1.953125 -3.6875q0 -0.875 -0.578125 -1.484375q-0.578125 -0.609375 -1.5 -0.609375q-0.859375 0 -1.453125 0.609375q-0.578125 0.609375 -0.59375 1.484375l4.125 0zm6.6298523 -3.640625q-0.25 0 -0.453125 -0.1875q-0.1875 -0.1875 -0.1875 -0.46875q0 -0.265625 0.1875 -0.453125q0.203125 -0.203125 0.453125 -0.203125q0.28125 0 0.46875 0.203125q0.203125 0.1875 0.203125 0.453125q0 0.28125 -0.203125 0.46875q-0.1875 0.1875 -0.46875 0.1875zm-0.484375 7.171875l0 -6.28125l0.984375 0l0 6.28125l-0.984375 0zm4.59256 0.15625q-1.390625 0 -1.390625 -1.46875l0 -4.109375l-1.046875 0l0 -0.859375l1.046875 0l0 -1.71875l0.96875 0l0 1.71875l1.28125 0l0 0.859375l-1.28125 0l0 3.90625q0 0.34375 0.15625 0.578125q0.15625 0.21875 0.484375 0.21875q0.40625 0 0.65625 -0.25l0.296875 0.71875q-0.40625 0.40625 -1.171875 0.40625z" fill-rule="nonzero"></path><path fill="#000000" d="m52.317585 434.97723q-1.5625 0 -2.453125 -1.171875q-0.890625 -1.1875 -0.890625 -3.296875q0 -2.0625 0.953125 -3.265625q0.96875 -1.21875 2.578125 -1.21875q1.484375 0 2.40625 1.03125l-0.546875 0.8125q-0.34375 -0.390625 -0.765625 -0.640625q-0.40625 -0.25 -1.09375 -0.25q-1.09375 0 -1.78125 0.953125q-0.671875 0.953125 -0.671875 2.453125l0 0.171875l0.015625 0.171875q0.390625 -0.59375 1.09375 -0.96875q0.703125 -0.390625 1.375 -0.390625q1.25 0 2.03125 0.75q0.796875 0.734375 0.796875 2.03125q0 1.21875 -0.84375 2.03125q-0.84375 0.796875 -2.203125 0.796875zm-0.03125 -0.96875q0.875 0 1.421875 -0.53125q0.5625 -0.546875 0.5625 -1.296875q0 -0.875 -0.546875 -1.375q-0.53125 -0.5 -1.453125 -0.5q-0.65625 0 -1.234375 0.359375q-0.578125 0.359375 -0.9375 0.9375q0.109375 1.109375 0.671875 1.765625q0.578125 0.640625 1.515625 0.640625zm8.7999115 -6.359375q-0.25 0 -0.453125 -0.1875q-0.1875 -0.1875 -0.1875 -0.46875q0 -0.265625 0.1875 -0.453125q0.203125 -0.203125 0.453125 -0.203125q0.28125 0 0.46875 0.203125q0.203125 0.1875 0.203125 0.453125q0 0.28125 -0.203125 0.46875q-0.1875 0.1875 -0.46875 0.1875zm-0.484375 7.171875l0 -6.28125l0.984375 0l0 6.28125l-0.984375 0zm4.9988136 0.15625q-1.6093788 0 -2.5468788 -0.984375l0.515625 -0.703125q0.3125 0.359375 0.8593788 0.625q0.5625 0.265625 1.203125 0.265625q0.734375 0 1.109375 -0.296875q0.375 -0.3125 0.375 -0.78125q0 -0.40625 -0.40625 -0.640625q-0.40625 -0.25 -1.53125 -0.515625q-0.953125 -0.1875 -1.4531288 -0.609375q-0.5 -0.421875 -0.5 -1.140625q0 -0.796875 0.640625 -1.296875q0.6406288 -0.515625 1.7031288 -0.515625q1.421875 0 2.328125 0.90625l-0.453125 0.6875q-0.28125 -0.34375 -0.78125 -0.5625q-0.484375 -0.234375 -1.09375 -0.234375q-0.65625 0 -1.03125 0.296875q-0.359375 0.28125 -0.359375 0.6875q0 0.375 0.40625 0.609375q0.421875 0.21875 1.546875 0.453125q0.953125 0.21875 1.4375 0.671875q0.5 0.4375 0.5 1.1875q0 0.859375 -0.6875 1.375q-0.671875 0.515625 -1.78125 0.515625zm8.120575 -7.328125q-0.25 0 -0.453125 -0.1875q-0.1875 -0.1875 -0.1875 -0.46875q0 -0.265625 0.1875 -0.453125q0.203125 -0.203125 0.453125 -0.203125q0.28125 0 0.46875 0.203125q0.203125 0.1875 0.203125 0.453125q0 0.28125 -0.203125 0.46875q-0.1875 0.1875 -0.46875 0.1875zm-0.484375 7.171875l0 -6.28125l0.984375 0l0 6.28125l-0.984375 0zm7.24881 0l0 -4.109375q0 -0.828125 -0.390625 -1.140625q-0.375 -0.3125 -1.015625 -0.3125q-0.546875 0 -1.078125 0.296875q-0.53125 0.28125 -0.78125 0.671875l0 4.59375l-0.984375 0l0 -6.28125l0.984375 0l0 0.90625q0.40625 -0.46875 0.984375 -0.765625q0.59375 -0.296875 1.25 -0.296875q2.0 0 2.0 2.03125l0 4.40625l-0.96875 0zm8.12616 0.15625q-1.390625 0 -1.390625 -1.46875l0 -4.109375l-1.046875 0l0 -0.859375l1.046875 0l0 -1.71875l0.96875 0l0 1.71875l1.28125 0l0 0.859375l-1.28125 0l0 3.90625q0 0.34375 0.15625 0.578125q0.15625 0.21875 0.484375 0.21875q0.40625 0 0.65625 -0.25l0.296875 0.71875q-0.40625 0.40625 -1.171875 0.40625zm6.574707 -0.15625l0 -4.140625q0 -0.703125 -0.328125 -1.0625q-0.328125 -0.359375 -1.078125 -0.359375q-0.53125 0 -1.03125 0.28125q-0.5 0.265625 -0.828125 0.6875l0 4.59375l-0.984375 0l0 -8.671875l0.984375 0l0 3.296875q0.40625 -0.46875 1.0 -0.765625q0.609375 -0.296875 1.25 -0.296875q2.0 0 2.0 2.0l0 4.4375l-0.984375 0zm5.9508514 0.15625q-1.421875 0 -2.3125 -0.921875q-0.890625 -0.921875 -0.890625 -2.375q0 -1.390625 0.875 -2.34375q0.890625 -0.953125 2.21875 -0.953125q1.359375 0 2.1875 0.9375q0.828125 0.9375 0.828125 2.4375l0 0.234375l-5.078125 0q0.046875 0.96875 0.6875 1.578125q0.65625 0.59375 1.578125 0.59375q1.140625 0 1.9375 -0.78125l0.46875 0.625q-0.96875 0.96875 -2.5 0.96875zm1.953125 -3.6875q0 -0.875 -0.578125 -1.484375q-0.578125 -0.609375 -1.5 -0.609375q-0.859375 0 -1.453125 0.609375q-0.578125 0.609375 -0.59375 1.484375l4.125 0zm6.1454773 3.53125l0 -6.28125l0.984375 0l0 1.015625q0.875 -1.140625 2.09375 -1.140625l0 1.0l-0.390625 -0.046875q-0.4375 0 -0.984375 0.328125q-0.53125 0.3125 -0.71875 0.671875l0 4.453125l-0.984375 0zm4.8826447 -7.171875q-0.25 0 -0.453125 -0.1875q-0.1875 -0.1875 -0.1875 -0.46875q0 -0.265625 0.1875 -0.453125q0.203125 -0.203125 0.453125 -0.203125q0.28125 0 0.46875 0.203125q0.203125 0.1875 0.203125 0.453125q0 0.28125 -0.203125 0.46875q-0.1875 0.1875 -0.46875 0.1875zm-0.484375 7.171875l0 -6.28125l0.984375 0l0 6.28125l-0.984375 0zm5.53006 2.546875q-0.8125 0 -1.40625 -0.203125q-0.578125 -0.1875 -1.125 -0.734375l0.484375 -0.71875q0.390625 0.46875 0.875 0.65625q0.5 0.1875 1.171875 0.1875q0.953125 0 1.484375 -0.5q0.53125 -0.5 0.53125 -1.375l0 -0.90625q-0.34375 0.484375 -0.90625 0.8125q-0.546875 0.3125 -1.203125 0.3125q-1.28125 0 -2.046875 -0.890625q-0.75 -0.90625 -0.75 -2.359375q0 -1.515625 0.765625 -2.390625q0.78125 -0.875 2.03125 -0.875q1.296875 0 2.109375 1.109375l0 -0.953125l0.96875 0l0 6.09375q0 1.328125 -0.78125 2.03125q-0.78125 0.703125 -2.203125 0.703125zm0.140625 -3.328125q0.53125 0 1.046875 -0.28125q0.53125 -0.296875 0.828125 -0.75l0 -2.734375q-0.296875 -0.453125 -0.828125 -0.734375q-0.53125 -0.28125 -1.046875 -0.28125q-0.921875 0 -1.46875 0.671875q-0.546875 0.65625 -0.546875 1.71875q0 1.078125 0.5625 1.734375q0.5625 0.65625 1.453125 0.65625zm9.228432 0.78125l0 -4.140625q0 -0.703125 -0.328125 -1.0625q-0.32811737 -0.359375 -1.0781174 -0.359375q-0.53125 0 -1.03125 0.28125q-0.5 0.265625 -0.828125 0.6875l0 4.59375l-0.984375 0l0 -8.671875l0.984375 0l0 3.296875q0.40625 -0.46875 1.0 -0.765625q0.609375 -0.296875 1.25 -0.296875q1.9999924 0 1.9999924 2.0l0 4.4375l-0.984375 0zm4.7008514 0.15625q-1.390625 0 -1.390625 -1.46875l0 -4.109375l-1.046875 0l0 -0.859375l1.046875 0l0 -1.71875l0.96875 0l0 1.71875l1.28125 0l0 0.859375l-1.28125 0l0 3.90625q0 0.34375 0.15625 0.578125q0.15625 0.21875 0.484375 0.21875q0.40625 0 0.65625 -0.25l0.296875 0.71875q-0.40625 0.40625 -1.171875 0.40625zm8.857101 0q-1.328125 0 -2.109375 -1.109375l0 3.34375l-0.984375 0l0 -8.671875l0.984375 0l0 0.9375q0.328125 -0.484375 0.890625 -0.78125q0.5625 -0.3125 1.21875 -0.3125q1.265625 0 2.03125 0.890625q0.765625 0.875 0.765625 2.40625q0 1.5 -0.765625 2.40625q-0.75 0.890625 -2.03125 0.890625zm-0.234375 -0.875q0.90625 0 1.453125 -0.65625q0.5625 -0.671875 0.5625 -1.765625q0 -1.078125 -0.546875 -1.75q-0.546875 -0.671875 -1.46875 -0.671875q-0.59375 0 -1.109375 0.296875q-0.515625 0.28125 -0.765625 0.703125l0 2.828125q0.25 0.421875 0.765625 0.71875q0.515625 0.296875 1.109375 0.296875zm4.764282 0.71875l0 -8.671875l0.984375 0l0 8.671875l-0.984375 0zm6.93631 0l0 -0.71875q-0.796875 0.875 -2.078125 0.875q-0.953125 0 -1.578125 -0.59375q-0.625 -0.609375 -0.625 -1.484375q0 -0.90625 0.609375 -1.484375q0.625 -0.578125 1.59375 -0.578125q1.34375 0 2.078125 0.84375l0 -1.125q0 -0.640625 -0.453125 -0.984375q-0.453125 -0.34375 -1.140625 -0.34375q-1.109375 0 -1.921875 0.875l-0.453125 -0.671875q1.0 -1.046875 2.5 -1.046875q1.171875 0 1.796875 0.5625q0.640625 0.5625 0.640625 1.5625l0 4.3125l-0.96875 0zm-1.734375 -0.546875q1.15625 0 1.734375 -0.78125l0 -1.1875q-0.578125 -0.765625 -1.734375 -0.765625q-0.6875 0 -1.125 0.390625q-0.421875 0.375 -0.421875 0.984375q0 0.59375 0.421875 0.984375q0.4375 0.375 1.125 0.375zm7.6020203 0.703125q-1.390625 0 -2.265625 -0.9375q-0.875 -0.9375 -0.875 -2.359375q0 -1.421875 0.875 -2.359375q0.875 -0.9375 2.265625 -0.9375q1.453125 0 2.296875 1.09375l-0.65625 0.59375q-0.59375 -0.8125 -1.59375 -0.8125q-0.96875 0 -1.578125 0.671875q-0.59375 0.671875 -0.59375 1.75q0 1.09375 0.59375 1.765625q0.609375 0.65625 1.578125 0.65625q0.984375 0 1.59375 -0.8125l0.65625 0.59375q-0.84375 1.09375 -2.296875 1.09375zm6.659897 0q-1.421875 0 -2.3125 -0.921875q-0.890625 -0.921875 -0.890625 -2.375q0 -1.390625 0.875 -2.34375q0.890625 -0.953125 2.21875 -0.953125q1.359375 0 2.1875 0.9375q0.828125 0.9375 0.828125 2.4375l0 0.234375l-5.078125 0q0.046875 0.96875 0.6875 1.578125q0.65625 0.59375 1.578125 0.59375q1.140625 0 1.9375 -0.78125l0.46875 0.625q-0.96875 0.96875 -2.5 0.96875zm1.953125 -3.6875q0 -0.875 -0.578125 -1.484375q-0.578125 -0.609375 -1.5 -0.609375q-0.859375 0 -1.453125 0.609375q-0.578125 0.609375 -0.59375 1.484375l4.125 0z" fill-rule="nonzero"></path><path fill="#000000" fill-opacity="0.0" d="m305.38583 115.84777l36.031494 0l0 55.055122l-36.031494 0z" fill-rule="evenodd"></path><path fill="#000000" d="m314.9327 136.90839l0 -1.0l8.390625 -4.15625l0 1.1875l-7.171875 3.484375l7.171875 3.453125l0 1.1875l-8.390625 -4.15625z" fill-rule="nonzero"></path><path fill="#000000" fill-opacity="0.0" d="m305.38583 264.3176l170.51968 0l0 55.055115l-170.51968 0z" fill-rule="evenodd"></path><path fill="#000000" d="m314.9327 285.3782l0 -1.0l8.390625 -4.15625l0 1.1875l-7.171875 3.484375l7.171875 3.453125l0 1.1875l-8.390625 -4.15625zm81.509094 0l0 -1.0l8.390625 -4.15625l0 1.1875l-7.171875 3.484375l7.171875 3.453125l0 1.1875l-8.390625 -4.15625z" fill-rule="nonzero"></path><path fill="#000000" fill-opacity="0.0" d="m309.09973 444.71127l253.63782 0l0 55.055145l-253.63782 0z" fill-rule="evenodd"></path><path fill="#000000" d="m318.6466 465.7719l0 -1.0l8.390625 -4.15625l0 1.1875l-7.171875 3.484375l7.171875 3.453125l0 1.1875l-8.390625 -4.15625zm81.509094 0l0 -1.0l8.390625 -4.15625l0 1.1875l-7.171875 3.484375l7.171875 3.453125l0 1.1875l-8.390625 -4.15625zm76.6958 0l0 -1.0l8.390625 -4.15625l0 1.1875l-7.171875 3.484375l7.171875 3.453125l0 1.1875l-8.390625 -4.15625z" fill-rule="nonzero"></path></g></svg>

