<?xml version="1.0" standalone="yes"?>

<svg version="1.1" viewBox="0.0 0.0 960.0 540.0" fill="none" stroke="none" stroke-linecap="square" stroke-miterlimit="10" xmlns="http://www.w3.org/2000/svg" xmlns:xlink="http://www.w3.org/1999/xlink"><clipPath id="g2a56d30cab_0_112.0"><path d="m0 0l960.0 0l0 540.0l-960.0 0l0 -540.0z" clip-rule="nonzero"></path></clipPath><g clip-path="url(#g2a56d30cab_0_112.0)"><path fill="#ffffff" d="m0 0l960.0 0l0 540.0l-960.0 0z" fill-rule="evenodd"></path><path fill="#3c78d8" d="m233.03937 40.992126l482.07874 0l0 80.59843l-482.07874 0z" fill-rule="evenodd"></path><path stroke="#434343" stroke-width="2.0" stroke-linejoin="round" stroke-linecap="butt" d="m233.03937 40.992126l482.07874 0l0 80.59843l-482.07874 0z" fill-rule="evenodd"></path><path fill="#ffffff" d="m233.03937 40.992126l185.19684 0l0 80.59843l-185.19684 0z" fill-rule="evenodd"></path><path stroke="#434343" stroke-width="2.0" stroke-linejoin="round" stroke-linecap="butt" d="m233.03937 40.992126l185.19684 0l0 80.59843l-185.19684 0z" fill-rule="evenodd"></path><path fill="#000000" d="m291.42102 82.44071l0 -1.265625l10.578125 -5.265625l0 1.515625l-9.046875 4.390625l9.046875 4.375l0 1.484375l-10.578125 -5.234375zm24.980438 7.671875q-2.46875 0 -3.921875 -2.03125l0 6.171875l-1.796875 0l0 -16.015625l1.796875 0l0 1.734375q0.625 -0.890625 1.65625 -1.453125q1.03125 -0.5625 2.265625 -0.5625q2.328125 0 3.734375 1.640625q1.421875 1.625 1.421875 4.421875q0 2.78125 -1.40625 4.4375q-1.40625 1.65625 -3.75 1.65625zm-0.453125 -1.59375q1.671875 0 2.6875 -1.21875q1.03125 -1.234375 1.03125 -3.28125q0 -1.984375 -1.015625 -3.21875q-1.0 -1.234375 -2.703125 -1.234375q-1.09375 0 -2.046875 0.546875q-0.9375 0.53125 -1.421875 1.296875l0 5.234375q0.484375 0.765625 1.421875 1.328125q0.953125 0.546875 2.046875 0.546875zm9.352966 -11.9375q-0.484375 0 -0.84375 -0.34375q-0.359375 -0.34375 -0.359375 -0.859375q0 -0.5 0.359375 -0.859375q0.359375 -0.359375 0.84375 -0.359375q0.5 0 0.859375 0.359375q0.359375 0.359375 0.359375 0.859375q0 0.515625 -0.359375 0.859375q-0.359375 0.34375 -0.859375 0.34375zm-0.890625 13.25l0 -11.59375l1.796875 0l0 11.59375l-1.796875 0zm8.493744 0l-4.8125 -11.59375l1.9375 0l3.859375 9.5l3.84375 -9.5l1.96875 0l-4.828125 11.59375l-1.96875 0zm13.728699 0.28125q-2.515625 0 -4.125 -1.703125q-1.609375 -1.71875 -1.609375 -4.390625q0 -2.6875 1.609375 -4.375q1.609375 -1.6875 4.125 -1.6875q2.53125 0 4.125 1.6875q1.609375 1.6875 1.609375 4.375q0 2.671875 -1.609375 4.390625q-1.59375 1.703125 -4.125 1.703125zm0 -1.59375q1.6875 0 2.765625 -1.265625q1.078125 -1.265625 1.078125 -3.234375q0 -1.9375 -1.078125 -3.1875q-1.078125 -1.265625 -2.765625 -1.265625q-1.671875 0 -2.765625 1.25q-1.09375 1.234375 -1.09375 3.203125q0 2.0 1.078125 3.25q1.078125 1.25 2.78125 1.25zm11.602966 1.59375q-2.578125 0 -2.578125 -2.703125l0 -7.59375l-1.921875 0l0 -1.578125l1.921875 0l0 -3.171875l1.796875 0l0 3.171875l2.359375 0l0 1.578125l-2.359375 0l0 7.203125q0 0.65625 0.28125 1.078125q0.296875 0.421875 0.90625 0.421875q0.734375 0 1.21875 -0.484375l0.53125 1.34375q-0.75 0.734375 -2.15625 0.734375z" fill-rule="nonzero"></path><path fill="#ffffff" d="m511.56503 40.992126l203.52756 0l0 80.59843l-203.52756 0z" fill-rule="evenodd"></path><path stroke="#434343" stroke-width="2.0" stroke-linejoin="round" stroke-linecap="butt" d="m511.56503 40.992126l203.52756 0l0 80.59843l-203.52756 0z" fill-rule="evenodd"></path><path fill="#000000" d="m579.11206 87.67509l0 -1.484375l9.015625 -4.375l-9.015625 -4.390625l0 -1.515625l10.578125 5.265625l0 1.265625l-10.578125 5.234375zm24.980408 2.4375q-2.46875 0 -3.921875 -2.03125l0 6.171875l-1.796875 0l0 -16.015625l1.796875 0l0 1.734375q0.625 -0.890625 1.65625 -1.453125q1.03125 -0.5625 2.265625 -0.5625q2.328125 0 3.734375 1.640625q1.421875 1.625 1.421875 4.421875q0 2.78125 -1.40625 4.4375q-1.40625 1.65625 -3.75 1.65625zm-0.453125 -1.59375q1.671875 0 2.6875 -1.21875q1.03125 -1.234375 1.03125 -3.28125q0 -1.984375 -1.015625 -3.21875q-1.0 -1.234375 -2.703125 -1.234375q-1.09375 0 -2.046875 0.546875q-0.9375 0.53125 -1.421875 1.296875l0 5.234375q0.484375 0.765625 1.421875 1.328125q0.953125 0.546875 2.046875 0.546875zm9.352966 -11.9375q-0.484375 0 -0.84375 -0.34375q-0.359375 -0.34375 -0.359375 -0.859375q0 -0.5 0.359375 -0.859375q0.359375 -0.359375 0.84375 -0.359375q0.5 0 0.859375 0.359375q0.359375 0.359375 0.359375 0.859375q0 0.515625 -0.359375 0.859375q-0.359375 0.34375 -0.859375 0.34375zm-0.890625 13.25l0 -11.59375l1.796875 0l0 11.59375l-1.796875 0zm8.493774 0l-4.8125 -11.59375l1.9375 0l3.859375 9.5l3.84375 -9.5l1.96875 0l-4.828125 11.59375l-1.96875 0zm13.728699 0.28125q-2.515625 0 -4.125 -1.703125q-1.609375 -1.71875 -1.609375 -4.390625q0 -2.6875 1.609375 -4.375q1.609375 -1.6875 4.125 -1.6875q2.53125 0 4.125 1.6875q1.609375 1.6875 1.609375 4.375q0 2.671875 -1.609375 4.390625q-1.59375 1.703125 -4.125 1.703125zm0 -1.59375q1.6875 0 2.765625 -1.265625q1.078125 -1.265625 1.078125 -3.234375q0 -1.9375 -1.078125 -3.1875q-1.078125 -1.265625 -2.765625 -1.265625q-1.671875 0 -2.765625 1.25q-1.09375 1.234375 -1.09375 3.203125q0 2.0 1.078125 3.25q1.078125 1.25 2.78125 1.25zm11.602966 1.59375q-2.578125 0 -2.578125 -2.703125l0 -7.59375l-1.921875 0l0 -1.578125l1.921875 0l0 -3.171875l1.796875 0l0 3.171875l2.359375 0l0 1.578125l-2.359375 0l0 7.203125q0 0.65625 0.28125 1.078125q0.296875 0.421875 0.90625 0.421875q0.734375 0 1.21875 -0.484375l0.53125 1.34375q-0.75 0.734375 -2.15625 0.734375z" fill-rule="nonzero"></path><path fill="#000000" fill-opacity="0.0" d="m440.04462 127.72551l500.0 0l0 31.275589l-500.0 0z" fill-rule="evenodd"></path><path fill="#000000" d="m454.99774 154.87988q-1.96875 0 -3.109375 -1.625l0 4.890625l-1.421875 0l0 -12.671875l1.421875 0l0 1.359375q0.5 -0.703125 1.3125 -1.140625q0.828125 -0.453125 1.796875 -0.453125q1.84375 0 2.953125 1.296875q1.125 1.28125 1.125 3.515625q0 2.203125 -1.109375 3.515625q-1.109375 1.3125 -2.96875 1.3125zm-0.359375 -1.28125q1.328125 0 2.125 -0.96875q0.8125 -0.96875 0.8125 -2.578125q0 -1.578125 -0.796875 -2.546875q-0.796875 -0.984375 -2.140625 -0.984375q-0.859375 0 -1.609375 0.421875q-0.75 0.421875 -1.140625 1.03125l0 4.140625q0.390625 0.609375 1.140625 1.046875q0.75 0.4375 1.609375 0.4375zm7.2026367 -9.4375q-0.375 0 -0.671875 -0.265625q-0.28125 -0.28125 -0.28125 -0.6875q0 -0.40625 0.28125 -0.6875q0.296875 -0.28125 0.671875 -0.28125q0.40625 0 0.6875 0.28125q0.28125 0.28125 0.28125 0.6875q0 0.40625 -0.28125 0.6875q-0.28125 0.265625 -0.6875 0.265625zm-0.703125 10.484375l0 -9.171875l1.421875 0l0 9.171875l-1.421875 0zm6.6507874 0l-3.8125 -9.171875l1.53125 0l3.0625 7.515625l3.03125 -7.515625l1.5625 0l-3.8125 9.171875l-1.5625 0zm10.704071 0.234375q-2.0 0 -3.28125 -1.359375q-1.265625 -1.359375 -1.265625 -3.46875q0 -2.125 1.265625 -3.46875q1.28125 -1.34375 3.28125 -1.34375q1.984375 0 3.25 1.34375q1.28125 1.34375 1.28125 3.46875q0 2.109375 -1.28125 3.46875q-1.265625 1.359375 -3.25 1.359375zm0 -1.28125q1.328125 0 2.171875 -1.0q0.859375 -1.0 0.859375 -2.546875q0 -1.546875 -0.859375 -2.53125q-0.84375 -1.0 -2.171875 -1.0q-1.328125 0 -2.203125 0.984375q-0.859375 0.984375 -0.859375 2.546875q0 1.578125 0.84375 2.5625q0.859375 0.984375 2.21875 0.984375zm8.983856 1.28125q-2.046875 0 -2.046875 -2.15625l0 -6.0l-1.515625 0l0 -1.25l1.515625 0l0 -2.515625l1.4375 0l0 2.515625l1.859375 0l0 1.25l-1.859375 0l0 5.703125q0 0.515625 0.21875 0.84375q0.234375 0.328125 0.703125 0.328125q0.59375 0 0.96875 -0.375l0.421875 1.0625q-0.59375 0.59375 -1.703125 0.59375z" fill-rule="nonzero"></path><path fill="#3c78d8" d="m232.69292 220.82152l482.07874 0l0 80.598434l-482.07874 0z" fill-rule="evenodd"></path><path stroke="#434343" stroke-width="2.0" stroke-linejoin="round" stroke-linecap="butt" d="m232.69292 220.82152l482.07874 0l0 80.598434l-482.07874 0z" fill-rule="evenodd"></path><path fill="#ffffff" d="m232.69292 220.82152l95.937 0l0 80.598434l-95.937 0z" fill-rule="evenodd"></path><path stroke="#434343" stroke-width="2.0" stroke-linejoin="round" stroke-linecap="butt" d="m232.69292 220.82152l95.937 0l0 80.598434l-95.937 0z" fill-rule="evenodd"></path><path fill="#000000" d="m280.8002 269.942q-3.6875 0 -5.640625 -2.5625l1.234375 -1.3125q1.65625 2.109375 4.40625 2.109375q1.609375 0 2.65625 -0.96875q1.046875 -0.984375 1.046875 -2.46875q0 -1.515625 -1.0 -2.484375q-1.0 -0.96875 -2.671875 -0.96875q-2.140625 0 -3.703125 1.515625l-1.453125 -0.515625l0 -8.640625l9.78125 0l0 1.78125l-7.796875 0l0 5.578125q0.578125 -0.578125 1.546875 -1.015625q0.96875 -0.4375 2.203125 -0.4375q2.1875 0 3.625 1.421875q1.453125 1.421875 1.453125 3.703125q0 2.375 -1.578125 3.828125q-1.5625 1.4375 -4.109375 1.4375z" fill-rule="nonzero"></path><path fill="#ffffff" d="m328.6299 220.82152l95.93701 0l0 80.598434l-95.93701 0z" fill-rule="evenodd"></path><path stroke="#434343" stroke-width="2.0" stroke-linejoin="round" stroke-linecap="butt" d="m328.6299 220.82152l95.93701 0l0 80.598434l-95.93701 0z" fill-rule="evenodd"></path><path fill="#000000" d="m375.95956 269.92636q-2.734375 0 -4.4375 -1.921875l1.015625 -1.484375q0.609375 0.71875 1.390625 1.171875q0.78125 0.453125 2.03125 0.453125q2.09375 0 3.296875 -1.71875q1.21875 -1.734375 1.21875 -4.546875l0 -0.328125l-0.03125 -0.3125q-0.6875 1.078125 -1.96875 1.796875q-1.28125 0.703125 -2.53125 0.703125q-2.375 0 -3.828125 -1.390625q-1.4375 -1.40625 -1.4375 -3.734375q0 -2.21875 1.5625 -3.71875q1.5625 -1.5 4.03125 -1.5q2.90625 0 4.546875 2.1875q1.640625 2.171875 1.640625 6.09375q0 3.765625 -1.765625 6.015625q-1.75 2.234375 -4.734375 2.234375zm0.4375 -7.921875q1.203125 0 2.28125 -0.640625q1.078125 -0.65625 1.703125 -1.734375q-0.21875 -2.140625 -1.296875 -3.296875q-1.078125 -1.171875 -2.71875 -1.171875q-1.609375 0 -2.640625 1.0q-1.03125 1.0 -1.03125 2.390625q0 1.609375 1.0 2.53125q1.0 0.921875 2.703125 0.921875z" fill-rule="nonzero"></path><path fill="#ffffff" d="m423.87402 220.82152l95.93701 0l0 80.598434l-95.93701 0z" fill-rule="evenodd"></path><path stroke="#434343" stroke-width="2.0" stroke-linejoin="round" stroke-linecap="butt" d="m423.87402 220.82152l95.93701 0l0 80.598434l-95.93701 0z" fill-rule="evenodd"></path><path fill="#000000" d="m466.0834 269.66074l0 -1.578125q4.21875 -3.34375 5.796875 -4.859375q1.59375 -1.53125 2.328125 -2.734375q0.75 -1.21875 0.75 -2.375q0 -1.3125 -0.90625 -2.109375q-0.90625 -0.8125 -2.421875 -0.8125q-2.8125 0 -4.34375 2.015625l-1.234375 -1.28125q0.921875 -1.21875 2.390625 -1.859375q1.484375 -0.65625 3.1875 -0.65625q2.328125 0 3.84375 1.28125q1.53125 1.28125 1.53125 3.421875q0 1.953125 -1.65625 4.109375q-1.640625 2.140625 -6.125 5.65625l7.84375 0l0 1.78125l-10.984375 0z" fill-rule="nonzero"></path><path fill="#ffffff" d="m519.81104 220.82152l99.71655 0l0 80.598434l-99.71655 0z" fill-rule="evenodd"></path><path stroke="#434343" stroke-width="2.0" stroke-linejoin="round" stroke-linecap="butt" d="m519.81104 220.82152l99.71655 0l0 80.598434l-99.71655 0z" fill-rule="evenodd"></path><path fill="#000000" d="m562.52295 269.66074l0 -13.375l-2.5625 2.71875l-1.203125 -1.21875l4.015625 -4.140625l1.75 0l0 16.015625l-2.0 0zm11.214111 0.28125q-2.78125 0 -4.453125 -2.28125q-1.671875 -2.296875 -1.671875 -5.984375q0 -3.734375 1.6875 -6.0q1.703125 -2.265625 4.4375 -2.265625q1.875 0 3.25 1.078125q1.375 1.0625 2.125 2.96875q0.75 1.890625 0.75 4.21875q0 2.296875 -0.75 4.21875q-0.75 1.921875 -2.125 2.984375q-1.359375 1.0625 -3.25 1.0625zm0 -1.765625q1.921875 0 3.0 -1.71875q1.078125 -1.734375 1.078125 -4.78125q0 -3.078125 -1.078125 -4.78125q-1.078125 -1.703125 -3.0 -1.703125q-1.921875 0 -3.0 1.703125q-1.078125 1.703125 -1.078125 4.78125q0 3.046875 1.0625 4.78125q1.078125 1.71875 3.015625 1.71875z" fill-rule="nonzero"></path><path fill="#ffffff" d="m619.5276 220.82152l95.93695 0l0 80.598434l-95.93695 0z" fill-rule="evenodd"></path><path stroke="#0000ff" stroke-width="4.0" stroke-linejoin="round" stroke-linecap="butt" d="m619.5276 220.82152l95.93695 0l0 80.598434l-95.93695 0z" fill-rule="evenodd"></path><path fill="#000000" d="m667.7947 269.942q-2.90625 0 -4.546875 -2.171875q-1.625 -2.1875 -1.625 -6.078125q0 -3.796875 1.765625 -6.03125q1.765625 -2.25 4.75 -2.25q2.734375 0 4.4375 1.921875l-1.015625 1.484375q-0.625 -0.71875 -1.390625 -1.171875q-0.765625 -0.453125 -2.03125 -0.453125q-2.015625 0 -3.265625 1.75q-1.25 1.75 -1.25 4.53125l0 0.3125l0.015625 0.3125q0.71875 -1.09375 2.015625 -1.796875q1.296875 -0.703125 2.53125 -0.703125q2.328125 0 3.78125 1.375q1.453125 1.375 1.453125 3.75q0 2.25 -1.5625 3.734375q-1.5625 1.484375 -4.0625 1.484375zm-0.078125 -1.765625q1.640625 0 2.65625 -1.0q1.015625 -1.015625 1.015625 -2.390625q0 -1.625 -1.0 -2.53125q-0.984375 -0.921875 -2.6875 -0.921875q-1.203125 0 -2.28125 0.65625q-1.0625 0.65625 -1.734375 1.75q0.203125 2.03125 1.25 3.234375q1.0625 1.203125 2.78125 1.203125z" fill-rule="nonzero"></path><path fill="#000000" fill-opacity="0.0" d="m230.0 174.27406l500.0 0l0 31.275589l-500.0 0z" fill-rule="evenodd"></path><path fill="#000000" d="m240.48438 201.19406l0 -12.671875l8.296875 0l0 1.40625l-6.71875 0l0 4.078125l6.59375 0l0 1.40625l-6.59375 0l0 4.375l6.71875 0l0 1.40625l-8.296875 0zm16.506042 0l-2.7656403 -3.765625l-2.75 3.765625l-1.625 0l3.515625 -4.71875l-3.328125 -4.453125l1.65625 0l2.53125 3.484375l2.5468903 -3.484375l1.65625 0l-3.3281403 4.453125l3.5468903 4.71875l-1.65625 0zm8.848175 0l0 -1.046875q-1.15625 1.28125 -3.03125 1.28125q-1.390625 0 -2.3125 -0.875q-0.90625 -0.875 -0.90625 -2.171875q0 -1.328125 0.90625 -2.171875q0.90625 -0.84375 2.3125 -0.84375q1.96875 0 3.03125 1.25l0 -1.65625q0 -0.921875 -0.65625 -1.421875q-0.640625 -0.515625 -1.65625 -0.515625q-1.609375 0 -2.8125 1.28125l-0.65625 -1.0q1.453125 -1.515625 3.65625 -1.515625q1.6875 0 2.625 0.828125q0.9375 0.8125 0.9375 2.265625l0 6.3125l-1.4375 0zm-2.515625 -0.796875q1.6875 0 2.515625 -1.140625l0 -1.734375q-0.828125 -1.140625 -2.515625 -1.140625q-1.015625 0 -1.640625 0.5625q-0.625 0.5625 -0.625 1.453125q0 0.875 0.625 1.4375q0.625 0.5625 1.640625 0.5625zm17.691223 0.796875l0 -6.234375q0 -1.890625 -1.6875 -1.890625q-0.71875 0 -1.40625 0.421875q-0.671875 0.421875 -1.03125 0.984375l0 6.71875l-1.421875 0l0 -6.234375q0 -1.890625 -1.6875 -1.890625q-0.703125 0 -1.375 0.4375q-0.65625 0.421875 -1.046875 0.984375l0 6.703125l-1.421875 0l0 -9.171875l1.421875 0l0 1.328125q0.328125 -0.546875 1.21875 -1.046875q0.890625 -0.515625 1.75 -0.515625q1.0625 0 1.65625 0.5q0.609375 0.484375 0.8125 1.21875q0.484375 -0.75 1.34375 -1.234375q0.875 -0.484375 1.734375 -0.484375q2.5625 0 2.5625 2.78125l0 6.625l-1.421875 0zm8.527374 0.234375q-1.96875 0 -3.109375 -1.625l0 4.890625l-1.421875 0l0 -12.671875l1.421875 0l0 1.359375q0.5 -0.703125 1.3125 -1.140625q0.828125 -0.453125 1.796875 -0.453125q1.84375 0 2.953125 1.296875q1.125 1.28125 1.125 3.515625q0 2.203125 -1.109375 3.515625q-1.109375 1.3125 -2.96875 1.3125zm-0.359375 -1.28125q1.328125 0 2.125 -0.96875q0.8125 -0.96875 0.8125 -2.578125q0 -1.578125 -0.796875 -2.546875q-0.796875 -0.984375 -2.140625 -0.984375q-0.859375 0 -1.609375 0.421875q-0.75 0.421875 -1.140625 1.03125l0 4.140625q0.390625 0.609375 1.140625 1.046875q0.75 0.4375 1.609375 0.4375zm6.4995117 1.046875l0 -12.671875l1.421875 0l0 12.671875l-1.421875 0zm8.338257 0.234375q-2.0625 0 -3.375 -1.34375q-1.296875 -1.359375 -1.296875 -3.484375q0 -2.03125 1.296875 -3.421875q1.296875 -1.390625 3.234375 -1.390625q1.96875 0 3.1875 1.375q1.21875 1.359375 1.21875 3.546875l0 0.359375l-7.4375 0q0.078125 1.40625 1.015625 2.296875q0.9375 0.875 2.296875 0.875q1.671875 0 2.828125 -1.15625l0.6875 0.9375q-1.40625 1.40625 -3.65625 1.40625zm2.859375 -5.40625q0 -1.265625 -0.84375 -2.15625q-0.828125 -0.90625 -2.1875 -0.90625q-1.265625 0 -2.109375 0.90625q-0.84375 0.890625 -0.890625 2.15625l6.03125 0z" fill-rule="nonzero"></path><path fill="#000000" fill-opacity="0.0" d="m652.063 263.15485l62.70868 0l0 65.10239l-62.70868 0z" fill-rule="evenodd"></path><path fill="#000000" d="m667.0161 290.30923q-1.96875 0 -3.109375 -1.625l0 4.890625l-1.421875 0l0 -12.671875l1.421875 0l0 1.359375q0.5 -0.703125 1.3125 -1.140625q0.828125 -0.453125 1.796875 -0.453125q1.84375 0 2.953125 1.296875q1.125 1.28125 1.125 3.515625q0 2.203125 -1.109375 3.515625q-1.109375 1.3125 -2.96875 1.3125zm-0.359375 -1.28125q1.328125 0 2.125 -0.96875q0.8125 -0.96875 0.8125 -2.578125q0 -1.578125 -0.796875 -2.546875q-0.796875 -0.984375 -2.140625 -0.984375q-0.859375 0 -1.609375 0.421875q-0.75 0.421875 -1.140625 1.03125l0 4.140625q0.390625 0.609375 1.140625 1.046875q0.75 0.4375 1.609375 0.4375zm7.2026367 -9.4375q-0.375 0 -0.671875 -0.265625q-0.28125 -0.28125 -0.28125 -0.6875q0 -0.40625 0.28125 -0.6875q0.296875 -0.28125 0.671875 -0.28125q0.40625 0 0.6875 0.28125q0.28125 0.28125 0.28125 0.6875q0 0.40625 -0.28125 0.6875q-0.28125 0.265625 -0.6875 0.265625zm-0.703125 10.484375l0 -9.171875l1.421875 0l0 9.171875l-1.421875 0zm6.650757 0l-3.8125 -9.171875l1.53125 0l3.0625 7.515625l3.03125 -7.515625l1.5625 0l-3.8125 9.171875l-1.5625 0zm10.704102 0.234375q-2.0 0 -3.28125 -1.359375q-1.265625 -1.359375 -1.265625 -3.46875q0 -2.125 1.265625 -3.46875q1.28125 -1.34375 3.28125 -1.34375q1.984375 0 3.25 1.34375q1.28125 1.34375 1.28125 3.46875q0 2.109375 -1.28125 3.46875q-1.265625 1.359375 -3.25 1.359375zm0 -1.28125q1.328125 0 2.171875 -1.0q0.859375 -1.0 0.859375 -2.546875q0 -1.546875 -0.859375 -2.53125q-0.84375 -1.0 -2.171875 -1.0q-1.328125 0 -2.203125 0.984375q-0.859375 0.984375 -0.859375 2.546875q0 1.578125 0.84375 2.5625q0.859375 0.984375 2.21875 0.984375zm8.983887 1.28125q-2.046875 0 -2.046875 -2.15625l0 -6.0l-1.515625 0l0 -1.25l1.515625 0l0 -2.515625l1.4375 0l0 2.515625l1.859375 0l0 1.25l-1.859375 0l0 5.703125q0 0.515625 0.21875 0.84375q0.234375 0.328125 0.703125 0.328125q0.59375 0 0.96875 -0.375l0.421875 1.0625q-0.59375 0.59375 -1.703125 0.59375z" fill-rule="nonzero"></path><path fill="#3c78d8" d="m232.69292 333.53806l482.07874 0l0 80.59842l-482.07874 0z" fill-rule="evenodd"></path><path stroke="#434343" stroke-width="2.0" stroke-linejoin="round" stroke-linecap="butt" d="m232.69292 333.53806l482.07874 0l0 80.59842l-482.07874 0z" fill-rule="evenodd"></path><path fill="#ffffff" d="m232.69292 333.53806l95.937 0l0 80.59842l-95.937 0z" fill-rule="evenodd"></path><path stroke="#434343" stroke-width="2.0" stroke-linejoin="round" stroke-linecap="butt" d="m232.69292 333.53806l95.937 0l0 80.59842l-95.937 0z" fill-rule="evenodd"></path><path fill="#000000" d="m280.8002 382.6585q-3.6875 0 -5.640625 -2.5625l1.234375 -1.3125q1.65625 2.109375 4.40625 2.109375q1.609375 0 2.65625 -0.96875q1.046875 -0.984375 1.046875 -2.46875q0 -1.515625 -1.0 -2.484375q-1.0 -0.96875 -2.671875 -0.96875q-2.140625 0 -3.703125 1.515625l-1.453125 -0.515625l0 -8.640625l9.78125 0l0 1.78125l-7.796875 0l0 5.578125q0.578125 -0.578125 1.546875 -1.015625q0.96875 -0.4375 2.203125 -0.4375q2.1875 0 3.625 1.421875q1.453125 1.421875 1.453125 3.703125q0 2.375 -1.578125 3.828125q-1.5625 1.4375 -4.109375 1.4375z" fill-rule="nonzero"></path><path fill="#ffffff" d="m328.6299 333.53806l95.93701 0l0 80.59842l-95.93701 0z" fill-rule="evenodd"></path><path stroke="#434343" stroke-width="2.0" stroke-linejoin="round" stroke-linecap="butt" d="m328.6299 333.53806l95.93701 0l0 80.59842l-95.93701 0z" fill-rule="evenodd"></path><path fill="#000000" d="m370.83932 382.37726l0 -1.578125q4.21875 -3.34375 5.796875 -4.859375q1.59375 -1.53125 2.328125 -2.734375q0.75 -1.21875 0.75 -2.375q0 -1.3125 -0.90625 -2.109375q-0.90625 -0.8125 -2.421875 -0.8125q-2.8125 0 -4.34375 2.015625l-1.234375 -1.28125q0.921875 -1.21875 2.390625 -1.859375q1.484375 -0.65625 3.1875 -0.65625q2.328125 0 3.84375 1.28125q1.53125 1.28125 1.53125 3.421875q0 1.953125 -1.65625 4.109375q-1.640625 2.140625 -6.125 5.65625l7.84375 0l0 1.78125l-10.984375 0z" fill-rule="nonzero"></path><path fill="#ffffff" d="m519.81104 333.53806l99.71655 0l0 80.59842l-99.71655 0z" fill-rule="evenodd"></path><path stroke="#434343" stroke-width="2.0" stroke-linejoin="round" stroke-linecap="butt" d="m519.81104 333.53806l99.71655 0l0 80.59842l-99.71655 0z" fill-rule="evenodd"></path><path fill="#000000" d="m562.52295 382.37726l0 -13.375l-2.5625 2.71875l-1.203125 -1.21875l4.015625 -4.140625l1.75 0l0 16.015625l-2.0 0zm11.214111 0.28125q-2.78125 0 -4.453125 -2.28125q-1.671875 -2.296875 -1.671875 -5.984375q0 -3.734375 1.6875 -6.0q1.703125 -2.265625 4.4375 -2.265625q1.875 0 3.25 1.078125q1.375 1.0625 2.125 2.96875q0.75 1.890625 0.75 4.21875q0 2.296875 -0.75 4.21875q-0.75 1.921875 -2.125 2.984375q-1.359375 1.0625 -3.25 1.0625zm0 -1.765625q1.921875 0 3.0 -1.71875q1.078125 -1.734375 1.078125 -4.78125q0 -3.078125 -1.078125 -4.78125q-1.078125 -1.703125 -3.0 -1.703125q-1.921875 0 -3.0 1.703125q-1.078125 1.703125 -1.078125 4.78125q0 3.046875 1.0625 4.78125q1.078125 1.71875 3.015625 1.71875z" fill-rule="nonzero"></path><path fill="#ffffff" d="m423.87402 333.53806l95.93701 0l0 80.59842l-95.93701 0z" fill-rule="evenodd"></path><path stroke="#0000ff" stroke-width="4.0" stroke-linejoin="round" stroke-linecap="butt" d="m423.87402 333.53806l95.93701 0l0 80.59842l-95.93701 0z" fill-rule="evenodd"></path><path fill="#000000" d="m472.14117 382.6585q-2.90625 0 -4.546875 -2.171875q-1.625 -2.1875 -1.625 -6.078125q0 -3.796875 1.765625 -6.03125q1.765625 -2.25 4.75 -2.25q2.734375 0 4.4375 1.921875l-1.015625 1.484375q-0.625 -0.71875 -1.390625 -1.171875q-0.765625 -0.453125 -2.03125 -0.453125q-2.015625 0 -3.265625 1.75q-1.25 1.75 -1.25 4.53125l0 0.3125l0.015625 0.3125q0.71875 -1.09375 2.015625 -1.796875q1.296875 -0.703125 2.53125 -0.703125q2.328125 0 3.78125 1.375q1.453125 1.375 1.453125 3.75q0 2.25 -1.5625 3.734375q-1.5625 1.484375 -4.0625 1.484375zm-0.078125 -1.765625q1.640625 0 2.65625 -1.0q1.015625 -1.015625 1.015625 -2.390625q0 -1.625 -1.0 -2.53125q-0.984375 -0.921875 -2.6875 -0.921875q-1.203125 0 -2.28125 0.65625q-1.0625 0.65625 -1.734375 1.75q0.203125 2.03125 1.25 3.234375q1.0625 1.203125 2.78125 1.203125z" fill-rule="nonzero"></path><path fill="#ffffff" d="m619.5276 333.53806l95.93695 0l0 80.59842l-95.93695 0z" fill-rule="evenodd"></path><path stroke="#000000" stroke-width="2.0" stroke-linejoin="round" stroke-linecap="butt" d="m619.5276 333.53806l95.93695 0l0 80.59842l-95.93695 0z" fill-rule="evenodd"></path><path fill="#000000" d="m666.8572 382.64288q-2.734375 0 -4.4375 -1.921875l1.015625 -1.484375q0.609375 0.71875 1.390625 1.171875q0.78125 0.453125 2.03125 0.453125q2.09375 0 3.296875 -1.71875q1.21875 -1.734375 1.21875 -4.546875l0 -0.328125l-0.03125 -0.3125q-0.6875 1.078125 -1.96875 1.796875q-1.28125 0.703125 -2.53125 0.703125q-2.375 0 -3.828125 -1.390625q-1.4375 -1.40625 -1.4375 -3.734375q0 -2.21875 1.5625 -3.71875q1.5625 -1.5 4.03125 -1.5q2.90625 0 4.546875 2.1875q1.640625 2.171875 1.640625 6.09375q0 3.765625 -1.765625 6.015625q-1.75 2.234375 -4.734375 2.234375zm0.4375 -7.921875q1.203125 0 2.28125 -0.640625q1.078125 -0.65625 1.703125 -1.734375q-0.21875 -2.140625 -1.296875 -3.296875q-1.078125 -1.171875 -2.71875 -1.171875q-1.609375 0 -2.640625 1.0q-1.03125 1.0 -1.03125 2.390625q0 1.609375 1.0 2.53125q1.0 0.921875 2.703125 0.921875z" fill-rule="nonzero"></path><path fill="#000000" fill-opacity="0.0" d="m457.10236 378.06824l62.70868 0l0 65.102356l-62.70868 0z" fill-rule="evenodd"></path><path fill="#000000" d="m472.05548 405.22263q-1.96875 0 -3.109375 -1.625l0 4.890625l-1.421875 0l0 -12.671875l1.421875 0l0 1.359375q0.5 -0.703125 1.3125 -1.140625q0.828125 -0.453125 1.796875 -0.453125q1.84375 0 2.953125 1.296875q1.125 1.28125 1.125 3.515625q0 2.203125 -1.109375 3.515625q-1.109375 1.3125 -2.96875 1.3125zm-0.359375 -1.28125q1.328125 0 2.125 -0.96875q0.8125 -0.96875 0.8125 -2.578125q0 -1.578125 -0.796875 -2.546875q-0.796875 -0.984375 -2.140625 -0.984375q-0.859375 0 -1.609375 0.421875q-0.75 0.421875 -1.140625 1.03125l0 4.140625q0.390625 0.609375 1.140625 1.046875q0.75 0.4375 1.609375 0.4375zm7.2026367 -9.4375q-0.375 0 -0.671875 -0.265625q-0.28125 -0.28125 -0.28125 -0.6875q0 -0.40625 0.28125 -0.6875q0.296875 -0.28125 0.671875 -0.28125q0.40625 0 0.6875 0.28125q0.28125 0.28125 0.28125 0.6875q0 0.40625 -0.28125 0.6875q-0.28125 0.265625 -0.6875 0.265625zm-0.703125 10.484375l0 -9.171875l1.421875 0l0 9.171875l-1.421875 0zm6.6507874 0l-3.8125 -9.171875l1.53125 0l3.0625 7.515625l3.03125 -7.515625l1.5625 0l-3.8125 9.171875l-1.5625 0zm10.704071 0.234375q-2.0 0 -3.28125 -1.359375q-1.265625 -1.359375 -1.265625 -3.46875q0 -2.125 1.265625 -3.46875q1.28125 -1.34375 3.28125 -1.34375q1.984375 0 3.25 1.34375q1.28125 1.34375 1.28125 3.46875q0 2.109375 -1.28125 3.46875q-1.265625 1.359375 -3.25 1.359375zm0 -1.28125q1.328125 0 2.171875 -1.0q0.859375 -1.0 0.859375 -2.546875q0 -1.546875 -0.859375 -2.53125q-0.84375 -1.0 -2.171875 -1.0q-1.328125 0 -2.203125 0.984375q-0.859375 0.984375 -0.859375 2.546875q0 1.578125 0.84375 2.5625q0.859375 0.984375 2.21875 0.984375zm8.983856 1.28125q-2.046875 0 -2.046875 -2.15625l0 -6.0l-1.515625 0l0 -1.25l1.515625 0l0 -2.515625l1.4375 0l0 2.515625l1.859375 0l0 1.25l-1.859375 0l0 5.703125q0 0.515625 0.21875 0.84375q0.234375 0.328125 0.703125 0.328125q0.59375 0 0.96875 -0.375l0.421875 1.0625q-0.59375 0.59375 -1.703125 0.59375z" fill-rule="nonzero"></path></g></svg>

