<?xml version="1.0" standalone="yes"?>

<svg version="1.1" viewBox="0.0 0.0 960.0 720.0" fill="none" stroke="none" stroke-linecap="square" stroke-miterlimit="10" xmlns="http://www.w3.org/2000/svg" xmlns:xlink="http://www.w3.org/1999/xlink"><clipPath id="p.0"><path d="m0 0l960.0 0l0 720.0l-960.0 0l0 -720.0z" clip-rule="nonzero"></path></clipPath><g clip-path="url(#p.0)"><path fill="#000000" fill-opacity="0.0" d="m0 0l960.0 0l0 720.0l-960.0 0z" fill-rule="evenodd"></path><path fill="#cfe2f3" d="m229.2126 280.4462l0 0c0 -76.94588 73.04457 -139.32285 163.14961 -139.32285l0 0c90.10504 0 163.14963 62.37697 163.14963 139.32285l0 0c0 76.94586 -73.044586 139.32285 -163.14963 139.32285l0 0c-90.10504 0 -163.14961 -62.376984 -163.14961 -139.32285z" fill-rule="evenodd"></path><path stroke="#000000" stroke-width="1.0" stroke-linejoin="round" stroke-linecap="butt" d="m229.2126 280.4462l0 0c0 -76.94588 73.04457 -139.32285 163.14961 -139.32285l0 0c90.10504 0 163.14963 62.37697 163.14963 139.32285l0 0c0 76.94586 -73.044586 139.32285 -163.14963 139.32285l0 0c-90.10504 0 -163.14961 -62.376984 -163.14961 -139.32285z" fill-rule="evenodd"></path><path fill="#cc4125" d="m274.1706 262.01837l21.118134 -42.23622l21.118103 42.23622z" fill-rule="evenodd"></path><path stroke="#000000" stroke-width="1.0" stroke-linejoin="round" stroke-linecap="butt" d="m274.1706 262.01837l21.118134 -42.23622l21.118103 42.23622z" fill-rule="evenodd"></path><path fill="#20124d" d="m316.40683 390.80054l0 -46.740173l42.236206 46.740173z" fill-rule="evenodd"></path><path stroke="#000000" stroke-width="1.0" stroke-linejoin="round" stroke-linecap="butt" d="m316.40683 390.80054l0 -46.740173l42.236206 46.740173z" fill-rule="evenodd"></path><path fill="#e69138" d="m448.98425 237.75066l10.5590515 -46.740158l31.677155 0l-10.5590515 46.740158z" fill-rule="evenodd"></path><path stroke="#000000" stroke-width="1.0" stroke-linejoin="round" stroke-linecap="butt" d="m448.98425 237.75066l10.5590515 -46.740158l31.677155 0l-10.5590515 46.740158z" fill-rule="evenodd"></path><path fill="#6aa84f" d="m350.10498 219.78215l10.5590515 -42.23622l33.716553 0l10.5590515 42.23622z" fill-rule="evenodd"></path><path stroke="#000000" stroke-width="1.0" stroke-linejoin="round" stroke-linecap="butt" d="m350.10498 219.78215l10.5590515 -42.23622l33.716553 0l10.5590515 42.23622z" fill-rule="evenodd"></path><path fill="#e06666" d="m475.5013 290.9042l23.370087 -30.787415l23.370056 30.787415l-23.370056 30.787384z" fill-rule="evenodd"></path><path stroke="#000000" stroke-width="1.0" stroke-linejoin="round" stroke-linecap="butt" d="m475.5013 290.9042l23.370087 -30.787415l23.370056 30.787415l-23.370056 30.787384z" fill-rule="evenodd"></path><path fill="#c27ba0" d="m350.10504 327.97263l27.417267 -19.657654l27.417267 19.657654l-10.472473 31.806763l-33.889587 0z" fill-rule="evenodd"></path><path stroke="#000000" stroke-width="1.0" stroke-linejoin="round" stroke-linecap="butt" d="m350.10504 327.97263l27.417267 -19.657654l27.417267 19.657654l-10.472473 31.806763l-33.889587 0z" fill-rule="evenodd"></path><path fill="#76a5af" d="m421.56693 365.17847l12.764313 -21.118103l38.292908 0l12.764313 21.118103l-12.764313 21.118134l-38.292908 0z" fill-rule="evenodd"></path><path stroke="#000000" stroke-width="1.0" stroke-linejoin="round" stroke-linecap="butt" d="m421.56693 365.17847l12.764313 -21.118103l38.292908 0l12.764313 21.118103l-12.764313 21.118134l-38.292908 0z" fill-rule="evenodd"></path><path fill="#8e7cc3" d="m270.11154 297.98425l35.968506 0l0 35.055115l-35.968506 0z" fill-rule="evenodd"></path><path stroke="#000000" stroke-width="1.0" stroke-linejoin="round" stroke-linecap="butt" d="m270.11154 297.98425l35.968506 0l0 35.055115l-35.968506 0z" fill-rule="evenodd"></path><path fill="#ffd966" d="m381.27713 264.93307l-13.280701 17.154663l-34.435852 12.304535l39.8425 -51.46457z" fill-rule="evenodd"></path><path stroke="#000000" stroke-width="1.0" stroke-linejoin="round" stroke-linecap="butt" d="m381.27713 264.93307l-13.280701 17.154663l-34.435852 12.304535l39.8425 -51.46457z" fill-rule="evenodd"></path><path fill="#6d9eeb" d="m402.94095 281.92163l5.2362366 -15.903381l13.708679 -9.828857l16.944824 0l13.708649 9.828857l5.236267 15.903381l-5.236267 15.903381l-13.708649 9.828857l-16.944824 0l-13.708679 -9.828857z" fill-rule="evenodd"></path><path stroke="#000000" stroke-width="1.0" stroke-linejoin="round" stroke-linecap="butt" d="m402.94095 281.92163l5.2362366 -15.903381l13.708679 -9.828857l16.944824 0l13.708649 9.828857l5.236267 15.903381l-5.236267 15.903381l-13.708649 9.828857l-16.944824 0l-13.708679 -9.828857z" fill-rule="evenodd"></path></g></svg>

