<?xml version="1.0" standalone="yes"?>

<svg version="1.1" viewBox="0.0 0.0 960.0 540.0" fill="none" stroke="none" stroke-linecap="square" stroke-miterlimit="10" xmlns="http://www.w3.org/2000/svg" xmlns:xlink="http://www.w3.org/1999/xlink"><clipPath id="p.0"><path d="m0 0l960.0 0l0 540.0l-960.0 0l0 -540.0z" clip-rule="nonzero"></path></clipPath><g clip-path="url(#p.0)"><path fill="#ffffff" d="m0 0l960.0 0l0 540.0l-960.0 0z" fill-rule="evenodd"></path><path fill="#000000" d="m133.73491 172.06824l8.503937 0l0 279.3701l-8.503937 0z" fill-rule="evenodd"></path><path stroke="#000000" stroke-width="2.0" stroke-linejoin="round" stroke-linecap="butt" d="m133.73491 172.06824l8.503937 0l0 279.3701l-8.503937 0z" fill-rule="evenodd"></path><path fill="#000000" d="m159.10236 88.56693l8.503937 0l0 362.86615l-8.503937 0z" fill-rule="evenodd"></path><path stroke="#000000" stroke-width="2.0" stroke-linejoin="round" stroke-linecap="butt" d="m159.10236 88.56693l8.503937 0l0 362.86615l-8.503937 0z" fill-rule="evenodd"></path><path fill="#000000" d="m184.46982 183.99213l8.503937 0l0 267.43307l-8.503937 0z" fill-rule="evenodd"></path><path stroke="#000000" stroke-width="2.0" stroke-linejoin="round" stroke-linecap="butt" d="m184.46982 183.99213l8.503937 0l0 267.43307l-8.503937 0z" fill-rule="evenodd"></path><path fill="#000000" d="m209.83727 45.997375l10.929138 0l0 405.44882l-10.929138 0z" fill-rule="evenodd"></path><path stroke="#000000" stroke-width="2.0" stroke-linejoin="round" stroke-linecap="butt" d="m209.83727 45.997375l10.929138 0l0 405.44882l-10.929138 0z" fill-rule="evenodd"></path><path fill="#000000" d="m235.20473 172.06299l8.503937 0l0 279.3701l-8.503937 0z" fill-rule="evenodd"></path><path stroke="#000000" stroke-width="2.0" stroke-linejoin="round" stroke-linecap="butt" d="m235.20473 172.06299l8.503937 0l0 279.3701l-8.503937 0z" fill-rule="evenodd"></path><path fill="#000000" d="m260.57217 77.514435l10.929138 0l0 373.92126l-10.929138 0z" fill-rule="evenodd"></path><path stroke="#000000" stroke-width="2.0" stroke-linejoin="round" stroke-linecap="butt" d="m260.57217 77.514435l10.929138 0l0 373.92126l-10.929138 0z" fill-rule="evenodd"></path><path fill="#000000" d="m285.93964 270.87927l10.929138 0l0 180.56693l-10.929138 0z" fill-rule="evenodd"></path><path stroke="#000000" stroke-width="2.0" stroke-linejoin="round" stroke-linecap="butt" d="m285.93964 270.87927l10.929138 0l0 180.56693l-10.929138 0z" fill-rule="evenodd"></path><path fill="#000000" d="m311.3071 143.95801l8.503937 0l0 307.46457l-8.503937 0z" fill-rule="evenodd"></path><path stroke="#000000" stroke-width="2.0" stroke-linejoin="round" stroke-linecap="butt" d="m311.3071 143.95801l8.503937 0l0 307.46457l-8.503937 0z" fill-rule="evenodd"></path><path fill="#000000" d="m336.67453 60.480316l10.929138 0l0 390.96063l-10.929138 0z" fill-rule="evenodd"></path><path stroke="#000000" stroke-width="2.0" stroke-linejoin="round" stroke-linecap="butt" d="m336.67453 60.480316l10.929138 0l0 390.96063l-10.929138 0z" fill-rule="evenodd"></path><path fill="#000000" d="m362.042 197.62204l10.929138 0l0 253.79529l-10.929138 0z" fill-rule="evenodd"></path><path stroke="#000000" stroke-width="2.0" stroke-linejoin="round" stroke-linecap="butt" d="m362.042 197.62204l10.929138 0l0 253.79529l-10.929138 0z" fill-rule="evenodd"></path><path fill="#000000" d="m387.40945 124.36483l10.929138 0l0 327.0551l-10.929138 0z" fill-rule="evenodd"></path><path stroke="#000000" stroke-width="2.0" stroke-linejoin="round" stroke-linecap="butt" d="m387.40945 124.36483l10.929138 0l0 327.0551l-10.929138 0z" fill-rule="evenodd"></path><path fill="#000000" d="m412.77692 374.80054l8.503937 0l0 76.62991l-8.503937 0z" fill-rule="evenodd"></path><path stroke="#000000" stroke-width="2.0" stroke-linejoin="round" stroke-linecap="butt" d="m412.77692 374.80054l8.503937 0l0 76.62991l-8.503937 0z" fill-rule="evenodd"></path><path fill="#000000" d="m725.084 174.62204l8.503967 0l0 276.7874l-8.503967 0z" fill-rule="evenodd"></path><path stroke="#000000" stroke-width="2.0" stroke-linejoin="round" stroke-linecap="butt" d="m725.084 174.62204l8.503967 0l0 276.7874l-8.503967 0z" fill-rule="evenodd"></path><path fill="#000000" d="m623.46063 88.56693l8.503906 0l0 362.86615l-8.503906 0z" fill-rule="evenodd"></path><path stroke="#000000" stroke-width="2.0" stroke-linejoin="round" stroke-linecap="butt" d="m623.46063 88.56693l8.503906 0l0 362.86615l-8.503906 0z" fill-rule="evenodd"></path><path fill="#000000" d="m750.4514 183.99213l8.503967 0l0 267.43307l-8.503967 0z" fill-rule="evenodd"></path><path stroke="#000000" stroke-width="2.0" stroke-linejoin="round" stroke-linecap="butt" d="m750.4514 183.99213l8.503967 0l0 267.43307l-8.503967 0z" fill-rule="evenodd"></path><path fill="#000000" d="m543.87006 45.997375l10.929138 0l0 405.44882l-10.929138 0z" fill-rule="evenodd"></path><path stroke="#000000" stroke-width="2.0" stroke-linejoin="round" stroke-linecap="butt" d="m543.87006 45.997375l10.929138 0l0 405.44882l-10.929138 0z" fill-rule="evenodd"></path><path fill="#000000" d="m699.33856 167.06299l8.503967 0l0 284.37796l-8.503967 0z" fill-rule="evenodd"></path><path stroke="#000000" stroke-width="2.0" stroke-linejoin="round" stroke-linecap="butt" d="m699.33856 167.06299l8.503967 0l0 284.37796l-8.503967 0z" fill-rule="evenodd"></path><path fill="#000000" d="m596.12335 77.514435l10.929138 0l0 373.92126l-10.929138 0z" fill-rule="evenodd"></path><path stroke="#000000" stroke-width="2.0" stroke-linejoin="round" stroke-linecap="butt" d="m596.12335 77.514435l10.929138 0l0 373.92126l-10.929138 0z" fill-rule="evenodd"></path><path fill="#000000" d="m803.6116 270.87927l10.929138 0l0 180.56693l-10.929138 0z" fill-rule="evenodd"></path><path stroke="#000000" stroke-width="2.0" stroke-linejoin="round" stroke-linecap="butt" d="m803.6116 270.87927l10.929138 0l0 180.56693l-10.929138 0z" fill-rule="evenodd"></path><path fill="#000000" d="m674.9554 143.95801l8.503906 0l0 307.46457l-8.503906 0z" fill-rule="evenodd"></path><path stroke="#000000" stroke-width="2.0" stroke-linejoin="round" stroke-linecap="butt" d="m674.9554 143.95801l8.503906 0l0 307.46457l-8.503906 0z" fill-rule="evenodd"></path><path fill="#000000" d="m570.7559 60.480316l10.929138 0l0 390.96063l-10.929138 0z" fill-rule="evenodd"></path><path stroke="#000000" stroke-width="2.0" stroke-linejoin="round" stroke-linecap="butt" d="m570.7559 60.480316l10.929138 0l0 390.96063l-10.929138 0z" fill-rule="evenodd"></path><path fill="#000000" d="m775.81757 197.62204l10.929138 0l0 253.79529l-10.929138 0z" fill-rule="evenodd"></path><path stroke="#000000" stroke-width="2.0" stroke-linejoin="round" stroke-linecap="butt" d="m775.81757 197.62204l10.929138 0l0 253.79529l-10.929138 0z" fill-rule="evenodd"></path><path fill="#000000" d="m648.3753 124.36483l10.929138 0l0 327.0551l-10.929138 0z" fill-rule="evenodd"></path><path stroke="#000000" stroke-width="2.0" stroke-linejoin="round" stroke-linecap="butt" d="m648.3753 124.36483l10.929138 0l0 327.0551l-10.929138 0z" fill-rule="evenodd"></path><path fill="#000000" d="m831.4042 374.80054l8.503967 0l0 76.62991l-8.503967 0z" fill-rule="evenodd"></path><path stroke="#000000" stroke-width="2.0" stroke-linejoin="round" stroke-linecap="butt" d="m831.4042 374.80054l8.503967 0l0 76.62991l-8.503967 0z" fill-rule="evenodd"></path></g></svg>

