<?xml version="1.0" standalone="yes"?>

<svg version="1.1" viewBox="0.0 0.0 960.0 540.0" fill="none" stroke="none" stroke-linecap="square" stroke-miterlimit="10" xmlns="http://www.w3.org/2000/svg" xmlns:xlink="http://www.w3.org/1999/xlink"><clipPath id="g25e5570c15_0_13.0"><path d="m0 0l960.0 0l0 540.0l-960.0 0l0 -540.0z" clip-rule="nonzero"></path></clipPath><g clip-path="url(#g25e5570c15_0_13.0)"><path fill="#ffffff" d="m0 0l960.0 0l0 540.0l-960.0 0z" fill-rule="evenodd"></path><path fill="#eeeeee" d="m188.94751 191.60367l78.299194 0l0 67.3071l-78.299194 0z" fill-rule="evenodd"></path><path stroke="#595959" stroke-width="1.0" stroke-linejoin="round" stroke-linecap="butt" d="m188.94751 191.60367l78.299194 0l0 67.3071l-78.299194 0z" fill-rule="evenodd"></path><path fill="#000000" d="m204.79126 215.05722l-0.53125 -1.46875l-3.71875 0l-0.546875 1.46875l-2.109375 0l3.34375 -8.671875l2.328125 0l3.328125 8.671875l-2.09375 0zm-2.390625 -6.828125l-1.359375 3.734375l2.703125 0l-1.34375 -3.734375zm9.725784 6.828125l0 -0.796875q-0.84375 0.953125 -2.21875 0.953125q-1.03125 0 -1.53125 -0.515625q-0.5 -0.53125 -0.5 -1.453125l0 -4.46875l1.65625 0l0 3.8125q0 1.15625 1.15625 1.15625q0.84375 0 1.4375 -0.71875l0 -4.25l1.640625 0l0 6.28125l-1.640625 0zm7.7169495 0l0 -3.796875q0 -1.171875 -1.15625 -1.171875q-0.90625 0 -1.4375 0.75l0 4.21875l-1.65625 0l0 -6.28125l1.65625 0l0 0.828125q0.296875 -0.375 0.859375 -0.671875q0.5625 -0.3125 1.34375 -0.3125q1.03125 0 1.53125 0.546875q0.5 0.53125 0.5 1.453125l0 4.4375l-1.640625 0zm5.5763245 0.15625q-1.78125 0 -1.78125 -1.71875l0 -3.28125l-1.03125 0l0 -1.4375l1.03125 0l0 -1.71875l1.671875 0l0 1.71875l1.265625 0l0 1.4375l-1.265625 0l0 2.84375q0 0.296875 0.140625 0.5q0.15625 0.1875 0.421875 0.1875q0.390625 0 0.578125 -0.1875l0.34375 1.25q-0.421875 0.40625 -1.375 0.40625z" fill-rule="nonzero"></path><path fill="#000000" d="m203.51001 245.77722l-2.03125 -3.1875l-1.59375 0l0 3.1875l-1.0 0l0 -8.0l3.21875 0q1.125 0 1.8125 0.671875q0.6875 0.671875 0.6875 1.734375q0 1.015625 -0.578125 1.640625q-0.578125 0.609375 -1.5 0.6875l2.171875 3.265625l-1.1875 0zm-1.53125 -4.0625q0.71875 0 1.15625 -0.421875q0.4375 -0.421875 0.4375 -1.109375q0 -0.6875 -0.4375 -1.09375q-0.4375 -0.421875 -1.15625 -0.421875l-2.09375 0l0 3.046875l2.09375 0zm6.702301 4.203125q-1.265625 0 -2.078125 -0.859375q-0.796875 -0.859375 -0.796875 -2.1875q0 -1.34375 0.796875 -2.1875q0.8125 -0.84375 2.078125 -0.84375q1.25 0 2.046875 0.84375q0.8125 0.84375 0.8125 2.1875q0 1.328125 -0.8125 2.1875q-0.796875 0.859375 -2.046875 0.859375zm0 -0.796875q0.828125 0 1.375 -0.625q0.546875 -0.640625 0.546875 -1.625q0 -0.96875 -0.546875 -1.59375q-0.546875 -0.640625 -1.375 -0.640625q-0.84375 0 -1.390625 0.625q-0.546875 0.625 -0.546875 1.609375q0 1.0 0.53125 1.625q0.546875 0.625 1.40625 0.625zm5.785919 0.796875q-1.28125 0 -1.28125 -1.359375l0 -3.78125l-0.953125 0l0 -0.796875l0.953125 0l0 -1.578125l0.90625 0l0 1.578125l1.171875 0l0 0.796875l-1.171875 0l0 3.59375q0 0.328125 0.140625 0.546875q0.140625 0.203125 0.4375 0.203125q0.375 0 0.625 -0.25l0.25 0.671875q-0.359375 0.375 -1.078125 0.375zm3.5280304 0q-1.28125 0 -1.28125 -1.359375l0 -3.78125l-0.953125 0l0 -0.796875l0.953125 0l0 -1.578125l0.90625 0l0 1.578125l1.171875 0l0 0.796875l-1.171875 0l0 3.59375q0 0.328125 0.140625 0.546875q0.140625 0.203125 0.4375 0.203125q0.375 0 0.625 -0.25l0.25 0.671875q-0.359375 0.375 -1.078125 0.375zm4.6842804 0q-1.3125 0 -2.140625 -0.84375q-0.8125 -0.859375 -0.8125 -2.203125q0 -1.28125 0.8125 -2.15625q0.828125 -0.875 2.046875 -0.875q1.25 0 2.015625 0.859375q0.765625 0.859375 0.765625 2.25l0 0.21875l-4.6875 0q0.046875 0.890625 0.640625 1.453125q0.59375 0.5625 1.4375 0.5625q1.0625 0 1.796875 -0.734375l0.421875 0.578125q-0.875 0.890625 -2.296875 0.890625zm1.796875 -3.40625q0 -0.796875 -0.53125 -1.359375q-0.515625 -0.578125 -1.375 -0.578125q-0.796875 0 -1.34375 0.578125q-0.53125 0.5625 -0.546875 1.359375l3.796875 0zm2.3497925 3.265625l0 -5.796875l0.890625 0l0 0.9375q0.8125 -1.0625 1.9375 -1.0625l0 0.9375l-0.359375 -0.046875q-0.40625 0 -0.90625 0.296875q-0.484375 0.296875 -0.671875 0.625l0 4.109375l-0.890625 0zm8.147522 0l0 -0.859375q-0.3125 0.4375 -0.828125 0.71875q-0.515625 0.28125 -1.125 0.28125q-1.15625 0 -1.875 -0.828125q-0.703125 -0.828125 -0.703125 -2.203125q0 -1.390625 0.703125 -2.21875q0.71875 -0.828125 1.875 -0.828125q0.59375 0 1.09375 0.265625q0.515625 0.265625 0.859375 0.75l0 -3.078125l0.90625 0l0 8.0l-0.90625 0zm-1.734375 -0.65625q0.546875 0 1.015625 -0.265625q0.484375 -0.265625 0.71875 -0.65625l0 -2.625q-0.234375 -0.375 -0.71875 -0.65625q-0.46875 -0.28125 -1.015625 -0.28125q-0.84375 0 -1.359375 0.625q-0.5 0.609375 -0.5 1.625q0 1.0 0.5 1.625q0.515625 0.609375 1.359375 0.609375zm8.07193 0.65625l0 -0.65625q-0.734375 0.796875 -1.921875 0.796875q-0.875 0 -1.453125 -0.546875q-0.578125 -0.546875 -0.578125 -1.375q0 -0.828125 0.5625 -1.359375q0.578125 -0.546875 1.46875 -0.546875q1.25 0 1.921875 0.796875l0 -1.046875q0 -0.59375 -0.421875 -0.90625q-0.40625 -0.3125 -1.046875 -0.3125q-1.015625 0 -1.78125 0.796875l-0.421875 -0.625q0.921875 -0.953125 2.328125 -0.953125q1.0625 0 1.640625 0.515625q0.59375 0.515625 0.59375 1.4375l0 3.984375l-0.890625 0zm-1.609375 -0.5q1.078125 0 1.609375 -0.71875l0 -1.09375q-0.53125 -0.71875 -1.609375 -0.71875q-0.625 0 -1.03125 0.359375q-0.390625 0.34375 -0.390625 0.90625q0 0.546875 0.390625 0.90625q0.40625 0.359375 1.03125 0.359375zm11.292801 0.5l0 -3.9375q0 -1.203125 -1.0625 -1.203125q-0.453125 0 -0.890625 0.28125q-0.421875 0.265625 -0.640625 0.609375l0 4.25l-0.90625 0l0 -3.9375q0 -1.203125 -1.0625 -1.203125q-0.453125 0 -0.875 0.28125q-0.40625 0.28125 -0.65625 0.625l0 4.234375l-0.890625 0l0 -5.796875l0.890625 0l0 0.84375q0.203125 -0.34375 0.765625 -0.65625q0.5625 -0.328125 1.109375 -0.328125q0.671875 0 1.046875 0.3125q0.375 0.3125 0.515625 0.765625q0.296875 -0.46875 0.84375 -0.765625q0.5625 -0.3125 1.09375 -0.3125q1.625 0 1.625 1.75l0 4.1875l-0.90625 0z" fill-rule="nonzero"></path><path fill="#eeeeee" d="m339.1811 89.71129l78.299225 0l0 67.30708l-78.299225 0z" fill-rule="evenodd"></path><path stroke="#595959" stroke-width="1.0" stroke-linejoin="round" stroke-linecap="butt" d="m339.1811 89.71129l78.299225 0l0 67.30708l-78.299225 0z" fill-rule="evenodd"></path><path fill="#000000" d="m356.57172 112.164825l0 -6.078125l-2.4375 6.078125l-0.8125 0l-2.4375 -6.078125l0 6.078125l-1.84375 0l0 -8.671875l2.578125 0l2.109375 5.234375l2.109375 -5.234375l2.59375 0l0 8.671875l-1.859375 0zm6.739258 0.15625q-1.453125 0 -2.390625 -0.9375q-0.921875 -0.9375 -0.921875 -2.359375q0 -1.4375 0.921875 -2.359375q0.9375 -0.9375 2.390625 -0.9375q1.453125 0 2.390625 0.9375q0.9375 0.921875 0.9375 2.359375q0 1.4375 -0.9375 2.375q-0.9375 0.921875 -2.390625 0.921875zm0 -1.46875q0.71875 0 1.15625 -0.515625q0.453125 -0.515625 0.453125 -1.3125q0 -0.78125 -0.453125 -1.296875q-0.4375 -0.53125 -1.15625 -0.53125q-0.6875 0 -1.15625 0.5q-0.453125 0.5 -0.453125 1.328125q0 0.828125 0.453125 1.328125q0.46875 0.5 1.15625 0.5zm12.52533 1.3125l0 -3.96875q0 -1.0 -0.9375 -1.0q-0.4375 0 -0.78125 0.234375q-0.34375 0.234375 -0.515625 0.5l0 4.234375l-1.671875 0l0 -3.96875q0 -1.0 -0.9375 -1.0q-0.421875 0 -0.765625 0.25q-0.34375 0.234375 -0.53125 0.5l0 4.21875l-1.65625 0l0 -6.28125l1.65625 0l0 0.828125q0.21875 -0.359375 0.828125 -0.671875q0.609375 -0.3125 1.234375 -0.3125q1.359375 0 1.734375 1.140625q0.296875 -0.46875 0.890625 -0.796875q0.609375 -0.34375 1.265625 -0.34375q1.84375 0 1.84375 1.90625l0 4.53125l-1.65625 0z" fill-rule="nonzero"></path><path fill="#000000" d="m349.19672 144.16483l0 -8.671875l2.96875 0q1.96875 0 3.203125 1.234375q1.234375 1.21875 1.234375 3.109375q0 1.890625 -1.25 3.109375q-1.234375 1.21875 -3.1875 1.21875l-2.96875 0zm2.96875 -0.96875q1.46875 0 2.390625 -0.921875q0.9375 -0.9375 0.9375 -2.4375q0 -1.515625 -0.921875 -2.4375q-0.90625 -0.9375 -2.40625 -0.9375l-1.890625 0l0 6.734375l1.890625 0zm9.157776 1.125q-1.421875 0 -2.3125 -0.921875q-0.890625 -0.921875 -0.890625 -2.375q0 -1.390625 0.875 -2.34375q0.890625 -0.953125 2.21875 -0.953125q1.359375 0 2.1875 0.9375q0.828125 0.9375 0.828125 2.4375l0 0.234375l-5.078125 0q0.046875 0.96875 0.6875 1.578125q0.65625 0.59375 1.578125 0.59375q1.140625 0 1.9375 -0.78125l0.46875 0.625q-0.96875 0.96875 -2.5 0.96875zm1.953125 -3.6875q0 -0.875 -0.578125 -1.484375q-0.578125 -0.609375 -1.5 -0.609375q-0.859375 0 -1.453125 0.609375q-0.578125 0.609375 -0.59375 1.484375l4.125 0zm2.7068481 3.53125l0 -8.671875l0.984375 0l0 8.671875l-0.984375 0zm3.2800598 0l0 -5.421875l-1.046875 0l0 -0.859375l1.046875 0l0 -0.484375q0 -0.96875 0.484375 -1.5q0.484375 -0.53125 1.328125 -0.53125q0.796875 0 1.328125 0.484375l-0.40625 0.625q-0.328125 -0.3125 -0.765625 -0.3125q-1.0 0 -1.0 1.234375l0 0.484375l1.28125 0l0 0.859375l-1.28125 0l0 5.421875l-0.96875 0zm5.0843506 0.15625q-1.390625 0 -1.390625 -1.46875l0 -4.109375l-1.046875 0l0 -0.859375l1.046875 0l0 -1.71875l0.96875 0l0 1.71875l1.28125 0l0 0.859375l-1.28125 0l0 3.90625q0 0.34375 0.15625 0.578125q0.15625 0.21875 0.484375 0.21875q0.40625 0 0.65625 -0.25l0.296875 0.71875q-0.40625 0.40625 -1.171875 0.40625z" fill-rule="nonzero"></path><path fill="#eeeeee" d="m485.52756 89.71129l78.299225 0l0 67.30708l-78.299225 0z" fill-rule="evenodd"></path><path stroke="#595959" stroke-width="1.0" stroke-linejoin="round" stroke-linecap="butt" d="m485.52756 89.71129l78.299225 0l0 67.30708l-78.299225 0z" fill-rule="evenodd"></path><path fill="#000000" d="m495.46506 102.852325l3.4375 0q1.15625 0 1.765625 0.1875q0.828125 0.234375 1.40625 0.859375q0.578125 0.609375 0.875 1.5q0.3125 0.890625 0.3125 2.203125q0 1.140625 -0.28125 1.984375q-0.34375 1.015625 -1.0 1.640625q-0.484375 0.46875 -1.3125 0.734375q-0.625 0.203125 -1.671875 0.203125l-3.53125 0l0 -9.3125zm1.875 1.578125l0 6.171875l1.40625 0q0.796875 0 1.140625 -0.09375q0.453125 -0.109375 0.75 -0.375q0.3125 -0.28125 0.5 -0.90625q0.1875 -0.625 0.1875 -1.703125q0 -1.078125 -0.1875 -1.65625q-0.1875 -0.578125 -0.53125 -0.90625q-0.34375 -0.328125 -0.875 -0.4375q-0.390625 -0.09375 -1.546875 -0.09375l-0.84375 0zm9.078278 3.046875l-1.625 -0.296875q0.28125 -0.96875 0.9375 -1.4375q0.671875 -0.46875 1.984375 -0.46875q1.203125 0 1.78125 0.28125q0.578125 0.28125 0.8125 0.71875q0.25 0.4375 0.25 1.59375l-0.015625 2.078125q0 0.890625 0.078125 1.3125q0.09375 0.421875 0.328125 0.90625l-1.765625 0q-0.078125 -0.171875 -0.171875 -0.53125q-0.046875 -0.15625 -0.0625 -0.203125q-0.46875 0.4375 -0.984375 0.671875q-0.515625 0.21875 -1.109375 0.21875q-1.046875 0 -1.640625 -0.5625q-0.59375 -0.578125 -0.59375 -1.4375q0 -0.5625 0.265625 -1.015625q0.28125 -0.453125 0.765625 -0.6875q0.5 -0.234375 1.421875 -0.421875q1.25 -0.234375 1.734375 -0.4375l0 -0.171875q0 -0.515625 -0.265625 -0.734375q-0.25 -0.21875 -0.953125 -0.21875q-0.46875 0 -0.734375 0.1875q-0.265625 0.1875 -0.4375 0.65625zm2.390625 1.453125q-0.34375 0.109375 -1.09375 0.265625q-0.734375 0.15625 -0.96875 0.3125q-0.34375 0.25 -0.34375 0.625q0 0.375 0.28125 0.65625q0.28125 0.265625 0.703125 0.265625q0.484375 0 0.921875 -0.3125q0.328125 -0.234375 0.421875 -0.59375q0.078125 -0.21875 0.078125 -0.859375l0 -0.359375zm9.865601 3.234375l-1.65625 0l0 -0.984375q-0.40625 0.578125 -0.96875 0.859375q-0.5625 0.28125 -1.125 0.28125q-1.171875 0 -2.0 -0.9375q-0.828125 -0.9375 -0.828125 -2.609375q0 -1.71875 0.796875 -2.609375q0.8125 -0.890625 2.046875 -0.890625q1.125 0 1.953125 0.9375l0 -3.359375l1.78125 0l0 9.3125zm-4.75 -3.515625q0 1.078125 0.296875 1.5625q0.421875 0.703125 1.203125 0.703125q0.609375 0 1.046875 -0.515625q0.4375 -0.53125 0.4375 -1.578125q0 -1.15625 -0.421875 -1.671875q-0.421875 -0.515625 -1.078125 -0.515625q-0.625 0 -1.0625 0.515625q-0.421875 0.5 -0.421875 1.5z" fill-rule="nonzero"></path><path fill="#000000" d="m495.52756 144.16483l0 -9.3125l3.203125 0q1.09375 0 1.65625 0.140625q0.8125 0.1875 1.375 0.671875q0.734375 0.609375 1.09375 1.578125q0.375 0.96875 0.375 2.21875q0 1.0625 -0.25 1.890625q-0.25 0.8125 -0.640625 1.34375q-0.390625 0.53125 -0.859375 0.84375q-0.453125 0.3125 -1.109375 0.46875q-0.640625 0.15625 -1.484375 0.15625l-3.359375 0zm1.234375 -1.09375l1.984375 0q0.921875 0 1.4375 -0.171875q0.53125 -0.171875 0.84375 -0.484375q0.4375 -0.4375 0.671875 -1.171875q0.25 -0.75 0.25 -1.796875q0 -1.46875 -0.484375 -2.25q-0.46875 -0.78125 -1.15625 -1.046875q-0.5 -0.1875 -1.59375 -0.1875l-1.953125 0l0 7.109375zm12.859528 -1.078125l1.1875 0.140625q-0.28125 1.046875 -1.046875 1.625q-0.75 0.5625 -1.921875 0.5625q-1.484375 0 -2.359375 -0.90625q-0.859375 -0.921875 -0.859375 -2.5625q0 -1.703125 0.875 -2.640625q0.890625 -0.9375 2.28125 -0.9375q1.359375 0 2.203125 0.921875q0.859375 0.921875 0.859375 2.578125q0 0.109375 0 0.3125l-5.03125 0q0.0625 1.109375 0.625 1.703125q0.5625 0.59375 1.40625 0.59375q0.640625 0 1.078125 -0.328125q0.453125 -0.34375 0.703125 -1.0625zm-3.75 -1.84375l3.765625 0q-0.078125 -0.859375 -0.4375 -1.28125q-0.546875 -0.65625 -1.40625 -0.65625q-0.796875 0 -1.328125 0.53125q-0.53125 0.515625 -0.59375 1.40625zm6.5218506 4.015625l0 -9.3125l1.140625 0l0 9.3125l-1.140625 0zm3.2579956 0l0 -5.859375l-1.0 0l0 -0.875l1.0 0l0 -0.71875q0 -0.6875 0.125 -1.015625q0.171875 -0.4375 0.578125 -0.71875q0.421875 -0.28125 1.171875 -0.28125q0.484375 0 1.0625 0.125l-0.171875 0.984375q-0.359375 -0.0625 -0.671875 -0.0625q-0.515625 0 -0.734375 0.234375q-0.21875 0.21875 -0.21875 0.828125l0 0.625l1.3125 0l0 0.875l-1.3125 0l0 5.859375l-1.140625 0zm5.937317 -1.015625l0.15625 1.0q-0.484375 0.109375 -0.859375 0.109375q-0.625 0 -0.96875 -0.203125q-0.34375 -0.203125 -0.484375 -0.515625q-0.140625 -0.328125 -0.140625 -1.34375l0 -3.890625l-0.828125 0l0 -0.875l0.828125 0l0 -1.671875l1.140625 -0.6875l0 2.359375l1.15625 0l0 0.875l-1.15625 0l0 3.953125q0 0.484375 0.0625 0.625q0.0625 0.140625 0.1875 0.21875q0.140625 0.078125 0.390625 0.078125q0.203125 0 0.515625 -0.03125z" fill-rule="nonzero"></path><path fill="#eeeeee" d="m289.79004 189.05249l78.299194 0l0 72.409454l-78.299194 0z" fill-rule="evenodd"></path><path stroke="#595959" stroke-width="1.0" stroke-linejoin="round" stroke-linecap="butt" d="m289.79004 189.05249l78.299194 0l0 72.409454l-78.299194 0z" fill-rule="evenodd"></path><path fill="#000000" d="m303.55566 215.21347q-1.84375 0 -2.875 -0.9375q-1.03125 -0.953125 -1.03125 -2.671875l0 -5.21875l1.875 0l0 5.15625q0 0.90625 0.5 1.46875q0.515625 0.5625 1.53125 0.5625q1.015625 0 1.515625 -0.5625q0.515625 -0.5625 0.515625 -1.46875l0 -5.15625l1.890625 0l0 5.203125q0 1.71875 -1.015625 2.671875q-1.015625 0.953125 -2.90625 0.953125zm10.066345 -0.15625l0 -3.796875q0 -1.171875 -1.15625 -1.171875q-0.90625 0 -1.4375 0.75l0 4.21875l-1.65625 0l0 -6.28125l1.65625 0l0 0.828125q0.296875 -0.375 0.859375 -0.671875q0.5625 -0.3125 1.34375 -0.3125q1.03125 0 1.53125 0.546875q0.5 0.53125 0.5 1.453125l0 4.4375l-1.640625 0zm6.4044495 0.15625q-1.484375 0 -2.40625 -0.9375q-0.921875 -0.9375 -0.921875 -2.359375q0 -1.421875 0.921875 -2.359375q0.921875 -0.9375 2.40625 -0.9375q0.953125 0 1.5625 0.359375q0.609375 0.34375 0.921875 0.78125l-1.09375 1.0q-0.453125 -0.671875 -1.3125 -0.671875q-0.765625 0 -1.234375 0.5q-0.46875 0.5 -0.46875 1.328125q0 0.8125 0.46875 1.328125q0.46875 0.5 1.234375 0.5q0.84375 0 1.3125 -0.671875l1.09375 1.0q-0.3125 0.4375 -0.921875 0.796875q-0.609375 0.34375 -1.5625 0.34375zm3.7132263 -0.15625l0 -8.671875l1.65625 0l0 8.671875l-1.65625 0zm6.3251343 0.15625q-1.484375 0 -2.421875 -0.90625q-0.921875 -0.921875 -0.921875 -2.390625q0 -1.40625 0.921875 -2.34375q0.9375 -0.953125 2.328125 -0.953125q1.390625 0 2.265625 0.953125q0.875 0.953125 0.875 2.5l0 0.375l-4.671875 0q0.078125 0.59375 0.53125 1.03125q0.46875 0.421875 1.28125 0.421875q0.390625 0 0.859375 -0.15625q0.484375 -0.171875 0.8125 -0.46875l0.734375 1.0625q-0.46875 0.4375 -1.15625 0.65625q-0.6875 0.21875 -1.4375 0.21875zm1.453125 -3.890625q-0.046875 -0.625 -0.484375 -1.0q-0.421875 -0.390625 -1.0625 -0.390625q-0.65625 0 -1.078125 0.40625q-0.40625 0.390625 -0.46875 0.984375l3.09375 0zm8.204285 3.734375l0 -6.296875l-1.4375 1.46875l-1.0625 -1.09375l2.734375 -2.75l1.609375 0l0 8.671875l-1.84375 0z" fill-rule="nonzero"></path><path fill="#000000" d="m305.85254 245.77722l-1.765625 -6.453125l-1.765625 6.453125l-1.078125 0l-2.28125 -8.0l1.09375 0l1.78125 6.671875l1.84375 -6.671875l0.828125 0l1.828125 6.671875l1.765625 -6.671875l1.109375 0l-2.28125 8.0l-1.078125 0zm8.064819 0l0 -0.65625q-0.734375 0.796875 -1.921875 0.796875q-0.875 0 -1.453125 -0.546875q-0.578125 -0.546875 -0.578125 -1.375q0 -0.828125 0.5625 -1.359375q0.578125 -0.546875 1.46875 -0.546875q1.25 0 1.921875 0.796875l0 -1.046875q0 -0.59375 -0.421875 -0.90625q-0.40625 -0.3125 -1.046875 -0.3125q-1.015625 0 -1.78125 0.796875l-0.421875 -0.625q0.921875 -0.953125 2.328125 -0.953125q1.0625 0 1.640625 0.515625q0.59375 0.515625 0.59375 1.4375l0 3.984375l-0.890625 0zm-1.609375 -0.5q1.078125 0 1.609375 -0.71875l0 -1.09375q-0.53125 -0.71875 -1.609375 -0.71875q-0.625 0 -1.03125 0.359375q-0.390625 0.34375 -0.390625 0.90625q0 0.546875 0.390625 0.90625q0.40625 0.359375 1.03125 0.359375zm6.1365356 0.640625q-1.46875 0 -2.34375 -0.90625l0.46875 -0.65625q0.296875 0.34375 0.796875 0.59375q0.515625 0.234375 1.109375 0.234375q0.671875 0 1.015625 -0.28125q0.359375 -0.28125 0.359375 -0.703125q0 -0.390625 -0.375 -0.609375q-0.375 -0.21875 -1.40625 -0.46875q-0.890625 -0.171875 -1.359375 -0.5625q-0.453125 -0.390625 -0.453125 -1.046875q0 -0.734375 0.59375 -1.203125q0.59375 -0.46875 1.578125 -0.46875q1.296875 0 2.140625 0.84375l-0.421875 0.625q-0.265625 -0.3125 -0.71875 -0.515625q-0.4375 -0.21875 -1.0 -0.21875q-0.609375 0 -0.953125 0.265625q-0.34375 0.25 -0.34375 0.640625q0 0.34375 0.390625 0.546875q0.390625 0.203125 1.421875 0.421875q0.875 0.203125 1.328125 0.625q0.453125 0.40625 0.453125 1.09375q0 0.8125 -0.625 1.28125q-0.625 0.46875 -1.65625 0.46875zm5.5800476 0q-1.46875 0 -2.34375 -0.90625l0.46875 -0.65625q0.296875 0.34375 0.796875 0.59375q0.515625 0.234375 1.109375 0.234375q0.671875 0 1.015625 -0.28125q0.359375 -0.28125 0.359375 -0.703125q0 -0.390625 -0.375 -0.609375q-0.375 -0.21875 -1.40625 -0.46875q-0.890625 -0.171875 -1.359375 -0.5625q-0.453125 -0.390625 -0.453125 -1.046875q0 -0.734375 0.59375 -1.203125q0.59375 -0.46875 1.578125 -0.46875q1.296875 0 2.140625 0.84375l-0.421875 0.625q-0.265625 -0.3125 -0.71875 -0.515625q-0.4375 -0.21875 -1.0 -0.21875q-0.609375 0 -0.953125 0.265625q-0.34375 0.25 -0.34375 0.640625q0 0.34375 0.390625 0.546875q0.390625 0.203125 1.421875 0.421875q0.875 0.203125 1.328125 0.625q0.453125 0.40625 0.453125 1.09375q0 0.8125 -0.625 1.28125q-0.625 0.46875 -1.65625 0.46875zm6.361267 0q-1.3125 0 -2.140625 -0.84375q-0.8125 -0.859375 -0.8125 -2.203125q0 -1.28125 0.8125 -2.15625q0.828125 -0.875 2.046875 -0.875q1.25 0 2.015625 0.859375q0.765625 0.859375 0.765625 2.25l0 0.21875l-4.6875 0q0.046875 0.890625 0.640625 1.453125q0.59375 0.5625 1.4375 0.5625q1.0625 0 1.796875 -0.734375l0.421875 0.578125q-0.875 0.890625 -2.296875 0.890625zm1.796875 -3.40625q0 -0.796875 -0.53125 -1.359375q-0.515625 -0.578125 -1.375 -0.578125q-0.796875 0 -1.34375 0.578125q-0.53125 0.5625 -0.546875 1.359375l3.796875 0zm6.2560425 3.265625l0 -3.796875q0 -0.765625 -0.359375 -1.046875q-0.34375 -0.296875 -0.9375 -0.296875q-0.5 0 -0.984375 0.28125q-0.484375 0.265625 -0.734375 0.625l0 4.234375l-0.890625 0l0 -5.796875l0.890625 0l0 0.84375q0.375 -0.4375 0.921875 -0.703125q0.546875 -0.28125 1.140625 -0.28125q1.859375 0 1.859375 1.875l0 4.0625l-0.90625 0zm6.3308105 0l0 -0.65625q-0.734375 0.796875 -1.921875 0.796875q-0.875 0 -1.453125 -0.546875q-0.578125 -0.546875 -0.578125 -1.375q0 -0.828125 0.5625 -1.359375q0.578125 -0.546875 1.46875 -0.546875q1.25 0 1.921875 0.796875l0 -1.046875q0 -0.59375 -0.421875 -0.90625q-0.40625 -0.3125 -1.046875 -0.3125q-1.015625 0 -1.78125 0.796875l-0.421875 -0.625q0.921875 -0.953125 2.328125 -0.953125q1.0625 0 1.640625 0.515625q0.59375 0.515625 0.59375 1.4375l0 3.984375l-0.890625 0zm-1.609375 -0.5q1.078125 0 1.609375 -0.71875l0 -1.09375q-0.53125 -0.71875 -1.609375 -0.71875q-0.625 0 -1.03125 0.359375q-0.390625 0.34375 -0.390625 0.90625q0 0.546875 0.390625 0.90625q0.40625 0.359375 1.03125 0.359375zm7.9334106 0.5l0 -0.65625q-0.734375 0.796875 -1.921875 0.796875q-0.875 0 -1.453125 -0.546875q-0.578125 -0.546875 -0.578125 -1.375q0 -0.828125 0.5625 -1.359375q0.578125 -0.546875 1.46875 -0.546875q1.25 0 1.921875 0.796875l0 -1.046875q0 -0.59375 -0.421875 -0.90625q-0.40625 -0.3125 -1.046875 -0.3125q-1.015625 0 -1.78125 0.796875l-0.421875 -0.625q0.921875 -0.953125 2.328125 -0.953125q1.0625 0 1.640625 0.515625q0.59375 0.515625 0.59375 1.4375l0 3.984375l-0.890625 0zm-1.609375 -0.5q1.078125 0 1.609375 -0.71875l0 -1.09375q-0.53125 -0.71875 -1.609375 -0.71875q-0.625 0 -1.03125 0.359375q-0.390625 0.34375 -0.390625 0.90625q0 0.546875 0.390625 0.90625q0.40625 0.359375 1.03125 0.359375zm4.308441 0.5l0 -5.796875l0.890625 0l0 0.9375q0.8125 -1.0625 1.9375 -1.0625l0 0.9375l-0.359375 -0.046875q-0.40625 0 -0.90625 0.296875q-0.484375 0.296875 -0.671875 0.625l0 4.109375l-0.890625 0z" fill-rule="nonzero"></path><path fill="#eeeeee" d="m390.63254 191.60367l78.299225 0l0 67.3071l-78.299225 0z" fill-rule="evenodd"></path><path stroke="#595959" stroke-width="1.0" stroke-linejoin="round" stroke-linecap="butt" d="m390.63254 191.60367l78.299225 0l0 67.3071l-78.299225 0z" fill-rule="evenodd"></path><path fill="#000000" d="m401.82004 232.36472q-0.4375 0 -0.75 -0.296875q-0.296875 -0.3125 -0.296875 -0.75q0 -0.4375 0.296875 -0.734375q0.3125 -0.3125 0.75 -0.3125q0.4375 0 0.734375 0.3125q0.3125 0.296875 0.3125 0.734375q0 0.4375 -0.3125 0.75q-0.296875 0.296875 -0.734375 0.296875zm4.2909546 0q-0.4375 0 -0.75 -0.296875q-0.296875 -0.3125 -0.296875 -0.75q0 -0.4375 0.296875 -0.734375q0.3125 -0.3125 0.75 -0.3125q0.4375 0 0.734375 0.3125q0.3125 0.296875 0.3125 0.734375q0 0.4375 -0.3125 0.75q-0.296875 0.296875 -0.734375 0.296875zm4.290924 0q-0.4375 0 -0.75 -0.296875q-0.296875 -0.3125 -0.296875 -0.75q0 -0.4375 0.296875 -0.734375q0.3125 -0.3125 0.75 -0.3125q0.4375 0 0.734375 0.3125q0.3125 0.296875 0.3125 0.734375q0 0.4375 -0.3125 0.75q-0.296875 0.296875 -0.734375 0.296875zm4.2909546 0q-0.4375 0 -0.75 -0.296875q-0.296875 -0.3125 -0.296875 -0.75q0 -0.4375 0.296875 -0.734375q0.3125 -0.3125 0.75 -0.3125q0.4375 0 0.734375 0.3125q0.3125 0.296875 0.3125 0.734375q0 0.4375 -0.3125 0.75q-0.296875 0.296875 -0.734375 0.296875zm4.290924 0q-0.4375 0 -0.75 -0.296875q-0.296875 -0.3125 -0.296875 -0.75q0 -0.4375 0.296875 -0.734375q0.3125 -0.3125 0.75 -0.3125q0.4375 0 0.734375 0.3125q0.3125 0.296875 0.3125 0.734375q0 0.4375 -0.3125 0.75q-0.296875 0.296875 -0.734375 0.296875z" fill-rule="nonzero"></path><path fill="#eeeeee" d="m592.31757 189.05249l78.299255 0l0 72.409454l-78.299255 0z" fill-rule="evenodd"></path><path stroke="#ff0000" stroke-width="3.0" stroke-linejoin="round" stroke-linecap="butt" d="m592.31757 189.05249l78.299255 0l0 72.409454l-78.299255 0z" fill-rule="evenodd"></path><path fill="#000000" d="m608.1613 206.05722l-0.53125 -1.46875l-3.71875 0l-0.546875 1.46875l-2.109375 0l3.34375 -8.671875l2.328125 0l3.328125 8.671875l-2.09375 0zm-2.390625 -6.828125l-1.359375 3.734375l2.703125 0l-1.34375 -3.734375zm9.72583 6.828125l0 -3.796875q0 -1.171875 -1.15625 -1.171875q-0.90625 0 -1.4375 0.75l0 4.21875l-1.65625 0l0 -6.28125l1.65625 0l0 0.828125q0.296875 -0.375 0.859375 -0.671875q0.5625 -0.3125 1.34375 -0.3125q1.03125 0 1.53125 0.546875q0.5 0.53125 0.5 1.453125l0 4.4375l-1.640625 0zm7.716919 0l0 -3.796875q0 -1.171875 -1.15625 -1.171875q-0.90625 0 -1.4375 0.75l0 4.21875l-1.65625 0l0 -6.28125l1.65625 0l0 0.828125q0.296875 -0.375 0.859375 -0.671875q0.5625 -0.3125 1.34375 -0.3125q1.03125 0 1.53125 0.546875q0.5 0.53125 0.5 1.453125l0 4.4375l-1.640625 0zm6.388855 0.15625q-1.453125 0 -2.390625 -0.9375q-0.921875 -0.9375 -0.921875 -2.359375q0 -1.4375 0.921875 -2.359375q0.9375 -0.9375 2.390625 -0.9375q1.453125 0 2.390625 0.9375q0.9375 0.921875 0.9375 2.359375q0 1.4375 -0.9375 2.375q-0.9375 0.921875 -2.390625 0.921875zm0 -1.46875q0.71875 0 1.15625 -0.515625q0.453125 -0.515625 0.453125 -1.3125q0 -0.78125 -0.453125 -1.296875q-0.4375 -0.53125 -1.15625 -0.53125q-0.6875 0 -1.15625 0.5q-0.453125 0.5 -0.453125 1.328125q0 0.828125 0.453125 1.328125q0.46875 0.5 1.15625 0.5zm4.7596436 2.28125q0.203125 0.109375 0.515625 0.109375q0.671875 0 0.875 -0.453125l0.234375 -0.53125l-2.546875 -6.375l1.765625 0l1.640625 4.375l1.640625 -4.375l1.78125 0l-2.953125 7.3125q-0.359375 0.875 -0.96875 1.1875q-0.609375 0.3125 -1.40625 0.328125q-0.453125 0 -0.828125 -0.09375l0.25 -1.484375zm7.6342163 -7.921875q-0.40625 0 -0.703125 -0.28125q-0.28125 -0.296875 -0.28125 -0.703125q0 -0.421875 0.28125 -0.703125q0.296875 -0.28125 0.703125 -0.28125q0.40625 0 0.6875 0.28125q0.296875 0.28125 0.296875 0.703125q0 0.40625 -0.296875 0.703125q-0.28125 0.28125 -0.6875 0.28125zm-0.828125 6.953125l0 -6.28125l1.65625 0l0 6.28125l-1.65625 0zm7.6220093 0l0 -3.796875q0 -1.171875 -1.15625 -1.171875q-0.90625 0 -1.4375 0.75l0 4.21875l-1.65625 0l0 -6.28125l1.65625 0l0 0.828125q0.296875 -0.375 0.859375 -0.671875q0.5625 -0.3125 1.34375 -0.3125q1.03125 0 1.53125 0.546875q0.5 0.53125 0.5 1.453125l0 4.4375l-1.640625 0zm6.045044 2.546875q-0.8125 0 -1.46875 -0.21875q-0.640625 -0.203125 -1.234375 -0.71875l0.75 -1.1875q0.6875 0.78125 1.953125 0.78125q0.828125 0 1.28125 -0.421875q0.453125 -0.421875 0.453125 -1.171875l0 -0.640625q-0.796875 1.0 -1.9375 1.0q-1.265625 0 -2.015625 -0.859375q-0.75 -0.875 -0.75 -2.34375q0 -1.453125 0.734375 -2.328125q0.75 -0.875 2.03125 -0.875q1.1875 0 1.9375 0.96875l0 -0.8125l1.65625 0l0 5.859375q0 1.421875 -0.890625 2.1875q-0.875 0.78125 -2.5 0.78125zm0.3125 -4.0625q0.421875 0 0.8125 -0.203125q0.390625 -0.203125 0.609375 -0.5l0 -2.03125q-0.21875 -0.3125 -0.609375 -0.515625q-0.390625 -0.203125 -0.8125 -0.203125q-0.703125 0 -1.140625 0.453125q-0.4375 0.453125 -0.4375 1.28125q0 0.8125 0.4375 1.265625q0.4375 0.453125 1.140625 0.453125z" fill-rule="nonzero"></path><path fill="#000000" d="m608.1613 222.05722l-0.53125 -1.46875l-3.71875 0l-0.546875 1.46875l-2.109375 0l3.34375 -8.671875l2.328125 0l3.328125 8.671875l-2.09375 0zm-2.390625 -6.828125l-1.359375 3.734375l2.703125 0l-1.34375 -3.734375zm9.72583 6.828125l0 -0.796875q-0.84375 0.953125 -2.21875 0.953125q-1.03125 0 -1.53125 -0.515625q-0.5 -0.53125 -0.5 -1.453125l0 -4.46875l1.65625 0l0 3.8125q0 1.15625 1.15625 1.15625q0.84375 0 1.4375 -0.71875l0 -4.25l1.640625 0l0 6.28125l-1.640625 0zm7.716919 0l0 -3.796875q0 -1.171875 -1.15625 -1.171875q-0.90625 0 -1.4375 0.75l0 4.21875l-1.65625 0l0 -6.28125l1.65625 0l0 0.828125q0.296875 -0.375 0.859375 -0.671875q0.5625 -0.3125 1.34375 -0.3125q1.03125 0 1.53125 0.546875q0.5 0.53125 0.5 1.453125l0 4.4375l-1.640625 0zm5.576355 0.15625q-1.78125 0 -1.78125 -1.71875l0 -3.28125l-1.03125 0l0 -1.4375l1.03125 0l0 -1.71875l1.671875 0l0 1.71875l1.265625 0l0 1.4375l-1.265625 0l0 2.84375q0 0.296875 0.140625 0.5q0.15625 0.1875 0.421875 0.1875q0.390625 0 0.578125 -0.1875l0.34375 1.25q-0.421875 0.40625 -1.375 0.40625z" fill-rule="nonzero"></path><path fill="#000000" d="m602.3332 254.05722l0 -8.671875l2.96875 0q1.96875 0 3.203125 1.234375q1.234375 1.21875 1.234375 3.109375q0 1.890625 -1.25 3.109375q-1.234375 1.21875 -3.1875 1.21875l-2.96875 0zm2.96875 -0.96875q1.46875 0 2.390625 -0.921875q0.9375 -0.9375 0.9375 -2.4375q0 -1.515625 -0.921875 -2.4375q-0.90625 -0.9375 -2.40625 -0.9375l-1.890625 0l0 6.734375l1.890625 0zm9.157776 1.125q-1.421875 0 -2.3125 -0.921875q-0.890625 -0.921875 -0.890625 -2.375q0 -1.390625 0.875 -2.34375q0.890625 -0.953125 2.21875 -0.953125q1.359375 0 2.1875 0.9375q0.828125 0.9375 0.828125 2.4375l0 0.234375l-5.078125 0q0.046875 0.96875 0.6875 1.578125q0.65625 0.59375 1.578125 0.59375q1.140625 0 1.9375 -0.78125l0.46875 0.625q-0.96875 0.96875 -2.5 0.96875zm1.953125 -3.6875q0 -0.875 -0.578125 -1.484375q-0.578125 -0.609375 -1.5 -0.609375q-0.859375 0 -1.453125 0.609375q-0.578125 0.609375 -0.59375 1.484375l4.125 0zm2.7068481 3.53125l0 -8.671875l0.984375 0l0 8.671875l-0.984375 0zm3.2800903 0l0 -5.421875l-1.046875 0l0 -0.859375l1.046875 0l0 -0.484375q0 -0.96875 0.484375 -1.5q0.484375 -0.53125 1.328125 -0.53125q0.796875 0 1.328125 0.484375l-0.40625 0.625q-0.328125 -0.3125 -0.765625 -0.3125q-1.0 0 -1.0 1.234375l0 0.484375l1.28125 0l0 0.859375l-1.28125 0l0 5.421875l-0.96875 0zm5.0843506 0.15625q-1.390625 0 -1.390625 -1.46875l0 -4.109375l-1.046875 0l0 -0.859375l1.046875 0l0 -1.71875l0.96875 0l0 1.71875l1.28125 0l0 0.859375l-1.28125 0l0 3.90625q0 0.34375 0.15625 0.578125q0.15625 0.21875 0.484375 0.21875q0.40625 0 0.65625 -0.25l0.296875 0.71875q-0.40625 0.40625 -1.171875 0.40625zm2.027832 -0.15625l0 -0.75l3.46875 -4.671875l-3.46875 0l0 -0.859375l4.734375 0l0 0.75l-3.484375 4.6875l3.53125 0l0 0.84375l-4.78125 0zm7.0720825 -7.171875q-0.25 0 -0.453125 -0.1875q-0.1875 -0.1875 -0.1875 -0.46875q0 -0.265625 0.1875 -0.453125q0.203125 -0.203125 0.453125 -0.203125q0.28125 0 0.46875 0.203125q0.203125 0.1875 0.203125 0.453125q0 0.28125 -0.203125 0.46875q-0.1875 0.1875 -0.46875 0.1875zm-0.484375 7.171875l0 -6.28125l0.984375 0l0 6.28125l-0.984375 0zm3.4831543 -7.171875q-0.25 0 -0.453125 -0.1875q-0.1875 -0.1875 -0.1875 -0.46875q0 -0.265625 0.1875 -0.453125q0.203125 -0.203125 0.453125 -0.203125q0.28125 0 0.46875 0.203125q0.203125 0.1875 0.203125 0.453125q0 0.28125 -0.203125 0.46875q-0.1875 0.1875 -0.46875 0.1875zm-1.359375 9.71875q-0.484375 0 -0.78125 -0.125q-0.296875 -0.109375 -0.59375 -0.34375l0.34375 -0.734375q0.40625 0.390625 0.90625 0.390625q1.0 0 1.0 -1.125l0 -6.890625l0.984375 0l0 6.890625q0 0.9375 -0.484375 1.4375q-0.484375 0.5 -1.375 0.5zm3.8738403 -2.546875l0 -8.671875l0.984375 0l0 8.671875l-0.984375 0z" fill-rule="nonzero"></path><path fill="#eeeeee" d="m496.85565 191.60367l78.299194 0l0 67.3071l-78.299194 0z" fill-rule="evenodd"></path><path stroke="#595959" stroke-width="1.0" stroke-linejoin="round" stroke-linecap="butt" d="m496.85565 191.60367l78.299194 0l0 67.3071l-78.299194 0z" fill-rule="evenodd"></path><path fill="#000000" d="m510.62128 211.21347q-1.84375 0 -2.875 -0.9375q-1.03125 -0.953125 -1.03125 -2.671875l0 -5.21875l1.875 0l0 5.15625q0 0.90625 0.5 1.46875q0.515625 0.5625 1.53125 0.5625q1.015625 0 1.515625 -0.5625q0.515625 -0.5625 0.515625 -1.46875l0 -5.15625l1.890625 0l0 5.203125q0 1.71875 -1.015625 2.671875q-1.015625 0.953125 -2.90625 0.953125zm10.066345 -0.15625l0 -3.796875q0 -1.171875 -1.15625 -1.171875q-0.90625 0 -1.4375 0.75l0 4.21875l-1.65625 0l0 -6.28125l1.65625 0l0 0.828125q0.296875 -0.375 0.859375 -0.671875q0.5625 -0.3125 1.34375 -0.3125q1.03125 0 1.53125 0.546875q0.5 0.53125 0.5 1.453125l0 4.4375l-1.640625 0zm6.40448 0.15625q-1.484375 0 -2.40625 -0.9375q-0.921875 -0.9375 -0.921875 -2.359375q0 -1.421875 0.921875 -2.359375q0.921875 -0.9375 2.40625 -0.9375q0.953125 0 1.5625 0.359375q0.609375 0.34375 0.921875 0.78125l-1.09375 1.0q-0.453125 -0.671875 -1.3125 -0.671875q-0.765625 0 -1.234375 0.5q-0.46875 0.5 -0.46875 1.328125q0 0.8125 0.46875 1.328125q0.46875 0.5 1.234375 0.5q0.84375 0 1.3125 -0.671875l1.09375 1.0q-0.3125 0.4375 -0.921875 0.796875q-0.609375 0.34375 -1.5625 0.34375zm3.7131958 -0.15625l0 -8.671875l1.65625 0l0 8.671875l-1.65625 0zm6.3251343 0.15625q-1.484375 0 -2.421875 -0.90625q-0.921875 -0.921875 -0.921875 -2.390625q0 -1.40625 0.921875 -2.34375q0.9375 -0.953125 2.328125 -0.953125q1.390625 0 2.265625 0.953125q0.875 0.953125 0.875 2.5l0 0.375l-4.671875 0q0.078125 0.59375 0.53125 1.03125q0.46875 0.421875 1.28125 0.421875q0.390625 0 0.859375 -0.15625q0.484375 -0.171875 0.8125 -0.46875l0.734375 1.0625q-0.46875 0.4375 -1.15625 0.65625q-0.6875 0.21875 -1.4375 0.21875zm1.453125 -3.890625q-0.046875 -0.625 -0.484375 -1.0q-0.421875 -0.390625 -1.0625 -0.390625q-0.65625 0 -1.078125 0.40625q-0.40625 0.390625 -0.46875 0.984375l3.09375 0zm6.1730347 3.734375l0 -1.4375q3.0625 -2.296875 3.828125 -3.09375q0.765625 -0.796875 0.765625 -1.5q0 -0.5 -0.390625 -0.8125q-0.390625 -0.3125 -1.015625 -0.3125q-1.359375 0 -2.328125 1.0l-1.046875 -1.234375q0.625 -0.734375 1.515625 -1.0625q0.90625 -0.34375 1.8125 -0.34375q1.46875 0 2.390625 0.765625q0.9375 0.765625 0.9375 2.0q0 0.984375 -0.796875 2.015625q-0.78125 1.03125 -2.6875 2.390625l3.546875 0l0 1.625l-6.53125 0z" fill-rule="nonzero"></path><path fill="#000000" d="m513.0119 243.05722l0 -3.984375l-5.0625 0l0 3.984375l-1.078125 0l0 -8.671875l1.078125 0l0 3.734375l5.0625 0l0 -3.734375l1.078125 0l0 8.671875l-1.078125 0zm7.239563 0l0 -0.71875q-0.796875 0.875 -2.078125 0.875q-0.953125 0 -1.578125 -0.59375q-0.625 -0.609375 -0.625 -1.484375q0 -0.90625 0.609375 -1.484375q0.625 -0.578125 1.59375 -0.578125q1.34375 0 2.078125 0.84375l0 -1.125q0 -0.640625 -0.453125 -0.984375q-0.453125 -0.34375 -1.140625 -0.34375q-1.109375 0 -1.921875 0.875l-0.453125 -0.671875q1.0 -1.046875 2.5 -1.046875q1.171875 0 1.796875 0.5625q0.640625 0.5625 0.640625 1.5625l0 4.3125l-0.96875 0zm-1.734375 -0.546875q1.15625 0 1.734375 -0.78125l0 -1.1875q-0.578125 -0.765625 -1.734375 -0.765625q-0.6875 0 -1.125 0.390625q-0.421875 0.375 -0.421875 0.984375q0 0.59375 0.421875 0.984375q0.4375 0.375 1.125 0.375zm8.758301 0.546875l0 -0.71875q-0.796875 0.875 -2.078125 0.875q-0.953125 0 -1.578125 -0.59375q-0.625 -0.609375 -0.625 -1.484375q0 -0.90625 0.609375 -1.484375q0.625 -0.578125 1.59375 -0.578125q1.34375 0 2.078125 0.84375l0 -1.125q0 -0.640625 -0.453125 -0.984375q-0.453125 -0.34375 -1.140625 -0.34375q-1.109375 0 -1.921875 0.875l-0.453125 -0.671875q1.0 -1.046875 2.5 -1.046875q1.171875 0 1.796875 0.5625q0.640625 0.5625 0.640625 1.5625l0 4.3125l-0.96875 0zm-1.734375 -0.546875q1.15625 0 1.734375 -0.78125l0 -1.1875q-0.578125 -0.765625 -1.734375 -0.765625q-0.6875 0 -1.125 0.390625q-0.421875 0.375 -0.421875 0.984375q0 0.59375 0.421875 0.984375q0.4375 0.375 1.125 0.375zm4.8207397 0.546875l0 -6.28125l0.984375 0l0 1.015625q0.875 -1.140625 2.09375 -1.140625l0 1.0l-0.390625 -0.046875q-0.4375 0 -0.984375 0.328125q-0.53125 0.3125 -0.71875 0.671875l0 4.453125l-0.984375 0zm4.3983154 0l0 -8.671875l0.984375 0l0 8.671875l-0.984375 0zm5.8425293 0.15625q-1.421875 0 -2.3125 -0.921875q-0.890625 -0.921875 -0.890625 -2.375q0 -1.390625 0.875 -2.34375q0.890625 -0.953125 2.21875 -0.953125q1.359375 0 2.1875 0.9375q0.828125 0.9375 0.828125 2.4375l0 0.234375l-5.078125 0q0.046875 0.96875 0.6875 1.578125q0.65625 0.59375 1.578125 0.59375q1.140625 0 1.9375 -0.78125l0.46875 0.625q-0.96875 0.96875 -2.5 0.96875zm1.953125 -3.6875q0 -0.875 -0.578125 -1.484375q-0.578125 -0.609375 -1.5 -0.609375q-0.859375 0 -1.453125 0.609375q-0.578125 0.609375 -0.59375 1.484375l4.125 0zm10.284973 3.53125l0 -4.265625q0 -1.296875 -1.15625 -1.296875q-0.484375 0 -0.953125 0.296875q-0.453125 0.28125 -0.703125 0.65625l0 4.609375l-0.96875 0l0 -4.265625q0 -1.296875 -1.171875 -1.296875q-0.46875 0 -0.9375 0.296875q-0.453125 0.296875 -0.703125 0.671875l0 4.59375l-0.984375 0l0 -6.28125l0.984375 0l0 0.90625q0.21875 -0.375 0.828125 -0.71875q0.609375 -0.34375 1.203125 -0.34375q0.71875 0 1.125 0.34375q0.421875 0.328125 0.5625 0.828125q0.328125 -0.5 0.921875 -0.828125q0.59375 -0.34375 1.1875 -0.34375q1.75 0 1.75 1.90625l0 4.53125l-0.984375 0z" fill-rule="nonzero"></path><path fill="#000000" fill-opacity="0.0" d="m378.33072 89.71129l70.2677 -88.53544" fill-rule="evenodd"></path><path stroke="#595959" stroke-width="1.0" stroke-linejoin="round" stroke-linecap="butt" d="m378.33072 89.71129l70.2677 -88.53544" fill-rule="evenodd"></path><path fill="#000000" fill-opacity="0.0" d="m524.6772 89.71129l-75.71655 -89.25984" fill-rule="evenodd"></path><path stroke="#595959" stroke-width="1.0" stroke-linejoin="round" stroke-linecap="butt" d="m524.6772 89.71129l-75.71655 -89.25984" fill-rule="evenodd"></path><path fill="#000000" fill-opacity="0.0" d="m328.93964 189.05249l49.385834 -32.031494" fill-rule="evenodd"></path><path stroke="#595959" stroke-width="1.0" stroke-linejoin="round" stroke-linecap="butt" d="m328.93964 189.05249l46.51059 -30.16661" fill-rule="evenodd"></path><path fill="#595959" stroke="#595959" stroke-width="1.0" stroke-linecap="butt" d="m375.4502 158.88588l-0.33154297 1.5554657l1.9802856 -2.6248322l-3.204193 0.7378235z" fill-rule="evenodd"></path><path fill="#000000" fill-opacity="0.0" d="m228.0971 191.60367l150.23624 -34.582672" fill-rule="evenodd"></path><path stroke="#595959" stroke-width="1.0" stroke-linejoin="round" stroke-linecap="butt" d="m228.0971 191.60367l146.89648 -33.813904" fill-rule="evenodd"></path><path fill="#595959" stroke="#595959" stroke-width="1.0" stroke-linecap="butt" d="m374.9936 157.78976l-0.84365845 1.3481903l2.7587585 -1.7890167l-3.2633057 -0.40281677z" fill-rule="evenodd"></path><path fill="#000000" fill-opacity="0.0" d="m536.00525 191.60367l-11.338562 -34.582672" fill-rule="evenodd"></path><path stroke="#595959" stroke-width="1.0" stroke-linejoin="round" stroke-linecap="butt" d="m536.00525 191.60367l-10.270874 -31.326157" fill-rule="evenodd"></path><path fill="#595959" stroke="#595959" stroke-width="1.0" stroke-linecap="butt" d="m525.7344 160.27751l1.4190063 0.71824646l-2.03125 -2.585617l-0.10601807 3.2863464z" fill-rule="evenodd"></path><path fill="#000000" fill-opacity="0.0" d="m631.46716 189.05249l-106.8031 -32.031494" fill-rule="evenodd"></path><path stroke="#595959" stroke-width="1.0" stroke-linejoin="round" stroke-linecap="butt" d="m631.46716 189.05249l-103.52045 -31.046997" fill-rule="evenodd"></path><path fill="#595959" stroke="#595959" stroke-width="1.0" stroke-linecap="butt" d="m527.94666 158.0055l1.4002686 -0.7541199l-3.2825928 0.18959045l2.6364746 1.9647675z" fill-rule="evenodd"></path><path fill="#000000" fill-opacity="0.0" d="m441.2237 12.142656c-6.7585144 33.829018 -20.32492 66.55949 -22.682404 100.97638c-0.6604004 9.641312 -2.9182434 23.175964 5.123352 28.53543c4.908325 3.2712402 11.709015 1.4394531 17.559052 2.1942291c25.529602 3.2938538 51.670563 6.776245 75.36743 16.829391c8.593994 3.6458893 21.160767 1.7457886 26.341248 9.51181c22.797974 34.17659 24.011475 89.94008 61.461914 106.82939c23.894287 10.775787 52.625854 12.628174 78.29401 7.3175964c15.399292 -3.1860046 36.333435 -4.862335 43.170593 -19.02362c4.6383057 -9.60701 0.62390137 -22.987656 -5.8530273 -31.46457c-26.965332 -35.2919 -63.424316 -65.13542 -103.90289 -83.4147c-13.952515 -6.300644 -29.979858 -8.661987 -42.438293 -17.559052c-13.100403 -9.355492 13.099915 -38.937836 0 -48.29396c-21.487427 -15.346588 -49.06604 -20.074295 -71.70868 -33.658794c-21.527222 -12.915295 -39.522278 -47.14731 -63.658813 -40.244095c-8.938965 2.556614 0.74905396 18.986536 -2.1942139 27.805775" fill-rule="evenodd"></path><path stroke="#595959" stroke-width="2.0" stroke-linejoin="round" stroke-linecap="butt" stroke-dasharray="8.0,6.0" d="m441.2237 12.142656c-6.7585144 33.829018 -20.32492 66.55949 -22.682404 100.97638c-0.6604004 9.641312 -2.9182434 23.175964 5.123352 28.53543c4.908325 3.2712402 11.709015 1.4394531 17.559052 2.1942291c25.529602 3.2938538 51.670563 6.776245 75.36743 16.829391c8.593994 3.6458893 21.160767 1.7457886 26.341248 9.51181c22.797974 34.17659 24.011475 89.94008 61.461914 106.82939c23.894287 10.775787 52.625854 12.628174 78.29401 7.3175964c15.399292 -3.1860046 36.333435 -4.862335 43.170593 -19.02362c4.6383057 -9.60701 0.62390137 -22.987656 -5.8530273 -31.46457c-26.965332 -35.2919 -63.424316 -65.13542 -103.90289 -83.4147c-13.952515 -6.300644 -29.979858 -8.661987 -42.438293 -17.559052c-13.100403 -9.355492 13.099915 -38.937836 0 -48.29396c-21.487427 -15.346588 -49.06604 -20.074295 -71.70868 -33.658794c-21.527222 -12.915295 -39.522278 -47.14731 -63.658813 -40.244095c-8.938965 2.556614 0.74905396 18.986536 -2.1942139 27.805775" fill-rule="evenodd"></path></g></svg>

