<?xml version="1.0" standalone="yes"?>

<svg version="1.1" viewBox="0.0 0.0 960.0 540.0" fill="none" stroke="none" stroke-linecap="square" stroke-miterlimit="10" xmlns="http://www.w3.org/2000/svg" xmlns:xlink="http://www.w3.org/1999/xlink"><clipPath id="g287e6b1221_0_46.0"><path d="m0 0l960.0 0l0 540.0l-960.0 0l0 -540.0z" clip-rule="nonzero"></path></clipPath><g clip-path="url(#g287e6b1221_0_46.0)"><path fill="#ffffff" d="m0 0l960.0 0l0 540.0l-960.0 0z" fill-rule="evenodd"></path><path fill="#000000" fill-opacity="0.0" d="m770.21216 158.30708l-98.834656 52.031494" fill-rule="evenodd"></path><path stroke="#595959" stroke-width="1.0" stroke-linejoin="round" stroke-linecap="butt" d="m770.21216 158.30708l-98.834656 52.031494" fill-rule="evenodd"></path><path fill="#000000" fill-opacity="0.0" d="m770.21216 158.30708l94.48816 52.031494" fill-rule="evenodd"></path><path stroke="#595959" stroke-width="1.0" stroke-linejoin="round" stroke-linecap="butt" d="m770.21216 158.30708l94.48816 52.031494" fill-rule="evenodd"></path><path fill="#000000" fill-opacity="0.0" d="m671.3875 272.11673l-84.66138 85.66928" fill-rule="evenodd"></path><path stroke="#7f6000" stroke-width="3.0" stroke-linejoin="round" stroke-linecap="butt" d="m671.3875 272.11673l-84.66138 85.66928" fill-rule="evenodd"></path><path fill="#000000" fill-opacity="0.0" d="m671.3875 272.11673l49.41736 85.66928" fill-rule="evenodd"></path><path stroke="#00ff00" stroke-width="3.0" stroke-linejoin="round" stroke-linecap="butt" d="m671.3875 272.11673l49.41736 85.66928" fill-rule="evenodd"></path><path fill="#3c78d8" d="m734.9681 96.543304l70.48816 0l0 61.76378l-70.48816 0z" fill-rule="evenodd"></path><path stroke="#434343" stroke-width="2.0" stroke-linejoin="round" stroke-linecap="butt" d="m734.9681 96.543304l70.48816 0l0 61.76378l-70.48816 0z" fill-rule="evenodd"></path><path fill="#ffffff" d="m765.76965 138.87144q0.390625 0.1875 0.984375 0.1875q0.609375 0 1.015625 -0.25q0.40625 -0.25 0.71875 -0.96875l0.765625 -1.75l-4.84375 -11.71875l1.9375 0l3.859375 9.5l3.84375 -9.5l1.96875 0l-5.8125 13.953125q-0.953125 2.296875 -3.40625 2.34375q-0.6875 0 -1.3125 -0.171875l0.28125 -1.625z" fill-rule="nonzero"></path><path fill="#3c78d8" d="m636.14343 210.35294l70.48816 0l0 61.763794l-70.48816 0z" fill-rule="evenodd"></path><path stroke="#434343" stroke-width="2.0" stroke-linejoin="round" stroke-linecap="butt" d="m636.14343 210.35294l70.48816 0l0 61.763794l-70.48816 0z" fill-rule="evenodd"></path><path fill="#ffffff" d="m674.86804 249.77483l-3.484375 -4.75l-3.46875 4.75l-2.078125 0l4.453125 -5.953125l-4.203125 -5.640625l2.078125 0l3.21875 4.421875l3.21875 -4.421875l2.09375 0l-4.203125 5.640625l4.46875 5.953125l-2.09375 0z" fill-rule="nonzero"></path><path fill="#3c78d8" d="m815.28345 296.0092l49.41736 -85.6693l49.417297 85.6693z" fill-rule="evenodd"></path><path stroke="#000000" stroke-width="2.0" stroke-linejoin="round" stroke-linecap="butt" d="m815.28345 296.0092l49.41736 -85.6693l49.417297 85.6693z" fill-rule="evenodd"></path><path fill="#ffffff" d="m866.04193 272.41312q-3.53125 0 -5.890625 -2.328125q-2.34375 -2.328125 -2.34375 -5.9375q0 -3.625 2.34375 -5.953125q2.359375 -2.328125 5.890625 -2.328125q3.8125 0 6.078125 3.15625l-1.6875 0.9375q-0.6875 -1.0 -1.859375 -1.65625q-1.15625 -0.671875 -2.53125 -0.671875q-2.65625 0 -4.421875 1.859375q-1.75 1.84375 -1.75 4.65625q0 2.828125 1.734375 4.671875q1.75 1.828125 4.4375 1.828125q1.375 0 2.53125 -0.640625q1.171875 -0.65625 1.859375 -1.6875l1.703125 0.9375q-2.328125 3.15625 -6.09375 3.15625z" fill-rule="nonzero"></path><path fill="#3c78d8" d="m671.3779 443.45538l49.41736 -85.66928l49.417297 85.66928z" fill-rule="evenodd"></path><path stroke="#000000" stroke-width="2.0" stroke-linejoin="round" stroke-linecap="butt" d="m671.3779 443.45538l49.41736 -85.66928l49.417297 85.66928z" fill-rule="evenodd"></path><path fill="#ffffff" d="m715.1223 419.57806l0 -16.015625l7.125 0q2.046875 0 3.265625 1.125q1.21875 1.109375 1.21875 2.96875q0 1.40625 -0.78125 2.390625q-0.78125 0.984375 -2.015625 1.28125q1.265625 0.1875 2.1875 1.34375q0.921875 1.140625 0.921875 2.59375q0 1.953125 -1.234375 3.140625q-1.234375 1.171875 -3.390625 1.171875l-7.296875 0zm6.78125 -9.078125q1.375 0 2.0625 -0.71875q0.703125 -0.734375 0.703125 -1.84375q0 -1.078125 -0.703125 -1.828125q-0.6875 -0.765625 -2.0625 -0.765625l-4.796875 0l0 5.15625l4.796875 0zm0.109375 7.296875q1.40625 0 2.1875 -0.71875q0.78125 -0.734375 0.78125 -2.03125q0 -1.234375 -0.8125 -2.0q-0.8125 -0.765625 -2.15625 -0.765625l-4.90625 0l0 5.515625l4.90625 0z" fill-rule="nonzero"></path><path fill="#3c78d8" d="m537.3097 443.45538l49.41736 -85.66928l49.417297 85.66928z" fill-rule="evenodd"></path><path stroke="#000000" stroke-width="2.0" stroke-linejoin="round" stroke-linecap="butt" d="m537.3097 443.45538l49.41736 -85.66928l49.417297 85.66928z" fill-rule="evenodd"></path><path fill="#ffffff" d="m592.1279 419.57806l-1.421875 -3.546875l-7.96875 0l-1.40625 3.546875l-2.28125 0l6.421875 -16.015625l2.484375 0l6.453125 16.015625l-2.28125 0zm-5.40625 -13.9375l-3.40625 8.609375l6.796875 0l-3.390625 -8.609375z" fill-rule="nonzero"></path><path fill="#000000" fill-opacity="0.0" d="m294.68985 210.3517l-92.8504 -52.031494" fill-rule="evenodd"></path><path stroke="#595959" stroke-width="1.0" stroke-linejoin="round" stroke-linecap="butt" d="m294.68985 210.3517l-92.8504 -52.031494" fill-rule="evenodd"></path><path fill="#000000" fill-opacity="0.0" d="m294.68985 272.11548l74.834625 85.66931" fill-rule="evenodd"></path><path stroke="#595959" stroke-width="1.0" stroke-linejoin="round" stroke-linecap="butt" d="m294.68985 272.11548l74.834625 85.66931" fill-rule="evenodd"></path><path fill="#000000" fill-opacity="0.0" d="m201.83897 158.30832l-124.346466 52.031494" fill-rule="evenodd"></path><path stroke="#7f6000" stroke-width="3.0" stroke-linejoin="round" stroke-linecap="butt" d="m201.83897 158.30832l-124.346466 52.031494" fill-rule="evenodd"></path><path fill="#000000" fill-opacity="0.0" d="m294.68985 272.11548l-53.51181 85.66931" fill-rule="evenodd"></path><path stroke="#00ff00" stroke-width="3.0" stroke-linejoin="round" stroke-linecap="butt" d="m294.68985 272.11548l-53.51181 85.66931" fill-rule="evenodd"></path><path fill="#3c78d8" d="m259.44574 210.3517l70.48819 0l0 61.76378l-70.48819 0z" fill-rule="evenodd"></path><path stroke="#434343" stroke-width="2.0" stroke-linejoin="round" stroke-linecap="butt" d="m259.44574 210.3517l70.48819 0l0 61.76378l-70.48819 0z" fill-rule="evenodd"></path><path fill="#ffffff" d="m290.24738 252.67984q0.390625 0.1875 0.984375 0.1875q0.609375 0 1.015625 -0.25q0.40625 -0.25 0.71875 -0.96875l0.765625 -1.75l-4.84375 -11.71875l1.9375 0l3.859375 9.5l3.84375 -9.5l1.96875 0l-5.8125 13.953125q-0.953125 2.296875 -3.40625 2.34375q-0.6875 0 -1.3125 -0.171875l0.28125 -1.625z" fill-rule="nonzero"></path><path fill="#3c78d8" d="m166.59488 96.54454l70.488174 0l0 61.76378l-70.488174 0z" fill-rule="evenodd"></path><path stroke="#434343" stroke-width="2.0" stroke-linejoin="round" stroke-linecap="butt" d="m166.59488 96.54454l70.488174 0l0 61.76378l-70.488174 0z" fill-rule="evenodd"></path><path fill="#ffffff" d="m205.31949 135.96643l-3.484375 -4.75l-3.46875 4.75l-2.078125 0l4.453125 -5.953125l-4.203125 -5.640625l2.078125 0l3.21875 4.421875l3.21875 -4.421875l2.09375 0l-4.203125 5.640625l4.46875 5.953125l-2.09375 0z" fill-rule="nonzero"></path><path fill="#3c78d8" d="m320.10498 443.45538l49.417328 -85.66928l49.417328 85.66928z" fill-rule="evenodd"></path><path stroke="#000000" stroke-width="2.0" stroke-linejoin="round" stroke-linecap="butt" d="m320.10498 443.45538l49.417328 -85.66928l49.417328 85.66928z" fill-rule="evenodd"></path><path fill="#ffffff" d="m370.86346 419.8593q-3.53125 0 -5.890625 -2.328125q-2.34375 -2.328125 -2.34375 -5.9375q0 -3.625 2.34375 -5.953125q2.359375 -2.328125 5.890625 -2.328125q3.8125 0 6.078125 3.15625l-1.6875 0.9375q-0.6875 -1.0 -1.859375 -1.65625q-1.15625 -0.671875 -2.53125 -0.671875q-2.65625 0 -4.421875 1.859375q-1.75 1.84375 -1.75 4.65625q0 2.828125 1.734375 4.671875q1.75 1.828125 4.4375 1.828125q1.375 0 2.53125 -0.640625q1.171875 -0.65625 1.859375 -1.6875l1.703125 0.9375q-2.328125 3.15625 -6.09375 3.15625z" fill-rule="nonzero"></path><path fill="#3c78d8" d="m191.76115 443.45538l49.417328 -85.66928l49.417313 85.66928z" fill-rule="evenodd"></path><path stroke="#000000" stroke-width="2.0" stroke-linejoin="round" stroke-linecap="butt" d="m191.76115 443.45538l49.417328 -85.66928l49.417313 85.66928z" fill-rule="evenodd"></path><path fill="#ffffff" d="m235.5055 419.57806l0 -16.015625l7.125 0q2.046875 0 3.265625 1.125q1.21875 1.109375 1.21875 2.96875q0 1.40625 -0.78125 2.390625q-0.78125 0.984375 -2.015625 1.28125q1.265625 0.1875 2.1875 1.34375q0.921875 1.140625 0.921875 2.59375q0 1.953125 -1.234375 3.140625q-1.234375 1.171875 -3.390625 1.171875l-7.296875 0zm6.78125 -9.078125q1.375 0 2.0625 -0.71875q0.703125 -0.734375 0.703125 -1.84375q0 -1.078125 -0.703125 -1.828125q-0.6875 -0.765625 -2.0625 -0.765625l-4.796875 0l0 5.15625l4.796875 0zm0.109375 7.296875q1.40625 0 2.1875 -0.71875q0.78125 -0.734375 0.78125 -2.03125q0 -1.234375 -0.8125 -2.0q-0.8125 -0.765625 -2.15625 -0.765625l-4.90625 0l0 5.515625l4.90625 0z" fill-rule="nonzero"></path><path fill="#3c78d8" d="m28.070866 296.0092l49.417324 -85.6693l49.41732 85.6693z" fill-rule="evenodd"></path><path stroke="#000000" stroke-width="2.0" stroke-linejoin="round" stroke-linecap="butt" d="m28.070866 296.0092l49.417324 -85.6693l49.41732 85.6693z" fill-rule="evenodd"></path><path fill="#ffffff" d="m82.88909 272.13187l-1.421875 -3.546875l-7.96875 0l-1.40625 3.546875l-2.28125 0l6.421875 -16.015625l2.484375 0l6.453125 16.015625l-2.28125 0zm-5.40625 -13.9375l-3.40625 8.609375l6.796875 0l-3.390625 -8.609375z" fill-rule="nonzero"></path><path fill="#000000" d="m216.45657 188.66508l0 0l0 0c-8.660431 32.617416 -42.123688 52.04193 -74.74226 43.385864l-1.9225006 -0.5101776l-2.240158 8.437012l-12.394295 -21.352066l21.354927 -12.395966l-2.240158 8.437012l1.9225006 0.5101776l0 0c23.29898 6.182892 47.20131 -7.691757 53.38733 -30.989914l0 0z" fill-rule="evenodd"></path><path stroke="#000000" stroke-width="1.0" stroke-linejoin="round" stroke-linecap="butt" d="m216.45657 188.66508l0 0l0 0c-8.660431 32.617416 -42.123688 52.04193 -74.74226 43.385864l-1.9225006 -0.5101776l-2.240158 8.437012l-12.394295 -21.352066l21.354927 -12.395966l-2.240158 8.437012l1.9225006 0.5101776l0 0c23.29898 6.182892 47.20131 -7.691757 53.38733 -30.989914l0 0z" fill-rule="evenodd"></path><path fill="#000000" fill-opacity="0.0" d="m259.19403 168.00165l-154.36221 66.110245l39.65354 92.598434l154.3622 -66.11026z" fill-rule="evenodd"></path><path fill="#000000" d="m165.87967 270.28488l-4.939392 -3.3578186l-2.326828 0.9965515l1.9805756 4.625l-1.4506836 0.6213074l-4.9883423 -11.648743l4.6823883 -2.005371q1.6373901 -0.7012634 3.061081 -0.15515137q1.4236755 0.54611206 2.087967 2.097351q0.6273804 1.4650879 0.16746521 2.7329102q-0.45991516 1.2678223 -1.732132 1.9486694l5.1671143 3.413269l-1.7092133 0.73202515zm-4.754303 -4.94989q1.0485077 -0.44903564 1.4160004 -1.3373413q0.36749268 -0.88827515 -0.063064575 -1.8937378q-0.42440796 -0.99105835 -1.3147278 -1.3236694q-0.8964691 -0.34695435 -1.9449768 0.10211182l-3.0593414 1.3102417l1.9067535 4.452667l3.0593567 -1.3102722zm12.171082 2.0284119q-1.8384857 0.78738403 -3.5513916 0.042175293q-1.6985321 -0.7513428 -2.5289001 -2.6903992q-0.83651733 -1.9534302 -0.20207214 -3.6869507q0.6488037 -1.739685 2.4872894 -2.527069q1.8241119 -0.7812195 3.51651 -0.04425049q1.7067413 0.73083496 2.5432587 2.6842651q0.83036804 1.9390564 0.18771362 3.6930847q-0.62828064 1.7478943 -2.4524078 2.5291443zm-0.504364 -1.1778259q1.2208557 -0.52285767 1.6028137 -1.774292q0.39631653 -1.2575989 -0.21261597 -2.6795654q-0.6089325 -1.4219971 -1.7864075 -1.9885559q-1.1692657 -0.58706665 -2.3901367 -0.064208984q-1.220871 0.5228882 -1.6376953 1.7722473q-0.40248108 1.2432251 0.21261597 2.6795654q0.6212311 1.4507141 1.7843475 2.0234375q1.177475 0.56655884 2.4270782 0.03137207zm8.762711 -2.3590698q-1.8815613 0.80584717 -2.7303925 -1.1763l-2.3619232 -5.515564l-1.3932343 0.5966797l-0.49206543 -1.1490479l1.3932343 -0.5967102l-0.9902954 -2.3125l1.3214111 -0.5659332l0.9902954 2.3125l1.7092133 -0.7320099l0.49206543 1.1490631l-1.7092133 0.7320099l2.2450562 5.2426453q0.20298767 0.47399902 0.53323364 0.68951416q0.34461975 0.20935059 0.7755127 0.024810791q0.5458069 -0.23373413 0.7428894 -0.72610474l0.80607605 0.8106384q-0.31207275 0.779541 -1.3318634 1.2163086zm8.080902 -3.7158508l-0.41210938 -0.9623413q-0.5585022 1.6329956 -2.2820892 2.3711853q-1.2783203 0.54745483 -2.4701843 0.106048584q-1.1775208 -0.4475708 -1.688034 -1.63974q-0.52282715 -1.2208862 -0.021911621 -2.3532715q0.5009155 -1.1324158 1.7935944 -1.6860504q1.8097687 -0.77508545 3.278534 -0.044311523l-0.6519928 -1.522522q-0.36289978 -0.8474426 -1.1629791 -1.048706q-0.7918701 -0.2217865 -1.7254791 0.17805481q-1.4794006 0.63360596 -2.0809937 2.2850647l-0.9969177 -0.66090393q0.739151 -1.965332 2.7643433 -2.8326874q1.5512238 -0.6643524 2.7390137 -0.27218628q1.1816406 0.37782288 1.7536621 1.7136078l2.4849548 5.8028107l-1.3214111 0.5659485zm-2.6261597 0.25784302q1.5512085 -0.6643677 1.8634491 -2.03891l-0.68273926 -1.5943298q-1.2102661 -0.72250366 -2.7614899 -0.058166504q-0.933609 0.39987183 -1.2866974 1.1629944q-0.35310364 0.7631531 -0.0025024414 1.5818481q0.3444519 0.8043518 1.1404114 1.0753784q0.7959595 0.2710266 1.7295685 -0.1288147zm8.625092 -2.572113q-1.8815613 0.80584717 -2.7303925 -1.1763l-2.3619232 -5.5155487l-1.3932343 0.5966797l-0.49206543 -1.1490631l1.3932343 -0.59669495l-0.9902954 -2.3125153l1.3214111 -0.5659332l0.9902954 2.3125153l1.7092133 -0.73202515l0.49206543 1.1490784l-1.7092133 0.73202515l2.2450562 5.2426453q0.20298767 0.47399902 0.53323364 0.68948364q0.34461975 0.2093811 0.7755127 0.024841309q0.5458069 -0.23376465 0.7428894 -0.72612l0.80607605 0.81062317q-0.31207275 0.77957153 -1.3318634 1.2163086zm6.7081146 -2.87294q-1.895935 0.8119812 -3.6314087 0.09346008q-1.7272644 -0.7390442 -2.5637817 -2.6924744q-0.7996216 -1.8672485 -0.15490723 -3.6561584q0.64471436 -1.7889099 2.4257507 -2.5516968q1.8097534 -0.77508545 3.4713593 0.009094238q1.6554565 0.76979065 2.516571 2.7806702l0.14147949 0.33036804l-6.8368683 2.9280853q0.6253967 1.2619476 1.8377838 1.7115784q1.2062378 0.43525696 2.4558258 -0.09991455q1.5368652 -0.6582031 2.144577 -2.1763l1.0010223 0.59114075q-0.7391052 1.8463287 -2.8074036 2.7321472zm0.5002594 -6.095459q-0.49821472 -1.1634369 -1.6244202 -1.6499786q-1.1179962 -0.50704956 -2.3675995 0.028137207q-1.1634064 0.4982605 -1.5822754 1.6635132q-0.42500305 1.1508942 0.03012085 2.3327942l5.544174 -2.374466zm9.681061 1.4800262l-4.9883423 -11.648712l1.3070526 -0.55978394l4.9883423 11.648727l-1.3070526 0.5597687zm7.7571716 -3.0672607q-1.895935 0.8119812 -3.6314087 0.09346008q-1.7272797 -0.7390442 -2.563797 -2.6924744q-0.7996063 -1.8672485 -0.15489197 -3.6561584q0.64471436 -1.7889099 2.4257507 -2.5516968q1.8097534 -0.77508545 3.4713593 0.009094238q1.6554565 0.76979065 2.516571 2.7806702l0.14146423 0.33036804l-6.836853 2.9280853q0.6253967 1.2619476 1.8377838 1.7115784q1.2062378 0.43525696 2.4558258 -0.09991455q1.5368652 -0.6582031 2.1445618 -2.1763l1.0010376 0.59114075q-0.7391052 1.8463287 -2.8074036 2.7321472zm0.5002594 -6.095459q-0.49821472 -1.1634369 -1.6244202 -1.6499786q-1.1180115 -0.50704956 -2.3675995 0.028137207q-1.1634216 0.4982605 -1.5822754 1.6635132q-0.4250183 1.1508942 0.03012085 2.332779l5.544174 -2.3744507zm5.6299133 3.2150574l-3.1184845 -7.282242l-1.4075928 0.60284424l-0.49206543 -1.1490784l1.4075775 -0.60284424l-0.27677917 -0.64634705q-0.56588745 -1.3214417 -0.220932 -2.302063q0.35316467 -1.0011292 1.487854 -1.4871063q1.0628662 -0.4552002 2.0578156 -0.11642456l-0.18289185 1.0812073q-0.62364197 -0.22584534 -1.2268982 0.03251648q-1.3214111 0.5659332 -0.60791016 2.2320862l0.27679443 0.64634705l1.7092133 -0.73202515l0.49206543 1.1490784l-1.7092133 0.73202515l3.1184845 7.282242l-1.3070374 0.55978394zm6.712265 -2.6197662q-1.8815613 0.80584717 -2.7303925 -1.1763153l-2.3619232 -5.5155487l-1.393219 0.59669495l-0.4920807 -1.1490784l1.3932343 -0.5966797l-0.9902954 -2.3125153l1.3214111 -0.5659332l0.9902954 2.3125153l1.7092133 -0.73202515l0.49206543 1.1490784l-1.7092133 0.7320099l2.2450562 5.2426453q0.20298767 0.47399902 0.53323364 0.68951416q0.34461975 0.20935059 0.7755127 0.024810791q0.5458069 -0.23374939 0.7428894 -0.72610474l0.80607605 0.8106079q-0.31207275 0.77957153 -1.3318634 1.2163239z" fill-rule="nonzero"></path><path fill="#eeeeee" d="m460.69553 255.29659l29.748047 0l0 -9.8346405l19.669281 19.669281l-19.669281 19.669312l0 -9.834656l-29.748047 0z" fill-rule="evenodd"></path><path stroke="#595959" stroke-width="1.0" stroke-linejoin="round" stroke-linecap="butt" d="m460.69553 255.29659l29.748047 0l0 -9.8346405l19.669281 19.669281l-19.669281 19.669312l0 -9.834656l-29.748047 0z" fill-rule="evenodd"></path></g></svg>

