<?xml version="1.0" standalone="yes"?>

<svg version="1.1" viewBox="0.0 0.0 960.0 540.0" fill="none" stroke="none" stroke-linecap="square" stroke-miterlimit="10" xmlns="http://www.w3.org/2000/svg" xmlns:xlink="http://www.w3.org/1999/xlink"><clipPath id="g25e58ad6d8_0_0.0"><path d="m0 0l960.0 0l0 540.0l-960.0 0l0 -540.0z" clip-rule="nonzero"></path></clipPath><g clip-path="url(#g25e58ad6d8_0_0.0)"><path fill="#ffffff" d="m0 0l960.0 0l0 540.0l-960.0 0z" fill-rule="evenodd"></path><path fill="#6d9eeb" d="m410.54633 52.742783l0 0c0 -26.492275 20.982697 -47.968506 46.86615 -47.968506l0 0c12.429657 0 24.35025 5.0538106 33.139374 14.04965c8.789093 8.99584 13.726776 21.196817 13.726776 33.918854l0 0c0 26.492271 -20.982697 47.968506 -46.86615 47.968506l0 0c-25.883453 0 -46.86615 -21.476234 -46.86615 -47.968506z" fill-rule="evenodd"></path><path stroke="#595959" stroke-width="1.0" stroke-linejoin="round" stroke-linecap="butt" d="m410.54633 52.742783l0 0c0 -26.492275 20.982697 -47.968506 46.86615 -47.968506l0 0c12.429657 0 24.35025 5.0538106 33.139374 14.04965c8.789093 8.99584 13.726776 21.196817 13.726776 33.918854l0 0c0 26.492271 -20.982697 47.968506 -46.86615 47.968506l0 0c-25.883453 0 -46.86615 -21.476234 -46.86615 -47.968506z" fill-rule="evenodd"></path><path fill="#f9cb9c" d="m298.9616 199.65373l0 0c0 -26.49228 20.982666 -47.968506 46.86612 -47.968506l0 0c12.4296875 0 24.35028 5.0538025 33.139374 14.049652c8.789093 8.995834 13.726776 21.196808 13.726776 33.918854l0 0c0 26.492264 -20.982697 47.968506 -46.86615 47.968506l0 0c-25.883453 0 -46.86612 -21.476242 -46.86612 -47.968506z" fill-rule="evenodd"></path><path stroke="#595959" stroke-width="1.0" stroke-linejoin="round" stroke-linecap="butt" d="m298.9616 199.65373l0 0c0 -26.49228 20.982666 -47.968506 46.86612 -47.968506l0 0c12.4296875 0 24.35028 5.0538025 33.139374 14.049652c8.789093 8.995834 13.726776 21.196808 13.726776 33.918854l0 0c0 26.492264 -20.982697 47.968506 -46.86615 47.968506l0 0c-25.883453 0 -46.86612 -21.476242 -46.86612 -47.968506z" fill-rule="evenodd"></path><path fill="#f9cb9c" d="m509.1664 199.67297l0 0c0 -26.49228 20.982697 -47.968506 46.86612 -47.968506l0 0c12.4296875 0 24.35028 5.0538025 33.139404 14.049652c8.7890625 8.995834 13.726746 21.196808 13.726746 33.918854l0 0c0 26.492264 -20.982666 47.968506 -46.86615 47.968506l0 0c-25.883423 0 -46.86612 -21.476242 -46.86612 -47.968506z" fill-rule="evenodd"></path><path stroke="#595959" stroke-width="1.0" stroke-linejoin="round" stroke-linecap="butt" d="m509.1664 199.67297l0 0c0 -26.49228 20.982697 -47.968506 46.86612 -47.968506l0 0c12.4296875 0 24.35028 5.0538025 33.139404 14.049652c8.7890625 8.995834 13.726746 21.196808 13.726746 33.918854l0 0c0 26.492264 -20.982666 47.968506 -46.86615 47.968506l0 0c-25.883423 0 -46.86612 -21.476242 -46.86612 -47.968506z" fill-rule="evenodd"></path><path fill="#b6d7a8" d="m242.33662 373.61758l0 0c0 -26.492249 20.982681 -47.968506 46.866135 -47.968506l0 0c12.4296875 0 24.35025 5.053833 33.139374 14.049652c8.789093 8.99585 13.726776 21.196838 13.726776 33.918854l0 0c0 26.49228 -20.982697 47.968506 -46.86615 47.968506l0 0c-25.883453 0 -46.866135 -21.476227 -46.866135 -47.968506z" fill-rule="evenodd"></path><path stroke="#595959" stroke-width="1.0" stroke-linejoin="round" stroke-linecap="butt" d="m242.33662 373.61758l0 0c0 -26.492249 20.982681 -47.968506 46.866135 -47.968506l0 0c12.4296875 0 24.35025 5.053833 33.139374 14.049652c8.789093 8.99585 13.726776 21.196838 13.726776 33.918854l0 0c0 26.49228 -20.982697 47.968506 -46.86615 47.968506l0 0c-25.883453 0 -46.866135 -21.476227 -46.866135 -47.968506z" fill-rule="evenodd"></path><path fill="#b6d7a8" d="m348.88434 373.61758l0 0c0 -26.492249 20.982697 -47.968506 46.86615 -47.968506l0 0c12.429657 0 24.35025 5.053833 33.139374 14.049652c8.789093 8.99585 13.726776 21.196838 13.726776 33.918854l0 0c0 26.49228 -20.982697 47.968506 -46.86615 47.968506l0 0c-25.883453 0 -46.86615 -21.476227 -46.86615 -47.968506z" fill-rule="evenodd"></path><path stroke="#595959" stroke-width="1.0" stroke-linejoin="round" stroke-linecap="butt" d="m348.88434 373.61758l0 0c0 -26.492249 20.982697 -47.968506 46.86615 -47.968506l0 0c12.429657 0 24.35025 5.053833 33.139374 14.049652c8.789093 8.99585 13.726776 21.196838 13.726776 33.918854l0 0c0 26.49228 -20.982697 47.968506 -46.86615 47.968506l0 0c-25.883453 0 -46.86615 -21.476227 -46.86615 -47.968506z" fill-rule="evenodd"></path><path fill="#b6d7a8" d="m462.26962 373.61182l0 0c0 -26.49228 20.982697 -47.968506 46.86615 -47.968506l0 0c12.429657 0 24.35025 5.0538025 33.139374 14.049652c8.7890625 8.99585 13.726746 21.196808 13.726746 33.918854l0 0c0 26.49228 -20.982666 47.968506 -46.86612 47.968506l0 0c-25.883453 0 -46.86615 -21.476227 -46.86615 -47.968506z" fill-rule="evenodd"></path><path stroke="#595959" stroke-width="1.0" stroke-linejoin="round" stroke-linecap="butt" d="m462.26962 373.61182l0 0c0 -26.49228 20.982697 -47.968506 46.86615 -47.968506l0 0c12.429657 0 24.35025 5.0538025 33.139374 14.049652c8.7890625 8.99585 13.726746 21.196808 13.726746 33.918854l0 0c0 26.49228 -20.982666 47.968506 -46.86612 47.968506l0 0c-25.883453 0 -46.86615 -21.476227 -46.86615 -47.968506z" fill-rule="evenodd"></path><path fill="#b6d7a8" d="m568.8211 373.60797l0 0c0 -26.49228 20.982666 -47.968506 46.86615 -47.968506l0 0c12.4296875 0 24.35022 5.0538025 33.139343 14.049652c8.789124 8.99585 13.726807 21.196808 13.726807 33.918854l0 0c0 26.49228 -20.982727 47.968506 -46.86615 47.968506l0 0c-25.883484 0 -46.86615 -21.476227 -46.86615 -47.968506z" fill-rule="evenodd"></path><path stroke="#595959" stroke-width="1.0" stroke-linejoin="round" stroke-linecap="butt" d="m568.8211 373.60797l0 0c0 -26.49228 20.982666 -47.968506 46.86615 -47.968506l0 0c12.4296875 0 24.35022 5.0538025 33.139343 14.049652c8.789124 8.99585 13.726807 21.196808 13.726807 33.918854l0 0c0 26.49228 -20.982727 47.968506 -46.86615 47.968506l0 0c-25.883484 0 -46.86615 -21.476227 -46.86615 -47.968506z" fill-rule="evenodd"></path><path fill="#000000" fill-opacity="0.0" d="m457.41248 100.71129l-111.590546 50.960632" fill-rule="evenodd"></path><path stroke="#595959" stroke-width="1.0" stroke-linejoin="round" stroke-linecap="butt" d="m457.41248 100.71129l-111.590546 50.960632" fill-rule="evenodd"></path><path fill="#000000" fill-opacity="0.0" d="m457.41248 100.71129l98.6142 50.992126" fill-rule="evenodd"></path><path stroke="#595959" stroke-width="1.0" stroke-linejoin="round" stroke-linecap="butt" d="m457.41248 100.71129l98.6142 50.992126" fill-rule="evenodd"></path><path fill="#000000" fill-opacity="0.0" d="m345.82773 247.62224l-56.629913 78.01573" fill-rule="evenodd"></path><path stroke="#595959" stroke-width="1.0" stroke-linejoin="round" stroke-linecap="butt" d="m345.82773 247.62224l-56.629913 78.01573" fill-rule="evenodd"></path><path fill="#000000" fill-opacity="0.0" d="m345.82773 247.62224l49.921265 78.01573" fill-rule="evenodd"></path><path stroke="#595959" stroke-width="1.0" stroke-linejoin="round" stroke-linecap="butt" d="m345.82773 247.62224l49.921265 78.01573" fill-rule="evenodd"></path><path fill="#000000" fill-opacity="0.0" d="m556.03253 247.64148l-46.897614 78.01575" fill-rule="evenodd"></path><path stroke="#595959" stroke-width="1.0" stroke-linejoin="round" stroke-linecap="butt" d="m556.03253 247.64148l-46.897614 78.01575" fill-rule="evenodd"></path><path fill="#000000" fill-opacity="0.0" d="m556.03253 247.64148l59.653564 77.98425" fill-rule="evenodd"></path><path stroke="#595959" stroke-width="1.0" stroke-linejoin="round" stroke-linecap="butt" d="m556.03253 247.64148l59.653564 77.98425" fill-rule="evenodd"></path><path fill="#000000" fill-opacity="0.0" d="m699.80585 267.42508l121.102356 0l0 67.212585l-121.102356 0z" fill-rule="evenodd"></path><path fill="#000000" d="m713.134 294.57944q-2.328125 0 -3.703125 -1.453125l0.75 -1.015625q0.453125 0.53125 1.25 0.921875q0.8125 0.375 1.765625 0.375q1.0625 0 1.609375 -0.4375q0.5625 -0.453125 0.5625 -1.140625q0 -0.59375 -0.609375 -0.9375q-0.59375 -0.359375 -2.234375 -0.75q-1.375 -0.28125 -2.109375 -0.890625q-0.734375 -0.625 -0.734375 -1.671875q0 -1.15625 0.921875 -1.890625q0.9375 -0.75 2.5 -0.75q2.0625 0 3.390625 1.328125l-0.65625 0.984375q-0.421875 -0.484375 -1.140625 -0.8125q-0.703125 -0.34375 -1.59375 -0.34375q-0.953125 0 -1.5 0.421875q-0.53125 0.421875 -0.53125 1.03125q0 0.546875 0.609375 0.875q0.609375 0.3125 2.234375 0.65625q1.390625 0.328125 2.109375 0.984375q0.71875 0.65625 0.71875 1.734375q0 1.28125 -0.984375 2.03125q-0.984375 0.75 -2.625 0.75zm11.971985 -0.234375l0 -1.296875q-0.53125 0.609375 -1.390625 1.078125q-0.859375 0.453125 -1.890625 0.453125q-2.921875 0 -2.921875 -2.9375l0 -6.46875l1.421875 0l0 6.03125q0 1.09375 0.5 1.59375q0.5 0.5 1.5625 0.5q0.828125 0 1.5625 -0.40625q0.75 -0.421875 1.15625 -0.984375l0 -6.734375l1.421875 0l0 9.171875l-1.421875 0zm5.498352 -2.484375q0.390625 0.609375 1.140625 1.03125q0.75 0.40625 1.609375 0.40625q1.34375 0 2.140625 -0.96875q0.8125 -0.984375 0.8125 -2.5625q0 -1.59375 -0.796875 -2.5625q-0.796875 -0.984375 -2.15625 -0.984375q-0.859375 0 -1.609375 0.4375q-0.75 0.421875 -1.140625 1.03125l0 4.171875zm-1.421875 2.484375l0 -12.671875l1.421875 0l0 4.875q1.1875 -1.609375 3.109375 -1.609375q1.8125 0 2.9375 1.328125q1.140625 1.328125 1.140625 3.5q0 2.203125 -1.140625 3.515625q-1.125 1.296875 -2.9375 1.296875q-0.96875 0 -1.78125 -0.453125q-0.8125 -0.453125 -1.328125 -1.15625l0 1.375l-1.421875 0zm13.055481 0.234375q-2.046875 0 -2.046875 -2.15625l0 -6.0l-1.515625 0l0 -1.25l1.515625 0l0 -2.515625l1.4375 0l0 2.515625l1.859375 0l0 1.25l-1.859375 0l0 5.703125q0 0.515625 0.21875 0.84375q0.234375 0.328125 0.703125 0.328125q0.59375 0 0.96875 -0.375l0.421875 1.0625q-0.59375 0.59375 -1.703125 0.59375zm3.1567993 -0.234375l0 -9.171875l1.421875 0l0 1.484375q1.28125 -1.671875 3.0625 -1.671875l0 1.453125l-0.5625 -0.0625q-0.65625 0 -1.4375 0.46875q-0.765625 0.46875 -1.0625 1.0l0 6.5l-1.421875 0zm10.297241 0.234375q-2.0625 0 -3.375 -1.34375q-1.296875 -1.359375 -1.296875 -3.484375q0 -2.03125 1.296875 -3.421875q1.296875 -1.390625 3.234375 -1.390625q1.96875 0 3.1875 1.375q1.21875 1.359375 1.21875 3.546875l0 0.359375l-7.4375 0q0.078125 1.40625 1.015625 2.296875q0.9375 0.875 2.296875 0.875q1.671875 0 2.828125 -1.15625l0.6875 0.9375q-1.40625 1.40625 -3.65625 1.40625zm2.859375 -5.40625q0 -1.265625 -0.84375 -2.15625q-0.828125 -0.90625 -2.1875 -0.90625q-1.265625 0 -2.109375 0.90625q-0.84375 0.890625 -0.890625 2.15625l6.03125 0zm7.644043 5.40625q-2.0625 0 -3.375 -1.34375q-1.296875 -1.359375 -1.296875 -3.484375q0 -2.03125 1.296875 -3.421875q1.296875 -1.390625 3.234375 -1.390625q1.96875 0 3.1875 1.375q1.21875 1.359375 1.21875 3.546875l0 0.359375l-7.4375 0q0.078125 1.40625 1.015625 2.296875q0.9375 0.875 2.296875 0.875q1.671875 0 2.828125 -1.15625l0.6875 0.9375q-1.40625 1.40625 -3.65625 1.40625zm2.859375 -5.40625q0 -1.265625 -0.84375 -2.15625q-0.828125 -0.90625 -2.1875 -0.90625q-1.265625 0 -2.109375 0.90625q-0.84375 0.890625 -0.890625 2.15625l6.03125 0z" fill-rule="nonzero"></path><path fill="#000000" fill-opacity="0.0" d="m555.131 6.540858l121.102356 0l0 67.2126l-121.102356 0z" fill-rule="evenodd"></path><path fill="#000000" d="m565.55286 33.460857l0 -9.171877l1.421875 0l0 1.484375q1.28125 -1.671875 3.0625 -1.671875l0 1.453125l-0.5625 -0.0625q-0.65625 0 -1.4375 0.46875q-0.765625 0.46875 -1.0625 1.0l0 6.500002l-1.421875 0zm10.17218 0.234375q-2.0 0 -3.28125 -1.359375q-1.265625 -1.3593769 -1.265625 -3.468752q0 -2.125 1.265625 -3.46875q1.28125 -1.34375 3.28125 -1.34375q1.984375 0 3.25 1.34375q1.28125 1.34375 1.28125 3.46875q0 2.109375 -1.28125 3.468752q-1.265625 1.359375 -3.25 1.359375zm0 -1.28125q1.328125 0 2.171875 -1.0000019q0.859375 -1.0 0.859375 -2.546875q0 -1.546875 -0.859375 -2.53125q-0.84375 -1.0 -2.171875 -1.0q-1.328125 0 -2.203125 0.984375q-0.859375 0.984375 -0.859375 2.546875q0 1.578125 0.84375 2.5625q0.859375 0.9843769 2.21875 0.9843769zm10.671387 1.28125q-2.0 0 -3.28125 -1.359375q-1.265625 -1.3593769 -1.265625 -3.468752q0 -2.125 1.265625 -3.46875q1.28125 -1.34375 3.28125 -1.34375q1.984375 0 3.25 1.34375q1.28125 1.34375 1.28125 3.46875q0 2.109375 -1.28125 3.468752q-1.265625 1.359375 -3.25 1.359375zm0 -1.28125q1.328125 0 2.171875 -1.0000019q0.859375 -1.0 0.859375 -2.546875q0 -1.546875 -0.859375 -2.53125q-0.84375 -1.0 -2.171875 -1.0q-1.328125 0 -2.203125 0.984375q-0.859375 0.984375 -0.859375 2.546875q0 1.578125 0.84375 2.5625q0.859375 0.9843769 2.21875 0.9843769zm8.983887 1.28125q-2.046875 0 -2.046875 -2.156252l0 -6.0l-1.515625 0l0 -1.25l1.515625 0l0 -2.515625l1.4375 0l0 2.515625l1.859375 0l0 1.25l-1.859375 0l0 5.703125q0 0.515625 0.21875 0.8437519q0.234375 0.328125 0.703125 0.328125q0.59375 0 0.96875 -0.375l0.421875 1.0625q-0.59375 0.59375 -1.703125 0.59375z" fill-rule="nonzero"></path><path fill="#000000" fill-opacity="0.0" d="m243.65977 477.55188l147.71654 0l0 67.212585l-147.71654 0z" fill-rule="evenodd"></path><path fill="#000000" d="m254.08165 504.47186l0 -12.671875l1.421875 0l0 12.671875l-1.421875 0zm8.338272 0.234375q-2.0625 0 -3.375 -1.34375q-1.296875 -1.359375 -1.296875 -3.484375q0 -2.03125 1.296875 -3.421875q1.296875 -1.390625 3.234375 -1.390625q1.96875 0 3.1875 1.375q1.21875 1.359375 1.21875 3.546875l0 0.359375l-7.4375 0q0.078125 1.40625 1.015625 2.296875q0.9375 0.875 2.296875 0.875q1.671875 0 2.828125 -1.15625l0.6875 0.9375q-1.40625 1.40625 -3.65625 1.40625zm2.859375 -5.40625q0 -1.265625 -0.84375 -2.15625q-0.828125 -0.90625 -2.1875 -0.90625q-1.265625 0 -2.109375 0.90625q-0.84375 0.890625 -0.890625 2.15625l6.03125 0zm9.237854 5.171875l0 -1.046875q-1.15625 1.28125 -3.03125 1.28125q-1.390625 0 -2.3125 -0.875q-0.90625 -0.875 -0.90625 -2.171875q0 -1.328125 0.90625 -2.171875q0.90625 -0.84375 2.3125 -0.84375q1.96875 0 3.03125 1.25l0 -1.65625q0 -0.921875 -0.65625 -1.421875q-0.640625 -0.515625 -1.65625 -0.515625q-1.609375 0 -2.8125 1.28125l-0.65625 -1.0q1.453125 -1.515625 3.65625 -1.515625q1.6875 0 2.625 0.828125q0.9375 0.8125 0.9375 2.265625l0 6.3125l-1.4375 0zm-2.515625 -0.796875q1.6875 0 2.515625 -1.140625l0 -1.734375q-0.828125 -1.140625 -2.515625 -1.140625q-1.015625 0 -1.640625 0.5625q-0.625 0.5625 -0.625 1.453125q0 0.875 0.625 1.4375q0.625 0.5625 1.640625 0.5625zm7.019348 0.796875l0 -7.921875l-1.53125 0l0 -1.25l1.53125 0l0 -0.703125q0 -1.4375 0.703125 -2.203125q0.71875 -0.78125 1.953125 -0.78125q1.15625 0 1.9375 0.703125l-0.59375 0.921875q-0.484375 -0.453125 -1.140625 -0.453125q-1.4375 0 -1.4375 1.8125l0 0.703125l1.859375 0l0 1.25l-1.859375 0l0 7.921875l-1.421875 0zm9.749268 0.375l0 -13.421875l1.046875 0l0 13.421875l-1.046875 0zm12.734161 -0.140625q-2.015625 0 -3.296875 -1.375q-1.28125 -1.375 -1.28125 -3.453125q0 -2.078125 1.28125 -3.4375q1.28125 -1.375 3.296875 -1.375q2.125 0 3.359375 1.59375l-0.9375 0.875q-0.875 -1.1875 -2.34375 -1.1875q-1.40625 0 -2.296875 0.984375q-0.875 0.96875 -0.875 2.546875q0 1.59375 0.875 2.578125q0.875 0.96875 2.296875 0.96875q1.4375 0 2.34375 -1.1875l0.9375 0.859375q-1.234375 1.609375 -3.359375 1.609375zm11.406708 -0.234375l0 -6.046875q0 -1.015625 -0.484375 -1.546875q-0.484375 -0.53125 -1.59375 -0.53125q-0.78125 0 -1.515625 0.40625q-0.71875 0.390625 -1.203125 1.015625l0 6.703125l-1.421875 0l0 -12.671875l1.421875 0l0 4.828125q0.609375 -0.703125 1.484375 -1.125q0.875 -0.4375 1.8125 -0.4375q2.921875 0 2.921875 2.921875l0 6.484375l-1.421875 0zm4.7826233 -10.484375q-0.375 0 -0.671875 -0.265625q-0.28125 -0.28125 -0.28125 -0.6875q0 -0.40625 0.28125 -0.6875q0.296875 -0.28125 0.671875 -0.28125q0.40625 0 0.6875 0.28125q0.28125 0.28125 0.28125 0.6875q0 0.40625 -0.28125 0.6875q-0.28125 0.265625 -0.6875 0.265625zm-0.703125 10.484375l0 -9.171875l1.421875 0l0 9.171875l-1.421875 0zm4.1976624 0l0 -12.671875l1.421875 0l0 12.671875l-1.421875 0zm10.853912 0l0 -1.375q-0.515625 0.703125 -1.328125 1.15625q-0.796875 0.453125 -1.765625 0.453125q-1.84375 0 -2.96875 -1.3125q-1.125 -1.3125 -1.125 -3.5q0 -2.203125 1.125 -3.515625q1.140625 -1.3125 2.96875 -1.3125q0.921875 0 1.734375 0.4375q0.8125 0.421875 1.359375 1.171875l0 -4.875l1.421875 0l0 12.671875l-1.421875 0zm-2.765625 -1.046875q0.859375 0 1.609375 -0.40625q0.765625 -0.421875 1.15625 -1.03125l0 -4.171875q-0.390625 -0.609375 -1.15625 -1.03125q-0.75 -0.4375 -1.609375 -0.4375q-1.328125 0 -2.140625 0.96875q-0.796875 0.96875 -0.796875 2.578125q0 1.578125 0.796875 2.5625q0.796875 0.96875 2.140625 0.96875z" fill-rule="nonzero"></path><path fill="#000000" fill-opacity="0.0" d="m165.68767 228.52568l110.55116 0l0 67.2126l-110.55116 0z" fill-rule="evenodd"></path><path fill="#000000" d="m180.6408 255.68005q-1.96875 0 -3.109375 -1.625l0 4.890625l-1.421875 0l0 -12.671875l1.421875 0l0 1.359375q0.5 -0.703125 1.3125 -1.140625q0.828125 -0.453125 1.796875 -0.453125q1.84375 0 2.953125 1.296875q1.125 1.28125 1.125 3.515625q0 2.203125 -1.109375 3.515625q-1.109375 1.3125 -2.96875 1.3125zm-0.359375 -1.28125q1.328125 0 2.125 -0.96875q0.8125 -0.96875 0.8125 -2.578125q0 -1.578125 -0.796875 -2.546875q-0.796875 -0.984375 -2.140625 -0.984375q-0.859375 0 -1.609375 0.421875q-0.75 0.421875 -1.140625 1.03125l0 4.140625q0.390625 0.609375 1.140625 1.046875q0.75 0.4375 1.609375 0.4375zm12.233871 1.046875l0 -1.046875q-1.15625 1.28125 -3.03125 1.28125q-1.390625 0 -2.3125 -0.875q-0.90625 -0.875 -0.90625 -2.171875q0 -1.328125 0.90625 -2.171875q0.90625 -0.84375 2.3125 -0.84375q1.96875 0 3.03125 1.25l0 -1.65625q0 -0.921875 -0.65625 -1.421875q-0.640625 -0.515625 -1.65625 -0.515625q-1.609375 0 -2.8125 1.28125l-0.65625 -1.0q1.453125 -1.515625 3.65625 -1.515625q1.6875 0 2.625 0.828125q0.9375 0.8125 0.9375 2.265625l0 6.3125l-1.4375 0zm-2.515625 -0.796875q1.6875 0 2.515625 -1.140625l0 -1.734375q-0.828125 -1.140625 -2.515625 -1.140625q-1.015625 0 -1.640625 0.5625q-0.625 0.5625 -0.625 1.453125q0 0.875 0.625 1.4375q0.625 0.5625 1.640625 0.5625zm6.613098 0.796875l0 -9.171875l1.421875 0l0 1.484375q1.28125 -1.671875 3.0625 -1.671875l0 1.453125l-0.5625 -0.0625q-0.65625 0 -1.4375 0.46875q-0.765625 0.46875 -1.0625 1.0l0 6.5l-1.421875 0zm10.297195 0.234375q-2.0625 0 -3.375 -1.34375q-1.296875 -1.359375 -1.296875 -3.484375q0 -2.03125 1.296875 -3.421875q1.296875 -1.390625 3.234375 -1.390625q1.96875 0 3.1875 1.375q1.21875 1.359375 1.21875 3.546875l0 0.359375l-7.4375 0q0.078125 1.40625 1.015625 2.296875q0.9375 0.875 2.296875 0.875q1.671875 0 2.828125 -1.15625l0.6875 0.9375q-1.40625 1.40625 -3.65625 1.40625zm2.859375 -5.40625q0 -1.265625 -0.84375 -2.15625q-0.828125 -0.90625 -2.1875 -0.90625q-1.265625 0 -2.109375 0.90625q-0.84375 0.890625 -0.890625 2.15625l6.03125 0zm9.706589 5.171875l0 -6.0q0 -1.21875 -0.5625 -1.671875q-0.5625 -0.453125 -1.5 -0.453125q-0.796875 0 -1.5625 0.421875q-0.765625 0.421875 -1.15625 1.0l0 6.703125l-1.421875 0l0 -9.171875l1.421875 0l0 1.328125q0.59375 -0.6875 1.453125 -1.125q0.875 -0.4375 1.828125 -0.4375q2.921875 0 2.921875 2.96875l0 6.4375l-1.421875 0zm6.404602 0.234375q-2.046875 0 -2.046875 -2.15625l0 -6.0l-1.515625 0l0 -1.25l1.515625 0l0 -2.515625l1.4375 0l0 2.515625l1.859375 0l0 1.25l-1.859375 0l0 5.703125q0 0.515625 0.21875 0.84375q0.234375 0.328125 0.703125 0.328125q0.59375 0 0.96875 -0.375l0.421875 1.0625q-0.59375 0.59375 -1.703125 0.59375z" fill-rule="nonzero"></path><path fill="#000000" d="m184.35954 277.44568q-0.6875 -0.59375 -1.390625 -1.328125q-1.5625 1.5625 -3.640625 1.5625q-1.828125 0 -2.890625 -0.953125q-1.0625 -0.96875 -1.0625 -2.59375q0 -1.1875 0.65625 -2.09375q0.671875 -0.90625 2.140625 -1.65625q-0.96875 -1.59375 -0.96875 -2.859375q0 -1.234375 0.890625 -2.078125q0.90625 -0.859375 2.296875 -0.859375q1.328125 0 2.09375 0.6875q0.765625 0.671875 0.765625 1.796875q0 0.765625 -0.328125 1.34375q-0.328125 0.578125 -0.9375 1.0625q-0.609375 0.484375 -1.953125 1.171875q0.609375 0.828125 1.453125 1.796875l1.5 1.6875q0.859375 -1.265625 1.375 -2.875l1.234375 0.53125q-0.890625 2.078125 -1.734375 3.265625q0.84375 0.890625 2.46875 2.390625l-1.96875 0zm-4.90625 -0.953125q1.40625 0 2.65625 -1.25q-2.203125 -2.28125 -3.34375 -3.9375q-0.796875 0.5 -1.328125 1.125q-0.53125 0.625 -0.53125 1.609375q0 1.09375 0.71875 1.78125q0.734375 0.671875 1.828125 0.671875zm-0.78125 -8.953125q0 0.90625 0.765625 2.1875q1.40625 -0.671875 1.953125 -1.265625q0.5625 -0.59375 0.5625 -1.328125q0 -0.703125 -0.4375 -1.0625q-0.421875 -0.359375 -1.078125 -0.359375q-0.765625 0 -1.265625 0.546875q-0.5 0.53125 -0.5 1.28125zm18.256348 10.140625q-2.015625 0 -3.296875 -1.375q-1.28125 -1.375 -1.28125 -3.453125q0 -2.078125 1.28125 -3.4375q1.28125 -1.375 3.296875 -1.375q2.125 0 3.359375 1.59375l-0.9375 0.875q-0.875 -1.1875 -2.34375 -1.1875q-1.40625 0 -2.296875 0.984375q-0.875 0.96875 -0.875 2.546875q0 1.59375 0.875 2.578125q0.875 0.96875 2.296875 0.96875q1.4375 0 2.34375 -1.1875l0.9375 0.859375q-1.234375 1.609375 -3.359375 1.609375zm11.406723 -0.234375l0 -6.046875q0 -1.015625 -0.484375 -1.546875q-0.484375 -0.53125 -1.59375 -0.53125q-0.78125 0 -1.515625 0.40625q-0.71875 0.390625 -1.203125 1.015625l0 6.703125l-1.421875 0l0 -12.671875l1.421875 0l0 4.828125q0.609375 -0.703125 1.484375 -1.125q0.875 -0.4375 1.8125 -0.4375q2.921875 0 2.921875 2.921875l0 6.484375l-1.421875 0zm4.7826233 -10.484375q-0.375 0 -0.671875 -0.265625q-0.28125 -0.28125 -0.28125 -0.6875q0 -0.40625 0.28125 -0.6875q0.296875 -0.28125 0.671875 -0.28125q0.40625 0 0.6875 0.28125q0.28125 0.28125 0.28125 0.6875q0 0.40625 -0.28125 0.6875q-0.28125 0.265625 -0.6875 0.265625zm-0.703125 10.484375l0 -9.171875l1.421875 0l0 9.171875l-1.421875 0zm4.1976624 0l0 -12.671875l1.421875 0l0 12.671875l-1.421875 0zm10.853912 0l0 -1.375q-0.515625 0.703125 -1.328125 1.15625q-0.796875 0.453125 -1.765625 0.453125q-1.84375 0 -2.96875 -1.3125q-1.125 -1.3125 -1.125 -3.5q0 -2.203125 1.125 -3.515625q1.140625 -1.3125 2.96875 -1.3125q0.921875 0 1.734375 0.4375q0.8125 0.421875 1.359375 1.171875l0 -4.875l1.421875 0l0 12.671875l-1.421875 0zm-2.765625 -1.046875q0.859375 0 1.609375 -0.40625q0.765625 -0.421875 1.15625 -1.03125l0 -4.171875q-0.390625 -0.609375 -1.15625 -1.03125q-0.75 -0.4375 -1.609375 -0.4375q-1.328125 0 -2.140625 0.96875q-0.796875 0.96875 -0.796875 2.578125q0 1.578125 0.796875 2.5625q0.796875 0.96875 2.140625 0.96875z" fill-rule="nonzero"></path><path fill="#000000" fill-opacity="0.0" d="m504.27863 52.742783l50.86615 -12.598427" fill-rule="evenodd"></path><path stroke="#0000ff" stroke-width="1.0" stroke-linejoin="round" stroke-linecap="butt" stroke-dasharray="4.0,3.0" d="m504.27863 52.742783l50.86615 -12.598427" fill-rule="evenodd"></path><path fill="#000000" fill-opacity="0.0" d="m276.23883 262.132l36.44095 -28.56694" fill-rule="evenodd"></path><path stroke="#0000ff" stroke-width="1.0" stroke-linejoin="round" stroke-linecap="butt" stroke-dasharray="4.0,3.0" d="m276.23883 262.132l36.44095 -28.56694" fill-rule="evenodd"></path><path fill="#000000" fill-opacity="0.0" d="m289.20276 421.5861l28.314972 55.968506" fill-rule="evenodd"></path><path stroke="#0000ff" stroke-width="1.0" stroke-linejoin="round" stroke-linecap="butt" stroke-dasharray="4.0,3.0" d="m289.20276 421.5861l28.314972 55.968506" fill-rule="evenodd"></path><path fill="#000000" fill-opacity="0.0" d="m714.47864 285.713c-37.945496 -22.202423 -46.27014 -76.42238 -75.18866 -109.97249c-26.839722 -31.138351 -76.85132 -47.060806 -116.203674 -36.98848c-32.981598 8.441727 -59.992584 56.206604 -51.75467 89.9754c5.222473 21.407852 32.562103 38.57959 27.33963 59.987457c-4.8547974 19.900696 -28.49701 28.967346 -41.01129 44.98578c-8.827881 11.299713 -5.860382 28.522583 -5.860382 42.992218c0 18.108032 -1.8712158 41.39145 11.71698 52.983063c16.56012 14.126892 41.074768 19.438202 62.498077 16.999084c14.842529 -1.6898804 27.204895 -18.162476 41.988647 -15.998444c33.56775 4.9136047 80.36804 33.102783 101.55835 5.999878c21.596008 -27.621765 21.311584 -74.328 5.8566284 -105.97385c-8.468872 -17.341034 -32.544678 -32.344543 -27.3396 -50.985657c5.7368774 -20.54599 42.69586 -2.766632 62.494263 3.9986267" fill-rule="evenodd"></path><path stroke="#0000ff" stroke-width="1.0" stroke-linejoin="round" stroke-linecap="butt" stroke-dasharray="4.0,3.0" d="m714.47864 285.713c-37.945496 -22.202423 -46.27014 -76.42238 -75.18866 -109.97249c-26.839722 -31.138351 -76.85132 -47.060806 -116.203674 -36.98848c-32.981598 8.441727 -59.992584 56.206604 -51.75467 89.9754c5.222473 21.407852 32.562103 38.57959 27.33963 59.987457c-4.8547974 19.900696 -28.49701 28.967346 -41.01129 44.98578c-8.827881 11.299713 -5.860382 28.522583 -5.860382 42.992218c0 18.108032 -1.8712158 41.39145 11.71698 52.983063c16.56012 14.126892 41.074768 19.438202 62.498077 16.999084c14.842529 -1.6898804 27.204895 -18.162476 41.988647 -15.998444c33.56775 4.9136047 80.36804 33.102783 101.55835 5.999878c21.596008 -27.621765 21.311584 -74.328 5.8566284 -105.97385c-8.468872 -17.341034 -32.544678 -32.344543 -27.3396 -50.985657c5.7368774 -20.54599 42.69586 -2.766632 62.494263 3.9986267" fill-rule="evenodd"></path></g></svg>

