<?xml version="1.0" standalone="yes"?>

<svg version="1.1" viewBox="0.0 0.0 960.0 540.0" fill="none" stroke="none" stroke-linecap="square" stroke-miterlimit="10" xmlns="http://www.w3.org/2000/svg" xmlns:xlink="http://www.w3.org/1999/xlink"><clipPath id="g287e6b1221_0_309.0"><path d="m0 0l960.0 0l0 540.0l-960.0 0l0 -540.0z" clip-rule="nonzero"></path></clipPath><g clip-path="url(#g287e6b1221_0_309.0)"><path fill="#ffffff" d="m0 0l960.0 0l0 540.0l-960.0 0z" fill-rule="evenodd"></path><path fill="#3c78d8" d="m197.07518 53.241386l70.488205 0l0 61.76378l-70.488205 0z" fill-rule="evenodd"></path><path stroke="#434343" stroke-width="2.0" stroke-linejoin="round" stroke-linecap="butt" d="m197.07518 53.241386l70.488205 0l0 61.76378l-70.488205 0z" fill-rule="evenodd"></path><path fill="#ffffff" d="m235.33229 92.66328l0 -7.578125q0 -1.546875 -0.71875 -2.109375q-0.703125 -0.578125 -1.875 -0.578125q-1.0 0 -1.984375 0.546875q-0.96875 0.53125 -1.453125 1.25l0 8.46875l-1.796875 0l0 -11.59375l1.796875 0l0 1.6875q0.75 -0.875 1.84375 -1.421875q1.09375 -0.546875 2.296875 -0.546875q3.6875 0 3.6875 3.734375l0 8.140625l-1.796875 0z" fill-rule="nonzero"></path><path fill="#3c78d8" d="m250.85301 242.87138l49.417343 -85.66928l49.417297 85.66928z" fill-rule="evenodd"></path><path stroke="#000000" stroke-width="2.0" stroke-linejoin="round" stroke-linecap="butt" d="m250.85301 242.87138l49.417343 -85.66928l49.417297 85.66928z" fill-rule="evenodd"></path><path fill="#ffffff" d="m293.74536 218.99406l0 -16.015625l5.46875 0q3.640625 0 5.921875 2.28125q2.28125 2.265625 2.28125 5.75q0 3.5 -2.296875 5.75q-2.28125 2.234375 -5.90625 2.234375l-5.46875 0zm5.46875 -1.78125q2.734375 0 4.4375 -1.703125q1.703125 -1.71875 1.703125 -4.5q0 -2.796875 -1.6875 -4.515625q-1.671875 -1.734375 -4.453125 -1.734375l-3.484375 0l0 12.453125l3.484375 0z" fill-rule="nonzero"></path><path fill="#000000" fill-opacity="0.0" d="m175.02794 157.20988l57.291336 -42.20472" fill-rule="evenodd"></path><path stroke="#595959" stroke-width="1.0" stroke-linejoin="round" stroke-linecap="butt" d="m175.02794 157.20988l57.291336 -42.20472" fill-rule="evenodd"></path><path fill="#000000" fill-opacity="0.0" d="m232.31927 115.005165l67.93701 42.20472" fill-rule="evenodd"></path><path stroke="#595959" stroke-width="1.0" stroke-linejoin="round" stroke-linecap="butt" d="m232.31927 115.005165l67.93701 42.20472" fill-rule="evenodd"></path><path fill="#000000" fill-opacity="0.0" d="m300.25723 120.76247l70.48816 0l0 30.67717l-70.48816 0z" fill-rule="evenodd"></path><path fill="#000000" d="m316.9291 143.02104l-3.296875 -4.125l-1.53125 1.5l0 2.625l-1.421875 0l0 -12.671875l1.421875 0l0 8.375l4.828125 -4.875l1.8125 0l-4.0625 4.15625l4.078125 5.015625l-1.828125 0zm2.4799194 -3.96875l0 -1.25l4.5625 0l0 1.25l-4.5625 0zm8.409393 3.96875l0 -10.578125l-2.03125 2.140625l-0.9375 -0.96875l3.171875 -3.265625l1.375 0l0 12.671875l-1.578125 0z" fill-rule="nonzero"></path><path fill="#000000" fill-opacity="0.0" d="m139.77953 120.76509l70.48819 0l0 30.67717l-70.48819 0z" fill-rule="evenodd"></path><path fill="#ff0000" d="m156.4514 143.02367l-3.296875 -4.125l-1.53125 1.5l0 2.625l-1.421875 0l0 -12.671875l1.421875 0l0 8.375l4.828125 -4.875l1.8125 0l-4.0625 4.15625l4.078125 5.015625l-1.828125 0z" fill-rule="nonzero"></path><path fill="#000000" d="m170.85402 143.02367l-3.296875 -4.125l-1.53125 1.5l0 2.625l-1.421875 0l0 -12.671875l1.421875 0l0 8.375l4.828125 -4.875l1.8125 0l-4.0625 4.15625l4.078125 5.015625l-1.828125 0zm7.1986847 -5.90625l0 4.046875l-1.078125 0l0 -4.046875l-3.65625 0l0 -0.984375l3.65625 0l0 -3.9375l1.078125 0l0 3.9375l3.65625 0l0 0.984375l-3.65625 0zm7.4032135 5.90625l0 -10.578125l-2.03125 2.140625l-0.9375 -0.96875l3.171875 -3.265625l1.375 0l0 12.671875l-1.578125 0z" fill-rule="nonzero"></path><path fill="#ff0000" d="m148.77953 136.86368l9.58931 0l0 1.1199951l-9.58931 0l0 -1.1199951z" fill-rule="nonzero"></path><path fill="#3c78d8" d="m139.7786 157.20464l70.48819 0l0 61.76378l-70.48819 0z" fill-rule="evenodd"></path><path stroke="#434343" stroke-width="2.0" stroke-linejoin="round" stroke-linecap="butt" d="m139.7786 157.20464l70.48819 0l0 61.76378l-70.48819 0z" fill-rule="evenodd"></path><path fill="#ffffff" d="m178.5032 196.62653l-3.484375 -4.75l-3.46875 4.75l-2.078125 0l4.453125 -5.953125l-4.203125 -5.640625l2.078125 0l3.21875 4.421875l3.21875 -4.421875l2.09375 0l-4.203125 5.640625l4.46875 5.953125l-2.09375 0z" fill-rule="nonzero"></path><path fill="#3c78d8" d="m58.30971 351.15485l49.417324 -85.66928l49.417328 85.66928z" fill-rule="evenodd"></path><path stroke="#000000" stroke-width="2.0" stroke-linejoin="round" stroke-linecap="butt" d="m58.30971 351.15485l49.417324 -85.66928l49.417328 85.66928z" fill-rule="evenodd"></path><path fill="#ffffff" d="m113.12794 327.27753l-1.421875 -3.546875l-7.96875 0l-1.40625 3.546875l-2.28125 0l6.421875 -16.015625l2.484375 0l6.453125 16.015625l-2.28125 0zm-5.40625 -13.9375l-3.40625 8.609375l6.796875 0l-3.390625 -8.609375z" fill-rule="nonzero"></path><path fill="#3c78d8" d="m175.02362 351.15485l49.417328 -85.66928l49.417328 85.66928z" fill-rule="evenodd"></path><path stroke="#000000" stroke-width="2.0" stroke-linejoin="round" stroke-linecap="butt" d="m175.02362 351.15485l49.417328 -85.66928l49.417328 85.66928z" fill-rule="evenodd"></path><path fill="#ffffff" d="m218.76796 327.27753l0 -16.015625l7.125 0q2.046875 0 3.265625 1.125q1.21875 1.109375 1.21875 2.96875q0 1.40625 -0.78125 2.390625q-0.78125 0.984375 -2.015625 1.28125q1.265625 0.1875 2.1875 1.34375q0.921875 1.140625 0.921875 2.59375q0 1.953125 -1.234375 3.140625q-1.234375 1.171875 -3.390625 1.171875l-7.296875 0zm6.78125 -9.078125q1.375 0 2.0625 -0.71875q0.703125 -0.734375 0.703125 -1.84375q0 -1.078125 -0.703125 -1.828125q-0.6875 -0.765625 -2.0625 -0.765625l-4.796875 0l0 5.15625l4.796875 0zm0.109375 7.296875q1.40625 0 2.1875 -0.71875q0.78125 -0.734375 0.78125 -2.03125q0 -1.234375 -0.8125 -2.0q-0.8125 -0.765625 -2.15625 -0.765625l-4.90625 0l0 5.515625l4.90625 0z" fill-rule="nonzero"></path><path fill="#000000" fill-opacity="0.0" d="m107.727036 265.48557l67.30708 -46.519684" fill-rule="evenodd"></path><path stroke="#595959" stroke-width="1.0" stroke-linejoin="round" stroke-linecap="butt" d="m107.727036 265.48557l67.30708 -46.519684" fill-rule="evenodd"></path><path fill="#000000" fill-opacity="0.0" d="m175.02269 218.96841l49.417328 46.519684" fill-rule="evenodd"></path><path stroke="#595959" stroke-width="1.0" stroke-linejoin="round" stroke-linecap="butt" d="m175.02269 218.96841l49.417328 46.519684" fill-rule="evenodd"></path><path fill="#000000" fill-opacity="0.0" d="m72.48294 226.88715l70.48819 0l0 30.677155l-70.48819 0z" fill-rule="evenodd"></path><path fill="#000000" d="m89.154816 249.14572l-3.296875 -4.125l-1.53125 1.5l0 2.625l-1.421875 0l0 -12.671875l1.421875 0l0 8.375l4.828125 -4.875l1.8125 0l-4.0625 4.15625l4.078125 5.015625l-1.828125 0zm2.4799347 -3.96875l0 -1.25l4.5625 0l0 1.25l-4.5625 0zm8.409378 3.96875l0 -10.578125l-2.03125 2.140625l-0.9375 -0.96875l3.171875 -3.265625l1.375 0l0 12.671875l-1.578125 0z" fill-rule="nonzero"></path><path fill="#000000" fill-opacity="0.0" d="m206.28871 226.88715l70.488205 0l0 30.677155l-70.488205 0z" fill-rule="evenodd"></path><path fill="#ff0000" d="m222.96059 238.14572l-3.296875 -4.125l-1.53125 1.5l0 2.625l-1.421875 0l0 -12.671875l1.421875 0l0 8.375l4.828125 -4.875l1.8125 0l-4.0625 4.15625l4.078125 5.015625l-1.828125 0zm2.4799347 -3.96875l0 -1.25l4.5625 0l0 1.25l-4.5625 0zm8.409378 3.96875l0 -10.578125l-2.03125 2.140625l-0.9375 -0.96875l3.171875 -3.265625l1.375 0l0 12.671875l-1.578125 0z" fill-rule="nonzero"></path><path fill="#000000" d="m249.28455 238.14572l-3.296875 -4.125l-1.53125 1.5l0 2.625l-1.421875 0l0 -12.671875l1.421875 0l0 8.375l4.828125 -4.875l1.8125 0l-4.0625 4.15625l4.078125 5.015625l-1.828125 0z" fill-rule="nonzero"></path><path fill="#ff0000" d="m215.28871 231.98572l21.51065 0l0 1.1199951l-21.51065 0l0 -1.1199951z" fill-rule="nonzero"></path><path fill="#3c78d8" d="m678.3324 62.68758l70.48822 0l0 61.763783l-70.48822 0z" fill-rule="evenodd"></path><path stroke="#434343" stroke-width="2.0" stroke-linejoin="round" stroke-linecap="butt" d="m678.3324 62.68758l70.48822 0l0 61.763783l-70.48822 0z" fill-rule="evenodd"></path><path fill="#ffffff" d="m716.58954 102.109474l0 -7.578125q0 -1.546875 -0.71875 -2.109375q-0.703125 -0.578125 -1.875 -0.578125q-1.0 0 -1.984375 0.546875q-0.96875 0.53125 -1.453125 1.25l0 8.46875l-1.796875 0l0 -11.59375l1.796875 0l0 1.6875q0.75 -0.875 1.84375 -1.421875q1.09375 -0.546875 2.296875 -0.546875q3.6875 0 3.6875 3.734375l0 8.140625l-1.796875 0z" fill-rule="nonzero"></path><path fill="#3c78d8" d="m732.1102 252.31758l49.41736 -85.66928l49.417297 85.66928z" fill-rule="evenodd"></path><path stroke="#000000" stroke-width="2.0" stroke-linejoin="round" stroke-linecap="butt" d="m732.1102 252.31758l49.41736 -85.66928l49.417297 85.66928z" fill-rule="evenodd"></path><path fill="#ffffff" d="m775.00256 228.44026l0 -16.015625l5.46875 0q3.640625 0 5.921875 2.28125q2.28125 2.265625 2.28125 5.75q0 3.5 -2.296875 5.75q-2.28125 2.234375 -5.90625 2.234375l-5.46875 0zm5.46875 -1.78125q2.734375 0 4.4375 -1.703125q1.703125 -1.71875 1.703125 -4.5q0 -2.796875 -1.6875 -4.515625q-1.671875 -1.734375 -4.453125 -1.734375l-3.484375 0l0 12.453125l3.484375 0z" fill-rule="nonzero"></path><path fill="#000000" fill-opacity="0.0" d="m656.28516 166.65608l57.29132 -42.20472" fill-rule="evenodd"></path><path stroke="#595959" stroke-width="1.0" stroke-linejoin="round" stroke-linecap="butt" d="m656.28516 166.65608l57.29132 -42.20472" fill-rule="evenodd"></path><path fill="#000000" fill-opacity="0.0" d="m713.5765 124.45136l67.93701 42.20472" fill-rule="evenodd"></path><path stroke="#595959" stroke-width="1.0" stroke-linejoin="round" stroke-linecap="butt" d="m713.5765 124.45136l67.93701 42.20472" fill-rule="evenodd"></path><path fill="#000000" fill-opacity="0.0" d="m781.51447 130.20866l70.48816 0l0 30.67717l-70.48816 0z" fill-rule="evenodd"></path><path fill="#000000" d="m798.18634 152.46724l-3.296875 -4.125l-1.53125 1.5l0 2.625l-1.421875 0l0 -12.671875l1.421875 0l0 8.375l4.828125 -4.875l1.8125 0l-4.0625 4.15625l4.078125 5.015625l-1.828125 0zm2.4799194 -3.96875l0 -1.25l4.5625 0l0 1.25l-4.5625 0zm8.409363 3.96875l0 -10.578125l-2.03125 2.140625l-0.9375 -0.96875l3.171875 -3.265625l1.375 0l0 12.671875l-1.578125 0z" fill-rule="nonzero"></path><path fill="#000000" fill-opacity="0.0" d="m621.03674 130.21129l70.48822 0l0 30.67717l-70.48822 0z" fill-rule="evenodd"></path><path fill="#ff0000" d="m637.7086 152.46986l-3.296875 -4.125l-1.53125 1.5l0 2.625l-1.421875 0l0 -12.671875l1.421875 0l0 8.375l4.828125 -4.875l1.8125 0l-4.0625 4.15625l4.078125 5.015625l-1.828125 0z" fill-rule="nonzero"></path><path fill="#000000" d="m652.11127 152.46986l-3.296875 -4.125l-1.53125 1.5l0 2.625l-1.421875 0l0 -12.671875l1.421875 0l0 8.375l4.828125 -4.875l1.8125 0l-4.0625 4.15625l4.078125 5.015625l-1.828125 0zm7.1986694 -5.90625l0 4.046875l-1.078125 0l0 -4.046875l-3.65625 0l0 -0.984375l3.65625 0l0 -3.9375l1.078125 0l0 3.9375l3.65625 0l0 0.984375l-3.65625 0zm7.4031982 5.90625l0 -10.578125l-2.03125 2.140625l-0.9375 -0.96875l3.171875 -3.265625l1.375 0l0 12.671875l-1.578125 0z" fill-rule="nonzero"></path><path fill="#ff0000" d="m630.03674 146.30986l9.589294 0l0 1.1200104l-9.589294 0l0 -1.1200104z" fill-rule="nonzero"></path><path fill="#3c78d8" d="m621.0358 166.65083l70.48816 0l0 61.76378l-70.48816 0z" fill-rule="evenodd"></path><path stroke="#434343" stroke-width="2.0" stroke-linejoin="round" stroke-linecap="butt" d="m621.0358 166.65083l70.48816 0l0 61.76378l-70.48816 0z" fill-rule="evenodd"></path><path fill="#ffffff" d="m659.76044 206.07272l-3.484375 -4.75l-3.46875 4.75l-2.078125 0l4.453125 -5.953125l-4.203125 -5.640625l2.078125 0l3.21875 4.421875l3.21875 -4.421875l2.09375 0l-4.203125 5.640625l4.46875 5.953125l-2.09375 0z" fill-rule="nonzero"></path><path fill="#3c78d8" d="m539.56696 360.60104l49.417297 -85.66928l49.417297 85.66928z" fill-rule="evenodd"></path><path stroke="#000000" stroke-width="2.0" stroke-linejoin="round" stroke-linecap="butt" d="m539.56696 360.60104l49.417297 -85.66928l49.417297 85.66928z" fill-rule="evenodd"></path><path fill="#ffffff" d="m594.38513 336.72372l-1.421875 -3.546875l-7.96875 0l-1.40625 3.546875l-2.28125 0l6.421875 -16.015625l2.484375 0l6.453125 16.015625l-2.28125 0zm-5.40625 -13.9375l-3.40625 8.609375l6.796875 0l-3.390625 -8.609375z" fill-rule="nonzero"></path><path fill="#3c78d8" d="m597.9239 462.1706l49.417297 -85.66928l49.41736 85.66928z" fill-rule="evenodd"></path><path stroke="#000000" stroke-width="2.0" stroke-linejoin="round" stroke-linecap="butt" d="m597.9239 462.1706l49.417297 -85.66928l49.41736 85.66928z" fill-rule="evenodd"></path><path fill="#ffffff" d="m638.95624 438.29327l0 -16.015625l7.125 0q2.046875 0 3.265625 1.125q1.21875 1.109375 1.21875 2.96875q0 1.40625 -0.78125 2.390625q-0.78125 0.984375 -2.015625 1.28125q1.265625 0.1875 2.1875 1.34375q0.921875 1.140625 0.921875 2.59375q0 1.953125 -1.234375 3.140625q-1.234375 1.171875 -3.390625 1.171875l-7.296875 0zm6.78125 -9.078125q1.375 0 2.0625 -0.71875q0.703125 -0.734375 0.703125 -1.84375q0 -1.078125 -0.703125 -1.828125q-0.6875 -0.765625 -2.0625 -0.765625l-4.796875 0l0 5.15625l4.796875 0zm0.109375 7.296875q1.40625 0 2.1875 -0.71875q0.78125 -0.734375 0.78125 -2.03125q0 -1.234375 -0.8125 -2.0q-0.8125 -0.765625 -2.15625 -0.765625l-4.90625 0l0 5.515625l4.90625 0z" fill-rule="nonzero"></path><path fill="#ffffff" d="m655.02094 447.29327l0 -8.90625l-1.703125 1.796875l-0.796875 -0.8125l2.671875 -2.75l1.15625 0l0 10.671875l-1.328125 0z" fill-rule="nonzero"></path><path fill="#000000" fill-opacity="0.0" d="m588.98425 274.93176l67.30707 -46.519684" fill-rule="evenodd"></path><path stroke="#595959" stroke-width="1.0" stroke-linejoin="round" stroke-linecap="butt" d="m588.98425 274.93176l67.30707 -46.519684" fill-rule="evenodd"></path><path fill="#000000" fill-opacity="0.0" d="m713.5765 334.53534l-66.236206 41.95276" fill-rule="evenodd"></path><path stroke="#595959" stroke-width="1.0" stroke-linejoin="round" stroke-linecap="butt" d="m713.5765 334.53534l-66.236206 41.95276" fill-rule="evenodd"></path><path fill="#000000" fill-opacity="0.0" d="m553.7402 236.33333l70.48816 0l0 30.67717l-70.48816 0z" fill-rule="evenodd"></path><path fill="#000000" d="m570.41205 258.59192l-3.296875 -4.125l-1.53125 1.5l0 2.625l-1.421875 0l0 -12.671875l1.421875 0l0 8.375l4.828125 -4.875l1.8125 0l-4.0625 4.15625l4.078125 5.015625l-1.828125 0zm2.4799194 -3.96875l0 -1.25l4.5625 0l0 1.25l-4.5625 0zm8.409363 3.96875l0 -10.578125l-2.03125 2.140625l-0.9375 -0.96875l3.171875 -3.265625l1.375 0l0 12.671875l-1.578125 0z" fill-rule="nonzero"></path><path fill="#000000" fill-opacity="0.0" d="m760.45667 288.31366l70.48822 0l0 30.677155l-70.48822 0z" fill-rule="evenodd"></path><path fill="#ff0000" d="m777.12854 299.57224l-3.296875 -4.125l-1.53125 1.5l0 2.625l-1.421875 0l0 -12.671875l1.421875 0l0 8.375l4.828125 -4.875l1.8125 0l-4.0625 4.15625l4.078125 5.015625l-1.828125 0zm2.4799805 -3.96875l0 -1.25l4.5625 0l0 1.25l-4.5625 0zm8.409363 3.96875l0 -10.578125l-2.03125 2.140625l-0.9375 -0.96875l3.171875 -3.265625l1.375 0l0 12.671875l-1.578125 0z" fill-rule="nonzero"></path><path fill="#000000" d="m803.4525 299.57224l-3.296875 -4.125l-1.53125 1.5l0 2.625l-1.421875 0l0 -12.671875l1.421875 0l0 8.375l4.828125 -4.875l1.8125 0l-4.0625 4.15625l4.078125 5.015625l-1.828125 0z" fill-rule="nonzero"></path><path fill="#ff0000" d="m769.45667 293.41223l21.510681 0l0 1.1199951l-21.510681 0l0 -1.1199951z" fill-rule="nonzero"></path><path fill="#3c78d8" d="m721.4698 464.56168l49.41736 -85.66928l49.417297 85.66928z" fill-rule="evenodd"></path><path stroke="#000000" stroke-width="2.0" stroke-linejoin="round" stroke-linecap="butt" d="m721.4698 464.56168l49.41736 -85.66928l49.417297 85.66928z" fill-rule="evenodd"></path><path fill="#ffffff" d="m760.51013 440.68436l0 -16.015625l7.125 0q2.046875 0 3.265625 1.125q1.21875 1.109375 1.21875 2.96875q0 1.40625 -0.78125 2.390625q-0.78125 0.984375 -2.015625 1.28125q1.265625 0.1875 2.1875 1.34375q0.921875 1.140625 0.921875 2.59375q0 1.953125 -1.234375 3.140625q-1.234375 1.171875 -3.390625 1.171875l-7.296875 0zm6.78125 -9.078125q1.375 0 2.0625 -0.71875q0.703125 -0.734375 0.703125 -1.84375q0 -1.078125 -0.703125 -1.828125q-0.6875 -0.765625 -2.0625 -0.765625l-4.796875 0l0 5.15625l4.796875 0zm0.109375 7.296875q1.40625 0 2.1875 -0.71875q0.78125 -0.734375 0.78125 -2.03125q0 -1.234375 -0.8125 -2.0q-0.8125 -0.765625 -2.15625 -0.765625l-4.90625 0l0 5.515625l4.90625 0z" fill-rule="nonzero"></path><path fill="#ffffff" d="m774.59045 449.68436l0 -1.0625q2.828125 -2.21875 3.875 -3.234375q1.0625 -1.015625 1.546875 -1.8125q0.5 -0.8125 0.5 -1.59375q0 -0.875 -0.609375 -1.40625q-0.609375 -0.53125 -1.609375 -0.53125q-1.875 0 -2.90625 1.34375l-0.8125 -0.859375q0.609375 -0.8125 1.59375 -1.234375q0.984375 -0.4375 2.125 -0.4375q1.546875 0 2.5625 0.859375q1.015625 0.84375 1.015625 2.265625q0 1.296875 -1.09375 2.734375q-1.09375 1.4375 -4.09375 3.78125l5.234375 0l0 1.1875l-7.328125 0z" fill-rule="nonzero"></path><path fill="#3c78d8" d="m678.3324 272.77158l70.48822 0l0 61.763763l-70.48822 0z" fill-rule="evenodd"></path><path stroke="#434343" stroke-width="2.0" stroke-linejoin="round" stroke-linecap="butt" d="m678.3324 272.77158l70.48822 0l0 61.763763l-70.48822 0z" fill-rule="evenodd"></path><path fill="#ffffff" d="m709.13403 315.0997q0.390625 0.1875 0.984375 0.1875q0.609375 0 1.015625 -0.25q0.40625 -0.25 0.71875 -0.96875l0.765625 -1.75l-4.84375 -11.71875l1.9375 0l3.859375 9.5l3.84375 -9.5l1.96875 0l-5.8125 13.953125q-0.953125 2.296875 -3.40625 2.34375q-0.6875 0 -1.3125 -0.171875l0.28125 -1.625z" fill-rule="nonzero"></path><path fill="#000000" fill-opacity="0.0" d="m770.88715 378.8924l-57.322815 -44.346466" fill-rule="evenodd"></path><path stroke="#595959" stroke-width="1.0" stroke-linejoin="round" stroke-linecap="butt" d="m770.88715 378.8924l-57.322815 -44.346466" fill-rule="evenodd"></path><path fill="#000000" fill-opacity="0.0" d="m656.28516 228.42511l57.29132 44.346466" fill-rule="evenodd"></path><path stroke="#595959" stroke-width="1.0" stroke-linejoin="round" stroke-linecap="butt" d="m656.28516 228.42511l57.29132 44.346466" fill-rule="evenodd"></path><path fill="#000000" fill-opacity="0.0" d="m656.2913 351.15485l70.48822 0l0 30.677185l-70.48822 0z" fill-rule="evenodd"></path><path fill="#000000" d="m672.9632 373.41342l-3.296875 -4.125l-1.53125 1.5l0 2.625l-1.421875 0l0 -12.671875l1.421875 0l0 8.375l4.828125 -4.875l1.8125 0l-4.0625 4.15625l4.078125 5.015625l-1.828125 0zm2.4799805 -3.96875l0 -1.25l4.5625 0l0 1.25l-4.5625 0zm8.409363 3.96875l0 -10.578125l-2.03125 2.140625l-0.9375 -0.96875l3.171875 -3.265625l1.375 0l0 12.671875l-1.578125 0z" fill-rule="nonzero"></path><path fill="#000000" fill-opacity="0.0" d="m712.3018 367.15485l70.48822 0l0 30.677185l-70.48822 0z" fill-rule="evenodd"></path><path fill="#000000" d="m728.9737 389.41342l-3.296875 -4.125l-1.53125 1.5l0 2.625l-1.421875 0l0 -12.671875l1.421875 0l0 8.375l4.828125 -4.875l1.8125 0l-4.0625 4.15625l4.078125 5.015625l-1.828125 0zm2.4799805 -3.96875l0 -1.25l4.5625 0l0 1.25l-4.5625 0zm8.409363 3.96875l0 -10.578125l-2.03125 2.140625l-0.9375 -0.96875l3.171875 -3.265625l1.375 0l0 12.671875l-1.578125 0z" fill-rule="nonzero"></path><path fill="#eeeeee" d="m404.34384 244.07086l64.86612 0l0 -16.984253l33.968506 33.968506l-33.968506 33.968506l0 -16.984253l-64.86612 0z" fill-rule="evenodd"></path><path stroke="#595959" stroke-width="1.0" stroke-linejoin="round" stroke-linecap="butt" d="m404.34384 244.07086l64.86612 0l0 -16.984253l33.968506 33.968506l-33.968506 33.968506l0 -16.984253l-64.86612 0z" fill-rule="evenodd"></path><path fill="#000000" fill-opacity="0.0" d="m286.6906 286.69064c-22.152496 -8.306915 -44.216385 -28.678345 -67.16797 -22.937012c-21.381638 5.348633 -36.920013 25.8956 -49.146988 44.233612c-10.304001 15.453918 -11.48288 39.947906 -1.6377869 55.69815c8.393967 13.428741 23.204117 21.567902 34.401566 32.76642c7.4173126 7.4179993 14.397934 17.114319 24.574814 19.658783c19.28363 4.8213806 38.17079 -11.92395 55.698166 -21.299225c57.15143 -30.569916 13.436707 -7.964447 45.87137 -26.20996c4.0941772 -2.3031006 10.176971 -3.6747742 11.467194 -8.191589c8.931335 -31.266785 -40.896484 -50.72592 -63.88974 -73.71918" fill-rule="evenodd"></path><path stroke="#595959" stroke-width="3.0" stroke-linejoin="round" stroke-linecap="butt" stroke-dasharray="12.0,9.0" d="m286.6906 286.69064c-22.152496 -8.306915 -44.216385 -28.678345 -67.16797 -22.937012c-21.381638 5.348633 -36.920013 25.8956 -49.146988 44.233612c-10.304001 15.453918 -11.48288 39.947906 -1.6377869 55.69815c8.393967 13.428741 23.204117 21.567902 34.401566 32.76642c7.4173126 7.4179993 14.397934 17.114319 24.574814 19.658783c19.28363 4.8213806 38.17079 -11.92395 55.698166 -21.299225c57.15143 -30.569916 13.436707 -7.964447 45.87137 -26.20996c4.0941772 -2.3031006 10.176971 -3.6747742 11.467194 -8.191589c8.931335 -31.266785 -40.896484 -50.72592 -63.88974 -73.71918" fill-rule="evenodd"></path><path fill="#000000" fill-opacity="0.0" d="m561.91077 432.4921c15.557922 -14.58432 31.267273 -29.333496 49.146973 -40.955383c12.729919 -8.274506 29.875427 -13.976227 36.041992 -27.850403c14.313538 -32.20395 7.177246 -71.6846 22.934387 -103.20734c10.364685 -20.734955 44.101807 -20.32724 67.16797 -18.020996c20.104797 2.010147 16.802002 37.336548 19.658813 57.338593c1.9302368 13.51474 6.397217 26.641998 11.467163 39.317566c18.87207 47.182617 49.35443 88.88187 72.08136 134.33334c6.097534 12.194397 7.338745 11.4904175 14.745422 22.937012c1.6040039 2.4788818 2.6965332 2.0181274 3.2755737 4.913391c0.95788574 4.789276 -8.295166 5.705017 -13.10498 6.5538025c-34.97162 6.1713867 -71.27173 7.867737 -106.485535 3.2755737c-34.72345 -4.5281982 -69.926025 -3.9666443 -104.84778 -6.5538025c-16.482056 -1.2210388 -39.229797 6.669983 -49.146973 -6.551178c-3.9457397 -5.260254 0.44128418 -13.420471 -1.6378174 -19.658783c-5.194092 -15.5850525 -18.018372 -29.443634 -18.018372 -45.8714" fill-rule="evenodd"></path><path stroke="#595959" stroke-width="3.0" stroke-linejoin="round" stroke-linecap="butt" stroke-dasharray="12.0,9.0" d="m561.91077 432.4921c15.557922 -14.58432 31.267273 -29.333496 49.146973 -40.955383c12.729919 -8.274506 29.875427 -13.976227 36.041992 -27.850403c14.313538 -32.20395 7.177246 -71.6846 22.934387 -103.20734c10.364685 -20.734955 44.101807 -20.32724 67.16797 -18.020996c20.104797 2.010147 16.802002 37.336548 19.658813 57.338593c1.9302368 13.51474 6.397217 26.641998 11.467163 39.317566c18.87207 47.182617 49.35443 88.88187 72.08136 134.33334c6.097534 12.194397 7.338745 11.4904175 14.745422 22.937012c1.6040039 2.4788818 2.6965332 2.0181274 3.2755737 4.913391c0.95788574 4.789276 -8.295166 5.705017 -13.10498 6.5538025c-34.97162 6.1713867 -71.27173 7.867737 -106.485535 3.2755737c-34.72345 -4.5281982 -69.926025 -3.9666443 -104.84778 -6.5538025c-16.482056 -1.2210388 -39.229797 6.669983 -49.146973 -6.551178c-3.9457397 -5.260254 0.44128418 -13.420471 -1.6378174 -19.658783c-5.194092 -15.5850525 -18.018372 -29.443634 -18.018372 -45.8714" fill-rule="evenodd"></path></g></svg>

