<?xml version="1.0" standalone="yes"?>

<svg version="1.1" viewBox="0.0 0.0 960.0 540.0" fill="none" stroke="none" stroke-linecap="square" stroke-miterlimit="10" xmlns="http://www.w3.org/2000/svg" xmlns:xlink="http://www.w3.org/1999/xlink"><clipPath id="p.0"><path d="m0 0l960.0 0l0 540.0l-960.0 0l0 -540.0z" clip-rule="nonzero"></path></clipPath><g clip-path="url(#p.0)"><path fill="#ffffff" d="m0 0l960.0 0l0 540.0l-960.0 0z" fill-rule="evenodd"></path><path fill="#3c78d8" d="m754.04724 203.38583l78.299194 0l0 72.91339l-78.299194 0z" fill-rule="evenodd"></path><path stroke="#434343" stroke-width="2.0" stroke-linejoin="round" stroke-linecap="butt" d="m754.04724 203.38583l78.299194 0l0 72.91339l-78.299194 0z" fill-rule="evenodd"></path><path fill="#ffffff" d="m767.3285 237.22314q-1.671875 0 -2.796875 -1.0625q-1.109375 -1.0625 -1.109375 -2.734375q0 -1.671875 1.09375 -2.734375q1.109375 -1.0625 2.8125 -1.0625q2.0 0 3.03125 1.640625l-1.296875 0.703125q-0.25 -0.390625 -0.703125 -0.671875q-0.4375 -0.296875 -1.03125 -0.296875q-1.0 0 -1.65625 0.6875q-0.640625 0.6875 -0.640625 1.734375q0 1.0625 0.65625 1.734375q0.65625 0.671875 1.640625 0.671875q0.5 0 0.921875 -0.171875q0.421875 -0.1875 0.640625 -0.390625l0 -0.875l-1.9375 0l0 -1.375l3.5 0l0 2.8125q-1.25 1.390625 -3.125 1.390625zm4.0788574 -0.140625l0 -5.3125l1.40625 0l0 0.71875q0.28125 -0.34375 0.734375 -0.59375q0.453125 -0.25 0.953125 -0.25l0 1.359375l-0.375 -0.03125q-0.375 0 -0.765625 0.171875q-0.375 0.171875 -0.546875 0.421875l0 3.515625l-1.40625 0zm7.0393677 0l0 -0.546875q-0.59375 0.671875 -1.6875 0.671875q-0.765625 0 -1.3125 -0.484375q-0.53125 -0.484375 -0.53125 -1.265625q0 -0.78125 0.5 -1.25q0.515625 -0.46875 1.34375 -0.46875q1.140625 0 1.6875 0.65625l0 -0.71875q0 -0.40625 -0.328125 -0.640625q-0.3125 -0.25 -0.84375 -0.25q-0.875 0 -1.546875 0.625l-0.53125 -0.9375q0.96875 -0.828125 2.3125 -0.828125q1.125 0 1.71875 0.515625q0.609375 0.515625 0.609375 1.484375l0 3.4375l-1.390625 0zm-1.125 -0.8125q0.765625 0 1.125 -0.46875l0 -0.65625q-0.359375 -0.453125 -1.125 -0.453125q-0.421875 0 -0.71875 0.203125q-0.28125 0.203125 -0.28125 0.59375q0 0.375 0.28125 0.578125q0.296875 0.203125 0.71875 0.203125zm7.302063 0.8125l0 -3.21875q0 -0.984375 -0.984375 -0.984375q-0.75 0 -1.203125 0.625l0 3.578125l-1.40625 0l0 -5.3125l1.40625 0l0 0.6875q0.25 -0.296875 0.71875 -0.546875q0.46875 -0.265625 1.140625 -0.265625q0.875 0 1.296875 0.453125q0.421875 0.453125 0.421875 1.234375l0 3.75l-1.390625 0zm6.232544 0l0 -0.6875q-0.65625 0.8125 -1.640625 0.8125q-1.046875 0 -1.703125 -0.75q-0.640625 -0.765625 -0.640625 -2.03125q0 -1.25 0.640625 -2.015625q0.65625 -0.765625 1.703125 -0.765625q1.0 0 1.640625 0.8125l0 -2.71875l1.40625 0l0 7.34375l-1.40625 0zm-1.203125 -1.109375q0.34375 0 0.6875 -0.171875q0.34375 -0.171875 0.515625 -0.4375l0 -1.875q-0.171875 -0.265625 -0.515625 -0.4375q-0.34375 -0.171875 -0.6875 -0.171875q-0.59375 0 -0.96875 0.4375q-0.375 0.421875 -0.375 1.109375q0 0.671875 0.359375 1.109375q0.359375 0.4375 0.984375 0.4375zm6.994629 1.109375l0 -0.546875q-0.59375 0.671875 -1.6875 0.671875q-0.765625 0 -1.3125 -0.484375q-0.53125 -0.484375 -0.53125 -1.265625q0 -0.78125 0.5 -1.25q0.515625 -0.46875 1.34375 -0.46875q1.140625 0 1.6875 0.65625l0 -0.71875q0 -0.40625 -0.328125 -0.640625q-0.3125 -0.25 -0.84375 -0.25q-0.875 0 -1.546875 0.625l-0.53125 -0.9375q0.96875 -0.828125 2.3125 -0.828125q1.125 0 1.71875 0.515625q0.609375 0.515625 0.609375 1.484375l0 3.4375l-1.390625 0zm-1.125 -0.8125q0.765625 0 1.125 -0.46875l0 -0.65625q-0.359375 -0.453125 -1.125 -0.453125q-0.421875 0 -0.71875 0.203125q-0.28125 0.203125 -0.28125 0.59375q0 0.375 0.28125 0.578125q0.296875 0.203125 0.71875 0.203125zm7.364502 0.8125l0 -0.6875q-0.65625 0.8125 -1.640625 0.8125q-1.046875 0 -1.703125 -0.75q-0.640625 -0.765625 -0.640625 -2.03125q0 -1.25 0.640625 -2.015625q0.65625 -0.765625 1.703125 -0.765625q1.0 0 1.640625 0.8125l0 -2.71875l1.40625 0l0 7.34375l-1.40625 0zm-1.203125 -1.109375q0.34375 0 0.6875 -0.171875q0.34375 -0.171875 0.515625 -0.4375l0 -1.875q-0.171875 -0.265625 -0.515625 -0.4375q-0.34375 -0.171875 -0.6875 -0.171875q-0.59375 0 -0.96875 0.4375q-0.375 0.421875 -0.375 1.109375q0 0.671875 0.359375 1.109375q0.359375 0.4375 0.984375 0.4375z" fill-rule="nonzero"></path><path fill="#ffffff" d="m763.9066 250.08252l0 -7.34375l4.8125 0l0 0.828125l-3.90625 0l0 2.359375l3.828125 0l0 0.8125l-3.828125 0l0 2.53125l3.90625 0l0 0.8125l-4.8125 0zm12.438477 0l0 -3.609375q0 -1.09375 -0.96875 -1.09375q-0.421875 0 -0.8125 0.25q-0.390625 0.234375 -0.609375 0.5625l0 3.890625l-0.8125 0l0 -3.609375q0 -1.09375 -0.984375 -1.09375q-0.40625 0 -0.796875 0.25q-0.375 0.25 -0.59375 0.5625l0 3.890625l-0.828125 0l0 -5.3125l0.828125 0l0 0.765625q0.1875 -0.3125 0.703125 -0.59375q0.515625 -0.296875 1.0 -0.296875q0.625 0 0.96875 0.28125q0.34375 0.28125 0.46875 0.703125q0.28125 -0.4375 0.78125 -0.703125q0.5 -0.28125 1.0 -0.28125q1.484375 0 1.484375 1.59375l0 3.84375l-0.828125 0zm8.610352 0l0 -3.609375q0 -1.09375 -0.96875 -1.09375q-0.421875 0 -0.8125 0.25q-0.390625 0.234375 -0.609375 0.5625l0 3.890625l-0.8125 0l0 -3.609375q0 -1.09375 -0.984375 -1.09375q-0.40625 0 -0.796875 0.25q-0.375 0.25 -0.59375 0.5625l0 3.890625l-0.828125 0l0 -5.3125l0.828125 0l0 0.765625q0.1875 -0.3125 0.703125 -0.59375q0.515625 -0.296875 1.0 -0.296875q0.625 0 0.96875 0.28125q0.34375 0.28125 0.46875 0.703125q0.28125 -0.4375 0.78125 -0.703125q0.5 -0.28125 1.0 -0.28125q1.484375 0 1.484375 1.59375l0 3.84375l-0.828125 0zm4.5946655 0.125q-1.1875 0 -1.953125 -0.78125q-0.75 -0.78125 -0.75 -2.0q0 -1.1875 0.75 -1.984375q0.75 -0.796875 1.875 -0.796875q1.140625 0 1.84375 0.796875q0.703125 0.78125 0.703125 2.046875l0 0.203125l-4.296875 0q0.046875 0.8125 0.578125 1.328125q0.546875 0.515625 1.328125 0.515625q0.96875 0 1.640625 -0.671875l0.390625 0.53125q-0.8125 0.8125 -2.109375 0.8125zm1.65625 -3.109375q0 -0.75 -0.484375 -1.265625q-0.484375 -0.515625 -1.265625 -0.515625q-0.734375 0 -1.234375 0.515625q-0.484375 0.515625 -0.5 1.265625l3.484375 0zm5.5308228 2.984375l0 -3.46875q0 -0.71875 -0.328125 -0.96875q-0.3125 -0.265625 -0.859375 -0.265625q-0.453125 0 -0.90625 0.25q-0.4375 0.234375 -0.65625 0.5625l0 3.890625l-0.828125 0l0 -5.3125l0.828125 0l0 0.765625q0.328125 -0.390625 0.828125 -0.640625q0.5 -0.25 1.0625 -0.25q1.6875 0 1.6875 1.703125l0 3.734375l-0.828125 0z" fill-rule="nonzero"></path><path fill="#3c78d8" d="m49.354332 203.39896l78.29921 0l0 72.8819l-78.29921 0z" fill-rule="evenodd"></path><path stroke="#434343" stroke-width="2.0" stroke-linejoin="round" stroke-linecap="butt" d="m49.354332 203.39896l78.29921 0l0 72.8819l-78.29921 0z" fill-rule="evenodd"></path><path fill="#ffffff" d="m65.46371 237.0799l0 -5.140625l-2.078125 5.140625l-0.671875 0l-2.078125 -5.140625l0 5.140625l-1.5625 0l0 -7.34375l2.203125 0l1.78125 4.4375l1.78125 -4.4375l2.1875 0l0 7.34375l-1.5625 0zm5.158066 0.125q-1.234375 0 -2.015625 -0.78125q-0.78125 -0.796875 -0.78125 -2.0q0 -1.21875 0.78125 -2.0q0.78125 -0.78125 2.015625 -0.78125q1.234375 0 2.015625 0.78125q0.796875 0.78125 0.796875 2.0q0 1.21875 -0.796875 2.0q-0.78125 0.78125 -2.015625 0.78125zm0 -1.234375q0.609375 0 0.984375 -0.4375q0.375 -0.4375 0.375 -1.109375q0 -0.671875 -0.375 -1.109375q-0.375 -0.4375 -0.984375 -0.4375q-0.578125 0 -0.96875 0.421875q-0.390625 0.421875 -0.390625 1.125q0 0.703125 0.390625 1.125q0.390625 0.421875 0.96875 0.421875zm10.241745 1.109375l0 -3.359375q0 -0.84375 -0.796875 -0.84375q-0.375 0 -0.65625 0.203125q-0.28125 0.1875 -0.4375 0.40625l0 3.59375l-1.40625 0l0 -3.359375q0 -0.84375 -0.796875 -0.84375q-0.359375 0 -0.65625 0.203125q-0.28125 0.203125 -0.4375 0.421875l0 3.578125l-1.40625 0l0 -5.3125l1.40625 0l0 0.6875q0.1875 -0.296875 0.6875 -0.546875q0.515625 -0.265625 1.046875 -0.265625q1.15625 0 1.46875 0.953125q0.265625 -0.40625 0.765625 -0.671875q0.5 -0.28125 1.0625 -0.28125q1.5625 0 1.5625 1.59375l0 3.84375l-1.40625 0z" fill-rule="nonzero"></path><path fill="#ffffff" d="m59.213707 250.0799l0 -7.34375l2.5 0q1.671875 0 2.71875 1.046875q1.046875 1.03125 1.046875 2.640625q0 1.59375 -1.046875 2.625q-1.046875 1.03125 -2.71875 1.03125l-2.5 0zm2.5 -0.8125q1.265625 0 2.046875 -0.78125q0.78125 -0.796875 0.78125 -2.0625q0 -1.28125 -0.78125 -2.0625q-0.765625 -0.796875 -2.046875 -0.796875l-1.59375 0l0 5.703125l1.59375 0zm7.3188324 0.9375q-1.1875 0 -1.953125 -0.78125q-0.75 -0.78125 -0.75 -2.0q0 -1.1875 0.75 -1.984375q0.75 -0.796875 1.875 -0.796875q1.140625 0 1.84375 0.796875q0.703125 0.78125 0.703125 2.046875l0 0.203125l-4.296875 0q0.046875 0.8125 0.578125 1.328125q0.546875 0.515625 1.328125 0.515625q0.96875 0 1.640625 -0.671875l0.390625 0.53125q-0.8125 0.8125 -2.109375 0.8125zm1.65625 -3.109375q0 -0.75 -0.484375 -1.265625q-0.484375 -0.515625 -1.265625 -0.515625q-0.734375 0 -1.234375 0.515625q-0.484375 0.515625 -0.5 1.265625l3.484375 0zm1.952652 2.984375l0 -7.34375l0.828125 0l0 7.34375l-0.828125 0zm2.6320496 0l0 -4.59375l-0.890625 0l0 -0.71875l0.890625 0l0 -0.40625q0 -0.828125 0.40625 -1.28125q0.40625 -0.453125 1.125 -0.453125q0.671875 0 1.125 0.40625l-0.34375 0.546875q-0.28125 -0.265625 -0.65625 -0.265625q-0.84375 0 -0.84375 1.046875l0 0.40625l1.078125 0l0 0.71875l-1.078125 0l0 4.59375l-0.8125 0zm4.125122 0.125q-1.1875 0 -1.1875 -1.234375l0 -3.484375l-0.875 0l0 -0.71875l0.875 0l0 -1.453125l0.828125 0l0 1.453125l1.078125 0l0 0.71875l-1.078125 0l0 3.3125q0 0.296875 0.125 0.484375q0.140625 0.1875 0.421875 0.1875q0.328125 0 0.5625 -0.21875l0.234375 0.625q-0.34375 0.328125 -0.984375 0.328125z" fill-rule="nonzero"></path><path fill="#3c78d8" d="m127.65354 203.41208l78.29922 0l0 72.8819l-78.29922 0z" fill-rule="evenodd"></path><path stroke="#434343" stroke-width="2.0" stroke-linejoin="round" stroke-linecap="butt" d="m127.65354 203.41208l78.29922 0l0 72.8819l-78.29922 0z" fill-rule="evenodd"></path><path fill="#ffffff" d="m137.3723 237.09302l0 -7.34375l2.90625 0q1.734375 0 2.8125 1.015625q1.078125 1.015625 1.078125 2.671875q0 1.625 -1.078125 2.640625q-1.078125 1.015625 -2.8125 1.015625l-2.90625 0zm2.90625 -1.375q1.015625 0 1.65625 -0.640625q0.640625 -0.640625 0.640625 -1.640625q0 -1.046875 -0.609375 -1.671875q-0.609375 -0.640625 -1.6875 -0.640625l-1.34375 0l0 4.59375l1.34375 0zm7.9168854 1.375l0 -0.546875q-0.59375 0.671875 -1.6875 0.671875q-0.765625 0 -1.3125 -0.484375q-0.53125 -0.484375 -0.53125 -1.265625q0 -0.78125 0.5 -1.25q0.515625 -0.46875 1.34375 -0.46875q1.140625 0 1.6875 0.65625l0 -0.71875q0 -0.40625 -0.328125 -0.640625q-0.3125 -0.25 -0.84375 -0.25q-0.875 0 -1.546875 0.625l-0.53125 -0.9375q0.96875 -0.828125 2.3125 -0.828125q1.125 0 1.71875 0.515625q0.609375 0.515625 0.609375 1.484375l0 3.4375l-1.390625 0zm-1.125 -0.8125q0.765625 0 1.125 -0.46875l0 -0.65625q-0.359375 -0.453125 -1.125 -0.453125q-0.421875 0 -0.71875 0.203125q-0.28125 0.203125 -0.28125 0.59375q0 0.375 0.28125 0.578125q0.296875 0.203125 0.71875 0.203125zm7.3645325 0.8125l0 -0.6875q-0.65625 0.8125 -1.640625 0.8125q-1.046875 0 -1.703125 -0.75q-0.640625 -0.765625 -0.640625 -2.03125q0 -1.25 0.640625 -2.015625q0.65625 -0.765625 1.703125 -0.765625q1.0 0 1.640625 0.8125l0 -2.71875l1.40625 0l0 7.34375l-1.40625 0zm-1.203125 -1.109375q0.34375 0 0.6875 -0.171875q0.34375 -0.171875 0.515625 -0.4375l0 -1.875q-0.171875 -0.265625 -0.515625 -0.4375q-0.34375 -0.171875 -0.6875 -0.171875q-0.59375 0 -0.96875 0.4375q-0.375 0.421875 -0.375 1.109375q0 0.671875 0.359375 1.109375q0.359375 0.4375 0.984375 0.4375z" fill-rule="nonzero"></path><path fill="#ffffff" d="m137.51292 250.09302l0 -7.34375l2.5 0q1.671875 0 2.71875 1.046875q1.046875 1.03125 1.046875 2.640625q0 1.59375 -1.046875 2.625q-1.046875 1.03125 -2.71875 1.03125l-2.5 0zm2.5 -0.8125q1.265625 0 2.046875 -0.78125q0.78125 -0.796875 0.78125 -2.0625q0 -1.28125 -0.78125 -2.0625q-0.765625 -0.796875 -2.046875 -0.796875l-1.59375 0l0 5.703125l1.59375 0zm7.3188324 0.9375q-1.1875 0 -1.953125 -0.78125q-0.75 -0.78125 -0.75 -2.0q0 -1.1875 0.75 -1.984375q0.75 -0.796875 1.875 -0.796875q1.140625 0 1.84375 0.796875q0.703125 0.78125 0.703125 2.046875l0 0.203125l-4.296875 0q0.046875 0.8125 0.578125 1.328125q0.546875 0.515625 1.328125 0.515625q0.96875 0 1.640625 -0.671875l0.390625 0.53125q-0.8125 0.8125 -2.109375 0.8125zm1.65625 -3.109375q0 -0.75 -0.484375 -1.265625q-0.484375 -0.515625 -1.265625 -0.515625q-0.734375 0 -1.234375 0.515625q-0.484375 0.515625 -0.5 1.265625l3.484375 0zm1.952652 2.984375l0 -7.34375l0.828125 0l0 7.34375l-0.828125 0zm2.6320496 0l0 -4.59375l-0.890625 0l0 -0.71875l0.890625 0l0 -0.40625q0 -0.828125 0.40625 -1.28125q0.40625 -0.453125 1.125 -0.453125q0.671875 0 1.125 0.40625l-0.34375 0.546875q-0.28125 -0.265625 -0.65625 -0.265625q-0.84375 0 -0.84375 1.046875l0 0.40625l1.078125 0l0 0.71875l-1.078125 0l0 4.59375l-0.8125 0zm4.125122 0.125q-1.1875 0 -1.1875 -1.234375l0 -3.484375l-0.875 0l0 -0.71875l0.875 0l0 -1.453125l0.828125 0l0 1.453125l1.078125 0l0 0.71875l-1.078125 0l0 3.3125q0 0.296875 0.125 0.484375q0.140625 0.1875 0.421875 0.1875q0.328125 0 0.5625 -0.21875l0.234375 0.625q-0.34375 0.328125 -0.984375 0.328125z" fill-rule="nonzero"></path><path fill="#3c78d8" d="m205.95276 203.41733l78.299225 0l0 72.8819l-78.299225 0z" fill-rule="evenodd"></path><path stroke="#434343" stroke-width="2.0" stroke-linejoin="round" stroke-linecap="butt" d="m205.95276 203.41733l78.299225 0l0 72.8819l-78.299225 0z" fill-rule="evenodd"></path><path fill="#ffffff" d="m218.28088 237.22327q-1.953125 0 -3.09375 -1.15625l0.84375 -1.1875q0.390625 0.40625 0.984375 0.703125q0.59375 0.28125 1.34375 0.28125q0.65625 0 0.96875 -0.25q0.3125 -0.25 0.3125 -0.5625q0 -0.328125 -0.375 -0.515625q-0.359375 -0.1875 -1.734375 -0.515625q-2.109375 -0.515625 -2.109375 -2.140625q0 -0.9375 0.75 -1.578125q0.765625 -0.65625 2.03125 -0.65625q1.75 0 2.859375 1.03125l-0.875 1.140625q-0.875 -0.796875 -2.125 -0.796875q-0.515625 0 -0.78125 0.203125q-0.265625 0.203125 -0.265625 0.53125q0 0.28125 0.3125 0.453125q0.3125 0.15625 0.78125 0.265625l1.015625 0.25q2.09375 0.53125 2.09375 2.15625q0 1.078125 -0.78125 1.71875q-0.78125 0.625 -2.15625 0.625zm4.456314 -6.015625q-0.34375 0 -0.59375 -0.234375q-0.25 -0.25 -0.25 -0.59375q0 -0.359375 0.25 -0.59375q0.25 -0.234375 0.59375 -0.234375q0.34375 0 0.578125 0.234375q0.25 0.234375 0.25 0.59375q0 0.34375 -0.25 0.59375q-0.234375 0.234375 -0.578125 0.234375zm-0.703125 5.890625l0 -5.3125l1.40625 0l0 5.3125l-1.40625 0zm4.10231 -1.703125q0.171875 0.25 0.515625 0.421875q0.34375 0.171875 0.671875 0.171875q0.625 0 0.984375 -0.421875q0.375 -0.421875 0.375 -1.125q0 -0.6875 -0.375 -1.109375q-0.359375 -0.4375 -0.984375 -0.4375q-0.328125 0 -0.671875 0.1875q-0.34375 0.171875 -0.515625 0.421875l0 1.890625zm-1.40625 1.703125l0 -7.34375l1.40625 0l0 2.71875q0.640625 -0.8125 1.640625 -0.8125q1.046875 0 1.6875 0.765625q0.65625 0.765625 0.65625 2.015625q0 1.265625 -0.65625 2.03125q-0.640625 0.75 -1.6875 0.75q-0.984375 0 -1.640625 -0.8125l0 0.6875l-1.40625 0zm6.244629 0l0 -7.34375l1.40625 0l0 7.34375l-1.40625 0zm3.3991852 -5.890625q-0.34375 0 -0.59375 -0.234375q-0.25 -0.25 -0.25 -0.59375q0 -0.359375 0.25 -0.59375q0.25 -0.234375 0.59375 -0.234375q0.34375 0 0.578125 0.234375q0.25 0.234375 0.25 0.59375q0 0.34375 -0.25 0.59375q-0.234375 0.234375 -0.578125 0.234375zm-0.703125 5.890625l0 -5.3125l1.40625 0l0 5.3125l-1.40625 0zm6.28981 0l0 -3.21875q0 -0.984375 -0.984375 -0.984375q-0.75 0 -1.203125 0.625l0 3.578125l-1.40625 0l0 -5.3125l1.40625 0l0 0.6875q0.25 -0.296875 0.71875 -0.546875q0.46875 -0.265625 1.140625 -0.265625q0.875 0 1.296875 0.453125q0.421875 0.453125 0.421875 1.234375l0 3.75l-1.390625 0zm4.7637787 2.15625q-0.703125 0 -1.25 -0.1875q-0.53125 -0.171875 -1.046875 -0.609375l0.625 -1.0q0.59375 0.65625 1.671875 0.65625q0.6875 0 1.0625 -0.359375q0.390625 -0.34375 0.390625 -0.984375l0 -0.546875q-0.671875 0.84375 -1.640625 0.84375q-1.0625 0 -1.703125 -0.734375q-0.625 -0.734375 -0.625 -1.96875q0 -1.234375 0.625 -1.96875q0.625 -0.734375 1.703125 -0.734375q1.015625 0 1.640625 0.8125l0 -0.6875l1.40625 0l0 4.953125q0 1.203125 -0.75 1.859375q-0.734375 0.65625 -2.109375 0.65625zm0.265625 -3.4375q0.34375 0 0.671875 -0.171875q0.34375 -0.171875 0.515625 -0.421875l0 -1.71875q-0.171875 -0.265625 -0.515625 -0.4375q-0.328125 -0.171875 -0.671875 -0.171875q-0.59375 0 -0.96875 0.390625q-0.375 0.375 -0.375 1.078125q0 0.6875 0.375 1.078125q0.375 0.375 0.96875 0.375z" fill-rule="nonzero"></path><path fill="#ffffff" d="m221.01526 250.09827l0 -3.359375l-4.296875 0l0 3.359375l-0.90625 0l0 -7.34375l0.90625 0l0 3.15625l4.296875 0l0 -3.15625l0.90625 0l0 7.34375l-0.90625 0zm5.665451 0l0 -0.609375q-0.671875 0.734375 -1.75 0.734375q-0.8125 0 -1.34375 -0.5q-0.515625 -0.5 -0.515625 -1.25q0 -0.765625 0.515625 -1.25q0.53125 -0.5 1.34375 -0.5q1.140625 0 1.75 0.71875l0 -0.953125q0 -0.53125 -0.375 -0.828125q-0.375 -0.296875 -0.953125 -0.296875q-0.9375 0 -1.640625 0.734375l-0.375 -0.5625q0.84375 -0.875 2.125 -0.875q0.96875 0 1.5 0.46875q0.546875 0.46875 0.546875 1.3125l0 3.65625l-0.828125 0zm-1.453125 -0.46875q0.96875 0 1.453125 -0.65625l0 -1.0q-0.484375 -0.65625 -1.453125 -0.65625q-0.59375 0 -0.953125 0.328125q-0.359375 0.3125 -0.359375 0.84375q0 0.5 0.359375 0.828125q0.359375 0.3125 0.953125 0.3125zm7.069031 0.46875l0 -0.609375q-0.671875 0.734375 -1.75 0.734375q-0.8125 0 -1.34375 -0.5q-0.515625 -0.5 -0.515625 -1.25q0 -0.765625 0.515625 -1.25q0.53125 -0.5 1.34375 -0.5q1.140625 0 1.75 0.71875l0 -0.953125q0 -0.53125 -0.375 -0.828125q-0.375 -0.296875 -0.953125 -0.296875q-0.9375 0 -1.640625 0.734375l-0.375 -0.5625q0.84375 -0.875 2.125 -0.875q0.96875 0 1.5 0.46875q0.546875 0.46875 0.546875 1.3125l0 3.65625l-0.828125 0zm-1.453125 -0.46875q0.96875 0 1.453125 -0.65625l0 -1.0q-0.484375 -0.65625 -1.453125 -0.65625q-0.59375 0 -0.953125 0.328125q-0.359375 0.3125 -0.359375 0.84375q0 0.5 0.359375 0.828125q0.359375 0.3125 0.953125 0.3125zm5.881531 2.625q-0.671875 0 -1.171875 -0.171875q-0.5 -0.15625 -0.96875 -0.625l0.421875 -0.609375q0.328125 0.390625 0.734375 0.546875q0.421875 0.171875 0.984375 0.171875q0.8125 0 1.25 -0.421875q0.453125 -0.421875 0.453125 -1.171875l0 -0.75q-0.28125 0.40625 -0.75 0.671875q-0.46875 0.265625 -1.03125 0.265625q-1.078125 0 -1.71875 -0.75q-0.640625 -0.765625 -0.640625 -2.0q0 -1.265625 0.65625 -2.0q0.65625 -0.75 1.703125 -0.75q1.109375 0 1.78125 0.921875l0 -0.796875l0.828125 0l0 5.15625q0 1.125 -0.65625 1.71875q-0.65625 0.59375 -1.875 0.59375zm0.125 -2.8125q0.453125 0 0.890625 -0.234375q0.453125 -0.25 0.6875 -0.640625l0 -2.3125q-0.234375 -0.390625 -0.6875 -0.625q-0.453125 -0.234375 -0.890625 -0.234375q-0.78125 0 -1.25 0.5625q-0.453125 0.546875 -0.453125 1.453125q0 0.921875 0.46875 1.484375q0.484375 0.546875 1.234375 0.546875z" fill-rule="nonzero"></path><path fill="#3c78d8" d="m284.25198 203.41733l78.299194 0l0 72.8819l-78.299194 0z" fill-rule="evenodd"></path><path stroke="#434343" stroke-width="2.0" stroke-linejoin="round" stroke-linecap="butt" d="m284.25198 203.41733l78.299194 0l0 72.8819l-78.299194 0z" fill-rule="evenodd"></path><path fill="#ffffff" d="m297.28323 237.22327q-1.5625 0 -2.4375 -0.796875q-0.875 -0.796875 -0.875 -2.25l0 -4.421875l1.59375 0l0 4.359375q0 0.765625 0.421875 1.25q0.4375 0.484375 1.296875 0.484375q0.859375 0 1.28125 -0.484375q0.4375 -0.484375 0.4375 -1.25l0 -4.359375l1.59375 0l0 4.40625q0 1.453125 -0.859375 2.265625q-0.859375 0.796875 -2.453125 0.796875zm8.061096 -0.125l0 -3.21875q0 -0.984375 -0.984375 -0.984375q-0.75 0 -1.203125 0.625l0 3.578125l-1.40625 0l0 -5.3125l1.40625 0l0 0.6875q0.25 -0.296875 0.71875 -0.546875q0.46875 -0.265625 1.140625 -0.265625q0.875 0 1.296875 0.453125q0.421875 0.453125 0.421875 1.234375l0 3.75l-1.390625 0zm5.060669 0.125q-1.265625 0 -2.046875 -0.78125q-0.765625 -0.796875 -0.765625 -2.0q0 -1.203125 0.765625 -1.984375q0.78125 -0.796875 2.046875 -0.796875q0.8125 0 1.3125 0.296875q0.515625 0.296875 0.78125 0.65625l-0.90625 0.859375q-0.390625 -0.578125 -1.125 -0.578125q-0.640625 0 -1.046875 0.421875q-0.390625 0.421875 -0.390625 1.125q0 0.6875 0.390625 1.125q0.40625 0.421875 1.046875 0.421875q0.71875 0 1.125 -0.578125l0.90625 0.84375q-0.265625 0.375 -0.78125 0.671875q-0.5 0.296875 -1.3125 0.296875zm2.83313 -0.125l0 -7.34375l1.40625 0l0 7.34375l-1.40625 0zm5.1960754 0.125q-1.25 0 -2.046875 -0.765625q-0.78125 -0.78125 -0.78125 -2.015625q0 -1.1875 0.78125 -1.984375q0.78125 -0.796875 1.96875 -0.796875q1.171875 0 1.90625 0.8125q0.75 0.796875 0.75 2.109375l0 0.296875l-3.953125 0q0.0625 0.515625 0.453125 0.875q0.390625 0.359375 1.078125 0.359375q0.328125 0 0.734375 -0.125q0.40625 -0.140625 0.6875 -0.390625l0.609375 0.890625q-0.390625 0.375 -0.984375 0.5625q-0.578125 0.171875 -1.203125 0.171875zm1.21875 -3.28125q-0.03125 -0.53125 -0.390625 -0.84375q-0.359375 -0.328125 -0.90625 -0.328125q-0.5625 0 -0.921875 0.34375q-0.34375 0.328125 -0.390625 0.828125l2.609375 0z" fill-rule="nonzero"></path><path fill="#ffffff" d="m297.5801 250.23889q-1.609375 0 -2.6875 -1.078125q-1.078125 -1.09375 -1.078125 -2.71875q0 -1.671875 1.078125 -2.734375q1.09375 -1.0625 2.6875 -1.0625q1.734375 0 2.859375 1.375l-0.734375 0.453125q-0.34375 -0.453125 -0.90625 -0.734375q-0.546875 -0.28125 -1.21875 -0.28125q-1.21875 0 -2.03125 0.84375q-0.796875 0.84375 -0.796875 2.140625q0 1.296875 0.8125 2.140625q0.8125 0.84375 2.015625 0.84375q0.5625 0 1.078125 -0.203125q0.53125 -0.21875 0.890625 -0.59375l0 -1.484375l-2.515625 0l0 -0.8125l3.4375 0l0 2.640625q-1.140625 1.265625 -2.890625 1.265625zm6.4104614 -0.015625q-1.15625 0 -1.890625 -0.78125q-0.734375 -0.78125 -0.734375 -2.0q0 -1.234375 0.734375 -2.0q0.734375 -0.78125 1.890625 -0.78125q1.15625 0 1.890625 0.78125q0.75 0.765625 0.75 2.0q0 1.21875 -0.75 2.0q-0.734375 0.78125 -1.890625 0.78125zm0 -0.734375q0.78125 0 1.265625 -0.578125q0.5 -0.578125 0.5 -1.46875q0 -0.890625 -0.5 -1.46875q-0.484375 -0.578125 -1.265625 -0.578125q-0.765625 0 -1.265625 0.578125q-0.5 0.5625 -0.5 1.46875q0 0.90625 0.484375 1.484375q0.5 0.5625 1.28125 0.5625zm7.361084 0.609375l0 -0.75q-0.296875 0.359375 -0.796875 0.625q-0.5 0.25 -1.09375 0.25q-1.6875 0 -1.6875 -1.6875l0 -3.75l0.828125 0l0 3.5q0 0.625 0.28125 0.921875q0.28125 0.28125 0.90625 0.28125q0.484375 0 0.90625 -0.234375q0.4375 -0.25 0.65625 -0.5625l0 -3.90625l0.828125 0l0 5.3125l-0.828125 0zm6.137268 0l0 -0.796875q-0.296875 0.40625 -0.765625 0.671875q-0.46875 0.25 -1.03125 0.25q-1.0625 0 -1.71875 -0.75q-0.640625 -0.765625 -0.640625 -2.03125q0 -1.265625 0.65625 -2.015625q0.65625 -0.765625 1.703125 -0.765625q0.546875 0 1.015625 0.25q0.46875 0.234375 0.78125 0.671875l0 -2.828125l0.828125 0l0 7.34375l-0.828125 0zm-1.59375 -0.609375q0.5 0 0.9375 -0.234375q0.4375 -0.25 0.65625 -0.59375l0 -2.40625q-0.21875 -0.359375 -0.65625 -0.609375q-0.4375 -0.25 -0.9375 -0.25q-0.765625 0 -1.234375 0.5625q-0.46875 0.546875 -0.46875 1.484375q0 0.921875 0.453125 1.484375q0.46875 0.5625 1.25 0.5625zm7.189911 0.609375l0 -0.609375q-0.671875 0.734375 -1.75 0.734375q-0.8125 0 -1.34375 -0.5q-0.515625 -0.5 -0.515625 -1.25q0 -0.765625 0.515625 -1.25q0.53125 -0.5 1.34375 -0.5q1.140625 0 1.75 0.71875l0 -0.953125q0 -0.53125 -0.375 -0.828125q-0.375 -0.296875 -0.953125 -0.296875q-0.9375 0 -1.640625 0.734375l-0.375 -0.5625q0.84375 -0.875 2.125 -0.875q0.96875 0 1.5 0.46875q0.546875 0.46875 0.546875 1.3125l0 3.65625l-0.828125 0zm-1.453125 -0.46875q0.96875 0 1.453125 -0.65625l0 -1.0q-0.484375 -0.65625 -1.453125 -0.65625q-0.59375 0 -0.953125 0.328125q-0.359375 0.3125 -0.359375 0.84375q0 0.5 0.359375 0.828125q0.359375 0.3125 0.953125 0.3125z" fill-rule="nonzero"></path><path fill="#3c78d8" d="m519.1496 203.41733l78.299194 0l0 72.8819l-78.299194 0z" fill-rule="evenodd"></path><path stroke="#434343" stroke-width="2.0" stroke-linejoin="round" stroke-linecap="butt" d="m519.1496 203.41733l78.299194 0l0 72.8819l-78.299194 0z" fill-rule="evenodd"></path><path fill="#ffffff" d="m533.93085 237.09827l-3.5 -4.78125l0 4.78125l-1.5625 0l0 -7.34375l1.609375 0l3.40625 4.609375l0 -4.609375l1.5625 0l0 7.34375l-1.515625 0zm3.3778687 -5.890625q-0.34375 0 -0.59375 -0.234375q-0.25 -0.25 -0.25 -0.59375q0 -0.359375 0.25 -0.59375q0.25 -0.234375 0.59375 -0.234375q0.34375 0 0.578125 0.234375q0.25 0.234375 0.25 0.59375q0 0.34375 -0.25 0.59375q-0.234375 0.234375 -0.578125 0.234375zm-0.703125 5.890625l0 -5.3125l1.40625 0l0 5.3125l-1.40625 0zm5.18042 0.125q-1.265625 0 -2.046875 -0.78125q-0.765625 -0.796875 -0.765625 -2.0q0 -1.203125 0.765625 -1.984375q0.78125 -0.796875 2.046875 -0.796875q0.8125 0 1.3125 0.296875q0.515625 0.296875 0.78125 0.65625l-0.90625 0.859375q-0.390625 -0.578125 -1.125 -0.578125q-0.640625 0 -1.046875 0.421875q-0.390625 0.421875 -0.390625 1.125q0 0.6875 0.390625 1.125q0.40625 0.421875 1.046875 0.421875q0.71875 0 1.125 -0.578125l0.90625 0.84375q-0.265625 0.375 -0.78125 0.671875q-0.5 0.296875 -1.3125 0.296875zm5.33313 0q-1.25 0 -2.046875 -0.765625q-0.78125 -0.78125 -0.78125 -2.015625q0 -1.1875 0.78125 -1.984375q0.78125 -0.796875 1.96875 -0.796875q1.171875 0 1.90625 0.8125q0.75 0.796875 0.75 2.109375l0 0.296875l-3.953125 0q0.0625 0.515625 0.453125 0.875q0.390625 0.359375 1.078125 0.359375q0.328125 0 0.734375 -0.125q0.40625 -0.140625 0.6875 -0.390625l0.609375 0.890625q-0.390625 0.375 -0.984375 0.5625q-0.578125 0.171875 -1.203125 0.171875zm1.21875 -3.28125q-0.03125 -0.53125 -0.390625 -0.84375q-0.359375 -0.328125 -0.90625 -0.328125q-0.5625 0 -0.921875 0.34375q-0.34375 0.328125 -0.390625 0.828125l2.609375 0zm9.996033 3.15625l-0.453125 -1.25l-3.140625 0l-0.453125 1.25l-1.796875 0l2.84375 -7.34375l1.953125 0l2.828125 7.34375l-1.78125 0zm-2.015625 -5.78125l-1.140625 3.15625l2.28125 0l-1.140625 -3.15625zm7.8045654 5.78125l0 -0.671875q-0.71875 0.796875 -1.875 0.796875q-0.875 0 -1.296875 -0.4375q-0.421875 -0.453125 -0.421875 -1.234375l0 -3.765625l1.40625 0l0 3.21875q0 0.984375 0.96875 0.984375q0.71875 0 1.21875 -0.609375l0 -3.59375l1.390625 0l0 5.3125l-1.390625 0zm6.170044 0l0 -3.21875q0 -0.984375 -0.984375 -0.984375q-0.75 0 -1.203125 0.625l0 3.578125l-1.40625 0l0 -5.3125l1.40625 0l0 0.6875q0.25 -0.296875 0.71875 -0.546875q0.46875 -0.265625 1.140625 -0.265625q0.875 0 1.296875 0.453125q0.421875 0.453125 0.421875 1.234375l0 3.75l-1.390625 0zm4.357483 0.125q-1.5 0 -1.5 -1.4375l0 -2.78125l-0.875 0l0 -1.21875l0.875 0l0 -1.453125l1.40625 0l0 1.453125l1.078125 0l0 1.21875l-1.078125 0l0 2.40625q0 0.25 0.125 0.421875q0.125 0.15625 0.359375 0.15625q0.328125 0 0.484375 -0.15625l0.296875 1.0625q-0.359375 0.328125 -1.171875 0.328125z" fill-rule="nonzero"></path><path fill="#ffffff" d="m534.2121 250.09827l0 -3.359375l-4.296875 0l0 3.359375l-0.90625 0l0 -7.34375l0.90625 0l0 3.15625l4.296875 0l0 -3.15625l0.90625 0l0 7.34375l-0.90625 0zm4.7435913 0.125q-1.1875 0 -1.953125 -0.78125q-0.75 -0.78125 -0.75 -2.0q0 -1.1875 0.75 -1.984375q0.75 -0.796875 1.875 -0.796875q1.140625 0 1.84375 0.796875q0.703125 0.78125 0.703125 2.046875l0 0.203125l-4.296875 0q0.046875 0.8125 0.578125 1.328125q0.546875 0.515625 1.328125 0.515625q0.96875 0 1.640625 -0.671875l0.390625 0.53125q-0.8125 0.8125 -2.109375 0.8125zm1.65625 -3.109375q0 -0.75 -0.484375 -1.265625q-0.484375 -0.515625 -1.265625 -0.515625q-0.734375 0 -1.234375 0.515625q-0.484375 0.515625 -0.5 1.265625l3.484375 0zm4.3432617 3.109375q-1.1875 0 -1.953125 -0.78125q-0.75 -0.78125 -0.75 -2.0q0 -1.1875 0.75 -1.984375q0.75 -0.796875 1.875 -0.796875q1.140625 0 1.84375 0.796875q0.703125 0.78125 0.703125 2.046875l0 0.203125l-4.296875 0q0.046875 0.8125 0.578125 1.328125q0.546875 0.515625 1.328125 0.515625q0.96875 0 1.640625 -0.671875l0.390625 0.53125q-0.8125 0.8125 -2.109375 0.8125zm1.65625 -3.109375q0 -0.75 -0.484375 -1.265625q-0.484375 -0.515625 -1.265625 -0.515625q-0.734375 0 -1.234375 0.515625q-0.484375 0.515625 -0.5 1.265625l3.484375 0zm1.9526367 2.984375l0 -5.3125l0.828125 0l0 0.859375q0.734375 -0.96875 1.765625 -0.96875l0 0.84375l-0.328125 -0.03125q-0.375 0 -0.828125 0.28125q-0.453125 0.265625 -0.609375 0.5625l0 3.765625l-0.828125 0zm3.5166016 0l0 -7.34375l0.828125 0l0 7.34375l-0.828125 0zm4.78833 0.125q-1.1875 0 -1.953125 -0.78125q-0.75 -0.78125 -0.75 -2.0q0 -1.1875 0.75 -1.984375q0.75 -0.796875 1.875 -0.796875q1.140625 0 1.84375 0.796875q0.703125 0.78125 0.703125 2.046875l0 0.203125l-4.296875 0q0.046875 0.8125 0.578125 1.328125q0.546875 0.515625 1.328125 0.515625q0.96875 0 1.640625 -0.671875l0.390625 0.53125q-0.8125 0.8125 -2.109375 0.8125zm1.65625 -3.109375q0 -0.75 -0.484375 -1.265625q-0.484375 -0.515625 -1.265625 -0.515625q-0.734375 0 -1.234375 0.515625q-0.484375 0.515625 -0.5 1.265625l3.484375 0zm5.5307617 2.984375l0 -3.46875q0 -0.71875 -0.328125 -0.96875q-0.3125 -0.265625 -0.859375 -0.265625q-0.453125 0 -0.90625 0.25q-0.4375 0.234375 -0.65625 0.5625l0 3.890625l-0.828125 0l0 -5.3125l0.828125 0l0 0.765625q0.328125 -0.390625 0.828125 -0.640625q0.5 -0.25 1.0625 -0.25q1.6875 0 1.6875 1.703125l0 3.734375l-0.828125 0z" fill-rule="nonzero"></path><path fill="#3c78d8" d="m362.55118 203.41733l78.299225 0l0 72.8819l-78.299225 0z" fill-rule="evenodd"></path><path stroke="#434343" stroke-width="2.0" stroke-linejoin="round" stroke-linecap="butt" d="m362.55118 203.41733l78.299225 0l0 72.8819l-78.299225 0z" fill-rule="evenodd"></path><path fill="#ffffff" d="m377.33243 237.09827l-3.5 -4.78125l0 4.78125l-1.5625 0l0 -7.34375l1.609375 0l3.40625 4.609375l0 -4.609375l1.5625 0l0 7.34375l-1.515625 0zm3.3778687 -5.890625q-0.34375 0 -0.59375 -0.234375q-0.25 -0.25 -0.25 -0.59375q0 -0.359375 0.25 -0.59375q0.25 -0.234375 0.59375 -0.234375q0.34375 0 0.578125 0.234375q0.25 0.234375 0.25 0.59375q0 0.34375 -0.25 0.59375q-0.234375 0.234375 -0.578125 0.234375zm-0.703125 5.890625l0 -5.3125l1.40625 0l0 5.3125l-1.40625 0zm5.18042 0.125q-1.265625 0 -2.046875 -0.78125q-0.765625 -0.796875 -0.765625 -2.0q0 -1.203125 0.765625 -1.984375q0.78125 -0.796875 2.046875 -0.796875q0.8125 0 1.3125 0.296875q0.515625 0.296875 0.78125 0.65625l-0.90625 0.859375q-0.390625 -0.578125 -1.125 -0.578125q-0.640625 0 -1.046875 0.421875q-0.390625 0.421875 -0.390625 1.125q0 0.6875 0.390625 1.125q0.40625 0.421875 1.046875 0.421875q0.71875 0 1.125 -0.578125l0.90625 0.84375q-0.265625 0.375 -0.78125 0.671875q-0.5 0.296875 -1.3125 0.296875zm5.3331604 0q-1.25 0 -2.046875 -0.765625q-0.78125 -0.78125 -0.78125 -2.015625q0 -1.1875 0.78125 -1.984375q0.78125 -0.796875 1.96875 -0.796875q1.171875 0 1.90625 0.8125q0.75 0.796875 0.75 2.109375l0 0.296875l-3.953125 0q0.0625 0.515625 0.453125 0.875q0.390625 0.359375 1.078125 0.359375q0.328125 0 0.734375 -0.125q0.40625 -0.140625 0.6875 -0.390625l0.609375 0.890625q-0.390625 0.375 -0.984375 0.5625q-0.578125 0.171875 -1.203125 0.171875zm1.21875 -3.28125q-0.03125 -0.53125 -0.390625 -0.84375q-0.359375 -0.328125 -0.90625 -0.328125q-0.5625 0 -0.921875 0.34375q-0.34375 0.328125 -0.390625 0.828125l2.609375 0zm9.995972 3.15625l-0.453125 -1.25l-3.140625 0l-0.453125 1.25l-1.796875 0l2.84375 -7.34375l1.953125 0l2.828125 7.34375l-1.78125 0zm-2.015625 -5.78125l-1.140625 3.15625l2.28125 0l-1.140625 -3.15625zm7.804596 5.78125l0 -0.671875q-0.71875 0.796875 -1.875 0.796875q-0.875 0 -1.296875 -0.4375q-0.421875 -0.453125 -0.421875 -1.234375l0 -3.765625l1.40625 0l0 3.21875q0 0.984375 0.96875 0.984375q0.71875 0 1.21875 -0.609375l0 -3.59375l1.390625 0l0 5.3125l-1.390625 0zm6.1700134 0l0 -3.21875q0 -0.984375 -0.984375 -0.984375q-0.75 0 -1.203125 0.625l0 3.578125l-1.40625 0l0 -5.3125l1.40625 0l0 0.6875q0.25 -0.296875 0.71875 -0.546875q0.46875 -0.265625 1.140625 -0.265625q0.875 0 1.296875 0.453125q0.421875 0.453125 0.421875 1.234375l0 3.75l-1.390625 0zm4.357544 0.125q-1.5 0 -1.5 -1.4375l0 -2.78125l-0.875 0l0 -1.21875l0.875 0l0 -1.453125l1.40625 0l0 1.453125l1.078125 0l0 1.21875l-1.078125 0l0 2.40625q0 0.25 0.125 0.421875q0.125 0.15625 0.359375 0.15625q0.328125 0 0.484375 -0.15625l0.296875 1.0625q-0.359375 0.328125 -1.171875 0.328125z" fill-rule="nonzero"></path><path fill="#ffffff" d="m377.61368 250.09827l0 -3.359375l-4.296875 0l0 3.359375l-0.90625 0l0 -7.34375l0.90625 0l0 3.15625l4.296875 0l0 -3.15625l0.90625 0l0 7.34375l-0.90625 0zm4.7435913 0.125q-1.1875 0 -1.953125 -0.78125q-0.75 -0.78125 -0.75 -2.0q0 -1.1875 0.75 -1.984375q0.75 -0.796875 1.875 -0.796875q1.140625 0 1.84375 0.796875q0.703125 0.78125 0.703125 2.046875l0 0.203125l-4.296875 0q0.046875 0.8125 0.578125 1.328125q0.546875 0.515625 1.328125 0.515625q0.96875 0 1.640625 -0.671875l0.390625 0.53125q-0.8125 0.8125 -2.109375 0.8125zm1.65625 -3.109375q0 -0.75 -0.484375 -1.265625q-0.484375 -0.515625 -1.265625 -0.515625q-0.734375 0 -1.234375 0.515625q-0.484375 0.515625 -0.5 1.265625l3.484375 0zm4.3432617 3.109375q-1.1875 0 -1.953125 -0.78125q-0.75 -0.78125 -0.75 -2.0q0 -1.1875 0.75 -1.984375q0.75 -0.796875 1.875 -0.796875q1.140625 0 1.84375 0.796875q0.703125 0.78125 0.703125 2.046875l0 0.203125l-4.296875 0q0.046875 0.8125 0.578125 1.328125q0.546875 0.515625 1.328125 0.515625q0.96875 0 1.640625 -0.671875l0.390625 0.53125q-0.8125 0.8125 -2.109375 0.8125zm1.65625 -3.109375q0 -0.75 -0.484375 -1.265625q-0.484375 -0.515625 -1.265625 -0.515625q-0.734375 0 -1.234375 0.515625q-0.484375 0.515625 -0.5 1.265625l3.484375 0zm1.9526672 2.984375l0 -5.3125l0.828125 0l0 0.859375q0.734375 -0.96875 1.765625 -0.96875l0 0.84375l-0.328125 -0.03125q-0.375 0 -0.828125 0.28125q-0.453125 0.265625 -0.609375 0.5625l0 3.765625l-0.828125 0zm3.5166016 0l0 -7.34375l0.828125 0l0 7.34375l-0.828125 0zm4.7882996 0.125q-1.1875 0 -1.953125 -0.78125q-0.75 -0.78125 -0.75 -2.0q0 -1.1875 0.75 -1.984375q0.75 -0.796875 1.875 -0.796875q1.140625 0 1.84375 0.796875q0.703125 0.78125 0.703125 2.046875l0 0.203125l-4.296875 0q0.046875 0.8125 0.578125 1.328125q0.546875 0.515625 1.328125 0.515625q0.96875 0 1.640625 -0.671875l0.390625 0.53125q-0.8125 0.8125 -2.109375 0.8125zm1.65625 -3.109375q0 -0.75 -0.484375 -1.265625q-0.484375 -0.515625 -1.265625 -0.515625q-0.734375 0 -1.234375 0.515625q-0.484375 0.515625 -0.5 1.265625l3.484375 0zm5.5307617 2.984375l0 -3.46875q0 -0.71875 -0.328125 -0.96875q-0.3125 -0.265625 -0.859375 -0.265625q-0.453125 0 -0.90625 0.25q-0.4375 0.234375 -0.65625 0.5625l0 3.890625l-0.828125 0l0 -5.3125l0.828125 0l0 0.765625q0.328125 -0.390625 0.828125 -0.640625q0.5 -0.25 1.0625 -0.25q1.6875 0 1.6875 1.703125l0 3.734375l-0.828125 0z" fill-rule="nonzero"></path><path fill="#3c78d8" d="m440.8504 203.39896l78.299194 0l0 72.91339l-78.299194 0z" fill-rule="evenodd"></path><path stroke="#434343" stroke-width="2.0" stroke-linejoin="round" stroke-linecap="butt" d="m440.8504 203.39896l78.299194 0l0 72.91339l-78.299194 0z" fill-rule="evenodd"></path><path fill="#ffffff" d="m475.1382 243.70502q-0.25 0 -0.4375 -0.171875q-0.171875 -0.171875 -0.171875 -0.4375q0 -0.25 0.171875 -0.421875q0.1875 -0.171875 0.4375 -0.171875q0.25 0 0.421875 0.171875q0.1875 0.171875 0.1875 0.421875q0 0.265625 -0.1875 0.4375q-0.171875 0.171875 -0.421875 0.171875zm2.4509583 0q-0.25 0 -0.4375 -0.171875q-0.171875 -0.171875 -0.171875 -0.4375q0 -0.25 0.171875 -0.421875q0.1875 -0.171875 0.4375 -0.171875q0.25 0 0.421875 0.171875q0.1875 0.171875 0.1875 0.421875q0 0.265625 -0.1875 0.4375q-0.171875 0.171875 -0.421875 0.171875zm2.4509583 0q-0.25 0 -0.4375 -0.171875q-0.171875 -0.171875 -0.171875 -0.4375q0 -0.25 0.171875 -0.421875q0.1875 -0.171875 0.4375 -0.171875q0.25 0 0.421875 0.171875q0.1875 0.171875 0.1875 0.421875q0 0.265625 -0.1875 0.4375q-0.171875 0.171875 -0.421875 0.171875zm2.4509583 0q-0.25 0 -0.4375 -0.171875q-0.171875 -0.171875 -0.171875 -0.4375q0 -0.25 0.171875 -0.421875q0.1875 -0.171875 0.4375 -0.171875q0.25 0 0.421875 0.171875q0.1875 0.171875 0.1875 0.421875q0 0.265625 -0.1875 0.4375q-0.171875 0.171875 -0.421875 0.171875zm2.4509583 0q-0.25 0 -0.4375 -0.171875q-0.171875 -0.171875 -0.171875 -0.4375q0 -0.25 0.171875 -0.421875q0.1875 -0.171875 0.4375 -0.171875q0.25 0 0.421875 0.171875q0.1875 0.171875 0.1875 0.421875q0 0.265625 -0.1875 0.4375q-0.171875 0.171875 -0.421875 0.171875z" fill-rule="nonzero"></path><path fill="#3c78d8" d="m597.4488 203.41733l78.299255 0l0 72.8819l-78.299255 0z" fill-rule="evenodd"></path><path stroke="#434343" stroke-width="2.0" stroke-linejoin="round" stroke-linecap="butt" d="m597.4488 203.41733l78.299255 0l0 72.8819l-78.299255 0z" fill-rule="evenodd"></path><path fill="#ffffff" d="m610.73004 237.23889q-1.671875 0 -2.796875 -1.0625q-1.109375 -1.0625 -1.109375 -2.734375q0 -1.671875 1.09375 -2.734375q1.109375 -1.0625 2.8125 -1.0625q2.0 0 3.03125 1.640625l-1.296875 0.703125q-0.25 -0.390625 -0.703125 -0.671875q-0.4375 -0.296875 -1.03125 -0.296875q-1.0 0 -1.65625 0.6875q-0.640625 0.6875 -0.640625 1.734375q0 1.0625 0.65625 1.734375q0.65625 0.671875 1.640625 0.671875q0.5 0 0.921875 -0.171875q0.421875 -0.1875 0.640625 -0.390625l0 -0.875l-1.9375 0l0 -1.375l3.5 0l0 2.8125q-1.25 1.390625 -3.125 1.390625zm4.0788574 -0.140625l0 -5.3125l1.40625 0l0 0.71875q0.28125 -0.34375 0.734375 -0.59375q0.453125 -0.25 0.953125 -0.25l0 1.359375l-0.375 -0.03125q-0.375 0 -0.765625 0.171875q-0.375 0.171875 -0.546875 0.421875l0 3.515625l-1.40625 0zm7.0394287 0l0 -0.546875q-0.59375 0.671875 -1.6875 0.671875q-0.765625 0 -1.3125 -0.484375q-0.53125 -0.484375 -0.53125 -1.265625q0 -0.78125 0.5 -1.25q0.515625 -0.46875 1.34375 -0.46875q1.140625 0 1.6875 0.65625l0 -0.71875q0 -0.40625 -0.328125 -0.640625q-0.3125 -0.25 -0.84375 -0.25q-0.875 0 -1.546875 0.625l-0.53125 -0.9375q0.96875 -0.828125 2.3125 -0.828125q1.125 0 1.71875 0.515625q0.609375 0.515625 0.609375 1.484375l0 3.4375l-1.390625 0zm-1.125 -0.8125q0.765625 0 1.125 -0.46875l0 -0.65625q-0.359375 -0.453125 -1.125 -0.453125q-0.421875 0 -0.71875 0.203125q-0.28125 0.203125 -0.28125 0.59375q0 0.375 0.28125 0.578125q0.296875 0.203125 0.71875 0.203125zm7.302002 0.8125l0 -3.21875q0 -0.984375 -0.984375 -0.984375q-0.75 0 -1.203125 0.625l0 3.578125l-1.40625 0l0 -5.3125l1.40625 0l0 0.6875q0.25 -0.296875 0.71875 -0.546875q0.46875 -0.265625 1.140625 -0.265625q0.875 0 1.296875 0.453125q0.421875 0.453125 0.421875 1.234375l0 3.75l-1.390625 0zm6.232544 0l0 -0.6875q-0.65625 0.8125 -1.640625 0.8125q-1.046875 0 -1.703125 -0.75q-0.640625 -0.765625 -0.640625 -2.03125q0 -1.25 0.640625 -2.015625q0.65625 -0.765625 1.703125 -0.765625q1.0 0 1.640625 0.8125l0 -2.71875l1.40625 0l0 7.34375l-1.40625 0zm-1.203125 -1.109375q0.34375 0 0.6875 -0.171875q0.34375 -0.171875 0.515625 -0.4375l0 -1.875q-0.171875 -0.265625 -0.515625 -0.4375q-0.34375 -0.171875 -0.6875 -0.171875q-0.59375 0 -0.96875 0.4375q-0.375 0.421875 -0.375 1.109375q0 0.671875 0.359375 1.109375q0.359375 0.4375 0.984375 0.4375zm10.385254 1.109375l0 -3.359375q0 -0.84375 -0.796875 -0.84375q-0.375 0 -0.65625 0.203125q-0.28125 0.1875 -0.4375 0.40625l0 3.59375l-1.40625 0l0 -3.359375q0 -0.84375 -0.796875 -0.84375q-0.359375 0 -0.65625 0.203125q-0.28125 0.203125 -0.4375 0.421875l0 3.578125l-1.40625 0l0 -5.3125l1.40625 0l0 0.6875q0.1875 -0.296875 0.6875 -0.546875q0.515625 -0.265625 1.046875 -0.265625q1.15625 0 1.46875 0.953125q0.265625 -0.40625 0.765625 -0.671875q0.5 -0.28125 1.0625 -0.28125q1.5625 0 1.5625 1.59375l0 3.84375l-1.40625 0zm5.6885986 0l0 -0.546875q-0.59375 0.671875 -1.6875 0.671875q-0.765625 0 -1.3125 -0.484375q-0.53125 -0.484375 -0.53125 -1.265625q0 -0.78125 0.5 -1.25q0.515625 -0.46875 1.34375 -0.46875q1.140625 0 1.6875 0.65625l0 -0.71875q0 -0.40625 -0.328125 -0.640625q-0.3125 -0.25 -0.84375 -0.25q-0.875 0 -1.546875 0.625l-0.53125 -0.9375q0.96875 -0.828125 2.3125 -0.828125q1.125 0 1.71875 0.515625q0.609375 0.515625 0.609375 1.484375l0 3.4375l-1.390625 0zm-1.125 -0.8125q0.765625 0 1.125 -0.46875l0 -0.65625q-0.359375 -0.453125 -1.125 -0.453125q-0.421875 0 -0.71875 0.203125q-0.28125 0.203125 -0.28125 0.59375q0 0.375 0.28125 0.578125q0.296875 0.203125 0.71875 0.203125z" fill-rule="nonzero"></path><path fill="#ffffff" d="m612.5113 250.09827l0 -3.359375l-4.296875 0l0 3.359375l-0.90625 0l0 -7.34375l0.90625 0l0 3.15625l4.296875 0l0 -3.15625l0.90625 0l0 7.34375l-0.90625 0zm4.7435913 0.125q-1.1875 0 -1.953125 -0.78125q-0.75 -0.78125 -0.75 -2.0q0 -1.1875 0.75 -1.984375q0.75 -0.796875 1.875 -0.796875q1.140625 0 1.84375 0.796875q0.703125 0.78125 0.703125 2.046875l0 0.203125l-4.296875 0q0.046875 0.8125 0.578125 1.328125q0.546875 0.515625 1.328125 0.515625q0.96875 0 1.640625 -0.671875l0.390625 0.53125q-0.8125 0.8125 -2.109375 0.8125zm1.65625 -3.109375q0 -0.75 -0.484375 -1.265625q-0.484375 -0.515625 -1.265625 -0.515625q-0.734375 0 -1.234375 0.515625q-0.484375 0.515625 -0.5 1.265625l3.484375 0zm4.3432617 3.109375q-1.1875 0 -1.953125 -0.78125q-0.75 -0.78125 -0.75 -2.0q0 -1.1875 0.75 -1.984375q0.75 -0.796875 1.875 -0.796875q1.140625 0 1.84375 0.796875q0.703125 0.78125 0.703125 2.046875l0 0.203125l-4.296875 0q0.046875 0.8125 0.578125 1.328125q0.546875 0.515625 1.328125 0.515625q0.96875 0 1.640625 -0.671875l0.390625 0.53125q-0.8125 0.8125 -2.109375 0.8125zm1.65625 -3.109375q0 -0.75 -0.484375 -1.265625q-0.484375 -0.515625 -1.265625 -0.515625q-0.734375 0 -1.234375 0.515625q-0.484375 0.515625 -0.5 1.265625l3.484375 0zm1.9526978 2.984375l0 -5.3125l0.828125 0l0 0.859375q0.734375 -0.96875 1.765625 -0.96875l0 0.84375l-0.328125 -0.03125q-0.375 0 -0.828125 0.28125q-0.453125 0.265625 -0.609375 0.5625l0 3.765625l-0.828125 0zm3.5166016 0l0 -7.34375l0.828125 0l0 7.34375l-0.828125 0zm4.788269 0.125q-1.1875 0 -1.953125 -0.78125q-0.75 -0.78125 -0.75 -2.0q0 -1.1875 0.75 -1.984375q0.75 -0.796875 1.875 -0.796875q1.140625 0 1.84375 0.796875q0.703125 0.78125 0.703125 2.046875l0 0.203125l-4.296875 0q0.046875 0.8125 0.578125 1.328125q0.546875 0.515625 1.328125 0.515625q0.96875 0 1.640625 -0.671875l0.390625 0.53125q-0.8125 0.8125 -2.109375 0.8125zm1.65625 -3.109375q0 -0.75 -0.484375 -1.265625q-0.484375 -0.515625 -1.265625 -0.515625q-0.734375 0 -1.234375 0.515625q-0.484375 0.515625 -0.5 1.265625l3.484375 0zm5.5307617 2.984375l0 -3.46875q0 -0.71875 -0.328125 -0.96875q-0.3125 -0.265625 -0.859375 -0.265625q-0.453125 0 -0.90625 0.25q-0.4375 0.234375 -0.65625 0.5625l0 3.890625l-0.828125 0l0 -5.3125l0.828125 0l0 0.765625q0.328125 -0.390625 0.828125 -0.640625q0.5 -0.25 1.0625 -0.25q1.6875 0 1.6875 1.703125l0 3.734375l-0.828125 0z" fill-rule="nonzero"></path><path fill="#3c78d8" d="m675.74805 203.38583l78.299194 0l0 72.91339l-78.299194 0z" fill-rule="evenodd"></path><path stroke="#00ff00" stroke-width="8.0" stroke-linejoin="round" stroke-linecap="butt" d="m675.74805 203.38583l78.299194 0l0 72.91339l-78.299194 0z" fill-rule="evenodd"></path><path fill="#ffffff" d="m689.0293 237.20752q-1.703125 0 -2.8125 -1.078125q-1.09375 -1.078125 -1.09375 -2.703125q0 -1.078125 0.5 -1.953125q0.515625 -0.890625 1.421875 -1.359375q0.90625 -0.484375 1.984375 -0.484375q2.015625 0 3.0625 1.78125l-1.34375 0.671875q-0.21875 -0.453125 -0.6875 -0.765625q-0.46875 -0.3125 -1.03125 -0.3125q-1.0 0 -1.65625 0.6875q-0.640625 0.6875 -0.640625 1.734375q0 1.0625 0.65625 1.734375q0.65625 0.671875 1.640625 0.671875q0.5625 0 1.03125 -0.296875q0.46875 -0.3125 0.6875 -0.78125l1.34375 0.65625q-1.046875 1.796875 -3.0625 1.796875zm3.7271729 -0.125l0 -5.3125l1.40625 0l0 0.71875q0.28125 -0.34375 0.734375 -0.59375q0.453125 -0.25 0.953125 -0.25l0 1.359375l-0.375 -0.03125q-0.375 0 -0.765625 0.171875q-0.375 0.171875 -0.546875 0.421875l0 3.515625l-1.40625 0zm7.0393677 0l0 -0.546875q-0.59375 0.671875 -1.6875 0.671875q-0.765625 0 -1.3125 -0.484375q-0.53125 -0.484375 -0.53125 -1.265625q0 -0.78125 0.5 -1.25q0.515625 -0.46875 1.34375 -0.46875q1.140625 0 1.6875 0.65625l0 -0.71875q0 -0.40625 -0.328125 -0.640625q-0.3125 -0.25 -0.84375 -0.25q-0.875 0 -1.546875 0.625l-0.53125 -0.9375q0.96875 -0.828125 2.3125 -0.828125q1.125 0 1.71875 0.515625q0.609375 0.515625 0.609375 1.484375l0 3.4375l-1.390625 0zm-1.125 -0.8125q0.765625 0 1.125 -0.46875l0 -0.65625q-0.359375 -0.453125 -1.125 -0.453125q-0.421875 0 -0.71875 0.203125q-0.28125 0.203125 -0.28125 0.59375q0 0.375 0.28125 0.578125q0.296875 0.203125 0.71875 0.203125zm3.489563 0.8125l0 -1.046875l2.390625 -3.046875l-2.390625 0l0 -1.21875l4.28125 0l0 1.015625l-2.421875 3.078125l2.46875 0l0 1.21875l-4.328125 0zm5.35437 0.828125q0.171875 0.078125 0.4375 0.078125q0.5625 0 0.734375 -0.375l0.203125 -0.453125l-2.15625 -5.390625l1.5 0l1.375 3.703125l1.390625 -3.703125l1.5 0l-2.484375 6.1875q-0.296875 0.734375 -0.828125 1.0q-0.515625 0.265625 -1.1875 0.28125q-0.390625 0 -0.703125 -0.078125l0.21875 -1.25zm13.257263 -0.828125l-0.453125 -1.25l-3.140625 0l-0.453125 1.25l-1.796875 0l2.84375 -7.34375l1.953125 0l2.828125 7.34375l-1.78125 0zm-2.015625 -5.78125l-1.140625 3.15625l2.28125 0l-1.140625 -3.15625zm7.8045654 5.78125l0 -0.671875q-0.71875 0.796875 -1.875 0.796875q-0.875 0 -1.296875 -0.4375q-0.421875 -0.453125 -0.421875 -1.234375l0 -3.765625l1.40625 0l0 3.21875q0 0.984375 0.96875 0.984375q0.71875 0 1.21875 -0.609375l0 -3.59375l1.390625 0l0 5.3125l-1.390625 0zm6.170044 0l0 -3.21875q0 -0.984375 -0.984375 -0.984375q-0.75 0 -1.203125 0.625l0 3.578125l-1.40625 0l0 -5.3125l1.40625 0l0 0.6875q0.25 -0.296875 0.71875 -0.546875q0.46875 -0.265625 1.140625 -0.265625q0.875 0 1.296875 0.453125q0.421875 0.453125 0.421875 1.234375l0 3.75l-1.390625 0zm4.357544 0.125q-1.5 0 -1.5 -1.4375l0 -2.78125l-0.875 0l0 -1.21875l0.875 0l0 -1.453125l1.40625 0l0 1.453125l1.078125 0l0 1.21875l-1.078125 0l0 2.40625q0 0.25 0.125 0.421875q0.125 0.15625 0.359375 0.15625q0.328125 0 0.484375 -0.15625l0.296875 1.0625q-0.359375 0.328125 -1.171875 0.328125z" fill-rule="nonzero"></path><path fill="#ffffff" d="m685.6074 250.08252l0 -7.34375l2.5 0q1.671875 0 2.71875 1.046875q1.046875 1.03125 1.046875 2.640625q0 1.59375 -1.046875 2.625q-1.046875 1.03125 -2.71875 1.03125l-2.5 0zm2.5 -0.8125q1.265625 0 2.046875 -0.78125q0.78125 -0.796875 0.78125 -2.0625q0 -1.28125 -0.78125 -2.0625q-0.765625 -0.796875 -2.046875 -0.796875l-1.59375 0l0 5.703125l1.59375 0zm7.3187866 0.9375q-1.1875 0 -1.953125 -0.78125q-0.75 -0.78125 -0.75 -2.0q0 -1.1875 0.75 -1.984375q0.75 -0.796875 1.875 -0.796875q1.140625 0 1.84375 0.796875q0.703125 0.78125 0.703125 2.046875l0 0.203125l-4.296875 0q0.046875 0.8125 0.578125 1.328125q0.546875 0.515625 1.328125 0.515625q0.96875 0 1.640625 -0.671875l0.390625 0.53125q-0.8125 0.8125 -2.109375 0.8125zm1.65625 -3.109375q0 -0.75 -0.484375 -1.265625q-0.484375 -0.515625 -1.265625 -0.515625q-0.734375 0 -1.234375 0.515625q-0.484375 0.515625 -0.5 1.265625l3.484375 0zm1.9526978 2.984375l0 -7.34375l0.828125 0l0 7.34375l-0.828125 0zm2.632019 0l0 -4.59375l-0.890625 0l0 -0.71875l0.890625 0l0 -0.40625q0 -0.828125 0.40625 -1.28125q0.40625 -0.453125 1.125 -0.453125q0.671875 0 1.125 0.40625l-0.34375 0.546875q-0.28125 -0.265625 -0.65625 -0.265625q-0.84375 0 -0.84375 1.046875l0 0.40625l1.078125 0l0 0.71875l-1.078125 0l0 4.59375l-0.8125 0zm4.125122 0.125q-1.1875 0 -1.1875 -1.234375l0 -3.484375l-0.875 0l0 -0.71875l0.875 0l0 -1.453125l0.828125 0l0 1.453125l1.078125 0l0 0.71875l-1.078125 0l0 3.3125q0 0.296875 0.125 0.484375q0.140625 0.1875 0.421875 0.1875q0.328125 0 0.5625 -0.21875l0.234375 0.625q-0.34375 0.328125 -0.984375 0.328125zm1.5392456 -0.125l0 -0.640625l2.921875 -3.953125l-2.921875 0l0 -0.71875l4.0 0l0 0.625l-2.953125 3.96875l3.0 0l0 0.71875l-4.046875 0zm5.686035 -6.078125q-0.21875 0 -0.390625 -0.15625q-0.15625 -0.15625 -0.15625 -0.390625q0 -0.234375 0.15625 -0.390625q0.171875 -0.171875 0.390625 -0.171875q0.234375 0 0.390625 0.171875q0.171875 0.15625 0.171875 0.390625q0 0.234375 -0.171875 0.390625q-0.15625 0.15625 -0.390625 0.15625zm-0.40625 6.078125l0 -5.3125l0.828125 0l0 5.3125l-0.828125 0zm2.803894 -6.078125q-0.21875 0 -0.390625 -0.15625q-0.15625 -0.15625 -0.15625 -0.390625q0 -0.234375 0.15625 -0.390625q0.171875 -0.171875 0.390625 -0.171875q0.234375 0 0.390625 0.171875q0.171875 0.15625 0.171875 0.390625q0 0.234375 -0.171875 0.390625q-0.15625 0.15625 -0.390625 0.15625zm-1.15625 8.234375q-0.40625 0 -0.65625 -0.109375q-0.265625 -0.09375 -0.515625 -0.28125l0.296875 -0.625q0.34375 0.328125 0.765625 0.328125q0.859375 0 0.859375 -0.953125l0 -5.828125l0.828125 0l0 5.828125q0 0.796875 -0.40625 1.21875q-0.40625 0.421875 -1.171875 0.421875zm3.147705 -2.15625l0 -7.34375l0.828125 0l0 7.34375l-0.828125 0z" fill-rule="nonzero"></path><path fill="#3c78d8" d="m832.34644 203.38583l78.299255 0l0 72.91339l-78.299255 0z" fill-rule="evenodd"></path><path stroke="#434343" stroke-width="2.0" stroke-linejoin="round" stroke-linecap="butt" d="m832.34644 203.38583l78.299255 0l0 72.91339l-78.299255 0z" fill-rule="evenodd"></path><path fill="#ffffff" d="m866.6343 243.6919q-0.25 0 -0.4375 -0.171875q-0.171875 -0.171875 -0.171875 -0.4375q0 -0.25 0.171875 -0.421875q0.1875 -0.171875 0.4375 -0.171875q0.25 0 0.421875 0.171875q0.1875 0.171875 0.1875 0.421875q0 0.265625 -0.1875 0.4375q-0.171875 0.171875 -0.421875 0.171875zm2.4509888 0q-0.25 0 -0.4375 -0.171875q-0.171875 -0.171875 -0.171875 -0.4375q0 -0.25 0.171875 -0.421875q0.1875 -0.171875 0.4375 -0.171875q0.25 0 0.421875 0.171875q0.1875 0.171875 0.1875 0.421875q0 0.265625 -0.1875 0.4375q-0.171875 0.171875 -0.421875 0.171875zm2.4509277 0q-0.25 0 -0.4375 -0.171875q-0.171875 -0.171875 -0.171875 -0.4375q0 -0.25 0.171875 -0.421875q0.1875 -0.171875 0.4375 -0.171875q0.25 0 0.421875 0.171875q0.1875 0.171875 0.1875 0.421875q0 0.265625 -0.1875 0.4375q-0.171875 0.171875 -0.421875 0.171875zm2.4509888 0q-0.25 0 -0.4375 -0.171875q-0.171875 -0.171875 -0.171875 -0.4375q0 -0.25 0.171875 -0.421875q0.1875 -0.171875 0.4375 -0.171875q0.25 0 0.421875 0.171875q0.1875 0.171875 0.1875 0.421875q0 0.265625 -0.1875 0.4375q-0.171875 0.171875 -0.421875 0.171875zm2.4509277 0q-0.25 0 -0.4375 -0.171875q-0.171875 -0.171875 -0.171875 -0.4375q0 -0.25 0.171875 -0.421875q0.1875 -0.171875 0.4375 -0.171875q0.25 0 0.421875 0.171875q0.1875 0.171875 0.1875 0.421875q0 0.265625 -0.1875 0.4375q-0.171875 0.171875 -0.421875 0.171875z" fill-rule="nonzero"></path><path fill="#000000" fill-opacity="0.0" d="m895.81104 293.1181l0 0c0 11.2560425 -16.574219 22.051056 -46.076538 30.010284c-29.502258 7.9592285 -69.51593 12.430664 -111.238464 12.430664l-100.24127 0c-41.722534 0 -81.73627 4.4714355 -111.238525 12.430664c-29.502289 7.9592285 -46.076508 18.754242 -46.076508 30.010284l0 0c0 -23.439484 -70.43231 -42.44095 -157.315 -42.44095l-102.12074 0c-86.882675 0 -157.315 -19.001465 -157.315 -42.44095z" fill-rule="evenodd"></path><path fill="#000000" fill-opacity="0.0" d="m895.81104 293.1181l0 0c0 11.2560425 -16.574219 22.051056 -46.076538 30.010284c-29.502258 7.9592285 -69.51593 12.430664 -111.238464 12.430664l-100.24127 0c-41.722534 0 -81.73627 4.4714355 -111.238525 12.430664c-29.502289 7.9592285 -46.076508 18.754242 -46.076508 30.010284l0 0c0 -23.439484 -70.43231 -42.44095 -157.315 -42.44095l-102.12074 0c-86.882675 0 -157.315 -19.001465 -157.315 -42.44095" fill-rule="evenodd"></path><path stroke="#595959" stroke-width="1.0" stroke-linejoin="round" stroke-linecap="butt" d="m895.81104 293.1181l0 0c0 11.2560425 -16.574219 22.051056 -46.076538 30.010284c-29.502258 7.9592285 -69.51593 12.430664 -111.238464 12.430664l-100.24127 0c-41.722534 0 -81.73627 4.4714355 -111.238525 12.430664c-29.502289 7.9592285 -46.076508 18.754242 -46.076508 30.010284l0 0c0 -23.439484 -70.43231 -42.44095 -157.315 -42.44095l-102.12074 0c-86.882675 0 -157.315 -19.001465 -157.315 -42.44095" fill-rule="evenodd"></path><path fill="#000000" fill-opacity="0.0" d="m373.7953 371.23883l212.40942 0l0 80.566956l-212.40942 0z" fill-rule="evenodd"></path><path fill="#000000" d="m464.25 403.27884l-2.015625 0l2.296875 -10.703125q0.6875 -3.0625 1.03125 -4.203125q-0.578125 0.625 -1.625 1.296875l-2.09375 1.296875l-0.9375 -1.5l5.265625 -3.328125l1.75 0l-3.671875 17.140625zm6.828125 -0.875q0 -0.890625 0.46875 -1.421875q0.484375 -0.546875 1.3125 -0.546875q0.515625 0 0.8125 0.3125q0.3125 0.296875 0.3125 0.921875q0 0.828125 -0.46875 1.390625q-0.46875 0.5625 -1.265625 0.5625q-0.53125 0 -0.859375 -0.3125q-0.3125 -0.296875 -0.3125 -0.90625zm6.0703125 0q0 -0.890625 0.46875 -1.421875q0.484375 -0.546875 1.3125 -0.546875q0.515625 0 0.8125 0.3125q0.3125 0.296875 0.3125 0.921875q0 0.828125 -0.46875 1.390625q-0.46875 0.5625 -1.265625 0.5625q-0.53125 0 -0.859375 -0.3125q-0.3125 -0.296875 -0.3125 -0.90625zm6.0703125 0q0 -0.890625 0.46875 -1.421875q0.484375 -0.546875 1.3125 -0.546875q0.515625 0 0.8125 0.3125q0.3125 0.296875 0.3125 0.921875q0 0.828125 -0.46875 1.390625q-0.46875 0.5625 -1.265625 0.5625q-0.53125 0 -0.859375 -0.3125q-0.3125 -0.296875 -0.3125 -0.90625zm14.1171875 0.875l1.734375 -8.109375q0.234375 -1.21875 0.234375 -1.6875q0 -0.734375 -0.421875 -1.171875q-0.40625 -0.453125 -1.328125 -0.453125q-1.046875 0 -2.03125 0.703125q-0.984375 0.703125 -1.75 2.0q-0.75 1.296875 -1.140625 3.15625l-1.1875 5.5625l-1.96875 0l2.75 -12.84375l1.625 0l-0.25 2.375l0.109375 0q1.125 -1.421875 2.171875 -2.015625q1.046875 -0.59375 2.171875 -0.59375q1.5 0 2.359375 0.8125q0.859375 0.8125 0.859375 2.28125q0 0.921875 -0.265625 2.109375l-1.6875 7.875l-1.984375 0z" fill-rule="nonzero"></path><path fill="#000000" fill-opacity="0.0" d="m88.50394 203.39896c0 -12.5 19.574806 -25.007874 39.149605 -25.0c19.574806 0.007873535 39.149605 12.531494 39.149605 25.062988" fill-rule="evenodd"></path><path stroke="#595959" stroke-width="2.0" stroke-linejoin="round" stroke-linecap="butt" stroke-dasharray="8.0,6.0" d="m88.50394 203.39896c0 -12.5 19.574806 -25.007874 39.149605 -25.0c9.787407 0.0039367676 19.574806 3.1368103 26.915352 7.835129c1.835144 1.1745911 3.5173492 2.4470215 5.0084076 3.7928314c0.7455139 0.67292786 1.4432526 1.3641968 2.0884247 2.0707703c0.08062744 0.08831787 0.16046143 0.17687988 0.23945618 0.26567078l0.09086609 0.103500366" fill-rule="evenodd"></path><path fill="#595959" stroke="#595959" stroke-width="2.0" stroke-linecap="butt" d="m158.96924 193.79019l6.6626587 6.992798l-0.60902405 -9.639465z" fill-rule="evenodd"></path><path fill="#000000" fill-opacity="0.0" d="m166.80315 203.41208c0 -12.5 19.574814 -25.007874 39.149612 -25.0c19.574799 0.007873535 39.149597 12.531494 39.149597 25.062988" fill-rule="evenodd"></path><path stroke="#595959" stroke-width="2.0" stroke-linejoin="round" stroke-linecap="butt" stroke-dasharray="8.0,6.0" d="m166.80315 203.41208c0 -12.5 19.574814 -25.007874 39.149612 -25.0c9.787399 0.0039367676 19.574799 3.1368103 26.915344 7.835129c1.835144 1.1745911 3.5173492 2.4470215 5.0084076 3.7928467c0.7455139 0.6729126 1.4432526 1.3641815 2.0884247 2.070755c0.0806427 0.08831787 0.16047668 0.17687988 0.23945618 0.26567078l0.09088135 0.103500366" fill-rule="evenodd"></path><path fill="#595959" stroke="#595959" stroke-width="2.0" stroke-linecap="butt" d="m237.26845 193.80333l6.6626587 6.9927826l-0.6090088 -9.639465z" fill-rule="evenodd"></path><path fill="#000000" fill-opacity="0.0" d="m245.10236 203.41733c0 -12.5 19.574799 -25.007874 39.149628 -25.0c19.574799 0.007873535 39.149597 12.531494 39.149597 25.062988" fill-rule="evenodd"></path><path stroke="#595959" stroke-width="2.0" stroke-linejoin="round" stroke-linecap="butt" stroke-dasharray="8.0,6.0" d="m245.10236 203.41733c0 -12.5 19.574799 -25.007874 39.149628 -25.0c9.787384 0.0039367676 19.574799 3.1368103 26.915344 7.835129c1.835144 1.1745911 3.517334 2.4470215 5.0083923 3.7928467c0.7455139 0.6729126 1.4432373 1.3641815 2.08844 2.070755c0.08062744 0.08831787 0.16046143 0.17687988 0.23944092 0.26567078l0.09088135 0.103500366" fill-rule="evenodd"></path><path fill="#595959" stroke="#595959" stroke-width="2.0" stroke-linecap="butt" d="m315.56766 193.80858l6.6626587 6.9927826l-0.6090088 -9.639465z" fill-rule="evenodd"></path><path fill="#000000" fill-opacity="0.0" d="m323.40158 203.41733c0 -12.5 19.574799 -25.007874 39.149597 -25.0c19.574799 0.007873535 39.149597 12.531494 39.149597 25.062988" fill-rule="evenodd"></path><path stroke="#595959" stroke-width="2.0" stroke-linejoin="round" stroke-linecap="butt" stroke-dasharray="8.0,6.0" d="m323.40158 203.41733c0 -12.5 19.574799 -25.007874 39.149597 -25.0c9.787415 0.0039367676 19.574799 3.1368103 26.915344 7.835129c1.835144 1.1745911 3.5173645 2.4470215 5.008423 3.7928467c0.7455139 0.6729126 1.4432373 1.3641815 2.0884094 2.070755c0.08062744 0.08831787 0.16049194 0.17687988 0.23947144 0.26567078l0.09088135 0.103500366" fill-rule="evenodd"></path><path fill="#595959" stroke="#595959" stroke-width="2.0" stroke-linecap="butt" d="m393.86688 193.80858l6.6626587 6.9927826l-0.6090393 -9.639465z" fill-rule="evenodd"></path><path fill="#000000" fill-opacity="0.0" d="m401.70078 203.41733c0 -12.509186 19.57483 -25.026245 39.149628 -25.018372c19.574799 0.007873535 39.149597 12.54068 39.149597 25.08136" fill-rule="evenodd"></path><path stroke="#595959" stroke-width="2.0" stroke-linejoin="round" stroke-linecap="butt" stroke-dasharray="8.0,6.0" d="m401.70078 203.41733c0 -12.509186 19.57483 -25.026245 39.149628 -25.018372c9.787384 0.0039367676 19.574799 3.1390991 26.915344 7.840866c1.835144 1.1754456 3.517334 2.4488068 5.008423 3.7956238c0.7455139 0.67341614 1.4432373 1.3651886 2.0884094 2.0722656c0.08062744 0.088394165 0.16046143 0.17701721 0.23944092 0.26586914l0.09597778 0.10942078" fill-rule="evenodd"></path><path fill="#595959" stroke="#595959" stroke-width="2.0" stroke-linecap="butt" d="m472.1706 193.80493l6.6593933 6.99588l-0.6045227 -9.63974z" fill-rule="evenodd"></path><path fill="#000000" fill-opacity="0.0" d="m480.0 203.39896c0 -12.5 19.574799 -25.007874 39.149597 -25.0c19.57483 0.007873535 39.149597 12.531494 39.149597 25.062988" fill-rule="evenodd"></path><path stroke="#595959" stroke-width="2.0" stroke-linejoin="round" stroke-linecap="butt" stroke-dasharray="8.0,6.0" d="m480.0 203.39896c0 -12.5 19.574799 -25.007874 39.149597 -25.0c9.787415 0.0039367676 19.57483 3.1368103 26.915344 7.835129c1.835144 1.1745911 3.517395 2.4470215 5.008423 3.7928314c0.74554443 0.67292786 1.4432373 1.3641968 2.08844 2.0707703c0.08062744 0.08831787 0.16046143 0.17687988 0.23944092 0.26567078l0.09088135 0.103500366" fill-rule="evenodd"></path><path fill="#595959" stroke="#595959" stroke-width="2.0" stroke-linecap="butt" d="m550.4653 193.79019l6.6627197 6.992798l-0.6090698 -9.639465z" fill-rule="evenodd"></path><path fill="#000000" fill-opacity="0.0" d="m558.2992 203.41733c0 -12.5 19.57483 -25.007874 39.149597 -25.0c19.57483 0.007873535 39.14966 12.531494 39.14966 25.062988" fill-rule="evenodd"></path><path stroke="#595959" stroke-width="2.0" stroke-linejoin="round" stroke-linecap="butt" stroke-dasharray="8.0,6.0" d="m558.2992 203.41733c0 -12.5 19.57483 -25.007874 39.149597 -25.0c9.787415 0.0039367676 19.57483 3.1368103 26.915405 7.835129c1.835144 1.1745911 3.517334 2.4470215 5.008362 3.7928467c0.74554443 0.6729126 1.4432373 1.3641815 2.08844 2.070755c0.08062744 0.08831787 0.16046143 0.17687988 0.23944092 0.26567078l0.09088135 0.103500366" fill-rule="evenodd"></path><path fill="#595959" stroke="#595959" stroke-width="2.0" stroke-linecap="butt" d="m628.7645 193.80858l6.6626587 6.9927826l-0.6090088 -9.639465z" fill-rule="evenodd"></path><path fill="#000000" fill-opacity="0.0" d="m636.59845 203.41733c0 -12.515747 19.574768 -25.039368 39.149597 -25.031494c19.574768 0.007873535 39.149597 12.547241 39.149597 25.094482" fill-rule="evenodd"></path><path stroke="#595959" stroke-width="2.0" stroke-linejoin="round" stroke-linecap="butt" stroke-dasharray="8.0,6.0" d="m636.59845 203.41733c0 -12.515747 19.574768 -25.039368 39.149597 -25.031494c9.787415 0.0039367676 19.574768 3.140747 26.915344 7.8449707c1.835144 1.1760559 3.517395 2.4500885 5.008362 3.7976227c0.74554443 0.67375183 1.4432983 1.3658905 2.08844 2.0733337c0.08068848 0.08843994 0.16052246 0.17710876 0.23950195 0.26602173l0.099609375 0.11361694" fill-rule="evenodd"></path><path fill="#595959" stroke="#595959" stroke-width="2.0" stroke-linecap="butt" d="m707.0714 193.80234l6.6571045 6.9980927l-0.60131836 -9.639954z" fill-rule="evenodd"></path><path fill="#000000" fill-opacity="0.0" d="m55.800526 154.39633l698.2362 0l0 60.472427l-698.2362 0z" fill-rule="evenodd"></path><path fill="#000000" d="m71.95677 176.19632l-5.0625 -6.921875l0 6.921875l-1.078125 0l0 -8.671875l1.109375 0l4.984375 6.78125l0 -6.78125l1.078125 0l0 8.671875l-1.03125 0zm5.9987793 0.15625q-1.359375 0 -2.234375 -0.921875q-0.875 -0.9375 -0.875 -2.375q0 -1.46875 0.875 -2.375q0.875 -0.921875 2.234375 -0.921875q1.359375 0 2.234375 0.921875q0.875 0.90625 0.875 2.375q0 1.4375 -0.875 2.375q-0.875 0.921875 -2.234375 0.921875zm0 -0.875q0.90625 0 1.484375 -0.671875q0.59375 -0.6875 0.59375 -1.75q0 -1.0625 -0.59375 -1.734375q-0.578125 -0.6875 -1.484375 -0.6875q-0.90625 0 -1.5 0.671875q-0.59375 0.671875 -0.59375 1.75q0 1.078125 0.578125 1.75q0.59375 0.671875 1.515625 0.671875zm4.998657 -1.71875l-0.203125 -6.234375l1.21875 0l-0.21875 6.234375l-0.796875 0zm0.40625 2.5625q-0.296875 0 -0.515625 -0.203125q-0.203125 -0.21875 -0.203125 -0.5q0 -0.3125 0.203125 -0.515625q0.21875 -0.203125 0.515625 -0.203125q0.296875 0 0.5 0.203125q0.203125 0.203125 0.203125 0.515625q0 0.28125 -0.203125 0.5q-0.203125 0.203125 -0.5 0.203125z" fill-rule="nonzero"></path><path fill="#000000" d="m161.2205 176.19632l-5.0625 -6.921875l0 6.921875l-1.078125 0l0 -8.671875l1.109375 0l4.984375 6.78125l0 -6.78125l1.078125 0l0 8.671875l-1.03125 0zm5.9987793 0.15625q-1.359375 0 -2.234375 -0.921875q-0.875 -0.9375 -0.875 -2.375q0 -1.46875 0.875 -2.375q0.875 -0.921875 2.234375 -0.921875q1.359375 0 2.234375 0.921875q0.875 0.90625 0.875 2.375q0 1.4375 -0.875 2.375q-0.875 0.921875 -2.234375 0.921875zm0 -0.875q0.90625 0 1.484375 -0.671875q0.59375 -0.6875 0.59375 -1.75q0 -1.0625 -0.59375 -1.734375q-0.578125 -0.6875 -1.484375 -0.6875q-0.90625 0 -1.5 0.671875q-0.59375 0.671875 -0.59375 1.75q0 1.078125 0.578125 1.75q0.59375 0.671875 1.515625 0.671875zm4.998657 -1.71875l-0.203125 -6.234375l1.21875 0l-0.21875 6.234375l-0.796875 0zm0.40625 2.5625q-0.296875 0 -0.515625 -0.203125q-0.203125 -0.21875 -0.203125 -0.5q0 -0.3125 0.203125 -0.515625q0.21875 -0.203125 0.515625 -0.203125q0.296875 0 0.5 0.203125q0.203125 0.203125 0.203125 0.515625q0 0.28125 -0.203125 0.5q-0.203125 0.203125 -0.5 0.203125z" fill-rule="nonzero"></path><path fill="#000000" d="m240.02728 176.19632l-5.0625 -6.921875l0 6.921875l-1.078125 0l0 -8.671875l1.109375 0l4.984375 6.78125l0 -6.78125l1.078125 0l0 8.671875l-1.03125 0zm5.9987793 0.15625q-1.359375 0 -2.234375 -0.921875q-0.875 -0.9375 -0.875 -2.375q0 -1.46875 0.875 -2.375q0.875 -0.921875 2.234375 -0.921875q1.359375 0 2.234375 0.921875q0.875 0.90625 0.875 2.375q0 1.4375 -0.875 2.375q-0.875 0.921875 -2.234375 0.921875zm0 -0.875q0.90625 0 1.484375 -0.671875q0.59375 -0.6875 0.59375 -1.75q0 -1.0625 -0.59375 -1.734375q-0.578125 -0.6875 -1.484375 -0.6875q-0.90625 0 -1.5 0.671875q-0.59375 0.671875 -0.59375 1.75q0 1.078125 0.578125 1.75q0.59375 0.671875 1.515625 0.671875zm4.998657 -1.71875l-0.203125 -6.234375l1.21875 0l-0.21875 6.234375l-0.796875 0zm0.40625 2.5625q-0.296875 0 -0.515625 -0.203125q-0.203125 -0.21875 -0.203125 -0.5q0 -0.3125 0.203125 -0.515625q0.21875 -0.203125 0.515625 -0.203125q0.296875 0 0.5 0.203125q0.203125 0.203125 0.203125 0.515625q0 0.28125 -0.203125 0.5q-0.203125 0.203125 -0.5 0.203125zm67.17868 -0.125l-5.0625 -6.921875l0 6.921875l-1.078125 0l0 -8.671875l1.109375 0l4.984375 6.78125l0 -6.78125l1.078125 0l0 8.671875l-1.03125 0zm5.9987793 0.15625q-1.359375 0 -2.234375 -0.921875q-0.875 -0.9375 -0.875 -2.375q0 -1.46875 0.875 -2.375q0.875 -0.921875 2.234375 -0.921875q1.359375 0 2.234375 0.921875q0.875 0.90625 0.875 2.375q0 1.4375 -0.875 2.375q-0.875 0.921875 -2.234375 0.921875zm0 -0.875q0.90625 0 1.484375 -0.671875q0.59375 -0.6875 0.59375 -1.75q0 -1.0625 -0.59375 -1.734375q-0.578125 -0.6875 -1.484375 -0.6875q-0.90625 0 -1.5 0.671875q-0.59375 0.671875 -0.59375 1.75q0 1.078125 0.578125 1.75q0.59375 0.671875 1.515625 0.671875zm4.998657 -1.71875l-0.203125 -6.234375l1.21875 0l-0.21875 6.234375l-0.796875 0zm0.40625 2.5625q-0.296875 0 -0.515625 -0.203125q-0.203125 -0.21875 -0.203125 -0.5q0 -0.3125 0.203125 -0.515625q0.21875 -0.203125 0.515625 -0.203125q0.296875 0 0.5 0.203125q0.203125 0.203125 0.203125 0.515625q0 0.28125 -0.203125 0.5q-0.203125 0.203125 -0.5 0.203125zm67.17868 -0.125l-5.0625 -6.921875l0 6.921875l-1.078125 0l0 -8.671875l1.109375 0l4.984375 6.78125l0 -6.78125l1.078125 0l0 8.671875l-1.03125 0zm5.9987793 0.15625q-1.359375 0 -2.234375 -0.921875q-0.875 -0.9375 -0.875 -2.375q0 -1.46875 0.875 -2.375q0.875 -0.921875 2.234375 -0.921875q1.359375 0 2.234375 0.921875q0.875 0.90625 0.875 2.375q0 1.4375 -0.875 2.375q-0.875 0.921875 -2.234375 0.921875zm0 -0.875q0.90625 0 1.484375 -0.671875q0.59375 -0.6875 0.59375 -1.75q0 -1.0625 -0.59375 -1.734375q-0.578125 -0.6875 -1.484375 -0.6875q-0.90625 0 -1.5 0.671875q-0.59375 0.671875 -0.59375 1.75q0 1.078125 0.578125 1.75q0.59375 0.671875 1.515625 0.671875zm4.998657 -1.71875l-0.203125 -6.234375l1.21875 0l-0.21875 6.234375l-0.796875 0zm0.40625 2.5625q-0.296875 0 -0.515625 -0.203125q-0.203125 -0.21875 -0.203125 -0.5q0 -0.3125 0.203125 -0.515625q0.21875 -0.203125 0.515625 -0.203125q0.296875 0 0.5 0.203125q0.203125 0.203125 0.203125 0.515625q0 0.28125 -0.203125 0.5q-0.203125 0.203125 -0.5 0.203125zm67.17865 -0.125l-5.0625 -6.921875l0 6.921875l-1.078125 0l0 -8.671875l1.109375 0l4.984375 6.78125l0 -6.78125l1.078125 0l0 8.671875l-1.03125 0zm5.9987793 0.15625q-1.359375 0 -2.234375 -0.921875q-0.875 -0.9375 -0.875 -2.375q0 -1.46875 0.875 -2.375q0.875 -0.921875 2.234375 -0.921875q1.359375 0 2.234375 0.921875q0.875 0.90625 0.875 2.375q0 1.4375 -0.875 2.375q-0.875 0.921875 -2.234375 0.921875zm0 -0.875q0.90625 0 1.484375 -0.671875q0.59375 -0.6875 0.59375 -1.75q0 -1.0625 -0.59375 -1.734375q-0.578125 -0.6875 -1.484375 -0.6875q-0.90625 0 -1.5 0.671875q-0.59375 0.671875 -0.59375 1.75q0 1.078125 0.578125 1.75q0.59375 0.671875 1.515625 0.671875zm4.998657 -1.71875l-0.203125 -6.234375l1.21875 0l-0.21875 6.234375l-0.796875 0zm0.40625 2.5625q-0.296875 0 -0.515625 -0.203125q-0.203125 -0.21875 -0.203125 -0.5q0 -0.3125 0.203125 -0.515625q0.21875 -0.203125 0.515625 -0.203125q0.296875 0 0.5 0.203125q0.203125 0.203125 0.203125 0.515625q0 0.28125 -0.203125 0.5q-0.203125 0.203125 -0.5 0.203125zm63.740234 -0.125l-5.0625 -6.921875l0 6.921875l-1.078125 0l0 -8.671875l1.109375 0l4.984375 6.78125l0 -6.78125l1.078125 0l0 8.671875l-1.03125 0zm5.9987793 0.15625q-1.359375 0 -2.234375 -0.921875q-0.875 -0.9375 -0.875 -2.375q0 -1.46875 0.875 -2.375q0.875 -0.921875 2.234375 -0.921875q1.359375 0 2.234375 0.921875q0.875 0.90625 0.875 2.375q0 1.4375 -0.875 2.375q-0.875 0.921875 -2.234375 0.921875zm0 -0.875q0.90625 0 1.484375 -0.671875q0.59375 -0.6875 0.59375 -1.75q0 -1.0625 -0.59375 -1.734375q-0.578125 -0.6875 -1.484375 -0.6875q-0.90625 0 -1.5 0.671875q-0.59375 0.671875 -0.59375 1.75q0 1.078125 0.578125 1.75q0.59375 0.671875 1.515625 0.671875zm4.998657 -1.71875l-0.203125 -6.234375l1.21875 0l-0.21875 6.234375l-0.796875 0zm0.40625 2.5625q-0.296875 0 -0.515625 -0.203125q-0.203125 -0.21875 -0.203125 -0.5q0 -0.3125 0.203125 -0.515625q0.21875 -0.203125 0.515625 -0.203125q0.296875 0 0.5 0.203125q0.203125 0.203125 0.203125 0.515625q0 0.28125 -0.203125 0.5q-0.203125 0.203125 -0.5 0.203125zm70.61755 -0.125l-5.0625 -6.921875l0 6.921875l-1.078125 0l0 -8.671875l1.109375 0l4.984375 6.78125l0 -6.78125l1.078125 0l0 8.671875l-1.03125 0zm5.9987793 0.15625q-1.359375 0 -2.234375 -0.921875q-0.875 -0.9375 -0.875 -2.375q0 -1.46875 0.875 -2.375q0.875 -0.921875 2.234375 -0.921875q1.359375 0 2.234375 0.921875q0.875 0.90625 0.875 2.375q0 1.4375 -0.875 2.375q-0.875 0.921875 -2.234375 0.921875zm0 -0.875q0.90625 0 1.484375 -0.671875q0.59375 -0.6875 0.59375 -1.75q0 -1.0625 -0.59375 -1.734375q-0.578125 -0.6875 -1.484375 -0.6875q-0.90625 0 -1.5 0.671875q-0.59375 0.671875 -0.59375 1.75q0 1.078125 0.578125 1.75q0.59375 0.671875 1.515625 0.671875zm4.998657 -1.71875l-0.203125 -6.234375l1.21875 0l-0.21875 6.234375l-0.796875 0zm0.40625 2.5625q-0.296875 0 -0.515625 -0.203125q-0.203125 -0.21875 -0.203125 -0.5q0 -0.3125 0.203125 -0.515625q0.21875 -0.203125 0.515625 -0.203125q0.296875 0 0.5 0.203125q0.203125 0.203125 0.203125 0.515625q0 0.28125 -0.203125 0.5q-0.203125 0.203125 -0.5 0.203125zm66.99255 -0.125l0 -3.671875l-3.421875 -5.0l1.265625 0l2.6875 4.03125l2.703125 -4.03125l1.25 0l-3.40625 5.0l0 3.671875l-1.078125 0zm8.624634 0.15625q-1.421875 0 -2.3125 -0.921875q-0.890625 -0.921875 -0.890625 -2.375q0 -1.390625 0.875 -2.34375q0.890625 -0.953125 2.21875 -0.953125q1.359375 0 2.1875 0.9375q0.828125 0.9375 0.828125 2.4375l0 0.234375l-5.078125 0q0.046875 0.96875 0.6875 1.578125q0.65625 0.59375 1.578125 0.59375q1.140625 0 1.9375 -0.78125l0.46875 0.625q-0.96875 0.96875 -2.5 0.96875zm1.953125 -3.6875q0 -0.875 -0.578125 -1.484375q-0.578125 -0.609375 -1.5 -0.609375q-0.859375 0 -1.453125 0.609375q-0.578125 0.609375 -0.59375 1.484375l4.125 0zm4.706848 3.6875q-1.609375 0 -2.546875 -0.984375l0.515625 -0.703125q0.3125 0.359375 0.859375 0.625q0.5625 0.265625 1.203125 0.265625q0.734375 0 1.109375 -0.296875q0.375 -0.3125 0.375 -0.78125q0 -0.40625 -0.40625 -0.640625q-0.40625 -0.25 -1.53125 -0.515625q-0.953125 -0.1875 -1.453125 -0.609375q-0.5 -0.421875 -0.5 -1.140625q0 -0.796875 0.640625 -1.296875q0.640625 -0.515625 1.703125 -0.515625q1.421875 0 2.328125 0.90625l-0.453125 0.6875q-0.28125 -0.34375 -0.78125 -0.5625q-0.484375 -0.234375 -1.09375 -0.234375q-0.65625 0 -1.03125 0.296875q-0.359375 0.28125 -0.359375 0.6875q0 0.375 0.40625 0.609375q0.421875 0.21875 1.546875 0.453125q0.953125 0.21875 1.4375 0.671875q0.5 0.4375 0.5 1.1875q0 0.859375 -0.6875 1.375q-0.671875 0.515625 -1.78125 0.515625zm4.322571 -2.59375l-0.203125 -6.234375l1.21875 0l-0.21875 6.234375l-0.796875 0zm0.40625 2.5625q-0.296875 0 -0.515625 -0.203125q-0.203125 -0.21875 -0.203125 -0.5q0 -0.3125 0.203125 -0.515625q0.21875 -0.203125 0.515625 -0.203125q0.296875 0 0.5 0.203125q0.203125 0.203125 0.203125 0.515625q0 0.28125 -0.203125 0.5q-0.203125 0.203125 -0.5 0.203125z" fill-rule="nonzero"></path></g></svg>

