<?xml version="1.0" standalone="yes"?>

<svg version="1.1" viewBox="0.0 0.0 960.0 540.0" fill="none" stroke="none" stroke-linecap="square" stroke-miterlimit="10" xmlns="http://www.w3.org/2000/svg" xmlns:xlink="http://www.w3.org/1999/xlink"><clipPath id="g29be78fc1f_0_175.0"><path d="m0 0l960.0 0l0 540.0l-960.0 0l0 -540.0z" clip-rule="nonzero"></path></clipPath><g clip-path="url(#g29be78fc1f_0_175.0)"><path fill="#ffffff" d="m0 0l960.0 0l0 540.0l-960.0 0z" fill-rule="evenodd"></path><path fill="#000000" fill-opacity="0.0" d="m455.61154 101.784775l-109.79526 61.417328" fill-rule="evenodd"></path><path stroke="#595959" stroke-width="1.0" stroke-linejoin="round" stroke-linecap="butt" d="m455.61154 101.784775l-109.79526 61.417328" fill-rule="evenodd"></path><path fill="#000000" fill-opacity="0.0" d="m455.61154 101.784775l100.409454 61.448822" fill-rule="evenodd"></path><path stroke="#595959" stroke-width="1.0" stroke-linejoin="round" stroke-linecap="butt" d="m455.61154 101.784775l100.409454 61.448822" fill-rule="evenodd"></path><path fill="#000000" fill-opacity="0.0" d="m345.82678 236.08923l-55.748047 101.102356" fill-rule="evenodd"></path><path stroke="#595959" stroke-width="1.0" stroke-linejoin="round" stroke-linecap="butt" d="m345.82678 236.08923l-55.748047 101.102356" fill-rule="evenodd"></path><path fill="#000000" fill-opacity="0.0" d="m345.82678 236.08923l47.748016 101.102356" fill-rule="evenodd"></path><path stroke="#595959" stroke-width="1.0" stroke-linejoin="round" stroke-linecap="butt" d="m345.82678 236.08923l47.748016 101.102356" fill-rule="evenodd"></path><path fill="#000000" fill-opacity="0.0" d="m556.0315 236.11417l-46.897644 101.03937" fill-rule="evenodd"></path><path stroke="#595959" stroke-width="1.0" stroke-linejoin="round" stroke-linecap="butt" d="m556.0315 236.11417l-46.897644 101.03937" fill-rule="evenodd"></path><path fill="#000000" fill-opacity="0.0" d="m556.0315 236.11417l59.653564 101.07086" fill-rule="evenodd"></path><path stroke="#595959" stroke-width="1.0" stroke-linejoin="round" stroke-linecap="butt" d="m556.0315 236.11417l59.653564 101.07086" fill-rule="evenodd"></path><path fill="#3c78d8" d="m416.46194 28.902887l78.299225 0l0 72.88189l-78.299225 0z" fill-rule="evenodd"></path><path stroke="#434343" stroke-width="2.0" stroke-linejoin="round" stroke-linecap="butt" d="m416.46194 28.902887l78.299225 0l0 72.88189l-78.299225 0z" fill-rule="evenodd"></path><path fill="#ffffff" d="m441.8091 54.14383l-2.203125 -3.4375l-1.734375 0l0 3.4375l-1.078125 0l0 -8.671875l3.484375 0q1.21875 0 1.96875 0.734375q0.75 0.71875 0.75 1.875q0 1.09375 -0.640625 1.765625q-0.625 0.671875 -1.609375 0.765625l2.34375 3.53125l-1.28125 0zm-1.65625 -4.390625q0.765625 0 1.234375 -0.453125q0.484375 -0.46875 0.484375 -1.21875q0 -0.734375 -0.484375 -1.1875q-0.46875 -0.453125 -1.234375 -0.453125l-2.28125 0l0 3.3125l2.28125 0zm8.697235 4.546875q-1.90625 0 -3.109375 -1.265625q-1.203125 -1.28125 -1.203125 -3.21875q0 -1.953125 1.203125 -3.21875q1.203125 -1.265625 3.109375 -1.265625q1.90625 0 3.09375 1.28125q1.203125 1.265625 1.203125 3.203125q0 1.953125 -1.203125 3.21875q-1.203125 1.265625 -3.09375 1.265625zm0 -0.96875q1.421875 0 2.296875 -0.984375q0.890625 -1.0 0.890625 -2.53125q0 -1.5625 -0.890625 -2.546875q-0.875 -0.984375 -2.296875 -0.984375q-1.40625 0 -2.296875 0.96875q-0.890625 0.96875 -0.890625 2.5625q0 1.5625 0.875 2.546875q0.875 0.96875 2.3125 0.96875zm10.195984 0.96875q-1.90625 0 -3.109375 -1.265625q-1.203125 -1.28125 -1.203125 -3.21875q0 -1.953125 1.203125 -3.21875q1.203125 -1.265625 3.109375 -1.265625q1.90625 0 3.09375 1.28125q1.203125 1.265625 1.203125 3.203125q0 1.953125 -1.203125 3.21875q-1.203125 1.265625 -3.09375 1.265625zm0 -0.96875q1.421875 0 2.296875 -0.984375q0.890625 -1.0 0.890625 -2.53125q0 -1.5625 -0.890625 -2.546875q-0.875 -0.984375 -2.296875 -0.984375q-1.40625 0 -2.296875 0.96875q-0.890625 0.96875 -0.890625 2.5625q0 1.5625 0.875 2.546875q0.875 0.96875 2.3125 0.96875zm8.383484 0.8125l0 -7.703125l-2.734375 0l0 -0.96875l6.578125 0l0 0.96875l-2.765625 0l0 7.703125l-1.078125 0z" fill-rule="nonzero"></path><path fill="#ffffff" d="m433.35486 86.14383l0 -8.671875l3.484375 0q1.234375 0 1.96875 0.75q0.75 0.734375 0.75 1.859375q0 1.15625 -0.765625 1.890625q-0.75 0.734375 -1.953125 0.734375l-2.40625 0l0 3.4375l-1.078125 0zm3.359375 -4.40625q0.765625 0 1.234375 -0.453125q0.484375 -0.453125 0.484375 -1.203125q0 -0.734375 -0.484375 -1.1875q-0.46875 -0.453125 -1.234375 -0.453125l-2.28125 0l0 3.296875l2.28125 0zm10.651703 4.40625l-0.765625 -1.921875l-4.3125 0l-0.765625 1.921875l-1.25 0l3.484375 -8.671875l1.34375 0l3.5 8.671875l-1.234375 0zm-2.921875 -7.546875l-1.84375 4.65625l3.671875 0l-1.828125 -4.65625zm10.519867 7.546875l-2.203125 -3.4375l-1.734375 0l0 3.4375l-1.078125 0l0 -8.671875l3.484375 0q1.21875 0 1.96875 0.734375q0.75 0.71875 0.75 1.875q0 1.09375 -0.640625 1.765625q-0.625 0.671875 -1.609375 0.765625l2.34375 3.53125l-1.28125 0zm-1.65625 -4.390625q0.765625 0 1.234375 -0.453125q0.484375 -0.46875 0.484375 -1.21875q0 -0.734375 -0.484375 -1.1875q-0.46875 -0.453125 -1.234375 -0.453125l-2.28125 0l0 3.3125l2.28125 0zm4.7440796 4.390625l0 -8.671875l5.671875 0l0 0.96875l-4.59375 0l0 2.796875l4.515625 0l0 0.953125l-4.515625 0l0 2.984375l4.59375 0l0 0.96875l-5.671875 0zm13.724304 0l-5.0625 -6.921875l0 6.921875l-1.078125 0l0 -8.671875l1.109375 0l4.984375 6.78125l0 -6.78125l1.078125 0l0 8.671875l-1.03125 0zm5.4362793 0l0 -7.703125l-2.734375 0l0 -0.96875l6.578125 0l0 0.96875l-2.765625 0l0 7.703125l-1.078125 0z" fill-rule="nonzero"></path><path fill="#3c78d8" d="m306.67715 163.20735l78.299225 0l0 72.88188l-78.299225 0z" fill-rule="evenodd"></path><path stroke="#434343" stroke-width="2.0" stroke-linejoin="round" stroke-linecap="butt" d="m306.67715 163.20735l78.299225 0l0 72.88188l-78.299225 0z" fill-rule="evenodd"></path><path fill="#ffffff" d="m331.79953 188.60454q-1.90625 0 -3.1875 -1.25q-1.28125 -1.265625 -1.28125 -3.234375q0 -1.96875 1.28125 -3.21875q1.28125 -1.265625 3.1875 -1.265625q2.0625 0 3.28125 1.71875l-0.90625 0.5q-0.375 -0.546875 -1.015625 -0.90625q-0.625 -0.359375 -1.359375 -0.359375q-1.453125 0 -2.40625 1.015625q-0.9375 1.0 -0.9375 2.515625q0 1.53125 0.9375 2.53125q0.953125 0.984375 2.40625 0.984375q0.734375 0 1.359375 -0.34375q0.640625 -0.359375 1.015625 -0.90625l0.921875 0.5q-1.265625 1.71875 -3.296875 1.71875zm11.041046 -0.15625l0 -3.984375l-5.0625 0l0 3.984375l-1.078125 0l0 -8.671875l1.078125 0l0 3.734375l5.0625 0l0 -3.734375l1.078125 0l0 8.671875l-1.078125 0zm3.3489685 0l0 -8.671875l1.078125 0l0 8.671875l-1.078125 0zm3.1853943 0l0 -8.671875l1.078125 0l0 7.703125l4.03125 0l0 0.96875l-5.109375 0zm6.797333 0l0 -8.671875l2.96875 0q1.96875 0 3.203125 1.234375q1.234375 1.21875 1.234375 3.109375q0 1.890625 -1.25 3.109375q-1.234375 1.21875 -3.1875 1.21875l-2.96875 0zm2.96875 -0.96875q1.46875 0 2.390625 -0.921875q0.9375 -0.9375 0.9375 -2.4375q0 -1.515625 -0.921875 -2.4375q-0.90625 -0.9375 -2.40625 -0.9375l-1.890625 0l0 6.734375l1.890625 0z" fill-rule="nonzero"></path><path fill="#ffffff" d="m323.57007 220.44829l0 -8.671875l3.484375 0q1.234375 0 1.96875 0.75q0.75 0.734375 0.75 1.859375q0 1.15625 -0.765625 1.890625q-0.75 0.734375 -1.953125 0.734375l-2.40625 0l0 3.4375l-1.078125 0zm3.359375 -4.40625q0.765625 0 1.234375 -0.453125q0.484375 -0.453125 0.484375 -1.203125q0 -0.734375 -0.484375 -1.1875q-0.46875 -0.453125 -1.234375 -0.453125l-2.28125 0l0 3.296875l2.28125 0zm10.651703 4.40625l-0.765625 -1.921875l-4.3125 0l-0.765625 1.921875l-1.25 0l3.484375 -8.671875l1.34375 0l3.5 8.671875l-1.234375 0zm-2.921875 -7.546875l-1.84375 4.65625l3.671875 0l-1.828125 -4.65625zm10.519867 7.546875l-2.203125 -3.4375l-1.734375 0l0 3.4375l-1.078125 0l0 -8.671875l3.484375 0q1.21875 0 1.96875 0.734375q0.75 0.71875 0.75 1.875q0 1.09375 -0.640625 1.765625q-0.625 0.671875 -1.609375 0.765625l2.34375 3.53125l-1.28125 0zm-1.65625 -4.390625q0.765625 0 1.234375 -0.453125q0.484375 -0.46875 0.484375 -1.21875q0 -0.734375 -0.484375 -1.1875q-0.46875 -0.453125 -1.234375 -0.453125l-2.28125 0l0 3.3125l2.28125 0zm4.74411 4.390625l0 -8.671875l5.671875 0l0 0.96875l-4.59375 0l0 2.796875l4.515625 0l0 0.953125l-4.515625 0l0 2.984375l4.59375 0l0 0.96875l-5.671875 0zm13.724304 0l-5.0625 -6.921875l0 6.921875l-1.078125 0l0 -8.671875l1.109375 0l4.984375 6.78125l0 -6.78125l1.078125 0l0 8.671875l-1.03125 0zm5.4362793 0l0 -7.703125l-2.734375 0l0 -0.96875l6.578125 0l0 0.96875l-2.765625 0l0 7.703125l-1.078125 0z" fill-rule="nonzero"></path><path fill="#3c78d8" d="m516.8819 163.23228l78.299194 0l0 72.88188l-78.299194 0z" fill-rule="evenodd"></path><path stroke="#434343" stroke-width="2.0" stroke-linejoin="round" stroke-linecap="butt" d="m516.8819 163.23228l78.299194 0l0 72.88188l-78.299194 0z" fill-rule="evenodd"></path><path fill="#ffffff" d="m541.3228 188.62947q-1.90625 0 -3.1875 -1.25q-1.28125 -1.265625 -1.28125 -3.234375q0 -1.96875 1.28125 -3.21875q1.28125 -1.265625 3.1875 -1.265625q2.0625 0 3.28125 1.71875l-0.90625 0.5q-0.375 -0.546875 -1.015625 -0.90625q-0.625 -0.359375 -1.359375 -0.359375q-1.453125 0 -2.40625 1.015625q-0.9375 1.0 -0.9375 2.515625q0 1.53125 0.9375 2.53125q0.953125 0.984375 2.40625 0.984375q0.734375 0 1.359375 -0.34375q0.640625 -0.359375 1.015625 -0.90625l0.921875 0.5q-1.265625 1.71875 -3.296875 1.71875zm11.041016 -0.15625l0 -3.984375l-5.0625 0l0 3.984375l-1.078125 0l0 -8.671875l1.078125 0l0 3.734375l5.0625 0l0 -3.734375l1.078125 0l0 8.671875l-1.078125 0zm3.348999 0l0 -8.671875l1.078125 0l0 8.671875l-1.078125 0zm3.1854248 0l0 -8.671875l1.078125 0l0 7.703125l4.03125 0l0 0.96875l-5.109375 0zm6.7973022 0l0 -8.671875l2.96875 0q1.96875 0 3.203125 1.234375q1.234375 1.21875 1.234375 3.109375q0 1.890625 -1.25 3.109375q-1.234375 1.21875 -3.1875 1.21875l-2.96875 0zm2.96875 -0.96875q1.46875 0 2.390625 -0.921875q0.9375 -0.9375 0.9375 -2.4375q0 -1.515625 -0.921875 -2.4375q-0.90625 -0.9375 -2.40625 -0.9375l-1.890625 0l0 6.734375l1.890625 0z" fill-rule="nonzero"></path><path fill="#ffffff" d="m533.7748 220.47322l0 -8.671875l3.484375 0q1.234375 0 1.96875 0.75q0.75 0.734375 0.75 1.859375q0 1.15625 -0.765625 1.890625q-0.75 0.734375 -1.953125 0.734375l-2.40625 0l0 3.4375l-1.078125 0zm3.359375 -4.40625q0.765625 0 1.234375 -0.453125q0.484375 -0.453125 0.484375 -1.203125q0 -0.734375 -0.484375 -1.1875q-0.46875 -0.453125 -1.234375 -0.453125l-2.28125 0l0 3.296875l2.28125 0zm10.651733 4.40625l-0.765625 -1.921875l-4.3125 0l-0.765625 1.921875l-1.25 0l3.484375 -8.671875l1.34375 0l3.5 8.671875l-1.234375 0zm-2.921875 -7.546875l-1.84375 4.65625l3.671875 0l-1.828125 -4.65625zm10.519836 7.546875l-2.203125 -3.4375l-1.734375 0l0 3.4375l-1.078125 0l0 -8.671875l3.484375 0q1.21875 0 1.96875 0.734375q0.75 0.71875 0.75 1.875q0 1.09375 -0.640625 1.765625q-0.625 0.671875 -1.609375 0.765625l2.34375 3.53125l-1.28125 0zm-1.65625 -4.390625q0.765625 0 1.234375 -0.453125q0.484375 -0.46875 0.484375 -1.21875q0 -0.734375 -0.484375 -1.1875q-0.46875 -0.453125 -1.234375 -0.453125l-2.28125 0l0 3.3125l2.28125 0zm4.7441406 4.390625l0 -8.671875l5.671875 0l0 0.96875l-4.59375 0l0 2.796875l4.515625 0l0 0.953125l-4.515625 0l0 2.984375l4.59375 0l0 0.96875l-5.671875 0zm13.724304 0l-5.0625 -6.921875l0 6.921875l-1.078125 0l0 -8.671875l1.109375 0l4.984375 6.78125l0 -6.78125l1.078125 0l0 8.671875l-1.03125 0zm5.4362793 0l0 -7.703125l-2.734375 0l0 -0.96875l6.578125 0l0 0.96875l-2.765625 0l0 7.703125l-1.078125 0z" fill-rule="nonzero"></path><path fill="#3c78d8" d="m250.93176 337.18372l78.299194 0l0 72.8819l-78.299194 0z" fill-rule="evenodd"></path><path stroke="#434343" stroke-width="2.0" stroke-linejoin="round" stroke-linecap="butt" d="m250.93176 337.18372l78.299194 0l0 72.8819l-78.299194 0z" fill-rule="evenodd"></path><path fill="#ffffff" d="m275.37268 378.58093q-1.90625 0 -3.1875 -1.25q-1.28125 -1.265625 -1.28125 -3.234375q0 -1.96875 1.28125 -3.21875q1.28125 -1.265625 3.1875 -1.265625q2.0625 0 3.28125 1.71875l-0.90625 0.5q-0.375 -0.546875 -1.015625 -0.90625q-0.625 -0.359375 -1.359375 -0.359375q-1.453125 0 -2.40625 1.015625q-0.9375 1.0 -0.9375 2.515625q0 1.53125 0.9375 2.53125q0.953125 0.984375 2.40625 0.984375q0.734375 0 1.359375 -0.34375q0.640625 -0.359375 1.015625 -0.90625l0.921875 0.5q-1.265625 1.71875 -3.296875 1.71875zm11.041046 -0.15625l0 -3.984375l-5.0625 0l0 3.984375l-1.078125 0l0 -8.671875l1.078125 0l0 3.734375l5.0625 0l0 -3.734375l1.078125 0l0 8.671875l-1.078125 0zm3.3489685 0l0 -8.671875l1.078125 0l0 8.671875l-1.078125 0zm3.1853943 0l0 -8.671875l1.078125 0l0 7.703125l4.03125 0l0 0.96875l-5.109375 0zm6.797333 0l0 -8.671875l2.96875 0q1.96875 0 3.203125 1.234375q1.234375 1.21875 1.234375 3.109375q0 1.890625 -1.25 3.109375q-1.234375 1.21875 -3.1875 1.21875l-2.96875 0zm2.96875 -0.96875q1.46875 0 2.390625 -0.921875q0.9375 -0.9375 0.9375 -2.4375q0 -1.515625 -0.921875 -2.4375q-0.90625 -0.9375 -2.40625 -0.9375l-1.890625 0l0 6.734375l1.890625 0z" fill-rule="nonzero"></path><path fill="#3c78d8" d="m354.4134 337.18372l78.299194 0l0 72.8819l-78.299194 0z" fill-rule="evenodd"></path><path stroke="#434343" stroke-width="2.0" stroke-linejoin="round" stroke-linecap="butt" d="m354.4134 337.18372l78.299194 0l0 72.8819l-78.299194 0z" fill-rule="evenodd"></path><path fill="#ffffff" d="m378.8543 378.58093q-1.90625 0 -3.1875 -1.25q-1.28125 -1.265625 -1.28125 -3.234375q0 -1.96875 1.28125 -3.21875q1.28125 -1.265625 3.1875 -1.265625q2.0625 0 3.28125 1.71875l-0.90625 0.5q-0.375 -0.546875 -1.015625 -0.90625q-0.625 -0.359375 -1.359375 -0.359375q-1.453125 0 -2.40625 1.015625q-0.9375 1.0 -0.9375 2.515625q0 1.53125 0.9375 2.53125q0.953125 0.984375 2.40625 0.984375q0.734375 0 1.359375 -0.34375q0.640625 -0.359375 1.015625 -0.90625l0.921875 0.5q-1.265625 1.71875 -3.296875 1.71875zm11.041046 -0.15625l0 -3.984375l-5.0625 0l0 3.984375l-1.078125 0l0 -8.671875l1.078125 0l0 3.734375l5.0625 0l0 -3.734375l1.078125 0l0 8.671875l-1.078125 0zm3.3489685 0l0 -8.671875l1.078125 0l0 8.671875l-1.078125 0zm3.1853943 0l0 -8.671875l1.078125 0l0 7.703125l4.03125 0l0 0.96875l-5.109375 0zm6.797333 0l0 -8.671875l2.96875 0q1.96875 0 3.203125 1.234375q1.234375 1.21875 1.234375 3.109375q0 1.890625 -1.25 3.109375q-1.234375 1.21875 -3.1875 1.21875l-2.96875 0zm2.96875 -0.96875q1.46875 0 2.390625 -0.921875q0.9375 -0.9375 0.9375 -2.4375q0 -1.515625 -0.921875 -2.4375q-0.90625 -0.9375 -2.40625 -0.9375l-1.890625 0l0 6.734375l1.890625 0z" fill-rule="nonzero"></path><path fill="#3c78d8" d="m469.98688 337.16797l78.299194 0l0 72.8819l-78.299194 0z" fill-rule="evenodd"></path><path stroke="#434343" stroke-width="2.0" stroke-linejoin="round" stroke-linecap="butt" d="m469.98688 337.16797l78.299194 0l0 72.8819l-78.299194 0z" fill-rule="evenodd"></path><path fill="#ffffff" d="m494.4278 378.5652q-1.90625 0 -3.1875 -1.25q-1.28125 -1.265625 -1.28125 -3.234375q0 -1.96875 1.28125 -3.21875q1.28125 -1.265625 3.1875 -1.265625q2.0625 0 3.28125 1.71875l-0.90625 0.5q-0.375 -0.546875 -1.015625 -0.90625q-0.625 -0.359375 -1.359375 -0.359375q-1.453125 0 -2.40625 1.015625q-0.9375 1.0 -0.9375 2.515625q0 1.53125 0.9375 2.53125q0.953125 0.984375 2.40625 0.984375q0.734375 0 1.359375 -0.34375q0.640625 -0.359375 1.015625 -0.90625l0.921875 0.5q-1.265625 1.71875 -3.296875 1.71875zm11.041046 -0.15625l0 -3.984375l-5.0625 0l0 3.984375l-1.078125 0l0 -8.671875l1.078125 0l0 3.734375l5.0625 0l0 -3.734375l1.078125 0l0 8.671875l-1.078125 0zm3.3489685 0l0 -8.671875l1.078125 0l0 8.671875l-1.078125 0zm3.1854248 0l0 -8.671875l1.078125 0l0 7.703125l4.03125 0l0 0.96875l-5.109375 0zm6.7973022 0l0 -8.671875l2.96875 0q1.96875 0 3.203125 1.234375q1.234375 1.21875 1.234375 3.109375q0 1.890625 -1.25 3.109375q-1.234375 1.21875 -3.1875 1.21875l-2.96875 0zm2.96875 -0.96875q1.46875 0 2.390625 -0.921875q0.9375 -0.9375 0.9375 -2.4375q0 -1.515625 -0.921875 -2.4375q-0.90625 -0.9375 -2.40625 -0.9375l-1.890625 0l0 6.734375l1.890625 0z" fill-rule="nonzero"></path><path fill="#3c78d8" d="m576.5381 337.18372l78.299194 0l0 72.8819l-78.299194 0z" fill-rule="evenodd"></path><path stroke="#434343" stroke-width="2.0" stroke-linejoin="round" stroke-linecap="butt" d="m576.5381 337.18372l78.299194 0l0 72.8819l-78.299194 0z" fill-rule="evenodd"></path><path fill="#ffffff" d="m600.979 378.58093q-1.90625 0 -3.1875 -1.25q-1.28125 -1.265625 -1.28125 -3.234375q0 -1.96875 1.28125 -3.21875q1.28125 -1.265625 3.1875 -1.265625q2.0625 0 3.28125 1.71875l-0.90625 0.5q-0.375 -0.546875 -1.015625 -0.90625q-0.625 -0.359375 -1.359375 -0.359375q-1.453125 0 -2.40625 1.015625q-0.9375 1.0 -0.9375 2.515625q0 1.53125 0.9375 2.53125q0.953125 0.984375 2.40625 0.984375q0.734375 0 1.359375 -0.34375q0.640625 -0.359375 1.015625 -0.90625l0.921875 0.5q-1.265625 1.71875 -3.296875 1.71875zm11.041016 -0.15625l0 -3.984375l-5.0625 0l0 3.984375l-1.078125 0l0 -8.671875l1.078125 0l0 3.734375l5.0625 0l0 -3.734375l1.078125 0l0 8.671875l-1.078125 0zm3.348999 0l0 -8.671875l1.078125 0l0 8.671875l-1.078125 0zm3.1853638 0l0 -8.671875l1.078125 0l0 7.703125l4.03125 0l0 0.96875l-5.109375 0zm6.7973633 0l0 -8.671875l2.96875 0q1.96875 0 3.203125 1.234375q1.234375 1.21875 1.234375 3.109375q0 1.890625 -1.25 3.109375q-1.234375 1.21875 -3.1875 1.21875l-2.96875 0zm2.96875 -0.96875q1.46875 0 2.390625 -0.921875q0.9375 -0.9375 0.9375 -2.4375q0 -1.515625 -0.921875 -2.4375q-0.90625 -0.9375 -2.40625 -0.9375l-1.890625 0l0 6.734375l1.890625 0z" fill-rule="nonzero"></path><path fill="#000000" fill-opacity="0.0" d="m306.67715 201.44882l78.299225 0" fill-rule="evenodd"></path><path stroke="#ffffff" stroke-width="2.0" stroke-linejoin="round" stroke-linecap="butt" d="m306.67715 201.44882l78.299225 0" fill-rule="evenodd"></path><path fill="#000000" fill-opacity="0.0" d="m516.8819 199.44882l78.299194 0" fill-rule="evenodd"></path><path stroke="#ffffff" stroke-width="2.0" stroke-linejoin="round" stroke-linecap="butt" d="m516.8819 199.44882l78.299194 0" fill-rule="evenodd"></path><path fill="#000000" fill-opacity="0.0" d="m416.46194 65.34908l78.299225 0" fill-rule="evenodd"></path><path stroke="#ffffff" stroke-width="2.0" stroke-linejoin="round" stroke-linecap="butt" d="m416.46194 65.34908l78.299225 0" fill-rule="evenodd"></path><path fill="#000000" fill-opacity="0.0" d="m222.29921 187.28157l0 0c0 -20.198654 16.374252 -36.572906 36.57292 -36.572906l146.28723 0l0 0c9.699738 0 19.002197 3.8532104 25.860962 10.71196c6.8587646 6.8587494 10.711945 16.16121 10.711945 25.860947l0 227.04317c0 20.198639 -16.374237 36.572906 -36.572906 36.572906l-146.28723 0c-20.19867 0 -36.57292 -16.374268 -36.57292 -36.572906z" fill-rule="evenodd"></path><path stroke="#0000ff" stroke-width="2.0" stroke-linejoin="round" stroke-linecap="butt" stroke-dasharray="8.0,6.0,2.0,6.0" d="m222.29921 187.28157l0 0c0 -20.198654 16.374252 -36.572906 36.57292 -36.572906l146.28723 0l0 0c9.699738 0 19.002197 3.8532104 25.860962 10.71196c6.8587646 6.8587494 10.711945 16.16121 10.711945 25.860947l0 227.04317c0 20.198639 -16.374237 36.572906 -36.572906 36.572906l-146.28723 0c-20.19867 0 -36.57292 -16.374268 -36.57292 -36.572906z" fill-rule="evenodd"></path><path fill="#000000" fill-opacity="0.0" d="m457.89764 187.28157l0 0c0 -20.198654 16.374237 -36.572906 36.572906 -36.572906l146.28726 0l0 0c9.699707 0 19.002197 3.8532104 25.860962 10.71196c6.8587036 6.8587494 10.711914 16.16121 10.711914 25.860947l0 227.04317c0 20.198639 -16.374207 36.572906 -36.572876 36.572906l-146.28726 0c-20.19867 0 -36.572906 -16.374268 -36.572906 -36.572906z" fill-rule="evenodd"></path><path stroke="#0000ff" stroke-width="2.0" stroke-linejoin="round" stroke-linecap="butt" stroke-dasharray="8.0,6.0,2.0,6.0" d="m457.89764 187.28157l0 0c0 -20.198654 16.374237 -36.572906 36.572906 -36.572906l146.28726 0l0 0c9.699707 0 19.002197 3.8532104 25.860962 10.71196c6.8587036 6.8587494 10.711914 16.16121 10.711914 25.860947l0 227.04317c0 20.198639 -16.374207 36.572906 -36.572876 36.572906l-146.28726 0c-20.19867 0 -36.572906 -16.374268 -36.572906 -36.572906z" fill-rule="evenodd"></path><path fill="#000000" fill-opacity="0.0" d="m677.3307 300.80316l59.77954 -0.18899536" fill-rule="evenodd"></path><path stroke="#595959" stroke-width="1.0" stroke-linejoin="round" stroke-linecap="butt" d="m677.3307 300.80316l59.77954 -0.18899536" fill-rule="evenodd"></path><path fill="#000000" fill-opacity="0.0" d="m222.29921 300.80316l-52.18898 -0.18899536" fill-rule="evenodd"></path><path stroke="#595959" stroke-width="1.0" stroke-linejoin="round" stroke-linecap="butt" d="m222.29921 300.80316l-52.18898 -0.18899536" fill-rule="evenodd"></path><path fill="#000000" fill-opacity="0.0" d="m90.291336 269.6667l87.71654 0l0 72.8819l-87.71654 0z" fill-rule="evenodd"></path><path fill="#000000" d="m120.24257 296.5867l0 -12.671875l1.578125 0l0 11.265625l5.890625 0l0 1.40625l-7.46875 0zm13.592819 0.234375q-2.0625 0 -3.375 -1.34375q-1.296875 -1.359375 -1.296875 -3.484375q0 -2.03125 1.296875 -3.421875q1.296875 -1.390625 3.234375 -1.390625q1.96875 0 3.1875 1.375q1.21875 1.359375 1.21875 3.546875l0 0.359375l-7.4375 0q0.078125 1.40625 1.015625 2.296875q0.9375 0.875 2.296875 0.875q1.671875 0 2.828125 -1.15625l0.6875 0.9375q-1.40625 1.40625 -3.65625 1.40625zm2.859375 -5.40625q0 -1.265625 -0.84375 -2.15625q-0.828125 -0.90625 -2.1875 -0.90625q-1.265625 0 -2.109375 0.90625q-0.84375 0.890625 -0.890625 2.15625l6.03125 0zm3.9097137 5.171875l0 -7.921875l-1.53125 0l0 -1.25l1.53125 0l0 -0.703125q0 -1.4375 0.703125 -2.203125q0.71875 -0.78125 1.953125 -0.78125q1.15625 0 1.9375 0.703125l-0.59375 0.921875q-0.484375 -0.453125 -1.140625 -0.453125q-1.4375 0 -1.4375 1.8125l0 0.703125l1.859375 0l0 1.25l-1.859375 0l0 7.921875l-1.421875 0zm7.201599 0.234375q-2.046875 0 -2.046875 -2.15625l0 -6.0l-1.515625 0l0 -1.25l1.515625 0l0 -2.515625l1.4375 0l0 2.515625l1.859375 0l0 1.25l-1.859375 0l0 5.703125q0 0.515625 0.21875 0.84375q0.234375 0.328125 0.703125 0.328125q0.59375 0 0.96875 -0.375l0.421875 1.0625q-0.59375 0.59375 -1.703125 0.59375z" fill-rule="nonzero"></path><path fill="#000000" d="m107.31246 318.82108q-2.328125 0 -3.703125 -1.453125l0.75 -1.015625q0.453125 0.53125 1.25 0.921875q0.8125 0.375 1.765625 0.375q1.0625 0 1.609375 -0.4375q0.5625 -0.453125 0.5625 -1.140625q0 -0.59375 -0.609375 -0.9375q-0.59375 -0.359375 -2.234375 -0.75q-1.375 -0.28125 -2.109375 -0.890625q-0.734375 -0.625 -0.734375 -1.671875q0 -1.15625 0.921875 -1.890625q0.9375 -0.75 2.5 -0.75q2.0625 0 3.390625 1.328125l-0.65625 0.984375q-0.421875 -0.484375 -1.140625 -0.8125q-0.703125 -0.34375 -1.59375 -0.34375q-0.953125 0 -1.5 0.421875q-0.53125 0.421875 -0.53125 1.03125q0 0.546875 0.609375 0.875q0.609375 0.3125 2.234375 0.65625q1.390625 0.328125 2.109375 0.984375q0.71875 0.65625 0.71875 1.734375q0 1.28125 -0.984375 2.03125q-0.984375 0.75 -2.625 0.75zm11.972031 -0.234375l0 -1.296875q-0.53125 0.609375 -1.390625 1.078125q-0.859375 0.453125 -1.890625 0.453125q-2.921875 0 -2.921875 -2.9375l0 -6.46875l1.421875 0l0 6.03125q0 1.09375 0.5 1.59375q0.5 0.5 1.5625 0.5q0.828125 0 1.5625 -0.40625q0.75 -0.421875 1.15625 -0.984375l0 -6.734375l1.421875 0l0 9.171875l-1.421875 0zm5.498352 -2.484375q0.390625 0.609375 1.140625 1.03125q0.75 0.40625 1.609375 0.40625q1.3437576 0 2.1406326 -0.96875q0.8125 -0.984375 0.8125 -2.5625q0 -1.59375 -0.796875 -2.5625q-0.796875 -0.984375 -2.1562576 -0.984375q-0.859375 0 -1.609375 0.4375q-0.75 0.421875 -1.140625 1.03125l0 4.171875zm-1.421875 2.484375l0 -12.671875l1.421875 0l0 4.875q1.1875 -1.609375 3.109375 -1.609375q1.8125076 0 2.9375076 1.328125q1.140625 1.328125 1.140625 3.5q0 2.203125 -1.140625 3.515625q-1.125 1.296875 -2.9375076 1.296875q-0.96875 0 -1.78125 -0.453125q-0.8125 -0.453125 -1.328125 -1.15625l0 1.375l-1.421875 0zm13.055473 0.234375q-2.046875 0 -2.046875 -2.15625l0 -6.0l-1.515625 0l0 -1.25l1.515625 0l0 -2.515625l1.4375 0l0 2.515625l1.859375 0l0 1.25l-1.859375 0l0 5.703125q0 0.515625 0.21875 0.84375q0.234375 0.328125 0.703125 0.328125q0.59375 0 0.96875 -0.375l0.421875 1.0625q-0.59375 0.59375 -1.703125 0.59375zm3.1568146 -0.234375l0 -9.171875l1.421875 0l0 1.484375q1.28125 -1.671875 3.0625 -1.671875l0 1.453125l-0.5625 -0.0625q-0.65625 0 -1.4375 0.46875q-0.765625 0.46875 -1.0625 1.0l0 6.5l-1.421875 0zm10.297195 0.234375q-2.0625 0 -3.375 -1.34375q-1.296875 -1.359375 -1.296875 -3.484375q0 -2.03125 1.296875 -3.421875q1.296875 -1.390625 3.234375 -1.390625q1.96875 0 3.1875 1.375q1.21875 1.359375 1.21875 3.546875l0 0.359375l-7.4375 0q0.078125 1.40625 1.015625 2.296875q0.9375 0.875 2.296875 0.875q1.671875 0 2.828125 -1.15625l0.6875 0.9375q-1.40625 1.40625 -3.65625 1.40625zm2.859375 -5.40625q0 -1.265625 -0.84375 -2.15625q-0.828125 -0.90625 -2.1875 -0.90625q-1.265625 0 -2.109375 0.90625q-0.84375 0.890625 -0.890625 2.15625l6.03125 0zm7.6440887 5.40625q-2.0625 0 -3.375 -1.34375q-1.296875 -1.359375 -1.296875 -3.484375q0 -2.03125 1.296875 -3.421875q1.296875 -1.390625 3.234375 -1.390625q1.96875 0 3.1875 1.375q1.21875 1.359375 1.21875 3.546875l0 0.359375l-7.4375 0q0.078125 1.40625 1.015625 2.296875q0.9375 0.875 2.296875 0.875q1.671875 0 2.828125 -1.15625l0.6875 0.9375q-1.40625 1.40625 -3.65625 1.40625zm2.859375 -5.40625q0 -1.265625 -0.84375 -2.15625q-0.828125 -0.90625 -2.1875 -0.90625q-1.265625 0 -2.109375 0.90625q-0.84375 0.890625 -0.890625 2.15625l6.03125 0z" fill-rule="nonzero"></path><path fill="#000000" fill-opacity="0.0" d="m729.98425 269.6667l87.71655 0l0 72.8819l-87.71655 0z" fill-rule="evenodd"></path><path fill="#000000" d="m761.63873 296.5867l-3.21875 -5.03125l-2.53125 0l0 5.03125l-1.578125 0l0 -12.671875l5.09375 0q1.78125 0 2.875 1.0625q1.09375 1.0625 1.09375 2.75q0 1.59375 -0.921875 2.578125q-0.921875 0.984375 -2.359375 1.109375l3.40625 5.171875l-1.859375 0zm-2.421875 -6.421875q1.140625 0 1.828125 -0.671875q0.6875 -0.671875 0.6875 -1.765625q0 -1.078125 -0.6875 -1.734375q-0.6875 -0.671875 -1.828125 -0.671875l-3.328125 0l0 4.84375l3.328125 0zm7.0773926 -4.0625q-0.375 0 -0.671875 -0.265625q-0.28125 -0.28125 -0.28125 -0.6875q0 -0.40625 0.28125 -0.6875q0.296875 -0.28125 0.671875 -0.28125q0.40625 0 0.6875 0.28125q0.28125 0.28125 0.28125 0.6875q0 0.40625 -0.28125 0.6875q-0.28125 0.265625 -0.6875 0.265625zm-0.703125 10.484375l0 -9.171875l1.421875 0l0 9.171875l-1.421875 0zm7.885132 3.71875q-1.171875 0 -2.03125 -0.28125q-0.859375 -0.28125 -1.671875 -1.078125l0.71875 -1.0625q0.578125 0.671875 1.28125 0.953125q0.71875 0.296875 1.703125 0.296875q1.40625 0 2.171875 -0.734375q0.78125 -0.734375 0.78125 -2.015625l0 -1.3125q-0.5 0.703125 -1.3125 1.171875q-0.796875 0.453125 -1.765625 0.453125q-1.875 0 -2.984375 -1.3125q-1.109375 -1.3125 -1.109375 -3.4375q0 -2.203125 1.125 -3.484375q1.140625 -1.28125 2.96875 -1.28125q1.890625 0 3.078125 1.609375l0 -1.375l1.421875 0l0 8.90625q0 1.9375 -1.140625 2.953125q-1.140625 1.03125 -3.234375 1.03125zm0.203125 -4.859375q0.78125 0 1.546875 -0.40625q0.78125 -0.421875 1.203125 -1.09375l0 -4.015625q-0.421875 -0.65625 -1.203125 -1.0625q-0.78125 -0.40625 -1.546875 -0.40625q-1.34375 0 -2.140625 0.96875q-0.796875 0.96875 -0.796875 2.515625q0 1.578125 0.8125 2.546875q0.828125 0.953125 2.125 0.953125zm13.036865 1.140625l0 -6.046875q0 -1.015625 -0.484375 -1.546875q-0.484375 -0.53125 -1.59375 -0.53125q-0.78125 0 -1.515625 0.40625q-0.71875 0.390625 -1.203125 1.015625l0 6.703125l-1.421875 0l0 -12.671875l1.421875 0l0 4.828125q0.609375 -0.703125 1.484375 -1.125q0.875 -0.4375 1.8125 -0.4375q2.921875 0 2.921875 2.921875l0 6.484375l-1.421875 0zm6.407593 0.234375q-2.046875 0 -2.046875 -2.15625l0 -6.0l-1.515625 0l0 -1.25l1.515625 0l0 -2.515625l1.4375 0l0 2.515625l1.859375 0l0 1.25l-1.859375 0l0 5.703125q0 0.515625 0.21875 0.84375q0.234375 0.328125 0.703125 0.328125q0.59375 0 0.96875 -0.375l0.421875 1.0625q-0.59375 0.59375 -1.703125 0.59375z" fill-rule="nonzero"></path><path fill="#000000" d="m747.0054 318.82108q-2.328125 0 -3.703125 -1.453125l0.75 -1.015625q0.453125 0.53125 1.25 0.921875q0.8125 0.375 1.765625 0.375q1.0625 0 1.609375 -0.4375q0.5625 -0.453125 0.5625 -1.140625q0 -0.59375 -0.609375 -0.9375q-0.59375 -0.359375 -2.234375 -0.75q-1.375 -0.28125 -2.109375 -0.890625q-0.734375 -0.625 -0.734375 -1.671875q0 -1.15625 0.921875 -1.890625q0.9375 -0.75 2.5 -0.75q2.0625 0 3.390625 1.328125l-0.65625 0.984375q-0.421875 -0.484375 -1.140625 -0.8125q-0.703125 -0.34375 -1.59375 -0.34375q-0.953125 0 -1.5 0.421875q-0.53125 0.421875 -0.53125 1.03125q0 0.546875 0.609375 0.875q0.609375 0.3125 2.234375 0.65625q1.390625 0.328125 2.109375 0.984375q0.71875 0.65625 0.71875 1.734375q0 1.28125 -0.984375 2.03125q-0.984375 0.75 -2.625 0.75zm11.972046 -0.234375l0 -1.296875q-0.53125 0.609375 -1.390625 1.078125q-0.859375 0.453125 -1.890625 0.453125q-2.921875 0 -2.921875 -2.9375l0 -6.46875l1.421875 0l0 6.03125q0 1.09375 0.5 1.59375q0.5 0.5 1.5625 0.5q0.828125 0 1.5625 -0.40625q0.75 -0.421875 1.15625 -0.984375l0 -6.734375l1.421875 0l0 9.171875l-1.421875 0zm5.498352 -2.484375q0.390625 0.609375 1.140625 1.03125q0.75 0.40625 1.609375 0.40625q1.34375 0 2.140625 -0.96875q0.8125 -0.984375 0.8125 -2.5625q0 -1.59375 -0.796875 -2.5625q-0.796875 -0.984375 -2.15625 -0.984375q-0.859375 0 -1.609375 0.4375q-0.75 0.421875 -1.140625 1.03125l0 4.171875zm-1.421875 2.484375l0 -12.671875l1.421875 0l0 4.875q1.1875 -1.609375 3.109375 -1.609375q1.8125 0 2.9375 1.328125q1.140625 1.328125 1.140625 3.5q0 2.203125 -1.140625 3.515625q-1.125 1.296875 -2.9375 1.296875q-0.96875 0 -1.78125 -0.453125q-0.8125 -0.453125 -1.328125 -1.15625l0 1.375l-1.421875 0zm13.055481 0.234375q-2.046875 0 -2.046875 -2.15625l0 -6.0l-1.515625 0l0 -1.25l1.515625 0l0 -2.515625l1.4375 0l0 2.515625l1.859375 0l0 1.25l-1.859375 0l0 5.703125q0 0.515625 0.21875 0.84375q0.234375 0.328125 0.703125 0.328125q0.59375 0 0.96875 -0.375l0.421875 1.0625q-0.59375 0.59375 -1.703125 0.59375zm3.1567993 -0.234375l0 -9.171875l1.421875 0l0 1.484375q1.28125 -1.671875 3.0625 -1.671875l0 1.453125l-0.5625 -0.0625q-0.65625 0 -1.4375 0.46875q-0.765625 0.46875 -1.0625 1.0l0 6.5l-1.421875 0zm10.29718 0.234375q-2.0625 0 -3.375 -1.34375q-1.296875 -1.359375 -1.296875 -3.484375q0 -2.03125 1.296875 -3.421875q1.296875 -1.390625 3.234375 -1.390625q1.96875 0 3.1875 1.375q1.21875 1.359375 1.21875 3.546875l0 0.359375l-7.4375 0q0.078125 1.40625 1.015625 2.296875q0.9375 0.875 2.296875 0.875q1.671875 0 2.828125 -1.15625l0.6875 0.9375q-1.40625 1.40625 -3.65625 1.40625zm2.859375 -5.40625q0 -1.265625 -0.84375 -2.15625q-0.828125 -0.90625 -2.1875 -0.90625q-1.265625 0 -2.109375 0.90625q-0.84375 0.890625 -0.890625 2.15625l6.03125 0zm7.644104 5.40625q-2.0625 0 -3.375 -1.34375q-1.296875 -1.359375 -1.296875 -3.484375q0 -2.03125 1.296875 -3.421875q1.296875 -1.390625 3.234375 -1.390625q1.96875 0 3.1875 1.375q1.21875 1.359375 1.21875 3.546875l0 0.359375l-7.4375 0q0.078125 1.40625 1.015625 2.296875q0.9375 0.875 2.296875 0.875q1.671875 0 2.828125 -1.15625l0.6875 0.9375q-1.40625 1.40625 -3.65625 1.40625zm2.859375 -5.40625q0 -1.265625 -0.84375 -2.15625q-0.828125 -0.90625 -2.1875 -0.90625q-1.265625 0 -2.109375 0.90625q-0.84375 0.890625 -0.890625 2.15625l6.03125 0z" fill-rule="nonzero"></path><path fill="#000000" fill-opacity="0.0" d="m399.19946 30.772013l0 0c0 -9.92103 8.042603 -17.963614 17.963623 -17.963614l81.742065 0c4.7642517 0 9.333374 1.8925896 12.702209 5.261421c3.3688354 3.3688297 5.2614136 7.9379463 5.2614136 12.702192l0 71.8523c0 9.921028 -8.042603 17.963615 -17.963623 17.963615l-81.742065 0c-9.9210205 0 -17.963623 -8.042587 -17.963623 -17.963615z" fill-rule="evenodd"></path><path stroke="#0000ff" stroke-width="2.0" stroke-linejoin="round" stroke-linecap="butt" stroke-dasharray="8.0,6.0,2.0,6.0" d="m399.19946 30.772013l0 0c0 -9.92103 8.042603 -17.963614 17.963623 -17.963614l81.742065 0c4.7642517 0 9.333374 1.8925896 12.702209 5.261421c3.3688354 3.3688297 5.2614136 7.9379463 5.2614136 12.702192l0 71.8523c0 9.921028 -8.042603 17.963615 -17.963623 17.963615l-81.742065 0c-9.9210205 0 -17.963623 -8.042587 -17.963623 -17.963615z" fill-rule="evenodd"></path><path fill="#000000" fill-opacity="0.0" d="m516.8688 62.181103l59.77954 -0.18897629" fill-rule="evenodd"></path><path stroke="#595959" stroke-width="1.0" stroke-linejoin="round" stroke-linecap="butt" d="m516.8688 62.181103l59.77954 -0.18897629" fill-rule="evenodd"></path><path fill="#000000" fill-opacity="0.0" d="m576.6483 38.80843l87.71649 0l0 72.8819l-87.71649 0z" fill-rule="evenodd"></path><path fill="#000000" d="m605.43634 65.728424l0 -9.171871l1.421875 0l0 1.484375q1.28125 -1.671875 3.0625 -1.671875l0 1.453125l-0.5625 -0.0625q-0.65625 0 -1.4375 0.46875q-0.765625 0.46875 -1.0625 1.0l0 6.499996l-1.421875 0zm10.17218 0.234375q-2.0 0 -3.28125 -1.359375q-1.265625 -1.3593712 -1.265625 -3.4687462q0 -2.125 1.265625 -3.46875q1.28125 -1.34375 3.28125 -1.34375q1.984375 0 3.25 1.34375q1.28125 1.34375 1.28125 3.46875q0 2.109375 -1.28125 3.4687462q-1.265625 1.359375 -3.25 1.359375zm0 -1.28125q1.328125 0 2.171875 -0.9999962q0.859375 -1.0 0.859375 -2.546875q0 -1.546875 -0.859375 -2.53125q-0.84375 -1.0 -2.171875 -1.0q-1.328125 0 -2.203125 0.984375q-0.859375 0.984375 -0.859375 2.546875q0 1.578125 0.84375 2.5625q0.859375 0.9843712 2.21875 0.9843712zm10.671387 1.28125q-2.0 0 -3.28125 -1.359375q-1.265625 -1.3593712 -1.265625 -3.4687462q0 -2.125 1.265625 -3.46875q1.28125 -1.34375 3.28125 -1.34375q1.984375 0 3.25 1.34375q1.28125 1.34375 1.28125 3.46875q0 2.109375 -1.28125 3.4687462q-1.265625 1.359375 -3.25 1.359375zm0 -1.28125q1.328125 0 2.171875 -0.9999962q0.859375 -1.0 0.859375 -2.546875q0 -1.546875 -0.859375 -2.53125q-0.84375 -1.0 -2.171875 -1.0q-1.328125 0 -2.203125 0.984375q-0.859375 0.984375 -0.859375 2.546875q0 1.578125 0.84375 2.5625q0.859375 0.9843712 2.21875 0.9843712zm8.983826 1.28125q-2.046875 0 -2.046875 -2.1562462l0 -6.0l-1.515625 0l0 -1.25l1.515625 0l0 -2.515625l1.4375 0l0 2.515625l1.859375 0l0 1.25l-1.859375 0l0 5.703125q0 0.5156212 0.21875 0.8437462q0.234375 0.328125 0.703125 0.328125q0.59375 0 0.96875 -0.375l0.421875 1.0625q-0.59375 0.59375 -1.703125 0.59375z" fill-rule="nonzero"></path></g></svg>

