<svg version="1.1" viewBox="0 0 960 540" fill="none" stroke="none" stroke-linecap="square" stroke-miterlimit="10" xmlns="http://www.w3.org/2000/svg"><clipPath id="a"><path d="M0 0h960v540H0V0z" clip-rule="nonzero"/></clipPath><g clip-path="url(#a)"><path fill="#fff" d="M0 0h960v540H0z" fill-rule="evenodd"/><path fill="#eee" d="M754.047 134.346h78.3V276.3h-78.3z" fill-rule="evenodd"/><path stroke="#595959" stroke-width="1" stroke-linejoin="round" stroke-linecap="butt" d="M754.047 134.346h78.3V276.3h-78.3z" fill-rule="evenodd"/><path fill="#000" d="M769.891 195.123l-.531-1.469h-3.719l-.547 1.469h-2.11l3.344-8.672h2.329l3.328 8.672h-2.094zm-2.39-6.828l-1.36 3.734h2.703l-1.344-3.734zm9.725 6.828v-.797q-.844.953-2.219.953-1.03 0-1.53-.516-.5-.53-.5-1.453v-4.468h1.655v3.812q0 1.156 1.157 1.156.843 0 1.437-.718v-4.25h1.64v6.28h-1.64zm7.717 0v-3.797q0-1.172-1.156-1.172-.906 0-1.438.75v4.219h-1.656v-6.281h1.656v.828q.297-.375.86-.672.562-.313 1.343-.313 1.032 0 1.532.547.5.531.5 1.453v4.438h-1.64zm5.576.156q-1.78 0-1.78-1.719v-3.28h-1.032v-1.438h1.031v-1.72h1.672v1.72h1.266v1.437h-1.266v2.844q0 .297.14.5.157.187.423.187.39 0 .578-.187l.343 1.25q-.421.406-1.375.406zM768.61 225.843l-2.032-3.188h-1.593v3.188h-1v-8h3.218q1.125 0 1.813.672.687.672.687 1.734 0 1.016-.578 1.64-.578.61-1.5.688l2.172 3.266h-1.187zm-1.532-4.063q.72 0 1.157-.422.437-.421.437-1.109 0-.687-.437-1.094-.438-.422-1.157-.422h-2.093v3.047h2.093zm6.703 4.203q-1.266 0-2.078-.859-.797-.86-.797-2.187 0-1.344.797-2.188.812-.844 2.078-.844 1.25 0 2.047.844.812.844.812 2.188 0 1.328-.812 2.187-.797.86-2.047.86zm0-.796q.828 0 1.375-.625.547-.641.547-1.625 0-.97-.547-1.594-.547-.64-1.375-.64-.844 0-1.39.624-.548.625-.548 1.61 0 1 .532 1.625.546.625 1.406.625zm5.786.796q-1.282 0-1.282-1.359v-3.781h-.953v-.797h.953v-1.578h.907v1.578h1.172v.797h-1.172v3.594q0 .328.14.546.141.204.438.204.375 0 .625-.25l.25.671q-.36.375-1.078.375zm3.528 0q-1.282 0-1.282-1.359v-3.781h-.953v-.797h.953v-1.578h.907v1.578h1.172v.797h-1.172v3.594q0 .328.14.546.141.204.438.204.375 0 .625-.25l.25.671q-.36.375-1.078.375zm4.684 0q-1.312 0-2.14-.843-.813-.86-.813-2.203 0-1.282.812-2.157.829-.875 2.047-.875 1.25 0 2.016.86t.766 2.25v.218h-4.688q.047.891.64 1.454.594.562 1.438.562 1.063 0 1.797-.734l.422.578q-.875.89-2.297.89zm1.797-3.406q0-.797-.531-1.36-.516-.577-1.375-.577-.797 0-1.344.578-.531.562-.547 1.36h3.797zm2.35 3.266v-5.797h.89v.937q.813-1.062 1.938-1.062v.937l-.36-.046q-.406 0-.906.296-.484.297-.672.625v4.11h-.89zm8.147 0v-.86q-.312.438-.828.72-.516.28-1.125.28-1.156 0-1.875-.828-.703-.828-.703-2.203 0-1.39.703-2.219.719-.828 1.875-.828.594 0 1.094.266.515.266.86.75v-3.078h.905v8h-.906zm-1.734-.656q.547 0 1.015-.266.485-.266.72-.656v-2.625q-.235-.375-.72-.657-.468-.28-1.015-.28-.844 0-1.36.624-.5.61-.5 1.625 0 1 .5 1.625.516.61 1.36.61zm8.072.656v-.656q-.735.796-1.922.796-.875 0-1.453-.546-.578-.547-.578-1.375 0-.829.562-1.36.578-.547 1.469-.547 1.25 0 1.922.797v-1.047q0-.593-.422-.906-.406-.312-1.047-.312-1.016 0-1.781.796l-.422-.625q.922-.953 2.328-.953 1.063 0 1.64.516.594.516.594 1.437v3.985h-.89zm-1.61-.5q1.079 0 1.61-.719v-1.094q-.531-.718-1.61-.718-.625 0-1.03.359-.391.344-.391.906 0 .547.39.906.406.36 1.031.36zm11.293.5v-3.938q0-1.203-1.062-1.203-.453 0-.89.281-.423.266-.642.61v4.25h-.906v-3.938q0-1.203-1.062-1.203-.453 0-.875.281-.407.282-.657.625v4.235h-.89v-5.797h.89v.844q.204-.344.766-.657.563-.328 1.11-.328.671 0 1.046.313.375.312.516.765.297-.468.844-.765.562-.313 1.093-.313 1.625 0 1.625 1.75v4.188h-.906z" fill-rule="nonzero"/><path fill="#eee" d="M49.354 134.336h78.3v141.953h-78.3z" fill-rule="evenodd"/><path stroke="#595959" stroke-width="1" stroke-linejoin="round" stroke-linecap="butt" d="M49.354 134.336h78.3v141.953h-78.3z" fill-rule="evenodd"/><path fill="#000" d="M66.745 194.112v-6.078l-2.438 6.078h-.812l-2.438-6.078v6.078h-1.843v-8.672h2.578l2.11 5.235 2.109-5.235h2.593v8.672h-1.859zm6.74.157q-1.454 0-2.391-.938-.922-.937-.922-2.36 0-1.437.922-2.359.937-.937 2.39-.937t2.39.937q.938.922.938 2.36 0 1.437-.937 2.375-.938.922-2.39.922zm0-1.47q.718 0 1.155-.515.454-.515.454-1.312 0-.782-.454-1.297-.437-.531-1.156-.531-.687 0-1.156.5-.453.5-.453 1.328 0 .828.453 1.328.469.5 1.156.5zm12.525 1.313v-3.968q0-1-.938-1-.437 0-.781.234-.344.234-.516.5v4.234h-1.672v-3.968q0-1-.937-1-.422 0-.766.25-.344.234-.531.5v4.218h-1.656v-6.28h1.656v.827q.219-.36.828-.672.61-.312 1.234-.312 1.36 0 1.735 1.14.297-.468.89-.796.61-.344 1.266-.344 1.844 0 1.844 1.906v4.531H86.01zM59.37 226.112v-8.672h2.969q1.968 0 3.203 1.235 1.234 1.219 1.234 3.11 0 1.89-1.25 3.109-1.234 1.218-3.187 1.218H59.37zm2.969-.968q1.468 0 2.39-.922.938-.938.938-2.438 0-1.515-.922-2.437-.906-.938-2.406-.938h-1.89v6.735h1.89zm9.157 1.125q-1.421 0-2.312-.922-.89-.922-.89-2.375 0-1.39.874-2.344.891-.953 2.22-.953 1.358 0 2.187.937.828.938.828 2.438v.234h-5.078q.046.969.687 1.578.656.594 1.578.594 1.14 0 1.938-.781l.468.625q-.968.969-2.5.969zm1.954-3.688q0-.875-.579-1.484-.578-.61-1.5-.61-.859 0-1.453.61-.578.61-.593 1.484h4.125zm2.706 3.531v-8.672h.985v8.672h-.985zm3.28 0v-5.422H78.39v-.859h1.047v-.484q0-.969.484-1.5.484-.532 1.328-.532.797 0 1.328.485l-.406.625q-.328-.313-.766-.313-1 0-1 1.235v.484h1.282v.86h-1.282v5.421h-.968zm5.085.157q-1.39 0-1.39-1.47v-4.109h-1.048v-.859h1.047v-1.719h.969v1.72h1.281v.858H84.1v3.907q0 .343.156.578.156.219.485.219.406 0 .656-.25l.297.718q-.407.407-1.172.407z" fill-rule="nonzero"/><path fill="#eee" d="M127.654 134.341h78.299v141.953h-78.3z" fill-rule="evenodd"/><path stroke="#595959" stroke-width="1" stroke-linejoin="round" stroke-linecap="butt" d="M127.654 134.341h78.299v141.953h-78.3z" fill-rule="evenodd"/><path fill="#000" d="M137.591 184.805h3.438q1.156 0 1.765.188.828.234 1.406.859.579.61.875 1.5.313.89.313 2.203 0 1.14-.281 1.984-.344 1.016-1 1.641-.485.469-1.313.734-.625.204-1.672.204h-3.531v-9.313zm1.875 1.578v6.172h1.406q.797 0 1.14-.094.454-.109.75-.375.313-.28.5-.906.188-.625.188-1.703t-.187-1.656q-.188-.578-.531-.907-.344-.328-.875-.437-.391-.094-1.547-.094h-.844zm9.078 3.047l-1.625-.297q.282-.969.938-1.437.672-.469 1.984-.469 1.203 0 1.781.281.579.281.813.719.25.437.25 1.594l-.016 2.078q0 .89.078 1.312.094.422.329.907h-1.766q-.078-.172-.172-.532l-.062-.203q-.47.438-.985.672-.515.219-1.11.219-1.046 0-1.64-.563-.594-.578-.594-1.437 0-.563.266-1.016.281-.453.766-.687.5-.235 1.422-.422 1.25-.235 1.734-.438v-.172q0-.515-.266-.734-.25-.219-.953-.219-.469 0-.734.188-.266.187-.438.656zm2.391 1.453q-.344.11-1.094.266-.734.156-.969.312-.343.25-.343.625t.281.657q.281.265.703.265.484 0 .922-.312.328-.235.422-.594.078-.219.078-.86v-.359zm9.866 3.235h-1.657v-.985q-.406.578-.968.86-.563.28-1.125.28-1.172 0-2-.937-.829-.937-.829-2.609 0-1.719.797-2.61.813-.89 2.047-.89 1.125 0 1.953.937v-3.359h1.782v9.313zm-4.75-3.516q0 1.078.296 1.562.422.704 1.204.704.609 0 1.046-.516.438-.531.438-1.578 0-1.156-.422-1.672t-1.078-.516q-.625 0-1.063.516-.421.5-.421 1.5zM137.654 226.118v-9.313h3.203q1.093 0 1.656.14.812.188 1.375.673.734.609 1.094 1.578.375.968.375 2.218 0 1.063-.25 1.891-.25.813-.641 1.344-.39.531-.86.844-.452.312-1.109.468-.64.157-1.484.157h-3.36zm1.234-1.094h1.984q.922 0 1.438-.172.531-.172.844-.484.437-.438.671-1.172.25-.75.25-1.797 0-1.469-.484-2.25-.469-.781-1.156-1.047-.5-.188-1.594-.188h-1.953v7.11zm12.86-1.078l1.187.14q-.281 1.047-1.047 1.625-.75.563-1.922.563-1.484 0-2.36-.906-.859-.922-.859-2.563 0-1.703.875-2.64.891-.938 2.282-.938 1.36 0 2.203.922.86.922.86 2.578v.312h-5.032q.062 1.11.625 1.704.562.593 1.406.593.64 0 1.078-.328.453-.344.703-1.062zm-3.75-1.844h3.765q-.078-.86-.437-1.281-.547-.657-1.407-.657-.797 0-1.328.532-.531.515-.594 1.406zm6.521 4.016v-9.313h1.14v9.313h-1.14zm3.258 0v-5.86h-1v-.875h1v-.719q0-.687.125-1.015.172-.438.578-.719.422-.281 1.172-.281.485 0 1.063.125l-.172.984q-.36-.062-.672-.062-.516 0-.734.234-.22.219-.22.828v.625h1.313v.875h-1.312v5.86h-1.14zm5.938-1.016l.156 1q-.484.11-.86.11-.624 0-.968-.204-.344-.203-.485-.515-.14-.329-.14-1.344v-3.89h-.828v-.876h.828v-1.672l1.14-.687v2.36h1.157v.874h-1.157v3.953q0 .485.063.625.062.141.187.22.141.077.391.077.203 0 .516-.031z" fill-rule="nonzero"/><path fill="#eee" d="M205.953 134.346h78.299V276.3h-78.3z" fill-rule="evenodd"/><path stroke="#595959" stroke-width="1" stroke-linejoin="round" stroke-linecap="butt" d="M205.953 134.346h78.299V276.3h-78.3z" fill-rule="evenodd"/><path fill="#000" d="M215.422 191.092l1.828-.172q.172.922.672 1.36.5.421 1.359.421.906 0 1.36-.375.468-.39.468-.906 0-.328-.203-.563-.188-.234-.672-.406-.328-.11-1.5-.406-1.516-.375-2.125-.922-.844-.766-.844-1.875 0-.703.39-1.313.407-.625 1.157-.953.766-.328 1.844-.328 1.75 0 2.625.781.89.766.937 2.047l-1.875.078q-.125-.718-.515-1.03-.39-.313-1.188-.313-.828 0-1.281.328-.297.218-.297.578 0 .328.266.562.36.313 1.734.641 1.375.312 2.031.656.657.344 1.016.953.375.594.375 1.485 0 .797-.453 1.5-.438.687-1.25 1.031-.813.344-2.016.344-1.765 0-2.718-.813-.938-.828-1.125-2.39zm9.358-4.625v-1.657h1.781v1.657h-1.781zm0 7.656v-6.735h1.781v6.735h-1.781zm3.078-1.922l1.781-.281q.11.531.453.797.36.265.985.265.703 0 1.047-.25.234-.172.234-.469 0-.203-.125-.343-.14-.125-.594-.235-2.156-.468-2.734-.875-.813-.547-.813-1.515 0-.875.688-1.469.703-.594 2.156-.594 1.39 0 2.063.453.672.438.922 1.328l-1.688.313q-.11-.39-.406-.594-.297-.219-.86-.219-.703 0-1.015.188-.203.14-.203.375 0 .187.187.312.235.188 1.656.516 1.438.313 2 .781.563.485.563 1.328 0 .922-.781 1.594-.782.672-2.297.672-1.375 0-2.188-.562-.797-.563-1.031-1.516zm11.131-4.813v1.422h-1.219v2.703q0 .829.032.97.031.14.156.234.125.078.297.078.25 0 .719-.172l.156 1.39q-.625.266-1.406.266-.485 0-.875-.156-.391-.172-.579-.422-.171-.266-.234-.703-.062-.313-.062-1.25v-2.938h-.813v-1.422h.813v-1.343l1.796-1.047v2.39h1.22zm5.251 4.594l1.766.297q-.344.969-1.078 1.484-.735.516-1.844.516-1.766 0-2.61-1.156-.671-.922-.671-2.313 0-1.687.875-2.625.89-.953 2.218-.953 1.516 0 2.375 1 .875.985.828 3.031h-4.468q.031.797.437 1.235.406.437 1.031.437.422 0 .704-.218.28-.235.437-.735zm.094-1.812q-.016-.766-.406-1.172-.375-.406-.922-.406-.578 0-.969.421-.375.438-.375 1.157h2.672zm5.115 3.953h-1.78v-6.735h1.655v.954q.422-.688.766-.891.344-.219.766-.219.61 0 1.172.328l-.547 1.563q-.453-.297-.844-.297-.375 0-.64.219-.25.203-.407.75-.14.531-.14 2.25v2.078zM215.953 226.123v-9.313h3.203q1.094 0 1.656.141.813.187 1.375.672.735.61 1.094 1.578.375.969.375 2.219 0 1.062-.25 1.89-.25.813-.64 1.344-.391.531-.86.844-.453.312-1.11.469-.64.156-1.484.156h-3.36zm1.234-1.094h1.985q.921 0 1.437-.172.531-.172.844-.484.437-.438.672-1.172.25-.75.25-1.797 0-1.469-.485-2.25-.468-.781-1.156-1.047-.5-.187-1.594-.187h-1.953v7.11zm12.86-1.078l1.187.14q-.281 1.047-1.047 1.626-.75.562-1.922.562-1.484 0-2.359-.906-.86-.922-.86-2.563 0-1.703.876-2.64.89-.938 2.28-.938 1.36 0 2.204.922.86.922.86 2.578v.313h-5.032q.063 1.11.625 1.703.563.594 1.406.594.641 0 1.079-.329.453-.343.703-1.062zm-3.75-1.844h3.765q-.078-.86-.437-1.281-.547-.656-1.406-.656-.797 0-1.329.531-.53.516-.593 1.406zm6.553 4.016v-6.735h1.031v.954q.734-1.11 2.14-1.11.61 0 1.11.219.516.219.766.578.265.344.359.844.063.312.063 1.11v4.14h-1.141v-4.094q0-.703-.14-1.047-.126-.344-.47-.547-.328-.218-.78-.218-.735 0-1.266.468-.532.453-.532 1.75v3.688h-1.14zm11.303 0v-9.313h1.218v3.828h4.844v-3.828h1.235v9.313h-1.235v-4.39h-4.844v4.39h-1.218zm13.828-.828q-.625.531-1.219.765-.578.22-1.25.22-1.125 0-1.718-.548-.594-.547-.594-1.39 0-.485.219-.891.234-.422.593-.672.375-.25.828-.375.329-.078 1.016-.172 1.375-.156 2.031-.39.016-.235.016-.297 0-.703-.328-.985-.438-.39-1.297-.39-.813 0-1.203.281-.375.281-.563 1l-1.11-.14q.142-.72.485-1.157.36-.453 1.016-.687.672-.235 1.531-.235.875 0 1.406.203.547.203.797.516.25.297.36.766.046.296.046 1.062v1.516q0 1.593.079 2.015.078.422.28.813h-1.187q-.172-.36-.234-.828zm-.094-2.563q-.625.266-1.86.438-.702.11-1 .234-.296.125-.452.375-.156.234-.156.531 0 .453.343.766.344.297 1.016.297.656 0 1.172-.281.515-.297.765-.797.172-.375.172-1.14v-.423zm7.506 2.563q-.625.531-1.218.765-.578.22-1.25.22-1.125 0-1.719-.548-.594-.547-.594-1.39 0-.485.219-.891.234-.422.594-.672.375-.25.828-.375.328-.078 1.015-.172 1.375-.156 2.032-.39.015-.235.015-.297 0-.703-.328-.985-.437-.39-1.297-.39-.812 0-1.203.281-.375.281-.562 1l-1.11-.14q.141-.72.485-1.157.36-.453 1.015-.687.672-.235 1.532-.235.875 0 1.406.203.547.203.797.516.25.297.36.766.046.296.046 1.062v1.516q0 1.593.078 2.015.078.422.281.813h-1.187q-.172-.36-.235-.828zm-.093-2.563q-.625.266-1.86.438-.703.11-1 .234-.297.125-.453.375-.156.234-.156.531 0 .453.344.766.343.297 1.015.297.657 0 1.172-.281.516-.297.766-.797.172-.375.172-1.14v-.423zm2.897 3.953l1.125.157q.062.515.375.75.437.328 1.171.328.782 0 1.22-.328.437-.313.577-.891.094-.344.094-1.453-.75.875-1.875.875-1.39 0-2.156-1-.75-1-.75-2.406 0-.97.344-1.782.359-.812 1.015-1.25.656-.453 1.563-.453 1.187 0 1.968.969v-.813h1.047v5.813q0 1.578-.328 2.234-.312.657-1.015 1.032-.688.39-1.704.39-1.203 0-1.953-.547-.734-.53-.718-1.625zm.953-4.047q0 1.313.515 1.922.532.61 1.328.61.797 0 1.329-.594.53-.61.53-1.906 0-1.235-.546-1.86-.547-.64-1.328-.64-.766 0-1.297.625-.531.625-.531 1.843z" fill-rule="nonzero"/><path fill="#eee" d="M284.252 134.346h78.3V276.3h-78.3z" fill-rule="evenodd"/><path stroke="#595959" stroke-width="1" stroke-linejoin="round" stroke-linecap="butt" d="M284.252 134.346h78.3V276.3h-78.3z" fill-rule="evenodd"/><path fill="#000" d="M298.018 195.28q-1.844 0-2.875-.938-1.032-.954-1.032-2.672v-5.219h1.875v5.156q0 .906.5 1.469.516.562 1.532.562 1.015 0 1.515-.562.516-.563.516-1.469v-5.156h1.89v5.203q0 1.719-1.015 2.672-1.016.953-2.906.953zm10.066-.157v-3.797q0-1.172-1.156-1.172-.907 0-1.438.75v4.219h-1.656v-6.281h1.656v.828q.297-.375.86-.672.562-.313 1.343-.313 1.032 0 1.532.547.5.531.5 1.453v4.438h-1.641zm6.404.156q-1.484 0-2.406-.937-.922-.938-.922-2.36t.922-2.36q.922-.937 2.406-.937.954 0 1.563.36.61.343.922.781l-1.094 1q-.453-.672-1.312-.672-.766 0-1.235.5-.469.5-.469 1.328 0 .813.47 1.328.468.5 1.234.5.843 0 1.312-.672l1.094 1q-.313.438-.922.797-.61.344-1.563.344zm3.714-.156v-8.672h1.656v8.672h-1.656zm6.325.156q-1.485 0-2.422-.906-.922-.922-.922-2.39 0-1.407.922-2.345.937-.953 2.328-.953 1.39 0 2.266.953.875.954.875 2.5v.375h-4.672q.078.594.531 1.032.469.422 1.281.422.39 0 .86-.157.484-.172.812-.468l.735 1.062q-.47.438-1.157.656-.687.22-1.437.22zm1.453-3.89q-.047-.626-.484-1-.422-.391-1.063-.391-.656 0-1.078.406-.406.39-.469.984h3.094zm8.204 3.734v-6.297l-1.437 1.469-1.063-1.094 2.735-2.75h1.609v8.672h-1.844zM300.314 225.843l-1.765-6.453-1.766 6.453h-1.078l-2.281-8h1.094l1.78 6.672 1.845-6.672h.828l1.828 6.672 1.765-6.672h1.11l-2.281 8h-1.079zm8.065 0v-.656q-.734.796-1.922.796-.875 0-1.453-.546-.578-.547-.578-1.375 0-.829.563-1.36.578-.547 1.468-.547 1.25 0 1.922.797v-1.047q0-.593-.422-.906-.406-.312-1.046-.312-1.016 0-1.782.796l-.422-.625q.922-.953 2.329-.953 1.062 0 1.64.516.594.516.594 1.437v3.985h-.89zm-1.61-.5q1.079 0 1.61-.719v-1.094q-.531-.718-1.61-.718-.624 0-1.03.359-.391.344-.391.906 0 .547.39.906.407.36 1.032.36zm6.137.64q-1.468 0-2.343-.906l.468-.656q.297.344.797.594.516.234 1.11.234.672 0 1.015-.281.36-.281.36-.703 0-.39-.375-.61-.375-.218-1.407-.468-.89-.172-1.359-.563-.453-.39-.453-1.047 0-.734.594-1.203.593-.469 1.578-.469 1.297 0 2.14.844l-.421.625q-.266-.312-.72-.516-.437-.218-1-.218-.609 0-.952.265-.344.25-.344.641 0 .344.39.547.391.203 1.422.422.875.203 1.329.625.453.406.453 1.093 0 .813-.625 1.282-.625.468-1.657.468zm5.58 0q-1.468 0-2.343-.906l.469-.656q.296.344.796.594.516.234 1.11.234.672 0 1.015-.281.36-.281.36-.703 0-.39-.375-.61-.375-.218-1.406-.468-.891-.172-1.36-.563-.453-.39-.453-1.047 0-.734.594-1.203.594-.469 1.578-.469 1.297 0 2.14.844l-.421.625q-.266-.312-.72-.516-.437-.218-1-.218-.608 0-.952.265-.344.25-.344.641 0 .344.39.547.391.203 1.423.422.875.203 1.328.625.453.406.453 1.093 0 .813-.625 1.282-.625.468-1.656.468zm6.362 0q-1.313 0-2.14-.843-.813-.86-.813-2.203 0-1.282.812-2.157.828-.875 2.047-.875 1.25 0 2.016.86.765.86.765 2.25v.218h-4.687q.047.891.64 1.454.594.562 1.438.562 1.062 0 1.797-.734l.422.578q-.875.89-2.297.89zm1.797-3.406q0-.797-.532-1.36-.515-.577-1.375-.577-.796 0-1.343.578-.532.562-.547 1.36h3.797zm6.256 3.266v-3.797q0-.766-.36-1.047-.343-.297-.937-.297-.5 0-.985.281-.484.266-.734.625v4.235h-.89v-5.797h.89v.844q.375-.438.922-.703.547-.282 1.14-.282 1.86 0 1.86 1.875v4.063h-.906zm6.33 0v-.656q-.734.796-1.921.796-.875 0-1.453-.546-.579-.547-.579-1.375 0-.829.563-1.36.578-.547 1.469-.547 1.25 0 1.922.797v-1.047q0-.593-.422-.906-.407-.312-1.047-.312-1.016 0-1.781.796l-.422-.625q.922-.953 2.328-.953 1.062 0 1.64.516.594.516.594 1.437v3.985h-.89zm-1.609-.5q1.078 0 1.61-.719v-1.094q-.532-.718-1.61-.718-.625 0-1.031.359-.39.344-.39.906 0 .547.39.906.406.36 1.031.36zm7.934.5v-.656q-.735.796-1.922.796-.875 0-1.453-.546-.579-.547-.579-1.375 0-.829.563-1.36.578-.547 1.469-.547 1.25 0 1.922.797v-1.047q0-.593-.422-.906-.407-.312-1.047-.312-1.016 0-1.781.796l-.422-.625q.922-.953 2.328-.953 1.062 0 1.64.516.594.516.594 1.437v3.985h-.89zm-1.61-.5q1.078 0 1.61-.719v-1.094q-.532-.718-1.61-.718-.625 0-1.031.359-.39.344-.39.906 0 .547.39.906.406.36 1.031.36zm4.309.5v-5.797h.89v.937q.813-1.062 1.938-1.062v.937l-.36-.046q-.406 0-.906.296-.484.297-.672.625v4.11h-.89z" fill-rule="nonzero"/><path fill="#eee" d="M519.15 134.346h78.299V276.3h-78.3z" fill-rule="evenodd"/><path stroke="#595959" stroke-width="1" stroke-linejoin="round" stroke-linecap="butt" d="M519.15 134.346h78.299V276.3h-78.3z" fill-rule="evenodd"/><path fill="#000" d="M530.337 212.43q-.437 0-.75-.297-.297-.312-.297-.75 0-.437.297-.734.313-.312.75-.312.438 0 .734.312.313.297.313.734 0 .438-.313.75-.296.297-.734.297zm4.291 0q-.437 0-.75-.297-.297-.312-.297-.75 0-.437.297-.734.313-.312.75-.312.438 0 .734.312.313.297.313.734 0 .438-.313.75-.296.297-.734.297zm4.291 0q-.437 0-.75-.297-.297-.312-.297-.75 0-.437.297-.734.313-.312.75-.312.438 0 .734.312.313.297.313.734 0 .438-.313.75-.296.297-.734.297zm4.29 0q-.437 0-.75-.297-.296-.312-.296-.75 0-.437.297-.734.312-.312.75-.312.437 0 .734.312.313.297.313.734 0 .438-.313.75-.297.297-.734.297zm4.292 0q-.438 0-.75-.297-.297-.312-.297-.75 0-.437.297-.734.312-.312.75-.312.437 0 .734.312.313.297.313.734 0 .438-.313.75-.297.297-.734.297z" fill-rule="nonzero"/><path fill="#eee" d="M362.551 134.346h78.3V276.3h-78.3z" fill-rule="evenodd"/><path stroke="#595959" stroke-width="1" stroke-linejoin="round" stroke-linecap="butt" d="M362.551 134.346h78.3V276.3h-78.3z" fill-rule="evenodd"/><path fill="#000" d="M376.614 175.295q-1.985 0-3.313-1.266-1.312-1.266-1.312-3.234 0-1.985 1.312-3.235 1.313-1.25 3.313-1.25 2.36 0 3.578 1.938l-1.531.828q-.297-.453-.829-.781-.515-.344-1.218-.344-1.188 0-1.953.812-.766.813-.766 2.032 0 1.265.781 2.062.781.781 1.938.781.578 0 1.078-.203.5-.203.765-.453v-1.047h-2.296v-1.609h4.14v3.328q-1.469 1.64-3.687 1.64zm5.346-.172v-6.281h1.656v.859q.344-.422.875-.719.547-.297 1.125-.297v1.61l-.453-.032q-.437 0-.89.204-.454.203-.657.515v4.14h-1.656zm8.58 0v-.656q-.688.812-2 .812-.907 0-1.548-.578-.625-.578-.625-1.5t.594-1.469q.61-.562 1.578-.562 1.36 0 2 .765v-.843q0-.485-.39-.766-.375-.281-.985-.281-1.047 0-1.843.734l-.625-1.11q1.14-.984 2.75-.984 1.328 0 2.03.625.704.61.704 1.75v4.063h-1.64zm-1.329-.969q.906 0 1.328-.547v-.765q-.422-.547-1.328-.547-.5 0-.844.25-.343.234-.343.687 0 .453.343.688.344.234.844.234zm9.034.969v-3.797q0-1.172-1.156-1.172-.906 0-1.438.75v4.219h-1.656v-6.281h1.656v.828q.297-.375.86-.672.562-.313 1.344-.313 1.03 0 1.53.547.5.531.5 1.453v4.438h-1.64zm7.795 0v-.813q-.781.97-1.937.97-1.25 0-2.016-.892-.765-.906-.765-2.406 0-1.469.765-2.375.766-.922 2.016-.922 1.172 0 1.937.97v-3.204h1.657v8.672h-1.657zm-1.437-1.313q.422 0 .812-.203.407-.203.625-.515v-2.22q-.218-.312-.625-.515-.39-.203-.812-.203-.703 0-1.14.516-.438.5-.438 1.312 0 .797.422 1.313.437.515 1.156.515zM379.942 191.123v-6.078l-2.438 6.078h-.812l-2.438-6.078v6.078h-1.843v-8.672h2.578l2.11 5.234 2.108-5.234h2.594v8.672h-1.86zm6.74.156q-1.454 0-2.392-.937-.921-.938-.921-2.36 0-1.437.921-2.36.938-.937 2.391-.937t2.39.938q.938.922.938 2.36 0 1.437-.937 2.374-.938.922-2.39.922zm0-1.469q.718 0 1.155-.515.453-.516.453-1.313 0-.781-.453-1.297-.437-.53-1.156-.53-.687 0-1.156.5-.453.5-.453 1.327 0 .828.453 1.328.469.5 1.156.5zm6.837 1.47q-1.781 0-1.781-1.72v-3.28h-1.032v-1.438h1.032v-1.72h1.672v1.72h1.265v1.437h-1.265v2.844q0 .297.14.5.156.187.422.187.39 0 .578-.187l.344 1.25q-.422.406-1.375.406zm6.645-.157v-3.828q0-1.14-1.156-1.14-.86 0-1.437.75v4.218h-1.657v-8.672h1.657v3.219q.297-.375.859-.672.578-.313 1.36-.313 1.03 0 1.53.532.5.53.5 1.453v4.453h-1.656zm6.434.156q-1.485 0-2.422-.906-.922-.922-.922-2.39 0-1.407.922-2.345.937-.953 2.328-.953 1.39 0 2.266.953.875.954.875 2.5v.375h-4.672q.078.594.531 1.032.469.422 1.281.422.39 0 .86-.157.484-.172.812-.468l.735 1.062q-.47.438-1.157.656-.687.22-1.437.22zm1.453-3.89q-.047-.626-.484-1-.422-.391-1.063-.391-.656 0-1.078.406-.406.39-.469.984h3.094zm2.964 3.734v-6.281h1.656v.859q.344-.422.875-.719.547-.297 1.125-.297v1.61l-.453-.032q-.437 0-.89.204-.454.203-.657.515v4.14h-1.656zM375.145 223.123l-3.484-8.672h1.25l2.921 7.484 2.922-7.484h1.235l-3.5 8.672h-1.344zm6.145 0v-8.672h.984v8.672h-.984zm3.483-7.172q-.25 0-.453-.188-.188-.187-.188-.468 0-.266.188-.453.203-.204.453-.204.281 0 .469.204.203.187.203.453 0 .281-.203.468-.188.188-.469.188zm-.484 7.172v-6.281h.984v6.28h-.984zm4.998.156q-1.609 0-2.546-.984l.515-.703q.313.359.86.625.562.265 1.203.265.734 0 1.109-.297.375-.312.375-.78 0-.407-.406-.642-.406-.25-1.531-.515-.954-.188-1.454-.61-.5-.421-.5-1.14 0-.797.641-1.297.64-.516 1.703-.516 1.422 0 2.328.907l-.453.687q-.281-.344-.781-.562-.484-.235-1.094-.235-.656 0-1.031.297-.36.281-.36.688 0 .375.407.609.422.219 1.547.453.953.219 1.437.672.5.437.5 1.187 0 .86-.687 1.375-.672.516-1.782.516zm6.198 0q-1.61 0-2.547-.984l.516-.703q.312.359.86.625.562.265 1.202.265.735 0 1.11-.297.375-.312.375-.78 0-.407-.407-.642-.406-.25-1.53-.515-.954-.188-1.454-.61-.5-.421-.5-1.14 0-.797.64-1.297.641-.516 1.704-.516 1.422 0 2.328.907l-.453.687q-.282-.344-.782-.562-.484-.235-1.093-.235-.657 0-1.032.297-.359.281-.359.688 0 .375.406.609.422.219 1.547.453.953.219 1.438.672.5.437.5 1.187 0 .86-.688 1.375-.672.516-1.781.516zm4.682-7.328q-.25 0-.453-.188-.188-.187-.188-.468 0-.266.188-.453.203-.204.453-.204.281 0 .469.204.203.187.203.453 0 .281-.203.468-.188.188-.47.188zm-.484 7.172v-6.281h.984v6.28h-.984zm7.248 0v-4.11q0-.828-.39-1.14-.375-.313-1.016-.313-.547 0-1.078.297-.531.281-.781.672v4.594h-.985v-6.281h.985v.906q.406-.469.984-.766.594-.297 1.25-.297 2 0 2 2.032v4.406h-.969zm5.625 2.547q-.812 0-1.406-.203-.578-.188-1.125-.735l.484-.719q.391.47.875.657.5.187 1.172.187.953 0 1.485-.5.531-.5.531-1.375v-.906q-.344.484-.906.812-.547.313-1.203.313-1.282 0-2.047-.89-.75-.907-.75-2.36 0-1.516.765-2.39.782-.876 2.032-.876 1.296 0 2.109 1.11v-.953h.969v6.093q0 1.328-.782 2.032-.78.703-2.203.703zm.141-3.328q.531 0 1.047-.282.531-.297.828-.75v-2.734q-.297-.453-.828-.734-.531-.282-1.047-.282-.922 0-1.469.672-.547.656-.547 1.719 0 1.078.563 1.734.562.657 1.453.657zm7.822.937q-1.422 0-2.312-.922-.891-.922-.891-2.375 0-1.39.875-2.344.89-.953 2.219-.953 1.36 0 2.187.938.828.937.828 2.437v.235h-5.078q.047.968.688 1.578.656.594 1.578.594 1.14 0 1.937-.782l.47.625q-.97.97-2.5.97zm1.953-3.687q0-.875-.578-1.485-.578-.61-1.5-.61-.86 0-1.453.61-.578.61-.594 1.485h4.125zm6.957 3.53v-4.109q0-.828-.39-1.14-.375-.313-1.016-.313-.547 0-1.078.297-.531.281-.781.672v4.594h-.985v-6.281h.985v.906q.406-.469.984-.766.594-.297 1.25-.297 2 0 2 2.032v4.406h-.969z" fill-rule="nonzero"/><path fill="#eee" d="M440.85 134.346h78.3V276.3h-78.3z" fill-rule="evenodd"/><path stroke="#595959" stroke-width="1" stroke-linejoin="round" stroke-linecap="butt" d="M440.85 134.346h78.3V276.3h-78.3z" fill-rule="evenodd"/><path fill="#000" d="M452.038 212.43q-.438 0-.75-.297-.297-.312-.297-.75 0-.437.297-.734.312-.312.75-.312.437 0 .734.312.313.297.313.734 0 .438-.313.75-.297.297-.734.297zm4.29 0q-.437 0-.75-.297-.296-.312-.296-.75 0-.437.297-.734.312-.312.75-.312.437 0 .734.312.313.297.313.734 0 .438-.313.75-.297.297-.734.297zm4.292 0q-.438 0-.75-.297-.297-.312-.297-.75 0-.437.297-.734.312-.312.75-.312.437 0 .734.312.313.297.313.734 0 .438-.313.75-.297.297-.734.297zm4.29 0q-.437 0-.75-.297-.296-.312-.296-.75 0-.437.297-.734.312-.312.75-.312.437 0 .734.312.313.297.313.734 0 .438-.313.75-.297.297-.734.297zm4.292 0q-.438 0-.75-.297-.297-.312-.297-.75 0-.437.297-.734.312-.312.75-.312.437 0 .734.312.313.297.313.734 0 .438-.313.75-.297.297-.734.297z" fill-rule="nonzero"/><path fill="#eee" d="M597.449 134.346h78.3V276.3h-78.3z" fill-rule="evenodd"/><path stroke="#595959" stroke-width="1" stroke-linejoin="round" stroke-linecap="butt" d="M597.449 134.346h78.3V276.3h-78.3z" fill-rule="evenodd"/><path fill="#000" d="M611.511 178.295q-1.984 0-3.312-1.266-1.313-1.266-1.313-3.234 0-1.985 1.313-3.235 1.312-1.25 3.312-1.25 2.36 0 3.578 1.938l-1.53.828q-.298-.453-.829-.781-.516-.344-1.219-.344-1.187 0-1.953.812-.765.813-.765 2.032 0 1.265.78 2.062.782.781 1.938.781.578 0 1.078-.203.5-.203.766-.453v-1.047h-2.297v-1.609h4.14v3.328q-1.468 1.64-3.687 1.64zm5.347-.172v-6.281h1.656v.859q.344-.422.875-.719.547-.297 1.125-.297v1.61l-.453-.032q-.438 0-.89.204-.454.203-.657.515v4.14h-1.656zm8.579 0v-.656q-.688.812-2 .812-.906 0-1.547-.578-.625-.578-.625-1.5t.594-1.469q.61-.562 1.578-.562 1.36 0 2 .765v-.843q0-.485-.39-.766-.376-.281-.985-.281-1.047 0-1.844.734l-.625-1.11q1.14-.984 2.75-.984 1.328 0 2.031.625.704.61.704 1.75v4.063h-1.641zm-1.328-.969q.906 0 1.328-.547v-.765q-.422-.547-1.328-.547-.5 0-.844.25-.344.234-.344.687 0 .453.344.688.344.234.844.234zm9.034.969v-3.797q0-1.172-1.156-1.172-.907 0-1.438.75v4.219h-1.656v-6.281h1.656v.828q.297-.375.86-.672.562-.313 1.343-.313 1.031 0 1.531.547.5.531.5 1.453v4.438h-1.64zm7.795 0v-.813q-.781.97-1.938.97-1.25 0-2.015-.892-.766-.906-.766-2.406 0-1.469.766-2.375.765-.922 2.015-.922 1.172 0 1.938.97v-3.204h1.656v8.672h-1.656zm-1.438-1.313q.422 0 .813-.203.406-.203.625-.515v-2.22q-.219-.312-.625-.515-.39-.203-.813-.203-.703 0-1.14.516-.438.5-.438 1.312 0 .797.422 1.313.438.515 1.156.515zM614.84 194.123v-6.078l-2.438 6.078h-.813l-2.437-6.078v6.078h-1.844v-8.672h2.578l2.11 5.234 2.109-5.234h2.594v8.672h-1.86zm6.739.156q-1.453 0-2.391-.937-.922-.938-.922-2.36 0-1.437.922-2.36.938-.937 2.39-.937 1.454 0 2.391.938.938.922.938 2.36 0 1.437-.938 2.374-.937.922-2.39.922zm0-1.469q.718 0 1.156-.515.453-.516.453-1.313 0-.781-.453-1.297-.438-.53-1.156-.53-.688 0-1.157.5-.453.5-.453 1.327 0 .828.453 1.328.47.5 1.157.5zm6.837 1.47q-1.78 0-1.78-1.72v-3.28h-1.032v-1.438h1.031v-1.72h1.672v1.72h1.266v1.437h-1.266v2.844q0 .297.14.5.157.187.423.187.39 0 .578-.187l.343 1.25q-.421.406-1.375.406zm6.646-.157v-3.828q0-1.14-1.156-1.14-.86 0-1.438.75v4.218h-1.656v-8.672h1.656v3.219q.297-.375.86-.672.578-.313 1.359-.313 1.031 0 1.531.532.5.53.5 1.453v4.453h-1.656zm6.433.156q-1.484 0-2.421-.906-.922-.922-.922-2.39 0-1.407.922-2.345.937-.953 2.328-.953 1.39 0 2.265.953.875.954.875 2.5v.375h-4.672q.079.594.532 1.032.468.422 1.28.422.392 0 .86-.157.485-.172.813-.468l.734 1.062q-.469.438-1.156.656-.688.22-1.438.22zm1.454-3.89q-.047-.626-.485-1-.422-.391-1.062-.391-.657 0-1.078.406-.407.39-.47.984h3.095zm2.964 3.734v-6.281h1.656v.859q.344-.422.875-.719.547-.297 1.125-.297v1.61l-.453-.032q-.438 0-.89.204-.454.203-.657.515v4.14h-1.656zm6.782-7.469q0 .734-.375 1.36-.375.624-.969 1.046l-.718-.578q.312-.14.609-.515.313-.375.39-.72-.077.048-.234.048-.375 0-.64-.25-.25-.266-.25-.688 0-.422.297-.719.296-.312.718-.312.5 0 .828.375.344.36.344.953zm3.68 7.625q-.812 0-1.562-.25-.75-.266-1.25-.719l.718-1.156q.375.344 1 .594t1.172.25q1.063 0 1.063-.672 0-.25-.282-.375-.28-.14-.687-.234l-.89-.188q-1.876-.39-1.876-1.86 0-.874.72-1.421.718-.563 1.858-.563 1.47 0 2.532.86l-.672 1.125q-.281-.297-.781-.5-.485-.219-1.079-.219-.453 0-.718.187-.266.172-.266.438 0 .234.266.36.281.109.687.202.422.079.906.188.485.11.891.328.422.219.688.594.28.375.28 1.015 0 .907-.75 1.47-.734.546-1.968.546zM607.308 210.123v-8.672h4.563q1.125 0 1.812.61.688.609.688 1.593 0 .781-.422 1.328-.422.531-1.078.672.672.094 1.172.703.5.594.5 1.422 0 1.047-.688 1.703-.672.64-1.844.64h-4.703zm4.156-5.203q.47 0 .735-.25.281-.266.281-.688 0-.406-.281-.672-.266-.265-.735-.265h-2.312v1.875h2.312zm.063 3.61q.531 0 .828-.267.297-.265.297-.734 0-.422-.297-.719-.281-.297-.828-.297h-2.375v2.016h2.375zm4.57 1.593v-6.281h1.657v.859q.344-.422.875-.719.547-.297 1.125-.297v1.61l-.453-.032q-.438 0-.89.204-.454.203-.657.515v4.14h-1.656zm7.72.156q-1.452 0-2.39-.937-.922-.938-.922-2.36 0-1.437.922-2.36.938-.937 2.39-.937 1.454 0 2.391.938.938.922.938 2.36 0 1.437-.938 2.374-.937.922-2.39.922zm0-1.469q.72 0 1.157-.515.453-.516.453-1.313 0-.781-.453-1.297-.437-.53-1.156-.53-.688 0-1.156.5-.454.5-.454 1.327 0 .828.454 1.328.468.5 1.156.5zm6.839 1.47q-1.782 0-1.782-1.72v-3.28h-1.03v-1.438h1.03v-1.72h1.672v1.72h1.266v1.437h-1.266v2.844q0 .297.14.5.157.187.423.187.39 0 .578-.187l.344 1.25q-.422.406-1.375.406zm6.645-.157v-3.828q0-1.14-1.156-1.14-.86 0-1.438.75v4.218h-1.656v-8.672h1.656v3.219q.297-.375.86-.672.578-.313 1.36-.313 1.03 0 1.53.532.5.53.5 1.453v4.453h-1.656zm6.434.156q-1.485 0-2.422-.906-.922-.922-.922-2.39 0-1.407.922-2.345.937-.953 2.328-.953 1.39 0 2.265.953.875.954.875 2.5v.375h-4.671q.078.594.53 1.032.47.422 1.282.422.39 0 .86-.157.484-.172.812-.468l.734 1.062q-.468.438-1.156.656-.687.22-1.437.22zm1.453-3.89q-.047-.626-.485-1-.422-.391-1.062-.391-.656 0-1.078.406-.407.39-.47.984h3.095zm2.964 3.734v-6.281h1.656v.859q.344-.422.875-.719.547-.297 1.125-.297v1.61l-.453-.032q-.438 0-.89.204-.454.203-.657.515v4.14h-1.656zM613.605 242.123v-3.985h-5.062v3.985h-1.079v-8.672h1.079v3.734h5.062v-3.734h1.078v8.672h-1.078zm6.146.156q-1.422 0-2.313-.922-.89-.922-.89-2.375 0-1.39.875-2.344.89-.953 2.219-.953 1.359 0 2.187.938.828.937.828 2.437v.235h-5.078q.047.968.688 1.578.656.594 1.578.594 1.14 0 1.937-.782l.469.625q-.969.97-2.5.97zm1.953-3.687q0-.875-.578-1.485-.578-.61-1.5-.61-.86 0-1.453.61-.578.61-.594 1.485h4.125zm5.55 3.687q-1.421 0-2.312-.922-.89-.922-.89-2.375 0-1.39.875-2.344.89-.953 2.218-.953 1.36 0 2.188.938.828.937.828 2.437v.235h-5.078q.047.968.687 1.578.657.594 1.578.594 1.141 0 1.938-.782l.469.625q-.97.97-2.5.97zm1.954-3.687q0-.875-.578-1.485-.578-.61-1.5-.61-.86 0-1.453.61-.579.61-.594 1.485h4.125zm2.707 3.53v-6.28h.984v1.015q.875-1.14 2.094-1.14v1l-.391-.047q-.437 0-.984.328-.532.312-.72.672v4.453h-.983zm4.398 0v-8.671h.984v8.672h-.984zm5.842.157q-1.421 0-2.312-.922-.89-.922-.89-2.375 0-1.39.874-2.344.89-.953 2.219-.953 1.36 0 2.188.938.828.937.828 2.437v.235h-5.078q.046.968.687 1.578.656.594 1.578.594 1.14 0 1.938-.782l.468.625q-.968.97-2.5.97zm1.954-3.687q0-.875-.579-1.485-.578-.61-1.5-.61-.859 0-1.453.61-.578.61-.593 1.485h4.125zm6.956 3.53v-4.109q0-.828-.39-1.14-.375-.313-1.016-.313-.547 0-1.078.297-.531.281-.781.672v4.594h-.985v-6.281h.985v.906q.406-.469.984-.766.594-.297 1.25-.297 2 0 2 2.032v4.406h-.969z" fill-rule="nonzero"/><path fill="#eee" d="M675.748 134.346h78.3V276.3h-78.3z" fill-rule="evenodd"/><path stroke="red" stroke-width="3" stroke-linejoin="round" stroke-linecap="butt" d="M675.748 134.346h78.3V276.3h-78.3z" fill-rule="evenodd"/><path fill="#000" d="M691.592 186.123l-.531-1.469h-3.72l-.546 1.469h-2.11l3.344-8.672h2.328l3.329 8.672h-2.094zm-2.39-6.828l-1.36 3.734h2.703l-1.344-3.734zm9.725 6.828v-3.797q0-1.172-1.156-1.172-.907 0-1.438.75v4.219h-1.656v-6.281h1.656v.828q.297-.375.86-.672.562-.313 1.343-.313 1.032 0 1.532.547.5.531.5 1.453v4.438h-1.641zm7.717 0v-3.797q0-1.172-1.156-1.172-.907 0-1.438.75v4.219h-1.656v-6.281h1.656v.828q.297-.375.86-.672.562-.313 1.343-.313 1.031 0 1.531.547.5.531.5 1.453v4.438h-1.64zm6.389.156q-1.453 0-2.39-.937-.923-.938-.923-2.36 0-1.437.922-2.36.938-.937 2.39-.937 1.454 0 2.391.938.938.922.938 2.36 0 1.437-.938 2.374-.937.922-2.39.922zm0-1.469q.718 0 1.156-.515.453-.516.453-1.313 0-.781-.453-1.297-.438-.53-1.156-.53-.688 0-1.157.5-.453.5-.453 1.327 0 .828.453 1.328.47.5 1.157.5zm4.76 2.282q.203.109.515.109.672 0 .875-.453l.234-.531-2.546-6.375h1.765l1.64 4.375 1.641-4.375h1.782l-2.953 7.312q-.36.875-.97 1.188-.609.312-1.405.328-.454 0-.829-.094l.25-1.484zm7.634-7.922q-.407 0-.704-.282-.28-.296-.28-.703 0-.422.28-.703.297-.281.704-.281.406 0 .687.281.297.281.297.703 0 .407-.297.703-.281.282-.687.282zm-.829 6.953v-6.281h1.657v6.28h-1.657zm7.622 0v-3.797q0-1.172-1.156-1.172-.906 0-1.437.75v4.219h-1.657v-6.281h1.657v.828q.297-.375.86-.672.562-.313 1.343-.313 1.031 0 1.531.547.5.531.5 1.453v4.438h-1.64zm6.046 2.547q-.813 0-1.47-.219-.64-.203-1.234-.719l.75-1.187q.688.781 1.954.781.828 0 1.28-.422.454-.422.454-1.172v-.64q-.797 1-1.938 1-1.265 0-2.015-.86-.75-.875-.75-2.344 0-1.453.734-2.328.75-.875 2.031-.875 1.188 0 1.938.97v-.813h1.656v5.859q0 1.422-.89 2.187-.875.782-2.5.782zm.312-4.063q.422 0 .813-.203.39-.203.609-.5v-2.031q-.219-.313-.61-.516-.39-.203-.812-.203-.703 0-1.14.453-.438.453-.438 1.281 0 .813.437 1.266.438.453 1.141.453zM691.592 202.123l-.531-1.469h-3.72l-.546 1.469h-2.11l3.344-8.672h2.328l3.329 8.672h-2.094zm-2.39-6.828l-1.36 3.734h2.703l-1.344-3.734zm9.725 6.828v-.797q-.844.953-2.219.953-1.031 0-1.531-.516-.5-.53-.5-1.453v-4.468h1.656v3.812q0 1.156 1.156 1.156.844 0 1.438-.718v-4.25h1.64v6.28h-1.64zm7.717 0v-3.797q0-1.172-1.156-1.172-.907 0-1.438.75v4.219h-1.656v-6.281h1.656v.828q.297-.375.86-.672.562-.313 1.343-.313 1.031 0 1.531.547.5.531.5 1.453v4.438h-1.64zm5.576.156q-1.781 0-1.781-1.719v-3.28h-1.031v-1.438h1.031v-1.72h1.672v1.72h1.265v1.437h-1.265v2.844q0 .297.14.5.157.187.422.187.391 0 .578-.187l.344 1.25q-.422.406-1.375.406zM685.764 234.123v-8.672h2.968q1.97 0 3.204 1.234 1.234 1.22 1.234 3.11t-1.25 3.11q-1.234 1.218-3.188 1.218h-2.968zm2.968-.969q1.47 0 2.391-.922.938-.937.938-2.437 0-1.516-.922-2.438-.907-.937-2.407-.937h-1.89v6.734h1.89zm9.158 1.125q-1.422 0-2.312-.922-.89-.922-.89-2.375 0-1.39.874-2.344.89-.953 2.219-.953 1.36 0 2.187.938.828.937.828 2.437v.235h-5.078q.047.968.688 1.578.656.594 1.578.594 1.14 0 1.937-.782l.47.625q-.97.97-2.5.97zm1.953-3.687q0-.875-.578-1.485-.578-.61-1.5-.61-.86 0-1.453.61-.578.61-.594 1.485h4.125zm2.707 3.53v-8.671h.985v8.672h-.985zm3.28 0v-5.421h-1.047v-.86h1.047v-.484q0-.969.485-1.5.484-.531 1.328-.531.797 0 1.328.484l-.406.625q-.329-.312-.766-.312-1 0-1 1.234v.485h1.281v.859H706.8v5.422h-.969zm5.085.157q-1.391 0-1.391-1.469v-4.109h-1.047v-.86h1.047v-1.718h.969v1.719h1.281v.859h-1.281v3.906q0 .344.156.578.156.22.484.22.407 0 .657-.25l.296.718q-.406.406-1.171.406zm2.027-.156v-.75l3.47-4.672h-3.47v-.86h4.735v.75l-3.485 4.688h3.532v.844h-4.782zm7.072-7.172q-.25 0-.453-.188-.187-.187-.187-.468 0-.266.187-.453.203-.204.453-.204.282 0 .47.204.202.187.202.453 0 .281-.203.468-.187.188-.469.188zm-.484 7.172v-6.281h.984v6.28h-.984zm3.483-7.172q-.25 0-.453-.188-.187-.187-.187-.468 0-.266.187-.453.203-.204.453-.204.282 0 .47.204.202.187.202.453 0 .281-.203.468-.187.188-.469.188zm-1.359 9.719q-.484 0-.781-.125-.297-.11-.594-.344l.344-.734q.406.39.906.39 1 0 1-1.125v-6.89h.984v6.89q0 .938-.484 1.438t-1.375.5zm3.874-2.547v-8.672h.984v8.672h-.984z" fill-rule="nonzero"/><path fill="#eee" d="M832.346 134.346h78.3V276.3h-78.3z" fill-rule="evenodd"/><path stroke="#595959" stroke-width="1" stroke-linejoin="round" stroke-linecap="butt" d="M832.346 134.346h78.3V276.3h-78.3z" fill-rule="evenodd"/><path fill="#000" d="M846.112 191.28q-1.844 0-2.875-.938-1.031-.954-1.031-2.672v-5.219h1.875v5.156q0 .906.5 1.469.515.562 1.531.562t1.516-.562q.515-.563.515-1.469v-5.156h1.89v5.203q0 1.719-1.015 2.672-1.015.953-2.906.953zm10.066-.157v-3.797q0-1.172-1.156-1.172-.906 0-1.437.75v4.219h-1.657v-6.281h1.657v.828q.297-.375.86-.672.562-.313 1.343-.313 1.031 0 1.531.547.5.531.5 1.453v4.438h-1.64zm6.405.156q-1.484 0-2.406-.937-.922-.938-.922-2.36t.922-2.36q.922-.937 2.406-.937.953 0 1.562.36.61.343.922.781l-1.093 1q-.454-.672-1.313-.672-.766 0-1.234.5-.47.5-.47 1.328 0 .813.47 1.328.468.5 1.234.5.844 0 1.313-.672l1.093 1q-.312.438-.922.797-.609.344-1.562.344zm3.713-.156v-8.672h1.656v8.672h-1.656zm6.325.156q-1.484 0-2.422-.906-.922-.922-.922-2.39 0-1.407.922-2.345.938-.953 2.328-.953 1.391 0 2.266.953.875.954.875 2.5v.375h-4.672q.078.594.531 1.032.47.422 1.282.422.39 0 .86-.157.483-.172.812-.468l.734 1.062q-.469.438-1.156.656-.688.22-1.438.22zm1.453-3.89q-.047-.626-.484-1-.422-.391-1.063-.391-.656 0-1.078.406-.406.39-.468.984h3.093zm6.173 3.734v-1.438q3.063-2.297 3.828-3.093.766-.797.766-1.5 0-.5-.39-.813-.391-.312-1.016-.312-1.36 0-2.328 1l-1.047-1.235q.625-.734 1.515-1.062.907-.344 1.813-.344 1.469 0 2.39.766.938.765.938 2 0 .984-.797 2.015-.781 1.031-2.687 2.39h3.547v1.626h-6.532zM848.503 223.123v-3.985h-5.063v3.985h-1.078v-8.672h1.078v3.734h5.063v-3.734h1.078v8.672h-1.078zm7.24 0v-.719q-.798.875-2.079.875-.953 0-1.578-.594-.625-.609-.625-1.484 0-.906.61-1.484.624-.579 1.593-.579 1.344 0 2.078.844v-1.125q0-.64-.453-.984t-1.14-.344q-1.11 0-1.922.875l-.453-.672q1-1.047 2.5-1.047 1.171 0 1.796.563.641.562.641 1.562v4.313h-.969zm-1.735-.547q1.156 0 1.734-.781v-1.188q-.578-.765-1.734-.765-.688 0-1.125.39-.422.375-.422.985 0 .593.422.984.437.375 1.125.375zm8.758.547v-.719q-.797.875-2.078.875-.953 0-1.578-.594-.625-.609-.625-1.484 0-.906.61-1.484.624-.579 1.593-.579 1.344 0 2.078.844v-1.125q0-.64-.453-.984t-1.14-.344q-1.11 0-1.922.875l-.454-.672q1-1.047 2.5-1.047 1.172 0 1.797.563.64.562.64 1.562v4.313h-.968zm-1.734-.547q1.156 0 1.734-.781v-1.188q-.578-.765-1.734-.765-.688 0-1.125.39-.422.375-.422.985 0 .593.422.984.437.375 1.125.375zm4.82.547v-6.281h.985v1.015q.875-1.14 2.094-1.14v1l-.39-.047q-.438 0-.985.328-.532.312-.719.672v4.453h-.984zm4.399 0v-8.672h.984v8.672h-.984zm5.842.156q-1.421 0-2.312-.922-.89-.922-.89-2.375 0-1.39.874-2.344.891-.953 2.22-.953 1.358 0 2.187.938.828.937.828 2.437v.235h-5.078q.046.968.687 1.578.656.594 1.578.594 1.14 0 1.938-.782l.468.625q-.968.97-2.5.97zm1.954-3.687q0-.875-.579-1.485-.578-.61-1.5-.61-.859 0-1.453.61-.578.61-.593 1.485h4.125zm10.284 3.53v-4.265q0-1.297-1.156-1.297-.484 0-.953.297-.453.281-.703.656v4.61h-.969v-4.266q0-1.297-1.172-1.297-.468 0-.937.297-.453.297-.703.672v4.594h-.985v-6.281h.985v.906q.218-.375.828-.719t1.203-.344q.719 0 1.125.344.422.328.562.828.329-.5.922-.828.594-.344 1.188-.344 1.75 0 1.75 1.907v4.53h-.985z" fill-rule="nonzero"/><path fill="#000" fill-opacity="0" d="M895.811 293.118c0 11.256-16.574 22.051-46.076 30.01-29.503 7.96-69.516 12.431-111.239 12.431H638.255c-41.723 0-81.737 4.471-111.239 12.43-29.502 7.96-46.076 18.755-46.076 30.011 0-23.44-70.433-42.441-157.315-42.441H221.504c-86.883 0-157.315-19.001-157.315-42.44z" fill-rule="evenodd"/><path fill="#000" fill-opacity="0" d="M895.811 293.118c0 11.256-16.574 22.051-46.076 30.01-29.503 7.96-69.516 12.431-111.239 12.431H638.255c-41.723 0-81.737 4.471-111.239 12.43-29.502 7.96-46.076 18.755-46.076 30.011 0-23.44-70.433-42.441-157.315-42.441H221.504c-86.883 0-157.315-19.001-157.315-42.44" fill-rule="evenodd"/><path stroke="#595959" stroke-width="1" stroke-linejoin="round" stroke-linecap="butt" d="M895.811 293.118c0 11.256-16.574 22.051-46.076 30.01-29.503 7.96-69.516 12.431-111.239 12.431H638.255c-41.723 0-81.737 4.471-111.239 12.43-29.502 7.96-46.076 18.755-46.076 30.011 0-23.44-70.433-42.441-157.315-42.441H221.504c-86.883 0-157.315-19.001-157.315-42.44" fill-rule="evenodd"/><path fill="#000" fill-opacity="0" d="M448.538 372.14h185.858v57.794H448.538z" fill-rule="evenodd"/><path fill="#000" d="M464.429 404.18h-2.016l2.297-10.704q.687-3.063 1.031-4.203-.578.625-1.625 1.297l-2.094 1.297-.937-1.5 5.266-3.329h1.75l-3.672 17.141zm6.828-.876q0-.89.469-1.422.484-.547 1.312-.547.516 0 .813.313.312.297.312.922 0 .828-.469 1.39-.468.563-1.265.563-.532 0-.86-.313-.312-.297-.312-.906zm6.07 0q0-.89.469-1.422.484-.547 1.312-.547.516 0 .813.313.312.297.312.922 0 .828-.468 1.39-.47.563-1.266.563-.531 0-.86-.313-.312-.297-.312-.906zm6.07 0q0-.89.47-1.422.484-.547 1.312-.547.515 0 .812.313.313.297.313.922 0 .828-.47 1.39-.468.563-1.265.563-.53 0-.86-.313-.312-.297-.312-.906zm14.118.875l1.734-8.11q.234-1.218.234-1.687 0-.734-.422-1.172-.406-.453-1.328-.453-1.047 0-2.03.703-.985.703-1.75 2-.75 1.297-1.142 3.157l-1.187 5.562h-1.969l2.75-12.844h1.625l-.25 2.375h.11q1.125-1.422 2.171-2.015 1.047-.594 2.172-.594 1.5 0 2.36.812.86.813.86 2.282 0 .922-.267 2.11l-1.687 7.874h-1.984z" fill-rule="nonzero"/></g></svg>