<?xml version="1.0" standalone="yes"?>

<svg version="1.1" viewBox="0.0 0.0 960.0 540.0" fill="none" stroke="none" stroke-linecap="square" stroke-miterlimit="10" xmlns="http://www.w3.org/2000/svg" xmlns:xlink="http://www.w3.org/1999/xlink"><clipPath id="g287e6b1221_0_366.0"><path d="m0 0l960.0 0l0 540.0l-960.0 0l0 -540.0z" clip-rule="nonzero"></path></clipPath><g clip-path="url(#g287e6b1221_0_366.0)"><path fill="#ffffff" d="m0 0l960.0 0l0 540.0l-960.0 0z" fill-rule="evenodd"></path><path fill="#3c78d8" d="m276.00958 58.615402l70.48819 0l0 61.76378l-70.48819 0z" fill-rule="evenodd"></path><path stroke="#434343" stroke-width="2.0" stroke-linejoin="round" stroke-linecap="butt" d="m276.00958 58.615402l70.48819 0l0 61.76378l-70.48819 0z" fill-rule="evenodd"></path><path fill="#ffffff" d="m314.2667 98.03729l0 -7.578125q0 -1.546875 -0.71875 -2.109375q-0.703125 -0.578125 -1.875 -0.578125q-1.0 0 -1.984375 0.546875q-0.96875 0.53125 -1.453125 1.25l0 8.46875l-1.796875 0l0 -11.59375l1.796875 0l0 1.6875q0.75 -0.875 1.84375 -1.421875q1.09375 -0.546875 2.296875 -0.546875q3.6875 0 3.6875 3.734375l0 8.140625l-1.796875 0z" fill-rule="nonzero"></path><path fill="#3c78d8" d="m354.3596 262.9882l49.417328 -85.6693l49.417297 85.6693z" fill-rule="evenodd"></path><path stroke="#000000" stroke-width="2.0" stroke-linejoin="round" stroke-linecap="butt" d="m354.3596 262.9882l49.417328 -85.6693l49.417297 85.6693z" fill-rule="evenodd"></path><path fill="#ffffff" d="m397.25192 239.11087l0 -16.015625l5.46875 0q3.640625 0 5.921875 2.28125q2.28125 2.265625 2.28125 5.75q0 3.5 -2.296875 5.75q-2.28125 2.234375 -5.90625 2.234375l-5.46875 0zm5.46875 -1.78125q2.734375 0 4.4375 -1.703125q1.703125 -1.71875 1.703125 -4.5q0 -2.796875 -1.6875 -4.515625q-1.671875 -1.734375 -4.453125 -1.734375l-3.484375 0l0 12.453125l3.484375 0z" fill-rule="nonzero"></path><path fill="#000000" fill-opacity="0.0" d="m229.2786 171.55766l81.98425 -51.181107" fill-rule="evenodd"></path><path stroke="#595959" stroke-width="1.0" stroke-linejoin="round" stroke-linecap="butt" d="m229.2786 171.55766l81.98425 -51.181107" fill-rule="evenodd"></path><path fill="#000000" fill-opacity="0.0" d="m311.25366 120.37918l92.53543 56.944885" fill-rule="evenodd"></path><path stroke="#595959" stroke-width="1.0" stroke-linejoin="round" stroke-linecap="butt" d="m311.25366 120.37918l92.53543 56.944885" fill-rule="evenodd"></path><path fill="#000000" fill-opacity="0.0" d="m446.35696 202.80446l70.48819 0l0 30.67717l-70.48819 0z" fill-rule="evenodd"></path><path fill="#000000" d="m463.02884 225.06305l-3.296875 -4.125l-1.53125 1.5l0 2.625l-1.421875 0l0 -12.671875l1.421875 0l0 8.375l4.828125 -4.875l1.8125 0l-4.0625 4.15625l4.078125 5.015625l-1.828125 0zm2.4799194 -3.96875l0 -1.25l4.5625 0l0 1.25l-4.5625 0zm8.409393 3.96875l0 -10.578125l-2.03125 2.140625l-0.9375 -0.96875l3.171875 -3.265625l1.375 0l0 12.671875l-1.578125 0z" fill-rule="nonzero"></path><path fill="#000000" fill-opacity="0.0" d="m24.485565 233.31627l98.83465 0l0 30.67717l-98.83465 0z" fill-rule="evenodd"></path><path fill="#ff0000" d="m41.15744 255.57486l-3.296875 -4.125l-1.53125 1.5l0 2.625l-1.421875 0l0 -12.671875l1.421875 0l0 8.375l4.828125 -4.875l1.8125 0l-4.0625 4.15625l4.078125 5.015625l-1.828125 0z" fill-rule="nonzero"></path><path fill="#000000" d="m55.56006 255.57486l-3.296875 -4.125l-1.53125 1.5l0 2.625l-1.421875 0l0 -12.671875l1.421875 0l0 8.375l4.828125 -4.875l1.8125 0l-4.0625 4.15625l4.078125 5.015625l-1.828125 0zm7.1986847 -5.90625l0 4.046875l-1.078125 0l0 -4.046875l-3.65625 0l0 -0.984375l3.65625 0l0 -3.9375l1.078125 0l0 3.9375l3.65625 0l0 0.984375l-3.65625 0zm7.4032135 5.90625l0 -10.578125l-2.03125 2.140625l-0.9375 -0.96875l3.171875 -3.265625l1.375 0l0 12.671875l-1.578125 0zm20.247955 0l-3.296875 -4.125l-1.53125 1.5l0 2.625l-1.421875 0l0 -12.671875l1.421875 0l0 8.375l4.828125 -4.875l1.8125 0l-4.0625 4.15625l4.078125 5.015625l-1.828125 0z" fill-rule="nonzero"></path><path fill="#ff0000" d="m33.485565 249.41486l9.58931 0l0 1.1199951l-9.58931 0l0 -1.1199951z" fill-rule="nonzero"></path><path fill="#000000" d="m47.888184 249.41486l34.849854 0l0 1.1199951l-34.849854 0l0 -1.1199951z" fill-rule="nonzero"></path><path fill="#3c78d8" d="m115.503006 267.89886l70.48819 0l0 61.763794l-70.48819 0z" fill-rule="evenodd"></path><path stroke="#434343" stroke-width="2.0" stroke-linejoin="round" stroke-linecap="butt" d="m115.503006 267.89886l70.48819 0l0 61.763794l-70.48819 0z" fill-rule="evenodd"></path><path fill="#ffffff" d="m154.22762 307.32077l-3.484375 -4.75l-3.46875 4.75l-2.078125 0l4.453125 -5.953125l-4.203125 -5.640625l2.078125 0l3.21875 4.421875l3.21875 -4.421875l2.09375 0l-4.203125 5.640625l4.46875 5.953125l-2.09375 0z" fill-rule="nonzero"></path><path fill="#3c78d8" d="m52.83202 463.49475l49.417324 -85.66928l49.417328 85.66928z" fill-rule="evenodd"></path><path stroke="#000000" stroke-width="2.0" stroke-linejoin="round" stroke-linecap="butt" d="m52.83202 463.49475l49.417324 -85.66928l49.417328 85.66928z" fill-rule="evenodd"></path><path fill="#ffffff" d="m107.650246 439.61743l-1.421875 -3.546875l-7.96875 0l-1.40625 3.546875l-2.28125 0l6.421875 -16.015625l2.484375 0l6.453125 16.015625l-2.28125 0zm-5.40625 -13.9375l-3.40625 8.609375l6.796875 0l-3.390625 -8.609375z" fill-rule="nonzero"></path><path fill="#3c78d8" d="m165.68636 463.49475l49.417313 -85.66928l49.417328 85.66928z" fill-rule="evenodd"></path><path stroke="#000000" stroke-width="2.0" stroke-linejoin="round" stroke-linecap="butt" d="m165.68636 463.49475l49.417313 -85.66928l49.417328 85.66928z" fill-rule="evenodd"></path><path fill="#ffffff" d="m206.71869 439.61743l0 -16.015625l7.125 0q2.046875 0 3.265625 1.125q1.21875 1.109375 1.21875 2.96875q0 1.40625 -0.78125 2.390625q-0.78125 0.984375 -2.015625 1.28125q1.265625 0.1875 2.1875 1.34375q0.921875 1.140625 0.921875 2.59375q0 1.953125 -1.234375 3.140625q-1.234375 1.171875 -3.390625 1.171875l-7.296875 0zm6.78125 -9.078125q1.375 0 2.0625 -0.71875q0.703125 -0.734375 0.703125 -1.84375q0 -1.078125 -0.703125 -1.828125q-0.6875 -0.765625 -2.0625 -0.765625l-4.796875 0l0 5.15625l4.796875 0zm0.109375 7.296875q1.40625 0 2.1875 -0.71875q0.78125 -0.734375 0.78125 -2.03125q0 -1.234375 -0.8125 -2.0q-0.8125 -0.765625 -2.15625 -0.765625l-4.90625 0l0 5.515625l4.90625 0z" fill-rule="nonzero"></path><path fill="#ffffff" d="m222.7834 448.61743l0 -8.90625l-1.703125 1.796875l-0.796875 -0.8125l2.671875 -2.75l1.15625 0l0 10.671875l-1.328125 0z" fill-rule="nonzero"></path><path fill="#000000" fill-opacity="0.0" d="m102.249344 377.82547l48.503937 -48.1575" fill-rule="evenodd"></path><path stroke="#595959" stroke-width="1.0" stroke-linejoin="round" stroke-linecap="butt" d="m102.249344 377.82547l48.503937 -48.1575" fill-rule="evenodd"></path><path fill="#000000" fill-opacity="0.0" d="m150.7471 329.66266l64.346466 48.15747" fill-rule="evenodd"></path><path stroke="#595959" stroke-width="1.0" stroke-linejoin="round" stroke-linecap="butt" d="m150.7471 329.66266l64.346466 48.15747" fill-rule="evenodd"></path><path fill="#000000" fill-opacity="0.0" d="m17.081366 387.15878l70.48819 0l0 30.677185l-70.48819 0z" fill-rule="evenodd"></path><path fill="#000000" d="m33.75324 409.4174l-3.296873 -4.125l-1.53125 1.5l0 2.625l-1.421875 0l0 -12.671875l1.421875 0l0 8.375l4.828123 -4.875l1.8125 0l-4.062498 4.15625l4.078123 5.015625l-1.828125 0zm2.4799347 -3.96875l0 -1.25l4.5625 0l0 1.25l-4.5625 0zm8.409378 3.96875l0 -10.578125l-2.03125 2.140625l-0.9375 -0.96875l3.171875 -3.265625l1.375 0l0 12.671875l-1.578125 0z" fill-rule="nonzero"></path><path fill="#000000" fill-opacity="0.0" d="m102.249344 140.87534l115.90552 0l0 30.677155l-115.90552 0z" fill-rule="evenodd"></path><path fill="#ff0000" d="m118.92122 152.13391l-3.296875 -4.125l-1.53125 1.5l0 2.625l-1.421875 0l0 -12.671875l1.421875 0l0 8.375l4.828125 -4.875l1.8125 0l-4.0625 4.15625l4.078125 5.015625l-1.828125 0zm2.4799347 -3.96875l0 -1.25l4.5625 0l0 1.25l-4.5625 0zm8.409378 3.96875l0 -10.578125l-2.03125 2.140625l-0.9375 -0.96875l3.171875 -3.265625l1.375 0l0 12.671875l-1.578125 0z" fill-rule="nonzero"></path><path fill="#000000" d="m145.24518 152.13391l-3.296875 -4.125l-1.53125 1.5l0 2.625l-1.421875 0l0 -12.671875l1.421875 0l0 8.375l4.828125 -4.875l1.8125 0l-4.0625 4.15625l4.078125 5.015625l-1.828125 0zm19.215927 0l-3.296875 -4.125l-1.53125 1.5l0 2.625l-1.421875 0l0 -12.671875l1.421875 0l0 8.375l4.828125 -4.875l1.8125 0l-4.0625 4.15625l4.078125 5.015625l-1.828125 0zm7.1986847 -5.90625l0 4.046875l-1.078125 0l0 -4.046875l-3.65625 0l0 -0.984375l3.65625 0l0 -3.9375l1.078125 0l0 3.9375l3.65625 0l0 0.984375l-3.65625 0zm7.4032135 5.90625l0 -10.578125l-2.03125 2.140625l-0.9375 -0.96875l3.171875 -3.265625l1.375 0l0 12.671875l-1.578125 0z" fill-rule="nonzero"></path><path fill="#ff0000" d="m111.249344 145.9739l21.51065 0l0 1.1199951l-21.51065 0l0 -1.1199951z" fill-rule="nonzero"></path><path fill="#000000" d="m137.5733 145.9739l19.215927 0l0 1.1199951l-19.215927 0l0 -1.1199951z" fill-rule="nonzero"></path><path fill="#3c78d8" d="m234.93176 362.15616l49.417328 -85.66928l49.417328 85.66928z" fill-rule="evenodd"></path><path stroke="#000000" stroke-width="2.0" stroke-linejoin="round" stroke-linecap="butt" d="m234.93176 362.15616l49.417328 -85.66928l49.417328 85.66928z" fill-rule="evenodd"></path><path fill="#ffffff" d="m273.97208 338.27884l0 -16.015625l7.125 0q2.046875 0 3.265625 1.125q1.21875 1.109375 1.21875 2.96875q0 1.40625 -0.78125 2.390625q-0.78125 0.984375 -2.015625 1.28125q1.265625 0.1875 2.1875 1.34375q0.921875 1.140625 0.921875 2.59375q0 1.953125 -1.234375 3.140625q-1.234375 1.171875 -3.390625 1.171875l-7.296875 0zm6.78125 -9.078125q1.375 0 2.0625 -0.71875q0.703125 -0.734375 0.703125 -1.84375q0 -1.078125 -0.703125 -1.828125q-0.6875 -0.765625 -2.0625 -0.765625l-4.796875 0l0 5.15625l4.796875 0zm0.109375 7.296875q1.40625 0 2.1875 -0.71875q0.78125 -0.734375 0.78125 -2.03125q0 -1.234375 -0.8125 -2.0q-0.8125 -0.765625 -2.15625 -0.765625l-4.90625 0l0 5.515625l4.90625 0z" fill-rule="nonzero"></path><path fill="#ffffff" d="m288.05243 347.27884l0 -1.0625q2.828125 -2.21875 3.875 -3.234375q1.0625 -1.015625 1.546875 -1.8125q0.5 -0.8125 0.5 -1.59375q0 -0.875 -0.609375 -1.40625q-0.609375 -0.53125 -1.609375 -0.53125q-1.875 0 -2.90625 1.34375l-0.8125 -0.859375q0.609375 -0.8125 1.59375 -1.234375q0.984375 -0.4375 2.125 -0.4375q1.546875 0 2.5625 0.859375q1.015625 0.84375 1.015625 2.265625q0 1.296875 -1.09375 2.734375q-1.09375 1.4375 -4.09375 3.78125l5.234375 0l0 1.1875l-7.328125 0z" fill-rule="nonzero"></path><path fill="#3c78d8" d="m194.0345 171.55766l70.488205 0l0 61.76378l-70.488205 0z" fill-rule="evenodd"></path><path stroke="#434343" stroke-width="2.0" stroke-linejoin="round" stroke-linecap="butt" d="m194.0345 171.55766l70.488205 0l0 61.76378l-70.488205 0z" fill-rule="evenodd"></path><path fill="#ffffff" d="m224.83612 213.8858q0.390625 0.1875 0.984375 0.1875q0.609375 0 1.015625 -0.25q0.40625 -0.25 0.71875 -0.96875l0.765625 -1.75l-4.84375 -11.71875l1.9375 0l3.859375 9.5l3.84375 -9.5l1.96875 0l-5.8125 13.953125q-0.953125 2.296875 -3.40625 2.34375q-0.6875 0 -1.3125 -0.171875l0.28125 -1.625z" fill-rule="nonzero"></path><path fill="#000000" fill-opacity="0.0" d="m284.3491 276.48688l-55.05513 -43.181107" fill-rule="evenodd"></path><path stroke="#595959" stroke-width="1.0" stroke-linejoin="round" stroke-linecap="butt" d="m284.3491 276.48688l-55.05513 -43.181107" fill-rule="evenodd"></path><path fill="#000000" fill-opacity="0.0" d="m150.7471 267.89886l78.519684 -34.582672" fill-rule="evenodd"></path><path stroke="#595959" stroke-width="1.0" stroke-linejoin="round" stroke-linecap="butt" d="m150.7471 267.89886l78.519684 -34.582672" fill-rule="evenodd"></path><path fill="#000000" fill-opacity="0.0" d="m245.67192 405.32153l70.488174 0l0 30.677155l-70.488174 0z" fill-rule="evenodd"></path><path fill="#000000" d="m262.34378 427.5801l-3.296875 -4.125l-1.53125 1.5l0 2.625l-1.421875 0l0 -12.671875l1.421875 0l0 8.375l4.828125 -4.875l1.8125 0l-4.0625 4.15625l4.078125 5.015625l-1.828125 0zm2.47995 -3.96875l0 -1.25l4.5625 0l0 1.25l-4.5625 0zm8.409363 3.96875l0 -10.578125l-2.03125 2.140625l-0.9375 -0.96875l3.171875 -3.265625l1.375 0l0 12.671875l-1.578125 0z" fill-rule="nonzero"></path><path fill="#000000" fill-opacity="0.0" d="m325.5433 319.92783l70.48819 0l0 30.677155l-70.48819 0z" fill-rule="evenodd"></path><path fill="#000000" d="m342.21518 342.1864l-3.296875 -4.125l-1.53125 1.5l0 2.625l-1.421875 0l0 -12.671875l1.421875 0l0 8.375l4.828125 -4.875l1.8125 0l-4.0625 4.15625l4.078125 5.015625l-1.828125 0zm2.47995 -3.96875l0 -1.25l4.5625 0l0 1.25l-4.5625 0zm8.409363 3.96875l0 -10.578125l-2.03125 2.140625l-0.9375 -0.96875l3.171875 -3.265625l1.375 0l0 12.671875l-1.578125 0z" fill-rule="nonzero"></path><path fill="#3c78d8" d="m736.7104 81.94874l70.48816 0l0 61.76377l-70.48816 0z" fill-rule="evenodd"></path><path stroke="#434343" stroke-width="2.0" stroke-linejoin="round" stroke-linecap="butt" d="m736.7104 81.94874l70.48816 0l0 61.76377l-70.48816 0z" fill-rule="evenodd"></path><path fill="#ffffff" d="m774.96747 121.37063l0 -7.578125q0 -1.546875 -0.71875 -2.109375q-0.703125 -0.578125 -1.875 -0.578125q-1.0 0 -1.984375 0.546875q-0.96875 0.53125 -1.453125 1.25l0 8.46875l-1.796875 0l0 -11.59375l1.796875 0l0 1.6875q0.75 -0.875 1.84375 -1.421875q1.09375 -0.546875 2.296875 -0.546875q3.6875 0 3.6875 3.734375l0 8.140625l-1.796875 0z" fill-rule="nonzero"></path><path fill="#3c78d8" d="m790.48816 271.57874l49.41736 -85.66928l49.417297 85.66928z" fill-rule="evenodd"></path><path stroke="#000000" stroke-width="2.0" stroke-linejoin="round" stroke-linecap="butt" d="m790.48816 271.57874l49.41736 -85.66928l49.417297 85.66928z" fill-rule="evenodd"></path><path fill="#ffffff" d="m833.38055 247.70142l0 -16.015625l5.46875 0q3.640625 0 5.921875 2.28125q2.28125 2.265625 2.28125 5.75q0 3.5 -2.296875 5.75q-2.28125 2.234375 -5.90625 2.234375l-5.46875 0zm5.46875 -1.78125q2.734375 0 4.4375 -1.703125q1.703125 -1.71875 1.703125 -4.5q0 -2.796875 -1.6875 -4.515625q-1.671875 -1.734375 -4.453125 -1.734375l-3.484375 0l0 12.453125l3.484375 0z" fill-rule="nonzero"></path><path fill="#000000" fill-opacity="0.0" d="m714.6631 185.91724l57.29138 -42.204727" fill-rule="evenodd"></path><path stroke="#595959" stroke-width="1.0" stroke-linejoin="round" stroke-linecap="butt" d="m714.6631 185.91724l57.29138 -42.204727" fill-rule="evenodd"></path><path fill="#000000" fill-opacity="0.0" d="m771.95447 143.71251l67.93701 42.204727" fill-rule="evenodd"></path><path stroke="#595959" stroke-width="1.0" stroke-linejoin="round" stroke-linecap="butt" d="m771.95447 143.71251l67.93701 42.204727" fill-rule="evenodd"></path><path fill="#000000" fill-opacity="0.0" d="m839.8924 149.46982l70.48816 0l0 30.67717l-70.48816 0z" fill-rule="evenodd"></path><path fill="#000000" d="m856.5643 171.7284l-3.296875 -4.125l-1.53125 1.5l0 2.625l-1.421875 0l0 -12.671875l1.421875 0l0 8.375l4.828125 -4.875l1.8125 0l-4.0625 4.15625l4.078125 5.015625l-1.828125 0zm2.4799194 -3.96875l0 -1.25l4.5625 0l0 1.25l-4.5625 0zm8.409363 3.96875l0 -10.578125l-2.03125 2.140625l-0.9375 -0.96875l3.171875 -3.265625l1.375 0l0 12.671875l-1.578125 0z" fill-rule="nonzero"></path><path fill="#000000" fill-opacity="0.0" d="m679.4147 149.47244l70.48822 0l0 30.67717l-70.48822 0z" fill-rule="evenodd"></path><path fill="#ff0000" d="m696.08655 171.73102l-3.296875 -4.125l-1.53125 1.5l0 2.625l-1.421875 0l0 -12.671875l1.421875 0l0 8.375l4.828125 -4.875l1.8125 0l-4.0625 4.15625l4.078125 5.015625l-1.828125 0z" fill-rule="nonzero"></path><path fill="#000000" d="m710.4892 171.73102l-3.296875 -4.125l-1.53125 1.5l0 2.625l-1.421875 0l0 -12.671875l1.421875 0l0 8.375l4.828125 -4.875l1.8125 0l-4.0625 4.15625l4.078125 5.015625l-1.828125 0zm7.1986694 -5.90625l0 4.046875l-1.078125 0l0 -4.046875l-3.65625 0l0 -0.984375l3.65625 0l0 -3.9375l1.078125 0l0 3.9375l3.65625 0l0 0.984375l-3.65625 0zm7.4031982 5.90625l0 -10.578125l-2.03125 2.140625l-0.9375 -0.96875l3.171875 -3.265625l1.375 0l0 12.671875l-1.578125 0z" fill-rule="nonzero"></path><path fill="#ff0000" d="m688.4147 165.57103l9.589355 0l0 1.1199951l-9.589355 0l0 -1.1199951z" fill-rule="nonzero"></path><path fill="#3c78d8" d="m679.41376 185.91199l70.48822 0l0 61.76378l-70.48822 0z" fill-rule="evenodd"></path><path stroke="#434343" stroke-width="2.0" stroke-linejoin="round" stroke-linecap="butt" d="m679.41376 185.91199l70.48822 0l0 61.76378l-70.48822 0z" fill-rule="evenodd"></path><path fill="#ffffff" d="m718.13837 225.33388l-3.484375 -4.75l-3.46875 4.75l-2.078125 0l4.453125 -5.953125l-4.203125 -5.640625l2.078125 0l3.21875 4.421875l3.21875 -4.421875l2.09375 0l-4.203125 5.640625l4.46875 5.953125l-2.09375 0z" fill-rule="nonzero"></path><path fill="#3c78d8" d="m597.9449 379.8622l49.417297 -85.66931l49.41736 85.66931z" fill-rule="evenodd"></path><path stroke="#000000" stroke-width="2.0" stroke-linejoin="round" stroke-linecap="butt" d="m597.9449 379.8622l49.417297 -85.66931l49.41736 85.66931z" fill-rule="evenodd"></path><path fill="#ffffff" d="m652.7631 355.9849l-1.421875 -3.546875l-7.96875 0l-1.40625 3.546875l-2.28125 0l6.421875 -16.015625l2.484375 0l6.453125 16.015625l-2.28125 0zm-5.40625 -13.9375l-3.40625 8.609375l6.796875 0l-3.390625 -8.609375z" fill-rule="nonzero"></path><path fill="#3c78d8" d="m656.3018 481.43176l49.41736 -85.66928l49.417297 85.66928z" fill-rule="evenodd"></path><path stroke="#000000" stroke-width="2.0" stroke-linejoin="round" stroke-linecap="butt" d="m656.3018 481.43176l49.41736 -85.66928l49.417297 85.66928z" fill-rule="evenodd"></path><path fill="#ffffff" d="m697.33417 457.55444l0 -16.015625l7.125 0q2.046875 0 3.265625 1.125q1.21875 1.109375 1.21875 2.96875q0 1.40625 -0.78125 2.390625q-0.78125 0.984375 -2.015625 1.28125q1.265625 0.1875 2.1875 1.34375q0.921875 1.140625 0.921875 2.59375q0 1.953125 -1.234375 3.140625q-1.234375 1.171875 -3.390625 1.171875l-7.296875 0zm6.78125 -9.078125q1.375 0 2.0625 -0.71875q0.703125 -0.734375 0.703125 -1.84375q0 -1.078125 -0.703125 -1.828125q-0.6875 -0.765625 -2.0625 -0.765625l-4.796875 0l0 5.15625l4.796875 0zm0.109375 7.296875q1.40625 0 2.1875 -0.71875q0.78125 -0.734375 0.78125 -2.03125q0 -1.234375 -0.8125 -2.0q-0.8125 -0.765625 -2.15625 -0.765625l-4.90625 0l0 5.515625l4.90625 0z" fill-rule="nonzero"></path><path fill="#ffffff" d="m713.39886 466.55444l0 -8.90625l-1.703125 1.796875l-0.796875 -0.8125l2.671875 -2.75l1.15625 0l0 10.671875l-1.328125 0z" fill-rule="nonzero"></path><path fill="#000000" fill-opacity="0.0" d="m647.3622 294.1929l67.30713 -46.51967" fill-rule="evenodd"></path><path stroke="#595959" stroke-width="1.0" stroke-linejoin="round" stroke-linecap="butt" d="m647.3622 294.1929l67.30713 -46.51967" fill-rule="evenodd"></path><path fill="#000000" fill-opacity="0.0" d="m771.95447 353.7965l-66.236206 41.95276" fill-rule="evenodd"></path><path stroke="#595959" stroke-width="1.0" stroke-linejoin="round" stroke-linecap="butt" d="m771.95447 353.7965l-66.236206 41.95276" fill-rule="evenodd"></path><path fill="#000000" fill-opacity="0.0" d="m612.1181 255.59448l70.48822 0l0 30.677185l-70.48822 0z" fill-rule="evenodd"></path><path fill="#000000" d="m628.79 277.85306l-3.296875 -4.125l-1.53125 1.5l0 2.625l-1.421875 0l0 -12.671875l1.421875 0l0 8.375l4.828125 -4.875l1.8125 0l-4.0625 4.15625l4.078125 5.015625l-1.828125 0zm2.4799194 -3.96875l0 -1.25l4.5625 0l0 1.25l-4.5625 0zm8.409424 3.96875l0 -10.578125l-2.03125 2.140625l-0.9375 -0.96875l3.171875 -3.265625l1.375 0l0 12.671875l-1.578125 0z" fill-rule="nonzero"></path><path fill="#000000" fill-opacity="0.0" d="m818.83466 307.5748l70.48816 0l0 30.677185l-70.48816 0z" fill-rule="evenodd"></path><path fill="#ff0000" d="m835.50653 318.83337l-3.296875 -4.125l-1.53125 1.5l0 2.625l-1.421875 0l0 -12.671875l1.421875 0l0 8.375l4.828125 -4.875l1.8125 0l-4.0625 4.15625l4.078125 5.015625l-1.828125 0zm2.4799194 -3.96875l0 -1.25l4.5625 0l0 1.25l-4.5625 0zm8.409363 3.96875l0 -10.578125l-2.03125 2.140625l-0.9375 -0.96875l3.171875 -3.265625l1.375 0l0 12.671875l-1.578125 0z" fill-rule="nonzero"></path><path fill="#000000" d="m861.8305 318.83337l-3.296875 -4.125l-1.53125 1.5l0 2.625l-1.421875 0l0 -12.671875l1.421875 0l0 8.375l4.828125 -4.875l1.8125 0l-4.0625 4.15625l4.078125 5.015625l-1.828125 0z" fill-rule="nonzero"></path><path fill="#ff0000" d="m827.83466 312.67337l21.51062 0l0 1.1200256l-21.51062 0l0 -1.1200256z" fill-rule="nonzero"></path><path fill="#3c78d8" d="m779.8478 483.82285l49.417297 -85.66931l49.41736 85.66931z" fill-rule="evenodd"></path><path stroke="#000000" stroke-width="2.0" stroke-linejoin="round" stroke-linecap="butt" d="m779.8478 483.82285l49.417297 -85.66931l49.41736 85.66931z" fill-rule="evenodd"></path><path fill="#ffffff" d="m818.8881 459.9455l0 -16.015625l7.125 0q2.046875 0 3.265625 1.125q1.21875 1.109375 1.21875 2.96875q0 1.40625 -0.78125 2.390625q-0.78125 0.984375 -2.015625 1.28125q1.265625 0.1875 2.1875 1.34375q0.921875 1.140625 0.921875 2.59375q0 1.953125 -1.234375 3.140625q-1.234375 1.171875 -3.390625 1.171875l-7.296875 0zm6.78125 -9.078125q1.375 0 2.0625 -0.71875q0.703125 -0.734375 0.703125 -1.84375q0 -1.078125 -0.703125 -1.828125q-0.6875 -0.765625 -2.0625 -0.765625l-4.796875 0l0 5.15625l4.796875 0zm0.109375 7.296875q1.40625 0 2.1875 -0.71875q0.78125 -0.734375 0.78125 -2.03125q0 -1.234375 -0.8125 -2.0q-0.8125 -0.765625 -2.15625 -0.765625l-4.90625 0l0 5.515625l4.90625 0z" fill-rule="nonzero"></path><path fill="#ffffff" d="m832.96844 468.9455l0 -1.0625q2.828125 -2.21875 3.875 -3.234375q1.0625 -1.015625 1.546875 -1.8125q0.5 -0.8125 0.5 -1.59375q0 -0.875 -0.609375 -1.40625q-0.609375 -0.53125 -1.609375 -0.53125q-1.875 0 -2.90625 1.34375l-0.8125 -0.859375q0.609375 -0.8125 1.59375 -1.234375q0.984375 -0.4375 2.125 -0.4375q1.546875 0 2.5625 0.859375q1.015625 0.84375 1.015625 2.265625q0 1.296875 -1.09375 2.734375q-1.09375 1.4375 -4.09375 3.78125l5.234375 0l0 1.1875l-7.328125 0z" fill-rule="nonzero"></path><path fill="#3c78d8" d="m736.7104 292.0327l70.48816 0l0 61.763794l-70.48816 0z" fill-rule="evenodd"></path><path stroke="#434343" stroke-width="2.0" stroke-linejoin="round" stroke-linecap="butt" d="m736.7104 292.0327l70.48816 0l0 61.763794l-70.48816 0z" fill-rule="evenodd"></path><path fill="#ffffff" d="m767.51196 334.36087q0.390625 0.1875 0.984375 0.1875q0.609375 0 1.015625 -0.25q0.40625 -0.25 0.71875 -0.96875l0.765625 -1.75l-4.84375 -11.71875l1.9375 0l3.859375 9.5l3.84375 -9.5l1.96875 0l-5.8125 13.953125q-0.953125 2.296875 -3.40625 2.34375q-0.6875 0 -1.3125 -0.171875l0.28125 -1.625z" fill-rule="nonzero"></path><path fill="#000000" fill-opacity="0.0" d="m829.2651 398.15353l-57.322815 -44.346436" fill-rule="evenodd"></path><path stroke="#595959" stroke-width="1.0" stroke-linejoin="round" stroke-linecap="butt" d="m829.2651 398.15353l-57.322815 -44.346436" fill-rule="evenodd"></path><path fill="#000000" fill-opacity="0.0" d="m714.6631 247.68626l57.29138 44.34645" fill-rule="evenodd"></path><path stroke="#595959" stroke-width="1.0" stroke-linejoin="round" stroke-linecap="butt" d="m714.6631 247.68626l57.29138 44.34645" fill-rule="evenodd"></path><path fill="#000000" fill-opacity="0.0" d="m714.6693 370.41602l70.48816 0l0 30.677155l-70.48816 0z" fill-rule="evenodd"></path><path fill="#000000" d="m731.3412 392.6746l-3.296875 -4.125l-1.53125 1.5l0 2.625l-1.421875 0l0 -12.671875l1.421875 0l0 8.375l4.828125 -4.875l1.8125 0l-4.0625 4.15625l4.078125 5.015625l-1.828125 0zm2.4799194 -3.96875l0 -1.25l4.5625 0l0 1.25l-4.5625 0zm8.409363 3.96875l0 -10.578125l-2.03125 2.140625l-0.9375 -0.96875l3.171875 -3.265625l1.375 0l0 12.671875l-1.578125 0z" fill-rule="nonzero"></path><path fill="#000000" fill-opacity="0.0" d="m770.6798 386.41602l70.48816 0l0 30.677155l-70.48816 0z" fill-rule="evenodd"></path><path fill="#000000" d="m787.3517 408.6746l-3.296875 -4.125l-1.53125 1.5l0 2.625l-1.421875 0l0 -12.671875l1.421875 0l0 8.375l4.828125 -4.875l1.8125 0l-4.0625 4.15625l4.078125 5.015625l-1.828125 0zm2.4799194 -3.96875l0 -1.25l4.5625 0l0 1.25l-4.5625 0zm8.409363 3.96875l0 -10.578125l-2.03125 2.140625l-0.9375 -0.96875l3.171875 -3.265625l1.375 0l0 12.671875l-1.578125 0z" fill-rule="nonzero"></path><path fill="#000000" d="m533.4439 366.52655l0 0l0 0c-11.521912 -23.652557 -40.03369 -33.480804 -63.68286 -21.951965l-6.645691 3.2397156l-2.9803162 -6.118103l-6.273834 18.20044l18.195099 6.272003l-2.9803162 -6.1181335l6.645691 -3.2397156l0 0c16.892273 -8.234863 37.257812 -1.2147217 45.487732 15.679993l0 0z" fill-rule="evenodd"></path><path stroke="#000000" stroke-width="1.0" stroke-linejoin="round" stroke-linecap="butt" d="m533.4439 366.52655l0 0l0 0c-11.521912 -23.652557 -40.03369 -33.480804 -63.68286 -21.951965l-6.645691 3.2397156l-2.9803162 -6.118103l-6.273834 18.20044l18.195099 6.272003l-2.9803162 -6.1181335l6.645691 -3.2397156l0 0c16.892273 -8.234863 37.257812 -1.2147217 45.487732 15.679993l0 0z" fill-rule="evenodd"></path><path fill="#000000" fill-opacity="0.0" d="m575.22363 360.9045l-166.92914 -18.425201l-11.055115 100.12598l166.92914 18.425201z" fill-rule="evenodd"></path><path fill="#000000" d="m443.63376 404.0151l-2.6471558 -5.354004l-2.5159912 -0.27770996l-0.55215454 5.0008545l-1.5686035 -0.17312622l1.390686 -12.595337l5.063019 0.5588379q1.7704773 0.19543457 2.7410278 1.3714905q0.97055054 1.1760864 0.78533936 2.8533936q-0.17489624 1.584137 -1.1992493 2.4614258q-1.0243225 0.8772888 -2.466858 0.84381104l2.8180847 5.5143433l-1.8481445 -0.20397949zm-1.7024841 -6.6488037q1.133728 0.12512207 1.8908081 -0.46725464q0.7571106 -0.5923767 0.87713623 -1.6795349q0.11831665 -1.0716248 -0.49301147 -1.7993164q-0.60961914 -0.7432556 -1.7433472 -0.8683777l-3.3080444 -0.36514282l-0.5315857 4.8144836l3.3080444 0.36514282zm9.596649 7.7559204q-1.987915 -0.21942139 -3.1122437 -1.7111511q-1.1087952 -1.4900208 -0.87731934 -3.5866394q0.23321533 -2.1121826 1.6386719 -3.30896q1.42099 -1.1950684 3.408905 -0.975647q1.9724121 0.2177124 3.0829163 1.6921997q1.1260376 1.4761963 0.8928528 3.588379q-0.23150635 2.0966187 -1.6542053 3.3072205q-1.4071655 1.2123108 -3.3795776 0.9945984zm0.140625 -1.2734985q1.3200989 0.14569092 2.2685242 -0.75567627q0.9639282 -0.8996887 1.133667 -2.4372253q0.16976929 -1.5375366 -0.5763855 -2.6102295q-0.72891235 -1.0865479 -2.0490112 -1.2322388q-1.3200989 -0.14572144 -2.2978516 0.73672485q-0.96221924 0.88412476 -1.1336975 2.4371948q-0.17318726 1.5686035 0.5574341 2.6395874q0.7461548 1.0727234 2.0973206 1.2218628zm8.789032 2.2591248q-2.0345154 -0.22454834 -1.7978821 -2.3677673l0.6584778 -5.9637756l-1.5064697 -0.16629028l0.13717651 -1.2424316l1.5064697 0.16629028l0.276062 -2.5004578l1.428833 0.15771484l-0.276062 2.5004272l1.8481445 0.20401001l-0.13717651 1.2424316l-1.848175 -0.20397949l-0.625885 5.6686707q-0.05657959 0.5125122 0.12484741 0.8626709q0.19692993 0.35183716 0.6628723 0.40325928q0.5901489 0.06515503 1.0040588 -0.26644897l0.30270386 1.1023865q-0.6553345 0.5250244 -1.7579956 0.4032898zm8.863251 0.7425232l0.114868164 -1.0405579q-1.2898865 1.1466675 -3.1535645 0.9409485q-1.3822327 -0.15255737 -2.2025146 -1.1234131q-0.80474854 -0.9691467 -0.66241455 -2.2581787q0.14575195 -1.3201294 1.1391296 -2.0593567q0.9933777 -0.7392273 2.3911438 -0.5849304q1.9568481 0.21600342 2.875763 1.5750122l0.1817627 -1.6462402q0.10116577 -0.9163208 -0.49624634 -1.4852905q-0.5801697 -0.5827942 -1.5896606 -0.69421387q-1.5996704 -0.1765747 -2.9361267 0.9649353l-0.5425415 -1.0659485q1.6106873 -1.3470459 3.8005066 -1.1053467q1.6773071 0.18515015 2.51828 1.1111145q0.84265137 0.9104614 0.683197 2.3547974l-0.69277954 6.274353l-1.4288025 -0.15768433zm-2.4129944 -1.0680542q1.6773071 0.18511963 2.6256104 -0.85775757l0.19033813 -1.7239075q-0.697937 -1.2245789 -2.3752441 -1.409729q-1.0095215 -0.11141968 -1.6924744 0.37911987q-0.6829529 0.49053955 -0.7807007 1.3757935q-0.0960083 0.86968994 0.46347046 1.4973755q0.5595093 0.627655 1.5690002 0.7391052zm8.774078 2.005951q-2.0345154 -0.22454834 -1.7978821 -2.3677673l0.6584778 -5.9637756l-1.5065002 -0.16629028l0.13717651 -1.2424316l1.5065002 0.16629028l0.276062 -2.5004578l1.428833 0.15771484l-0.27609253 2.5004272l1.848175 0.20401001l-0.13720703 1.2424316l-1.8481445 -0.20397949l-0.625885 5.6686707q-0.05657959 0.5125122 0.124816895 0.8626709q0.19696045 0.35183716 0.6628723 0.40325928q0.59017944 0.06515503 1.0040588 -0.26644897l0.30273438 1.1023865q-0.6553345 0.5250244 -1.7579956 0.4032898zm7.2533875 0.80062866q-2.0500488 -0.22628784 -3.2071533 -1.7059021q-1.1398621 -1.4934692 -0.90667725 -3.6056213q0.22293091 -2.018982 1.6645813 -3.2589417q1.4416809 -1.2399292 3.3674622 -1.0273743q1.9568787 0.21600342 3.0173645 1.7164001q1.0622253 1.4848938 0.82214355 3.6591797l-0.03942871 0.35720825l-7.3926086 -0.815979q-0.076660156 1.406311 0.7574158 2.3944092q0.8358154 0.9725647 2.1869812 1.1217041q1.6618042 0.18344116 2.9379578 -0.83898926l0.58047485 1.0072632q-1.5520935 1.2434998 -3.7885132 0.99664307zm3.4354248 -5.059906q0.1388855 -1.2579651 -0.60202026 -2.2357788q-0.72366333 -0.9916382 -2.0748596 -1.1407776q-1.2579651 -0.13885498 -2.1960754 0.66934204q-0.93640137 0.7926941 -1.1218872 2.0455322l5.9948425 0.6616821zm7.6989746 6.0531006l1.390686 -12.595337l1.413269 0.15597534l-1.3906555 12.595337l-1.4132996 -0.15597534zm8.262238 1.1477356q-2.0500488 -0.22625732 -3.2071533 -1.7059021q-1.1398621 -1.4934387 -0.90667725 -3.6055908q0.22293091 -2.018982 1.6645813 -3.2589417q1.4416809 -1.2399292 3.3674622 -1.0273743q1.9568787 0.21600342 3.0173645 1.7164001q1.0622253 1.4848633 0.82214355 3.6591492l-0.03942871 0.35720825l-7.3926086 -0.815979q-0.076690674 1.4063416 0.7574158 2.3944397q0.8358154 0.9725647 2.1869812 1.1217041q1.6618042 0.18341064 2.9379578 -0.83898926l0.58047485 1.0072632q-1.5520935 1.2434692 -3.7885132 0.99661255zm3.4354248 -5.0598755q0.1388855 -1.2579956 -0.60202026 -2.2358093q-0.72366333 -0.99160767 -2.0748596 -1.1407471q-1.2579651 -0.13885498 -2.1960754 0.66934204q-0.93640137 0.7926941 -1.1218872 2.0455322l5.9948425 0.6616821zm3.318512 5.56958l0.86938477 -7.8740234l-1.5220032 -0.16799927l0.13717651 -1.2424622l1.5220032 0.16799927l0.077178955 -0.69888306q0.15774536 -1.4288025 0.9406738 -2.112671q0.8001404 -0.69766235 2.0270386 -0.56225586q1.149292 0.12686157 1.8486328 0.911438l-0.6912842 0.8511658q-0.4317627 -0.5035095 -1.0840454 -0.575531q-1.4288025 -0.15768433 -1.6277161 1.6438599l-0.077178955 0.69888306l1.8481445 0.20397949l-0.137146 1.2424622l-1.848175 -0.20401001l-0.86938477 7.8740234l-1.4132996 -0.15597534zm7.1323853 1.0230408q-2.0344849 -0.22454834 -1.7978516 -2.3677979l0.65844727 -5.963745l-1.5064697 -0.16629028l0.13720703 -1.2424316l1.5064697 0.16625977l0.276062 -2.5004272l1.428833 0.15771484l-0.276062 2.5004272l1.8481445 0.20401001l-0.13720703 1.2424316l-1.8481445 -0.20397949l-0.6258545 5.6686707q-0.056640625 0.5125122 0.124816895 0.8626404q0.19696045 0.35186768 0.6628418 0.4032898q0.59020996 0.06515503 1.0040894 -0.26644897l0.30273438 1.102356q-0.6553345 0.5250244 -1.7580566 0.4033203zm11.913391 1.3149719q-1.987915 -0.21942139 -3.1122437 -1.7111511q-1.1087646 -1.4900208 -0.87731934 -3.5866394q0.23321533 -2.1121826 1.6386719 -3.30896q1.4210205 -1.1950684 3.4089355 -0.975647q1.9724121 0.2177124 3.0828857 1.6921997q1.1260376 1.4761963 0.8928833 3.588379q-0.23150635 2.0966187 -1.6542358 3.3072205q-1.4071655 1.2123108 -3.3795776 0.9945984zm0.140625 -1.2734985q1.3201294 0.14569092 2.2685547 -0.75567627q0.9639282 -0.8996887 1.133667 -2.4372253q0.16973877 -1.5375366 -0.576416 -2.6102295q-0.72888184 -1.0865479 -2.0490112 -1.2322388q-1.3200684 -0.14572144 -2.2978516 0.73672485q-0.96221924 0.88412476 -1.133667 2.4371948q-0.17321777 1.5686035 0.5574341 2.6395874q0.7461548 1.0727234 2.09729 1.2218628zm12.666382 2.451294l0.65844727 -5.963745q0.13378906 -1.2113953 -0.37561035 -1.7234802q-0.5093994 -0.5121155 -1.4412231 -0.6149597q-0.7920532 -0.08743286 -1.5993652 0.24789429q-0.807312 0.33532715 -1.2590332 0.86709595l-0.7355957 6.6626587l-1.4133301 -0.15600586l1.0065918 -9.116486l1.413269 0.15600586l-0.14575195 1.3200989q0.6656494 -0.6181946 1.56781 -0.95877075q0.91778564 -0.3388672 1.8651123 -0.23428345q2.9042358 0.32055664 2.5784302 3.2713623l-0.70648193 6.3986206l-1.413269 -0.15600586zm14.753296 1.6284485l-2.3356323 -4.046295l-3.1466675 3.441162l-1.6152344 -0.17828369l4.012268 -4.304535l-2.819336 -4.7913513l1.6463013 0.18170166l2.133545 3.7410278l2.9138794 -3.183899l1.6463013 0.18170166l-3.796753 4.061096l3.0075684 5.079376l-1.6462402 -0.18170166z" fill-rule="nonzero"></path></g></svg>

