<?xml version="1.0" standalone="yes"?>

<svg version="1.1" viewBox="0.0 0.0 960.0 540.0" fill="none" stroke="none" stroke-linecap="square" stroke-miterlimit="10" xmlns="http://www.w3.org/2000/svg" xmlns:xlink="http://www.w3.org/1999/xlink"><clipPath id="g287d11482d_0_1.0"><path d="m0 0l960.0 0l0 540.0l-960.0 0l0 -540.0z" clip-rule="nonzero"></path></clipPath><g clip-path="url(#g287d11482d_0_1.0)"><path fill="#ffffff" d="m0 0l960.0 0l0 540.0l-960.0 0z" fill-rule="evenodd"></path><path fill="#000000" fill-opacity="0.0" d="m513.6864 86.81365l-67.811035 79.685036" fill-rule="evenodd"></path><path stroke="#595959" stroke-width="1.0" stroke-linejoin="round" stroke-linecap="butt" d="m513.6864 86.81365l-67.811035 79.685036" fill-rule="evenodd"></path><path fill="#000000" fill-opacity="0.0" d="m445.86353 220.86656l-53.480316 75.464554" fill-rule="evenodd"></path><path stroke="#595959" stroke-width="1.0" stroke-linejoin="round" stroke-linecap="butt" d="m445.86353 220.86656l-53.480316 75.464554" fill-rule="evenodd"></path><path fill="#3c78d8" d="m476.11157 32.451443l75.1496 0l0 54.36221l-75.1496 0z" fill-rule="evenodd"></path><path stroke="#434343" stroke-width="2.0" stroke-linejoin="round" stroke-linecap="butt" d="m476.11157 32.451443l75.1496 0l0 54.36221l-75.1496 0z" fill-rule="evenodd"></path><path fill="#ffffff" d="m508.30942 68.17255l0 -4.0625l-7.609375 0l0 -1.6562538l6.859375 -10.296875l2.75 0l0 10.203125l2.2500305 0l0 1.7500038l-2.2500305 0l0 4.0625l-2.0 0zm0 -14.156254l-5.609375 8.34375l5.609375 0l0 -8.34375zm6.3138733 14.156254l0 -1.578125q4.21875 -3.3437538 5.796875 -4.859379q1.59375 -1.53125 2.328125 -2.734375q0.75 -1.21875 0.75 -2.375q0 -1.3125 -0.90625 -2.109375q-0.90625 -0.8125 -2.421875 -0.8125q-2.8125 0 -4.34375 2.015625l-1.234375 -1.28125q0.921875 -1.21875 2.390625 -1.859375q1.484375 -0.65625 3.1875 -0.65625q2.328125 0 3.84375 1.28125q1.53125 1.28125 1.53125 3.421875q0 1.953125 -1.65625 4.109375q-1.640625 2.140625 -6.125 5.656254l7.84375 0l0 1.78125l-10.984375 0z" fill-rule="nonzero"></path><path fill="#3c78d8" d="m408.28873 166.50436l75.1496 0l0 54.362198l-75.1496 0z" fill-rule="evenodd"></path><path stroke="#434343" stroke-width="2.0" stroke-linejoin="round" stroke-linecap="butt" d="m408.28873 166.50436l75.1496 0l0 54.362198l-75.1496 0z" fill-rule="evenodd"></path><path fill="#ffffff" d="m432.76044 202.22546l0 -1.578125q4.21875 -3.34375 5.796875 -4.859375q1.59375 -1.53125 2.328125 -2.734375q0.75 -1.21875 0.75 -2.375q0 -1.3125 -0.90625 -2.109375q-0.90625 -0.8125 -2.421875 -0.8125q-2.8125 0 -4.34375 2.015625l-1.234375 -1.28125q0.921875 -1.21875 2.390625 -1.859375q1.484375 -0.65625 3.1875 -0.65625q2.328125 0 3.84375 1.28125q1.53125 1.28125 1.53125 3.421875q0 1.953125 -1.65625 4.109375q-1.640625 2.140625 -6.125 5.65625l7.84375 0l0 1.78125l-10.984375 0zm20.158813 0.28125q-2.78125 0 -4.453125 -2.28125q-1.671875 -2.296875 -1.671875 -5.984375q0 -3.734375 1.6875 -6.0q1.703125 -2.265625 4.4375 -2.265625q1.875 0 3.25 1.078125q1.375 1.0625 2.125 2.96875q0.75 1.890625 0.75 4.21875q0 2.296875 -0.75 4.21875q-0.75 1.921875 -2.125 2.984375q-1.359375 1.0625 -3.25 1.0625zm0 -1.765625q1.921875 0 3.0 -1.71875q1.078125 -1.734375 1.078125 -4.78125q0 -3.078125 -1.078125 -4.78125q-1.078125 -1.703125 -3.0 -1.703125q-1.921875 0 -3.0 1.703125q-1.078125 1.703125 -1.078125 4.78125q0 3.046875 1.0625 4.78125q1.078125 1.71875 3.015625 1.71875z" fill-rule="nonzero"></path><path fill="#3c78d8" d="m354.81528 296.32568l75.14963 0l0 54.362213l-75.14963 0z" fill-rule="evenodd"></path><path stroke="#434343" stroke-width="2.0" stroke-linejoin="round" stroke-linecap="butt" d="m354.81528 296.32568l75.14963 0l0 54.362213l-75.14963 0z" fill-rule="evenodd"></path><path fill="#ffffff" d="m385.50775 332.04678l0 -13.375l-2.5625 2.71875l-1.203125 -1.21875l4.015625 -4.140625l1.75 0l0 16.015625l-2.0 0zm11.089081 0.28125q-3.6875 0 -5.640625 -2.5625l1.234375 -1.3125q1.65625 2.109375 4.40625 2.109375q1.609375 0 2.65625 -0.96875q1.046875 -0.984375 1.046875 -2.46875q0 -1.515625 -1.0 -2.484375q-1.0 -0.96875 -2.671875 -0.96875q-2.140625 0 -3.703125 1.515625l-1.453125 -0.515625l0 -8.640625l9.78125 0l0 1.78125l-7.796875 0l0 5.578125q0.578125 -0.578125 1.546875 -1.015625q0.96875 -0.4375 2.203125 -0.4375q2.1875 0 3.625 1.421875q1.453125 1.421875 1.453125 3.703125q0 2.375 -1.578125 3.828125q-1.5625 1.4375 -4.109375 1.4375z" fill-rule="nonzero"></path><path fill="#000000" fill-opacity="0.0" d="m392.3805 350.78275l-46.362213 69.57483" fill-rule="evenodd"></path><path stroke="#595959" stroke-width="1.0" stroke-linejoin="round" stroke-linecap="butt" d="m392.3805 350.78275l-46.362213 69.57483" fill-rule="evenodd"></path><path fill="#3c78d8" d="m308.44348 420.35757l75.1496 0l0 54.362183l-75.1496 0z" fill-rule="evenodd"></path><path stroke="#434343" stroke-width="2.0" stroke-linejoin="round" stroke-linecap="butt" d="m308.44348 420.35757l75.1496 0l0 54.362183l-75.1496 0z" fill-rule="evenodd"></path><path fill="#ffffff" d="m338.87195 456.07867l0 -13.375l-2.5625 2.71875l-1.203125 -1.21875l4.015625 -4.140625l1.75 0l0 16.015625l-2.0 0zm11.214081 0.28125q-2.78125 0 -4.453125 -2.28125q-1.671875 -2.296875 -1.671875 -5.984375q0 -3.734375 1.6875 -6.0q1.703125 -2.265625 4.4375 -2.265625q1.875 0 3.25 1.078125q1.375 1.0625 2.125 2.96875q0.75 1.890625 0.75 4.21875q0 2.296875 -0.75 4.21875q-0.75 1.921875 -2.125 2.984375q-1.359375 1.0625 -3.25 1.0625zm0 -1.765625q1.921875 0 3.0 -1.71875q1.078125 -1.734375 1.078125 -4.78125q0 -3.078125 -1.078125 -4.78125q-1.078125 -1.703125 -3.0 -1.703125q-1.921875 0 -3.0 1.703125q-1.078125 1.703125 -1.078125 4.78125q0 3.046875 1.0625 4.78125q1.078125 1.71875 3.015625 1.71875z" fill-rule="nonzero"></path></g></svg>

