<?xml version="1.0" standalone="yes"?>

<svg version="1.1" viewBox="0.0 0.0 960.0 540.0" fill="none" stroke="none" stroke-linecap="square" stroke-miterlimit="10" xmlns="http://www.w3.org/2000/svg" xmlns:xlink="http://www.w3.org/1999/xlink"><clipPath id="g2a56d30cab_0_238.0"><path d="m0 0l960.0 0l0 540.0l-960.0 0l0 -540.0z" clip-rule="nonzero"></path></clipPath><g clip-path="url(#g2a56d30cab_0_238.0)"><path fill="#ffffff" d="m0 0l960.0 0l0 540.0l-960.0 0z" fill-rule="evenodd"></path><path fill="#3c78d8" d="m232.021 13.582677l460.34644 0l0 51.464565l-460.34644 0z" fill-rule="evenodd"></path><path stroke="#434343" stroke-width="2.0" stroke-linejoin="round" stroke-linecap="butt" d="m232.021 13.582677l460.34644 0l0 51.464565l-460.34644 0z" fill-rule="evenodd"></path><path fill="#ffffff" d="m232.021 13.582677l91.62204 0l0 51.464565l-91.62204 0z" fill-rule="evenodd"></path><path stroke="#434343" stroke-width="2.0" stroke-linejoin="round" stroke-linecap="butt" d="m232.021 13.582677l91.62204 0l0 51.464565l-91.62204 0z" fill-rule="evenodd"></path><path fill="#000000" d="m272.0729 47.854958l0 -1.578125q4.21875 -3.34375 5.796875 -4.859375q1.59375 -1.53125 2.328125 -2.734375q0.75 -1.21875 0.75 -2.375q0 -1.3125 -0.90625 -2.109375q-0.90625 -0.8125 -2.421875 -0.8125q-2.8125 0 -4.34375 2.015625l-1.234375 -1.28125q0.921875 -1.21875 2.390625 -1.859375q1.484375 -0.6562481 3.1875 -0.6562481q2.328125 0 3.84375 1.2812481q1.53125 1.28125 1.53125 3.421875q0 1.953125 -1.65625 4.109375q-1.640625 2.140625 -6.125 5.65625l7.84375 0l0 1.78125l-10.984375 0z" fill-rule="nonzero"></path><path fill="#ffffff" d="m323.63416 13.582677l91.62204 0l0 51.464565l-91.62204 0z" fill-rule="evenodd"></path><path stroke="#434343" stroke-width="2.0" stroke-linejoin="round" stroke-linecap="butt" d="m323.63416 13.582677l91.62204 0l0 51.464565l-91.62204 0z" fill-rule="evenodd"></path><path fill="#000000" d="m369.45755 48.136208q-2.59375 0 -4.171875 -1.21875q-1.5625 -1.21875 -1.5625 -3.125q0 -1.390625 1.015625 -2.53125q1.015625 -1.140625 2.796875 -1.65625q-1.609375 -0.46875 -2.578125 -1.453125q-0.96875 -1.0 -0.96875 -2.390625q0 -1.875 1.53125 -3.015625q1.53125 -1.1406231 3.9375 -1.1406231q2.421875 0 3.953125 1.1562481q1.546875 1.15625 1.546875 3.0q0 1.359375 -0.953125 2.375q-0.953125 1.0 -2.625 1.46875q1.75 0.5 2.78125 1.640625q1.03125 1.140625 1.03125 2.546875q0 1.953125 -1.640625 3.15625q-1.625 1.1875 -4.09375 1.1875zm0 -9.359375q3.484375 -0.6875 3.484375 -2.75q0 -1.1875 -0.984375 -1.90625q-0.96875 -0.734375 -2.5 -0.734375q-1.53125 0 -2.515625 0.734375q-0.96875 0.71875 -0.96875 1.90625q0 2.0625 3.484375 2.75zm0 7.59375q1.5625 0 2.640625 -0.765625q1.078125 -0.78125 1.078125 -2.015625q0 -1.140625 -1.09375 -2.015625q-1.09375 -0.890625 -2.625 -1.09375q-1.515625 0.203125 -2.640625 1.078125q-1.109375 0.875 -1.109375 2.03125q0 1.234375 1.078125 2.015625q1.09375 0.765625 2.671875 0.765625z" fill-rule="nonzero"></path><path fill="#ffffff" d="m414.5856 13.582677l91.62204 0l0 51.464565l-91.62204 0z" fill-rule="evenodd"></path><path stroke="#434343" stroke-width="2.0" stroke-linejoin="round" stroke-linecap="butt" d="m414.5856 13.582677l91.62204 0l0 51.464565l-91.62204 0z" fill-rule="evenodd"></path><path fill="#000000" d="m457.1229 47.854958l6.453125 -14.234375l-8.609375 0l0 -1.7812481l10.90625 0l0 1.3749981l-6.546875 14.640625l-2.203125 0z" fill-rule="nonzero"></path><path fill="#ffffff" d="m506.19873 13.582677l95.212585 0l0 51.464565l-95.212585 0z" fill-rule="evenodd"></path><path stroke="#434343" stroke-width="2.0" stroke-linejoin="round" stroke-linecap="butt" d="m506.19873 13.582677l95.212585 0l0 51.464565l-95.212585 0z" fill-rule="evenodd"></path><path fill="#000000" d="m554.0027 47.854958l0 -13.375l-2.5625 2.71875l-1.203125 -1.21875l4.015625 -4.140623l1.75 0l0 16.015623l-2.0 0z" fill-rule="nonzero"></path><path fill="#ffffff" d="m601.4211 13.582677l91.62201 0l0 51.464565l-91.62201 0z" fill-rule="evenodd"></path><path stroke="#000000" stroke-width="2.0" stroke-linejoin="round" stroke-linecap="butt" d="m601.4211 13.582677l91.62201 0l0 51.464565l-91.62201 0z" fill-rule="evenodd"></path><path fill="#000000" d="m646.9387 48.136208q-2.046875 0 -3.5 -0.765625q-1.453125 -0.78125 -2.1875 -1.875l1.171875 -1.234375q0.6875 0.9375 1.84375 1.53125q1.171875 0.578125 2.625 0.578125q1.75 0 2.734375 -0.796875q1.0 -0.8125 1.0 -2.203125q0 -1.421875 -1.046875 -2.125q-1.046875 -0.703125 -2.9375 -0.703125l-0.984375 0l-0.671875 0.015625l0 -1.828125l0.703125 0.03125l0.953125 0q1.734375 0 2.71875 -0.703125q1.0 -0.71875 1.0 -1.9375q0 -1.21875 -1.0 -1.96875q-0.984375 -0.765625 -2.578125 -0.765625q-2.421875 0 -4.21875 1.9375l-1.109375 -1.25q2.015625 -2.468748 5.484375 -2.468748q2.4375 0 3.921875 1.1718731q1.5 1.15625 1.5 3.109375q0 1.4375 -0.984375 2.453125q-0.984375 1.015625 -2.46875 1.265625q1.5 0.109375 2.59375 1.234375q1.09375 1.109375 1.09375 2.703125q0 2.078125 -1.5625 3.34375q-1.5625 1.25 -4.09375 1.25z" fill-rule="nonzero"></path><path fill="#ffffff" d="m692.3725 13.582677l91.62207 0l0 51.464565l-91.62207 0z" fill-rule="evenodd"></path><path stroke="#0000ff" stroke-width="4.0" stroke-linejoin="round" stroke-linecap="butt" d="m692.3725 13.582677l91.62207 0l0 51.464565l-91.62207 0z" fill-rule="evenodd"></path><path fill="#000000" d="m738.3223 48.136208q-3.6875 0 -5.640625 -2.5625l1.234375 -1.3125q1.65625 2.109375 4.40625 2.109375q1.609375 0 2.65625 -0.96875q1.046875 -0.984375 1.046875 -2.46875q0 -1.515625 -1.0 -2.484375q-1.0 -0.96875 -2.671875 -0.96875q-2.140625 0 -3.703125 1.515625l-1.453125 -0.515625l0 -8.640623l9.78125 0l0 1.7812481l-7.796875 0l0 5.578125q0.578125 -0.578125 1.546875 -1.015625q0.96875 -0.4375 2.203125 -0.4375q2.1875 0 3.625 1.421875q1.453125 1.421875 1.453125 3.703125q0 2.375 -1.578125 3.828125q-1.5625 1.4375 -4.109375 1.4375z" fill-rule="nonzero"></path><path fill="#ffffff" d="m240.64633 169.75789l68.31497 0l0 40.188965l-68.31497 0z" fill-rule="evenodd"></path><path stroke="#0000ff" stroke-width="3.0" stroke-linejoin="round" stroke-linecap="butt" d="m240.64633 169.75789l68.31497 0l0 40.188965l-68.31497 0z" fill-rule="evenodd"></path><path fill="#000000" d="m274.51047 198.67361q-2.046875 0 -3.5 -0.765625q-1.453125 -0.78125 -2.1875 -1.875l1.171875 -1.234375q0.6875 0.9375 1.84375 1.53125q1.171875 0.578125 2.625 0.578125q1.75 0 2.734375 -0.796875q1.0 -0.8125 1.0 -2.203125q0 -1.421875 -1.046875 -2.125q-1.046875 -0.703125 -2.9375 -0.703125l-0.984375 0l-0.671875 0.015625l0 -1.828125l0.703125 0.03125l0.953125 0q1.734375 0 2.71875 -0.703125q1.0 -0.71875 1.0 -1.9375q0 -1.21875 -1.0 -1.96875q-0.984375 -0.765625 -2.578125 -0.765625q-2.421875 0 -4.21875 1.9375l-1.109375 -1.25q2.015625 -2.46875 5.484375 -2.46875q2.4375 0 3.921875 1.171875q1.5 1.15625 1.5 3.109375q0 1.4375 -0.984375 2.453125q-0.984375 1.015625 -2.46875 1.265625q1.5 0.109375 2.59375 1.234375q1.09375 1.109375 1.09375 2.703125q0 2.078125 -1.5625 3.34375q-1.5625 1.25 -4.09375 1.25z" fill-rule="nonzero"></path><path fill="#ffffff" d="m308.97385 96.27034l68.31497 0l0 40.18898l-68.31497 0z" fill-rule="evenodd"></path><path stroke="#0000ff" stroke-width="4.0" stroke-linejoin="round" stroke-linecap="butt" d="m308.97385 96.27034l68.31497 0l0 40.18898l-68.31497 0z" fill-rule="evenodd"></path><path fill="#000000" d="m343.27008 125.18608q-3.6874695 0 -5.6405945 -2.5625l1.234375 -1.3125q1.65625 2.109375 4.4062195 2.109375q1.609375 0 2.65625 -0.96875q1.046875 -0.984375 1.046875 -2.46875q0 -1.515625 -1.0 -2.484375q-1.0 -0.96875 -2.671875 -0.96875q-2.140625 0 -3.7030945 1.515625l-1.453125 -0.515625l0 -8.640625l9.7812195 0l0 1.78125l-7.7968445 0l0 5.578125q0.578125 -0.578125 1.5468445 -1.015625q0.96875 -0.4375 2.203125 -0.4375q2.1875 0 3.625 1.421875q1.453125 1.421875 1.453125 3.703125q0 2.375 -1.578125 3.828125q-1.5625 1.4375 -4.109375 1.4375z" fill-rule="nonzero"></path><path fill="#000000" fill-opacity="0.0" d="m343.13132 136.45932l-68.31494 33.291336" fill-rule="evenodd"></path><path stroke="#595959" stroke-width="1.0" stroke-linejoin="round" stroke-linecap="butt" d="m343.13132 136.45932l-68.31494 33.291336" fill-rule="evenodd"></path><path fill="#000000" fill-opacity="0.0" d="m343.13132 136.45932l83.590546 36.15747" fill-rule="evenodd"></path><path stroke="#595959" stroke-width="1.0" stroke-linejoin="round" stroke-linecap="butt" d="m343.13132 136.45932l83.590546 36.15747" fill-rule="evenodd"></path><path fill="#ffffff" d="m184.30708 237.18271l71.02362 0l0 40.188965l-71.02362 0z" fill-rule="evenodd"></path><path stroke="#0000ff" stroke-width="3.0" stroke-linejoin="round" stroke-linecap="butt" d="m184.30708 237.18271l71.02362 0l0 40.188965l-71.02362 0z" fill-rule="evenodd"></path><path fill="#000000" d="m220.01654 265.8172l0 -13.375015l-2.5625 2.71875l-1.203125 -1.21875l4.015625 -4.140625l1.75 0l0 16.01564l-2.0 0z" fill-rule="nonzero"></path><path fill="#000000" fill-opacity="0.0" d="m274.8038 209.94685l-54.99211 27.244095" fill-rule="evenodd"></path><path stroke="#595959" stroke-width="1.0" stroke-linejoin="round" stroke-linecap="butt" d="m274.8038 209.94685l-54.99211 27.244095" fill-rule="evenodd"></path><path fill="#ffffff" d="m392.56888 172.61449l68.31494 0l0 40.18898l-68.31494 0z" fill-rule="evenodd"></path><path stroke="#0000ff" stroke-width="3.0" stroke-linejoin="round" stroke-linecap="butt" d="m392.56888 172.61449l68.31494 0l0 40.18898l-68.31494 0z" fill-rule="evenodd"></path><path fill="#000000" d="m426.73874 201.53023q-2.59375 0 -4.171875 -1.21875q-1.5625 -1.21875 -1.5625 -3.125q0 -1.390625 1.015625 -2.53125q1.015625 -1.140625 2.796875 -1.65625q-1.609375 -0.46875 -2.578125 -1.453125q-0.96875 -1.0 -0.96875 -2.390625q0 -1.875 1.53125 -3.015625q1.53125 -1.140625 3.9375 -1.140625q2.421875 0 3.953125 1.15625q1.546875 1.15625 1.546875 3.0q0 1.359375 -0.953125 2.375q-0.953125 1.0 -2.625 1.46875q1.75 0.5 2.78125 1.640625q1.03125 1.140625 1.03125 2.546875q0 1.953125 -1.640625 3.15625q-1.625 1.1875 -4.09375 1.1875zm0 -9.359375q3.484375 -0.6875 3.484375 -2.75q0 -1.1875 -0.984375 -1.90625q-0.96875 -0.734375 -2.5 -0.734375q-1.53125 0 -2.515625 0.734375q-0.96875 0.71875 -0.96875 1.90625q0 2.0625 3.484375 2.75zm0 7.59375q1.5625 0 2.640625 -0.765625q1.078125 -0.78125 1.078125 -2.015625q0 -1.140625 -1.09375 -2.015625q-1.09375 -0.890625 -2.625 -1.09375q-1.515625 0.203125 -2.640625 1.078125q-1.109375 0.875 -1.109375 2.03125q0 1.234375 1.078125 2.015625q1.09375 0.765625 2.671875 0.765625z" fill-rule="nonzero"></path><path fill="#ffffff" d="m343.13745 237.18373l68.31497 0l0 40.18898l-68.31497 0z" fill-rule="evenodd"></path><path stroke="#434343" stroke-width="2.0" stroke-linejoin="round" stroke-linecap="butt" d="m343.13745 237.18373l68.31497 0l0 40.18898l-68.31497 0z" fill-rule="evenodd"></path><path fill="#000000" d="m374.0212 265.8182l6.453125 -14.23436l-8.609375 0l0 -1.78125l10.90625 0l0 1.375l-6.546875 14.64061l-2.203125 0z" fill-rule="nonzero"></path><path fill="#000000" fill-opacity="0.0" d="m377.29495 237.18373l49.417297 -24.37796" fill-rule="evenodd"></path><path stroke="#595959" stroke-width="1.0" stroke-linejoin="round" stroke-linecap="butt" d="m377.29495 237.18373l49.417297 -24.37796" fill-rule="evenodd"></path><path fill="#ffffff" d="m243.92795 298.88715l68.31497 0l0 40.188965l-68.31497 0z" fill-rule="evenodd"></path><path stroke="#434343" stroke-width="2.0" stroke-linejoin="round" stroke-linecap="butt" d="m243.92795 298.88715l68.31497 0l0 40.188965l-68.31497 0z" fill-rule="evenodd"></path><path fill="#000000" d="m272.32632 327.52164l0 -1.578125q4.21875 -3.34375 5.796875 -4.859375q1.59375 -1.53125 2.328125 -2.734375q0.75 -1.21875 0.75 -2.375q0 -1.3125 -0.90625 -2.109375q-0.90625 -0.8125 -2.421875 -0.8125q-2.8125 0 -4.34375 2.015625l-1.234375 -1.28125q0.921875 -1.21875 2.390625 -1.859375q1.484375 -0.65625 3.1875 -0.65625q2.328125 0 3.84375 1.28125q1.53125 1.28125 1.53125 3.421875q0 1.953125 -1.65625 4.109375q-1.640625 2.140625 -6.125 5.65625l7.84375 0l0 1.78125l-10.984375 0z" fill-rule="nonzero"></path><path fill="#000000" fill-opacity="0.0" d="m219.8189 277.37167l58.267715 21.51181" fill-rule="evenodd"></path><path stroke="#595959" stroke-width="1.0" stroke-linejoin="round" stroke-linecap="butt" d="m219.8189 277.37167l58.267715 21.51181" fill-rule="evenodd"></path><path fill="#000000" fill-opacity="0.0" d="m730.3898 28.178183l59.905518 0l0 17.13386l-59.905518 0z" fill-rule="evenodd"></path><path fill="#000000" d="m745.3429 54.46641q-1.96875 0 -3.109375 -1.625l0 4.890625l-1.421875 0l0 -12.671875l1.421875 0l0 1.359375q0.5 -0.703125 1.3125 -1.140625q0.828125 -0.453125 1.796875 -0.453125q1.84375 0 2.953125 1.296875q1.125 1.28125 1.125 3.515625q0 2.203125 -1.109375 3.515625q-1.109375 1.3125 -2.96875 1.3125zm-0.359375 -1.28125q1.328125 0 2.125 -0.96875q0.8125 -0.96875 0.8125 -2.578125q0 -1.578125 -0.796875 -2.546875q-0.796875 -0.984375 -2.140625 -0.984375q-0.859375 0 -1.609375 0.421875q-0.75 0.421875 -1.140625 1.03125l0 4.140625q0.390625 0.609375 1.140625 1.046875q0.75 0.4375 1.609375 0.4375zm7.2026367 -9.4375q-0.375 0 -0.671875 -0.265625q-0.28125 -0.28125 -0.28125 -0.6875q0 -0.40625 0.28125 -0.6875q0.296875 -0.28125 0.671875 -0.28125q0.40625 0 0.6875 0.28125q0.28125 0.28125 0.28125 0.6875q0 0.40625 -0.28125 0.6875q-0.28125 0.265625 -0.6875 0.265625zm-0.703125 10.484375l0 -9.171875l1.421875 0l0 9.171875l-1.421875 0zm6.650757 0l-3.8125 -9.171875l1.53125 0l3.0625 7.515625l3.03125 -7.515625l1.5625 0l-3.8125 9.171875l-1.5625 0zm10.704102 0.234375q-2.0 0 -3.28125 -1.359375q-1.265625 -1.359375 -1.265625 -3.46875q0 -2.125 1.265625 -3.46875q1.28125 -1.34375 3.28125 -1.34375q1.984375 0 3.25 1.34375q1.28125 1.34375 1.28125 3.46875q0 2.109375 -1.28125 3.46875q-1.265625 1.359375 -3.25 1.359375zm0 -1.28125q1.328125 0 2.171875 -1.0q0.859375 -1.0 0.859375 -2.546875q0 -1.546875 -0.859375 -2.53125q-0.84375 -1.0 -2.171875 -1.0q-1.328125 0 -2.203125 0.984375q-0.859375 0.984375 -0.859375 2.546875q0 1.578125 0.84375 2.5625q0.859375 0.984375 2.21875 0.984375zm8.983826 1.28125q-2.046875 0 -2.046875 -2.15625l0 -6.0l-1.515625 0l0 -1.25l1.515625 0l0 -2.515625l1.4375 0l0 2.515625l1.859375 0l0 1.25l-1.859375 0l0 5.703125q0 0.515625 0.21875 0.84375q0.234375 0.328125 0.703125 0.328125q0.59375 0 0.96875 -0.375l0.421875 1.0625q-0.59375 0.59375 -1.703125 0.59375z" fill-rule="nonzero"></path><path fill="#ffffff" d="m555.5965 177.0794l68.31494 0l0 40.18898l-68.31494 0z" fill-rule="evenodd"></path><path stroke="#0000ff" stroke-width="3.0" stroke-linejoin="round" stroke-linecap="butt" d="m555.5965 177.0794l68.31494 0l0 40.18898l-68.31494 0z" fill-rule="evenodd"></path><path fill="#000000" d="m589.4606 205.99515q-2.046875 0 -3.5 -0.765625q-1.453125 -0.78125 -2.1875 -1.875l1.171875 -1.234375q0.6875 0.9375 1.84375 1.53125q1.171875 0.578125 2.625 0.578125q1.75 0 2.734375 -0.796875q1.0 -0.8125 1.0 -2.203125q0 -1.421875 -1.046875 -2.125q-1.046875 -0.703125 -2.9375 -0.703125l-0.984375 0l-0.671875 0.015625l0 -1.828125l0.703125 0.03125l0.953125 0q1.734375 0 2.71875 -0.703125q1.0 -0.71875 1.0 -1.9375q0 -1.21875 -1.0 -1.96875q-0.984375 -0.765625 -2.578125 -0.765625q-2.421875 0 -4.21875 1.9375l-1.109375 -1.25q2.015625 -2.46875 5.484375 -2.46875q2.4375 0 3.921875 1.171875q1.5 1.15625 1.5 3.109375q0 1.4375 -0.984375 2.453125q-0.984375 1.015625 -2.46875 1.265625q1.5 0.109375 2.59375 1.234375q1.09375 1.109375 1.09375 2.703125q0 2.078125 -1.5625 3.34375q-1.5625 1.25 -4.09375 1.25z" fill-rule="nonzero"></path><path fill="#ffffff" d="m623.92395 103.591866l68.315 0l0 40.188972l-68.315 0z" fill-rule="evenodd"></path><path stroke="#0000ff" stroke-width="4.0" stroke-linejoin="round" stroke-linecap="butt" d="m623.92395 103.591866l68.315 0l0 40.188972l-68.315 0z" fill-rule="evenodd"></path><path fill="#000000" d="m658.2202 132.5076q-3.6875 0 -5.640625 -2.5625l1.234375 -1.3125q1.65625 2.109375 4.40625 2.109375q1.609375 0 2.65625 -0.96875q1.046875 -0.984375 1.046875 -2.46875q0 -1.515625 -1.0 -2.484375q-1.0 -0.96875 -2.671875 -0.96875q-2.140625 0 -3.703125 1.515625l-1.453125 -0.515625l0 -8.640625l9.78125 0l0 1.78125l-7.796875 0l0 5.578125q0.578125 -0.578125 1.546875 -1.015625q0.96875 -0.4375 2.203125 -0.4375q2.1875 0 3.625 1.421875q1.453125 1.421875 1.453125 3.703125q0 2.375 -1.578125 3.828125q-1.5625 1.4375 -4.109375 1.4375z" fill-rule="nonzero"></path><path fill="#000000" fill-opacity="0.0" d="m658.0815 143.78084l-68.315 33.291336" fill-rule="evenodd"></path><path stroke="#595959" stroke-width="1.0" stroke-linejoin="round" stroke-linecap="butt" d="m658.0815 143.78084l-68.315 33.291336" fill-rule="evenodd"></path><path fill="#000000" fill-opacity="0.0" d="m658.0815 143.78084l125.35431 40.566925" fill-rule="evenodd"></path><path stroke="#595959" stroke-width="1.0" stroke-linejoin="round" stroke-linecap="butt" d="m658.0815 143.78084l125.35431 40.566925" fill-rule="evenodd"></path><path fill="#ffffff" d="m499.25723 244.50423l71.02359 0l0 40.18898l-71.02359 0z" fill-rule="evenodd"></path><path stroke="#0000ff" stroke-width="3.0" stroke-linejoin="round" stroke-linecap="butt" d="m499.25723 244.50423l71.02359 0l0 40.18898l-71.02359 0z" fill-rule="evenodd"></path><path fill="#000000" d="m534.9667 273.1387l0 -13.375l-2.5625 2.71875l-1.203125 -1.21875l4.015625 -4.140625l1.75 0l0 16.015625l-2.0 0z" fill-rule="nonzero"></path><path fill="#000000" fill-opacity="0.0" d="m589.75397 217.26839l-54.992126 27.244095" fill-rule="evenodd"></path><path stroke="#595959" stroke-width="1.0" stroke-linejoin="round" stroke-linecap="butt" d="m589.75397 217.26839l-54.992126 27.244095" fill-rule="evenodd"></path><path fill="#ffffff" d="m749.2828 184.33234l68.31494 0l0 40.188965l-68.31494 0z" fill-rule="evenodd"></path><path stroke="#0000ff" stroke-width="3.0" stroke-linejoin="round" stroke-linecap="butt" d="m749.2828 184.33234l68.31494 0l0 40.188965l-68.31494 0z" fill-rule="evenodd"></path><path fill="#000000" d="m783.45264 213.24806q-2.59375 0 -4.171875 -1.21875q-1.5625 -1.21875 -1.5625 -3.125q0 -1.390625 1.015625 -2.53125q1.015625 -1.140625 2.796875 -1.65625q-1.609375 -0.46875 -2.578125 -1.453125q-0.96875 -1.0 -0.96875 -2.390625q0 -1.875 1.53125 -3.015625q1.53125 -1.140625 3.9375 -1.140625q2.421875 0 3.953125 1.15625q1.546875 1.15625 1.546875 3.0q0 1.359375 -0.953125 2.375q-0.953125 1.0 -2.625 1.46875q1.75 0.5 2.78125 1.640625q1.03125 1.140625 1.03125 2.546875q0 1.953125 -1.640625 3.15625q-1.625 1.1875 -4.09375 1.1875zm0 -9.359375q3.484375 -0.6875 3.484375 -2.75q0 -1.1875 -0.984375 -1.90625q-0.96875 -0.734375 -2.5 -0.734375q-1.53125 0 -2.515625 0.734375q-0.96875 0.71875 -0.96875 1.90625q0 2.0625 3.484375 2.75zm0 7.59375q1.5625 0 2.640625 -0.765625q1.078125 -0.78125 1.078125 -2.015625q0 -1.140625 -1.09375 -2.015625q-1.09375 -0.890625 -2.625 -1.09375q-1.515625 0.203125 -2.640625 1.078125q-1.109375 0.875 -1.109375 2.03125q0 1.234375 1.078125 2.015625q1.09375 0.765625 2.671875 0.765625z" fill-rule="nonzero"></path><path fill="#ffffff" d="m680.9695 184.33202l68.31494 0l0 40.18898l-68.31494 0z" fill-rule="evenodd"></path><path stroke="#434343" stroke-width="2.0" stroke-linejoin="round" stroke-linecap="butt" d="m680.9695 184.33202l68.31494 0l0 40.18898l-68.31494 0z" fill-rule="evenodd"></path><path fill="#000000" d="m711.8532 212.9665l6.453125 -14.234375l-8.609375 0l0 -1.78125l10.90625 0l0 1.375l-6.546875 14.640625l-2.203125 0z" fill-rule="nonzero"></path><path fill="#ffffff" d="m570.27966 244.50525l68.31494 0l0 40.188995l-68.31494 0z" fill-rule="evenodd"></path><path stroke="#434343" stroke-width="2.0" stroke-linejoin="round" stroke-linecap="butt" d="m570.27966 244.50525l68.31494 0l0 40.188995l-68.31494 0z" fill-rule="evenodd"></path><path fill="#000000" d="m598.67804 273.13974l0 -1.578125q4.21875 -3.34375 5.796875 -4.859375q1.59375 -1.53125 2.328125 -2.734375q0.75 -1.21875 0.75 -2.375q0 -1.3125 -0.90625 -2.109375q-0.90625 -0.8125 -2.421875 -0.8125q-2.8125 0 -4.34375 2.015625l-1.234375 -1.28125q0.921875 -1.21875 2.390625 -1.859375q1.484375 -0.65625 3.1875 -0.65625q2.328125 0 3.84375 1.28125q1.53125 1.28125 1.53125 3.421875q0 1.953125 -1.65625 4.109375q-1.640625 2.140625 -6.125 5.65625l7.84375 0l0 1.78125l-10.984375 0z" fill-rule="nonzero"></path><path fill="#ffffff" d="m206.334 460.08466l68.31496 0l0 40.188965l-68.31496 0z" fill-rule="evenodd"></path><path stroke="#0000ff" stroke-width="3.0" stroke-linejoin="round" stroke-linecap="butt" d="m206.334 460.08466l68.31496 0l0 40.188965l-68.31496 0z" fill-rule="evenodd"></path><path fill="#000000" d="m240.19812 489.0004q-2.046875 0 -3.5 -0.765625q-1.453125 -0.78125 -2.1875 -1.875l1.171875 -1.234375q0.6875 0.9375 1.84375 1.53125q1.171875 0.578125 2.625 0.578125q1.75 0 2.734375 -0.796875q1.0 -0.8125 1.0 -2.203125q0 -1.421875 -1.046875 -2.125q-1.046875 -0.703125 -2.9375 -0.703125l-0.984375 0l-0.671875 0.015625l0 -1.828125l0.703125 0.03125l0.953125 0q1.734375 0 2.71875 -0.703125q1.0 -0.71875 1.0 -1.9375q0 -1.21875 -1.0 -1.96875q-0.984375 -0.765625 -2.578125 -0.765625q-2.421875 0 -4.21875 1.9375l-1.109375 -1.25q2.015625 -2.46875 5.484375 -2.46875q2.4375 0 3.921875 1.171875q1.5 1.15625 1.5 3.109375q0 1.4375 -0.984375 2.453125q-0.984375 1.015625 -2.46875 1.265625q1.5 0.109375 2.59375 1.234375q1.09375 1.109375 1.09375 2.703125q0 2.078125 -1.5625 3.34375q-1.5625 1.25 -4.09375 1.25z" fill-rule="nonzero"></path><path fill="#ffffff" d="m285.63 382.09055l68.31497 0l0 40.188995l-68.31497 0z" fill-rule="evenodd"></path><path stroke="#0000ff" stroke-width="4.0" stroke-linejoin="round" stroke-linecap="butt" d="m285.63 382.09055l68.31497 0l0 40.188995l-68.31497 0z" fill-rule="evenodd"></path><path fill="#000000" d="m319.92627 411.0063q-3.6875 0 -5.640625 -2.5625l1.234375 -1.3125q1.65625 2.109375 4.40625 2.109375q1.609375 0 2.65625 -0.96875q1.046875 -0.984375 1.046875 -2.46875q0 -1.515625 -1.0 -2.484375q-1.0 -0.96875 -2.671875 -0.96875q-2.140625 0 -3.703125 1.515625l-1.453125 -0.515625l0 -8.640625l9.78125 0l0 1.78125l-7.796875 0l0 5.578125q0.578125 -0.578125 1.546875 -1.015625q0.96875 -0.4375 2.203125 -0.4375q2.1875 0 3.625 1.421875q1.453125 1.421875 1.453125 3.703125q0 2.375 -1.578125 3.828125q-1.5625 1.4375 -4.109375 1.4375z" fill-rule="nonzero"></path><path fill="#000000" fill-opacity="0.0" d="m319.7875 422.27954l-79.3071 37.795258" fill-rule="evenodd"></path><path stroke="#595959" stroke-width="1.0" stroke-linejoin="round" stroke-linecap="butt" d="m319.7875 422.27954l-79.3071 37.795258" fill-rule="evenodd"></path><path fill="#000000" fill-opacity="0.0" d="m319.7875 422.27954l91.62204 40.566925" fill-rule="evenodd"></path><path stroke="#595959" stroke-width="1.0" stroke-linejoin="round" stroke-linecap="butt" d="m319.7875 422.27954l91.62204 40.566925" fill-rule="evenodd"></path><path fill="#ffffff" d="m64.367455 460.0843l71.02363 0l0 40.188965l-71.02363 0z" fill-rule="evenodd"></path><path stroke="#0000ff" stroke-width="3.0" stroke-linejoin="round" stroke-linecap="butt" d="m64.367455 460.0843l71.02363 0l0 40.188965l-71.02363 0z" fill-rule="evenodd"></path><path fill="#000000" d="m100.076904 488.71875l0 -13.375l-2.5625 2.71875l-1.203125 -1.21875l4.015625 -4.140625l1.75 0l0 16.015625l-2.0 0z" fill-rule="nonzero"></path><path fill="#ffffff" d="m377.25128 462.83102l68.31497 0l0 40.188965l-68.31497 0z" fill-rule="evenodd"></path><path stroke="#0000ff" stroke-width="3.0" stroke-linejoin="round" stroke-linecap="butt" d="m377.25128 462.83102l68.31497 0l0 40.188965l-68.31497 0z" fill-rule="evenodd"></path><path fill="#000000" d="m411.42117 491.74677q-2.59375 0 -4.171875 -1.21875q-1.5625 -1.21875 -1.5625 -3.125q0 -1.390625 1.015625 -2.53125q1.015625 -1.140625 2.796875 -1.65625q-1.609375 -0.46875 -2.578125 -1.453125q-0.96875 -1.0 -0.96875 -2.390625q0 -1.875 1.53125 -3.015625q1.53125 -1.140625 3.9375 -1.140625q2.421875 0 3.953125 1.15625q1.546875 1.15625 1.546875 3.0q0 1.359375 -0.953125 2.375q-0.953125 1.0 -2.625 1.46875q1.75 0.5 2.78125 1.640625q1.03125 1.140625 1.03125 2.546875q0 1.953125 -1.640625 3.15625q-1.625 1.1875 -4.09375 1.1875zm0 -9.359375q3.484375 -0.6875 3.484375 -2.75q0 -1.1875 -0.984375 -1.90625q-0.96875 -0.734375 -2.5 -0.734375q-1.53125 0 -2.515625 0.734375q-0.96875 0.71875 -0.96875 1.90625q0 2.0625 3.484375 2.75zm0 7.59375q1.5625 0 2.640625 -0.765625q1.078125 -0.78125 1.078125 -2.015625q0 -1.140625 -1.09375 -2.015625q-1.09375 -0.890625 -2.625 -1.09375q-1.515625 0.203125 -2.640625 1.078125q-1.109375 0.875 -1.109375 2.03125q0 1.234375 1.078125 2.015625q1.09375 0.765625 2.671875 0.765625z" fill-rule="nonzero"></path><path fill="#ffffff" d="m308.9301 462.83072l68.31494 0l0 40.188965l-68.31494 0z" fill-rule="evenodd"></path><path stroke="#434343" stroke-width="2.0" stroke-linejoin="round" stroke-linecap="butt" d="m308.9301 462.83072l68.31494 0l0 40.188965l-68.31494 0z" fill-rule="evenodd"></path><path fill="#000000" d="m339.81384 491.4652l6.453125 -14.234375l-8.609375 0l0 -1.78125l10.90625 0l0 1.375l-6.546875 14.640625l-2.203125 0z" fill-rule="nonzero"></path><path fill="#ffffff" d="m135.3899 460.08267l68.31496 0l0 40.188995l-68.31496 0z" fill-rule="evenodd"></path><path stroke="#434343" stroke-width="2.0" stroke-linejoin="round" stroke-linecap="butt" d="m135.3899 460.08267l68.31496 0l0 40.188995l-68.31496 0z" fill-rule="evenodd"></path><path fill="#000000" d="m163.78827 488.71716l0 -1.578125q4.21875 -3.34375 5.796875 -4.859375q1.59375 -1.53125 2.328125 -2.734375q0.75 -1.21875 0.75 -2.375q0 -1.3125 -0.90625 -2.109375q-0.90625 -0.8125 -2.421875 -0.8125q-2.8125 0 -4.34375 2.015625l-1.234375 -1.28125q0.921875 -1.21875 2.390625 -1.859375q1.484375 -0.65625 3.1875 -0.65625q2.328125 0 3.84375 1.28125q1.53125 1.28125 1.53125 3.421875q0 1.953125 -1.65625 4.109375q-1.640625 2.140625 -6.125 5.65625l7.84375 0l0 1.78125l-10.984375 0z" fill-rule="nonzero"></path><path fill="#ffffff" d="m651.11487 462.83267l68.31494 0l0 40.188995l-68.31494 0z" fill-rule="evenodd"></path><path stroke="#0000ff" stroke-width="3.0" stroke-linejoin="round" stroke-linecap="butt" d="m651.11487 462.83267l68.31494 0l0 40.188995l-68.31494 0z" fill-rule="evenodd"></path><path fill="#000000" d="m684.97894 491.7484q-2.046875 0 -3.5 -0.765625q-1.453125 -0.78125 -2.1875 -1.875l1.171875 -1.234375q0.6875 0.9375 1.84375 1.53125q1.171875 0.578125 2.625 0.578125q1.75 0 2.734375 -0.796875q1.0 -0.8125 1.0 -2.203125q0 -1.421875 -1.046875 -2.125q-1.046875 -0.703125 -2.9375 -0.703125l-0.984375 0l-0.671875 0.015625l0 -1.828125l0.703125 0.03125l0.953125 0q1.734375 0 2.71875 -0.703125q1.0 -0.71875 1.0 -1.9375q0 -1.21875 -1.0 -1.96875q-0.984375 -0.765625 -2.578125 -0.765625q-2.421875 0 -4.21875 1.9375l-1.109375 -1.25q2.015625 -2.46875 5.484375 -2.46875q2.4375 0 3.921875 1.171875q1.5 1.15625 1.5 3.109375q0 1.4375 -0.984375 2.453125q-0.984375 1.015625 -2.46875 1.265625q1.5 0.109375 2.59375 1.234375q1.09375 1.109375 1.09375 2.703125q0 2.078125 -1.5625 3.34375q-1.5625 1.25 -4.09375 1.25z" fill-rule="nonzero"></path><path fill="#ffffff" d="m720.74286 463.41077l68.315 0l0 40.188965l-68.315 0z" fill-rule="evenodd"></path><path stroke="#0000ff" stroke-width="4.0" stroke-linejoin="round" stroke-linecap="butt" d="m720.74286 463.41077l68.315 0l0 40.188965l-68.315 0z" fill-rule="evenodd"></path><path fill="#000000" d="m755.0391 492.3265q-3.6875 0 -5.640625 -2.5625l1.234375 -1.3125q1.65625 2.109375 4.40625 2.109375q1.609375 0 2.65625 -0.96875q1.046875 -0.984375 1.046875 -2.46875q0 -1.515625 -1.0 -2.484375q-1.0 -0.96875 -2.671875 -0.96875q-2.140625 0 -3.703125 1.515625l-1.453125 -0.515625l0 -8.640625l9.78125 0l0 1.78125l-7.796875 0l0 5.578125q0.578125 -0.578125 1.546875 -1.015625q0.96875 -0.4375 2.203125 -0.4375q2.1875 0 3.625 1.421875q1.453125 1.421875 1.453125 3.703125q0 2.375 -1.578125 3.828125q-1.5625 1.4375 -4.109375 1.4375z" fill-rule="nonzero"></path><path fill="#ffffff" d="m510.46194 463.41235l71.02359 0l0 40.188995l-71.02359 0z" fill-rule="evenodd"></path><path stroke="#0000ff" stroke-width="3.0" stroke-linejoin="round" stroke-linecap="butt" d="m510.46194 463.41235l71.02359 0l0 40.188995l-71.02359 0z" fill-rule="evenodd"></path><path fill="#000000" d="m546.1714 492.04684l0 -13.375l-2.5625 2.71875l-1.203125 -1.21875l4.015625 -4.140625l1.75 0l0 16.015625l-2.0 0z" fill-rule="nonzero"></path><path fill="#ffffff" d="m859.9967 463.41107l68.31494 0l0 40.188965l-68.31494 0z" fill-rule="evenodd"></path><path stroke="#0000ff" stroke-width="3.0" stroke-linejoin="round" stroke-linecap="butt" d="m859.9967 463.41107l68.31494 0l0 40.188965l-68.31494 0z" fill-rule="evenodd"></path><path fill="#000000" d="m894.16656 492.3268q-2.59375 0 -4.171875 -1.21875q-1.5625 -1.21875 -1.5625 -3.125q0 -1.390625 1.015625 -2.53125q1.015625 -1.140625 2.796875 -1.65625q-1.609375 -0.46875 -2.578125 -1.453125q-0.96875 -1.0 -0.96875 -2.390625q0 -1.875 1.53125 -3.015625q1.53125 -1.140625 3.9375 -1.140625q2.421875 0 3.953125 1.15625q1.546875 1.15625 1.546875 3.0q0 1.359375 -0.953125 2.375q-0.953125 1.0 -2.625 1.46875q1.75 0.5 2.78125 1.640625q1.03125 1.140625 1.03125 2.546875q0 1.953125 -1.640625 3.15625q-1.625 1.1875 -4.09375 1.1875zm0 -9.359375q3.484375 -0.6875 3.484375 -2.75q0 -1.1875 -0.984375 -1.90625q-0.96875 -0.734375 -2.5 -0.734375q-1.53125 0 -2.515625 0.734375q-0.96875 0.71875 -0.96875 1.90625q0 2.0625 3.484375 2.75zm0 7.59375q1.5625 0 2.640625 -0.765625q1.078125 -0.78125 1.078125 -2.015625q0 -1.140625 -1.09375 -2.015625q-1.09375 -0.890625 -2.625 -1.09375q-1.515625 0.203125 -2.640625 1.078125q-1.109375 0.875 -1.109375 2.03125q0 1.234375 1.078125 2.015625q1.09375 0.765625 2.671875 0.765625z" fill-rule="nonzero"></path><path fill="#ffffff" d="m790.37103 463.41077l68.315 0l0 40.188965l-68.315 0z" fill-rule="evenodd"></path><path stroke="#434343" stroke-width="2.0" stroke-linejoin="round" stroke-linecap="butt" d="m790.37103 463.41077l68.315 0l0 40.188965l-68.315 0z" fill-rule="evenodd"></path><path fill="#000000" d="m821.2548 492.04526l6.453125 -14.234375l-8.609375 0l0 -1.78125l10.90625 0l0 1.375l-6.546875 14.640625l-2.203125 0z" fill-rule="nonzero"></path><path fill="#ffffff" d="m581.4844 463.41077l68.31494 0l0 40.188965l-68.31494 0z" fill-rule="evenodd"></path><path stroke="#434343" stroke-width="2.0" stroke-linejoin="round" stroke-linecap="butt" d="m581.4844 463.41077l68.31494 0l0 40.188965l-68.31494 0z" fill-rule="evenodd"></path><path fill="#000000" d="m609.88275 492.04526l0 -1.578125q4.21875 -3.34375 5.796875 -4.859375q1.59375 -1.53125 2.328125 -2.734375q0.75 -1.21875 0.75 -2.375q0 -1.3125 -0.90625 -2.109375q-0.90625 -0.8125 -2.421875 -0.8125q-2.8125 0 -4.34375 2.015625l-1.234375 -1.28125q0.921875 -1.21875 2.390625 -1.859375q1.484375 -0.65625 3.1875 -0.65625q2.328125 0 3.84375 1.28125q1.53125 1.28125 1.53125 3.421875q0 1.953125 -1.65625 4.109375q-1.640625 2.140625 -6.125 5.65625l7.84375 0l0 1.78125l-10.984375 0z" fill-rule="nonzero"></path><path fill="#000000" fill-opacity="0.0" d="m95.25197 124.92479l0 0c0 -24.886658 20.174614 -45.06127 45.061264 -45.06127l294.53888 0c11.950989 0 23.412506 4.747513 31.863129 13.198143c8.450623 8.450623 13.198151 19.912132 13.198151 31.863129l0 180.23967c0 24.886658 -20.174622 45.06125 -45.06128 45.06125l-294.53888 0l0 0c-24.88665 0 -45.061264 -20.174591 -45.061264 -45.06125z" fill-rule="evenodd"></path><path stroke="#595959" stroke-width="1.0" stroke-linejoin="round" stroke-linecap="butt" stroke-dasharray="1.0,3.0" d="m95.25197 124.92479l0 0c0 -24.886658 20.174614 -45.06127 45.061264 -45.06127l294.53888 0c11.950989 0 23.412506 4.747513 31.863129 13.198143c8.450623 8.450623 13.198151 19.912132 13.198151 31.863129l0 180.23967c0 24.886658 -20.174622 45.06125 -45.06128 45.06125l-294.53888 0l0 0c-24.88665 0 -45.061264 -20.174591 -45.061264 -45.06125z" fill-rule="evenodd"></path><path fill="#000000" fill-opacity="0.0" d="m487.81366 128.3211l0 0c0 -24.886642 20.174591 -45.061264 45.06128 -45.061264l294.53888 0c11.950989 0 23.412476 4.747513 31.863098 13.198143c8.450623 8.450623 13.19812 19.912132 13.19812 31.863121l0 180.23969c0 24.886627 -20.17456 45.06125 -45.06122 45.06125l-294.53888 0l0 0c-24.886688 0 -45.06128 -20.174622 -45.06128 -45.06125z" fill-rule="evenodd"></path><path stroke="#595959" stroke-width="1.0" stroke-linejoin="round" stroke-linecap="butt" stroke-dasharray="1.0,3.0" d="m487.81366 128.3211l0 0c0 -24.886642 20.174591 -45.061264 45.06128 -45.061264l294.53888 0c11.950989 0 23.412476 4.747513 31.863098 13.198143c8.450623 8.450623 13.19812 19.912132 13.19812 31.863121l0 180.23969c0 24.886627 -20.17456 45.06125 -45.06122 45.06125l-294.53888 0l0 0c-24.886688 0 -45.06128 -20.174622 -45.06128 -45.06125z" fill-rule="evenodd"></path><path fill="#000000" fill-opacity="0.0" d="m120.89501 92.79002l54.992134 0l0 49.228348l-54.992134 0z" fill-rule="evenodd"></path><path fill="#000000" d="m136.97314 119.71002l-1.671875 0l0 -10.640625q-0.59375 0.578125 -1.578125 1.15625q-0.984375 0.5625 -1.765625 0.859375l0 -1.625q1.40625 -0.65625 2.453125 -1.59375q1.046875 -0.9375 1.484375 -1.8125l1.078125 0l0 13.65625zm5.016342 0l0 -1.90625l1.90625 0l0 1.90625l-1.90625 0z" fill-rule="nonzero"></path><path fill="#000000" fill-opacity="0.0" d="m514.9055 96.44882l54.992126 0l0 49.228348l-54.992126 0z" fill-rule="evenodd"></path><path fill="#000000" d="m533.468 121.759445l0 1.609375l-8.984375 0q-0.015625 -0.609375 0.1875 -1.15625q0.34375 -0.921875 1.09375 -1.8125q0.765625 -0.890625 2.1875 -2.0625q2.21875 -1.8125 3.0 -2.875q0.78125 -1.0625 0.78125 -2.015625q0 -0.984375 -0.71875 -1.671875q-0.703125 -0.6875 -1.84375 -0.6875q-1.203125 0 -1.9375 0.734375q-0.71875 0.71875 -0.71875 2.0l-1.71875 -0.171875q0.171875 -1.921875 1.328125 -2.921875q1.15625 -1.015625 3.09375 -1.015625q1.953125 0 3.09375 1.09375q1.140625 1.078125 1.140625 2.6875q0 0.8125 -0.34375 1.609375q-0.328125 0.78125 -1.109375 1.65625q-0.765625 0.859375 -2.5625 2.390625q-1.5 1.265625 -1.9375 1.71875q-0.421875 0.4375 -0.703125 0.890625l6.671875 0zm2.5319824 1.609375l0 -1.90625l1.90625 0l0 1.90625l-1.90625 0z" fill-rule="nonzero"></path><path fill="#000000" fill-opacity="0.0" d="m43.228348 392.20523l0 0c0 -14.301697 11.5938225 -25.895508 25.89553 -25.895508l376.83887 0c6.86792 0 13.454559 2.7282715 18.310913 7.5846252c4.8563538 4.8563538 7.5846252 11.442963 7.5846252 18.310883l0 103.57904c0 14.301697 -11.593842 25.895538 -25.895538 25.895538l-376.83887 0c-14.301708 0 -25.89553 -11.593842 -25.89553 -25.895538z" fill-rule="evenodd"></path><path stroke="#595959" stroke-width="1.0" stroke-linejoin="round" stroke-linecap="butt" stroke-dasharray="1.0,3.0" d="m43.228348 392.20523l0 0c0 -14.301697 11.5938225 -25.895508 25.89553 -25.895508l376.83887 0c6.86792 0 13.454559 2.7282715 18.310913 7.5846252c4.8563538 4.8563538 7.5846252 11.442963 7.5846252 18.310883l0 103.57904c0 14.301697 -11.593842 25.895538 -25.895538 25.895538l-376.83887 0c-14.301708 0 -25.89553 -11.593842 -25.89553 -25.895538z" fill-rule="evenodd"></path><path fill="#000000" fill-opacity="0.0" d="m53.031498 380.54068l54.992123 0l0 49.228363l-54.992123 0z" fill-rule="evenodd"></path><path fill="#000000" d="m62.828373 403.86694l1.6718712 -0.21875q0.28125 1.421875 0.96875 2.046875q0.703125 0.625 1.6875 0.625q1.1875 0 2.0 -0.8125q0.8125 -0.828125 0.8125 -2.03125q0 -1.140625 -0.765625 -1.890625q-0.75 -0.75 -1.90625 -0.75q-0.46875 0 -1.171875 0.1875l0.1875 -1.46875q0.15625 0.015625 0.265625 0.015625q1.0625 0 1.90625 -0.546875q0.859375 -0.5625 0.859375 -1.71875q0 -0.921875 -0.625 -1.515625q-0.609375 -0.609375 -1.59375 -0.609375q-0.96875 0 -1.625 0.609375q-0.640625 0.609375 -0.828125 1.84375l-1.6718712 -0.296875q0.296875 -1.6875 1.3749962 -2.609375q1.09375 -0.921875 2.71875 -0.921875q1.109375 0 2.046875 0.484375q0.9375 0.46875 1.421875 1.296875q0.5 0.828125 0.5 1.75q0 0.890625 -0.46875 1.609375q-0.46875 0.71875 -1.40625 1.15625q1.21875 0.265625 1.875 1.15625q0.671875 0.875 0.671875 2.1875q0 1.78125 -1.296875 3.015625q-1.296875 1.234375 -3.28125 1.234375q-1.796875 0 -2.984375 -1.0625q-1.1718712 -1.0625 -1.3437462 -2.765625zm11.297588 3.59375l0 -1.90625l1.90625 0l0 1.90625l-1.90625 0z" fill-rule="nonzero"></path><path fill="#000000" fill-opacity="0.0" d="m507.27298 383.9029l54.992096 0l0 49.228333l-54.992096 0z" fill-rule="evenodd"></path><path fill="#000000" d="m522.4136 410.82288l0 -3.25l-5.90625 0l0 -1.53125l6.21875 -8.8125l1.359375 0l0 8.8125l1.84375 0l0 1.53125l-1.84375 0l0 3.25l-1.671875 0zm0 -4.78125l0 -6.140625l-4.25 6.140625l4.25 0zm5.9538574 4.78125l0 -1.90625l1.90625 0l0 1.90625l-1.90625 0zm5.1832886 0l0 -1.90625l1.90625 0l0 1.90625l-1.90625 0z" fill-rule="nonzero"></path></g></svg>

