<?xml version="1.0" encoding="UTF-8" standalone="no"?>
<svg
   xmlns:dc="http://purl.org/dc/elements/1.1/"
   xmlns:cc="http://creativecommons.org/ns#"
   xmlns:rdf="http://www.w3.org/1999/02/22-rdf-syntax-ns#"
   xmlns:svg="http://www.w3.org/2000/svg"
   xmlns="http://www.w3.org/2000/svg"
   style="fill:none;stroke:none;stroke-linecap:square;stroke-miterlimit:10"
   height="4.7199998cm"
   width="20.959999cm"
   id="svg947"
   stroke-miterlimit="10"
   viewBox="0 0 792.18896 178.39369"
   version="1.1">
  <metadata
     id="metadata953">
    <rdf:RDF>
      <cc:Work
         rdf:about="">
        <dc:format>image/svg+xml</dc:format>
        <dc:type
           rdf:resource="http://purl.org/dc/dcmitype/StillImage" />
        <dc:title></dc:title>
      </cc:Work>
    </rdf:RDF>
  </metadata>
  <defs
     id="defs951" />
  <clipPath
     id="p.0">
    <path
       style="clip-rule:nonzero"
       id="path816"
       d="M 0,0 H 960 V 720 H 0 Z" />
  </clipPath>
  <g
     transform="translate(-26.666667,-88.273153)"
     id="g945"
     clip-path="url(#p.0)">
    <path
       style="fill:#000000;fill-opacity:0;fill-rule:evenodd"
       id="path819"
       d="M 0,0 H 960 V 720 H 0 Z" />
    <path
       style="fill:#cfe2f3;fill-rule:evenodd"
       id="path821"
       d="m 122.19423,137.2336 h 59.2126 v 59.2126 h -59.2126 z" />
    <path
       style="fill-rule:evenodd;stroke:#000000;stroke-width:1;stroke-linecap:butt;stroke-linejoin:round"
       id="path823"
       d="m 122.19423,137.2336 h 59.2126 v 59.2126 h -59.2126 z" />
    <path
       style="fill:#000000;fill-rule:nonzero"
       id="path825"
       d="m 142.20605,170.19739 1.76562,-0.15625 q 0.1875,1.28125 0.89063,1.9375 0.71875,0.64063 1.71875,0.64063 1.20312,0 2.03125,-0.90625 0.84375,-0.90625 0.84375,-2.42188 0,-1.42187 -0.8125,-2.25 -0.79688,-0.82812 -2.09375,-0.82812 -0.79688,0 -1.45313,0.375 -0.64062,0.35937 -1.01562,0.95312 l -1.57813,-0.20312 1.32813,-7 h 6.76562 v 1.60937 h -5.4375 l -0.73437,3.64063 q 1.23437,-0.84375 2.57812,-0.84375 1.78125,0 3,1.23437 1.23438,1.23438 1.23438,3.17188 0,1.84375 -1.07813,3.1875 -1.3125,1.65625 -3.57812,1.65625 -1.85938,0 -3.03125,-1.03125 -1.17188,-1.04688 -1.34375,-2.76563 z m 15.73509,3.5625 v -3.25 h -5.90625 v -1.53125 l 6.21875,-8.8125 h 1.35938 v 8.8125 h 1.84375 v 1.53125 h -1.84375 v 3.25 z m 0,-4.78125 v -6.14062 l -4.25,6.14062 z" />
    <path
       style="fill:#cfe2f3;fill-rule:evenodd"
       id="path827"
       d="m 181.40683,137.2336 h 59.21258 v 59.2126 h -59.21258 z" />
    <path
       style="fill-rule:evenodd;stroke:#000000;stroke-width:1;stroke-linecap:butt;stroke-linejoin:round"
       id="path829"
       d="m 181.40683,137.2336 h 59.21258 v 59.2126 h -59.21258 z" />
    <path
       style="fill:#000000;fill-rule:nonzero"
       id="path831"
       d="m 210.1999,172.15051 v 1.60937 h -8.98437 q -0.0156,-0.60937 0.1875,-1.15625 0.34375,-0.92187 1.09375,-1.8125 0.76562,-0.89062 2.1875,-2.0625 2.21875,-1.8125 3,-2.875 0.78125,-1.0625 0.78125,-2.01562 0,-0.98438 -0.71875,-1.67188 -0.70313,-0.6875 -1.84375,-0.6875 -1.20313,0 -1.9375,0.73438 -0.71875,0.71875 -0.71875,2 l -1.71875,-0.17188 q 0.17187,-1.92187 1.32812,-2.92187 1.15625,-1.01563 3.09375,-1.01563 1.95313,0 3.09375,1.09375 1.14063,1.07813 1.14063,2.6875 0,0.8125 -0.34375,1.60938 -0.32813,0.78125 -1.10938,1.65625 -0.76562,0.85937 -2.5625,2.39062 -1.5,1.26563 -1.9375,1.71875 -0.42187,0.4375 -0.70312,0.89063 z m 10.26634,-8.65625 -1.65625,0.125 q -0.21875,-0.98438 -0.64062,-1.42188 -0.67188,-0.71875 -1.65625,-0.71875 -0.8125,0 -1.40625,0.4375 -0.79688,0.57813 -1.25,1.6875 -0.45313,1.09375 -0.46875,3.14063 0.60937,-0.92188 1.46875,-1.35938 0.875,-0.45312 1.82812,-0.45312 1.67188,0 2.84375,1.23437 1.17188,1.23438 1.17188,3.17188 0,1.28125 -0.54688,2.39062 -0.54687,1.09375 -1.51562,1.6875 -0.96875,0.57813 -2.1875,0.57813 -2.09375,0 -3.40625,-1.53125 -1.3125,-1.54688 -1.3125,-5.0625 0,-3.95313 1.45312,-5.73438 1.26563,-1.5625 3.42188,-1.5625 1.60937,0 2.625,0.90625 1.03125,0.89063 1.23437,2.48438 z m -6.8125,5.85937 q 0,0.85938 0.35938,1.65625 0.375,0.78125 1.03125,1.20313 0.65625,0.40625 1.375,0.40625 1.0625,0 1.8125,-0.84375 0.76562,-0.85938 0.76562,-2.32813 0,-1.40625 -0.75,-2.21875 -0.75,-0.8125 -1.89062,-0.8125 -1.125,0 -1.92188,0.8125 -0.78125,0.8125 -0.78125,2.125 z" />
    <path
       style="fill:#cfe2f3;fill-rule:evenodd"
       id="path833"
       d="m 240.61942,137.2336 h 59.21262 v 59.2126 h -59.21262 z" />
    <path
       style="fill-rule:evenodd;stroke:#000000;stroke-width:1;stroke-linecap:butt;stroke-linejoin:round"
       id="path835"
       d="m 240.61942,137.2336 h 59.21262 v 59.2126 h -59.21262 z" />
    <path
       style="fill:#000000;fill-rule:nonzero"
       id="path837"
       d="m 260.89688,170.61926 1.59375,-0.15625 q 0.20312,1.14062 0.78125,1.65625 0.57812,0.5 1.48437,0.5 0.76563,0 1.34375,-0.34375 0.57813,-0.35938 0.95313,-0.95313 0.375,-0.59375 0.625,-1.59375 0.25,-1 0.25,-2.03125 0,-0.10937 -0.0156,-0.34375 -0.5,0.79688 -1.375,1.29688 -0.85937,0.5 -1.875,0.5 -1.6875,0 -2.85937,-1.21875 -1.17188,-1.23438 -1.17188,-3.23438 0,-2.07812 1.21875,-3.32812 1.23438,-1.26563 3.0625,-1.26563 1.32813,0 2.42188,0.71875 1.10937,0.70313 1.67187,2.03125 0.57813,1.32813 0.57813,3.82813 0,2.60937 -0.57813,4.15625 -0.5625,1.54687 -1.6875,2.35937 -1.10937,0.79688 -2.60937,0.79688 -1.59375,0 -2.60938,-0.89063 -1,-0.89062 -1.20312,-2.48437 z m 6.82812,-6 q 0,-1.4375 -0.76562,-2.28125 -0.76563,-0.85938 -1.84375,-0.85938 -1.10938,0 -1.9375,0.92188 -0.82813,0.90625 -0.82813,2.34375 0,1.3125 0.78125,2.125 0.79688,0.79687 1.9375,0.79687 1.17188,0 1.90625,-0.79687 0.75,-0.8125 0.75,-2.25 z m 3.29758,5.54687 1.67188,-0.21875 q 0.28125,1.42188 0.96875,2.04688 0.70312,0.625 1.6875,0.625 1.1875,0 2,-0.8125 0.8125,-0.82813 0.8125,-2.03125 0,-1.14063 -0.76563,-1.89063 -0.75,-0.75 -1.90625,-0.75 -0.46875,0 -1.17187,0.1875 l 0.1875,-1.46875 q 0.15625,0.0156 0.26562,0.0156 1.0625,0 1.90625,-0.54688 0.85938,-0.5625 0.85938,-1.71875 0,-0.92187 -0.625,-1.51562 -0.60938,-0.60938 -1.59375,-0.60938 -0.96875,0 -1.625,0.60938 -0.64063,0.60937 -0.82813,1.84375 l -1.67187,-0.29688 q 0.29687,-1.6875 1.375,-2.60937 1.09375,-0.92188 2.71875,-0.92188 1.10937,0 2.04687,0.48438 0.9375,0.46875 1.42188,1.29687 0.5,0.82813 0.5,1.75 0,0.89063 -0.46875,1.60938 -0.46875,0.71875 -1.40625,1.15625 1.21875,0.26562 1.875,1.15625 0.67187,0.875 0.67187,2.1875 0,1.78125 -1.29687,3.01562 -1.29688,1.23438 -3.28125,1.23438 -1.79688,0 -2.98438,-1.0625 -1.17187,-1.0625 -1.34375,-2.76563 z" />
    <path
       style="fill:#cfe2f3;fill-rule:evenodd"
       id="path839"
       d="m 299.83203,137.2336 h 59.21258 v 59.2126 h -59.21258 z" />
    <path
       style="fill-rule:evenodd;stroke:#000000;stroke-width:1;stroke-linecap:butt;stroke-linejoin:round"
       id="path841"
       d="m 299.83203,137.2336 h 59.21258 v 59.2126 h -59.21258 z" />
    <path
       style="fill:#000000;fill-rule:nonzero"
       id="path843"
       d="m 326.14072,173.75989 h -1.67188 v -10.64062 q -0.59375,0.57812 -1.57812,1.15625 -0.98438,0.5625 -1.76563,0.85937 v -1.625 q 1.40625,-0.65625 2.45313,-1.59375 1.04687,-0.9375 1.48437,-1.8125 h 1.07813 z m 4.20386,-11.8125 v -1.60937 h 8.79687 v 1.29687 q -1.29687,1.375 -2.57812,3.67188 -1.26563,2.29687 -1.96875,4.71875 -0.5,1.70312 -0.64063,3.73437 h -1.71875 q 0.0312,-1.60937 0.625,-3.875 0.60938,-2.28125 1.73438,-4.39062 1.14062,-2.10938 2.40625,-3.54688 z" />
    <path
       style="fill:#cfe2f3;fill-rule:evenodd"
       id="path845"
       d="m 359.04462,137.2336 h 59.21262 v 59.2126 h -59.21262 z" />
    <path
       style="fill-rule:evenodd;stroke:#000000;stroke-width:1;stroke-linecap:butt;stroke-linejoin:round"
       id="path847"
       d="m 359.04462,137.2336 h 59.21262 v 59.2126 h -59.21262 z" />
    <path
       style="fill:#000000;fill-rule:nonzero"
       id="path849"
       d="m 379.18146,161.94739 v -1.60937 h 8.79688 v 1.29687 q -1.29688,1.375 -2.57813,3.67188 -1.26562,2.29687 -1.96875,4.71875 -0.5,1.70312 -0.64062,3.73437 h -1.71875 q 0.0312,-1.60937 0.625,-3.875 0.60937,-2.28125 1.73437,-4.39062 1.14063,-2.10938 2.40625,-3.54688 z m 10.3757,0 v -1.60937 h 8.79688 v 1.29687 q -1.29688,1.375 -2.57813,3.67188 -1.26562,2.29687 -1.96875,4.71875 -0.5,1.70312 -0.64062,3.73437 h -1.71875 q 0.0312,-1.60937 0.625,-3.875 0.60937,-2.28125 1.73437,-4.39062 1.14063,-2.10938 2.40625,-3.54688 z" />
    <path
       style="fill:#cfe2f3;fill-rule:evenodd"
       id="path851"
       d="m 418.25723,137.2336 h 59.21258 v 59.2126 h -59.21258 z" />
    <path
       style="fill-rule:evenodd;stroke:#000000;stroke-width:1;stroke-linecap:butt;stroke-linejoin:round"
       id="path853"
       d="m 418.25723,137.2336 h 59.21258 v 59.2126 h -59.21258 z" />
    <path
       style="fill:#000000;fill-rule:nonzero"
       id="path855"
       d="m 438.28467,170.16614 1.67187,-0.21875 q 0.28125,1.42188 0.96875,2.04688 0.70313,0.625 1.6875,0.625 1.1875,0 2,-0.8125 0.8125,-0.82813 0.8125,-2.03125 0,-1.14063 -0.76562,-1.89063 -0.75,-0.75 -1.90625,-0.75 -0.46875,0 -1.17188,0.1875 l 0.1875,-1.46875 q 0.15625,0.0156 0.26563,0.0156 1.0625,0 1.90625,-0.54688 0.85937,-0.5625 0.85937,-1.71875 0,-0.92187 -0.625,-1.51562 -0.60937,-0.60938 -1.59375,-0.60938 -0.96875,0 -1.625,0.60938 -0.64062,0.60937 -0.82812,1.84375 l -1.67188,-0.29688 q 0.29688,-1.6875 1.375,-2.60937 1.09375,-0.92188 2.71875,-0.92188 1.10938,0 2.04688,0.48438 0.9375,0.46875 1.42187,1.29687 0.5,0.82813 0.5,1.75 0,0.89063 -0.46875,1.60938 -0.46875,0.71875 -1.40625,1.15625 1.21875,0.26562 1.875,1.15625 0.67188,0.875 0.67188,2.1875 0,1.78125 -1.29688,3.01562 -1.29687,1.23438 -3.28125,1.23438 -1.79687,0 -2.98437,-1.0625 -1.17188,-1.0625 -1.34375,-2.76563 z m 16.65698,3.59375 h -1.67187 v -10.64062 q -0.59375,0.57812 -1.57813,1.15625 -0.98437,0.5625 -1.76562,0.85937 v -1.625 q 1.40625,-0.65625 2.45312,-1.59375 1.04688,-0.9375 1.48438,-1.8125 h 1.07812 z" />
    <path
       style="fill:#cfe2f3;fill-rule:evenodd"
       id="path857"
       d="m 477.46982,137.2336 h 59.21262 v 59.2126 h -59.21262 z" />
    <path
       style="fill-rule:evenodd;stroke:#000000;stroke-width:1;stroke-linecap:butt;stroke-linejoin:round"
       id="path859"
       d="m 477.46982,137.2336 h 59.21262 v 59.2126 h -59.21262 z" />
    <path
       style="fill:#000000;fill-rule:nonzero"
       id="path861"
       d="m 502.84103,173.75989 v -3.25 h -5.90625 v -1.53125 l 6.21875,-8.8125 h 1.35937 v 8.8125 h 1.84375 v 1.53125 h -1.84375 v 3.25 z m 0,-4.78125 v -6.14062 l -4.25,6.14062 z m 10.3757,4.78125 v -3.25 h -5.90625 v -1.53125 l 6.21875,-8.8125 h 1.35938 v 8.8125 h 1.84375 v 1.53125 h -1.84375 v 3.25 z m 0,-4.78125 v -6.14062 l -4.25,6.14062 z" />
    <path
       style="fill:#cfe2f3;fill-rule:evenodd"
       id="path863"
       d="m 536.68243,137.2336 h 59.21258 v 59.2126 h -59.21258 z" />
    <path
       style="fill-rule:evenodd;stroke:#000000;stroke-width:1;stroke-linecap:butt;stroke-linejoin:round"
       id="path865"
       d="m 536.68243,137.2336 h 59.21258 v 59.2126 h -59.21258 z" />
    <path
       style="fill:#000000;fill-rule:nonzero"
       id="path867"
       d="m 556.6943,170.19739 1.76562,-0.15625 q 0.1875,1.28125 0.89063,1.9375 0.71875,0.64063 1.71875,0.64063 1.20312,0 2.03125,-0.90625 0.84375,-0.90625 0.84375,-2.42188 0,-1.42187 -0.8125,-2.25 -0.79688,-0.82812 -2.09375,-0.82812 -0.79688,0 -1.45313,0.375 -0.64062,0.35937 -1.01562,0.95312 l -1.57813,-0.20312 1.32813,-7 h 6.76562 v 1.60937 h -5.4375 l -0.73437,3.64063 q 1.23437,-0.84375 2.57812,-0.84375 1.78125,0 3,1.23437 1.23438,1.23438 1.23438,3.17188 0,1.84375 -1.07813,3.1875 -1.3125,1.65625 -3.57812,1.65625 -1.85938,0 -3.03125,-1.03125 -1.17188,-1.04688 -1.34375,-2.76563 z m 10.37567,0 1.76563,-0.15625 q 0.1875,1.28125 0.89062,1.9375 0.71875,0.64063 1.71875,0.64063 1.20313,0 2.03125,-0.90625 0.84375,-0.90625 0.84375,-2.42188 0,-1.42187 -0.8125,-2.25 -0.79687,-0.82812 -2.09375,-0.82812 -0.79687,0 -1.45312,0.375 -0.64063,0.35937 -1.01563,0.95312 l -1.57812,-0.20312 1.32812,-7 h 6.76563 v 1.60937 h -5.4375 l -0.73438,3.64063 q 1.23438,-0.84375 2.57813,-0.84375 1.78125,0 3,1.23437 1.23437,1.23438 1.23437,3.17188 0,1.84375 -1.07812,3.1875 -1.3125,1.65625 -3.57813,1.65625 -1.85937,0 -3.03125,-1.03125 -1.17187,-1.04688 -1.34375,-2.76563 z" />
    <path
       style="fill:#cfe2f3;fill-rule:evenodd"
       id="path869"
       d="m 595.895,137.2336 h 59.21258 v 59.2126 H 595.895 Z" />
    <path
       style="fill-rule:evenodd;stroke:#000000;stroke-width:1;stroke-linecap:butt;stroke-linejoin:round"
       id="path871"
       d="m 595.895,137.2336 h 59.21258 v 59.2126 H 595.895 Z" />
    <path
       style="fill:#000000;fill-rule:nonzero"
       id="path873"
       d="m 624.6881,172.15051 v 1.60937 h -8.98438 q -0.0156,-0.60937 0.1875,-1.15625 0.34375,-0.92187 1.09375,-1.8125 0.76563,-0.89062 2.1875,-2.0625 2.21875,-1.8125 3,-2.875 0.78125,-1.0625 0.78125,-2.01562 0,-0.98438 -0.71875,-1.67188 -0.70312,-0.6875 -1.84375,-0.6875 -1.20312,0 -1.9375,0.73438 -0.71875,0.71875 -0.71875,2 l -1.71875,-0.17188 q 0.17188,-1.92187 1.32813,-2.92187 1.15625,-1.01563 3.09375,-1.01563 1.95312,0 3.09375,1.09375 1.14062,1.07813 1.14062,2.6875 0,0.8125 -0.34375,1.60938 -0.32812,0.78125 -1.10937,1.65625 -0.76563,0.85937 -2.5625,2.39062 -1.5,1.26563 -1.9375,1.71875 -0.42188,0.4375 -0.70313,0.89063 z m 1.59442,-5.09375 q 0,-2.42188 0.5,-3.89063 0.5,-1.46875 1.46881,-2.26562 0.98438,-0.79688 2.46875,-0.79688 1.09375,0 1.92188,0.4375 0.82812,0.4375 1.35937,1.28125 0.54688,0.82813 0.84375,2.01563 0.3125,1.1875 0.3125,3.21875 0,2.39062 -0.5,3.85937 -0.48437,1.46875 -1.46875,2.28125 -0.96875,0.79688 -2.46875,0.79688 -1.96875,0 -3.07818,-1.40625 -1.35938,-1.70313 -1.35938,-5.53125 z m 1.71881,0 q 0,3.34375 0.78125,4.45312 0.79688,1.10938 1.9375,1.10938 1.15625,0 1.9375,-1.10938 0.78125,-1.125 0.78125,-4.45312 0,-3.35938 -0.78125,-4.46875 -0.78125,-1.10938 -1.95312,-1.10938 -1.15625,0 -1.82813,0.98438 -0.875,1.23437 -0.875,4.59375 z" />
    <path
       style="fill:#cfe2f3;fill-rule:evenodd"
       id="path875"
       d="m 655.1076,137.2336 h 59.21259 v 59.2126 H 655.1076 Z" />
    <path
       style="fill-rule:evenodd;stroke:#000000;stroke-width:1;stroke-linecap:butt;stroke-linejoin:round"
       id="path877"
       d="m 655.1076,137.2336 h 59.21259 v 59.2126 H 655.1076 Z" />
    <path
       style="fill:#000000;fill-rule:nonzero"
       id="path879"
       d="m 683.7913,163.49426 -1.65625,0.125 q -0.21875,-0.98438 -0.64063,-1.42188 -0.67187,-0.71875 -1.65625,-0.71875 -0.8125,0 -1.40625,0.4375 -0.79687,0.57813 -1.25,1.6875 -0.45312,1.09375 -0.46875,3.14063 0.60938,-0.92188 1.46875,-1.35938 0.875,-0.45312 1.82813,-0.45312 1.67187,0 2.84375,1.23437 1.17187,1.23438 1.17187,3.17188 0,1.28125 -0.54687,2.39062 -0.54688,1.09375 -1.51563,1.6875 -0.96875,0.57813 -2.1875,0.57813 -2.09375,0 -3.40625,-1.53125 -1.3125,-1.54688 -1.3125,-5.0625 0,-3.95313 1.45313,-5.73438 1.26562,-1.5625 3.42187,-1.5625 1.60938,0 2.625,0.90625 1.03125,0.89063 1.23438,2.48438 z m -6.8125,5.85937 q 0,0.85938 0.35937,1.65625 0.375,0.78125 1.03125,1.20313 0.65625,0.40625 1.375,0.40625 1.0625,0 1.8125,-0.84375 0.76563,-0.85938 0.76563,-2.32813 0,-1.40625 -0.75,-2.21875 -0.75,-0.8125 -1.89063,-0.8125 -1.125,0 -1.92187,0.8125 -0.78125,0.8125 -0.78125,2.125 z m 8.51636,0.84375 1.76562,-0.15625 q 0.1875,1.28125 0.89063,1.9375 0.71875,0.64063 1.71875,0.64063 1.20312,0 2.03125,-0.90625 0.84375,-0.90625 0.84375,-2.42188 0,-1.42187 -0.8125,-2.25 -0.79688,-0.82812 -2.09375,-0.82812 -0.79688,0 -1.45313,0.375 -0.64062,0.35937 -1.01562,0.95312 l -1.57813,-0.20312 1.32813,-7 h 6.76562 v 1.60937 h -5.4375 l -0.73437,3.64063 q 1.23437,-0.84375 2.57812,-0.84375 1.78125,0 3,1.23437 1.23438,1.23438 1.23438,3.17188 0,1.84375 -1.07813,3.1875 -1.3125,1.65625 -3.57812,1.65625 -1.85938,0 -3.03125,-1.03125 -1.17188,-1.04688 -1.34375,-2.76563 z" />
    <path
       style="fill:#000000;fill-opacity:0;fill-rule:evenodd"
       id="path881"
       d="m 79.89501,221.0742 c 11.279526,-0.27354 55.14436,2.46341 67.67716,-1.64125 12.53281,-4.10468 6.2664,-19.15564 7.51968,-22.98676" />
    <path
       style="fill-rule:evenodd;stroke:#000000;stroke-width:1;stroke-linecap:butt;stroke-linejoin:round"
       id="path883"
       d="m 79.89501,221.0742 c 11.279526,-0.27353 55.14436,2.46342 67.67716,-1.64125 6.2664,-2.05234 7.83301,-6.84125 7.98967,-11.59596 0.0392,-1.18868 -0.01,-2.37522 -0.0955,-3.51633 -0.0428,-0.57056 -0.0949,-1.12976 -0.14963,-1.67218 l -0.0217,-0.20574" />
    <path
       style="fill:#000000;fill-rule:evenodd;stroke:#000000;stroke-width:1;stroke-linecap:butt"
       id="path885"
       d="m 156.94579,202.38683 -1.80443,-4.47957 -1.49713,4.59142 z" />
    <path
       style="fill:#000000;fill-opacity:0;fill-rule:evenodd"
       id="path887"
       d="m 79.89501,216.18636 h 93.03938 v 34.77165 H 79.89501 Z" />
    <path
       style="fill:#000000;fill-rule:nonzero"
       id="path889"
       d="m 89.61376,236.85886 1.4375,-0.125 q 0.09375,0.85937 0.46875,1.42187 0.375,0.54688 1.15625,0.89063 0.78125,0.32812 1.75,0.32812 0.875,0 1.53125,-0.25 0.671875,-0.26562 0.984375,-0.70312 0.328125,-0.45313 0.328125,-0.98438 0,-0.54687 -0.3125,-0.9375 -0.3125,-0.40625 -1.03125,-0.6875 -0.453125,-0.17187 -2.03125,-0.54687 -1.578125,-0.39063 -2.21875,-0.71875 -0.8125,-0.4375 -1.21875,-1.0625 -0.40625,-0.64063 -0.40625,-1.4375 0,-0.85938 0.484375,-1.60938 0.5,-0.76562 1.4375,-1.15625 0.953125,-0.39062 2.109375,-0.39062 1.28125,0 2.25,0.42187 0.96875,0.40625 1.484375,1.20313 0.53125,0.79687 0.578125,1.79687 l -1.453125,0.10938 q -0.125,-1.07813 -0.796875,-1.625 -0.671875,-0.5625 -2,-0.5625 -1.375,0 -2,0.5 -0.625,0.5 -0.625,1.21875 0,0.60937 0.4375,1.01562 0.4375,0.39063 2.28125,0.8125 1.859375,0.42188 2.546875,0.73438 1,0.45312 1.46875,1.17187 0.484375,0.70313 0.484375,1.625 0,0.90625 -0.53125,1.71875 -0.515625,0.8125 -1.5,1.26563 -0.984375,0.45312 -2.203125,0.45312 -1.5625,0 -2.609375,-0.45312 -1.046875,-0.46875 -1.65625,-1.375 -0.59375,-0.90625 -0.625,-2.0625 z m 14.07813,2.42187 0.20312,1.25 q -0.59375,0.125 -1.0625,0.125 -0.76562,0 -1.1875,-0.23437 -0.42187,-0.25 -0.59375,-0.64063 -0.17187,-0.40625 -0.17187,-1.67187 v -4.76563 h -1.031255 v -1.09375 h 1.031255 v -2.0625 l 1.40625,-0.84375 v 2.90625 h 1.40625 v 1.09375 h -1.40625 v 4.84375 q 0,0.60938 0.0625,0.78125 0.0781,0.17188 0.25,0.28125 0.17187,0.0937 0.48437,0.0937 0.23438,0 0.60938,-0.0625 z m 6.78906,0.23438 q -0.78125,0.67187 -1.5,0.95312 -0.71875,0.26563 -1.54688,0.26563 -1.375,0 -2.10937,-0.67188 -0.73438,-0.67187 -0.73438,-1.70312 0,-0.60938 0.28125,-1.10938 0.28125,-0.51562 0.71875,-0.8125 0.45313,-0.3125 1.01563,-0.46875 0.42187,-0.10937 1.25,-0.20312 1.70312,-0.20313 2.51562,-0.48438 0,-0.29687 0,-0.375 0,-0.85937 -0.39062,-1.20312 -0.54688,-0.48438 -1.60938,-0.48438 -0.98437,0 -1.46875,0.35938 -0.46875,0.34375 -0.6875,1.21875 l -1.375,-0.1875 q 0.1875,-0.875 0.60938,-1.42188 0.4375,-0.54687 1.25,-0.82812 0.8125,-0.29688 1.875,-0.29688 1.0625,0 1.71875,0.25 0.67187,0.25 0.98437,0.625 0.3125,0.375 0.4375,0.95313 0.0781,0.35937 0.0781,1.29687 v 1.875 q 0,1.96875 0.0781,2.48438 0.0937,0.51562 0.35938,1 h -1.46875 q -0.21875,-0.4375 -0.28125,-1.03125 z m -0.10938,-3.14063 q -0.76562,0.3125 -2.29687,0.53125 -0.875,0.125 -1.23438,0.28125 -0.35937,0.15625 -0.5625,0.46875 -0.1875,0.29688 -0.1875,0.65625 0,0.5625 0.42188,0.9375 0.4375,0.375 1.25,0.375 0.8125,0 1.4375,-0.34375 0.64062,-0.35937 0.9375,-0.98437 0.23437,-0.46875 0.23437,-1.40625 z m 3.58594,4.17188 v -8.29688 h 1.26563 v 1.25 q 0.48437,-0.875 0.89062,-1.15625 0.40625,-0.28125 0.90625,-0.28125 0.70313,0 1.4375,0.45313 l -0.48437,1.29687 q -0.51563,-0.29687 -1.03125,-0.29687 -0.45313,0 -0.82813,0.28125 -0.35937,0.26562 -0.51562,0.76562 -0.23438,0.75 -0.23438,1.64063 v 4.34375 z m 8.40625,-1.26563 0.20313,1.25 q -0.59375,0.125 -1.0625,0.125 -0.76563,0 -1.1875,-0.23437 -0.42188,-0.25 -0.59375,-0.64063 -0.17188,-0.40625 -0.17188,-1.67187 v -4.76563 h -1.03125 v -1.09375 h 1.03125 v -2.0625 l 1.40625,-0.84375 v 2.90625 h 1.40625 v 1.09375 h -1.40625 v 4.84375 q 0,0.60938 0.0625,0.78125 0.0781,0.17188 0.25,0.28125 0.17188,0.0937 0.48438,0.0937 0.23437,0 0.60937,-0.0625 z" />
    <path
       style="fill:#000000;fill-opacity:0;fill-rule:evenodd"
       id="path891"
       d="m 329.43832,197.02907 c 3.49515,4.13071 11.10199,24.88141 20.97082,24.78426 9.86884,-0.0972 31.8685,-21.13933 38.24219,-25.36721" />
    <path
       style="fill-rule:evenodd;stroke:#000000;stroke-width:1;stroke-linecap:butt;stroke-linejoin:round"
       id="path893"
       d="m 329.43832,197.02908 c 3.49515,4.13069 11.10202,24.88139 20.97082,24.78424 4.93445,-0.0486 12.90155,-5.33342 20.43177,-11.13458 3.76513,-2.90059 7.42102,-5.93025 10.53399,-8.49901 0.77823,-0.64221 1.52253,-1.25559 2.22614,-1.83093 l 0.29675,-0.24152" />
    <path
       style="fill:#000000;fill-rule:evenodd;stroke:#000000;stroke-width:1;stroke-linecap:butt"
       id="path895"
       d="m 384.90567,201.41588 2.58746,-4.07771 -4.60321,1.46052 z" />
    <path
       style="fill:#000000;fill-opacity:0;fill-rule:evenodd"
       id="path897"
       d="m 388.6509,197.03038 c 3.49515,4.13071 11.10202,24.88141 20.97086,24.78426 9.86883,-0.0972 31.86847,-21.13933 38.24215,-25.36721" />
    <path
       style="fill-rule:evenodd;stroke:#000000;stroke-width:1;stroke-linecap:butt;stroke-linejoin:round"
       id="path899"
       d="m 388.6509,197.0304 c 3.49518,4.13069 11.10199,24.88139 20.97086,24.78424 4.93441,-0.0486 12.90152,-5.33342 20.43176,-11.13458 3.76514,-2.90059 7.42099,-5.93025 10.534,-8.49901 0.77819,-0.64221 1.52252,-1.25559 2.22613,-1.83093 l 0.29675,-0.24152" />
    <path
       style="fill:#000000;fill-rule:evenodd;stroke:#000000;stroke-width:1;stroke-linecap:butt"
       id="path901"
       d="m 444.1183,201.41719 2.58743,-4.07771 -4.60318,1.46052 z" />
    <path
       style="fill:#000000;fill-opacity:0;fill-rule:evenodd"
       id="path903"
       d="m 447.86353,197.03038 c 3.49512,4.13071 11.10199,24.88141 20.97083,24.78426 9.86883,-0.0972 31.86847,-21.13933 38.24218,-25.36721" />
    <path
       style="fill-rule:evenodd;stroke:#000000;stroke-width:1;stroke-linecap:butt;stroke-linejoin:round"
       id="path905"
       d="m 447.86353,197.0304 c 3.49515,4.13069 11.10199,24.88139 20.97083,24.78424 4.93441,-0.0486 12.90154,-5.33342 20.43176,-11.13458 3.76513,-2.90059 7.42102,-5.93025 10.53399,-8.49901 0.77823,-0.64221 1.52253,-1.25559 2.22614,-1.83093 l 0.29675,-0.24152" />
    <path
       style="fill:#000000;fill-rule:evenodd;stroke:#000000;stroke-width:1;stroke-linecap:butt"
       id="path907"
       d="m 503.33087,201.41719 2.58746,-4.07771 -4.60321,1.46052 z" />
    <path
       style="fill:#000000;fill-opacity:0;fill-rule:evenodd"
       id="path909"
       d="m 507.0761,197.02907 c 3.49515,4.13071 11.10199,24.88141 20.97082,24.78426 9.86884,-0.0972 31.86847,-21.13933 38.24219,-25.36721" />
    <path
       style="fill-rule:evenodd;stroke:#000000;stroke-width:1;stroke-linecap:butt;stroke-linejoin:round"
       id="path911"
       d="m 507.0761,197.02908 c 3.49518,4.13069 11.10199,24.88139 20.97082,24.78424 4.93445,-0.0486 12.90156,-5.33342 20.43177,-11.13458 3.76513,-2.90059 7.42102,-5.93025 10.534,-8.49901 0.77825,-0.64221 1.52252,-1.25559 2.22613,-1.83093 l 0.29675,-0.24152" />
    <path
       style="fill:#000000;fill-rule:evenodd;stroke:#000000;stroke-width:1;stroke-linecap:butt"
       id="path913"
       d="m 562.54346,201.41588 2.58746,-4.07771 -4.60321,1.46052 z" />
    <path
       style="fill:#000000;fill-opacity:0;fill-rule:evenodd"
       id="path915"
       d="m 566.2887,197.02907 c 3.49518,4.13071 11.10205,24.88141 20.97089,24.78426 9.86883,-0.0972 31.86847,-21.13933 38.24212,-25.36721" />
    <path
       style="fill-rule:evenodd;stroke:#000000;stroke-width:1;stroke-linecap:butt;stroke-linejoin:round"
       id="path917"
       d="m 566.2887,197.02908 c 3.49518,4.13069 11.10199,24.88139 20.97089,24.78424 4.93438,-0.0486 12.90148,-5.33342 20.4317,-11.13458 3.76513,-2.90059 7.42102,-5.93025 10.53406,-8.49901 0.77819,-0.64221 1.52246,-1.25559 2.22607,-1.83093 l 0.29675,-0.24152" />
    <path
       style="fill:#000000;fill-rule:evenodd;stroke:#000000;stroke-width:1;stroke-linecap:butt"
       id="path919"
       d="m 621.75604,201.41588 2.58746,-4.07771 -4.60321,1.46052 z" />
    <path
       style="fill:#000000;fill-opacity:0;fill-rule:evenodd"
       id="path921"
       d="m 625.50134,197.02907 c 3.49512,4.13071 11.10199,24.88141 20.97083,24.78426 9.86883,-0.0972 31.86847,-21.13933 38.24212,-25.36721" />
    <path
       style="fill-rule:evenodd;stroke:#000000;stroke-width:1;stroke-linecap:butt;stroke-linejoin:round"
       id="path923"
       d="m 625.50134,197.02908 c 3.49512,4.13069 11.10199,24.88139 20.97083,24.78424 4.93438,-0.0486 12.90148,-5.33342 20.43176,-11.13458 3.76513,-2.90059 7.42102,-5.93025 10.534,-8.49901 0.77819,-0.64221 1.52252,-1.25559 2.22613,-1.83093 l 0.29675,-0.24152" />
    <path
       style="fill:#000000;fill-rule:evenodd;stroke:#000000;stroke-width:1;stroke-linecap:butt"
       id="path925"
       d="m 680.9687,201.41588 2.58746,-4.07771 -4.60321,1.46052 z" />
    <path
       style="fill:#000000;fill-opacity:0;fill-rule:evenodd"
       id="path927"
       d="m 272.18503,197.02907 c 3.49515,4.13071 11.10202,24.88141 20.97086,24.78426 9.86883,-0.0972 31.86847,-21.13933 38.24215,-25.36721" />
    <path
       style="fill-rule:evenodd;stroke:#000000;stroke-width:1;stroke-linecap:butt;stroke-linejoin:round"
       id="path929"
       d="m 272.18503,197.02908 c 3.49515,4.13069 11.10202,24.88139 20.97086,24.78424 4.93441,-0.0486 12.90152,-5.33342 20.43176,-11.13458 3.76511,-2.90059 7.42102,-5.93025 10.53397,-8.49901 0.77822,-0.64221 1.52255,-1.25559 2.22616,-1.83093 l 0.29675,-0.24152" />
    <path
       style="fill:#000000;fill-rule:evenodd;stroke:#000000;stroke-width:1;stroke-linecap:butt"
       id="path931"
       d="m 327.6524,201.41586 2.58743,-4.0777 -4.60318,1.46053 z" />
    <path
       style="fill:#000000;fill-opacity:0;fill-rule:evenodd"
       id="path933"
       d="m 212.97244,197.02907 c 3.49513,4.13071 11.102,24.88141 20.97084,24.78426 9.86883,-0.0972 31.86848,-21.13933 38.24217,-25.36721" />
    <path
       style="fill-rule:evenodd;stroke:#000000;stroke-width:1;stroke-linecap:butt;stroke-linejoin:round"
       id="path935"
       d="m 212.97244,197.02908 c 3.49513,4.13069 11.102,24.88139 20.97084,24.78424 4.93442,-0.0486 12.90153,-5.33342 20.43176,-11.13458 3.76512,-2.90059 7.42101,-5.93025 10.53398,-8.49901 0.77823,-0.64221 1.52256,-1.25559 2.22614,-1.83093 l 0.29675,-0.24152" />
    <path
       style="fill:#000000;fill-rule:evenodd;stroke:#000000;stroke-width:1;stroke-linecap:butt"
       id="path937"
       d="m 268.4398,201.41586 2.58746,-4.0777 -4.60321,1.46053 z" />
    <path
       style="fill:#000000;fill-opacity:0;fill-rule:evenodd"
       id="path939"
       d="m 155.72179,197.02907 c 3.49513,4.13071 11.102,24.88141 20.97084,24.78426 9.86883,-0.0972 31.86847,-21.13933 38.24217,-25.36721" />
    <path
       style="fill-rule:evenodd;stroke:#000000;stroke-width:1;stroke-linecap:butt;stroke-linejoin:round"
       id="path941"
       d="m 155.72179,197.02908 c 3.49513,4.13069 11.102,24.88139 20.97084,24.78424 4.93442,-0.0486 12.90153,-5.33342 20.43176,-11.13458 3.76511,-2.90059 7.42101,-5.93025 10.53397,-8.49901 0.77824,-0.64221 1.52257,-1.25559 2.22616,-1.83093 l 0.29674,-0.24152" />
    <path
       style="fill:#000000;fill-rule:evenodd;stroke:#000000;stroke-width:1;stroke-linecap:butt"
       id="path943"
       d="m 211.18913,201.41586 2.58746,-4.0777 -4.60319,1.46053 z" />
  </g>
</svg>
