<?xml version="1.0" standalone="yes"?>

<svg version="1.1" viewBox="0.0 0.0 960.0 540.0" fill="none" stroke="none" stroke-linecap="square" stroke-miterlimit="10" xmlns="http://www.w3.org/2000/svg" xmlns:xlink="http://www.w3.org/1999/xlink"><clipPath id="g2a41aed0ed_0_17.0"><path d="m0 0l960.0 0l0 540.0l-960.0 0l0 -540.0z" clip-rule="nonzero"></path></clipPath><g clip-path="url(#g2a41aed0ed_0_17.0)"><path fill="#ffffff" d="m0 0l960.0 0l0 540.0l-960.0 0z" fill-rule="evenodd"></path><path fill="#1155cc" d="m345.6509 245.21785l322.17325 0l0 92.598434l-322.17325 0z" fill-rule="evenodd"></path><path fill="#000000" fill-opacity="0.0" d="m238.98163 91.732285l518.83466 0l0 356.53546l-518.83466 0z" fill-rule="evenodd"></path><path fill="#0000ff" d="m254.23163 153.00665q-1.484375 0 -2.640625 -0.65625q-1.15625 -0.671875 -1.828125 -2.109375q-0.65625 -1.453125 -0.65625 -3.703125q0 -3.5 1.65625 -5.234375q1.671875 -1.75 4.921875 -1.75q0.9375 0 2.109375 0.171875l0 -6.34375l1.921875 0l0 19.390625l-1.640625 0l-0.140625 -1.421875l-0.109375 0q-0.609375 0.765625 -1.546875 1.21875q-0.921875 0.4375 -2.046875 0.4375zm0.453125 -1.65625q0.90625 0 1.734375 -0.40625q0.828125 -0.40625 1.375 -1.203125l0 -8.390625q-0.453125 -0.09375 -1.03125 -0.15625q-0.578125 -0.078125 -1.109375 -0.078125q-2.3125 0 -3.453125 1.25q-1.140625 1.234375 -1.140625 3.984375q0 2.71875 0.9375 3.859375q0.953125 1.140625 2.6875 1.140625zm18.25122 -4.453125l-8.328125 0q0.046875 1.65625 0.53125 2.65625q0.5 0.984375 1.453125 1.4375q0.96875 0.4375 2.46875 0.4375q1.40625 0 3.234375 -0.53125l0 1.578125q-1.78125 0.53125 -3.46875 0.53125q-3.109375 0 -4.640625 -1.609375q-1.53125 -1.609375 -1.53125 -5.140625q0 -3.34375 1.390625 -5.015625q1.390625 -1.6875 3.875 -1.6875q2.4375 0 3.71875 1.671875q1.296875 1.671875 1.296875 5.078125l0 0.59375zm-5.03125 -5.9375q-1.578125 0 -2.421875 1.078125q-0.828125 1.078125 -0.875 3.546875l6.484375 0q-0.046875 -2.484375 -0.84375 -3.546875q-0.796875 -1.078125 -2.34375 -1.078125zm13.578827 -6.203125q-1.5625 0 -2.296875 0.703125q-0.71875 0.6875 -0.71875 2.25l0 2.046875l4.09375 0l0 1.578125l-4.09375 0l0 11.4375l-1.90625 0l0 -11.4375l-2.453125 0l0 -1.578125l2.453125 0l0 -1.953125q0 -2.296875 1.203125 -3.46875q1.203125 -1.1875 3.546875 -1.1875q0.890625 0 1.765625 0.140625l0 1.609375q-0.8125 -0.140625 -1.59375 -0.140625z" fill-rule="nonzero"></path><path fill="#000000" d="m294.19003 153.00665q-1.03125 0 -2.078125 -0.15625q-1.03125 -0.15625 -1.9375 -0.4375l0 -19.03125l1.921875 0l0 7.71875l0.125 0q0.609375 -0.71875 1.53125 -1.125q0.921875 -0.421875 2.0625 -0.421875q1.421875 0 2.53125 0.65625q1.125 0.640625 1.78125 2.09375q0.65625 1.4375 0.65625 3.71875q0 6.984375 -6.59375 6.984375zm0.140625 -1.578125q2.265625 0 3.375 -1.25q1.125 -1.25 1.125 -4.0q0 -2.71875 -0.953125 -3.84375q-0.953125 -1.125 -2.640625 -1.125q-0.921875 0 -1.765625 0.390625q-0.828125 0.375 -1.375 1.109375l0 8.421875q0.984375 0.296875 2.234375 0.296875zm13.391846 1.5625q-1.921875 0 -3.03125 -1.09375q-1.109375 -1.09375 -1.109375 -3.5l0 -8.640625l1.921875 0l0 8.546875q0 1.59375 0.6875 2.28125q0.703125 0.6875 1.96875 0.6875q0.96875 0 1.921875 -0.421875q0.96875 -0.4375 1.625 -1.3125l0 -9.78125l1.921875 0l0 13.015625l-1.625 0l-0.140625 -1.421875l-0.125 0q-0.796875 0.8125 -1.828125 1.234375q-1.03125 0.40625 -2.1875 0.40625zm13.539734 0.015625q-1.03125 0 -2.078125 -0.15625q-1.03125 -0.15625 -1.9375 -0.4375l0 -19.03125l1.921875 0l0 7.71875l0.125 0q0.609375 -0.71875 1.53125 -1.125q0.921875 -0.421875 2.0625 -0.421875q1.421875 0 2.53125 0.65625q1.125 0.640625 1.78125 2.09375q0.65625 1.4375 0.65625 3.71875q0 6.984375 -6.59375 6.984375zm0.140625 -1.578125q2.265625 0 3.375 -1.25q1.125 -1.25 1.125 -4.0q0 -2.71875 -0.953125 -3.84375q-0.953125 -1.125 -2.640625 -1.125q-0.921875 0 -1.765625 0.390625q-0.828125 0.375 -1.375 1.109375l0 8.421875q0.984375 0.296875 2.234375 0.296875zm13.407471 1.578125q-1.03125 0 -2.078125 -0.15625q-1.03125 -0.15625 -1.9375 -0.4375l0 -19.03125l1.921875 0l0 7.71875l0.125 0q0.609375 -0.71875 1.53125 -1.125q0.921875 -0.421875 2.0625 -0.421875q1.421875 0 2.53125 0.65625q1.125 0.640625 1.78125 2.09375q0.65625 1.4375 0.65625 3.71875q0 6.984375 -6.59375 6.984375zm0.140625 -1.578125q2.265625 0 3.375 -1.25q1.125 -1.25 1.125 -4.0q0 -2.71875 -0.953125 -3.84375q-0.953125 -1.125 -2.640625 -1.125q-0.921875 0 -1.765625 0.390625q-0.828125 0.375 -1.375 1.109375l0 8.421875q0.984375 0.296875 2.234375 0.296875zm9.391846 1.34375l0 -19.390625l1.921875 0l0 19.390625l-1.921875 0zm15.137787 -5.875l-8.328125 0q0.046875 1.65625 0.53125 2.65625q0.5 0.984375 1.453125 1.4375q0.96875 0.4375 2.46875 0.4375q1.40625 0 3.234375 -0.53125l0 1.578125q-1.78125 0.53125 -3.46875 0.53125q-3.109375 0 -4.640625 -1.609375q-1.53125 -1.609375 -1.53125 -5.140625q0 -3.34375 1.390625 -5.015625q1.390625 -1.6875 3.875 -1.6875q2.4375 0 3.71875 1.671875q1.296875 1.671875 1.296875 5.078125l0 0.59375zm-5.03125 -5.9375q-1.578125 0 -2.421875 1.078125q-0.828125 1.078125 -0.875 3.546875l6.484375 0q-0.046875 -2.484375 -0.84375 -3.546875q-0.796875 -1.078125 -2.34375 -1.078125zm7.094452 13.40625l0 -1.59375l11.25 0l0 1.59375l-11.25 0zm17.276611 -1.359375q-1.984375 0 -3.609375 -0.53125l0 -1.546875q1.78125 0.53125 3.609375 0.53125q3.21875 0 3.21875 -2.171875q0 -0.890625 -0.46875 -1.359375q-0.453125 -0.46875 -1.546875 -0.71875l-1.75 -0.359375q-1.75 -0.359375 -2.53125 -1.21875q-0.78125 -0.875 -0.78125 -2.3125q0 -1.125 0.5625 -1.96875q0.578125 -0.859375 1.734375 -1.328125q1.15625 -0.46875 2.859375 -0.46875q1.5625 0 3.0625 0.375l0 1.5625q-0.78125 -0.21875 -1.5 -0.3125q-0.71875 -0.09375 -1.515625 -0.09375q-1.765625 0 -2.5625 0.59375q-0.796875 0.59375 -0.796875 1.59375q0 0.796875 0.4375 1.296875q0.453125 0.484375 1.5 0.71875l1.765625 0.359375q1.78125 0.375 2.578125 1.234375q0.796875 0.84375 0.796875 2.296875q0 1.8125 -1.3125 2.828125q-1.296875 1.0 -3.75 1.0zm12.534454 0q-2.609375 0 -4.078125 -1.65625q-1.453125 -1.65625 -1.453125 -5.0625q0 -3.421875 1.453125 -5.078125q1.453125 -1.65625 4.078125 -1.65625q2.640625 0 4.09375 1.640625q1.453125 1.640625 1.453125 5.078125q0 3.40625 -1.46875 5.078125q-1.453125 1.65625 -4.078125 1.65625zm0 -1.5625q1.75 0 2.65625 -1.1875q0.921875 -1.1875 0.921875 -3.953125q0 -2.8125 -0.921875 -4.0q-0.90625 -1.1875 -2.65625 -1.1875q-1.734375 0 -2.65625 1.1875q-0.921875 1.171875 -0.921875 3.9375q0 2.8125 0.90625 4.015625q0.921875 1.1875 2.671875 1.1875zm8.488342 -11.6875l1.609375 0l0.15625 1.734375l0.125 0q0.640625 -0.90625 1.65625 -1.390625q1.015625 -0.484375 2.140625 -0.484375q0.53125 0 1.046875 0.09375l0 1.796875q-0.515625 -0.09375 -1.125 -0.09375q-1.03125 0 -2.0625 0.484375q-1.015625 0.46875 -1.625 1.359375l0 9.515625l-1.921875 0l0 -13.015625zm14.078674 11.578125q0.6875 0 1.59375 -0.1875l0 1.609375q-1.015625 0.25 -2.0 0.25q-4.21875 0 -4.21875 -4.328125l0 -7.34375l-2.453125 0l0 -1.578125l2.453125 0l0.3125 -4.75l1.609375 0l0 4.75l4.09375 0l0 1.578125l-4.09375 0l0 7.046875q0 1.59375 0.65625 2.28125q0.65625 0.671875 2.046875 0.671875zm7.3786926 6.71875q-4.09375 -5.046875 -4.09375 -12.34375q0 -7.296875 4.09375 -12.328125l2.0625 0q-2.15625 2.703125 -3.171875 5.78125q-1.0 3.0625 -1.0 6.546875q0 3.5 1.0 6.5625q1.015625 3.0625 3.171875 5.78125l-2.0625 0zm16.15805 -5.28125l-2.03125 -5.75l-7.5 0l-2.015625 5.75l-1.953125 0l6.359375 -17.765625l2.75 0l6.375 17.765625l-1.984375 0zm-8.953125 -7.390625l6.34375 0l-3.171875 -8.953125l-3.171875 8.953125zm11.535492 12.671875q2.15625 -2.71875 3.15625 -5.765625q1.015625 -3.0625 1.015625 -6.578125q0 -3.5 -1.015625 -6.5625q-1.0 -3.0625 -3.15625 -5.765625l2.0625 0q4.09375 5.015625 4.09375 12.328125q0 7.328125 -4.09375 12.34375l-2.0625 0zm10.423676 -5.125q-0.625 0 -1.015625 -0.359375q-0.375 -0.359375 -0.375 -0.96875q0 -0.609375 0.375 -0.96875q0.390625 -0.375 1.015625 -0.375q0.625 0 1.0 0.375q0.390625 0.359375 0.390625 0.96875q0 0.59375 -0.390625 0.96875q-0.375 0.359375 -1.0 0.359375zm0 -11.0q-0.625 0 -1.015625 -0.359375q-0.375 -0.359375 -0.375 -0.96875q0 -0.609375 0.375 -0.96875q0.390625 -0.375 1.015625 -0.375q0.625 0 1.0 0.375q0.390625 0.359375 0.390625 0.96875q0 0.59375 -0.390625 0.96875q-0.375 0.359375 -1.0 0.359375z" fill-rule="nonzero"></path><path fill="#000000" d="m297.79413 168.75665l1.625 0l0.125 1.46875l0.140625 0q0.796875 -0.8125 1.84375 -1.234375q1.046875 -0.4375 2.234375 -0.4375q1.96875 0 3.078125 1.09375q1.109375 1.09375 1.109375 3.515625l0 8.609375l-1.921875 0l0 -8.515625q0 -1.59375 -0.703125 -2.296875q-0.703125 -0.703125 -2.03125 -0.703125q-0.96875 0 -1.9375 0.421875q-0.96875 0.421875 -1.640625 1.3125l0 9.78125l-1.921875 0l0 -13.015625zm19.480865 2.3125l0 -1.5625l9.328125 0l0 1.5625l-9.328125 0zm0 4.734375l0 -1.5625l9.328125 0l0 1.5625l-9.328125 0zm18.799377 5.96875l0 -19.390625l1.921875 0l0 19.390625l-1.921875 0zm15.137787 -5.875l-8.328125 0q0.046875 1.65625 0.53125 2.65625q0.5 0.984375 1.453125 1.4375q0.96875 0.4375 2.46875 0.4375q1.40625 0 3.234375 -0.53125l0 1.578125q-1.78125 0.53125 -3.46875 0.53125q-3.109375 0 -4.640625 -1.609375q-1.53125 -1.609375 -1.53125 -5.140625q0 -3.34375 1.390625 -5.015625q1.390625 -1.6875 3.875 -1.6875q2.4375 0 3.71875 1.671875q1.296875 1.671875 1.296875 5.078125l0 0.59375zm-5.03125 -5.9375q-1.578125 0 -2.421875 1.078125q-0.828125 1.078125 -0.875 3.546875l6.484375 0q-0.046875 -2.484375 -0.84375 -3.546875q-0.796875 -1.078125 -2.34375 -1.078125zm7.7976074 -1.203125l1.625 0l0.125 1.46875l0.140625 0q0.796875 -0.8125 1.84375 -1.234375q1.046875 -0.4375 2.234375 -0.4375q1.96875 0 3.078125 1.09375q1.109375 1.09375 1.109375 3.515625l0 8.609375l-1.921875 0l0 -8.515625q0 -1.59375 -0.703125 -2.296875q-0.703125 -0.703125 -2.03125 -0.703125q-0.96875 0 -1.9375 0.421875q-0.96875 0.421875 -1.640625 1.3125l0 9.78125l-1.921875 0l0 -13.015625zm17.425323 18.296875q-4.09375 -5.046875 -4.09375 -12.34375q0 -7.296875 4.09375 -12.328125l2.0625 0q-2.15625 2.703125 -3.171875 5.78125q-1.0 3.0625 -1.0 6.546875q0 3.5 1.0 6.5625q1.015625 3.0625 3.171875 5.78125l-2.0625 0zm16.15805 -5.28125l-2.03125 -5.75l-7.5 0l-2.015625 5.75l-1.953125 0l6.359375 -17.765625l2.75 0l6.375 17.765625l-1.984375 0zm-8.953125 -7.390625l6.34375 0l-3.171875 -8.953125l-3.171875 8.953125zm11.535492 12.671875q2.15625 -2.71875 3.15625 -5.765625q1.015625 -3.0625 1.015625 -6.578125q0 -3.5 -1.015625 -6.5625q-1.0 -3.0625 -3.15625 -5.765625l2.0625 0q4.09375 5.015625 4.09375 12.328125q0 7.328125 -4.09375 12.34375l-2.0625 0zm15.307343 -11.21875l0 -1.625l6.484375 0l0 1.625l-6.484375 0z" fill-rule="nonzero"></path><path fill="#0000ff" d="m424.95746 163.95978l1.234375 0l0 17.8125l-1.9375 0l0 -15.375l-4.390625 3.140625l0 -1.921875l5.09375 -3.65625z" fill-rule="nonzero"></path><path fill="#0000ff" d="m303.57538 192.75665q-1.5625 0 -2.296875 0.703125q-0.71875 0.6875 -0.71875 2.25l0 2.046875l4.09375 0l0 1.578125l-4.09375 0l0 11.4375l-1.90625 0l0 -11.4375l-2.453125 0l0 -1.578125l2.453125 0l0 -1.953125q0 -2.296875 1.203125 -3.46875q1.203125 -1.1875 3.546875 -1.1875q0.890625 0 1.765625 0.140625l0 1.609375q-0.8125 -0.140625 -1.59375 -0.140625zm7.666565 18.25q-2.609375 0 -4.078125 -1.65625q-1.453125 -1.65625 -1.453125 -5.0625q0 -3.421875 1.453125 -5.078125q1.453125 -1.65625 4.078125 -1.65625q2.640625 0 4.09375 1.640625q1.453125 1.640625 1.453125 5.078125q0 3.40625 -1.46875 5.078125q-1.453125 1.65625 -4.078125 1.65625zm0 -1.5625q1.75 0 2.65625 -1.1875q0.921875 -1.1875 0.921875 -3.953125q0 -2.8125 -0.921875 -4.0q-0.90625 -1.1875 -2.65625 -1.1875q-1.734375 0 -2.65625 1.1875q-0.921875 1.171875 -0.921875 3.9375q0 2.8125 0.90625 4.015625q0.921875 1.1875 2.671875 1.1875zm8.488342 -11.6875l1.609375 0l0.15625 1.734375l0.125 0q0.640625 -0.90625 1.65625 -1.390625q1.015625 -0.484375 2.140625 -0.484375q0.53125 0 1.046875 0.09375l0 1.796875q-0.515625 -0.09375 -1.125 -0.09375q-1.03125 0 -2.0625 0.484375q-1.015625 0.46875 -1.625 1.359375l0 9.515625l-1.921875 0l0 -13.015625z" fill-rule="nonzero"></path><path fill="#000000" d="m332.13013 215.4754q1.15625 -1.5625 1.65625 -3.125q0.5 -1.546875 0.5 -3.625l0 -10.96875l1.921875 0l0 10.875q0 2.3125 -0.65625 4.09375q-0.640625 1.78125 -2.125 3.609375l-1.296875 -0.859375zm3.0 -20.546875q-0.65625 0 -1.0 -0.3125q-0.34375 -0.3125 -0.34375 -0.890625q0 -0.578125 0.34375 -0.90625q0.359375 -0.328125 1.0 -0.328125q0.625 0 0.96875 0.328125q0.359375 0.328125 0.359375 0.90625q0 0.578125 -0.359375 0.890625q-0.34375 0.3125 -0.96875 0.3125z" fill-rule="nonzero"></path><path fill="#0000ff" d="m345.71048 210.77228l0 -13.015625l1.921875 0l0 13.015625l-1.921875 0zm0.96875 -15.84375q-0.65625 0 -1.0 -0.3125q-0.34375 -0.3125 -0.34375 -0.890625q0 -0.578125 0.34375 -0.90625q0.359375 -0.328125 1.0 -0.328125q0.625 0 0.96875 0.328125q0.359375 0.328125 0.359375 0.90625q0 0.578125 -0.359375 0.890625q-0.34375 0.3125 -0.96875 0.3125zm4.5872803 2.828125l1.625 0l0.125 1.46875l0.140625 0q0.796875 -0.8125 1.84375 -1.234375q1.046875 -0.4375 2.234375 -0.4375q1.96875 0 3.078125 1.09375q1.109375 1.09375 1.109375 3.515625l0 8.609375l-1.921875 0l0 -8.515625q0 -1.59375 -0.703125 -2.296875q-0.703125 -0.703125 -2.03125 -0.703125q-0.96875 0 -1.9375 0.421875q-0.96875 0.421875 -1.640625 1.3125l0 9.78125l-1.921875 0l0 -13.015625z" fill-rule="nonzero"></path><path fill="#000000" d="m370.77866 197.75665l1.609375 0l0.15625 1.734375l0.125 0q0.640625 -0.90625 1.65625 -1.390625q1.015625 -0.484375 2.140625 -0.484375q0.53125 0 1.046875 0.09375l0 1.796875q-0.515625 -0.09375 -1.125 -0.09375q-1.03125 0 -2.0625 0.484375q-1.015625 0.46875 -1.625 1.359375l0 9.515625l-1.921875 0l0 -13.015625zm12.563049 -0.203125q1.703125 0 2.796875 0.4375q1.09375 0.4375 1.640625 1.484375q0.5625 1.03125 0.5625 2.765625l0 8.53125l-1.609375 0l-0.15625 -1.453125l-0.125 0q-0.625 0.796875 -1.625 1.234375q-0.984375 0.4375 -2.125 0.4375q-1.21875 0 -2.109375 -0.421875q-0.890625 -0.4375 -1.359375 -1.234375q-0.46875 -0.8125 -0.46875 -1.90625q0 -1.71875 1.125 -2.65625q1.125 -0.953125 3.578125 -1.1875l2.984375 -0.328125l0 -1.109375q0 -1.171875 -0.375 -1.828125q-0.359375 -0.65625 -1.09375 -0.921875q-0.71875 -0.28125 -1.890625 -0.28125q-0.8125 0 -1.734375 0.15625q-0.90625 0.140625 -1.78125 0.4375l0 -1.578125q0.796875 -0.28125 1.8125 -0.421875q1.03125 -0.15625 1.953125 -0.15625zm-0.171875 11.953125q0.921875 0 1.765625 -0.390625q0.859375 -0.390625 1.515625 -1.203125l0 -3.359375l-2.84375 0.3125q-1.53125 0.15625 -2.21875 0.75q-0.6875 0.578125 -0.6875 1.640625q0 1.109375 0.625 1.6875q0.625 0.5625 1.84375 0.5625zm8.6449585 -11.75l1.625 0l0.125 1.46875l0.140625 0q0.796875 -0.8125 1.84375 -1.234375q1.046875 -0.4375 2.234375 -0.4375q1.96875 0 3.078125 1.09375q1.109375 1.09375 1.109375 3.515625l0 8.609375l-1.921875 0l0 -8.515625q0 -1.59375 -0.703125 -2.296875q-0.703125 -0.703125 -2.03125 -0.703125q-0.96875 0 -1.9375 0.421875q-0.96875 0.421875 -1.640625 1.3125l0 9.78125l-1.921875 0l0 -13.015625zm17.612854 18.53125q-0.9375 0 -1.953125 -0.15625q-1.015625 -0.140625 -1.875 -0.421875l0 -1.609375q1.953125 0.609375 3.734375 0.609375q1.4375 0 2.328125 -0.40625q0.90625 -0.390625 1.34375 -1.28125q0.453125 -0.875 0.453125 -2.375l0 -1.25l-0.109375 0q-0.625 0.71875 -1.546875 1.140625q-0.921875 0.40625 -2.0625 0.40625q-1.40625 0 -2.53125 -0.65625q-1.109375 -0.65625 -1.78125 -2.09375q-0.65625 -1.4375 -0.65625 -3.671875q0 -3.484375 1.65625 -5.21875q1.671875 -1.75 4.953125 -1.75q1.0 0 2.0625 0.15625q1.0625 0.15625 1.9375 0.421875l0 12.21875q0 2.109375 -0.65625 3.421875q-0.65625 1.3125 -1.96875 1.90625q-1.3125 0.609375 -3.328125 0.609375zm0.890625 -6.984375q0.90625 0 1.75 -0.375q0.84375 -0.390625 1.390625 -1.125l0 -8.421875q-1.078125 -0.265625 -2.234375 -0.265625q-2.25 0 -3.375 1.25q-1.125 1.25 -1.125 3.96875q0 2.734375 0.9375 3.859375q0.953125 1.109375 2.65625 1.109375zm18.28247 -4.40625l-8.328125 0q0.046875 1.65625 0.53125 2.65625q0.5 0.984375 1.453125 1.4375q0.96875 0.4375 2.46875 0.4375q1.40625 0 3.234375 -0.53125l0 1.578125q-1.78125 0.53125 -3.46875 0.53125q-3.109375 0 -4.640625 -1.609375q-1.53125 -1.609375 -1.53125 -5.140625q0 -3.34375 1.390625 -5.015625q1.390625 -1.6875 3.875 -1.6875q2.4375 0 3.71875 1.671875q1.296875 1.671875 1.296875 5.078125l0 0.59375zm-5.03125 -5.9375q-1.578125 0 -2.421875 1.078125q-0.828125 1.078125 -0.875 3.546875l6.484375 0q-0.046875 -2.484375 -0.84375 -3.546875q-0.796875 -1.078125 -2.34375 -1.078125zm11.578827 17.09375q-4.09375 -5.046875 -4.09375 -12.34375q0 -7.296875 4.09375 -12.328125l2.0625 0q-2.15625 2.703125 -3.171875 5.78125q-1.0 3.0625 -1.0 6.546875q0 3.5 1.0 6.5625q1.015625 3.0625 3.171875 5.78125l-2.0625 0zm4.1268005 -18.296875l1.625 0l0.125 1.46875l0.140625 0q0.796875 -0.8125 1.84375 -1.234375q1.046875 -0.4375 2.234375 -0.4375q1.96875 0 3.078125 1.09375q1.109375 1.09375 1.109375 3.515625l0 8.609375l-1.921875 0l0 -8.515625q0 -1.59375 -0.703125 -2.296875q-0.703125 -0.703125 -2.03125 -0.703125q-0.96875 0 -1.9375 0.421875q-0.96875 0.421875 -1.640625 1.3125l0 9.78125l-1.921875 0l0 -13.015625zm14.550354 10.5q0.6875 0 1.046875 0.4375q0.375 0.421875 0.375 1.3125q0 1.1875 -0.328125 2.359375q-0.328125 1.171875 -0.875 2.203125l-1.140625 0q0.40625 -1.078125 0.625 -1.953125q0.21875 -0.859375 0.265625 -1.6875q-0.59375 -0.03125 -0.953125 -0.390625q-0.359375 -0.359375 -0.359375 -0.953125q0 -0.609375 0.359375 -0.96875q0.375 -0.359375 0.984375 -0.359375z" fill-rule="nonzero"></path><path fill="#0000ff" d="m470.0068 211.00665q-2.9375 0 -4.53125 -2.171875q-1.59375 -2.171875 -1.59375 -6.9375q0 -4.78125 1.578125 -6.9375q1.578125 -2.171875 4.546875 -2.171875q2.96875 0 4.53125 2.171875q1.578125 2.15625 1.578125 6.9375q0 4.765625 -1.59375 6.9375q-1.578125 2.171875 -4.515625 2.171875zm0 -1.6875q1.328125 0 2.234375 -0.671875q0.921875 -0.6875 1.421875 -2.3125q0.5 -1.640625 0.5 -4.40625q0 -2.796875 -0.5 -4.4375q-0.5 -1.640625 -1.421875 -2.328125q-0.90625 -0.703125 -2.234375 -0.703125q-1.34375 0 -2.265625 0.6875q-0.90625 0.6875 -1.40625 2.328125q-0.484375 1.625 -0.484375 4.375q0 2.796875 0.484375 4.453125q0.5 1.640625 1.40625 2.328125q0.921875 0.6875 2.265625 0.6875z" fill-rule="nonzero"></path><path fill="#000000" d="m480.21365 208.25665q0.6875 0 1.046875 0.4375q0.375 0.421875 0.375 1.3125q0 1.1875 -0.328125 2.359375q-0.328125 1.171875 -0.875 2.203125l-1.140625 0q0.40625 -1.078125 0.625 -1.953125q0.21875 -0.859375 0.265625 -1.6875q-0.59375 -0.03125 -0.953125 -0.390625q-0.359375 -0.359375 -0.359375 -0.953125q0 -0.609375 0.359375 -0.96875q0.375 -0.359375 0.984375 -0.359375zm10.462585 -3.421875l0 -1.625l6.484375 0l0 1.625l-6.484375 0z" fill-rule="nonzero"></path><path fill="#0000ff" d="m504.31406 192.95978l1.234375 0l0 17.8125l-1.9375 0l0 -15.375l-4.390625 3.140625l0 -1.921875l5.09375 -3.65625z" fill-rule="nonzero"></path><path fill="#000000" d="m507.9491 216.05353q2.15625 -2.71875 3.15625 -5.765625q1.015625 -3.0625 1.015625 -6.578125q0 -3.5 -1.015625 -6.5625q-1.0 -3.0625 -3.15625 -5.765625l2.0625 0q4.09375 5.015625 4.09375 12.328125q0 7.328125 -4.09375 12.34375l-2.0625 0zm10.423645 -5.125q-0.625 0 -1.015625 -0.359375q-0.375 -0.359375 -0.375 -0.96875q0 -0.609375 0.375 -0.96875q0.390625 -0.375 1.015625 -0.375q0.625 0 1.0 0.375q0.390625 0.359375 0.390625 0.96875q0 0.59375 -0.390625 0.96875q-0.375 0.359375 -1.0 0.359375zm0 -11.0q-0.625 0 -1.015625 -0.359375q-0.375 -0.359375 -0.375 -0.96875q0 -0.609375 0.375 -0.96875q0.390625 -0.375 1.015625 -0.375q0.625 0 1.0 0.375q0.390625 0.359375 0.390625 0.96875q0 0.59375 -0.390625 0.96875q-0.375 0.359375 -1.0 0.359375z" fill-rule="nonzero"></path><path fill="#0000ff" d="m338.78363 221.75665q-1.5625 0 -2.296875 0.703125q-0.71875 0.6875 -0.71875 2.25l0 2.046875l4.09375 0l0 1.578125l-4.09375 0l0 11.4375l-1.90625 0l0 -11.4375l-2.453125 0l0 -1.578125l2.453125 0l0 -1.953125q0 -2.296875 1.203125 -3.46875q1.203125 -1.1875 3.546875 -1.1875q0.890625 0 1.765625 0.140625l0 1.609375q-0.8125 -0.140625 -1.59375 -0.140625zm7.666565 18.25q-2.609375 0 -4.078125 -1.65625q-1.453125 -1.65625 -1.453125 -5.0625q0 -3.421875 1.453125 -5.078125q1.453125 -1.65625 4.078125 -1.65625q2.640625 0 4.09375 1.640625q1.453125 1.640625 1.453125 5.078125q0 3.40625 -1.46875 5.078125q-1.453125 1.65625 -4.078125 1.65625zm0 -1.5625q1.75 0 2.65625 -1.1875q0.921875 -1.1875 0.921875 -3.953125q0 -2.8125 -0.921875 -4.0q-0.90625 -1.1875 -2.65625 -1.1875q-1.734375 0 -2.65625 1.1875q-0.921875 1.171875 -0.921875 3.9375q0 2.8125 0.90625 4.015625q0.921875 1.1875 2.671875 1.1875zm8.488342 -11.6875l1.609375 0l0.15625 1.734375l0.125 0q0.640625 -0.90625 1.65625 -1.390625q1.015625 -0.484375 2.140625 -0.484375q0.53125 0 1.046875 0.09375l0 1.796875q-0.515625 -0.09375 -1.125 -0.09375q-1.03125 0 -2.0625 0.484375q-1.015625 0.46875 -1.625 1.359375l0 9.515625l-1.921875 0l0 -13.015625z" fill-rule="nonzero"></path><path fill="#000000" d="m369.49463 239.77228l0 -13.015625l1.921875 0l0 13.015625l-1.921875 0zm0.96875 -15.84375q-0.65625 0 -1.0 -0.3125q-0.34375 -0.3125 -0.34375 -0.890625q0 -0.578125 0.34375 -0.90625q0.359375 -0.328125 1.0 -0.328125q0.625 0 0.96875 0.328125q0.359375 0.328125 0.359375 0.90625q0 0.578125 -0.359375 0.890625q-0.34375 0.3125 -0.96875 0.3125z" fill-rule="nonzero"></path><path fill="#0000ff" d="m380.91873 239.77228l0 -13.015625l1.921875 0l0 13.015625l-1.921875 0zm0.96875 -15.84375q-0.65625 0 -1.0 -0.3125q-0.34375 -0.3125 -0.34375 -0.890625q0 -0.578125 0.34375 -0.90625q0.359375 -0.328125 1.0 -0.328125q0.625 0 0.96875 0.328125q0.359375 0.328125 0.359375 0.90625q0 0.578125 -0.359375 0.890625q-0.34375 0.3125 -0.96875 0.3125zm4.5872803 2.828125l1.625 0l0.125 1.46875l0.140625 0q0.796875 -0.8125 1.84375 -1.234375q1.046875 -0.4375 2.234375 -0.4375q1.96875 0 3.078125 1.09375q1.109375 1.09375 1.109375 3.515625l0 8.609375l-1.921875 0l0 -8.515625q0 -1.59375 -0.703125 -2.296875q-0.703125 -0.703125 -2.03125 -0.703125q-0.96875 0 -1.9375 0.421875q-0.96875 0.421875 -1.640625 1.3125l0 9.78125l-1.921875 0l0 -13.015625z" fill-rule="nonzero"></path><path fill="#000000" d="m405.9869 226.75665l1.609375 0l0.15625 1.734375l0.125 0q0.640625 -0.90625 1.65625 -1.390625q1.015625 -0.484375 2.140625 -0.484375q0.53125 0 1.046875 0.09375l0 1.796875q-0.515625 -0.09375 -1.125 -0.09375q-1.03125 0 -2.0625 0.484375q-1.015625 0.46875 -1.625 1.359375l0 9.515625l-1.921875 0l0 -13.015625zm12.563049 -0.203125q1.703125 0 2.796875 0.4375q1.09375 0.4375 1.640625 1.484375q0.5625 1.03125 0.5625 2.765625l0 8.53125l-1.609375 0l-0.15625 -1.453125l-0.125 0q-0.625 0.796875 -1.625 1.234375q-0.984375 0.4375 -2.125 0.4375q-1.21875 0 -2.109375 -0.421875q-0.890625 -0.4375 -1.359375 -1.234375q-0.46875 -0.8125 -0.46875 -1.90625q0 -1.71875 1.125 -2.65625q1.125 -0.953125 3.578125 -1.1875l2.984375 -0.328125l0 -1.109375q0 -1.171875 -0.375 -1.828125q-0.359375 -0.65625 -1.09375 -0.921875q-0.71875 -0.28125 -1.890625 -0.28125q-0.8125 0 -1.734375 0.15625q-0.90625 0.140625 -1.78125 0.4375l0 -1.578125q0.796875 -0.28125 1.8125 -0.421875q1.03125 -0.15625 1.953125 -0.15625zm-0.171875 11.953125q0.921875 0 1.765625 -0.390625q0.859375 -0.390625 1.515625 -1.203125l0 -3.359375l-2.84375 0.3125q-1.53125 0.15625 -2.21875 0.75q-0.6875 0.578125 -0.6875 1.640625q0 1.109375 0.625 1.6875q0.625 0.5625 1.84375 0.5625zm8.6449585 -11.75l1.625 0l0.125 1.46875l0.140625 0q0.796875 -0.8125 1.84375 -1.234375q1.046875 -0.4375 2.234375 -0.4375q1.96875 0 3.078125 1.09375q1.109375 1.09375 1.109375 3.515625l0 8.609375l-1.921875 0l0 -8.515625q0 -1.59375 -0.703125 -2.296875q-0.703125 -0.703125 -2.03125 -0.703125q-0.96875 0 -1.9375 0.421875q-0.96875 0.421875 -1.640625 1.3125l0 9.78125l-1.921875 0l0 -13.015625zm17.612854 18.53125q-0.9375 0 -1.953125 -0.15625q-1.015625 -0.140625 -1.875 -0.421875l0 -1.609375q1.953125 0.609375 3.734375 0.609375q1.4375 0 2.328125 -0.40625q0.90625 -0.390625 1.34375 -1.28125q0.453125 -0.875 0.453125 -2.375l0 -1.25l-0.109375 0q-0.625 0.71875 -1.546875 1.140625q-0.921875 0.40625 -2.0625 0.40625q-1.40625 0 -2.53125 -0.65625q-1.109375 -0.65625 -1.78125 -2.09375q-0.65625 -1.4375 -0.65625 -3.671875q0 -3.484375 1.65625 -5.21875q1.671875 -1.75 4.953125 -1.75q1.0 0 2.0625 0.15625q1.0625 0.15625 1.9375 0.421875l0 12.21875q0 2.109375 -0.65625 3.421875q-0.65625 1.3125 -1.96875 1.90625q-1.3125 0.609375 -3.328125 0.609375zm0.890625 -6.984375q0.90625 0 1.75 -0.375q0.84375 -0.390625 1.390625 -1.125l0 -8.421875q-1.078125 -0.265625 -2.234375 -0.265625q-2.25 0 -3.375 1.25q-1.125 1.25 -1.125 3.96875q0 2.734375 0.9375 3.859375q0.953125 1.109375 2.65625 1.109375zm18.28247 -4.40625l-8.328125 0q0.046875 1.65625 0.53125 2.65625q0.5 0.984375 1.453125 1.4375q0.96875 0.4375 2.46875 0.4375q1.40625 0 3.234375 -0.53125l0 1.578125q-1.78125 0.53125 -3.46875 0.53125q-3.109375 0 -4.640625 -1.609375q-1.53125 -1.609375 -1.53125 -5.140625q0 -3.34375 1.390625 -5.015625q1.390625 -1.6875 3.875 -1.6875q2.4375 0 3.71875 1.671875q1.296875 1.671875 1.296875 5.078125l0 0.59375zm-5.03125 -5.9375q-1.578125 0 -2.421875 1.078125q-0.828125 1.078125 -0.875 3.546875l6.484375 0q-0.046875 -2.484375 -0.84375 -3.546875q-0.796875 -1.078125 -2.34375 -1.078125zm11.578827 17.09375q-4.09375 -5.046875 -4.09375 -12.34375q0 -7.296875 4.09375 -12.328125l2.0625 0q-2.15625 2.703125 -3.171875 5.78125q-1.0 3.0625 -1.0 6.546875q0 3.5 1.0 6.5625q1.015625 3.0625 3.171875 5.78125l-2.0625 0zm1.9705505 -0.578125q1.15625 -1.5625 1.65625 -3.125q0.5 -1.546875 0.5 -3.625l0 -10.96875l1.921875 0l0 10.875q0 2.3125 -0.65625 4.09375q-0.640625 1.78125 -2.125 3.609375l-1.296875 -0.859375zm3.0 -20.546875q-0.65625 0 -1.0 -0.3125q-0.34375 -0.3125 -0.34375 -0.890625q0 -0.578125 0.34375 -0.90625q0.359375 -0.328125 1.0 -0.328125q0.625 0 0.96875 0.328125q0.359375 0.328125 0.359375 0.90625q0 0.578125 -0.359375 0.890625q-0.34375 0.3125 -0.96875 0.3125zm3.1498108 21.125q2.15625 -2.71875 3.15625 -5.765625q1.015625 -3.0625 1.015625 -6.578125q0 -3.5 -1.015625 -6.5625q-1.0 -3.0625 -3.15625 -5.765625l2.0625 0q4.09375 5.015625 4.09375 12.328125q0 7.328125 -4.09375 12.34375l-2.0625 0zm10.423676 -5.125q-0.625 0 -1.015625 -0.359375q-0.375 -0.359375 -0.375 -0.96875q0 -0.609375 0.375 -0.96875q0.390625 -0.375 1.015625 -0.375q0.625 0 1.0 0.375q0.390625 0.359375 0.390625 0.96875q0 0.59375 -0.390625 0.96875q-0.375 0.359375 -1.0 0.359375zm0 -11.0q-0.625 0 -1.015625 -0.359375q-0.375 -0.359375 -0.375 -0.96875q0 -0.609375 0.375 -0.96875q0.390625 -0.375 1.015625 -0.375q0.625 0 1.0 0.375q0.390625 0.359375 0.390625 0.96875q0 0.59375 -0.390625 0.96875q-0.375 0.359375 -1.0 0.359375z" fill-rule="nonzero"></path><path fill="#0000ff" d="m357.5302 268.77228l0 -13.015625l1.921875 0l0 13.015625l-1.921875 0zm0.96875 -15.84375q-0.65625 0 -1.0 -0.3125q-0.34375 -0.3125 -0.34375 -0.890625q0 -0.578125 0.34375 -0.90625q0.359375 -0.328125 1.0 -0.328125q0.625 0 0.96875 0.328125q0.359375 0.328125 0.359375 0.90625q0 0.578125 -0.359375 0.890625q-0.34375 0.3125 -0.96875 0.3125zm10.36853 -2.171875q-1.5625 0 -2.296875 0.703125q-0.71875 0.6875 -0.71875 2.25l0 2.046875l4.09375 0l0 1.578125l-4.09375 0l0 11.4375l-1.90625 0l0 -11.4375l-2.453125 0l0 -1.578125l2.453125 0l0 -1.953125q0 -2.296875 1.203125 -3.46875q1.203125 -1.1875 3.546875 -1.1875q0.890625 0 1.765625 0.140625l0 1.609375q-0.8125 -0.140625 -1.59375 -0.140625z" fill-rule="nonzero"></path><path fill="#000000" d="m389.5896 268.77228l-2.03125 -5.75l-7.5 0l-2.015625 5.75l-1.953125 0l6.359375 -17.765625l2.75 0l6.375 17.765625l-1.984375 0zm-8.953125 -7.390625l6.34375 0l-3.171875 -8.953125l-3.171875 8.953125zm13.551117 12.671875l0 -24.671875l6.09375 0l0 1.59375l-4.171875 0l0 21.484375l4.140625 0l0 1.59375l-6.0625 0zm7.4549255 -5.28125l0 -13.015625l1.921875 0l0 13.015625l-1.921875 0zm0.96875 -15.84375q-0.65625 0 -1.0 -0.3125q-0.34375 -0.3125 -0.34375 -0.890625q0 -0.578125 0.34375 -0.90625q0.359375 -0.328125 1.0 -0.328125q0.625 0 0.96875 0.328125q0.359375 0.328125 0.359375 0.90625q0 0.578125 -0.359375 0.890625q-0.34375 0.3125 -0.96875 0.3125zm2.3685608 21.125l0 -1.59375l4.125 0l0 -21.484375l-4.15625 0l0 -1.59375l6.078125 0l0 24.671875l-6.046875 0zm15.963593 -19.21875l9.328125 3.953125l0 1.734375l-9.328125 3.9375l0 -1.625l7.65625 -3.1875l-7.65625 -3.171875l0 -1.640625zm30.830627 13.9375l-2.03125 -5.75l-7.5 0l-2.015625 5.75l-1.953125 0l6.359375 -17.765625l2.75 0l6.375 17.765625l-1.984375 0zm-8.953125 -7.390625l6.34375 0l-3.171875 -8.953125l-3.171875 8.953125zm13.551117 12.671875l0 -24.671875l6.09375 0l0 1.59375l-4.171875 0l0 21.484375l4.140625 0l0 1.59375l-6.0625 0zm7.4549255 -5.28125l0 -13.015625l1.921875 0l0 13.015625l-1.921875 0zm0.96875 -15.84375q-0.65625 0 -1.0 -0.3125q-0.34375 -0.3125 -0.34375 -0.890625q0 -0.578125 0.34375 -0.90625q0.359375 -0.328125 1.0 -0.328125q0.625 0 0.96875 0.328125q0.359375 0.328125 0.359375 0.90625q0 0.578125 -0.359375 0.890625q-0.34375 0.3125 -0.96875 0.3125zm8.39978 11.5625l0 -4.0625l-3.84375 0l0 -1.5625l3.84375 0l0 -4.046875l1.640625 0l0 4.046875l3.84375 0l0 1.5625l-3.84375 0l0 4.0625l-1.640625 0z" fill-rule="nonzero"></path><path fill="#0000ff" d="m485.84558 250.95978l1.234375 0l0 17.8125l-1.9375 0l0 -15.375l-4.390625 3.140625l0 -1.921875l5.09375 -3.65625z" fill-rule="nonzero"></path><path fill="#000000" d="m488.8244 274.05353l0 -1.59375l4.125 0l0 -21.484375l-4.15625 0l0 -1.59375l6.078125 0l0 24.671875l-6.046875 0zm11.079926 -5.125q-0.625 0 -1.015625 -0.359375q-0.375 -0.359375 -0.375 -0.96875q0 -0.609375 0.375 -0.96875q0.390625 -0.375 1.015625 -0.375q0.625 0 1.0 0.375q0.390625 0.359375 0.390625 0.96875q0 0.59375 -0.390625 0.96875q-0.375 0.359375 -1.0 0.359375zm0 -11.0q-0.625 0 -1.015625 -0.359375q-0.375 -0.359375 -0.375 -0.96875q0 -0.609375 0.375 -0.96875q0.390625 -0.375 1.015625 -0.375q0.625 0 1.0 0.375q0.390625 0.359375 0.390625 0.96875q0 0.59375 -0.390625 0.96875q-0.375 0.359375 -1.0 0.359375z" fill-rule="nonzero"></path><path fill="#000000" d="m387.1656 297.77228l-2.03125 -5.75l-7.5 0l-2.015625 5.75l-1.953125 0l6.359375 -17.765625l2.75 0l6.375 17.765625l-1.984375 0zm-8.953125 -7.390625l6.34375 0l-3.171875 -8.953125l-3.171875 8.953125zm13.551117 12.671875l0 -24.671875l6.09375 0l0 1.59375l-4.171875 0l0 21.484375l4.140625 0l0 1.59375l-6.0625 0zm7.4549255 -5.28125l0 -13.015625l1.921875 0l0 13.015625l-1.921875 0zm0.96875 -15.84375q-0.65625 0 -1.0 -0.3125q-0.34375 -0.3125 -0.34375 -0.890625q0 -0.578125 0.34375 -0.90625q0.359375 -0.328125 1.0 -0.328125q0.625 0 0.96875 0.328125q0.359375 0.328125 0.359375 0.90625q0 0.578125 -0.359375 0.890625q-0.34375 0.3125 -0.96875 0.3125zm2.3685303 21.125l0 -1.59375l4.125 0l0 -21.484375l-4.15625 0l0 -1.59375l6.078125 0l0 24.671875l-6.046875 0zm11.033051 -7.796875q0.6875 0 1.046875 0.4375q0.375 0.421875 0.375 1.3125q0 1.1875 -0.328125 2.359375q-0.328125 1.171875 -0.875 2.203125l-1.140625 0q0.40625 -1.078125 0.625 -1.953125q0.21875 -0.859375 0.265625 -1.6875q-0.59375 -0.03125 -0.953125 -0.390625q-0.359375 -0.359375 -0.359375 -0.953125q0 -0.609375 0.359375 -0.96875q0.375 -0.359375 0.984375 -0.359375zm28.393127 2.515625l-2.03125 -5.75l-7.5 0l-2.015625 5.75l-1.953125 0l6.359375 -17.765625l2.75 0l6.375 17.765625l-1.984375 0zm-8.953125 -7.390625l6.34375 0l-3.171875 -8.953125l-3.171875 8.953125zm13.551117 12.671875l0 -24.671875l6.09375 0l0 1.59375l-4.171875 0l0 21.484375l4.140625 0l0 1.59375l-6.0625 0zm7.4549255 -5.28125l0 -13.015625l1.921875 0l0 13.015625l-1.921875 0zm0.96875 -15.84375q-0.65625 0 -1.0 -0.3125q-0.34375 -0.3125 -0.34375 -0.890625q0 -0.578125 0.34375 -0.90625q0.359375 -0.328125 1.0 -0.328125q0.625 0 0.96875 0.328125q0.359375 0.328125 0.359375 0.90625q0 0.578125 -0.359375 0.890625q-0.34375 0.3125 -0.96875 0.3125zm8.399811 11.5625l0 -4.0625l-3.84375 0l0 -1.5625l3.84375 0l0 -4.046875l1.640625 0l0 4.046875l3.84375 0l0 1.5625l-3.84375 0l0 4.0625l-1.640625 0z" fill-rule="nonzero"></path><path fill="#0000ff" d="m476.05353 279.95978l1.234375 0l0 17.8125l-1.9375 0l0 -15.375l-4.390625 3.140625l0 -1.921875l5.09375 -3.65625z" fill-rule="nonzero"></path><path fill="#000000" d="m479.03232 303.05353l0 -1.59375l4.125 0l0 -21.484375l-4.15625 0l0 -1.59375l6.078125 0l0 24.671875l-6.046875 0zm15.963593 -15.984375l0 -1.5625l9.328125 0l0 1.5625l-9.328125 0zm0 4.734375l0 -1.5625l9.328125 0l0 1.5625l-9.328125 0zm30.830627 5.96875l-2.03125 -5.75l-7.5 0l-2.015625 5.75l-1.953125 0l6.359375 -17.765625l2.75 0l6.375 17.765625l-1.984375 0zm-8.953125 -7.390625l6.34375 0l-3.171875 -8.953125l-3.171875 8.953125zm13.551147 12.671875l0 -24.671875l6.09375 0l0 1.59375l-4.171875 0l0 21.484375l4.140625 0l0 1.59375l-6.0625 0zm7.454895 -5.28125l0 -13.015625l1.921875 0l0 13.015625l-1.921875 0zm0.96875 -15.84375q-0.65625 0 -1.0 -0.3125q-0.34375 -0.3125 -0.34375 -0.890625q0 -0.578125 0.34375 -0.90625q0.359375 -0.328125 1.0 -0.328125q0.625 0 0.96875 0.328125q0.359375 0.328125 0.359375 0.90625q0 0.578125 -0.359375 0.890625q-0.34375 0.3125 -0.96875 0.3125zm8.39978 11.5625l0 -4.0625l-3.84375 0l0 -1.5625l3.84375 0l0 -4.046875l1.640625 0l0 4.046875l3.84375 0l0 1.5625l-3.84375 0l0 4.0625l-1.640625 0z" fill-rule="nonzero"></path><path fill="#0000ff" d="m559.8981 279.95978l1.234375 0l0 17.8125l-1.9375 0l0 -15.375l-4.390625 3.140625l0 -1.921875l5.09375 -3.65625z" fill-rule="nonzero"></path><path fill="#000000" d="m562.8769 303.05353l0 -1.59375l4.125 0l0 -21.484375l-4.15625 0l0 -1.59375l6.078125 0l0 24.671875l-6.046875 0zm11.03302 -7.796875q0.6875 0 1.046875 0.4375q0.375 0.421875 0.375 1.3125q0 1.1875 -0.328125 2.359375q-0.328125 1.171875 -0.875 2.203125l-1.140625 0q0.40625 -1.078125 0.625 -1.953125q0.21875 -0.859375 0.265625 -1.6875q-0.59375 -0.03125 -0.953125 -0.390625q-0.359375 -0.359375 -0.359375 -0.953125q0 -0.609375 0.359375 -0.96875q0.375 -0.359375 0.984375 -0.359375zm22.525085 2.515625l-2.03125 -5.75l-7.5 0l-2.015625 5.75l-1.953125 0l6.359375 -17.765625l2.75 0l6.375 17.765625l-1.984375 0zm-8.953125 -7.390625l6.34375 0l-3.171875 -8.953125l-3.171875 8.953125zm13.551147 12.671875l0 -24.671875l6.09375 0l0 1.59375l-4.171875 0l0 21.484375l4.140625 0l0 1.59375l-6.0625 0zm7.454895 -5.28125l0 -13.015625l1.921875 0l0 13.015625l-1.921875 0zm0.96875 -15.84375q-0.65625 0 -1.0 -0.3125q-0.34375 -0.3125 -0.34375 -0.890625q0 -0.578125 0.34375 -0.90625q0.359375 -0.328125 1.0 -0.328125q0.625 0 0.96875 0.328125q0.359375 0.328125 0.359375 0.90625q0 0.578125 -0.359375 0.890625q-0.34375 0.3125 -0.96875 0.3125zm2.3685913 21.125l0 -1.59375l4.125 0l0 -21.484375l-4.15625 0l0 -1.59375l6.078125 0l0 24.671875l-6.046875 0z" fill-rule="nonzero"></path><path fill="#000000" d="m356.47455 313.75665l1.625 0l0.125 1.46875l0.140625 0q0.796875 -0.8125 1.84375 -1.234375q1.046875 -0.4375 2.234375 -0.4375q1.96875 0 3.078125 1.09375q1.109375 1.09375 1.109375 3.515625l0 8.609375l-1.921875 0l0 -8.515625q0 -1.59375 -0.703125 -2.296875q-0.703125 -0.703125 -2.03125 -0.703125q-0.96875 0 -1.9375 0.421875q-0.96875 0.421875 -1.640625 1.3125l0 9.78125l-1.921875 0l0 -13.015625zm19.480865 2.3125l0 -1.5625l9.328125 0l0 1.5625l-9.328125 0zm0 4.734375l0 -1.5625l9.328125 0l0 1.5625l-9.328125 0zm18.799377 -7.046875l1.625 0l0.125 1.46875l0.140625 0q0.796875 -0.8125 1.84375 -1.234375q1.046875 -0.4375 2.234375 -0.4375q1.96875 0 3.078125 1.09375q1.109375 1.09375 1.109375 3.515625l0 8.609375l-1.921875 0l0 -8.515625q0 -1.59375 -0.703125 -2.296875q-0.703125 -0.703125 -2.03125 -0.703125q-0.96875 0 -1.9375 0.421875q-0.96875 0.421875 -1.640625 1.3125l0 9.78125l-1.921875 0l0 -13.015625zm19.480896 7.078125l0 -1.625l6.484375 0l0 1.625l-6.484375 0z" fill-rule="nonzero"></path><path fill="#0000ff" d="m433.74155 308.95978l1.234375 0l0 17.8125l-1.9375 0l0 -15.375l-4.390625 3.140625l0 -1.921875l5.09375 -3.65625z" fill-rule="nonzero"></path><path fill="#0000ff" d="m297.79413 342.75665l1.609375 0l0.15625 1.734375l0.125 0q0.640625 -0.90625 1.65625 -1.390625q1.015625 -0.484375 2.140625 -0.484375q0.53125 0 1.046875 0.09375l0 1.796875q-0.515625 -0.09375 -1.125 -0.09375q-1.03125 0 -2.0625 0.484375q-1.015625 0.46875 -1.625 1.359375l0 9.515625l-1.921875 0l0 -13.015625zm18.2818 7.140625l-8.328125 0q0.046875 1.65625 0.53125 2.65625q0.5 0.984375 1.453125 1.4375q0.96875 0.4375 2.46875 0.4375q1.40625 0 3.234375 -0.53125l0 1.578125q-1.78125 0.53125 -3.46875 0.53125q-3.109375 0 -4.640625 -1.609375q-1.53125 -1.609375 -1.53125 -5.140625q0 -3.34375 1.390625 -5.015625q1.390625 -1.6875 3.875 -1.6875q2.4375 0 3.71875 1.671875q1.296875 1.671875 1.296875 5.078125l0 0.59375zm-5.03125 -5.9375q-1.578125 0 -2.421875 1.078125q-0.828125 1.078125 -0.875 3.546875l6.484375 0q-0.046875 -2.484375 -0.84375 -3.546875q-0.796875 -1.078125 -2.34375 -1.078125zm13.188232 10.375q0.6875 0 1.59375 -0.1875l0 1.609375q-1.015625 0.25 -2.0 0.25q-4.21875 0 -4.21875 -4.328125l0 -7.34375l-2.453125 0l0 -1.578125l2.453125 0l0.3125 -4.75l1.609375 0l0 4.75l4.09375 0l0 1.578125l-4.09375 0l0 7.046875q0 1.59375 0.65625 2.28125q0.65625 0.671875 2.046875 0.671875zm7.5974426 1.65625q-1.921875 0 -3.03125 -1.09375q-1.109375 -1.09375 -1.109375 -3.5l0 -8.640625l1.921875 0l0 8.546875q0 1.59375 0.6875 2.28125q0.703125 0.6875 1.96875 0.6875q0.96875 0 1.921875 -0.421875q0.96875 -0.4375 1.625 -1.3125l0 -9.78125l1.921875 0l0 13.015625l-1.625 0l-0.140625 -1.421875l-0.125 0q-0.796875 0.8125 -1.828125 1.234375q-1.03125 0.40625 -2.1875 0.40625zm9.524078 -13.234375l1.609375 0l0.15625 1.734375l0.125 0q0.640625 -0.90625 1.65625 -1.390625q1.015625 -0.484375 2.140625 -0.484375q0.53125 0 1.046875 0.09375l0 1.796875q-0.515625 -0.09375 -1.125 -0.09375q-1.03125 0 -2.0625 0.484375q-1.015625 0.46875 -1.625 1.359375l0 9.515625l-1.921875 0l0 -13.015625zm8.68808 0l1.625 0l0.125 1.46875l0.140625 0q0.796875 -0.8125 1.84375 -1.234375q1.046875 -0.4375 2.234375 -0.4375q1.96875 0 3.078125 1.09375q1.109375 1.09375 1.109375 3.515625l0 8.609375l-1.921875 0l0 -8.515625q0 -1.59375 -0.703125 -2.296875q-0.703125 -0.703125 -2.03125 -0.703125q-0.96875 0 -1.9375 0.421875q-0.96875 0.421875 -1.640625 1.3125l0 9.78125l-1.921875 0l0 -13.015625z" fill-rule="nonzero"></path><path fill="#000000" d="m381.58588 355.77228l-2.03125 -5.75l-7.5 0l-2.015625 5.75l-1.953125 0l6.359375 -17.765625l2.75 0l6.375 17.765625l-1.984375 0zm-8.953125 -7.390625l6.34375 0l-3.171875 -8.953125l-3.171875 8.953125z" fill-rule="nonzero"></path><path fill="#000000" fill-opacity="0.0" d="m678.2572 247.69029l79.55908 0l0 87.65355l-79.55908 0z" fill-rule="evenodd"></path><path fill="#000000" d="m700.30237 289.9853q0 -3.390625 1.8125 -5.296875q1.828125 -1.921875 4.703125 -1.921875q1.875 0 3.390625 0.90625q1.515625 0.890625 2.296875 2.5q0.796875 1.609375 0.796875 3.65625q0 2.0625 -0.84375 3.703125q-0.828125 1.625 -2.359375 2.46875q-1.53125 0.84375 -3.296875 0.84375q-1.921875 0 -3.4375 -0.921875q-1.5 -0.9375 -2.28125 -2.53125q-0.78125 -1.609375 -0.78125 -3.40625zm1.859375 0.03125q0 2.453125 1.3125 3.875q1.328125 1.40625 3.3125 1.40625q2.03125 0 3.34375 -1.421875q1.3125 -1.4375 1.3125 -4.0625q0 -1.65625 -0.5625 -2.890625q-0.546875 -1.234375 -1.640625 -1.921875q-1.078125 -0.6875 -2.421875 -0.6875q-1.90625 0 -3.28125 1.3125q-1.375 1.3125 -1.375 4.390625zm16.167664 10.59375q-1.375 -1.75 -2.328125 -4.078125q-0.953125 -2.34375 -0.953125 -4.84375q0 -2.21875 0.703125 -4.234375q0.84375 -2.34375 2.578125 -4.671875l1.203125 0q-1.125 1.921875 -1.484375 2.75q-0.5625 1.28125 -0.890625 2.671875q-0.40625 1.734375 -0.40625 3.484375q0 4.46875 2.78125 8.921875l-1.203125 0zm8.8533325 -4.0l-1.671875 0l0 -10.640625q-0.59375 0.578125 -1.578125 1.15625q-0.984375 0.5625 -1.765625 0.859375l0 -1.625q1.40625 -0.65625 2.453125 -1.59375q1.046875 -0.9375 1.484375 -1.8125l1.078125 0l0 13.65625zm5.6413574 4.0l-1.1875 0q2.765625 -4.453125 2.765625 -8.921875q0 -1.734375 -0.390625 -3.453125q-0.328125 -1.390625 -0.890625 -2.671875q-0.359375 -0.84375 -1.484375 -2.78125l1.1875 0q1.75 2.328125 2.578125 4.671875q0.71875 2.015625 0.71875 4.234375q0 2.5 -0.96875 4.84375q-0.953125 2.328125 -2.328125 4.078125z" fill-rule="nonzero"></path><path fill="#000000" fill-opacity="0.0" d="m694.2572 263.69028l79.55908 0l0 87.653564l-79.55908 0z" fill-rule="evenodd"></path></g></svg>

