<?xml version="1.0" standalone="yes"?>

<svg version="1.1" viewBox="0.0 0.0 960.0 540.0" fill="none" stroke="none" stroke-linecap="square" stroke-miterlimit="10" xmlns="http://www.w3.org/2000/svg" xmlns:xlink="http://www.w3.org/1999/xlink"><clipPath id="g286506a036_0_0.0"><path d="m0 0l960.0 0l0 540.0l-960.0 0l0 -540.0z" clip-rule="nonzero"></path></clipPath><g clip-path="url(#g286506a036_0_0.0)"><path fill="#ffffff" d="m0 0l960.0 0l0 540.0l-960.0 0z" fill-rule="evenodd"></path><path fill="#000000" fill-opacity="0.0" d="m502.02325 172.4672l-74.4252 35.118103" fill-rule="evenodd"></path><path stroke="#595959" stroke-width="1.0" stroke-linejoin="round" stroke-linecap="butt" d="m502.02325 172.4672l-74.4252 35.118103" fill-rule="evenodd"></path><path fill="#000000" fill-opacity="0.0" d="m502.02325 172.4672l68.06299 35.149597" fill-rule="evenodd"></path><path stroke="#595959" stroke-width="1.0" stroke-linejoin="round" stroke-linecap="butt" d="m502.02325 172.4672l68.06299 35.149597" fill-rule="evenodd"></path><path fill="#000000" fill-opacity="0.0" d="m427.5975 249.26881l-37.795258 57.826767" fill-rule="evenodd"></path><path stroke="#595959" stroke-width="1.0" stroke-linejoin="round" stroke-linecap="butt" d="m427.5975 249.26881l-37.795258 57.826767" fill-rule="evenodd"></path><path fill="#000000" fill-opacity="0.0" d="m427.5975 249.26881l32.346466 57.826767" fill-rule="evenodd"></path><path stroke="#595959" stroke-width="1.0" stroke-linejoin="round" stroke-linecap="butt" d="m427.5975 249.26881l32.346466 57.826767" fill-rule="evenodd"></path><path fill="#3c78d8" d="m475.47208 130.7979l53.102325 0l0 41.669296l-53.102325 0z" fill-rule="evenodd"></path><path stroke="#434343" stroke-width="2.0" stroke-linejoin="round" stroke-linecap="butt" d="m475.47208 130.7979l53.102325 0l0 41.669296l-53.102325 0z" fill-rule="evenodd"></path><path fill="#ffffff" d="m496.6463 160.17255l0 -4.0625l-7.609375 0l0 -1.65625l6.859375 -10.296875l2.75 0l0 10.203125l2.25 0l0 1.75l-2.25 0l0 4.0625l-2.0 0zm0 -14.15625l-5.609375 8.34375l5.609375 0l0 -8.34375zm6.313843 14.15625l0 -1.578125q4.21875 -3.34375 5.796875 -4.859375q1.59375 -1.53125 2.328125 -2.734375q0.75 -1.21875 0.75 -2.375q0 -1.3125 -0.90625 -2.109375q-0.90625 -0.8125 -2.421875 -0.8125q-2.8125 0 -4.34375 2.015625l-1.234375 -1.28125q0.921875 -1.21875 2.390625 -1.859375q1.484375 -0.65625 3.1875 -0.65625q2.328125 0 3.84375 1.28125q1.53125 1.28125 1.53125 3.421875q0 1.953125 -1.65625 4.109375q-1.640625 2.140625 -6.125 5.65625l7.84375 0l0 1.78125l-10.984375 0z" fill-rule="nonzero"></path><path fill="#3c78d8" d="m401.04633 207.59953l53.102356 0l0 41.66928l-53.102356 0z" fill-rule="evenodd"></path><path stroke="#434343" stroke-width="2.0" stroke-linejoin="round" stroke-linecap="butt" d="m401.04633 207.59953l53.102356 0l0 41.66928l-53.102356 0z" fill-rule="evenodd"></path><path fill="#ffffff" d="m414.49445 236.97417l0 -1.578125q4.21875 -3.34375 5.796875 -4.859375q1.59375 -1.53125 2.328125 -2.734375q0.75 -1.21875 0.75 -2.375q0 -1.3125 -0.90625 -2.109375q-0.90625 -0.8125 -2.421875 -0.8125q-2.8125 0 -4.34375 2.015625l-1.234375 -1.28125q0.921875 -1.21875 2.390625 -1.859375q1.484375 -0.65625 3.1875 -0.65625q2.328125 0 3.84375 1.28125q1.53125 1.28125 1.53125 3.421875q0 1.953125 -1.65625 4.109375q-1.640625 2.140625 -6.125 5.65625l7.84375 0l0 1.78125l-10.984375 0zm20.158813 0.28125q-2.78125 0 -4.453125 -2.28125q-1.671875 -2.296875 -1.671875 -5.984375q0 -3.734375 1.6875 -6.0q1.703125 -2.265625 4.4375 -2.265625q1.875 0 3.25 1.078125q1.375 1.0625 2.125 2.96875q0.75 1.890625 0.75 4.21875q0 2.296875 -0.75 4.21875q-0.75 1.921875 -2.125 2.984375q-1.359375 1.0625 -3.25 1.0625zm0 -1.765625q1.921875 0 3.0 -1.71875q1.078125 -1.734375 1.078125 -4.78125q0 -3.078125 -1.078125 -4.78125q-1.078125 -1.703125 -3.0 -1.703125q-1.921875 0 -3.0 1.703125q-1.078125 1.703125 -1.078125 4.78125q0 3.046875 1.0625 4.78125q1.078125 1.71875 3.015625 1.71875z" fill-rule="nonzero"></path><path fill="#3c78d8" d="m543.5492 207.61378l53.102356 0l0 41.669296l-53.102356 0z" fill-rule="evenodd"></path><path stroke="#434343" stroke-width="2.0" stroke-linejoin="round" stroke-linecap="butt" d="m543.5492 207.61378l53.102356 0l0 41.669296l-53.102356 0z" fill-rule="evenodd"></path><path fill="#ffffff" d="m563.055 237.26968q-2.90625 0 -4.546875 -2.171875q-1.625 -2.1875 -1.625 -6.078125q0 -3.796875 1.765625 -6.03125q1.765625 -2.25 4.75 -2.25q2.734375 0 4.4375 1.921875l-1.015625 1.484375q-0.625 -0.71875 -1.390625 -1.171875q-0.765625 -0.453125 -2.03125 -0.453125q-2.015625 0 -3.265625 1.75q-1.25 1.75 -1.25 4.53125l0 0.3125l0.015625 0.3125q0.71875 -1.09375 2.015625 -1.796875q1.296875 -0.703125 2.53125 -0.703125q2.328125 0 3.78125 1.375q1.453125 1.375 1.453125 3.75q0 2.25 -1.5625 3.734375q-1.5625 1.484375 -4.0625 1.484375zm-0.078125 -1.765625q1.640625 0 2.65625 -1.0q1.015625 -1.015625 1.015625 -2.390625q0 -1.625 -1.0 -2.53125q-0.984375 -0.921875 -2.6875 -0.921875q-1.203125 0 -2.28125 0.65625q-1.0625 0.65625 -1.734375 1.75q0.203125 2.03125 1.25 3.234375q1.0625 1.203125 2.78125 1.203125zm14.21521 1.765625q-2.78125 0 -4.453125 -2.28125q-1.671875 -2.296875 -1.671875 -5.984375q0 -3.734375 1.6875 -6.0q1.703125 -2.265625 4.4375 -2.265625q1.875 0 3.25 1.078125q1.375 1.0625 2.125 2.96875q0.75 1.890625 0.75 4.21875q0 2.296875 -0.75 4.21875q-0.75 1.921875 -2.125 2.984375q-1.359375 1.0625 -3.25 1.0625zm0 -1.765625q1.921875 0 3.0 -1.71875q1.078125 -1.734375 1.078125 -4.78125q0 -3.078125 -1.078125 -4.78125q-1.078125 -1.703125 -3.0 -1.703125q-1.921875 0 -3.0 1.703125q-1.078125 1.703125 -1.078125 4.78125q0 3.046875 1.0625 4.78125q1.078125 1.71875 3.015625 1.71875z" fill-rule="nonzero"></path><path fill="#3c78d8" d="m363.2552 307.08743l53.102356 0l0 41.66928l-53.102356 0z" fill-rule="evenodd"></path><path stroke="#434343" stroke-width="2.0" stroke-linejoin="round" stroke-linecap="butt" d="m363.2552 307.08743l53.102356 0l0 41.66928l-53.102356 0z" fill-rule="evenodd"></path><path fill="#ffffff" d="m382.924 336.46207l0 -13.375l-2.5625 2.71875l-1.203125 -1.21875l4.015625 -4.140625l1.75 0l0 16.015625l-2.0 0zm11.089111 0.28125q-3.6875 0 -5.640625 -2.5625l1.234375 -1.3125q1.65625 2.109375 4.40625 2.109375q1.609375 0 2.65625 -0.96875q1.046875 -0.984375 1.046875 -2.46875q0 -1.515625 -1.0 -2.484375q-1.0 -0.96875 -2.671875 -0.96875q-2.140625 0 -3.703125 1.515625l-1.453125 -0.515625l0 -8.640625l9.78125 0l0 1.78125l-7.796875 0l0 5.578125q0.578125 -0.578125 1.546875 -1.015625q0.96875 -0.4375 2.203125 -0.4375q2.1875 0 3.625 1.421875q1.453125 1.421875 1.453125 3.703125q0 2.375 -1.578125 3.828125q-1.5625 1.4375 -4.109375 1.4375z" fill-rule="nonzero"></path><path fill="#3c78d8" d="m433.40787 307.08743l53.102356 0l0 41.66928l-53.102356 0z" fill-rule="evenodd"></path><path stroke="#434343" stroke-width="2.0" stroke-linejoin="round" stroke-linecap="butt" d="m433.40787 307.08743l53.102356 0l0 41.66928l-53.102356 0z" fill-rule="evenodd"></path><path fill="#ffffff" d="m452.5857 336.74332q-2.046875 0 -3.5 -0.765625q-1.453125 -0.78125 -2.1875 -1.875l1.171875 -1.234375q0.6875 0.9375 1.84375 1.53125q1.171875 0.578125 2.625 0.578125q1.75 0 2.734375 -0.796875q1.0 -0.8125 1.0 -2.203125q0 -1.421875 -1.046875 -2.125q-1.046875 -0.703125 -2.9375 -0.703125l-0.984375 0l-0.671875 0.015625l0 -1.828125l0.703125 0.03125l0.953125 0q1.734375 0 2.71875 -0.703125q1.0 -0.71875 1.0 -1.9375q0 -1.21875 -1.0 -1.96875q-0.984375 -0.765625 -2.578125 -0.765625q-2.421875 0 -4.21875 1.9375l-1.109375 -1.25q2.015625 -2.46875 5.484375 -2.46875q2.4375 0 3.921875 1.171875q1.5 1.15625 1.5 3.109375q0 1.4375 -0.984375 2.453125q-0.984375 1.015625 -2.46875 1.265625q1.5 0.109375 2.59375 1.234375q1.09375 1.109375 1.09375 2.703125q0 2.078125 -1.5625 3.34375q-1.5625 1.25 -4.09375 1.25zm14.196106 0q-3.6875 0 -5.640625 -2.5625l1.234375 -1.3125q1.65625 2.109375 4.40625 2.109375q1.609375 0 2.65625 -0.96875q1.046875 -0.984375 1.046875 -2.46875q0 -1.515625 -1.0 -2.484375q-1.0 -0.96875 -2.671875 -0.96875q-2.140625 0 -3.703125 1.515625l-1.453125 -0.515625l0 -8.640625l9.78125 0l0 1.78125l-7.796875 0l0 5.578125q0.578125 -0.578125 1.546875 -1.015625q0.96875 -0.4375 2.203125 -0.4375q2.1875 0 3.625 1.421875q1.453125 1.421875 1.453125 3.703125q0 2.375 -1.578125 3.828125q-1.5625 1.4375 -4.109375 1.4375z" fill-rule="nonzero"></path><path fill="#000000" fill-opacity="0.0" d="m389.79004 348.8158l-32.75592 53.322815" fill-rule="evenodd"></path><path stroke="#595959" stroke-width="1.0" stroke-linejoin="round" stroke-linecap="butt" d="m389.79004 348.8158l-32.75592 53.322815" fill-rule="evenodd"></path><path fill="#3c78d8" d="m330.48294 402.1386l53.102356 0l0 41.66931l-53.102356 0z" fill-rule="evenodd"></path><path stroke="#434343" stroke-width="2.0" stroke-linejoin="round" stroke-linecap="butt" d="m330.48294 402.1386l53.102356 0l0 41.66931l-53.102356 0z" fill-rule="evenodd"></path><path fill="#ffffff" d="m349.8878 431.51328l0 -13.375l-2.5625 2.71875l-1.203125 -1.21875l4.015625 -4.140625l1.75 0l0 16.015625l-2.0 0zm11.214081 0.28125q-2.78125 0 -4.453125 -2.28125q-1.671875 -2.296875 -1.671875 -5.984375q0 -3.734375 1.6875 -6.0q1.703125 -2.265625 4.4375 -2.265625q1.875 0 3.25 1.078125q1.375 1.0625 2.125 2.96875q0.75 1.890625 0.75 4.21875q0 2.296875 -0.75 4.21875q-0.75 1.921875 -2.125 2.984375q-1.359375 1.0625 -3.25 1.0625zm0 -1.765625q1.921875 0 3.0 -1.71875q1.078125 -1.734375 1.078125 -4.78125q0 -3.078125 -1.078125 -4.78125q-1.078125 -1.703125 -3.0 -1.703125q-1.921875 0 -3.0 1.703125q-1.078125 1.703125 -1.078125 4.78125q0 3.046875 1.0625 4.78125q1.078125 1.71875 3.015625 1.71875z" fill-rule="nonzero"></path><path fill="#000000" fill-opacity="0.0" d="m475.47208 151.63255c-49.713074 0 -90.122955 19.196838 -99.42612 38.393692c-9.303162 19.196854 12.500458 38.393707 25.000916 38.393707" fill-rule="evenodd"></path><path stroke="#000000" stroke-width="3.0" stroke-linejoin="round" stroke-linecap="butt" d="m475.47208 151.63255c-49.713043 0 -90.122955 19.196838 -99.42612 38.393692c-4.6515503 9.598419 -1.5264282 19.196854 4.324127 26.395676c0.7312927 0.8998413 1.505188 1.7622223 2.3118286 2.5823822c0.4032898 0.4100952 0.8147888 0.80963135 1.2332458 1.1980438c0.20922852 0.19419861 0.42019653 0.38563538 0.63275146 0.5742035l0.14379883 0.12617493" fill-rule="evenodd"></path><path fill="#000000" stroke="#000000" stroke-width="3.0" stroke-linecap="butt" d="m382.6223 225.40512l14.439606 1.183258l-10.300812 -10.188049z" fill-rule="evenodd"></path><path fill="#000000" fill-opacity="0.0" d="m401.04633 228.43417c-31.3956 0 -58.066772 24.874008 -62.79117 49.748016c-4.7244263 24.874023 12.497955 49.748047 24.99591 49.748047" fill-rule="evenodd"></path><path stroke="#000000" stroke-width="3.0" stroke-linejoin="round" stroke-linecap="butt" d="m401.04636 228.43417c-31.3956 0 -58.066803 24.874023 -62.7912 49.748047c-2.3622131 12.437012 0.76226807 24.873993 6.039551 34.20175c0.6596985 1.1659851 1.3529663 2.2833862 2.0733948 3.3460999c0.36019897 0.5313721 0.72720337 1.0490723 1.1001587 1.5523376c0.1864624 0.25164795 0.37445068 0.49969482 0.56381226 0.74401855l0.10290527 0.13122559" fill-rule="evenodd"></path><path fill="#000000" stroke="#000000" stroke-width="3.0" stroke-linecap="butt" d="m345.44467 322.31897l14.123352 3.230194l-8.742798 -11.552795z" fill-rule="evenodd"></path><path fill="#000000" fill-opacity="0.0" d="m363.2552 327.9221c-28.8862 0 -53.67398 23.763763 -57.7724 47.527557c-4.098419 23.763763 12.492493 47.527557 24.984985 47.527557" fill-rule="evenodd"></path><path stroke="#000000" stroke-width="3.0" stroke-linejoin="round" stroke-linecap="butt" d="m363.25516 327.9221c-28.88617 0 -53.67395 23.763763 -57.77237 47.527557c-2.0491943 11.881897 1.0739441 23.763763 6.2709045 32.6752c0.6496277 1.1139221 1.331665 2.181427 2.040039 3.1967163c0.354187 0.5076599 0.7149658 1.0022583 1.0815735 1.4830627c0.091674805 0.12020874 0.18365479 0.23953247 0.2760315 0.35803223l0.1253357 0.15893555" fill-rule="evenodd"></path><path fill="#000000" stroke="#000000" stroke-width="3.0" stroke-linecap="butt" d="m312.61862 417.50357l14.147858 3.1210327l-8.831726 -11.484924z" fill-rule="evenodd"></path><path fill="#000000" fill-opacity="0.0" d="m311.82153 422.97375l0 0c0 -23.604736 20.24237 -42.740173 45.212585 -42.740173l0 0c11.991119 0 23.49112 4.5029907 31.970123 12.518311c8.479034 8.01535 13.242462 18.886475 13.242462 30.221863l0 0c0 23.604736 -20.24234 42.740143 -45.212585 42.740143l0 0c-24.970215 0 -45.212585 -19.135406 -45.212585 -42.740143z" fill-rule="evenodd"></path><path stroke="#000000" stroke-width="3.0" stroke-linejoin="round" stroke-linecap="butt" stroke-dasharray="3.0,9.0" d="m311.82153 422.97375l0 0c0 -23.604736 20.24237 -42.740173 45.212585 -42.740173l0 0c11.991119 0 23.49112 4.5029907 31.970123 12.518311c8.479034 8.01535 13.242462 18.886475 13.242462 30.221863l0 0c0 23.604736 -20.24234 42.740143 -45.212585 42.740143l0 0c-24.970215 0 -45.212585 -19.135406 -45.212585 -42.740143z" fill-rule="evenodd"></path><path fill="#000000" fill-opacity="0.0" d="m416.35696 372.61023l133.16537 0l0 100.72443l-133.16537 0z" fill-rule="evenodd"></path><path fill="#000000" d="m437.66946 407.89243l0 -10.4375l-4.3125 10.4375l-0.640625 0l-4.296875 -10.4375l0 10.4375l-1.578125 0l0 -12.671875l2.265625 0l3.921875 9.53125l3.953125 -9.53125l2.265625 0l0 12.671875l-1.578125 0zm4.9053955 -10.484375q-0.375 0 -0.671875 -0.265625q-0.28125 -0.28125 -0.28125 -0.6875q0 -0.40625 0.28125 -0.6875q0.296875 -0.28125 0.671875 -0.28125q0.40625 0 0.6875 0.28125q0.28125 0.28125 0.28125 0.6875q0 0.40625 -0.28125 0.6875q-0.28125 0.265625 -0.6875 0.265625zm-0.703125 10.484375l0 -9.171875l1.421875 0l0 9.171875l-1.421875 0zm10.400787 0l0 -6.0q0 -1.21875 -0.5625 -1.671875q-0.5625 -0.453125 -1.5 -0.453125q-0.796875 0 -1.5625 0.421875q-0.765625 0.421875 -1.15625 1.0l0 6.703125l-1.421875 0l0 -9.171875l1.421875 0l0 1.328125q0.59375 -0.6875 1.453125 -1.125q0.875 -0.4375 1.828125 -0.4375q2.921875 0 2.921875 2.96875l0 6.4375l-1.421875 0zm11.342926 0l-3.8125 -9.171875l1.53125 0l3.0625 7.515625l3.03125 -7.515625l1.5625 0l-3.8125 9.171875l-1.5625 0zm12.422821 0l0 -1.046875q-1.15625 1.28125 -3.03125 1.28125q-1.390625 0 -2.3125 -0.875q-0.90625 -0.875 -0.90625 -2.171875q0 -1.328125 0.90625 -2.171875q0.90625 -0.84375 2.3125 -0.84375q1.96875 0 3.03125 1.25l0 -1.65625q0 -0.921875 -0.65625 -1.421875q-0.640625 -0.515625 -1.65625 -0.515625q-1.609375 0 -2.8125 1.28125l-0.65625 -1.0q1.453125 -1.515625 3.65625 -1.515625q1.6875 0 2.625 0.828125q0.9375 0.8125 0.9375 2.265625l0 6.3125l-1.4375 0zm-2.515625 -0.796875q1.6875 0 2.515625 -1.140625l0 -1.734375q-0.828125 -1.140625 -2.515625 -1.140625q-1.015625 0 -1.640625 0.5625q-0.625 0.5625 -0.625 1.453125q0 0.875 0.625 1.4375q0.625 0.5625 1.640625 0.5625zm6.613098 0.796875l0 -12.671875l1.421875 0l0 12.671875l-1.421875 0zm10.400787 0l0 -1.296875q-0.53125 0.609375 -1.390625 1.078125q-0.859375 0.453125 -1.890625 0.453125q-2.921875 0 -2.921875 -2.9375l0 -6.46875l1.421875 0l0 6.03125q0 1.09375 0.5 1.59375q0.5 0.5 1.5625 0.5q0.828125 0 1.5625 -0.40625q0.75 -0.421875 1.15625 -0.984375l0 -6.734375l1.421875 0l0 9.171875l-1.421875 0zm8.217102 0.234375q-2.0625 0 -3.375 -1.34375q-1.296875 -1.359375 -1.296875 -3.484375q0 -2.03125 1.296875 -3.421875q1.296875 -1.390625 3.234375 -1.390625q1.96875 0 3.1875 1.375q1.21875 1.359375 1.21875 3.546875l0 0.359375l-7.4375 0q0.078125 1.40625 1.015625 2.296875q0.9375 0.875 2.296875 0.875q1.671875 0 2.828125 -1.15625l0.6875 0.9375q-1.40625 1.40625 -3.65625 1.40625zm2.859375 -5.40625q0 -1.265625 -0.84375 -2.15625q-0.828125 -0.90625 -2.1875 -0.90625q-1.265625 0 -2.109375 0.90625q-0.84375 0.890625 -0.890625 2.15625l6.03125 0z" fill-rule="nonzero"></path><path fill="#000000" d="m428.8726 433.67368q-1.296875 -1.765625 -1.984375 -3.921875q-0.6875 -2.171875 -0.6875 -4.46875q0 -2.3125 0.6875 -4.46875q0.6875 -2.15625 1.984375 -3.9375l0.859375 0.640625q-1.140625 2.28125 -1.5625 3.984375q-0.421875 1.703125 -0.421875 3.78125q0 2.046875 0.421875 3.78125q0.4375 1.71875 1.5625 3.9375l-0.859375 0.671875zm8.2673645 -3.78125l0 -1.046875q-1.15625 1.28125 -3.03125 1.28125q-1.390625 0 -2.3125 -0.875q-0.90625 -0.875 -0.90625 -2.171875q0 -1.328125 0.90625 -2.171875q0.90625 -0.84375 2.3125 -0.84375q1.96875 0 3.03125 1.25l0 -1.65625q0 -0.921875 -0.65625 -1.421875q-0.640625 -0.515625 -1.65625 -0.515625q-1.609375 0 -2.8125 1.28125l-0.65625 -1.0q1.453125 -1.515625 3.65625 -1.515625q1.6875 0 2.625 0.828125q0.9375 0.8125 0.9375 2.265625l0 6.3125l-1.4375 0zm-2.515625 -0.796875q1.6875 0 2.515625 -1.140625l0 -1.734375q-0.828125 -1.140625 -2.515625 -1.140625q-1.015625 0 -1.640625 0.5625q-0.625 0.5625 -0.625 1.453125q0 0.875 0.625 1.4375q0.625 0.5625 1.640625 0.5625zm12.816223 0.796875l0 -6.0q0 -1.21875 -0.5625 -1.671875q-0.5625 -0.453125 -1.5 -0.453125q-0.796875 0 -1.5625 0.421875q-0.765625 0.421875 -1.15625 1.0l0 6.703125l-1.421875 0l0 -9.171875l1.421875 0l0 1.328125q0.59375 -0.6875 1.453125 -1.125q0.875 -0.4375 1.828125 -0.4375q2.921875 0 2.921875 2.96875l0 6.4375l-1.421875 0zm10.732727 0l0 -1.375q-0.515625 0.703125 -1.328125 1.15625q-0.796875 0.453125 -1.765625 0.453125q-1.84375 0 -2.96875 -1.3125q-1.125 -1.3125 -1.125 -3.5q0 -2.203125 1.125 -3.515625q1.140625 -1.3125 2.96875 -1.3125q0.921875 0 1.734375 0.4375q0.8125 0.421875 1.359375 1.171875l0 -4.875l1.421875 0l0 12.671875l-1.421875 0zm-2.765625 -1.046875q0.859375 0 1.609375 -0.40625q0.765625 -0.421875 1.15625 -1.03125l0 -4.171875q-0.390625 -0.609375 -1.15625 -1.03125q-0.75 -0.4375 -1.609375 -0.4375q-1.328125 0 -2.140625 0.96875q-0.796875 0.96875 -0.796875 2.578125q0 1.578125 0.796875 2.5625q0.796875 0.96875 2.140625 0.96875zm17.85315 1.046875l0 -6.0q0 -1.21875 -0.5625 -1.671875q-0.5625 -0.453125 -1.5 -0.453125q-0.796875 0 -1.5625 0.421875q-0.765625 0.421875 -1.15625 1.0l0 6.703125l-1.421875 0l0 -9.171875l1.421875 0l0 1.328125q0.59375 -0.6875 1.453125 -1.125q0.875 -0.4375 1.828125 -0.4375q2.921875 0 2.921875 2.96875l0 6.4375l-1.421875 0zm8.092102 0.234375q-2.0 0 -3.28125 -1.359375q-1.265625 -1.359375 -1.265625 -3.46875q0 -2.125 1.265625 -3.46875q1.28125 -1.34375 3.28125 -1.34375q1.984375 0 3.25 1.34375q1.28125 1.34375 1.28125 3.46875q0 2.109375 -1.28125 3.46875q-1.265625 1.359375 -3.25 1.359375zm0 -1.28125q1.328125 0 2.171875 -1.0q0.859375 -1.0 0.859375 -2.546875q0 -1.546875 -0.859375 -2.53125q-0.84375 -1.0 -2.171875 -1.0q-1.328125 0 -2.203125 0.984375q-0.859375 0.984375 -0.859375 2.546875q0 1.578125 0.84375 2.5625q0.859375 0.984375 2.21875 0.984375z" fill-rule="nonzero"></path><path fill="#000000" d="m426.77884 451.89243l0 -12.671875l1.421875 0l0 12.671875l-1.421875 0zm8.338287 0.234375q-2.0625 0 -3.375 -1.34375q-1.296875 -1.359375 -1.296875 -3.484375q0 -2.03125 1.296875 -3.421875q1.296875 -1.390625 3.234375 -1.390625q1.96875 0 3.1875 1.375q1.21875 1.359375 1.21875 3.546875l0 0.359375l-7.4375 0q0.078125 1.40625 1.015625 2.296875q0.9375 0.875 2.296875 0.875q1.671875 0 2.828125 -1.15625l0.6875 0.9375q-1.40625 1.40625 -3.65625 1.40625zm2.859375 -5.40625q0 -1.265625 -0.84375 -2.15625q-0.828125 -0.90625 -2.1875 -0.90625q-1.265625 0 -2.109375 0.90625q-0.84375 0.890625 -0.890625 2.15625l6.03125 0zm3.9096985 5.171875l0 -7.921875l-1.53125 0l0 -1.25l1.53125 0l0 -0.703125q0 -1.4375 0.703125 -2.203125q0.71875 -0.78125 1.953125 -0.78125q1.15625 0 1.9375 0.703125l-0.59375 0.921875q-0.484375 -0.453125 -1.140625 -0.453125q-1.4375 0 -1.4375 1.8125l0 0.703125l1.859375 0l0 1.25l-1.859375 0l0 7.921875l-1.421875 0zm7.201599 0.234375q-2.046875 0 -2.046875 -2.15625l0 -6.0l-1.515625 0l0 -1.25l1.515625 0l0 -2.515625l1.4375 0l0 2.515625l1.859375 0l0 1.25l-1.859375 0l0 5.703125q0 0.515625 0.21875 0.84375q0.234375 0.328125 0.703125 0.328125q0.59375 0 0.96875 -0.375l0.421875 1.0625q-0.59375 0.59375 -1.703125 0.59375zm2.2974548 -4.203125l0 -1.25l4.5625 0l0 1.25l-4.5625 0zm10.503113 4.203125q-2.015625 0 -3.296875 -1.375q-1.28125 -1.375 -1.28125 -3.453125q0 -2.078125 1.28125 -3.4375q1.28125 -1.375 3.296875 -1.375q2.125 0 3.359375 1.59375l-0.9375 0.875q-0.875 -1.1875 -2.34375 -1.1875q-1.40625 0 -2.296875 0.984375q-0.875 0.96875 -0.875 2.546875q0 1.59375 0.875 2.578125q0.875 0.96875 2.296875 0.96875q1.4375 0 2.34375 -1.1875l0.9375 0.859375q-1.234375 1.609375 -3.359375 1.609375zm11.406738 -0.234375l0 -6.046875q0 -1.015625 -0.484375 -1.546875q-0.484375 -0.53125 -1.59375 -0.53125q-0.78125 0 -1.515625 0.40625q-0.71875 0.390625 -1.203125 1.015625l0 6.703125l-1.421875 0l0 -12.671875l1.421875 0l0 4.828125q0.609375 -0.703125 1.484375 -1.125q0.875 -0.4375 1.8125 -0.4375q2.921875 0 2.921875 2.921875l0 6.484375l-1.421875 0zm4.7826233 -10.484375q-0.375 0 -0.671875 -0.265625q-0.28125 -0.28125 -0.28125 -0.6875q0 -0.40625 0.28125 -0.6875q0.296875 -0.28125 0.671875 -0.28125q0.40625 0 0.6875 0.28125q0.28125 0.28125 0.28125 0.6875q0 0.40625 -0.28125 0.6875q-0.28125 0.265625 -0.6875 0.265625zm-0.703125 10.484375l0 -9.171875l1.421875 0l0 9.171875l-1.421875 0zm4.1976624 0l0 -12.671875l1.421875 0l0 12.671875l-1.421875 0zm10.853912 0l0 -1.375q-0.515625 0.703125 -1.328125 1.15625q-0.796875 0.453125 -1.765625 0.453125q-1.84375 0 -2.96875 -1.3125q-1.125 -1.3125 -1.125 -3.5q0 -2.203125 1.125 -3.515625q1.140625 -1.3125 2.96875 -1.3125q0.921875 0 1.734375 0.4375q0.8125 0.421875 1.359375 1.171875l0 -4.875l1.421875 0l0 12.671875l-1.421875 0zm-2.765625 -1.046875q0.859375 0 1.609375 -0.40625q0.765625 -0.421875 1.15625 -1.03125l0 -4.171875q-0.390625 -0.609375 -1.15625 -1.03125q-0.75 -0.4375 -1.609375 -0.4375q-1.328125 0 -2.140625 0.96875q-0.796875 0.96875 -0.796875 2.578125q0 1.578125 0.796875 2.5625q0.796875 0.96875 2.140625 0.96875zm5.7429504 4.15625q1.109375 -2.203125 1.546875 -3.984375q0.4375 -1.796875 0.4375 -3.734375q0 -1.953125 -0.421875 -3.703125q-0.421875 -1.75 -1.5625 -4.0625l0.84375 -0.640625q1.3125 1.78125 2.0 3.9375q0.703125 2.15625 0.703125 4.46875q0 2.296875 -0.703125 4.46875q-0.6875 2.15625 -2.0 3.921875l-0.84375 -0.671875z" fill-rule="nonzero"></path><path fill="#000000" fill-opacity="0.0" d="m442.11774 85.44357l59.905518 45.354324" fill-rule="evenodd"></path><path stroke="#000000" stroke-width="3.0" stroke-linejoin="round" stroke-linecap="butt" stroke-dasharray="12.0,9.0" d="m442.11774 85.44357l59.905518 45.354324" fill-rule="evenodd"></path><path fill="#000000" fill-opacity="0.0" d="m363.2546 20.272966l167.93698 0l0 100.72441l-167.93698 0z" fill-rule="evenodd"></path><path fill="#000000" d="m381.0671 77.55517l-3.21875 -5.03125l-2.53125 0l0 5.03125l-1.578125 0l0 -12.671875l5.09375 0q1.78125 0 2.875 1.0625q1.09375 1.0625 1.09375 2.75q0 1.59375 -0.921875 2.578125q-0.921875 0.984375 -2.359375 1.109375l3.40625 5.171875l-1.859375 0zm-2.421875 -6.421875q1.140625 0 1.828125 -0.671875q0.6875 -0.671875 0.6875 -1.765625q0 -1.078125 -0.6875 -1.734375q-0.6875 -0.671875 -1.828125 -0.671875l-3.328125 0l0 4.84375l3.328125 0zm7.077362 -4.0625q-0.375 0 -0.671875 -0.265625q-0.28125 -0.28125 -0.28125 -0.6875q0 -0.40625 0.28125 -0.6875q0.296875 -0.28125 0.671875 -0.28125q0.40625 0 0.6875 0.28125q0.28125 0.28125 0.28125 0.6875q0 0.40625 -0.28125 0.6875q-0.28125 0.265625 -0.6875 0.265625zm-0.703125 10.484375l0 -9.171875l1.421875 0l0 9.171875l-1.421875 0zm7.8851624 3.71875q-1.171875 0 -2.03125 -0.28125q-0.859375 -0.28125 -1.671875 -1.078125l0.71875 -1.0625q0.578125 0.671875 1.28125 0.953125q0.71875 0.296875 1.703125 0.296875q1.40625 0 2.171875 -0.734375q0.78125 -0.734375 0.78125 -2.015625l0 -1.3125q-0.5 0.703125 -1.3125 1.171875q-0.796875 0.453125 -1.765625 0.453125q-1.875 0 -2.984375 -1.3125q-1.109375 -1.3125 -1.109375 -3.4375q0 -2.203125 1.125 -3.484375q1.140625 -1.28125 2.96875 -1.28125q1.890625 0 3.078125 1.609375l0 -1.375l1.421875 0l0 8.90625q0 1.9375 -1.140625 2.953125q-1.140625 1.03125 -3.234375 1.03125zm0.203125 -4.859375q0.78125 0 1.546875 -0.40625q0.78125 -0.421875 1.203125 -1.09375l0 -4.015625q-0.421875 -0.65625 -1.203125 -1.0625q-0.78125 -0.40625 -1.546875 -0.40625q-1.34375 0 -2.140625 0.96875q-0.796875 0.96875 -0.796875 2.515625q0 1.578125 0.8125 2.546875q0.828125 0.953125 2.125 0.953125zm13.036835 1.140625l0 -6.046875q0 -1.015625 -0.484375 -1.546875q-0.484375 -0.53125 -1.59375 -0.53125q-0.78125 0 -1.515625 0.40625q-0.71875 0.390625 -1.203125 1.015625l0 6.703125l-1.421875 0l0 -12.671875l1.421875 0l0 4.828125q0.609375 -0.703125 1.484375 -1.125q0.875 -0.4375 1.8125 -0.4375q2.921875 0 2.921875 2.921875l0 6.484375l-1.421875 0zm6.4076233 0.234375q-2.046875 0 -2.046875 -2.15625l0 -6.0l-1.515625 0l0 -1.25l1.515625 0l0 -2.515625l1.4375 0l0 2.515625l1.859375 0l0 1.25l-1.859375 0l0 5.703125q0 0.515625 0.21875 0.84375q0.234375 0.328125 0.703125 0.328125q0.59375 0 0.96875 -0.375l0.421875 1.0625q-0.59375 0.59375 -1.703125 0.59375zm10.876373 0q-2.328125 0 -3.703125 -1.453125l0.75 -1.015625q0.453125 0.53125 1.25 0.921875q0.8125 0.375 1.765625 0.375q1.0625 0 1.609375 -0.4375q0.5625 -0.453125 0.5625 -1.140625q0 -0.59375 -0.609375 -0.9375q-0.59375 -0.359375 -2.234375 -0.75q-1.375 -0.28125 -2.109375 -0.890625q-0.734375 -0.625 -0.734375 -1.671875q0 -1.15625 0.921875 -1.890625q0.9375 -0.75 2.5 -0.75q2.0625 0 3.390625 1.328125l-0.65625 0.984375q-0.421875 -0.484375 -1.140625 -0.8125q-0.703125 -0.34375 -1.59375 -0.34375q-0.953125 0 -1.5 0.421875q-0.53125 0.421875 -0.53125 1.03125q0 0.546875 0.609375 0.875q0.609375 0.3125 2.234375 0.65625q1.390625 0.328125 2.109375 0.984375q0.71875 0.65625 0.71875 1.734375q0 1.28125 -0.984375 2.03125q-0.984375 0.75 -2.625 0.75zm11.972015 -0.234375l0 -1.296875q-0.53125 0.609375 -1.390625 1.078125q-0.859375 0.453125 -1.890625 0.453125q-2.921875 0 -2.921875 -2.9375l0 -6.46875l1.421875 0l0 6.03125q0 1.09375 0.5 1.59375q0.5 0.5 1.5625 0.5q0.828125 0 1.5625 -0.40625q0.75 -0.421875 1.15625 -0.984375l0 -6.734375l1.421875 0l0 9.171875l-1.421875 0zm5.498352 -2.484375q0.390625 0.609375 1.140625 1.03125q0.75 0.40625 1.609375 0.40625q1.34375 0 2.140625 -0.96875q0.8125 -0.984375 0.8125 -2.5625q0 -1.59375 -0.796875 -2.5625q-0.796875 -0.984375 -2.15625 -0.984375q-0.859375 0 -1.609375 0.4375q-0.75 0.421875 -1.140625 1.03125l0 4.171875zm-1.421875 2.484375l0 -12.671875l1.421875 0l0 4.875q1.1875 -1.609375 3.109375 -1.609375q1.8125 0 2.9375 1.328125q1.140625 1.328125 1.140625 3.5q0 2.203125 -1.140625 3.515625q-1.125 1.296875 -2.9375 1.296875q-0.96875 0 -1.78125 -0.453125q-0.8125 -0.453125 -1.328125 -1.15625l0 1.375l-1.421875 0zm13.055481 0.234375q-2.046875 0 -2.046875 -2.15625l0 -6.0l-1.515625 0l0 -1.25l1.515625 0l0 -2.515625l1.4375 0l0 2.515625l1.859375 0l0 1.25l-1.859375 0l0 5.703125q0 0.515625 0.21875 0.84375q0.234375 0.328125 0.703125 0.328125q0.59375 0 0.96875 -0.375l0.421875 1.0625q-0.59375 0.59375 -1.703125 0.59375zm3.1567993 -0.234375l0 -9.171875l1.421875 0l0 1.484375q1.28125 -1.671875 3.0625 -1.671875l0 1.453125l-0.5625 -0.0625q-0.65625 0 -1.4375 0.46875q-0.765625 0.46875 -1.0625 1.0l0 6.5l-1.421875 0zm10.297211 0.234375q-2.0625 0 -3.375 -1.34375q-1.296875 -1.359375 -1.296875 -3.484375q0 -2.03125 1.296875 -3.421875q1.296875 -1.390625 3.234375 -1.390625q1.96875 0 3.1875 1.375q1.21875 1.359375 1.21875 3.546875l0 0.359375l-7.4375 0q0.078125 1.40625 1.015625 2.296875q0.9375 0.875 2.296875 0.875q1.671875 0 2.828125 -1.15625l0.6875 0.9375q-1.40625 1.40625 -3.65625 1.40625zm2.859375 -5.40625q0 -1.265625 -0.84375 -2.15625q-0.828125 -0.90625 -2.1875 -0.90625q-1.265625 0 -2.109375 0.90625q-0.84375 0.890625 -0.890625 2.15625l6.03125 0zm7.6440735 5.40625q-2.0625 0 -3.375 -1.34375q-1.296875 -1.359375 -1.296875 -3.484375q0 -2.03125 1.296875 -3.421875q1.296875 -1.390625 3.234375 -1.390625q1.96875 0 3.1875 1.375q1.21875 1.359375 1.21875 3.546875l0 0.359375l-7.4375 0q0.078125 1.40625 1.015625 2.296875q0.9375 0.875 2.296875 0.875q1.671875 0 2.828125 -1.15625l0.6875 0.9375q-1.40625 1.40625 -3.65625 1.40625zm2.859375 -5.40625q0 -1.265625 -0.84375 -2.15625q-0.828125 -0.90625 -2.1875 -0.90625q-1.265625 0 -2.109375 0.90625q-0.84375 0.890625 -0.890625 2.15625l6.03125 0z" fill-rule="nonzero"></path></g></svg>

