<?xml version="1.0" standalone="yes"?>

<svg version="1.1" viewBox="0.0 0.0 960.0 540.0" fill="none" stroke="none" stroke-linecap="square" stroke-miterlimit="10" xmlns="http://www.w3.org/2000/svg" xmlns:xlink="http://www.w3.org/1999/xlink"><clipPath id="g287e6b1221_0_427.0"><path d="m0 0l960.0 0l0 540.0l-960.0 0l0 -540.0z" clip-rule="nonzero"></path></clipPath><g clip-path="url(#g287e6b1221_0_427.0)"><path fill="#ffffff" d="m0 0l960.0 0l0 540.0l-960.0 0z" fill-rule="evenodd"></path><path fill="#3c78d8" d="m276.00958 58.615402l70.48819 0l0 61.76378l-70.48819 0z" fill-rule="evenodd"></path><path stroke="#434343" stroke-width="2.0" stroke-linejoin="round" stroke-linecap="butt" d="m276.00958 58.615402l70.48819 0l0 61.76378l-70.48819 0z" fill-rule="evenodd"></path><path fill="#ffffff" d="m314.2667 98.03729l0 -7.578125q0 -1.546875 -0.71875 -2.109375q-0.703125 -0.578125 -1.875 -0.578125q-1.0 0 -1.984375 0.546875q-0.96875 0.53125 -1.453125 1.25l0 8.46875l-1.796875 0l0 -11.59375l1.796875 0l0 1.6875q0.75 -0.875 1.84375 -1.421875q1.09375 -0.546875 2.296875 -0.546875q3.6875 0 3.6875 3.734375l0 8.140625l-1.796875 0z" fill-rule="nonzero"></path><path fill="#3c78d8" d="m354.3596 262.9882l49.417328 -85.6693l49.417297 85.6693z" fill-rule="evenodd"></path><path stroke="#000000" stroke-width="2.0" stroke-linejoin="round" stroke-linecap="butt" d="m354.3596 262.9882l49.417328 -85.6693l49.417297 85.6693z" fill-rule="evenodd"></path><path fill="#ffffff" d="m397.25192 239.11087l0 -16.015625l5.46875 0q3.640625 0 5.921875 2.28125q2.28125 2.265625 2.28125 5.75q0 3.5 -2.296875 5.75q-2.28125 2.234375 -5.90625 2.234375l-5.46875 0zm5.46875 -1.78125q2.734375 0 4.4375 -1.703125q1.703125 -1.71875 1.703125 -4.5q0 -2.796875 -1.6875 -4.515625q-1.671875 -1.734375 -4.453125 -1.734375l-3.484375 0l0 12.453125l3.484375 0z" fill-rule="nonzero"></path><path fill="#000000" fill-opacity="0.0" d="m229.2786 171.55766l81.98425 -51.181107" fill-rule="evenodd"></path><path stroke="#595959" stroke-width="1.0" stroke-linejoin="round" stroke-linecap="butt" d="m229.2786 171.55766l81.98425 -51.181107" fill-rule="evenodd"></path><path fill="#000000" fill-opacity="0.0" d="m311.25366 120.37918l92.53543 56.944885" fill-rule="evenodd"></path><path stroke="#595959" stroke-width="1.0" stroke-linejoin="round" stroke-linecap="butt" d="m311.25366 120.37918l92.53543 56.944885" fill-rule="evenodd"></path><path fill="#000000" fill-opacity="0.0" d="m425.06036 167.88321l70.48819 0l0 30.677155l-70.48819 0z" fill-rule="evenodd"></path><path fill="#000000" d="m441.73224 190.14178l-3.296875 -4.125l-1.53125 1.5l0 2.625l-1.421875 0l0 -12.671875l1.421875 0l0 8.375l4.828125 -4.875l1.8125 0l-4.0625 4.15625l4.078125 5.015625l-1.828125 0zm2.47995 -3.96875l0 -1.25l4.5625 0l0 1.25l-4.5625 0zm8.409363 3.96875l0 -10.578125l-2.03125 2.140625l-0.9375 -0.96875l3.171875 -3.265625l1.375 0l0 12.671875l-1.578125 0z" fill-rule="nonzero"></path><path fill="#000000" fill-opacity="0.0" d="m24.485565 233.31627l98.83465 0l0 30.67717l-98.83465 0z" fill-rule="evenodd"></path><path fill="#ff0000" d="m41.15744 255.57486l-3.296875 -4.125l-1.53125 1.5l0 2.625l-1.421875 0l0 -12.671875l1.421875 0l0 8.375l4.828125 -4.875l1.8125 0l-4.0625 4.15625l4.078125 5.015625l-1.828125 0z" fill-rule="nonzero"></path><path fill="#000000" d="m55.56006 255.57486l-3.296875 -4.125l-1.53125 1.5l0 2.625l-1.421875 0l0 -12.671875l1.421875 0l0 8.375l4.828125 -4.875l1.8125 0l-4.0625 4.15625l4.078125 5.015625l-1.828125 0zm7.1986847 -5.90625l0 4.046875l-1.078125 0l0 -4.046875l-3.65625 0l0 -0.984375l3.65625 0l0 -3.9375l1.078125 0l0 3.9375l3.65625 0l0 0.984375l-3.65625 0zm7.4032135 5.90625l0 -10.578125l-2.03125 2.140625l-0.9375 -0.96875l3.171875 -3.265625l1.375 0l0 12.671875l-1.578125 0zm20.247955 0l-3.296875 -4.125l-1.53125 1.5l0 2.625l-1.421875 0l0 -12.671875l1.421875 0l0 8.375l4.828125 -4.875l1.8125 0l-4.0625 4.15625l4.078125 5.015625l-1.828125 0z" fill-rule="nonzero"></path><path fill="#ff0000" d="m33.485565 249.41486l9.58931 0l0 1.1199951l-9.58931 0l0 -1.1199951z" fill-rule="nonzero"></path><path fill="#000000" d="m47.888184 249.41486l34.849854 0l0 1.1199951l-34.849854 0l0 -1.1199951z" fill-rule="nonzero"></path><path fill="#3c78d8" d="m115.503006 267.89886l70.48819 0l0 61.763794l-70.48819 0z" fill-rule="evenodd"></path><path stroke="#434343" stroke-width="2.0" stroke-linejoin="round" stroke-linecap="butt" d="m115.503006 267.89886l70.48819 0l0 61.763794l-70.48819 0z" fill-rule="evenodd"></path><path fill="#ffffff" d="m154.22762 307.32077l-3.484375 -4.75l-3.46875 4.75l-2.078125 0l4.453125 -5.953125l-4.203125 -5.640625l2.078125 0l3.21875 4.421875l3.21875 -4.421875l2.09375 0l-4.203125 5.640625l4.46875 5.953125l-2.09375 0z" fill-rule="nonzero"></path><path fill="#3c78d8" d="m52.83202 463.49475l49.417324 -85.66928l49.417328 85.66928z" fill-rule="evenodd"></path><path stroke="#000000" stroke-width="2.0" stroke-linejoin="round" stroke-linecap="butt" d="m52.83202 463.49475l49.417324 -85.66928l49.417328 85.66928z" fill-rule="evenodd"></path><path fill="#ffffff" d="m107.650246 439.61743l-1.421875 -3.546875l-7.96875 0l-1.40625 3.546875l-2.28125 0l6.421875 -16.015625l2.484375 0l6.453125 16.015625l-2.28125 0zm-5.40625 -13.9375l-3.40625 8.609375l6.796875 0l-3.390625 -8.609375z" fill-rule="nonzero"></path><path fill="#3c78d8" d="m165.68636 463.49475l49.417313 -85.66928l49.417328 85.66928z" fill-rule="evenodd"></path><path stroke="#000000" stroke-width="2.0" stroke-linejoin="round" stroke-linecap="butt" d="m165.68636 463.49475l49.417313 -85.66928l49.417328 85.66928z" fill-rule="evenodd"></path><path fill="#ffffff" d="m206.71869 439.61743l0 -16.015625l7.125 0q2.046875 0 3.265625 1.125q1.21875 1.109375 1.21875 2.96875q0 1.40625 -0.78125 2.390625q-0.78125 0.984375 -2.015625 1.28125q1.265625 0.1875 2.1875 1.34375q0.921875 1.140625 0.921875 2.59375q0 1.953125 -1.234375 3.140625q-1.234375 1.171875 -3.390625 1.171875l-7.296875 0zm6.78125 -9.078125q1.375 0 2.0625 -0.71875q0.703125 -0.734375 0.703125 -1.84375q0 -1.078125 -0.703125 -1.828125q-0.6875 -0.765625 -2.0625 -0.765625l-4.796875 0l0 5.15625l4.796875 0zm0.109375 7.296875q1.40625 0 2.1875 -0.71875q0.78125 -0.734375 0.78125 -2.03125q0 -1.234375 -0.8125 -2.0q-0.8125 -0.765625 -2.15625 -0.765625l-4.90625 0l0 5.515625l4.90625 0z" fill-rule="nonzero"></path><path fill="#ffffff" d="m222.7834 448.61743l0 -8.90625l-1.703125 1.796875l-0.796875 -0.8125l2.671875 -2.75l1.15625 0l0 10.671875l-1.328125 0z" fill-rule="nonzero"></path><path fill="#000000" fill-opacity="0.0" d="m102.249344 377.82547l48.503937 -48.1575" fill-rule="evenodd"></path><path stroke="#595959" stroke-width="1.0" stroke-linejoin="round" stroke-linecap="butt" d="m102.249344 377.82547l48.503937 -48.1575" fill-rule="evenodd"></path><path fill="#000000" fill-opacity="0.0" d="m150.7471 329.66266l64.346466 48.15747" fill-rule="evenodd"></path><path stroke="#595959" stroke-width="1.0" stroke-linejoin="round" stroke-linecap="butt" d="m150.7471 329.66266l64.346466 48.15747" fill-rule="evenodd"></path><path fill="#000000" fill-opacity="0.0" d="m17.081366 387.15878l70.48819 0l0 30.677185l-70.48819 0z" fill-rule="evenodd"></path><path fill="#000000" d="m33.75324 409.4174l-3.296873 -4.125l-1.53125 1.5l0 2.625l-1.421875 0l0 -12.671875l1.421875 0l0 8.375l4.828123 -4.875l1.8125 0l-4.062498 4.15625l4.078123 5.015625l-1.828125 0zm2.4799347 -3.96875l0 -1.25l4.5625 0l0 1.25l-4.5625 0zm8.409378 3.96875l0 -10.578125l-2.03125 2.140625l-0.9375 -0.96875l3.171875 -3.265625l1.375 0l0 12.671875l-1.578125 0z" fill-rule="nonzero"></path><path fill="#000000" fill-opacity="0.0" d="m102.249344 140.87534l115.90552 0l0 30.677155l-115.90552 0z" fill-rule="evenodd"></path><path fill="#ff0000" d="m118.92122 152.13391l-3.296875 -4.125l-1.53125 1.5l0 2.625l-1.421875 0l0 -12.671875l1.421875 0l0 8.375l4.828125 -4.875l1.8125 0l-4.0625 4.15625l4.078125 5.015625l-1.828125 0zm2.4799347 -3.96875l0 -1.25l4.5625 0l0 1.25l-4.5625 0zm8.409378 3.96875l0 -10.578125l-2.03125 2.140625l-0.9375 -0.96875l3.171875 -3.265625l1.375 0l0 12.671875l-1.578125 0z" fill-rule="nonzero"></path><path fill="#000000" d="m145.24518 152.13391l-3.296875 -4.125l-1.53125 1.5l0 2.625l-1.421875 0l0 -12.671875l1.421875 0l0 8.375l4.828125 -4.875l1.8125 0l-4.0625 4.15625l4.078125 5.015625l-1.828125 0zm19.215927 0l-3.296875 -4.125l-1.53125 1.5l0 2.625l-1.421875 0l0 -12.671875l1.421875 0l0 8.375l4.828125 -4.875l1.8125 0l-4.0625 4.15625l4.078125 5.015625l-1.828125 0zm7.1986847 -5.90625l0 4.046875l-1.078125 0l0 -4.046875l-3.65625 0l0 -0.984375l3.65625 0l0 -3.9375l1.078125 0l0 3.9375l3.65625 0l0 0.984375l-3.65625 0zm7.4032135 5.90625l0 -10.578125l-2.03125 2.140625l-0.9375 -0.96875l3.171875 -3.265625l1.375 0l0 12.671875l-1.578125 0z" fill-rule="nonzero"></path><path fill="#ff0000" d="m111.249344 145.9739l21.51065 0l0 1.1199951l-21.51065 0l0 -1.1199951z" fill-rule="nonzero"></path><path fill="#000000" d="m137.5733 145.9739l19.215927 0l0 1.1199951l-19.215927 0l0 -1.1199951z" fill-rule="nonzero"></path><path fill="#3c78d8" d="m234.93176 362.15616l49.417328 -85.66928l49.417328 85.66928z" fill-rule="evenodd"></path><path stroke="#000000" stroke-width="2.0" stroke-linejoin="round" stroke-linecap="butt" d="m234.93176 362.15616l49.417328 -85.66928l49.417328 85.66928z" fill-rule="evenodd"></path><path fill="#ffffff" d="m273.97208 338.27884l0 -16.015625l7.125 0q2.046875 0 3.265625 1.125q1.21875 1.109375 1.21875 2.96875q0 1.40625 -0.78125 2.390625q-0.78125 0.984375 -2.015625 1.28125q1.265625 0.1875 2.1875 1.34375q0.921875 1.140625 0.921875 2.59375q0 1.953125 -1.234375 3.140625q-1.234375 1.171875 -3.390625 1.171875l-7.296875 0zm6.78125 -9.078125q1.375 0 2.0625 -0.71875q0.703125 -0.734375 0.703125 -1.84375q0 -1.078125 -0.703125 -1.828125q-0.6875 -0.765625 -2.0625 -0.765625l-4.796875 0l0 5.15625l4.796875 0zm0.109375 7.296875q1.40625 0 2.1875 -0.71875q0.78125 -0.734375 0.78125 -2.03125q0 -1.234375 -0.8125 -2.0q-0.8125 -0.765625 -2.15625 -0.765625l-4.90625 0l0 5.515625l4.90625 0z" fill-rule="nonzero"></path><path fill="#ffffff" d="m288.05243 347.27884l0 -1.0625q2.828125 -2.21875 3.875 -3.234375q1.0625 -1.015625 1.546875 -1.8125q0.5 -0.8125 0.5 -1.59375q0 -0.875 -0.609375 -1.40625q-0.609375 -0.53125 -1.609375 -0.53125q-1.875 0 -2.90625 1.34375l-0.8125 -0.859375q0.609375 -0.8125 1.59375 -1.234375q0.984375 -0.4375 2.125 -0.4375q1.546875 0 2.5625 0.859375q1.015625 0.84375 1.015625 2.265625q0 1.296875 -1.09375 2.734375q-1.09375 1.4375 -4.09375 3.78125l5.234375 0l0 1.1875l-7.328125 0z" fill-rule="nonzero"></path><path fill="#3c78d8" d="m194.0345 171.55766l70.488205 0l0 61.76378l-70.488205 0z" fill-rule="evenodd"></path><path stroke="#434343" stroke-width="2.0" stroke-linejoin="round" stroke-linecap="butt" d="m194.0345 171.55766l70.488205 0l0 61.76378l-70.488205 0z" fill-rule="evenodd"></path><path fill="#ffffff" d="m224.83612 213.8858q0.390625 0.1875 0.984375 0.1875q0.609375 0 1.015625 -0.25q0.40625 -0.25 0.71875 -0.96875l0.765625 -1.75l-4.84375 -11.71875l1.9375 0l3.859375 9.5l3.84375 -9.5l1.96875 0l-5.8125 13.953125q-0.953125 2.296875 -3.40625 2.34375q-0.6875 0 -1.3125 -0.171875l0.28125 -1.625z" fill-rule="nonzero"></path><path fill="#000000" fill-opacity="0.0" d="m284.3491 276.48688l-55.05513 -43.181107" fill-rule="evenodd"></path><path stroke="#595959" stroke-width="1.0" stroke-linejoin="round" stroke-linecap="butt" d="m284.3491 276.48688l-55.05513 -43.181107" fill-rule="evenodd"></path><path fill="#000000" fill-opacity="0.0" d="m150.7471 267.89886l78.519684 -34.582672" fill-rule="evenodd"></path><path stroke="#595959" stroke-width="1.0" stroke-linejoin="round" stroke-linecap="butt" d="m150.7471 267.89886l78.519684 -34.582672" fill-rule="evenodd"></path><path fill="#000000" fill-opacity="0.0" d="m245.67192 405.32153l70.488174 0l0 30.677155l-70.488174 0z" fill-rule="evenodd"></path><path fill="#000000" d="m262.34378 427.5801l-3.296875 -4.125l-1.53125 1.5l0 2.625l-1.421875 0l0 -12.671875l1.421875 0l0 8.375l4.828125 -4.875l1.8125 0l-4.0625 4.15625l4.078125 5.015625l-1.828125 0zm2.47995 -3.96875l0 -1.25l4.5625 0l0 1.25l-4.5625 0zm8.409363 3.96875l0 -10.578125l-2.03125 2.140625l-0.9375 -0.96875l3.171875 -3.265625l1.375 0l0 12.671875l-1.578125 0z" fill-rule="nonzero"></path><path fill="#000000" fill-opacity="0.0" d="m325.5433 319.92783l70.48819 0l0 30.677155l-70.48819 0z" fill-rule="evenodd"></path><path fill="#000000" d="m342.21518 342.1864l-3.296875 -4.125l-1.53125 1.5l0 2.625l-1.421875 0l0 -12.671875l1.421875 0l0 8.375l4.828125 -4.875l1.8125 0l-4.0625 4.15625l4.078125 5.015625l-1.828125 0zm2.47995 -3.96875l0 -1.25l4.5625 0l0 1.25l-4.5625 0zm8.409363 3.96875l0 -10.578125l-2.03125 2.140625l-0.9375 -0.96875l3.171875 -3.265625l1.375 0l0 12.671875l-1.578125 0z" fill-rule="nonzero"></path><path fill="#000000" d="m301.79953 448.10922l0 0l0 0c11.521881 -23.652557 40.03366 -33.480804 63.68286 -21.951965l6.6456604 3.2397156l2.9803162 -6.118103l6.273834 18.20044l-18.195099 6.272003l2.9803162 -6.118103l-6.6456604 -3.239746l0 0c-16.892273 -8.234863 -37.257843 -1.2146912 -45.487762 15.679993l0 0z" fill-rule="evenodd"></path><path stroke="#000000" stroke-width="1.0" stroke-linejoin="round" stroke-linecap="butt" d="m301.79953 448.10922l0 0l0 0c11.521881 -23.652557 40.03366 -33.480804 63.68286 -21.951965l6.6456604 3.2397156l2.9803162 -6.118103l6.273834 18.20044l-18.195099 6.272003l2.9803162 -6.118103l-6.6456604 -3.239746l0 0c-16.892273 -8.234863 -37.257843 -1.2146912 -45.487762 15.679993l0 0z" fill-rule="evenodd"></path><path fill="#000000" fill-opacity="0.0" d="m478.95007 428.93176l-193.60632 -21.385834l-11.055115 100.12601l193.6063 21.385803z" fill-rule="evenodd"></path><path fill="#000000" d="m320.68262 469.08514l-2.6471252 -5.354248l-2.5159607 -0.27792358l-0.55215454 5.0008545l-1.568573 -0.17324829l1.390686 -12.595337l5.062958 0.5592346q1.7704773 0.19558716 2.7409973 1.3717651q0.97055054 1.1761475 0.78533936 2.8534546q-0.17489624 1.584137 -1.1992188 2.4613342q-1.024353 0.8772278 -2.466858 0.8436279l2.8180542 5.514618l-1.8481445 -0.20413208zm-1.7024536 -6.648987q1.133728 0.12521362 1.8908081 -0.46710205q0.7570801 -0.5923462 0.8771057 -1.6794739q0.11831665 -1.0716248 -0.49301147 -1.7993774q-0.6095886 -0.74331665 -1.7433167 -0.8685303l-3.308014 -0.36541748l-0.5315857 4.8144836l3.308014 0.36541748zm9.596588 7.756775q-1.987915 -0.21957397 -3.1122437 -1.7114258q-1.1087952 -1.4901123 -0.8772888 -3.5867615q0.23321533 -2.112152 1.6386414 -3.308838q1.42099 -1.1949463 3.408905 -0.9753723q1.9723511 0.21786499 3.0828552 1.6924744q1.1260376 1.4762878 0.8928528 3.5884705q-0.23150635 2.0966187 -1.6542053 3.3070984q-1.4071655 1.2122192 -3.3795166 0.99435425zm0.14059448 -1.2734985q1.3200989 0.14581299 2.2684937 -0.7555237q0.9639282 -0.89959717 1.1336975 -2.4371338q0.16973877 -1.5375366 -0.5763855 -2.610321q-0.72891235 -1.0865784 -2.0490112 -1.2324219q-1.3200989 -0.14581299 -2.2978516 0.73654175q-0.9621887 0.88409424 -1.133667 2.4371643q-0.17318726 1.568573 0.5574341 2.6396484q0.74612427 1.0727844 2.09729 1.2220459zm8.78894 2.2598572q-2.0344849 -0.22473145 -1.7978516 -2.3679504l0.6584778 -5.9637756l-1.5064697 -0.16638184l0.13717651 -1.2424622l1.5064697 0.16641235l0.276062 -2.5004272l1.428833 0.1578064l-0.27609253 2.5004272l1.8481445 0.2041626l-0.13717651 1.2424316l-1.8481445 -0.20413208l-0.625885 5.6686707q-0.05657959 0.5125122 0.124816895 0.8626709q0.19696045 0.3518982 0.6628723 0.40335083q0.5901489 0.06518555 1.0040588 -0.26638794l0.30270386 1.102417q-0.65530396 0.5249634 -1.7579956 0.40316772zm8.863159 0.7432251l0.11489868 -1.0405579q-1.289856 1.1465759 -3.153534 0.94070435q-1.3822021 -0.15267944 -2.2024841 -1.1235962q-0.80474854 -0.96920776 -0.66241455 -2.2582703q0.14575195 -1.3200989 1.1390991 -2.0592346q0.9933777 -0.73916626 2.3911438 -0.58477783q1.9568481 0.216156 2.8757324 1.5752563l0.1817627 -1.6462402q0.10116577 -0.9162903 -0.49624634 -1.485321q-0.5801697 -0.5828552 -1.5896301 -0.69436646q-1.5996704 -0.17669678 -2.9361267 0.9647217l-0.5425415 -1.0660095q1.6106873 -1.3469238 3.800476 -1.1050415q1.6773071 0.18527222 2.5182495 1.1113281q0.8426819 0.91052246 0.683197 2.3548584l-0.692749 6.2743835l-1.428833 -0.15783691zm-2.4129639 -1.0682678q1.6773071 0.18530273 2.6256104 -0.8575134l0.19033813 -1.7239075q-0.697937 -1.2246704 -2.3752441 -1.4099426q-1.009491 -0.11151123 -1.6924438 0.3789673q-0.6829529 0.49050903 -0.7807007 1.3757324q-0.0960083 0.86972046 0.46347046 1.4974365q0.5595093 0.6277466 1.5689697 0.7392273zm8.774017 2.0067139q-2.0345154 -0.22473145 -1.7978821 -2.3679504l0.6584778 -5.9637756l-1.5064697 -0.16638184l0.13717651 -1.2424622l1.5064697 0.16641235l0.27609253 -2.5004272l1.4288025 0.1578064l-0.27609253 2.5004272l1.8481445 0.2041626l-0.13717651 1.2424316l-1.8481445 -0.20413208l-0.625885 5.6686707q-0.05657959 0.5125122 0.12484741 0.8626709q0.19692993 0.35186768 0.6628418 0.40335083q0.59017944 0.06518555 1.0040588 -0.26638794l0.30270386 1.102417q-0.65530396 0.5249634 -1.7579651 0.40316772zm7.2533264 0.8012085q-2.0500488 -0.22644043 -3.2071533 -1.7061768q-1.1398315 -1.4935608 -0.9066162 -3.605713q0.22290039 -2.018982 1.6645508 -3.2588196q1.4416504 -1.2398376 3.3674316 -1.0271301q1.9568481 0.216156 3.017334 1.7166748q1.0621948 1.4849548 0.82214355 3.6592407l-0.03945923 0.35720825l-7.392517 -0.81658936q-0.076690674 1.4063416 0.7574158 2.3945312q0.8357849 0.97262573 2.1869507 1.1218872q1.6617737 0.18356323 2.9379272 -0.83877563l0.58044434 1.0073242q-1.552063 1.2433777 -3.7884521 0.9963379zm3.4353943 -5.059662q0.1388855 -1.2579651 -0.60202026 -2.2358704q-0.72366333 -0.9916992 -2.074829 -1.1409302q-1.2579651 -0.13897705 -2.1960754 0.66915894q-0.93637085 0.79263306 -1.1218872 2.0454712l5.994812 0.6621704zm7.698883 6.053772l1.0065918 -9.116486l1.413269 0.15609741l-0.16290283 1.4754333q1.4569702 -1.5211182 3.227478 -1.3255615l-0.15948486 1.4443665l-0.5522461 -0.12390137q-0.6522827 -0.072052 -1.4802551 0.30810547q-0.81243896 0.38186646 -1.165802 0.87731934l-0.7133484 6.460724l-1.4132996 -0.15609741zm7.9688416 -9.667908q-0.3727417 -0.041168213 -0.63864136 -0.33779907q-0.24868774 -0.3104248 -0.20410156 -0.7142334q0.044555664 -0.40377808 0.35498047 -0.6524658q0.32595825 -0.24694824 0.69866943 -0.20578003q0.4038086 0.0446167 0.65249634 0.3550415q0.24868774 0.3104248 0.20410156 0.7142334q-0.04458618 0.40377808 -0.355011 0.6524658q-0.3086853 0.23312378 -0.7124939 0.1885376zm-1.8494873 10.343842l1.0065918 -9.116486l1.413269 0.15612793l-1.0065613 9.116455l-1.4132996 -0.15609741zm7.4293823 4.5620117q-1.1647949 -0.12866211 -1.9880981 -0.5025635q-0.8233032 -0.37390137 -1.543457 -1.2551575l0.83102417 -0.97717285q0.500885 0.7312927 1.1688843 1.0880432q0.68182373 0.37399292 1.6602478 0.48205566q1.3977661 0.15438843 2.2393494 -0.4914856q0.8571167 -0.64416504 0.9977417 -1.9176636l0.14404297 -1.3045654q-0.5741577 0.64398193 -1.433197 1.0206909q-0.84176636 0.36288452 -1.804657 0.25653076q-1.863678 -0.20587158 -2.8222961 -1.6322327q-0.95861816 -1.4263916 -0.72543335 -3.5385437q0.24179077 -2.1898193 1.5006104 -3.3398132q1.2743225 -1.1482849 3.0914001 -0.9475708q1.8792114 0.20758057 2.882904 1.9376221l0.15090942 -1.3666992l1.413269 0.15609741l-0.977417 8.852478q-0.21264648 1.9257812 -1.4578247 2.8100586q-1.2469177 0.8997803 -3.328003 0.66989136zm0.735199 -4.8077087q0.7765198 0.085754395 1.5820923 -0.23397827q0.82284546 -0.3335266 1.3158875 -0.9550476l0.44070435 -3.9913635q-0.34729004 -0.6986084 -1.0792542 -1.1881714q-0.7319336 -0.489563 -1.4929199 -0.5736389q-1.3356323 -0.14752197 -2.2340088 0.72787476q-0.89837646 0.87542725 -1.0681458 2.4129333q-0.17318726 1.5686035 0.5280762 2.620697q0.7185364 1.0382996 2.0075684 1.1806946zm12.832825 2.5650635l0.66360474 -6.0103455q0.11148071 -1.009491 -0.31167603 -1.5906982q-0.42315674 -0.5812378 -1.5258179 -0.70303345q-0.7765198 -0.08578491 -1.5510559 0.23739624q-0.7572632 0.3093567 -1.3072815 0.8773804l-0.73565674 6.6626587l-1.413269 -0.15612793l1.390686 -12.595337l1.413269 0.15612793l-0.5298767 4.79895q0.6828613 -0.631958 1.598877 -0.9552307q0.9177246 -0.33877563 1.8495483 -0.23583984q2.9042053 0.32080078 2.5835571 3.225006l-0.7116394 6.445221l-1.413269 -0.15612793zm6.34317 0.9364929q-2.0345154 -0.22473145 -1.7978821 -2.367981l0.6584778 -5.963745l-1.5064697 -0.16641235l0.13720703 -1.2424316l1.5064392 0.16638184l0.27609253 -2.5004272l1.4288025 0.15783691l-0.276062 2.5004272l1.848114 0.20413208l-0.13717651 1.2424622l-1.8481445 -0.20413208l-0.625885 5.6686707q-0.05657959 0.5125122 0.12484741 0.8626709q0.19692993 0.35186768 0.6628418 0.4033203q0.59017944 0.065216064 1.0040588 -0.26635742l0.30273438 1.1023865q-0.6553345 0.5249939 -1.7579956 0.40319824zm11.913269 1.3159485q-1.9878845 -0.21960449 -3.1122131 -1.7114258q-1.1087952 -1.4901428 -0.8772888 -3.5867615q0.23318481 -2.112152 1.6386414 -3.308838q1.42099 -1.1949768 3.4088745 -0.9753723q1.9723816 0.21786499 3.0828857 1.6924438q1.1260376 1.4763184 0.89282227 3.5884705q-0.23147583 2.0966492 -1.6541748 3.307129q-1.4071655 1.2122192 -3.379547 0.99435425zm0.140625 -1.273529q1.3200989 0.14581299 2.2684937 -0.75549316q0.9639282 -0.8996277 1.133667 -2.4371338q0.16976929 -1.5375366 -0.5763855 -2.610321q-0.72888184 -1.0866089 -2.0489807 -1.2324219q-1.3200989 -0.14581299 -2.2978516 0.73654175q-0.9621887 0.8840637 -1.133667 2.4371338q-0.17318726 1.5686035 0.55740356 2.639679q0.7461548 1.0727844 2.0973206 1.2220154zm12.666229 2.452362l0.6584778 -5.963745q0.13375854 -1.2113953 -0.37561035 -1.7235413q-0.5093689 -0.512146 -1.4411926 -0.6150818q-0.79208374 -0.0874939 -1.5993652 0.24777222q-0.8072815 0.3352661 -1.2590027 0.8670044l-0.7356262 6.6626587l-1.4132996 -0.15612793l1.0065918 -9.116455l1.413269 0.15609741l-0.14575195 1.3200989q0.6655884 -0.61816406 1.56781 -0.9586487q0.9176941 -0.33880615 1.8650818 -0.23416138q2.9042053 0.32080078 2.5783997 3.271637l-0.70648193 6.3986206l-1.4132996 -0.15612793zm8.304443 3.2281494q0.27792358 0.18789673 0.7593689 0.24108887q0.46591187 0.051452637 0.8143616 -0.1144104q0.3484192 -0.16586304 0.64312744 -0.69924927l0.7583008 -1.3153076l-2.788147 -9.629974l1.5220032 0.16812134l2.2191772 7.806488l3.837738 -7.1374207l1.5530396 0.1715393l-5.776581 10.460266q-0.9616394 1.7330322 -2.8908386 1.5513611q-0.5435791 -0.060058594 -1.0268555 -0.23919678l0.37530518 -1.2633057z" fill-rule="nonzero"></path><path fill="#3c78d8" d="m798.5896 251.02486l70.48822 0l0 61.76378l-70.48822 0z" fill-rule="evenodd"></path><path stroke="#434343" stroke-width="2.0" stroke-linejoin="round" stroke-linecap="butt" d="m798.5896 251.02486l70.48822 0l0 61.76378l-70.48822 0z" fill-rule="evenodd"></path><path fill="#ffffff" d="m836.84674 290.44675l0 -7.578125q0 -1.546875 -0.71875 -2.109375q-0.703125 -0.578125 -1.875 -0.578125q-1.0 0 -1.984375 0.546875q-0.96875 0.53125 -1.453125 1.25l0 8.46875l-1.796875 0l0 -11.59375l1.796875 0l0 1.6875q0.75 -0.875 1.84375 -1.421875q1.09375 -0.546875 2.296875 -0.546875q3.6875 0 3.6875 3.734375l0 8.140625l-1.796875 0z" fill-rule="nonzero"></path><path fill="#3c78d8" d="m853.6667 463.49475l49.417297 -85.66928l49.41736 85.66928z" fill-rule="evenodd"></path><path stroke="#000000" stroke-width="2.0" stroke-linejoin="round" stroke-linecap="butt" d="m853.6667 463.49475l49.417297 -85.66928l49.41736 85.66928z" fill-rule="evenodd"></path><path fill="#ffffff" d="m896.559 439.61743l0 -16.015625l5.46875 0q3.640625 0 5.921875 2.28125q2.28125 2.265625 2.28125 5.75q0 3.5 -2.296875 5.75q-2.28125 2.234375 -5.90625 2.234375l-5.46875 0zm5.46875 -1.78125q2.734375 0 4.4375 -1.703125q1.703125 -1.71875 1.703125 -4.5q0 -2.796875 -1.6875 -4.515625q-1.671875 -1.734375 -4.453125 -1.734375l-3.484375 0l0 12.453125l3.484375 0z" fill-rule="nonzero"></path><path fill="#000000" fill-opacity="0.0" d="m716.8009 128.65215l117.03937 122.36221" fill-rule="evenodd"></path><path stroke="#595959" stroke-width="1.0" stroke-linejoin="round" stroke-linecap="butt" d="m716.8009 128.65215l117.03937 122.36221" fill-rule="evenodd"></path><path fill="#000000" fill-opacity="0.0" d="m833.83374 312.78864l69.25983 65.03937" fill-rule="evenodd"></path><path stroke="#595959" stroke-width="1.0" stroke-linejoin="round" stroke-linecap="butt" d="m833.83374 312.78864l69.25983 65.03937" fill-rule="evenodd"></path><path fill="#000000" fill-opacity="0.0" d="m882.0131 319.92783l70.48822 0l0 30.677155l-70.48822 0z" fill-rule="evenodd"></path><path fill="#000000" d="m898.685 342.1864l-3.296875 -4.125l-1.53125 1.5l0 2.625l-1.421875 0l0 -12.671875l1.421875 0l0 8.375l4.828125 -4.875l1.8125 0l-4.0625 4.15625l4.078125 5.015625l-1.828125 0zm2.4799194 -3.96875l0 -1.25l4.5625 0l0 1.25l-4.5625 0zm8.409424 3.96875l0 -10.578125l-2.03125 2.140625l-0.9375 -0.96875l3.171875 -3.265625l1.375 0l0 12.671875l-1.578125 0z" fill-rule="nonzero"></path><path fill="#000000" fill-opacity="0.0" d="m460.3701 227.1588l98.834625 0l0 30.67717l-98.834625 0z" fill-rule="evenodd"></path><path fill="#ff0000" d="m477.04196 249.41737l-3.296875 -4.125l-1.53125 1.5l0 2.625l-1.421875 0l0 -12.671875l1.421875 0l0 8.375l4.828125 -4.875l1.8125 0l-4.0625 4.15625l4.078125 5.015625l-1.828125 0z" fill-rule="nonzero"></path><path fill="#000000" d="m491.44458 249.41737l-3.296875 -4.125l-1.53125 1.5l0 2.625l-1.421875 0l0 -12.671875l1.421875 0l0 8.375l4.828125 -4.875l1.8125 0l-4.0625 4.15625l4.078125 5.015625l-1.828125 0zm7.1986694 -5.90625l0 4.046875l-1.078125 0l0 -4.046875l-3.65625 0l0 -0.984375l3.65625 0l0 -3.9375l1.078125 0l0 3.9375l3.65625 0l0 0.984375l-3.65625 0zm7.4032288 5.90625l0 -10.578125l-2.03125 2.140625l-0.9375 -0.96875l3.171875 -3.265625l1.375 0l0 12.671875l-1.578125 0zm20.247955 0l-3.296875 -4.125l-1.53125 1.5l0 2.625l-1.421875 0l0 -12.671875l1.421875 0l0 8.375l4.828125 -4.875l1.8125 0l-4.0625 4.15625l4.078125 5.015625l-1.828125 0z" fill-rule="nonzero"></path><path fill="#ff0000" d="m469.3701 243.25737l9.589294 0l0 1.1200104l-9.589294 0l0 -1.1200104z" fill-rule="nonzero"></path><path fill="#000000" d="m483.7727 243.25737l34.849854 0l0 1.1200104l-34.849854 0l0 -1.1200104z" fill-rule="nonzero"></path><path fill="#3c78d8" d="m566.37964 251.02486l70.48822 0l0 61.76378l-70.48822 0z" fill-rule="evenodd"></path><path stroke="#434343" stroke-width="2.0" stroke-linejoin="round" stroke-linecap="butt" d="m566.37964 251.02486l70.48822 0l0 61.76378l-70.48822 0z" fill-rule="evenodd"></path><path fill="#ffffff" d="m605.10425 290.44675l-3.484375 -4.75l-3.46875 4.75l-2.078125 0l4.453125 -5.953125l-4.203125 -5.640625l2.078125 0l3.21875 4.421875l3.21875 -4.421875l2.09375 0l-4.203125 5.640625l4.46875 5.953125l-2.09375 0z" fill-rule="nonzero"></path><path fill="#3c78d8" d="m488.71652 457.33728l49.417328 -85.66931l49.41736 85.66931z" fill-rule="evenodd"></path><path stroke="#000000" stroke-width="2.0" stroke-linejoin="round" stroke-linecap="butt" d="m488.71652 457.33728l49.417328 -85.66931l49.41736 85.66931z" fill-rule="evenodd"></path><path fill="#ffffff" d="m543.5347 433.45996l-1.421875 -3.546875l-7.96875 0l-1.40625 3.546875l-2.28125 0l6.421875 -16.015625l2.484375 0l6.453125 16.015625l-2.28125 0zm-5.40625 -13.9375l-3.40625 8.609375l6.796875 0l-3.390625 -8.609375z" fill-rule="nonzero"></path><path fill="#3c78d8" d="m601.57086 457.33728l49.417297 -85.66931l49.41736 85.66931z" fill-rule="evenodd"></path><path stroke="#000000" stroke-width="2.0" stroke-linejoin="round" stroke-linecap="butt" d="m601.57086 457.33728l49.417297 -85.66931l49.41736 85.66931z" fill-rule="evenodd"></path><path fill="#ffffff" d="m642.6032 433.45996l0 -16.015625l7.125 0q2.046875 0 3.265625 1.125q1.21875 1.109375 1.21875 2.96875q0 1.40625 -0.78125 2.390625q-0.78125 0.984375 -2.015625 1.28125q1.265625 0.1875 2.1875 1.34375q0.921875 1.140625 0.921875 2.59375q0 1.953125 -1.234375 3.140625q-1.234375 1.171875 -3.390625 1.171875l-7.296875 0zm6.78125 -9.078125q1.375 0 2.0625 -0.71875q0.703125 -0.734375 0.703125 -1.84375q0 -1.078125 -0.703125 -1.828125q-0.6875 -0.765625 -2.0625 -0.765625l-4.796875 0l0 5.15625l4.796875 0zm0.109375 7.296875q1.40625 0 2.1875 -0.71875q0.78125 -0.734375 0.78125 -2.03125q0 -1.234375 -0.8125 -2.0q-0.8125 -0.765625 -2.15625 -0.765625l-4.90625 0l0 5.515625l4.90625 0z" fill-rule="nonzero"></path><path fill="#ffffff" d="m658.6679 442.45996l0 -8.90625l-1.703125 1.796875l-0.796875 -0.8125l2.671875 -2.75l1.15625 0l0 10.671875l-1.328125 0z" fill-rule="nonzero"></path><path fill="#000000" fill-opacity="0.0" d="m538.13385 371.66797l63.496094 -58.86612" fill-rule="evenodd"></path><path stroke="#595959" stroke-width="1.0" stroke-linejoin="round" stroke-linecap="butt" d="m538.13385 371.66797l63.496094 -58.86612" fill-rule="evenodd"></path><path fill="#000000" fill-opacity="0.0" d="m601.6237 312.78864l49.35437 58.86615" fill-rule="evenodd"></path><path stroke="#595959" stroke-width="1.0" stroke-linejoin="round" stroke-linecap="butt" d="m601.6237 312.78864l49.35437 58.86615" fill-rule="evenodd"></path><path fill="#000000" fill-opacity="0.0" d="m452.96588 381.0013l70.48816 0l0 30.677155l-70.48816 0z" fill-rule="evenodd"></path><path fill="#000000" d="m469.63776 403.2599l-3.296875 -4.125l-1.53125 1.5l0 2.625l-1.421875 0l0 -12.671875l1.421875 0l0 8.375l4.828125 -4.875l1.8125 0l-4.0625 4.15625l4.078125 5.015625l-1.828125 0zm2.4799194 -3.96875l0 -1.25l4.5625 0l0 1.25l-4.5625 0zm8.409393 3.96875l0 -10.578125l-2.03125 2.140625l-0.9375 -0.96875l3.171875 -3.265625l1.375 0l0 12.671875l-1.578125 0z" fill-rule="nonzero"></path><path fill="#000000" fill-opacity="0.0" d="m601.62994 220.15224l115.90552 0l0 30.677155l-115.90552 0z" fill-rule="evenodd"></path><path fill="#3c78d8" d="m727.61945 463.49475l49.417297 -85.66928l49.417297 85.66928z" fill-rule="evenodd"></path><path stroke="#000000" stroke-width="2.0" stroke-linejoin="round" stroke-linecap="butt" d="m727.61945 463.49475l49.417297 -85.66928l49.417297 85.66928z" fill-rule="evenodd"></path><path fill="#ffffff" d="m766.6597 439.61743l0 -16.015625l7.125 0q2.046875 0 3.265625 1.125q1.21875 1.109375 1.21875 2.96875q0 1.40625 -0.78125 2.390625q-0.78125 0.984375 -2.015625 1.28125q1.265625 0.1875 2.1875 1.34375q0.921875 1.140625 0.921875 2.59375q0 1.953125 -1.234375 3.140625q-1.234375 1.171875 -3.390625 1.171875l-7.296875 0zm6.78125 -9.078125q1.375 0 2.0625 -0.71875q0.703125 -0.734375 0.703125 -1.84375q0 -1.078125 -0.703125 -1.828125q-0.6875 -0.765625 -2.0625 -0.765625l-4.796875 0l0 5.15625l4.796875 0zm0.109375 7.296875q1.40625 0 2.1875 -0.71875q0.78125 -0.734375 0.78125 -2.03125q0 -1.234375 -0.8125 -2.0q-0.8125 -0.765625 -2.15625 -0.765625l-4.90625 0l0 5.515625l4.90625 0z" fill-rule="nonzero"></path><path fill="#ffffff" d="m780.7401 448.61743l0 -1.0625q2.828125 -2.21875 3.875 -3.234375q1.0625 -1.015625 1.546875 -1.8125q0.5 -0.8125 0.5 -1.59375q0 -0.875 -0.609375 -1.40625q-0.609375 -0.53125 -1.609375 -0.53125q-1.875 0 -2.90625 1.34375l-0.8125 -0.859375q0.609375 -0.8125 1.59375 -1.234375q0.984375 -0.4375 2.125 -0.4375q1.546875 0 2.5625 0.859375q1.015625 0.84375 1.015625 2.265625q0 1.296875 -1.09375 2.734375q-1.09375 1.4375 -4.09375 3.78125l5.234375 0l0 1.1875l-7.328125 0z" fill-rule="nonzero"></path><path fill="#3c78d8" d="m681.5568 66.88837l70.48816 0l0 61.76378l-70.48816 0z" fill-rule="evenodd"></path><path stroke="#434343" stroke-width="2.0" stroke-linejoin="round" stroke-linecap="butt" d="m681.5568 66.88837l70.48816 0l0 61.76378l-70.48816 0z" fill-rule="evenodd"></path><path fill="#ffffff" d="m712.3584 109.21651q0.390625 0.1875 0.984375 0.1875q0.609375 0 1.015625 -0.25q0.40625 -0.25 0.71875 -0.96875l0.765625 -1.75l-4.84375 -11.71875l1.9375 0l3.859375 9.5l3.84375 -9.5l1.96875 0l-5.8125 13.953125q-0.953125 2.296875 -3.40625 2.34375q-0.6875 0 -1.3125 -0.171875l0.28125 -1.625z" fill-rule="nonzero"></path><path fill="#000000" fill-opacity="0.0" d="m777.03674 377.82547l56.787415 -65.03937" fill-rule="evenodd"></path><path stroke="#595959" stroke-width="1.0" stroke-linejoin="round" stroke-linecap="butt" d="m777.03674 377.82547l56.787415 -65.03937" fill-rule="evenodd"></path><path fill="#000000" fill-opacity="0.0" d="m601.6237 251.02486l115.18115 -122.36221" fill-rule="evenodd"></path><path stroke="#595959" stroke-width="1.0" stroke-linejoin="round" stroke-linecap="butt" d="m601.6237 251.02486l115.18115 -122.36221" fill-rule="evenodd"></path><path fill="#000000" fill-opacity="0.0" d="m681.55646 399.16403l70.48816 0l0 30.677185l-70.48816 0z" fill-rule="evenodd"></path><path fill="#000000" d="m698.22833 421.42264l-3.296875 -4.125l-1.53125 1.5l0 2.625l-1.421875 0l0 -12.671875l1.421875 0l0 8.375l4.828125 -4.875l1.8125 0l-4.0625 4.15625l4.078125 5.015625l-1.828125 0zm2.4799194 -3.96875l0 -1.25l4.5625 0l0 1.25l-4.5625 0zm8.409363 3.96875l0 -10.578125l-2.03125 2.140625l-0.9375 -0.96875l3.171875 -3.265625l1.375 0l0 12.671875l-1.578125 0z" fill-rule="nonzero"></path><path fill="#000000" fill-opacity="0.0" d="m717.07874 350.60498l70.48822 0l0 30.677185l-70.48822 0z" fill-rule="evenodd"></path><path fill="#000000" d="m733.7506 372.86356l-3.296875 -4.125l-1.53125 1.5l0 2.625l-1.421875 0l0 -12.671875l1.421875 0l0 8.375l4.828125 -4.875l1.8125 0l-4.0625 4.15625l4.078125 5.015625l-1.828125 0zm2.4799194 -3.96875l0 -1.25l4.5625 0l0 1.25l-4.5625 0zm8.409424 3.96875l0 -10.578125l-2.03125 2.140625l-0.9375 -0.96875l3.171875 -3.265625l1.375 0l0 12.671875l-1.578125 0z" fill-rule="nonzero"></path><path fill="#000000" fill-opacity="0.0" d="m633.3884 220.15092l70.48822 0l0 30.677155l-70.48822 0z" fill-rule="evenodd"></path><path fill="#000000" d="m650.0603 242.4095l-3.296875 -4.125l-1.53125 1.5l0 2.625l-1.421875 0l0 -12.671875l1.421875 0l0 8.375l4.828125 -4.875l1.8125 0l-4.0625 4.15625l4.078125 5.015625l-1.828125 0z" fill-rule="nonzero"></path><path fill="#000000" fill-opacity="0.0" d="m833.22046 204.81496l70.48822 0l0 30.67717l-70.48822 0z" fill-rule="evenodd"></path><path fill="#000000" d="m849.89233 227.07355l-3.296875 -4.125l-1.53125 1.5l0 2.625l-1.421875 0l0 -12.671875l1.421875 0l0 8.375l4.828125 -4.875l1.8125 0l-4.0625 4.15625l4.078125 5.015625l-1.828125 0z" fill-rule="nonzero"></path><path fill="#000000" fill-opacity="0.0" d="m700.4068 18.266405l70.48822 0l0 30.677164l-70.48822 0z" fill-rule="evenodd"></path><path fill="#000000" d="m717.0787 40.524986l-3.296875 -4.125l-1.53125 1.5l0 2.625l-1.421875 0l0 -12.671875l1.421875 0l0 8.375l4.828125 -4.875l1.8125 0l-4.0625 4.15625l4.078125 5.015625l-1.828125 0zm7.1987305 -5.90625l0 4.046875l-1.078125 0l0 -4.046875l-3.65625 0l0 -0.984375l3.65625 0l0 -3.9375l1.078125 0l0 3.9375l3.65625 0l0 0.984375l-3.65625 0zm7.4031982 5.90625l0 -10.578125l-2.03125 2.140625l-0.9375 -0.96875l3.171875 -3.265625l1.375 0l0 12.671875l-1.578125 0z" fill-rule="nonzero"></path></g></svg>

