<?xml version="1.0" standalone="yes"?>

<svg version="1.1" viewBox="0.0 0.0 960.0 540.0" fill="none" stroke="none" stroke-linecap="square" stroke-miterlimit="10" xmlns="http://www.w3.org/2000/svg" xmlns:xlink="http://www.w3.org/1999/xlink"><clipPath id="g29be78fc1f_0_149.0"><path d="m0 0l960.0 0l0 540.0l-960.0 0l0 -540.0z" clip-rule="nonzero"></path></clipPath><g clip-path="url(#g29be78fc1f_0_149.0)"><path fill="#ffffff" d="m0 0l960.0 0l0 540.0l-960.0 0z" fill-rule="evenodd"></path><path fill="#000000" fill-opacity="0.0" d="m455.61154 101.784775l-109.79526 61.417328" fill-rule="evenodd"></path><path stroke="#595959" stroke-width="1.0" stroke-linejoin="round" stroke-linecap="butt" d="m455.61154 101.784775l-109.79526 61.417328" fill-rule="evenodd"></path><path fill="#000000" fill-opacity="0.0" d="m455.61154 101.784775l100.409454 61.448822" fill-rule="evenodd"></path><path stroke="#595959" stroke-width="1.0" stroke-linejoin="round" stroke-linecap="butt" d="m455.61154 101.784775l100.409454 61.448822" fill-rule="evenodd"></path><path fill="#000000" fill-opacity="0.0" d="m345.82678 236.08923l-55.748047 101.102356" fill-rule="evenodd"></path><path stroke="#595959" stroke-width="1.0" stroke-linejoin="round" stroke-linecap="butt" d="m345.82678 236.08923l-55.748047 101.102356" fill-rule="evenodd"></path><path fill="#000000" fill-opacity="0.0" d="m345.82678 236.08923l47.748016 101.102356" fill-rule="evenodd"></path><path stroke="#595959" stroke-width="1.0" stroke-linejoin="round" stroke-linecap="butt" d="m345.82678 236.08923l47.748016 101.102356" fill-rule="evenodd"></path><path fill="#000000" fill-opacity="0.0" d="m556.0315 236.11417l-46.897644 101.03937" fill-rule="evenodd"></path><path stroke="#595959" stroke-width="1.0" stroke-linejoin="round" stroke-linecap="butt" d="m556.0315 236.11417l-46.897644 101.03937" fill-rule="evenodd"></path><path fill="#000000" fill-opacity="0.0" d="m556.0315 236.11417l59.653564 101.07086" fill-rule="evenodd"></path><path stroke="#595959" stroke-width="1.0" stroke-linejoin="round" stroke-linecap="butt" d="m556.0315 236.11417l59.653564 101.07086" fill-rule="evenodd"></path><path fill="#000000" fill-opacity="0.0" d="m699.80585 267.42508l121.102356 0l0 67.212585l-121.102356 0z" fill-rule="evenodd"></path><path fill="#000000" d="m732.3872 294.57944q-2.328125 0 -3.703125 -1.453125l0.75 -1.015625q0.453125 0.53125 1.25 0.921875q0.8125 0.375 1.765625 0.375q1.0625 0 1.609375 -0.4375q0.5625 -0.453125 0.5625 -1.140625q0 -0.59375 -0.609375 -0.9375q-0.59375 -0.359375 -2.234375 -0.75q-1.375 -0.28125 -2.109375 -0.890625q-0.734375 -0.625 -0.734375 -1.671875q0 -1.15625 0.921875 -1.890625q0.9375 -0.75 2.5 -0.75q2.0625 0 3.390625 1.328125l-0.65625 0.984375q-0.421875 -0.484375 -1.140625 -0.8125q-0.703125 -0.34375 -1.59375 -0.34375q-0.953125 0 -1.5 0.421875q-0.53125 0.421875 -0.53125 1.03125q0 0.546875 0.609375 0.875q0.609375 0.3125 2.234375 0.65625q1.390625 0.328125 2.109375 0.984375q0.71875 0.65625 0.71875 1.734375q0 1.28125 -0.984375 2.03125q-0.984375 0.75 -2.625 0.75zm11.971985 -0.234375l0 -1.296875q-0.53125 0.609375 -1.390625 1.078125q-0.859375 0.453125 -1.890625 0.453125q-2.921875 0 -2.921875 -2.9375l0 -6.46875l1.421875 0l0 6.03125q0 1.09375 0.5 1.59375q0.5 0.5 1.5625 0.5q0.828125 0 1.5625 -0.40625q0.75 -0.421875 1.15625 -0.984375l0 -6.734375l1.421875 0l0 9.171875l-1.421875 0zm5.498352 -2.484375q0.390625 0.609375 1.140625 1.03125q0.75 0.40625 1.609375 0.40625q1.34375 0 2.140625 -0.96875q0.8125 -0.984375 0.8125 -2.5625q0 -1.59375 -0.796875 -2.5625q-0.796875 -0.984375 -2.15625 -0.984375q-0.859375 0 -1.609375 0.4375q-0.75 0.421875 -1.140625 1.03125l0 4.171875zm-1.421875 2.484375l0 -12.671875l1.421875 0l0 4.875q1.1875 -1.609375 3.109375 -1.609375q1.8125 0 2.9375 1.328125q1.140625 1.328125 1.140625 3.5q0 2.203125 -1.140625 3.515625q-1.125 1.296875 -2.9375 1.296875q-0.96875 0 -1.78125 -0.453125q-0.8125 -0.453125 -1.328125 -1.15625l0 1.375l-1.421875 0zm13.055481 0.234375q-2.046875 0 -2.046875 -2.15625l0 -6.0l-1.515625 0l0 -1.25l1.515625 0l0 -2.515625l1.4375 0l0 2.515625l1.859375 0l0 1.25l-1.859375 0l0 5.703125q0 0.515625 0.21875 0.84375q0.234375 0.328125 0.703125 0.328125q0.59375 0 0.96875 -0.375l0.421875 1.0625q-0.59375 0.59375 -1.703125 0.59375zm3.1567993 -0.234375l0 -9.171875l1.421875 0l0 1.484375q1.28125 -1.671875 3.0625 -1.671875l0 1.453125l-0.5625 -0.0625q-0.65625 0 -1.4375 0.46875q-0.765625 0.46875 -1.0625 1.0l0 6.5l-1.421875 0zm10.297241 0.234375q-2.0625 0 -3.375 -1.34375q-1.296875 -1.359375 -1.296875 -3.484375q0 -2.03125 1.296875 -3.421875q1.296875 -1.390625 3.234375 -1.390625q1.96875 0 3.1875 1.375q1.21875 1.359375 1.21875 3.546875l0 0.359375l-7.4375 0q0.078125 1.40625 1.015625 2.296875q0.9375 0.875 2.296875 0.875q1.671875 0 2.828125 -1.15625l0.6875 0.9375q-1.40625 1.40625 -3.65625 1.40625zm2.859375 -5.40625q0 -1.265625 -0.84375 -2.15625q-0.828125 -0.90625 -2.1875 -0.90625q-1.265625 0 -2.109375 0.90625q-0.84375 0.890625 -0.890625 2.15625l6.03125 0zm7.644043 5.40625q-2.0625 0 -3.375 -1.34375q-1.296875 -1.359375 -1.296875 -3.484375q0 -2.03125 1.296875 -3.421875q1.296875 -1.390625 3.234375 -1.390625q1.96875 0 3.1875 1.375q1.21875 1.359375 1.21875 3.546875l0 0.359375l-7.4375 0q0.078125 1.40625 1.015625 2.296875q0.9375 0.875 2.296875 0.875q1.671875 0 2.828125 -1.15625l0.6875 0.9375q-1.40625 1.40625 -3.65625 1.40625zm2.859375 -5.40625q0 -1.265625 -0.84375 -2.15625q-0.828125 -0.90625 -2.1875 -0.90625q-1.265625 0 -2.109375 0.90625q-0.84375 0.890625 -0.890625 2.15625l6.03125 0z" fill-rule="nonzero"></path><path fill="#000000" fill-opacity="0.0" d="m714.47864 285.713c-37.945496 -22.202423 -46.27014 -76.42238 -75.18866 -109.97249c-26.839722 -31.138351 -76.85132 -47.060806 -116.203674 -36.98848c-32.981598 8.441727 -59.992584 56.206604 -51.75467 89.9754c5.222473 21.407852 32.562103 38.57959 27.33963 59.987457c-4.8547974 19.900696 -28.49701 28.967346 -41.01129 44.98578c-8.827881 11.299713 -5.860382 28.522583 -5.860382 42.992218c0 18.108032 -1.8712158 41.39145 11.71698 52.983063c16.56012 14.126892 41.074768 19.438202 62.498077 16.999084c14.842529 -1.6898804 27.204895 -18.162476 41.988647 -15.998444c33.56775 4.9136047 80.36804 33.102783 101.55835 5.999878c21.596008 -27.621765 21.311584 -74.328 5.8566284 -105.97385c-8.468872 -17.341034 -32.544678 -32.344543 -27.3396 -50.985657c5.7368774 -20.54599 42.69586 -2.766632 62.494263 3.9986267" fill-rule="evenodd"></path><path stroke="#0000ff" stroke-width="1.0" stroke-linejoin="round" stroke-linecap="butt" stroke-dasharray="4.0,3.0" d="m714.47864 285.713c-37.945496 -22.202423 -46.27014 -76.42238 -75.18866 -109.97249c-26.839722 -31.138351 -76.85132 -47.060806 -116.203674 -36.98848c-32.981598 8.441727 -59.992584 56.206604 -51.75467 89.9754c5.222473 21.407852 32.562103 38.57959 27.33963 59.987457c-4.8547974 19.900696 -28.49701 28.967346 -41.01129 44.98578c-8.827881 11.299713 -5.860382 28.522583 -5.860382 42.992218c0 18.108032 -1.8712158 41.39145 11.71698 52.983063c16.56012 14.126892 41.074768 19.438202 62.498077 16.999084c14.842529 -1.6898804 27.204895 -18.162476 41.988647 -15.998444c33.56775 4.9136047 80.36804 33.102783 101.55835 5.999878c21.596008 -27.621765 21.311584 -74.328 5.8566284 -105.97385c-8.468872 -17.341034 -32.544678 -32.344543 -27.3396 -50.985657c5.7368774 -20.54599 42.69586 -2.766632 62.494263 3.9986267" fill-rule="evenodd"></path><path fill="#3c78d8" d="m416.46194 28.902887l78.299225 0l0 72.88189l-78.299225 0z" fill-rule="evenodd"></path><path stroke="#434343" stroke-width="2.0" stroke-linejoin="round" stroke-linecap="butt" d="m416.46194 28.902887l78.299225 0l0 72.88189l-78.299225 0z" fill-rule="evenodd"></path><path fill="#ffffff" d="m441.8091 54.14383l-2.203125 -3.4375l-1.734375 0l0 3.4375l-1.078125 0l0 -8.671875l3.484375 0q1.21875 0 1.96875 0.734375q0.75 0.71875 0.75 1.875q0 1.09375 -0.640625 1.765625q-0.625 0.671875 -1.609375 0.765625l2.34375 3.53125l-1.28125 0zm-1.65625 -4.390625q0.765625 0 1.234375 -0.453125q0.484375 -0.46875 0.484375 -1.21875q0 -0.734375 -0.484375 -1.1875q-0.46875 -0.453125 -1.234375 -0.453125l-2.28125 0l0 3.3125l2.28125 0zm8.697235 4.546875q-1.90625 0 -3.109375 -1.265625q-1.203125 -1.28125 -1.203125 -3.21875q0 -1.953125 1.203125 -3.21875q1.203125 -1.265625 3.109375 -1.265625q1.90625 0 3.09375 1.28125q1.203125 1.265625 1.203125 3.203125q0 1.953125 -1.203125 3.21875q-1.203125 1.265625 -3.09375 1.265625zm0 -0.96875q1.421875 0 2.296875 -0.984375q0.890625 -1.0 0.890625 -2.53125q0 -1.5625 -0.890625 -2.546875q-0.875 -0.984375 -2.296875 -0.984375q-1.40625 0 -2.296875 0.96875q-0.890625 0.96875 -0.890625 2.5625q0 1.5625 0.875 2.546875q0.875 0.96875 2.3125 0.96875zm10.195984 0.96875q-1.90625 0 -3.109375 -1.265625q-1.203125 -1.28125 -1.203125 -3.21875q0 -1.953125 1.203125 -3.21875q1.203125 -1.265625 3.109375 -1.265625q1.90625 0 3.09375 1.28125q1.203125 1.265625 1.203125 3.203125q0 1.953125 -1.203125 3.21875q-1.203125 1.265625 -3.09375 1.265625zm0 -0.96875q1.421875 0 2.296875 -0.984375q0.890625 -1.0 0.890625 -2.53125q0 -1.5625 -0.890625 -2.546875q-0.875 -0.984375 -2.296875 -0.984375q-1.40625 0 -2.296875 0.96875q-0.890625 0.96875 -0.890625 2.5625q0 1.5625 0.875 2.546875q0.875 0.96875 2.3125 0.96875zm8.383484 0.8125l0 -7.703125l-2.734375 0l0 -0.96875l6.578125 0l0 0.96875l-2.765625 0l0 7.703125l-1.078125 0z" fill-rule="nonzero"></path><path fill="#ffffff" d="m433.35486 86.14383l0 -8.671875l3.484375 0q1.234375 0 1.96875 0.75q0.75 0.734375 0.75 1.859375q0 1.15625 -0.765625 1.890625q-0.75 0.734375 -1.953125 0.734375l-2.40625 0l0 3.4375l-1.078125 0zm3.359375 -4.40625q0.765625 0 1.234375 -0.453125q0.484375 -0.453125 0.484375 -1.203125q0 -0.734375 -0.484375 -1.1875q-0.46875 -0.453125 -1.234375 -0.453125l-2.28125 0l0 3.296875l2.28125 0zm10.651703 4.40625l-0.765625 -1.921875l-4.3125 0l-0.765625 1.921875l-1.25 0l3.484375 -8.671875l1.34375 0l3.5 8.671875l-1.234375 0zm-2.921875 -7.546875l-1.84375 4.65625l3.671875 0l-1.828125 -4.65625zm10.519867 7.546875l-2.203125 -3.4375l-1.734375 0l0 3.4375l-1.078125 0l0 -8.671875l3.484375 0q1.21875 0 1.96875 0.734375q0.75 0.71875 0.75 1.875q0 1.09375 -0.640625 1.765625q-0.625 0.671875 -1.609375 0.765625l2.34375 3.53125l-1.28125 0zm-1.65625 -4.390625q0.765625 0 1.234375 -0.453125q0.484375 -0.46875 0.484375 -1.21875q0 -0.734375 -0.484375 -1.1875q-0.46875 -0.453125 -1.234375 -0.453125l-2.28125 0l0 3.3125l2.28125 0zm4.7440796 4.390625l0 -8.671875l5.671875 0l0 0.96875l-4.59375 0l0 2.796875l4.515625 0l0 0.953125l-4.515625 0l0 2.984375l4.59375 0l0 0.96875l-5.671875 0zm13.724304 0l-5.0625 -6.921875l0 6.921875l-1.078125 0l0 -8.671875l1.109375 0l4.984375 6.78125l0 -6.78125l1.078125 0l0 8.671875l-1.03125 0zm5.4362793 0l0 -7.703125l-2.734375 0l0 -0.96875l6.578125 0l0 0.96875l-2.765625 0l0 7.703125l-1.078125 0z" fill-rule="nonzero"></path><path fill="#3c78d8" d="m306.67715 163.20735l78.299225 0l0 72.88188l-78.299225 0z" fill-rule="evenodd"></path><path stroke="#434343" stroke-width="2.0" stroke-linejoin="round" stroke-linecap="butt" d="m306.67715 163.20735l78.299225 0l0 72.88188l-78.299225 0z" fill-rule="evenodd"></path><path fill="#ffffff" d="m331.79953 188.60454q-1.90625 0 -3.1875 -1.25q-1.28125 -1.265625 -1.28125 -3.234375q0 -1.96875 1.28125 -3.21875q1.28125 -1.265625 3.1875 -1.265625q2.0625 0 3.28125 1.71875l-0.90625 0.5q-0.375 -0.546875 -1.015625 -0.90625q-0.625 -0.359375 -1.359375 -0.359375q-1.453125 0 -2.40625 1.015625q-0.9375 1.0 -0.9375 2.515625q0 1.53125 0.9375 2.53125q0.953125 0.984375 2.40625 0.984375q0.734375 0 1.359375 -0.34375q0.640625 -0.359375 1.015625 -0.90625l0.921875 0.5q-1.265625 1.71875 -3.296875 1.71875zm11.041046 -0.15625l0 -3.984375l-5.0625 0l0 3.984375l-1.078125 0l0 -8.671875l1.078125 0l0 3.734375l5.0625 0l0 -3.734375l1.078125 0l0 8.671875l-1.078125 0zm3.3489685 0l0 -8.671875l1.078125 0l0 8.671875l-1.078125 0zm3.1853943 0l0 -8.671875l1.078125 0l0 7.703125l4.03125 0l0 0.96875l-5.109375 0zm6.797333 0l0 -8.671875l2.96875 0q1.96875 0 3.203125 1.234375q1.234375 1.21875 1.234375 3.109375q0 1.890625 -1.25 3.109375q-1.234375 1.21875 -3.1875 1.21875l-2.96875 0zm2.96875 -0.96875q1.46875 0 2.390625 -0.921875q0.9375 -0.9375 0.9375 -2.4375q0 -1.515625 -0.921875 -2.4375q-0.90625 -0.9375 -2.40625 -0.9375l-1.890625 0l0 6.734375l1.890625 0z" fill-rule="nonzero"></path><path fill="#ffffff" d="m323.57007 220.44829l0 -8.671875l3.484375 0q1.234375 0 1.96875 0.75q0.75 0.734375 0.75 1.859375q0 1.15625 -0.765625 1.890625q-0.75 0.734375 -1.953125 0.734375l-2.40625 0l0 3.4375l-1.078125 0zm3.359375 -4.40625q0.765625 0 1.234375 -0.453125q0.484375 -0.453125 0.484375 -1.203125q0 -0.734375 -0.484375 -1.1875q-0.46875 -0.453125 -1.234375 -0.453125l-2.28125 0l0 3.296875l2.28125 0zm10.651703 4.40625l-0.765625 -1.921875l-4.3125 0l-0.765625 1.921875l-1.25 0l3.484375 -8.671875l1.34375 0l3.5 8.671875l-1.234375 0zm-2.921875 -7.546875l-1.84375 4.65625l3.671875 0l-1.828125 -4.65625zm10.519867 7.546875l-2.203125 -3.4375l-1.734375 0l0 3.4375l-1.078125 0l0 -8.671875l3.484375 0q1.21875 0 1.96875 0.734375q0.75 0.71875 0.75 1.875q0 1.09375 -0.640625 1.765625q-0.625 0.671875 -1.609375 0.765625l2.34375 3.53125l-1.28125 0zm-1.65625 -4.390625q0.765625 0 1.234375 -0.453125q0.484375 -0.46875 0.484375 -1.21875q0 -0.734375 -0.484375 -1.1875q-0.46875 -0.453125 -1.234375 -0.453125l-2.28125 0l0 3.3125l2.28125 0zm4.74411 4.390625l0 -8.671875l5.671875 0l0 0.96875l-4.59375 0l0 2.796875l4.515625 0l0 0.953125l-4.515625 0l0 2.984375l4.59375 0l0 0.96875l-5.671875 0zm13.724304 0l-5.0625 -6.921875l0 6.921875l-1.078125 0l0 -8.671875l1.109375 0l4.984375 6.78125l0 -6.78125l1.078125 0l0 8.671875l-1.03125 0zm5.4362793 0l0 -7.703125l-2.734375 0l0 -0.96875l6.578125 0l0 0.96875l-2.765625 0l0 7.703125l-1.078125 0z" fill-rule="nonzero"></path><path fill="#3c78d8" d="m516.8819 163.23228l78.299194 0l0 72.88188l-78.299194 0z" fill-rule="evenodd"></path><path stroke="#434343" stroke-width="2.0" stroke-linejoin="round" stroke-linecap="butt" d="m516.8819 163.23228l78.299194 0l0 72.88188l-78.299194 0z" fill-rule="evenodd"></path><path fill="#ffffff" d="m541.3228 188.62947q-1.90625 0 -3.1875 -1.25q-1.28125 -1.265625 -1.28125 -3.234375q0 -1.96875 1.28125 -3.21875q1.28125 -1.265625 3.1875 -1.265625q2.0625 0 3.28125 1.71875l-0.90625 0.5q-0.375 -0.546875 -1.015625 -0.90625q-0.625 -0.359375 -1.359375 -0.359375q-1.453125 0 -2.40625 1.015625q-0.9375 1.0 -0.9375 2.515625q0 1.53125 0.9375 2.53125q0.953125 0.984375 2.40625 0.984375q0.734375 0 1.359375 -0.34375q0.640625 -0.359375 1.015625 -0.90625l0.921875 0.5q-1.265625 1.71875 -3.296875 1.71875zm11.041016 -0.15625l0 -3.984375l-5.0625 0l0 3.984375l-1.078125 0l0 -8.671875l1.078125 0l0 3.734375l5.0625 0l0 -3.734375l1.078125 0l0 8.671875l-1.078125 0zm3.348999 0l0 -8.671875l1.078125 0l0 8.671875l-1.078125 0zm3.1854248 0l0 -8.671875l1.078125 0l0 7.703125l4.03125 0l0 0.96875l-5.109375 0zm6.7973022 0l0 -8.671875l2.96875 0q1.96875 0 3.203125 1.234375q1.234375 1.21875 1.234375 3.109375q0 1.890625 -1.25 3.109375q-1.234375 1.21875 -3.1875 1.21875l-2.96875 0zm2.96875 -0.96875q1.46875 0 2.390625 -0.921875q0.9375 -0.9375 0.9375 -2.4375q0 -1.515625 -0.921875 -2.4375q-0.90625 -0.9375 -2.40625 -0.9375l-1.890625 0l0 6.734375l1.890625 0z" fill-rule="nonzero"></path><path fill="#ffffff" d="m533.7748 220.47322l0 -8.671875l3.484375 0q1.234375 0 1.96875 0.75q0.75 0.734375 0.75 1.859375q0 1.15625 -0.765625 1.890625q-0.75 0.734375 -1.953125 0.734375l-2.40625 0l0 3.4375l-1.078125 0zm3.359375 -4.40625q0.765625 0 1.234375 -0.453125q0.484375 -0.453125 0.484375 -1.203125q0 -0.734375 -0.484375 -1.1875q-0.46875 -0.453125 -1.234375 -0.453125l-2.28125 0l0 3.296875l2.28125 0zm10.651733 4.40625l-0.765625 -1.921875l-4.3125 0l-0.765625 1.921875l-1.25 0l3.484375 -8.671875l1.34375 0l3.5 8.671875l-1.234375 0zm-2.921875 -7.546875l-1.84375 4.65625l3.671875 0l-1.828125 -4.65625zm10.519836 7.546875l-2.203125 -3.4375l-1.734375 0l0 3.4375l-1.078125 0l0 -8.671875l3.484375 0q1.21875 0 1.96875 0.734375q0.75 0.71875 0.75 1.875q0 1.09375 -0.640625 1.765625q-0.625 0.671875 -1.609375 0.765625l2.34375 3.53125l-1.28125 0zm-1.65625 -4.390625q0.765625 0 1.234375 -0.453125q0.484375 -0.46875 0.484375 -1.21875q0 -0.734375 -0.484375 -1.1875q-0.46875 -0.453125 -1.234375 -0.453125l-2.28125 0l0 3.3125l2.28125 0zm4.7441406 4.390625l0 -8.671875l5.671875 0l0 0.96875l-4.59375 0l0 2.796875l4.515625 0l0 0.953125l-4.515625 0l0 2.984375l4.59375 0l0 0.96875l-5.671875 0zm13.724304 0l-5.0625 -6.921875l0 6.921875l-1.078125 0l0 -8.671875l1.109375 0l4.984375 6.78125l0 -6.78125l1.078125 0l0 8.671875l-1.03125 0zm5.4362793 0l0 -7.703125l-2.734375 0l0 -0.96875l6.578125 0l0 0.96875l-2.765625 0l0 7.703125l-1.078125 0z" fill-rule="nonzero"></path><path fill="#3c78d8" d="m250.93176 337.18372l78.299194 0l0 72.8819l-78.299194 0z" fill-rule="evenodd"></path><path stroke="#434343" stroke-width="2.0" stroke-linejoin="round" stroke-linecap="butt" d="m250.93176 337.18372l78.299194 0l0 72.8819l-78.299194 0z" fill-rule="evenodd"></path><path fill="#ffffff" d="m275.37268 378.58093q-1.90625 0 -3.1875 -1.25q-1.28125 -1.265625 -1.28125 -3.234375q0 -1.96875 1.28125 -3.21875q1.28125 -1.265625 3.1875 -1.265625q2.0625 0 3.28125 1.71875l-0.90625 0.5q-0.375 -0.546875 -1.015625 -0.90625q-0.625 -0.359375 -1.359375 -0.359375q-1.453125 0 -2.40625 1.015625q-0.9375 1.0 -0.9375 2.515625q0 1.53125 0.9375 2.53125q0.953125 0.984375 2.40625 0.984375q0.734375 0 1.359375 -0.34375q0.640625 -0.359375 1.015625 -0.90625l0.921875 0.5q-1.265625 1.71875 -3.296875 1.71875zm11.041046 -0.15625l0 -3.984375l-5.0625 0l0 3.984375l-1.078125 0l0 -8.671875l1.078125 0l0 3.734375l5.0625 0l0 -3.734375l1.078125 0l0 8.671875l-1.078125 0zm3.3489685 0l0 -8.671875l1.078125 0l0 8.671875l-1.078125 0zm3.1853943 0l0 -8.671875l1.078125 0l0 7.703125l4.03125 0l0 0.96875l-5.109375 0zm6.797333 0l0 -8.671875l2.96875 0q1.96875 0 3.203125 1.234375q1.234375 1.21875 1.234375 3.109375q0 1.890625 -1.25 3.109375q-1.234375 1.21875 -3.1875 1.21875l-2.96875 0zm2.96875 -0.96875q1.46875 0 2.390625 -0.921875q0.9375 -0.9375 0.9375 -2.4375q0 -1.515625 -0.921875 -2.4375q-0.90625 -0.9375 -2.40625 -0.9375l-1.890625 0l0 6.734375l1.890625 0z" fill-rule="nonzero"></path><path fill="#3c78d8" d="m354.4134 337.18372l78.299194 0l0 72.8819l-78.299194 0z" fill-rule="evenodd"></path><path stroke="#434343" stroke-width="2.0" stroke-linejoin="round" stroke-linecap="butt" d="m354.4134 337.18372l78.299194 0l0 72.8819l-78.299194 0z" fill-rule="evenodd"></path><path fill="#ffffff" d="m378.8543 378.58093q-1.90625 0 -3.1875 -1.25q-1.28125 -1.265625 -1.28125 -3.234375q0 -1.96875 1.28125 -3.21875q1.28125 -1.265625 3.1875 -1.265625q2.0625 0 3.28125 1.71875l-0.90625 0.5q-0.375 -0.546875 -1.015625 -0.90625q-0.625 -0.359375 -1.359375 -0.359375q-1.453125 0 -2.40625 1.015625q-0.9375 1.0 -0.9375 2.515625q0 1.53125 0.9375 2.53125q0.953125 0.984375 2.40625 0.984375q0.734375 0 1.359375 -0.34375q0.640625 -0.359375 1.015625 -0.90625l0.921875 0.5q-1.265625 1.71875 -3.296875 1.71875zm11.041046 -0.15625l0 -3.984375l-5.0625 0l0 3.984375l-1.078125 0l0 -8.671875l1.078125 0l0 3.734375l5.0625 0l0 -3.734375l1.078125 0l0 8.671875l-1.078125 0zm3.3489685 0l0 -8.671875l1.078125 0l0 8.671875l-1.078125 0zm3.1853943 0l0 -8.671875l1.078125 0l0 7.703125l4.03125 0l0 0.96875l-5.109375 0zm6.797333 0l0 -8.671875l2.96875 0q1.96875 0 3.203125 1.234375q1.234375 1.21875 1.234375 3.109375q0 1.890625 -1.25 3.109375q-1.234375 1.21875 -3.1875 1.21875l-2.96875 0zm2.96875 -0.96875q1.46875 0 2.390625 -0.921875q0.9375 -0.9375 0.9375 -2.4375q0 -1.515625 -0.921875 -2.4375q-0.90625 -0.9375 -2.40625 -0.9375l-1.890625 0l0 6.734375l1.890625 0z" fill-rule="nonzero"></path><path fill="#3c78d8" d="m469.98688 337.16797l78.299194 0l0 72.8819l-78.299194 0z" fill-rule="evenodd"></path><path stroke="#434343" stroke-width="2.0" stroke-linejoin="round" stroke-linecap="butt" d="m469.98688 337.16797l78.299194 0l0 72.8819l-78.299194 0z" fill-rule="evenodd"></path><path fill="#ffffff" d="m494.4278 378.5652q-1.90625 0 -3.1875 -1.25q-1.28125 -1.265625 -1.28125 -3.234375q0 -1.96875 1.28125 -3.21875q1.28125 -1.265625 3.1875 -1.265625q2.0625 0 3.28125 1.71875l-0.90625 0.5q-0.375 -0.546875 -1.015625 -0.90625q-0.625 -0.359375 -1.359375 -0.359375q-1.453125 0 -2.40625 1.015625q-0.9375 1.0 -0.9375 2.515625q0 1.53125 0.9375 2.53125q0.953125 0.984375 2.40625 0.984375q0.734375 0 1.359375 -0.34375q0.640625 -0.359375 1.015625 -0.90625l0.921875 0.5q-1.265625 1.71875 -3.296875 1.71875zm11.041046 -0.15625l0 -3.984375l-5.0625 0l0 3.984375l-1.078125 0l0 -8.671875l1.078125 0l0 3.734375l5.0625 0l0 -3.734375l1.078125 0l0 8.671875l-1.078125 0zm3.3489685 0l0 -8.671875l1.078125 0l0 8.671875l-1.078125 0zm3.1854248 0l0 -8.671875l1.078125 0l0 7.703125l4.03125 0l0 0.96875l-5.109375 0zm6.7973022 0l0 -8.671875l2.96875 0q1.96875 0 3.203125 1.234375q1.234375 1.21875 1.234375 3.109375q0 1.890625 -1.25 3.109375q-1.234375 1.21875 -3.1875 1.21875l-2.96875 0zm2.96875 -0.96875q1.46875 0 2.390625 -0.921875q0.9375 -0.9375 0.9375 -2.4375q0 -1.515625 -0.921875 -2.4375q-0.90625 -0.9375 -2.40625 -0.9375l-1.890625 0l0 6.734375l1.890625 0z" fill-rule="nonzero"></path><path fill="#3c78d8" d="m576.5381 337.18372l78.299194 0l0 72.8819l-78.299194 0z" fill-rule="evenodd"></path><path stroke="#434343" stroke-width="2.0" stroke-linejoin="round" stroke-linecap="butt" d="m576.5381 337.18372l78.299194 0l0 72.8819l-78.299194 0z" fill-rule="evenodd"></path><path fill="#ffffff" d="m600.979 378.58093q-1.90625 0 -3.1875 -1.25q-1.28125 -1.265625 -1.28125 -3.234375q0 -1.96875 1.28125 -3.21875q1.28125 -1.265625 3.1875 -1.265625q2.0625 0 3.28125 1.71875l-0.90625 0.5q-0.375 -0.546875 -1.015625 -0.90625q-0.625 -0.359375 -1.359375 -0.359375q-1.453125 0 -2.40625 1.015625q-0.9375 1.0 -0.9375 2.515625q0 1.53125 0.9375 2.53125q0.953125 0.984375 2.40625 0.984375q0.734375 0 1.359375 -0.34375q0.640625 -0.359375 1.015625 -0.90625l0.921875 0.5q-1.265625 1.71875 -3.296875 1.71875zm11.041016 -0.15625l0 -3.984375l-5.0625 0l0 3.984375l-1.078125 0l0 -8.671875l1.078125 0l0 3.734375l5.0625 0l0 -3.734375l1.078125 0l0 8.671875l-1.078125 0zm3.348999 0l0 -8.671875l1.078125 0l0 8.671875l-1.078125 0zm3.1853638 0l0 -8.671875l1.078125 0l0 7.703125l4.03125 0l0 0.96875l-5.109375 0zm6.7973633 0l0 -8.671875l2.96875 0q1.96875 0 3.203125 1.234375q1.234375 1.21875 1.234375 3.109375q0 1.890625 -1.25 3.109375q-1.234375 1.21875 -3.1875 1.21875l-2.96875 0zm2.96875 -0.96875q1.46875 0 2.390625 -0.921875q0.9375 -0.9375 0.9375 -2.4375q0 -1.515625 -0.921875 -2.4375q-0.90625 -0.9375 -2.40625 -0.9375l-1.890625 0l0 6.734375l1.890625 0z" fill-rule="nonzero"></path><path fill="#000000" fill-opacity="0.0" d="m306.67715 201.44882l78.299225 0" fill-rule="evenodd"></path><path stroke="#ffffff" stroke-width="2.0" stroke-linejoin="round" stroke-linecap="butt" d="m306.67715 201.44882l78.299225 0" fill-rule="evenodd"></path><path fill="#000000" fill-opacity="0.0" d="m516.8819 199.44882l78.299194 0" fill-rule="evenodd"></path><path stroke="#ffffff" stroke-width="2.0" stroke-linejoin="round" stroke-linecap="butt" d="m516.8819 199.44882l78.299194 0" fill-rule="evenodd"></path><path fill="#000000" fill-opacity="0.0" d="m416.46194 65.34908l78.299225 0" fill-rule="evenodd"></path><path stroke="#ffffff" stroke-width="2.0" stroke-linejoin="round" stroke-linecap="butt" d="m416.46194 65.34908l78.299225 0" fill-rule="evenodd"></path><path fill="#000000" fill-opacity="0.0" d="m283.39108 167.55939l0 0c0 -9.3063965 7.5443115 -16.850723 16.850739 -16.850723l289.5111 0c4.469116 0 8.755127 1.7753448 11.915283 4.9354553c3.1600952 3.1601257 4.935486 7.4461823 4.935486 11.915268l0 67.40091c0 9.3063965 -7.5443726 16.850723 -16.850769 16.850723l-289.5111 0c-9.306427 0 -16.850739 -7.544327 -16.850739 -16.850723z" fill-rule="evenodd"></path><path stroke="#00ff00" stroke-width="2.0" stroke-linejoin="round" stroke-linecap="butt" stroke-dasharray="8.0,6.0,2.0,6.0" d="m283.39108 167.55939l0 0c0 -9.3063965 7.5443115 -16.850723 16.850739 -16.850723l289.5111 0c4.469116 0 8.755127 1.7753448 11.915283 4.9354553c3.1600952 3.1601257 4.935486 7.4461823 4.935486 11.915268l0 67.40091c0 9.3063965 -7.5443726 16.850723 -16.850769 16.850723l-289.5111 0c-9.306427 0 -16.850739 -7.544327 -16.850739 -16.850723z" fill-rule="evenodd"></path><path fill="#000000" fill-opacity="0.0" d="m197.91078 178.19418l85.4803 0l0 42.960632l-85.4803 0z" fill-rule="evenodd"></path><path fill="#000000" d="m211.2389 205.34856q-2.328125 0 -3.703125 -1.453125l0.75 -1.015625q0.453125 0.53125 1.25 0.921875q0.8125 0.375 1.765625 0.375q1.0625 0 1.609375 -0.4375q0.5625 -0.453125 0.5625 -1.140625q0 -0.59375 -0.609375 -0.9375q-0.59375 -0.359375 -2.234375 -0.75q-1.375 -0.28125 -2.109375 -0.890625q-0.734375 -0.625 -0.734375 -1.671875q0 -1.15625 0.921875 -1.890625q0.9375 -0.75 2.5 -0.75q2.0625 0 3.390625 1.328125l-0.65625 0.984375q-0.421875 -0.484375 -1.140625 -0.8125q-0.703125 -0.34375 -1.59375 -0.34375q-0.953125 0 -1.5 0.421875q-0.53125 0.421875 -0.53125 1.03125q0 0.546875 0.609375 0.875q0.609375 0.3125 2.234375 0.65625q1.390625 0.328125 2.109375 0.984375q0.71875 0.65625 0.71875 1.734375q0 1.28125 -0.984375 2.03125q-0.984375 0.75 -2.625 0.75zm6.4720306 -10.71875q-0.375 0 -0.671875 -0.265625q-0.28125 -0.28125 -0.28125 -0.6875q0 -0.40625 0.28125 -0.6875q0.296875 -0.28125 0.671875 -0.28125q0.40625 0 0.6875 0.28125q0.28125 0.28125 0.28125 0.6875q0 0.40625 -0.28125 0.6875q-0.28125 0.265625 -0.6875 0.265625zm-0.703125 10.484375l0 -9.171875l1.421875 0l0 9.171875l-1.421875 0zm5.6195374 -2.484375q0.390625 0.609375 1.140625 1.03125q0.75 0.40625 1.609375 0.40625q1.34375 0 2.140625 -0.96875q0.8125 -0.984375 0.8125 -2.5625q0 -1.59375 -0.796875 -2.5625q-0.796875 -0.984375 -2.15625 -0.984375q-0.859375 0 -1.609375 0.4375q-0.75 0.421875 -1.140625 1.03125l0 4.171875zm-1.421875 2.484375l0 -12.671875l1.421875 0l0 4.875q1.1875 -1.609375 3.109375 -1.609375q1.8125 0 2.9375 1.328125q1.140625 1.328125 1.140625 3.5q0 2.203125 -1.140625 3.515625q-1.125 1.296875 -2.9375 1.296875q-0.96875 0 -1.78125 -0.453125q-0.8125 -0.453125 -1.328125 -1.15625l0 1.375l-1.421875 0zm10.727341 0l0 -12.671875l1.421875 0l0 12.671875l-1.421875 0zm4.9007874 -10.484375q-0.375 0 -0.671875 -0.265625q-0.28125 -0.28125 -0.28125 -0.6875q0 -0.40625 0.28125 -0.6875q0.296875 -0.28125 0.671875 -0.28125q0.40625 0 0.6875 0.28125q0.28125 0.28125 0.28125 0.6875q0 0.40625 -0.28125 0.6875q-0.28125 0.265625 -0.6875 0.265625zm-0.703125 10.484375l0 -9.171875l1.421875 0l0 9.171875l-1.421875 0zm10.400787 0l0 -6.0q0 -1.21875 -0.5625 -1.671875q-0.5625 -0.453125 -1.5 -0.453125q-0.796875 0 -1.5625 0.421875q-0.765625 0.421875 -1.15625 1.0l0 6.703125l-1.421875 0l0 -9.171875l1.421875 0l0 1.328125q0.59375 -0.6875 1.453125 -1.125q0.875 -0.4375 1.828125 -0.4375q2.921875 0 2.921875 2.96875l0 6.4375l-1.421875 0zm7.763977 3.71875q-1.171875 0 -2.03125 -0.28125q-0.859375 -0.28125 -1.671875 -1.078125l0.71875 -1.0625q0.578125 0.671875 1.28125 0.953125q0.71875 0.296875 1.703125 0.296875q1.40625 0 2.1718597 -0.734375q0.78125 -0.734375 0.78125 -2.015625l0 -1.3125q-0.5 0.703125 -1.3124847 1.171875q-0.796875 0.453125 -1.765625 0.453125q-1.875 0 -2.984375 -1.3125q-1.109375 -1.3125 -1.109375 -3.4375q0 -2.203125 1.125 -3.484375q1.140625 -1.28125 2.96875 -1.28125q1.8906097 0 3.0781097 1.609375l0 -1.375l1.421875 0l0 8.90625q0 1.9375 -1.140625 2.953125q-1.140625 1.03125 -3.2343597 1.03125zm0.203125 -4.859375q0.78125 0 1.5468597 -0.40625q0.78125 -0.421875 1.203125 -1.09375l0 -4.015625q-0.421875 -0.65625 -1.203125 -1.0625q-0.78123474 -0.40625 -1.5468597 -0.40625q-1.34375 0 -2.140625 0.96875q-0.796875 0.96875 -0.796875 2.515625q0 1.578125 0.8125 2.546875q0.828125 0.953125 2.125 0.953125zm9.724319 1.375q-2.328125 0 -3.703125 -1.453125l0.75 -1.015625q0.453125 0.53125 1.25 0.921875q0.8125 0.375 1.765625 0.375q1.0625 0 1.609375 -0.4375q0.5625 -0.453125 0.5625 -1.140625q0 -0.59375 -0.609375 -0.9375q-0.59375 -0.359375 -2.234375 -0.75q-1.375 -0.28125 -2.109375 -0.890625q-0.734375 -0.625 -0.734375 -1.671875q0 -1.15625 0.921875 -1.890625q0.9375 -0.75 2.5 -0.75q2.0625 0 3.390625 1.328125l-0.65625 0.984375q-0.421875 -0.484375 -1.140625 -0.8125q-0.703125 -0.34375 -1.59375 -0.34375q-0.953125 0 -1.5 0.421875q-0.53125 0.421875 -0.53125 1.03125q0 0.546875 0.609375 0.875q0.609375 0.3125 2.234375 0.65625q1.390625 0.328125 2.109375 0.984375q0.71875 0.65625 0.71875 1.734375q0 1.28125 -0.984375 2.03125q-0.984375 0.75 -2.625 0.75z" fill-rule="nonzero"></path><path fill="#000000" fill-opacity="0.0" d="m290.08136 410.0656l-66.89763 41.7323" fill-rule="evenodd"></path><path stroke="#0000ff" stroke-width="2.0" stroke-linejoin="round" stroke-linecap="butt" stroke-dasharray="2.0,6.0" d="m290.08136 410.0656l-66.89763 41.7323" fill-rule="evenodd"></path><path fill="#000000" fill-opacity="0.0" d="m173.80316 435.63776l85.480316 0l0 42.960632l-85.480316 0z" fill-rule="evenodd"></path><path fill="#000000" d="m184.22504 462.55774l0 -12.671875l1.421875 0l0 12.671875l-1.421875 0zm8.338287 0.234375q-2.0625 0 -3.375 -1.34375q-1.296875 -1.359375 -1.296875 -3.484375q0 -2.03125 1.296875 -3.421875q1.296875 -1.390625 3.234375 -1.390625q1.96875 0 3.1875 1.375q1.21875 1.359375 1.21875 3.546875l0 0.359375l-7.4375 0q0.078125 1.40625 1.015625 2.296875q0.9375 0.875 2.296875 0.875q1.671875 0 2.828125 -1.15625l0.6875 0.9375q-1.40625 1.40625 -3.65625 1.40625zm2.859375 -5.40625q0 -1.265625 -0.84375 -2.15625q-0.828125 -0.90625 -2.1875 -0.90625q-1.265625 0 -2.109375 0.90625q-0.84375 0.890625 -0.890625 2.15625l6.03125 0zm9.237839 5.171875l0 -1.046875q-1.15625 1.28125 -3.03125 1.28125q-1.390625 0 -2.3125 -0.875q-0.90625 -0.875 -0.90625 -2.171875q0 -1.328125 0.90625 -2.171875q0.90625 -0.84375 2.3125 -0.84375q1.96875 0 3.03125 1.25l0 -1.65625q0 -0.921875 -0.65625 -1.421875q-0.640625 -0.515625 -1.65625 -0.515625q-1.609375 0 -2.8125 1.28125l-0.65625 -1.0q1.453125 -1.515625 3.65625 -1.515625q1.6875 0 2.625 0.828125q0.9375 0.8125 0.9375 2.265625l0 6.3125l-1.4375 0zm-2.515625 -0.796875q1.6875 0 2.515625 -1.140625l0 -1.734375q-0.828125 -1.140625 -2.515625 -1.140625q-1.015625 0 -1.640625 0.5625q-0.625 0.5625 -0.625 1.453125q0 0.875 0.625 1.4375q0.625 0.5625 1.640625 0.5625zm7.019348 0.796875l0 -7.921875l-1.53125 0l0 -1.25l1.53125 0l0 -0.703125q0 -1.4375 0.703125 -2.203125q0.71875 -0.78125 1.953125 -0.78125q1.15625 0 1.9375 0.703125l-0.59375 0.921875q-0.484375 -0.453125 -1.140625 -0.453125q-1.4375 0 -1.4375 1.8125l0 0.703125l1.859375 0l0 1.25l-1.859375 0l0 7.921875l-1.421875 0z" fill-rule="nonzero"></path></g></svg>

