<?xml version="1.0" standalone="yes"?>

<svg version="1.1" viewBox="0.0 0.0 960.0 540.0" fill="none" stroke="none" stroke-linecap="square" stroke-miterlimit="10" xmlns="http://www.w3.org/2000/svg" xmlns:xlink="http://www.w3.org/1999/xlink"><clipPath id="g287e6b1221_0_0.0"><path d="m0 0l960.0 0l0 540.0l-960.0 0l0 -540.0z" clip-rule="nonzero"></path></clipPath><g clip-path="url(#g287e6b1221_0_0.0)"><path fill="#ffffff" d="m0 0l960.0 0l0 540.0l-960.0 0z" fill-rule="evenodd"></path><path fill="#000000" fill-opacity="0.0" d="m294.2594 170.26378l-98.83464 52.031494" fill-rule="evenodd"></path><path stroke="#595959" stroke-width="1.0" stroke-linejoin="round" stroke-linecap="butt" d="m294.2594 170.26378l-98.83464 52.031494" fill-rule="evenodd"></path><path fill="#000000" fill-opacity="0.0" d="m294.2594 170.26378l94.48819 52.031494" fill-rule="evenodd"></path><path stroke="#595959" stroke-width="1.0" stroke-linejoin="round" stroke-linecap="butt" d="m294.2594 170.26378l94.48819 52.031494" fill-rule="evenodd"></path><path fill="#000000" fill-opacity="0.0" d="m195.43477 284.0734l-84.661415 85.66931" fill-rule="evenodd"></path><path stroke="#7f6000" stroke-width="3.0" stroke-linejoin="round" stroke-linecap="butt" d="m195.43477 284.0734l-84.661415 85.66931" fill-rule="evenodd"></path><path fill="#000000" fill-opacity="0.0" d="m195.43477 284.0734l49.417328 85.66931" fill-rule="evenodd"></path><path stroke="#00ff00" stroke-width="3.0" stroke-linejoin="round" stroke-linecap="butt" d="m195.43477 284.0734l49.417328 85.66931" fill-rule="evenodd"></path><path fill="#3c78d8" d="m259.0153 108.5l70.48819 0l0 61.76378l-70.48819 0z" fill-rule="evenodd"></path><path stroke="#434343" stroke-width="2.0" stroke-linejoin="round" stroke-linecap="butt" d="m259.0153 108.5l70.48819 0l0 61.76378l-70.48819 0z" fill-rule="evenodd"></path><path fill="#ffffff" d="m289.81693 150.82814q0.390625 0.1875 0.984375 0.1875q0.609375 0 1.015625 -0.25q0.40625 -0.25 0.71875 -0.96875l0.765625 -1.75l-4.84375 -11.71875l1.9375 0l3.859375 9.5l3.84375 -9.5l1.96875 0l-5.8125 13.953125q-0.953125 2.296875 -3.40625 2.34375q-0.6875 0 -1.3125 -0.171875l0.28125 -1.625z" fill-rule="nonzero"></path><path fill="#3c78d8" d="m160.19067 222.30963l70.48819 0l0 61.763763l-70.48819 0z" fill-rule="evenodd"></path><path stroke="#434343" stroke-width="2.0" stroke-linejoin="round" stroke-linecap="butt" d="m160.19067 222.30963l70.48819 0l0 61.763763l-70.48819 0z" fill-rule="evenodd"></path><path fill="#ffffff" d="m198.91528 261.7315l-3.484375 -4.75l-3.46875 4.75l-2.078125 0l4.453125 -5.9531097l-4.203125 -5.640625l2.078125 0l3.21875 4.421875l3.21875 -4.421875l2.09375 0l-4.203125 5.640625l4.46875 5.9531097l-2.09375 0z" fill-rule="nonzero"></path><path fill="#3c78d8" d="m339.33072 307.96588l49.417297 -85.6693l49.417328 85.6693z" fill-rule="evenodd"></path><path stroke="#000000" stroke-width="2.0" stroke-linejoin="round" stroke-linecap="butt" d="m339.33072 307.96588l49.417297 -85.6693l49.417328 85.6693z" fill-rule="evenodd"></path><path fill="#ffffff" d="m390.08917 284.3698q-3.53125 0 -5.890625 -2.328125q-2.34375 -2.328125 -2.34375 -5.9375q0 -3.625 2.34375 -5.953125q2.359375 -2.328125 5.890625 -2.328125q3.8125 0 6.078125 3.15625l-1.6875 0.9375q-0.6875 -1.0 -1.859375 -1.65625q-1.15625 -0.671875 -2.53125 -0.671875q-2.65625 0 -4.421875 1.859375q-1.75 1.84375 -1.75 4.65625q0 2.828125 1.734375 4.671875q1.75 1.828125 4.4375 1.828125q1.375 0 2.53125 -0.640625q1.171875 -0.65625 1.859375 -1.6875l1.703125 0.9375q-2.328125 3.15625 -6.09375 3.15625z" fill-rule="nonzero"></path><path fill="#3c78d8" d="m195.4252 455.41208l49.417313 -85.66931l49.417343 85.66931z" fill-rule="evenodd"></path><path stroke="#000000" stroke-width="2.0" stroke-linejoin="round" stroke-linecap="butt" d="m195.4252 455.41208l49.417313 -85.66931l49.417343 85.66931z" fill-rule="evenodd"></path><path fill="#ffffff" d="m239.16954 431.53476l0 -16.015625l7.125 0q2.046875 0 3.265625 1.125q1.21875 1.109375 1.21875 2.96875q0 1.40625 -0.78125 2.390625q-0.78125 0.984375 -2.015625 1.28125q1.265625 0.1875 2.1875 1.34375q0.921875 1.140625 0.921875 2.59375q0 1.953125 -1.234375 3.140625q-1.234375 1.171875 -3.390625 1.171875l-7.296875 0zm6.78125 -9.078125q1.375 0 2.0625 -0.71875q0.703125 -0.734375 0.703125 -1.84375q0 -1.078125 -0.703125 -1.828125q-0.6875 -0.765625 -2.0625 -0.765625l-4.796875 0l0 5.15625l4.796875 0zm0.109375 7.296875q1.40625 0 2.1875 -0.71875q0.78125 -0.734375 0.78125 -2.03125q0 -1.234375 -0.8125 -2.0q-0.8125 -0.765625 -2.15625 -0.765625l-4.90625 0l0 5.515625l4.90625 0z" fill-rule="nonzero"></path><path fill="#3c78d8" d="m61.356956 455.41208l49.41732 -85.66931l49.417328 85.66931z" fill-rule="evenodd"></path><path stroke="#000000" stroke-width="2.0" stroke-linejoin="round" stroke-linecap="butt" d="m61.356956 455.41208l49.41732 -85.66931l49.417328 85.66931z" fill-rule="evenodd"></path><path fill="#ffffff" d="m116.17518 431.53476l-1.421875 -3.546875l-7.96875 0l-1.40625 3.546875l-2.28125 0l6.421875 -16.015625l2.484375 0l6.453125 16.015625l-2.28125 0zm-5.40625 -13.9375l-3.40625 8.609375l6.796875 0l-3.390625 -8.609375z" fill-rule="nonzero"></path><path fill="#000000" fill-opacity="0.0" d="m799.262 222.3084l-92.8504 -52.031494" fill-rule="evenodd"></path><path stroke="#595959" stroke-width="1.0" stroke-linejoin="round" stroke-linecap="butt" d="m799.262 222.3084l-92.8504 -52.031494" fill-rule="evenodd"></path><path fill="#000000" fill-opacity="0.0" d="m799.262 284.07217l74.834656 85.66928" fill-rule="evenodd"></path><path stroke="#595959" stroke-width="1.0" stroke-linejoin="round" stroke-linecap="butt" d="m799.262 284.07217l74.834656 85.66928" fill-rule="evenodd"></path><path fill="#000000" fill-opacity="0.0" d="m706.41113 170.26501l-124.346436 52.031494" fill-rule="evenodd"></path><path stroke="#7f6000" stroke-width="3.0" stroke-linejoin="round" stroke-linecap="butt" d="m706.41113 170.26501l-124.346436 52.031494" fill-rule="evenodd"></path><path fill="#000000" fill-opacity="0.0" d="m799.262 284.07217l-53.51184 85.66928" fill-rule="evenodd"></path><path stroke="#00ff00" stroke-width="3.0" stroke-linejoin="round" stroke-linecap="butt" d="m799.262 284.07217l-53.51184 85.66928" fill-rule="evenodd"></path><path fill="#3c78d8" d="m764.01794 222.3084l70.48816 0l0 61.76378l-70.48816 0z" fill-rule="evenodd"></path><path stroke="#434343" stroke-width="2.0" stroke-linejoin="round" stroke-linecap="butt" d="m764.01794 222.3084l70.48816 0l0 61.76378l-70.48816 0z" fill-rule="evenodd"></path><path fill="#ffffff" d="m794.8195 264.63654q0.390625 0.1875 0.984375 0.1875q0.609375 0 1.015625 -0.25q0.40625 -0.25 0.71875 -0.96875l0.765625 -1.75l-4.84375 -11.71875l1.9375 0l3.859375 9.5l3.84375 -9.5l1.96875 0l-5.8125 13.953125q-0.953125 2.296875 -3.40625 2.34375q-0.6875 0 -1.3125 -0.171875l0.28125 -1.625z" fill-rule="nonzero"></path><path fill="#3c78d8" d="m671.16705 108.50123l70.48816 0l0 61.763786l-70.48816 0z" fill-rule="evenodd"></path><path stroke="#434343" stroke-width="2.0" stroke-linejoin="round" stroke-linecap="butt" d="m671.16705 108.50123l70.48816 0l0 61.763786l-70.48816 0z" fill-rule="evenodd"></path><path fill="#ffffff" d="m709.89166 147.92313l-3.484375 -4.75l-3.46875 4.75l-2.078125 0l4.453125 -5.953125l-4.203125 -5.640625l2.078125 0l3.21875 4.421875l3.21875 -4.421875l2.09375 0l-4.203125 5.640625l4.46875 5.953125l-2.09375 0z" fill-rule="nonzero"></path><path fill="#3c78d8" d="m824.6772 455.41208l49.417297 -85.66931l49.41736 85.66931z" fill-rule="evenodd"></path><path stroke="#000000" stroke-width="2.0" stroke-linejoin="round" stroke-linecap="butt" d="m824.6772 455.41208l49.417297 -85.66931l49.41736 85.66931z" fill-rule="evenodd"></path><path fill="#ffffff" d="m875.4356 431.816q-3.53125 0 -5.890625 -2.328125q-2.34375 -2.328125 -2.34375 -5.9375q0 -3.625 2.34375 -5.953125q2.359375 -2.328125 5.890625 -2.328125q3.8125 0 6.078125 3.15625l-1.6875 0.9375q-0.6875 -1.0 -1.859375 -1.65625q-1.15625 -0.671875 -2.53125 -0.671875q-2.65625 0 -4.421875 1.859375q-1.75 1.84375 -1.75 4.65625q0 2.828125 1.734375 4.671875q1.75 1.828125 4.4375 1.828125q1.375 0 2.53125 -0.640625q1.171875 -0.65625 1.859375 -1.6875l1.703125 0.9375q-2.328125 3.15625 -6.09375 3.15625z" fill-rule="nonzero"></path><path fill="#3c78d8" d="m696.3333 455.41208l49.41736 -85.66931l49.417297 85.66931z" fill-rule="evenodd"></path><path stroke="#000000" stroke-width="2.0" stroke-linejoin="round" stroke-linecap="butt" d="m696.3333 455.41208l49.41736 -85.66931l49.417297 85.66931z" fill-rule="evenodd"></path><path fill="#ffffff" d="m740.0777 431.53476l0 -16.015625l7.125 0q2.046875 0 3.265625 1.125q1.21875 1.109375 1.21875 2.96875q0 1.40625 -0.78125 2.390625q-0.78125 0.984375 -2.015625 1.28125q1.265625 0.1875 2.1875 1.34375q0.921875 1.140625 0.921875 2.59375q0 1.953125 -1.234375 3.140625q-1.234375 1.171875 -3.390625 1.171875l-7.296875 0zm6.78125 -9.078125q1.375 0 2.0625 -0.71875q0.703125 -0.734375 0.703125 -1.84375q0 -1.078125 -0.703125 -1.828125q-0.6875 -0.765625 -2.0625 -0.765625l-4.796875 0l0 5.15625l4.796875 0zm0.109375 7.296875q1.40625 0 2.1875 -0.71875q0.78125 -0.734375 0.78125 -2.03125q0 -1.234375 -0.8125 -2.0q-0.8125 -0.765625 -2.15625 -0.765625l-4.90625 0l0 5.515625l4.90625 0z" fill-rule="nonzero"></path><path fill="#3c78d8" d="m532.64307 307.96588l49.417297 -85.6693l49.417297 85.6693z" fill-rule="evenodd"></path><path stroke="#000000" stroke-width="2.0" stroke-linejoin="round" stroke-linecap="butt" d="m532.64307 307.96588l49.417297 -85.6693l49.417297 85.6693z" fill-rule="evenodd"></path><path fill="#ffffff" d="m587.46124 284.08856l-1.421875 -3.546875l-7.96875 0l-1.40625 3.546875l-2.28125 0l6.421875 -16.015625l2.484375 0l6.453125 16.015625l-2.28125 0zm-5.40625 -13.9375l-3.40625 8.609375l6.796875 0l-3.390625 -8.609375z" fill-rule="nonzero"></path><path fill="#000000" d="m191.71533 200.97192l0 0l0 0c-8.584335 -24.870209 4.622162 -51.978363 29.497528 -60.547745l7.0037537 -2.4127502l-2.2204742 -6.433075l17.309753 8.432938l-8.427872 17.299347l-2.2204742 -6.433075l-7.0037537 2.4127502l0 0c-17.768112 6.120987 -27.20131 25.483948 -21.069656 43.248383l0 0z" fill-rule="evenodd"></path><path stroke="#000000" stroke-width="1.0" stroke-linejoin="round" stroke-linecap="butt" d="m191.71533 200.97192l0 0l0 0c-8.584335 -24.870209 4.622162 -51.978363 29.497528 -60.547745l7.0037537 -2.4127502l-2.2204742 -6.433075l17.309753 8.432938l-8.427872 17.299347l-2.2204742 -6.433075l-7.0037537 2.4127502l0 0c-17.768112 6.120987 -27.20131 25.483948 -21.069656 43.248383l0 0z" fill-rule="evenodd"></path><path fill="#000000" fill-opacity="0.0" d="m85.17362 167.66368l105.007866 -131.05511l78.61417 62.992126l-105.00786 131.05511z" fill-rule="evenodd"></path><path fill="#000000" d="m156.06747 170.80475l-5.9389496 -0.63417053l-1.5827637 1.9753723l3.9262848 3.1460571l-0.98677063 1.2315674l-9.8888855 -7.9237976l3.1850586 -3.975113q1.1138 -1.3900757 2.6268616 -1.5792542q1.5130615 -0.18916321 2.829956 0.8660431q1.2437286 0.9965668 1.4354858 2.3315277q0.19174194 1.3349609 -0.6095581 2.5349426l6.165924 0.5757904l-1.1626434 1.4510345zm-6.525879 -2.1256104q0.71321106 -0.8901367 0.6187897 -1.8467865q-0.094436646 -0.9566498 -0.9479828 -1.6405792q-0.8413391 -0.67414856 -1.7833557 -0.5479889q-0.9542084 0.11639404 -1.6674194 1.0065308l-2.0810547 2.5972443l3.7799683 3.0288239l2.0810547 -2.5972443zm11.691086 -3.9459991q-1.2505798 1.5607758 -3.112564 1.7106323q-1.8522186 0.1376648 -3.4983215 -1.1813354q-1.6583099 -1.3287811 -1.9155731 -3.1567078q-0.2474823 -1.8401337 1.0030975 -3.4009247q1.2408142 -1.548584 3.0808258 -1.6960144q1.8497925 -0.15963745 3.5081024 1.1691437q1.6461182 1.3190002 1.9057922 3.1688995q0.2694397 1.8377075 -0.97135925 3.3863068zm-0.9998627 -0.801178q0.8304596 -1.0364532 0.57766724 -2.320221q-0.24302673 -1.2959442 -1.45018 -2.263214q-1.2071381 -0.9672699 -2.5126953 -0.91215515q-1.3079681 0.03314209 -2.1384277 1.0696106q-0.8304596 1.0364532 -0.6094055 2.3348389q0.23083496 1.2861786 1.45018 2.263214q1.2315369 0.9868164 2.5273132 0.94389343q1.305542 -0.055114746 2.155548 -1.1159668zm6.617386 -6.209778q-1.279892 1.5973663 -2.9625854 0.24905396l-4.6822815 -3.751831l-0.94770813 1.182785l-0.9754791 -0.78163147l0.94770813 -1.182785l-1.96315 -1.5730286l0.8988495 -1.1218109l1.96315 1.5730286l1.1626434 -1.4510345l0.9754791 0.7816162l-1.1626434 1.4510498l4.4506073 3.5661926q0.40237427 0.3224182 0.79522705 0.35688782q0.4026184 0.022277832 0.6957245 -0.34353638q0.3712616 -0.4633484 0.3130951 -0.9904938l1.0929565 0.3351593q0.09208679 0.8346405 -0.601593 1.7003784zm5.376663 -7.0851746l-0.8169708 -0.6546173q0.276886 1.7035065 -0.89553833 3.166748q-0.86953735 1.0852203 -2.1288147 1.2575073q-1.2494965 0.16009521 -2.2615662 -0.6508484q-1.036438 -0.8304901 -1.1282196 -2.0653229q-0.09176636 -1.2348328 0.7875366 -2.3322601q1.2310486 -1.5363922 2.8708954 -1.5839233l-1.292511 -1.0356598q-0.7194061 -0.5764618 -1.5199432 -0.37698364q-0.80296326 0.17752075 -1.4380188 0.97010803q-1.0063324 1.2559509 -0.7587738 2.9960327l-1.1907196 -0.11317444q-0.2741394 -2.0817413 1.1034393 -3.8010406q1.055191 -1.3169098 2.2876434 -1.5307007q1.2202759 -0.22355652 2.3542633 0.6850891l4.9261475 3.947235l-0.8988495 1.1218109zm-2.19487 1.4648895q1.055191 -1.3169098 0.6828766 -2.676422l-1.3534698 -1.0845032q-1.4079437 -0.066986084 -2.4631195 1.249939q-0.63505554 0.7925873 -0.5868988 1.6320648q0.04815674 0.83947754 0.7431793 1.3963928q0.68284607 0.5471344 1.5126038 0.41111755q0.82977295 -0.13600159 1.4648285 -0.92858887zm6.39563 -6.3328247q-1.279892 1.5973663 -2.9625854 0.24905396l-4.6822815 -3.751831l-0.94770813 1.182785l-0.9754791 -0.78163147l0.94770813 -1.182785l-1.96315 -1.5730286l0.89886475 -1.1218109l1.9631348 1.5730286l1.1626587 -1.4510498l0.97546387 0.78163147l-1.1626434 1.4510498l4.4506073 3.5661926q0.40238953 0.3224182 0.79522705 0.35688782q0.4026184 0.022277832 0.6957245 -0.34353638q0.3712616 -0.46336365 0.31311035 -0.9904938l1.0929413 0.3351593q0.09208679 0.83462524 -0.601593 1.7003784zm4.5630035 -5.69487q-1.2896576 1.6095581 -3.1589813 1.7935791q-1.8717499 0.16204834 -3.5300598 -1.1667328q-1.585144 -1.2701416 -1.859436 -3.1517792q-0.27430725 -1.8816376 0.9371948 -3.3936462q1.2310486 -1.5364075 3.0661316 -1.6277161q1.8229065 -0.10107422 3.5299835 1.2667694l0.28045654 0.22473145l-4.650589 5.8041687q1.1462555 0.8183594 2.4274902 0.6436615q1.269043 -0.18447876 2.119049 -1.2453308q1.0454102 -1.304718 0.8660736 -2.9300537l1.161499 0.049697876q0.21809387 1.9767761 -1.1888123 3.7326508zm-2.4309845 -5.6119843q-0.9876709 -0.79141235 -2.2102814 -0.6898651q-1.2250366 0.079589844 -2.0750427 1.1404266q-0.79138184 0.98768616 -0.6117554 2.2128296q0.16743469 1.2153625 1.1257935 2.0433502l3.771286 -4.7067413zm9.23642 -3.2563477l-7.157547 -5.735222l0.88908386 -1.1096268l1.158371 0.92819214q-0.50354004 -2.045311 0.61024475 -3.4353867l1.1340027 0.90864563l-0.4005127 0.39988708q-0.41033936 0.51213074 -0.53305054 1.4149246q-0.1129303 0.8906021 0.11601257 1.4544754l5.0724792 4.064476l-0.88908386 1.1096344zm-3.8925018 -11.909195q-0.23449707 0.29264832 -0.6274109 0.3582306q-0.39533997 0.04361725 -0.7123718 -0.21041107q-0.31703186 -0.25402832 -0.36065674 -0.64938354q-0.033843994 -0.407547 0.20063782 -0.7001953q0.25402832 -0.31703186 0.6493683 -0.3606491q0.39533997 -0.043624878 0.7123718 0.21041107q0.31703186 0.25402832 0.36065674 0.64938354q0.031417847 0.38558197 -0.22259521 0.70261383zm7.7421417 7.104645l-7.1575623 -5.735222l0.88908386 -1.1096191l7.1575623 5.735222l-0.88908386 1.1096191zm7.83255 -3.8281708q-0.73275757 0.91452026 -1.4896088 1.4093018q-0.75683594 0.49478912 -1.8867493 0.6305618l-0.37973022 -1.2252884q0.8858185 -0.031036377 1.5449524 -0.4038849q0.68110657 -0.37527466 1.2966309 -1.1434708q0.879303 -1.0974274 0.7849579 -2.1541214q-0.08459473 -1.0688934 -1.0844574 -1.8700638l-1.0242462 -0.82071686q0.23606873 0.8298645 0.093811035 1.7570496q-0.14465332 0.9052124 -0.750412 1.6612244q-1.172409 1.463234 -2.8903503 1.5082703q-1.717926 0.045036316 -3.376236 -1.2837372q-1.7192688 -1.3776245 -2.015686 -3.0567398q-0.28663635 -1.6913071 0.8564606 -3.1179657q1.18219 -1.4754257 3.1806488 -1.3957977l-1.0730286 -0.8597946l0.88908386 -1.1096191l6.9502716 5.5691223q1.5119781 1.2115326 1.5913391 2.73674q0.091552734 1.5349808 -1.2176514 3.16893zm-3.6651459 -3.197113q0.48849487 -0.6096802 0.6502075 -1.4611969q0.1592865 -0.87348175 -0.101242065 -1.6228409l-3.1337128 -2.5109863q-0.7759247 -0.08113098 -1.5814514 0.27452087q-0.805542 0.35565186 -1.2842712 0.95314026q-0.8402405 1.0486526 -0.58251953 2.2762985q0.2577057 1.2276382 1.464859 2.1949081q1.2315369 0.9868088 2.4955902 0.9585037q1.2616119 -0.05027008 2.0725403 -1.0623474zm9.041901 -9.460602l-4.718857 -3.7811356q-0.792572 -0.63507843 -1.510025 -0.58927155q-0.717453 0.045814514 -1.4111328 0.91156006q-0.48851013 0.6096802 -0.63067627 1.4368134q-0.14459229 0.80516815 0.040267944 1.5739899l5.2309875 4.19149l-0.88908386 1.1096268l-9.8888855 -7.92379l0.88908386 -1.1096191l3.7677765 3.0190506q-0.16766357 -0.91522217 0.050231934 -1.8618622q0.205719 -0.95641327 0.79193115 -1.688034q1.8270111 -2.2802124 4.107193 -0.4531479l5.060272 4.0547104l-0.88908386 1.1096191zm4.1895294 -4.8539047q-1.279892 1.5973663 -2.9625854 0.24905396l-4.6822968 -3.751831l-0.9476929 1.182785l-0.9754791 -0.78163147l0.94770813 -1.182785l-1.96315 -1.5730286l0.8988495 -1.1218185l1.96315 1.5730362l1.1626434 -1.4510422l0.9754791 0.78162384l-1.1626434 1.4510498l4.4506073 3.5661926q0.40237427 0.3224182 0.79522705 0.35688782q0.4026184 0.022270203 0.6957092 -0.34353638q0.37127686 -0.46335602 0.31311035 -0.9904938l1.0929565 0.3351593q0.09208679 0.8346329 -0.601593 1.7003784z" fill-rule="nonzero"></path><path fill="#eeeeee" d="m460.69553 255.29659l29.748047 0l0 -9.8346405l19.669281 19.669281l-19.669281 19.669312l0 -9.834656l-29.748047 0z" fill-rule="evenodd"></path><path stroke="#595959" stroke-width="1.0" stroke-linejoin="round" stroke-linecap="butt" d="m460.69553 255.29659l29.748047 0l0 -9.8346405l19.669281 19.669281l-19.669281 19.669312l0 -9.834656l-29.748047 0z" fill-rule="evenodd"></path></g></svg>

