<?xml version="1.0" standalone="yes"?>

<svg version="1.1" viewBox="0.0 0.0 960.0 540.0" fill="none" stroke="none" stroke-linecap="square" stroke-miterlimit="10" xmlns="http://www.w3.org/2000/svg" xmlns:xlink="http://www.w3.org/1999/xlink"><clipPath id="g282bd80e3f_0_0.0"><path d="m0 0l960.0 0l0 540.0l-960.0 0l0 -540.0z" clip-rule="nonzero"></path></clipPath><g clip-path="url(#g282bd80e3f_0_0.0)"><path fill="#ffffff" d="m0 0l960.0 0l0 540.0l-960.0 0z" fill-rule="evenodd"></path><path fill="#6d9eeb" d="m739.24457 155.14957l0 0c0 -17.690506 13.72052 -32.031487 30.64563 -32.031487l0 0c8.127747 0 15.922607 3.374733 21.6698 9.381813c5.7471924 6.007065 8.975891 14.154404 8.975891 22.649673l0 0c0 17.690521 -13.72052 32.03151 -30.64569 32.03151l0 0c-16.92511 0 -30.64563 -14.340988 -30.64563 -32.03151z" fill-rule="evenodd"></path><path stroke="#595959" stroke-width="1.0" stroke-linejoin="round" stroke-linecap="butt" d="m739.24457 155.14957l0 0c0 -17.690506 13.72052 -32.031487 30.64563 -32.031487l0 0c8.127747 0 15.922607 3.374733 21.6698 9.381813c5.7471924 6.007065 8.975891 14.154404 8.975891 22.649673l0 0c0 17.690521 -13.72052 32.03151 -30.64569 32.03151l0 0c-16.92511 0 -30.64563 -14.340988 -30.64563 -32.03151z" fill-rule="evenodd"></path><path fill="#f9cb9c" d="m666.27045 253.26779l0 0c0 -17.690506 13.72052 -32.031494 30.64563 -32.031494l0 0c8.127747 0 15.922607 3.3747406 21.6698 9.381805c5.7471313 6.007065 8.975891 14.154404 8.975891 22.649689l0 0c0 17.690521 -13.72052 32.031494 -30.64569 32.031494l0 0c-16.92511 0 -30.64563 -14.340973 -30.64563 -32.031494z" fill-rule="evenodd"></path><path stroke="#595959" stroke-width="1.0" stroke-linejoin="round" stroke-linecap="butt" d="m666.27045 253.26779l0 0c0 -17.690506 13.72052 -32.031494 30.64563 -32.031494l0 0c8.127747 0 15.922607 3.3747406 21.6698 9.381805c5.7471313 6.007065 8.975891 14.154404 8.975891 22.649689l0 0c0 17.690521 -13.72052 32.031494 -30.64569 32.031494l0 0c-16.92511 0 -30.64563 -14.340973 -30.64563 -32.031494z" fill-rule="evenodd"></path><path fill="#f9cb9c" d="m803.74005 253.28064l0 0c0 -17.690506 13.72052 -32.031494 30.64569 -32.031494l0 0c8.127747 0 15.922546 3.3747406 21.669739 9.381805c5.7471924 6.00708 8.975952 14.154419 8.975952 22.649689l0 0c0 17.690521 -13.720581 32.031494 -30.64569 32.031494l0 0c-16.92517 0 -30.64569 -14.340973 -30.64569 -32.031494z" fill-rule="evenodd"></path><path stroke="#595959" stroke-width="1.0" stroke-linejoin="round" stroke-linecap="butt" d="m803.74005 253.28064l0 0c0 -17.690506 13.72052 -32.031494 30.64569 -32.031494l0 0c8.127747 0 15.922546 3.3747406 21.669739 9.381805c5.7471924 6.00708 8.975952 14.154419 8.975952 22.649689l0 0c0 17.690521 -13.720581 32.031494 -30.64569 32.031494l0 0c-16.92517 0 -30.64569 -14.340973 -30.64569 -32.031494z" fill-rule="evenodd"></path><path fill="#b6d7a8" d="m629.23883 369.45398l0 0c0 -17.69049 13.72052 -32.031494 30.64569 -32.031494l0 0c8.127747 0 15.922546 3.3747559 21.669739 9.381805c5.7471924 6.00708 8.975952 14.154419 8.975952 22.649689l0 0c0 17.690521 -13.720581 32.031494 -30.64569 32.031494l0 0c-16.92517 0 -30.64569 -14.340973 -30.64569 -32.031494z" fill-rule="evenodd"></path><path stroke="#595959" stroke-width="1.0" stroke-linejoin="round" stroke-linecap="butt" d="m629.23883 369.45398l0 0c0 -17.69049 13.72052 -32.031494 30.64569 -32.031494l0 0c8.127747 0 15.922546 3.3747559 21.669739 9.381805c5.7471924 6.00708 8.975952 14.154419 8.975952 22.649689l0 0c0 17.690521 -13.720581 32.031494 -30.64569 32.031494l0 0c-16.92517 0 -30.64569 -14.340973 -30.64569 -32.031494z" fill-rule="evenodd"></path><path fill="#b6d7a8" d="m698.9189 369.45398l0 0c0 -17.69049 13.72052 -32.031494 30.64569 -32.031494l0 0c8.127686 0 15.922546 3.3747559 21.669739 9.381805c5.7471924 6.00708 8.975891 14.154419 8.975891 22.649689l0 0c0 17.690521 -13.72052 32.031494 -30.64563 32.031494l0 0c-16.92517 0 -30.64569 -14.340973 -30.64569 -32.031494z" fill-rule="evenodd"></path><path stroke="#595959" stroke-width="1.0" stroke-linejoin="round" stroke-linecap="butt" d="m698.9189 369.45398l0 0c0 -17.69049 13.72052 -32.031494 30.64569 -32.031494l0 0c8.127686 0 15.922546 3.3747559 21.669739 9.381805c5.7471924 6.00708 8.975891 14.154419 8.975891 22.649689l0 0c0 17.690521 -13.72052 32.031494 -30.64563 32.031494l0 0c-16.92517 0 -30.64569 -14.340973 -30.64569 -32.031494z" fill-rule="evenodd"></path><path fill="#b6d7a8" d="m773.07056 369.45013l0 0c0 -17.69049 13.72052 -32.031494 30.64563 -32.031494l0 0c8.127747 0 15.922607 3.3747253 21.6698 9.381805c5.7471313 6.00708 8.975891 14.154419 8.975891 22.649689l0 0c0 17.690521 -13.72052 32.031494 -30.64569 32.031494l0 0c-16.92511 0 -30.64563 -14.340973 -30.64563 -32.031494z" fill-rule="evenodd"></path><path stroke="#595959" stroke-width="1.0" stroke-linejoin="round" stroke-linecap="butt" d="m773.07056 369.45013l0 0c0 -17.69049 13.72052 -32.031494 30.64563 -32.031494l0 0c8.127747 0 15.922607 3.3747253 21.6698 9.381805c5.7471313 6.00708 8.975891 14.154419 8.975891 22.649689l0 0c0 17.690521 -13.72052 32.031494 -30.64569 32.031494l0 0c-16.92511 0 -30.64563 -14.340973 -30.64563 -32.031494z" fill-rule="evenodd"></path><path fill="#b6d7a8" d="m842.753 369.44757l0 0c0 -17.690521 13.720581 -32.031494 30.64569 -32.031494l0 0c8.127747 0 15.922607 3.3747253 21.669739 9.381805c5.7471924 6.00708 8.975952 14.154388 8.975952 22.649689l0 0c0 17.69049 -13.72052 32.031494 -30.64569 32.031494l0 0c-16.92511 0 -30.64569 -14.341003 -30.64569 -32.031494z" fill-rule="evenodd"></path><path stroke="#595959" stroke-width="1.0" stroke-linejoin="round" stroke-linecap="butt" d="m842.753 369.44757l0 0c0 -17.690521 13.720581 -32.031494 30.64569 -32.031494l0 0c8.127747 0 15.922607 3.3747253 21.669739 9.381805c5.7471924 6.00708 8.975952 14.154388 8.975952 22.649689l0 0c0 17.69049 -13.72052 32.031494 -30.64569 32.031494l0 0c-16.92511 0 -30.64569 -14.341003 -30.64569 -32.031494z" fill-rule="evenodd"></path><path fill="#000000" fill-opacity="0.0" d="m769.8902 187.18108l-72.97638 34.04724" fill-rule="evenodd"></path><path stroke="#595959" stroke-width="1.0" stroke-linejoin="round" stroke-linecap="butt" d="m769.8902 187.18108l-72.97638 34.04724" fill-rule="evenodd"></path><path fill="#000000" fill-opacity="0.0" d="m769.8902 187.18108l64.50397 34.078735" fill-rule="evenodd"></path><path stroke="#595959" stroke-width="1.0" stroke-linejoin="round" stroke-linecap="butt" d="m769.8902 187.18108l64.50397 34.078735" fill-rule="evenodd"></path><path fill="#000000" fill-opacity="0.0" d="m696.9161 285.2993l-37.039368 52.125977" fill-rule="evenodd"></path><path stroke="#595959" stroke-width="1.0" stroke-linejoin="round" stroke-linecap="butt" d="m696.9161 285.2993l-37.039368 52.125977" fill-rule="evenodd"></path><path fill="#000000" fill-opacity="0.0" d="m696.9161 285.2993l32.661438 52.125977" fill-rule="evenodd"></path><path stroke="#595959" stroke-width="1.0" stroke-linejoin="round" stroke-linecap="butt" d="m696.9161 285.2993l32.661438 52.125977" fill-rule="evenodd"></path><path fill="#000000" fill-opacity="0.0" d="m834.38574 285.31213l-30.677185 52.094482" fill-rule="evenodd"></path><path stroke="#595959" stroke-width="1.0" stroke-linejoin="round" stroke-linecap="butt" d="m834.38574 285.31213l-30.677185 52.094482" fill-rule="evenodd"></path><path fill="#000000" fill-opacity="0.0" d="m834.38574 285.31213l39.02362 52.094482" fill-rule="evenodd"></path><path stroke="#595959" stroke-width="1.0" stroke-linejoin="round" stroke-linecap="butt" d="m834.38574 285.31213l39.02362 52.094482" fill-rule="evenodd"></path><path fill="#6d9eeb" d="m136.40508 135.13498l0 0c0 -15.063889 11.718155 -27.275589 26.173233 -27.275589l0 0c6.941559 0 13.598831 2.8736725 18.507263 7.988838c4.908432 5.1151657 7.6659546 12.052818 7.6659546 19.28675l0 0c0 15.063904 -11.718155 27.275589 -26.173218 27.275589l0 0c-14.455078 0 -26.173233 -12.211685 -26.173233 -27.275589z" fill-rule="evenodd"></path><path stroke="#595959" stroke-width="1.0" stroke-linejoin="round" stroke-linecap="butt" d="m136.40508 135.13498l0 0c0 -15.063889 11.718155 -27.275589 26.173233 -27.275589l0 0c6.941559 0 13.598831 2.8736725 18.507263 7.988838c4.908432 5.1151657 7.6659546 12.052818 7.6659546 19.28675l0 0c0 15.063904 -11.718155 27.275589 -26.173218 27.275589l0 0c-14.455078 0 -26.173233 -12.211685 -26.173233 -27.275589z" fill-rule="evenodd"></path><path fill="#f9cb9c" d="m84.05543 216.74025l0 0c0 -15.063889 11.718155 -27.275589 26.173225 -27.275589l0 0c6.941574 0 13.598839 2.8736725 18.507263 7.9888306c4.908432 5.1151733 7.66597 12.052826 7.66597 19.286758l0 0c0 15.063889 -11.718155 27.275589 -26.173233 27.275589l0 0c-14.4550705 0 -26.173225 -12.2117 -26.173225 -27.275589z" fill-rule="evenodd"></path><path stroke="#595959" stroke-width="1.0" stroke-linejoin="round" stroke-linecap="butt" d="m84.05543 216.74025l0 0c0 -15.063889 11.718155 -27.275589 26.173225 -27.275589l0 0c6.941574 0 13.598839 2.8736725 18.507263 7.9888306c4.908432 5.1151733 7.66597 12.052826 7.66597 19.286758l0 0c0 15.063889 -11.718155 27.275589 -26.173233 27.275589l0 0c-14.4550705 0 -26.173225 -12.2117 -26.173225 -27.275589z" fill-rule="evenodd"></path><path fill="#f9cb9c" d="m186.5772 219.59113l0 0c0 -15.063889 11.71814 -27.275589 26.173218 -27.275589l0 0c6.941574 0 13.598831 2.8736725 18.507263 7.988846c4.9084473 5.115158 7.66597 12.052811 7.66597 19.286743l0 0c0 15.063904 -11.718155 27.275604 -26.173233 27.275604l0 0c-14.455078 0 -26.173218 -12.2117 -26.173218 -27.275604z" fill-rule="evenodd"></path><path stroke="#595959" stroke-width="1.0" stroke-linejoin="round" stroke-linecap="butt" d="m186.5772 219.59113l0 0c0 -15.063889 11.71814 -27.275589 26.173218 -27.275589l0 0c6.941574 0 13.598831 2.8736725 18.507263 7.988846c4.9084473 5.115158 7.66597 12.052811 7.66597 19.286743l0 0c0 15.063904 -11.718155 27.275604 -26.173233 27.275604l0 0c-14.455078 0 -26.173218 -12.2117 -26.173218 -27.275604z" fill-rule="evenodd"></path><path fill="#b6d7a8" d="m31.706038 298.3453l0 0c0 -15.063904 11.718153 -27.275604 26.173227 -27.275604l0 0c6.941574 0 13.598839 2.8736877 18.50727 7.9888306c4.908432 5.1151733 7.6659546 12.052826 7.6659546 19.286774l0 0c0 15.063873 -11.718147 27.275574 -26.173225 27.275574l0 0c-14.455074 0 -26.173227 -12.2117 -26.173227 -27.275574z" fill-rule="evenodd"></path><path stroke="#595959" stroke-width="1.0" stroke-linejoin="round" stroke-linecap="butt" d="m31.706038 298.3453l0 0c0 -15.063904 11.718153 -27.275604 26.173227 -27.275604l0 0c6.941574 0 13.598839 2.8736877 18.50727 7.9888306c4.908432 5.1151733 7.6659546 12.052826 7.6659546 19.286774l0 0c0 15.063873 -11.718147 27.275574 -26.173225 27.275574l0 0c-14.455074 0 -26.173227 -12.2117 -26.173227 -27.275574z" fill-rule="evenodd"></path><path fill="#b6d7a8" d="m131.35648 298.3464l0 0c0 -15.063873 11.71814 -27.275574 26.173218 -27.275574l0 0c6.941574 0 13.598846 2.8736572 18.507278 7.9888306c4.908432 5.1151733 7.6659546 12.052826 7.6659546 19.286743l0 0c0 15.063904 -11.718155 27.275604 -26.173233 27.275604l0 0c-14.455078 0 -26.173218 -12.2117 -26.173218 -27.275604z" fill-rule="evenodd"></path><path stroke="#595959" stroke-width="1.0" stroke-linejoin="round" stroke-linecap="butt" d="m131.35648 298.3464l0 0c0 -15.063873 11.71814 -27.275574 26.173218 -27.275574l0 0c6.941574 0 13.598846 2.8736572 18.507278 7.9888306c4.908432 5.1151733 7.6659546 12.052826 7.6659546 19.286743l0 0c0 15.063904 -11.718155 27.275604 -26.173233 27.275604l0 0c-14.455078 0 -26.173218 -12.2117 -26.173218 -27.275604z" fill-rule="evenodd"></path><path fill="#000000" fill-opacity="0.0" d="m162.57831 162.41057l-52.346466 27.05513" fill-rule="evenodd"></path><path stroke="#595959" stroke-width="1.0" stroke-linejoin="round" stroke-linecap="butt" d="m162.57831 162.41057l-52.346466 27.05513" fill-rule="evenodd"></path><path fill="#000000" fill-opacity="0.0" d="m162.57831 162.41057l50.173218 29.88977" fill-rule="evenodd"></path><path stroke="#595959" stroke-width="1.0" stroke-linejoin="round" stroke-linecap="butt" d="m162.57831 162.41057l50.173218 29.88977" fill-rule="evenodd"></path><path fill="#000000" fill-opacity="0.0" d="m110.22865 244.01584l-52.346455 27.055115" fill-rule="evenodd"></path><path stroke="#595959" stroke-width="1.0" stroke-linejoin="round" stroke-linecap="butt" d="m110.22865 244.01584l-52.346455 27.055115" fill-rule="evenodd"></path><path fill="#000000" fill-opacity="0.0" d="m110.22865 244.01584l47.307083 27.055115" fill-rule="evenodd"></path><path stroke="#595959" stroke-width="1.0" stroke-linejoin="round" stroke-linecap="butt" d="m110.22865 244.01584l47.307083 27.055115" fill-rule="evenodd"></path><path fill="#f9cb9c" d="m131.3573 298.3452l0 0c0 -15.063904 11.718155 -27.275604 26.173233 -27.275604l0 0c6.941574 0 13.598831 2.8736572 18.507263 7.9888306c4.908432 5.1151733 7.66597 12.052826 7.66597 19.286774l0 0c0 15.063873 -11.718155 27.275574 -26.173233 27.275574l0 0c-14.455078 0 -26.173233 -12.2117 -26.173233 -27.275574z" fill-rule="evenodd"></path><path stroke="#595959" stroke-width="1.0" stroke-linejoin="round" stroke-linecap="butt" d="m131.3573 298.3452l0 0c0 -15.063904 11.718155 -27.275604 26.173233 -27.275604l0 0c6.941574 0 13.598831 2.8736572 18.507263 7.9888306c4.908432 5.1151733 7.66597 12.052826 7.66597 19.286774l0 0c0 15.063873 -11.718155 27.275574 -26.173233 27.275574l0 0c-14.455078 0 -26.173233 -12.2117 -26.173233 -27.275574z" fill-rule="evenodd"></path><path fill="#b6d7a8" d="m174.97705 371.40057l0 0c0 -15.063904 11.718155 -27.275604 26.173218 -27.275604l0 0c6.941574 0 13.598846 2.8736877 18.507278 7.988861c4.908432 5.115143 7.6659546 12.052795 7.6659546 19.286743l0 0c0 15.063904 -11.718155 27.275574 -26.173233 27.275574l0 0c-14.455063 0 -26.173218 -12.21167 -26.173218 -27.275574z" fill-rule="evenodd"></path><path stroke="#595959" stroke-width="1.0" stroke-linejoin="round" stroke-linecap="butt" d="m174.97705 371.40057l0 0c0 -15.063904 11.718155 -27.275604 26.173218 -27.275604l0 0c6.941574 0 13.598846 2.8736877 18.507278 7.988861c4.908432 5.115143 7.6659546 12.052795 7.6659546 19.286743l0 0c0 15.063904 -11.718155 27.275574 -26.173233 27.275574l0 0c-14.455063 0 -26.173218 -12.21167 -26.173218 -27.275574z" fill-rule="evenodd"></path><path fill="#b6d7a8" d="m84.05626 371.4006l0 0c0 -15.063873 11.718147 -27.275574 26.173225 -27.275574l0 0c6.941574 0 13.598831 2.8736572 18.50727 7.9888306c4.908432 5.1151733 7.6659546 12.052826 7.6659546 19.286743l0 0c0 15.063904 -11.718155 27.275604 -26.173225 27.275604l0 0c-14.455078 0 -26.173225 -12.2117 -26.173225 -27.275604z" fill-rule="evenodd"></path><path stroke="#595959" stroke-width="1.0" stroke-linejoin="round" stroke-linecap="butt" d="m84.05626 371.4006l0 0c0 -15.063873 11.718147 -27.275574 26.173225 -27.275574l0 0c6.941574 0 13.598831 2.8736572 18.50727 7.9888306c4.908432 5.1151733 7.6659546 12.052826 7.6659546 19.286743l0 0c0 15.063904 -11.718155 27.275604 -26.173225 27.275604l0 0c-14.455078 0 -26.173225 -12.2117 -26.173225 -27.275604z" fill-rule="evenodd"></path><path fill="#000000" fill-opacity="0.0" d="m157.53053 325.6208l43.622055 18.519684" fill-rule="evenodd"></path><path stroke="#595959" stroke-width="1.0" stroke-linejoin="round" stroke-linecap="butt" d="m157.53053 325.6208l43.622055 18.519684" fill-rule="evenodd"></path><path fill="#000000" fill-opacity="0.0" d="m157.53053 325.6208l-47.307083 18.519684" fill-rule="evenodd"></path><path stroke="#595959" stroke-width="1.0" stroke-linejoin="round" stroke-linecap="butt" d="m157.53053 325.6208l-47.307083 18.519684" fill-rule="evenodd"></path><path fill="#000000" fill-opacity="0.0" d="m392.46982 690.32635l-270.51968 0l0 -52.06299l270.51968 0z" fill-rule="evenodd"></path><path fill="#000000" d="m381.81357 663.4063l0 8.546875l1.484375 0l0 1.3125l-1.484375 0l0 1.046875q0 0.984375 -0.171875 1.46875q-0.234375 0.65625 -0.84375 1.046875q-0.609375 0.40625 -1.703125 0.40625q-0.703125 0 -1.5625 -0.15625l0.25 -1.46875q0.515625 0.09375 0.984375 0.09375q0.765625 0 1.078125 -0.328125q0.3125 -0.3125 0.3125 -1.203125l0 -0.90625l-1.921875 0l0 -1.3125l1.921875 0l0 -8.546875l1.65625 0zm-11.230194 0l0 1.453125q1.140625 -1.671875 3.125 -1.671875q0.859375 0 1.625 0.328125q0.75 0.34375 1.125 0.84375q0.359375 0.5 0.515625 1.234375q0.09375 0.5 0.09375 1.5625l0 6.109375l-1.671875 0l0 -5.46875q0 -1.3125 -0.09375 -1.765625q-0.15625 -0.65625 -0.671875 -1.03125q-0.515625 -0.375 -1.265625 -0.375q-0.75 0 -1.40625 0.375q-0.65625 0.390625 -0.921875 1.046875q-0.28125 0.671875 -0.28125 1.9375l0 5.28125l-1.671875 0l0 -9.859375l1.5 0zm-3.891327 0l0 13.59375l-1.671875 0l0 -13.59375l1.671875 0zm-4.1448364 0l0 13.59375l-1.671875 0l0 -13.59375l1.671875 0z" fill-rule="nonzero"></path><path fill="#000000" fill-opacity="0.0" d="m57.884514 422.86615l134.77167 0l0 48.22046l-134.77167 0z" fill-rule="evenodd"></path><path fill="#000000" d="m69.96264 462.58615l0 -13.34375l-2.5625 0l0 -2.109375l2.5625 0l0 -1.1875q0 -2.40625 1.1875 -3.703125q1.203125 -1.3125 3.28125 -1.3125q1.953125 0 3.265625 1.171875l-0.984375 1.578125q-0.84375 -0.78125 -1.921875 -0.78125q-2.4375 0 -2.4375 3.046875l0 1.1875l3.140625 0l0 2.109375l-3.140625 0l0 13.34375l-2.390625 0zm18.806015 0l0 -2.171875q-0.890625 1.015625 -2.328125 1.796875q-1.4375 0.765625 -3.171875 0.765625q-4.921875 0 -4.921875 -4.9375l0 -10.90625l2.390625 0l0 10.171875q0 1.828125 0.828125 2.671875q0.84375 0.84375 2.625 0.84375q1.40625 0 2.65625 -0.703125q1.25 -0.703125 1.921875 -1.625l0 -11.359375l2.40625 0l0 15.453125l-2.40625 0zm7.2101593 0l0 -21.34375l2.390625 0l0 21.34375l-2.390625 0zm7.200012 0l0 -21.34375l2.390625 0l0 21.34375l-2.390625 0zm19.34665 0.390625q-3.421875 0 -3.421875 -3.625l0 -10.109375l-2.5625 0l0 -2.109375l2.5625 0l0 -4.234375l2.40625 0l0 4.234375l3.140625 0l0 2.109375l-3.140625 0l0 9.59375q0 0.875 0.375 1.4375q0.390625 0.546875 1.1875 0.546875q1.0 0 1.640625 -0.640625l0.703125 1.796875q-1.0 1.0 -2.890625 1.0zm5.5174026 -0.390625l0 -15.453125l2.390625 0l0 2.5q2.140625 -2.828125 5.15625 -2.828125l0 2.46875l-0.96875 -0.09375q-1.078125 0 -2.390625 0.78125q-1.3125 0.78125 -1.796875 1.6875l0 10.9375l-2.390625 0zm17.528778 0.390625q-3.484375 0 -5.6875 -2.265625q-2.1875 -2.28125 -2.1875 -5.875q0 -3.421875 2.171875 -5.75q2.1875 -2.34375 5.453125 -2.34375q3.328125 0 5.375 2.3125q2.046875 2.296875 2.046875 5.984375l0 0.609375l-12.515625 0q0.125 2.359375 1.703125 3.859375q1.59375 1.484375 3.859375 1.484375q2.828125 0 4.78125 -1.953125l1.140625 1.5625q-2.359375 2.375 -6.140625 2.375zm4.796875 -9.09375q0 -2.140625 -1.40625 -3.640625q-1.40625 -1.515625 -3.671875 -1.515625q-2.15625 0 -3.578125 1.515625q-1.421875 1.5 -1.484375 3.640625l10.140625 0zm13.219162 9.09375q-3.484375 0 -5.6875 -2.265625q-2.1875 -2.28125 -2.1875 -5.875q0 -3.421875 2.171875 -5.75q2.1875 -2.34375 5.453125 -2.34375q3.328125 0 5.375 2.3125q2.046875 2.296875 2.046875 5.984375l0 0.609375l-12.515625 0q0.125 2.359375 1.703125 3.859375q1.59375 1.484375 3.859375 1.484375q2.828125 0 4.78125 -1.953125l1.140625 1.5625q-2.359375 2.375 -6.140625 2.375zm4.796875 -9.09375q0 -2.140625 -1.40625 -3.640625q-1.40625 -1.515625 -3.671875 -1.515625q-2.15625 0 -3.578125 1.515625q-1.421875 1.5 -1.484375 3.640625l10.140625 0z" fill-rule="nonzero"></path><path fill="#000000" fill-opacity="0.0" d="m666.2703 422.86615l225.7638 0l0 48.22046l-225.7638 0z" fill-rule="evenodd"></path><path fill="#000000" d="m684.4891 462.97678q-3.390625 0 -5.5625 -2.296875q-2.15625 -2.3125 -2.15625 -5.84375q0 -3.484375 2.15625 -5.78125q2.171875 -2.3125 5.5625 -2.3125q3.578125 0 5.65625 2.6875l-1.59375 1.46875q-1.46875 -2.015625 -3.9375 -2.015625q-2.375 0 -3.859375 1.65625q-1.484375 1.640625 -1.484375 4.296875q0 2.6875 1.46875 4.34375q1.46875 1.640625 3.875 1.640625q2.4375 0 3.9375 -2.015625l1.59375 1.484375q-2.078125 2.6875 -5.65625 2.6875zm15.777527 0q-3.359375 0 -5.515625 -2.28125q-2.140625 -2.296875 -2.140625 -5.859375q0 -3.578125 2.140625 -5.828125q2.15625 -2.265625 5.515625 -2.265625q3.359375 0 5.5 2.265625q2.140625 2.25 2.140625 5.828125q0 3.5625 -2.140625 5.859375q-2.140625 2.28125 -5.5 2.28125zm0 -2.15625q2.234375 0 3.671875 -1.671875q1.4375 -1.6875 1.4375 -4.3125q0 -2.59375 -1.4375 -4.265625q-1.4375 -1.6875 -3.671875 -1.6875q-2.25 0 -3.703125 1.671875q-1.453125 1.65625 -1.453125 4.28125q0 2.65625 1.4375 4.328125q1.4375 1.65625 3.71875 1.65625zm30.210327 1.765625l0 -10.5q0 -3.203125 -2.859375 -3.203125q-1.21875 0 -2.359375 0.734375q-1.125 0.71875 -1.734375 1.640625l0 11.328125l-2.390625 0l0 -10.5q0 -3.203125 -2.859375 -3.203125q-1.171875 0 -2.296875 0.75q-1.125 0.734375 -1.765625 1.65625l0 11.296875l-2.390625 0l0 -15.453125l2.390625 0l0 2.234375q0.546875 -0.921875 2.046875 -1.765625q1.515625 -0.859375 2.953125 -0.859375q1.78125 0 2.78125 0.84375q1.015625 0.828125 1.375 2.046875q0.796875 -1.25 2.265625 -2.0625q1.484375 -0.828125 2.921875 -0.828125q4.3125 0 4.3125 4.671875l0 11.171875l-2.390625 0zm14.809143 0.390625q-3.296875 0 -5.21875 -2.734375l0 8.234375l-2.390625 0l0 -21.34375l2.390625 0l0 2.296875q0.828125 -1.1875 2.203125 -1.9375q1.390625 -0.75 3.015625 -0.75q3.109375 0 4.984375 2.1875q1.890625 2.171875 1.890625 5.90625q0 3.71875 -1.875 5.9375q-1.859375 2.203125 -5.0 2.203125zm-0.609375 -2.15625q2.234375 0 3.59375 -1.625q1.375 -1.640625 1.375 -4.359375q0 -2.65625 -1.34375 -4.296875q-1.34375 -1.65625 -3.625 -1.65625q-1.4375 0 -2.703125 0.734375q-1.265625 0.71875 -1.90625 1.734375l0 6.984375q0.640625 1.015625 1.90625 1.75q1.265625 0.734375 2.703125 0.734375zm11.304016 1.765625l0 -21.34375l2.390625 0l0 21.34375l-2.390625 0zm14.168762 0.390625q-3.484375 0 -5.6875 -2.265625q-2.1875 -2.28125 -2.1875 -5.875q0 -3.421875 2.171875 -5.75q2.1875 -2.34375 5.453125 -2.34375q3.328125 0 5.375 2.3125q2.046875 2.296875 2.046875 5.984375l0 0.609375l-12.515625 0q0.125 2.359375 1.703125 3.859375q1.59375 1.484375 3.859375 1.484375q2.828125 0 4.78125 -1.953125l1.140625 1.5625q-2.359375 2.375 -6.140625 2.375zm4.796875 -9.09375q0 -2.140625 -1.40625 -3.640625q-1.40625 -1.515625 -3.671875 -1.515625q-2.15625 0 -3.578125 1.515625q-1.421875 1.5 -1.484375 3.640625l10.140625 0zm10.141052 9.09375q-3.421875 0 -3.421875 -3.625l0 -10.109375l-2.5625 0l0 -2.109375l2.5625 0l0 -4.234375l2.40625 0l0 4.234375l3.140625 0l0 2.109375l-3.140625 0l0 9.59375q0 0.875 0.375 1.4375q0.390625 0.546875 1.1875 0.546875q1.0 0 1.640625 -0.640625l0.703125 1.796875q-1.0 1.0 -2.890625 1.0zm12.486145 0q-3.484375 0 -5.6875 -2.265625q-2.1875 -2.28125 -2.1875 -5.875q0 -3.421875 2.171875 -5.75q2.1875 -2.34375 5.453125 -2.34375q3.328125 0 5.375 2.3125q2.046875 2.296875 2.046875 5.984375l0 0.609375l-12.515625 0q0.125 2.359375 1.703125 3.859375q1.59375 1.484375 3.859375 1.484375q2.828125 0 4.78125 -1.953125l1.140625 1.5625q-2.359375 2.375 -6.140625 2.375zm4.796875 -9.09375q0 -2.140625 -1.40625 -3.640625q-1.40625 -1.515625 -3.671875 -1.515625q-2.15625 0 -3.578125 1.515625q-1.421875 1.5 -1.484375 3.640625l10.140625 0zm18.397034 9.09375q-3.421875 0 -3.421875 -3.625l0 -10.109375l-2.5625 0l0 -2.109375l2.5625 0l0 -4.234375l2.40625 0l0 4.234375l3.140625 0l0 2.109375l-3.140625 0l0 9.59375q0 0.875 0.375 1.4375q0.390625 0.546875 1.1875 0.546875q1.0 0 1.640625 -0.640625l0.703125 1.796875q-1.0 1.0 -2.890625 1.0zm5.517395 -0.390625l0 -15.453125l2.390625 0l0 2.5q2.140625 -2.828125 5.15625 -2.828125l0 2.46875l-0.96875 -0.09375q-1.078125 0 -2.390625 0.78125q-1.3125 0.78125 -1.796875 1.6875l0 10.9375l-2.390625 0zm17.528809 0.390625q-3.484375 0 -5.6875 -2.265625q-2.1875 -2.28125 -2.1875 -5.875q0 -3.421875 2.171875 -5.75q2.1875 -2.34375 5.453125 -2.34375q3.328125 0 5.375 2.3125q2.046875 2.296875 2.046875 5.984375l0 0.609375l-12.515625 0q0.125 2.359375 1.703125 3.859375q1.59375 1.484375 3.859375 1.484375q2.828125 0 4.78125 -1.953125l1.140625 1.5625q-2.359375 2.375 -6.140625 2.375zm4.796875 -9.09375q0 -2.140625 -1.40625 -3.640625q-1.40625 -1.515625 -3.671875 -1.515625q-2.15625 0 -3.578125 1.515625q-1.421875 1.5 -1.484375 3.640625l10.140625 0zm13.219177 9.09375q-3.484375 0 -5.6875 -2.265625q-2.1875 -2.28125 -2.1875 -5.875q0 -3.421875 2.171875 -5.75q2.1875 -2.34375 5.453125 -2.34375q3.328125 0 5.375 2.3125q2.046875 2.296875 2.046875 5.984375l0 0.609375l-12.515625 0q0.125 2.359375 1.703125 3.859375q1.59375 1.484375 3.859375 1.484375q2.828125 0 4.78125 -1.953125l1.140625 1.5625q-2.359375 2.375 -6.140625 2.375zm4.796875 -9.09375q0 -2.140625 -1.40625 -3.640625q-1.40625 -1.515625 -3.671875 -1.515625q-2.15625 0 -3.578125 1.515625q-1.421875 1.5 -1.484375 3.640625l10.140625 0z" fill-rule="nonzero"></path><path fill="#6d9eeb" d="m414.3027 150.89351l0 0c0 -15.063889 11.71817 -27.275581 26.173248 -27.275581l0 0c6.941559 0 13.598816 2.8736649 18.507263 7.988838c4.9084167 5.115158 7.6659546 12.052811 7.6659546 19.286743l0 0c0 15.063904 -11.71817 27.275589 -26.173218 27.275589l0 0c-14.455078 0 -26.173248 -12.211685 -26.173248 -27.275589z" fill-rule="evenodd"></path><path stroke="#595959" stroke-width="1.0" stroke-linejoin="round" stroke-linecap="butt" d="m414.3027 150.89351l0 0c0 -15.063889 11.71817 -27.275581 26.173248 -27.275581l0 0c6.941559 0 13.598816 2.8736649 18.507263 7.988838c4.9084167 5.115158 7.6659546 12.052811 7.6659546 19.286743l0 0c0 15.063904 -11.71817 27.275589 -26.173218 27.275589l0 0c-14.455078 0 -26.173248 -12.211685 -26.173248 -27.275589z" fill-rule="evenodd"></path><path fill="#f9cb9c" d="m365.541 226.75862l0 0c0 -15.063889 11.71817 -27.275589 26.173248 -27.275589l0 0c6.941559 0 13.598816 2.8736725 18.507263 7.988846c4.9084167 5.115158 7.6659546 12.052811 7.6659546 19.286743l0 0c0 15.063904 -11.71817 27.275589 -26.173218 27.275589l0 0c-14.455078 0 -26.173248 -12.211685 -26.173248 -27.275589z" fill-rule="evenodd"></path><path stroke="#595959" stroke-width="1.0" stroke-linejoin="round" stroke-linecap="butt" d="m365.541 226.75862l0 0c0 -15.063889 11.71817 -27.275589 26.173248 -27.275589l0 0c6.941559 0 13.598816 2.8736725 18.507263 7.988846c4.9084167 5.115158 7.6659546 12.052811 7.6659546 19.286743l0 0c0 15.063904 -11.71817 27.275589 -26.173218 27.275589l0 0c-14.455078 0 -26.173248 -12.211685 -26.173248 -27.275589z" fill-rule="evenodd"></path><path fill="#b6d7a8" d="m404.34253 302.6235l0 0c0 -15.063873 11.71814 -27.275574 26.173218 -27.275574l0 0c6.941559 0 13.598846 2.8736572 18.507263 7.9888306c4.9084473 5.1151733 7.6659546 12.052826 7.6659546 19.286743l0 0c0 15.063904 -11.71814 27.275604 -26.173218 27.275604l0 0c-14.455078 0 -26.173218 -12.2117 -26.173218 -27.275604z" fill-rule="evenodd"></path><path stroke="#595959" stroke-width="1.0" stroke-linejoin="round" stroke-linecap="butt" d="m404.34253 302.6235l0 0c0 -15.063873 11.71814 -27.275574 26.173218 -27.275574l0 0c6.941559 0 13.598846 2.8736572 18.507263 7.9888306c4.9084473 5.1151733 7.6659546 12.052826 7.6659546 19.286743l0 0c0 15.063904 -11.71814 27.275604 -26.173218 27.275604l0 0c-14.455078 0 -26.173218 -12.2117 -26.173218 -27.275604z" fill-rule="evenodd"></path><path fill="#000000" fill-opacity="0.0" d="m440.47595 178.1691l-48.75592 21.322845" fill-rule="evenodd"></path><path stroke="#595959" stroke-width="1.0" stroke-linejoin="round" stroke-linecap="butt" d="m440.47595 178.1691l-48.75592 21.322845" fill-rule="evenodd"></path><path fill="#000000" fill-opacity="0.0" d="m391.71423 254.03421l38.80313 21.322845" fill-rule="evenodd"></path><path stroke="#595959" stroke-width="1.0" stroke-linejoin="round" stroke-linecap="butt" d="m391.71423 254.03421l38.80313 21.322845" fill-rule="evenodd"></path><path fill="#000000" fill-opacity="0.0" d="m430.51575 329.8991l-47.685028 14.236206" fill-rule="evenodd"></path><path stroke="#595959" stroke-width="1.0" stroke-linejoin="round" stroke-linecap="butt" d="m430.51575 329.8991l-47.685028 14.236206" fill-rule="evenodd"></path><path fill="#f9cb9c" d="m356.64734 371.41083l0 0c0 -15.063904 11.71814 -27.275604 26.173218 -27.275604l0 0c6.9415894 0 13.598846 2.8736877 18.507263 7.9888306c4.9084473 5.1151733 7.6659546 12.052826 7.6659546 19.286774l0 0c0 15.063873 -11.71814 27.275574 -26.173218 27.275574l0 0c-14.455078 0 -26.173218 -12.2117 -26.173218 -27.275574z" fill-rule="evenodd"></path><path stroke="#595959" stroke-width="1.0" stroke-linejoin="round" stroke-linecap="butt" d="m356.64734 371.41083l0 0c0 -15.063904 11.71814 -27.275604 26.173218 -27.275604l0 0c6.9415894 0 13.598846 2.8736877 18.507263 7.9888306c4.9084473 5.1151733 7.6659546 12.052826 7.6659546 19.286774l0 0c0 15.063873 -11.71814 27.275574 -26.173218 27.275574l0 0c-14.455078 0 -26.173218 -12.2117 -26.173218 -27.275574z" fill-rule="evenodd"></path><path fill="#000000" fill-opacity="0.0" d="m284.1286 427.08136l302.77167 0l0 48.22049l-302.77167 0z" fill-rule="evenodd"></path><path fill="#000000" d="m306.72235 466.80136l0 -2.296875q-0.859375 1.171875 -2.21875 1.9375q-1.359375 0.75 -2.984375 0.75q-3.109375 0 -5.0 -2.203125q-1.890625 -2.21875 -1.890625 -5.90625q0 -3.703125 1.90625 -5.90625q1.90625 -2.21875 4.984375 -2.21875q1.5625 0 2.921875 0.71875q1.359375 0.71875 2.28125 2.0l0 -8.21875l2.40625 0l0 21.34375l-2.40625 0zm-4.640625 -1.765625q1.453125 0 2.71875 -0.703125q1.28125 -0.703125 1.921875 -1.71875l0 -7.015625q-0.640625 -1.015625 -1.921875 -1.75q-1.265625 -0.75 -2.71875 -0.75q-2.234375 0 -3.59375 1.640625q-1.359375 1.625 -1.359375 4.34375q0 2.65625 1.34375 4.3125q1.34375 1.640625 3.609375 1.640625zm18.82193 2.15625q-3.484375 0 -5.6875 -2.265625q-2.1875 -2.28125 -2.1875 -5.875q0 -3.421875 2.171875 -5.75q2.1875 -2.34375 5.453125 -2.34375q3.328125 0 5.375 2.3125q2.046875 2.296875 2.046875 5.984375l0 0.609375l-12.515625 0q0.125 2.359375 1.703125 3.859375q1.59375 1.484375 3.859375 1.484375q2.828125 0 4.78125 -1.953125l1.140625 1.5625q-2.359375 2.375 -6.140625 2.375zm4.796875 -9.09375q0 -2.140625 -1.40625 -3.640625q-1.40625 -1.515625 -3.671875 -1.515625q-2.15625 0 -3.578125 1.515625q-1.421875 1.5 -1.484375 3.640625l10.140625 0zm12.453522 14.96875q-1.984375 0 -3.421875 -0.484375q-1.4375 -0.46875 -2.8125 -1.8125l1.203125 -1.796875q0.96875 1.15625 2.15625 1.625q1.203125 0.484375 2.875 0.484375q2.359375 0 3.65625 -1.234375q1.296875 -1.21875 1.296875 -3.40625l0 -2.203125q-0.828125 1.1875 -2.1875 1.96875q-1.359375 0.78125 -2.984375 0.78125q-3.140625 0 -5.015625 -2.203125q-1.875 -2.203125 -1.875 -5.796875q0 -3.703125 1.90625 -5.859375q1.90625 -2.171875 4.984375 -2.171875q3.1875 0 5.171875 2.71875l0 -2.328125l2.40625 0l0 15.0q0 3.265625 -1.921875 4.984375q-1.921875 1.734375 -5.4375 1.734375zm0.34375 -8.1875q1.3125 0 2.609375 -0.703125q1.296875 -0.703125 2.0 -1.828125l0 -6.75q-0.703125 -1.109375 -2.015625 -1.796875q-1.3125 -0.703125 -2.59375 -0.703125q-2.265625 0 -3.609375 1.640625q-1.34375 1.625 -1.34375 4.25q0 2.65625 1.375 4.28125q1.375 1.609375 3.578125 1.609375zm18.789917 2.3125q-3.484375 0 -5.6875 -2.265625q-2.1875 -2.28125 -2.1875 -5.875q0 -3.421875 2.171875 -5.75q2.1875 -2.34375 5.453125 -2.34375q3.328125 0 5.375 2.3125q2.046875 2.296875 2.046875 5.984375l0 0.609375l-12.515625 0q0.125 2.359375 1.703125 3.859375q1.59375 1.484375 3.859375 1.484375q2.828125 0 4.78125 -1.953125l1.140625 1.5625q-2.359375 2.375 -6.140625 2.375zm4.796875 -9.09375q0 -2.140625 -1.40625 -3.640625q-1.40625 -1.515625 -3.671875 -1.515625q-2.15625 0 -3.578125 1.515625q-1.421875 1.5 -1.484375 3.640625l10.140625 0zm16.672302 8.703125l0 -10.109375q0 -2.046875 -0.953125 -2.8125q-0.9375 -0.78125 -2.5 -0.78125q-1.34375 0 -2.640625 0.734375q-1.296875 0.71875 -1.9375 1.671875l0 11.296875l-2.390625 0l0 -15.453125l2.390625 0l0 2.234375q1.0 -1.15625 2.453125 -1.890625q1.453125 -0.734375 3.046875 -0.734375q4.9375 0 4.9375 5.0l0 10.84375l-2.40625 0zm14.178894 0.390625q-3.484375 0 -5.6875 -2.265625q-2.1875 -2.28125 -2.1875 -5.875q0 -3.421875 2.171875 -5.75q2.1875 -2.34375 5.453125 -2.34375q3.328125 0 5.375 2.3125q2.046875 2.296875 2.046875 5.984375l0 0.609375l-12.515625 0q0.125 2.359375 1.703125 3.859375q1.59375 1.484375 3.859375 1.484375q2.828125 0 4.78125 -1.953125l1.140625 1.5625q-2.359375 2.375 -6.140625 2.375zm4.796875 -9.09375q0 -2.140625 -1.40625 -3.640625q-1.40625 -1.515625 -3.671875 -1.515625q-2.15625 0 -3.578125 1.515625q-1.421875 1.5 -1.484375 3.640625l10.140625 0zm6.2504272 8.703125l0 -15.453125l2.390625 0l0 2.5q2.140625 -2.828125 5.15625 -2.828125l0 2.46875l-0.96875 -0.09375q-1.078125 0 -2.390625 0.78125q-1.3125 0.78125 -1.796875 1.6875l0 10.9375l-2.390625 0zm20.216278 0l0 -1.765625q-1.953125 2.15625 -5.125 2.15625q-2.328125 0 -3.875 -1.46875q-1.53125 -1.484375 -1.53125 -3.65625q0 -2.234375 1.515625 -3.65625q1.53125 -1.4375 3.890625 -1.4375q3.328125 0 5.125 2.109375l0 -2.78125q0 -1.5625 -1.109375 -2.40625q-1.09375 -0.859375 -2.796875 -0.859375q-2.71875 0 -4.734375 2.15625l-1.125 -1.671875q2.46875 -2.5625 6.1875 -2.5625q2.84375 0 4.40625 1.375q1.578125 1.375 1.578125 3.84375l0 10.625l-2.40625 0zm-4.25 -1.34375q2.84375 0 4.25 -1.921875l0 -2.90625q-1.40625 -1.921875 -4.25 -1.921875q-1.703125 0 -2.765625 0.953125q-1.046875 0.9375 -1.046875 2.4375q0 1.46875 1.046875 2.421875q1.0625 0.9375 2.765625 0.9375zm15.348389 1.734375q-3.421875 0 -3.421875 -3.625l0 -10.109375l-2.5625 0l0 -2.109375l2.5625 0l0 -4.234375l2.40625 0l0 4.234375l3.140625 0l0 2.109375l-3.140625 0l0 9.59375q0 0.875 0.375 1.4375q0.390625 0.546875 1.1875 0.546875q1.0 0 1.640625 -0.640625l0.703125 1.796875q-1.0 1.0 -2.890625 1.0zm6.68927 -18.046875q-0.640625 0 -1.125 -0.46875q-0.46875 -0.46875 -0.46875 -1.140625q0 -0.671875 0.46875 -1.140625q0.484375 -0.484375 1.125 -0.484375q0.671875 0 1.15625 0.484375q0.484375 0.46875 0.484375 1.140625q0 0.671875 -0.484375 1.140625q-0.484375 0.46875 -1.15625 0.46875zm-1.171875 17.65625l0 -15.453125l2.390625 0l0 15.453125l-2.390625 0zm11.325012 0l-6.4375 -15.453125l2.59375 0l5.15625 12.671875l5.109375 -12.671875l2.625 0l-6.421875 15.453125l-2.625 0zm18.523804 0.390625q-3.484375 0 -5.6875 -2.265625q-2.1875 -2.28125 -2.1875 -5.875q0 -3.421875 2.171875 -5.75q2.1875 -2.34375 5.453125 -2.34375q3.328125 0 5.375 2.3125q2.046875 2.296875 2.046875 5.984375l0 0.609375l-12.515625 0q0.125 2.359375 1.703125 3.859375q1.59375 1.484375 3.859375 1.484375q2.828125 0 4.78125 -1.953125l1.140625 1.5625q-2.359375 2.375 -6.140625 2.375zm4.796875 -9.09375q0 -2.140625 -1.40625 -3.640625q-1.40625 -1.515625 -3.671875 -1.515625q-2.15625 0 -3.578125 1.515625q-1.421875 1.5 -1.484375 3.640625l10.140625 0zm18.397034 9.09375q-3.421875 0 -3.421875 -3.625l0 -10.109375l-2.5625 0l0 -2.109375l2.5625 0l0 -4.234375l2.40625 0l0 4.234375l3.140625 0l0 2.109375l-3.140625 0l0 9.59375q0 0.875 0.375 1.4375q0.390625 0.546875 1.1875 0.546875q1.0 0 1.640625 -0.640625l0.703125 1.796875q-1.0 1.0 -2.890625 1.0zm5.517395 -0.390625l0 -15.453125l2.390625 0l0 2.5q2.140625 -2.828125 5.15625 -2.828125l0 2.46875l-0.96875 -0.09375q-1.078125 0 -2.390625 0.78125q-1.3125 0.78125 -1.796875 1.6875l0 10.9375l-2.390625 0zm17.528778 0.390625q-3.484375 0 -5.6875 -2.265625q-2.1875 -2.28125 -2.1875 -5.875q0 -3.421875 2.171875 -5.75q2.1875 -2.34375 5.453125 -2.34375q3.328125 0 5.375 2.3125q2.046875 2.296875 2.046875 5.984375l0 0.609375l-12.515625 0q0.125 2.359375 1.703125 3.859375q1.59375 1.484375 3.859375 1.484375q2.828125 0 4.78125 -1.953125l1.140625 1.5625q-2.359375 2.375 -6.140625 2.375zm4.796875 -9.09375q0 -2.140625 -1.40625 -3.640625q-1.40625 -1.515625 -3.671875 -1.515625q-2.15625 0 -3.578125 1.515625q-1.421875 1.5 -1.484375 3.640625l10.140625 0zm13.219177 9.09375q-3.484375 0 -5.6875 -2.265625q-2.1875 -2.28125 -2.1875 -5.875q0 -3.421875 2.171875 -5.75q2.1875 -2.34375 5.453125 -2.34375q3.328125 0 5.375 2.3125q2.046875 2.296875 2.046875 5.984375l0 0.609375l-12.515625 0q0.125 2.359375 1.703125 3.859375q1.59375 1.484375 3.859375 1.484375q2.828125 0 4.78125 -1.953125l1.140625 1.5625q-2.359375 2.375 -6.140625 2.375zm4.796875 -9.09375q0 -2.140625 -1.40625 -3.640625q-1.40625 -1.515625 -3.671875 -1.515625q-2.15625 0 -3.578125 1.515625q-1.421875 1.5 -1.484375 3.640625l10.140625 0z" fill-rule="nonzero"></path></g></svg>

