<?xml version="1.0" standalone="yes"?>

<svg version="1.1" viewBox="0.0 0.0 960.0 540.0" fill="none" stroke="none" stroke-linecap="square" stroke-miterlimit="10" xmlns="http://www.w3.org/2000/svg" xmlns:xlink="http://www.w3.org/1999/xlink"><clipPath id="g287e6b1221_0_73.0"><path d="m0 0l960.0 0l0 540.0l-960.0 0l0 -540.0z" clip-rule="nonzero"></path></clipPath><g clip-path="url(#g287e6b1221_0_73.0)"><path fill="#ffffff" d="m0 0l960.0 0l0 540.0l-960.0 0z" fill-rule="evenodd"></path><path fill="#3c78d8" d="m99.53976 106.37918l70.48818 0l0 61.76378l-70.48818 0z" fill-rule="evenodd"></path><path stroke="#434343" stroke-width="2.0" stroke-linejoin="round" stroke-linecap="butt" d="m99.53976 106.37918l70.48818 0l0 61.76378l-70.48818 0z" fill-rule="evenodd"></path><path fill="#ffffff" d="m137.79686 145.80107l0 -7.578125q0 -1.546875 -0.71875 -2.109375q-0.703125 -0.578125 -1.875 -0.578125q-1.0 0 -1.984375 0.546875q-0.96875 0.53125 -1.453125 1.25l0 8.46875l-1.796875 0l0 -11.59375l1.796875 0l0 1.6875q0.75 -0.875 1.84375 -1.421875q1.09375 -0.546875 2.296875 -0.546875q3.6875 0 3.6875 3.734375l0 8.140625l-1.796875 0z" fill-rule="nonzero"></path><path fill="#3c78d8" d="m153.31758 296.0092l49.417328 -85.6693l49.417328 85.6693z" fill-rule="evenodd"></path><path stroke="#000000" stroke-width="2.0" stroke-linejoin="round" stroke-linecap="butt" d="m153.31758 296.0092l49.417328 -85.6693l49.417328 85.6693z" fill-rule="evenodd"></path><path fill="#3c78d8" d="m28.070866 296.0092l49.417324 -85.6693l49.41732 85.6693z" fill-rule="evenodd"></path><path stroke="#000000" stroke-width="2.0" stroke-linejoin="round" stroke-linecap="butt" d="m28.070866 296.0092l49.417324 -85.6693l49.41732 85.6693z" fill-rule="evenodd"></path><path fill="#000000" fill-opacity="0.0" d="m77.48819 210.33989l57.291336 -42.204712" fill-rule="evenodd"></path><path stroke="#595959" stroke-width="1.0" stroke-linejoin="round" stroke-linecap="butt" d="m77.48819 210.33989l57.291336 -42.204712" fill-rule="evenodd"></path><path fill="#000000" fill-opacity="0.0" d="m134.78384 168.14296l67.93701 42.204727" fill-rule="evenodd"></path><path stroke="#595959" stroke-width="1.0" stroke-linejoin="round" stroke-linecap="butt" d="m134.78384 168.14296l67.93701 42.204727" fill-rule="evenodd"></path><path fill="#000000" fill-opacity="0.0" d="m108.75328 58.965878l70.48819 0l0 30.677166l-70.48819 0z" fill-rule="evenodd"></path><path fill="#000000" d="m125.425156 81.22446l-3.296875 -4.125l-1.53125 1.5l0 2.625l-1.421875 0l0 -12.671875l1.421875 0l0 8.375l4.828125 -4.875l1.8125 0l-4.0625 4.15625l4.078125 5.015625l-1.828125 0zm7.1986847 -5.90625l0 4.046875l-1.078125 0l0 -4.046875l-3.65625 0l0 -0.984375l3.65625 0l0 -3.9375l1.078125 0l0 3.9375l3.65625 0l0 0.984375l-3.65625 0zm7.4032135 5.90625l0 -10.578125l-2.03125 2.140625l-0.9375 -0.96875l3.171875 -3.265625l1.375 0l0 12.671875l-1.578125 0z" fill-rule="nonzero"></path><path fill="#000000" fill-opacity="0.0" d="m202.72179 173.90027l70.488174 0l0 30.677155l-70.488174 0z" fill-rule="evenodd"></path><path fill="#000000" d="m219.39366 196.15884l-3.296875 -4.125l-1.53125 1.5l0 2.625l-1.421875 0l0 -12.671875l1.421875 0l0 8.375l4.828125 -4.875l1.8125 0l-4.0625 4.15625l4.078125 5.015625l-1.828125 0z" fill-rule="nonzero"></path><path fill="#000000" fill-opacity="0.0" d="m42.244095 173.9029l70.48819 0l0 30.677155l-70.48819 0z" fill-rule="evenodd"></path><path fill="#000000" d="m58.91597 196.16147l-3.296875 -4.125l-1.53125 1.5l0 2.625l-1.421875 0l0 -12.671875l1.421875 0l0 8.375l4.828125 -4.875l1.8125 0l-4.0625 4.15625l4.078125 5.015625l-1.828125 0z" fill-rule="nonzero"></path><path fill="#3c78d8" d="m412.62112 106.37918l70.48819 0l0 61.76378l-70.48819 0z" fill-rule="evenodd"></path><path stroke="#434343" stroke-width="2.0" stroke-linejoin="round" stroke-linecap="butt" d="m412.62112 106.37918l70.48819 0l0 61.76378l-70.48819 0z" fill-rule="evenodd"></path><path fill="#ffffff" d="m450.87823 145.80107l0 -7.578125q0 -1.546875 -0.71875 -2.109375q-0.703125 -0.578125 -1.875 -0.578125q-1.0 0 -1.984375 0.546875q-0.96875 0.53125 -1.453125 1.25l0 8.46875l-1.796875 0l0 -11.59375l1.796875 0l0 1.6875q0.75 -0.875 1.84375 -1.421875q1.09375 -0.546875 2.296875 -0.546875q3.6875 0 3.6875 3.734375l0 8.140625l-1.796875 0z" fill-rule="nonzero"></path><path fill="#3c78d8" d="m466.39896 296.0092l49.417328 -85.6693l49.417297 85.6693z" fill-rule="evenodd"></path><path stroke="#000000" stroke-width="2.0" stroke-linejoin="round" stroke-linecap="butt" d="m466.39896 296.0092l49.417328 -85.6693l49.417297 85.6693z" fill-rule="evenodd"></path><path fill="#3c78d8" d="m341.15222 296.0092l49.417328 -85.6693l49.417328 85.6693z" fill-rule="evenodd"></path><path stroke="#000000" stroke-width="2.0" stroke-linejoin="round" stroke-linecap="butt" d="m341.15222 296.0092l49.417328 -85.6693l49.417328 85.6693z" fill-rule="evenodd"></path><path fill="#000000" fill-opacity="0.0" d="m390.56955 210.33989l57.29135 -42.204712" fill-rule="evenodd"></path><path stroke="#595959" stroke-width="1.0" stroke-linejoin="round" stroke-linecap="butt" d="m390.56955 210.33989l57.29135 -42.204712" fill-rule="evenodd"></path><path fill="#000000" fill-opacity="0.0" d="m447.8652 168.14296l67.93704 42.204727" fill-rule="evenodd"></path><path stroke="#595959" stroke-width="1.0" stroke-linejoin="round" stroke-linecap="butt" d="m447.8652 168.14296l67.93704 42.204727" fill-rule="evenodd"></path><path fill="#000000" fill-opacity="0.0" d="m421.83466 58.965878l70.48819 0l0 30.677166l-70.48819 0z" fill-rule="evenodd"></path><path fill="#000000" d="m438.50653 81.22446l-3.296875 -4.125l-1.53125 1.5l0 2.625l-1.421875 0l0 -12.671875l1.421875 0l0 8.375l4.828125 -4.875l1.8125 0l-4.0625 4.15625l4.078125 5.015625l-1.828125 0zm7.1986694 -5.90625l0 4.046875l-1.078125 0l0 -4.046875l-3.65625 0l0 -0.984375l3.65625 0l0 -3.9375l1.078125 0l0 3.9375l3.65625 0l0 0.984375l-3.65625 0zm7.4032288 5.90625l0 -10.578125l-2.03125 2.140625l-0.9375 -0.96875l3.171875 -3.265625l1.375 0l0 12.671875l-1.578125 0z" fill-rule="nonzero"></path><path fill="#000000" fill-opacity="0.0" d="m515.80316 173.90027l70.48816 0l0 30.677155l-70.48816 0z" fill-rule="evenodd"></path><path fill="#000000" d="m532.47504 196.15884l-3.296875 -4.125l-1.53125 1.5l0 2.625l-1.421875 0l0 -12.671875l1.421875 0l0 8.375l4.828125 -4.875l1.8125 0l-4.0625 4.15625l4.078125 5.015625l-1.828125 0z" fill-rule="nonzero"></path><path fill="#000000" fill-opacity="0.0" d="m355.32547 173.9029l70.48819 0l0 30.677155l-70.48819 0z" fill-rule="evenodd"></path><path fill="#000000" d="m371.99734 196.16147l-3.296875 -4.125l-1.53125 1.5l0 2.625l-1.421875 0l0 -12.671875l1.421875 0l0 8.375l4.828125 -4.875l1.8125 0l-4.0625 4.15625l4.078125 5.015625l-1.828125 0zm2.4799194 -3.96875l0 -1.25l4.5625 0l0 1.25l-4.5625 0zm8.409393 3.96875l0 -10.578125l-2.03125 2.140625l-0.9375 -0.96875l3.171875 -3.265625l1.375 0l0 12.671875l-1.578125 0z" fill-rule="nonzero"></path><path fill="#3c78d8" d="m725.70245 118.135086l70.48822 0l0 61.76378l-70.48822 0z" fill-rule="evenodd"></path><path stroke="#434343" stroke-width="2.0" stroke-linejoin="round" stroke-linecap="butt" d="m725.70245 118.135086l70.48822 0l0 61.76378l-70.48822 0z" fill-rule="evenodd"></path><path fill="#ffffff" d="m763.9596 157.55698l0 -7.578125q0 -1.546875 -0.71875 -2.109375q-0.703125 -0.578125 -1.875 -0.578125q-1.0 0 -1.984375 0.546875q-0.96875 0.53125 -1.453125 1.25l0 8.46875l-1.796875 0l0 -11.59375l1.796875 0l0 1.6875q0.75 -0.875 1.84375 -1.421875q1.09375 -0.546875 2.296875 -0.546875q3.6875 0 3.6875 3.734375l0 8.140625l-1.796875 0z" fill-rule="nonzero"></path><path fill="#3c78d8" d="m779.4803 307.7651l49.41736 -85.66931l49.417297 85.66931z" fill-rule="evenodd"></path><path stroke="#000000" stroke-width="2.0" stroke-linejoin="round" stroke-linecap="butt" d="m779.4803 307.7651l49.41736 -85.66931l49.417297 85.66931z" fill-rule="evenodd"></path><path fill="#3c78d8" d="m654.2336 307.7651l49.41736 -85.66931l49.417297 85.66931z" fill-rule="evenodd"></path><path stroke="#000000" stroke-width="2.0" stroke-linejoin="round" stroke-linecap="butt" d="m654.2336 307.7651l49.41736 -85.66931l49.417297 85.66931z" fill-rule="evenodd"></path><path fill="#000000" fill-opacity="0.0" d="m703.65094 222.0958l57.29132 -42.204712" fill-rule="evenodd"></path><path stroke="#595959" stroke-width="1.0" stroke-linejoin="round" stroke-linecap="butt" d="m703.65094 222.0958l57.29132 -42.204712" fill-rule="evenodd"></path><path fill="#000000" fill-opacity="0.0" d="m760.9466 179.89886l67.93701 42.204727" fill-rule="evenodd"></path><path stroke="#595959" stroke-width="1.0" stroke-linejoin="round" stroke-linecap="butt" d="m760.9466 179.89886l67.93701 42.204727" fill-rule="evenodd"></path><path fill="#000000" fill-opacity="0.0" d="m734.916 70.72179l70.48816 0l0 30.677162l-70.48816 0z" fill-rule="evenodd"></path><path fill="#000000" d="m751.5879 92.98037l-3.296875 -4.125l-1.53125 1.5l0 2.625l-1.421875 0l0 -12.671875l1.421875 0l0 8.375l4.828125 -4.875l1.8125 0l-4.0625 4.15625l4.078125 5.015625l-1.828125 0zm7.1986694 -5.90625l0 4.046875l-1.078125 0l0 -4.046875l-3.65625 0l0 -0.984375l3.65625 0l0 -3.9375l1.078125 0l0 3.9375l3.65625 0l0 0.984375l-3.65625 0zm7.4031982 5.90625l0 -10.578125l-2.03125 2.140625l-0.9375 -0.96875l3.171875 -3.265625l1.375 0l0 12.671875l-1.578125 0z" fill-rule="nonzero"></path><path fill="#000000" fill-opacity="0.0" d="m828.8845 185.65617l70.48816 0l0 30.677155l-70.48816 0z" fill-rule="evenodd"></path><path fill="#000000" d="m845.5564 207.91475l-3.296875 -4.125l-1.53125 1.5l0 2.625l-1.421875 0l0 -12.671875l1.421875 0l0 8.375l4.828125 -4.875l1.8125 0l-4.0625 4.15625l4.078125 5.015625l-1.828125 0zm2.4799194 -3.96875l0 -1.25l4.5625 0l0 1.25l-4.5625 0zm8.409363 3.96875l0 -10.578125l-2.03125 2.140625l-0.9375 -0.96875l3.171875 -3.265625l1.375 0l0 12.671875l-1.578125 0z" fill-rule="nonzero"></path><path fill="#000000" fill-opacity="0.0" d="m668.4068 185.6588l70.48822 0l0 30.677155l-70.48822 0z" fill-rule="evenodd"></path><path fill="#000000" d="m685.0787 207.91737l-3.296875 -4.125l-1.53125 1.5l0 2.625l-1.421875 0l0 -12.671875l1.421875 0l0 8.375l4.828125 -4.875l1.8125 0l-4.0625 4.15625l4.078125 5.015625l-1.828125 0z" fill-rule="nonzero"></path><path fill="#000000" fill-opacity="0.0" d="m43.519722 338.20987l67.937004 0l0 61.763794l-67.937004 0z" fill-rule="evenodd"></path><path stroke="#434343" stroke-width="2.0" stroke-linejoin="round" stroke-linecap="butt" stroke-dasharray="2.0,6.0" d="m43.519722 338.20987l67.937004 0l0 61.763794l-67.937004 0z" fill-rule="evenodd"></path><path fill="#000000" fill-opacity="0.0" d="m77.48819 296.0092l0 42.204712" fill-rule="evenodd"></path><path stroke="#595959" stroke-width="1.0" stroke-linejoin="round" stroke-linecap="butt" d="m77.48819 296.0092l0 42.204712" fill-rule="evenodd"></path><path fill="#000000" fill-opacity="0.0" d="m21.944881 399.97375l111.08661 0l0 30.677155l-111.08661 0z" fill-rule="evenodd"></path><path fill="#000000" d="m32.429256 422.23233l0 -12.671875l1.578125 0l0 11.265625l5.890625 0l0 1.40625l-7.46875 0zm10.217819 -7.21875q-0.4375 0 -0.75 -0.296875q-0.296875 -0.3125 -0.296875 -0.75q0 -0.4375 0.296875 -0.734375q0.3125 -0.3125 0.75 -0.3125q0.4375 0 0.734375 0.3125q0.3125 0.296875 0.3125 0.734375q0 0.4375 -0.3125 0.75q-0.296875 0.296875 -0.734375 0.296875zm0 7.40625q-0.4375 0 -0.75 -0.296875q-0.296875 -0.3125 -0.296875 -0.75q0 -0.4375 0.296875 -0.734375q0.3125 -0.3125 0.75 -0.3125q0.4375 0 0.734375 0.3125q0.3125 0.296875 0.3125 0.734375q0 0.4375 -0.3125 0.75q-0.296875 0.296875 -0.734375 0.296875zm14.588623 -0.1875l-3.296875 -4.125l-1.53125 1.5l0 2.625l-1.421875 0l0 -12.671875l1.421875 0l0 8.375l4.828125 -4.875l1.8125 0l-4.0625 4.15625l4.078125 5.015625l-1.828125 0zm7.1986885 -5.90625l0 4.046875l-1.0781288 0l0 -4.046875l-3.65625 0l0 -0.984375l3.65625 0l0 -3.9375l1.0781288 0l0 3.9375l3.65625 0l0 0.984375l-3.65625 0zm7.4032135 5.90625l0 -10.578125l-2.03125 2.140625l-0.9375 -0.96875l3.171875 -3.265625l1.375 0l0 12.671875l-1.578125 0zm6.293213 -0.453125q0 0.875 -0.453125 1.625q-0.4375 0.765625 -1.109375 1.234375l-0.703125 -0.578125q0.453125 -0.3125 0.8125 -0.8125q0.375 -0.484375 0.421875 -0.953125l-0.265625 0.03125q-0.390625 0 -0.65625 -0.265625q-0.25 -0.265625 -0.25 -0.703125q0 -0.421875 0.28125 -0.71875q0.28125 -0.3125 0.71875 -0.3125q0.484375 0 0.84375 0.390625q0.359375 0.375 0.359375 1.0625zm14.572998 0.453125l-3.21875 -5.03125l-2.53125 0l0 5.03125l-1.578125 0l0 -12.671875l5.09375 0q1.78125 0 2.875 1.0625q1.09375 1.0625 1.09375 2.75q0 1.59375 -0.921875 2.578125q-0.921875 0.984375 -2.359375 1.109375l3.40625 5.171875l-1.859375 0zm-2.421875 -6.421875q1.140625 0 1.828125 -0.671875q0.6875 -0.671875 0.6875 -1.765625q0 -1.078125 -0.6875 -1.734375q-0.6875 -0.671875 -1.828125 -0.671875l-3.328125 0l0 4.84375l3.328125 0zm7.1398773 -0.796875q-0.4375 0 -0.75 -0.296875q-0.296875 -0.3125 -0.296875 -0.75q0 -0.4375 0.296875 -0.734375q0.3125 -0.3125 0.75 -0.3125q0.4375 0 0.734375 0.3125q0.3125 0.296875 0.3125 0.734375q0 0.4375 -0.3125 0.75q-0.296875 0.296875 -0.734375 0.296875zm0 7.40625q-0.4375 0 -0.75 -0.296875q-0.296875 -0.3125 -0.296875 -0.75q0 -0.4375 0.296875 -0.734375q0.3125 -0.3125 0.75 -0.3125q0.4375 0 0.734375 0.3125q0.3125 0.296875 0.3125 0.734375q0 0.4375 -0.3125 0.75q-0.296875 0.296875 -0.734375 0.296875zm14.588623 -0.1875l-3.296875 -4.125l-1.53125 1.5l0 2.625l-1.421875 0l0 -12.671875l1.421875 0l0 8.375l4.828125 -4.875l1.8125 0l-4.0625 4.15625l4.078125 5.015625l-1.828125 0z" fill-rule="nonzero"></path><path fill="#000000" fill-opacity="0.0" d="m168.76643 338.20987l67.93701 0l0 61.763794l-67.93701 0z" fill-rule="evenodd"></path><path stroke="#434343" stroke-width="2.0" stroke-linejoin="round" stroke-linecap="butt" stroke-dasharray="2.0,6.0" d="m168.76643 338.20987l67.93701 0l0 61.763794l-67.93701 0z" fill-rule="evenodd"></path><path fill="#000000" fill-opacity="0.0" d="m202.73494 296.00516l0 42.204712" fill-rule="evenodd"></path><path stroke="#595959" stroke-width="1.0" stroke-linejoin="round" stroke-linecap="butt" d="m202.73494 296.00516l0 42.204712" fill-rule="evenodd"></path><path fill="#000000" fill-opacity="0.0" d="m147.1916 399.97375l111.086624 0l0 30.677155l-111.086624 0z" fill-rule="evenodd"></path><path fill="#000000" d="m157.67598 422.23233l0 -12.671875l1.578125 0l0 11.265625l5.890625 0l0 1.40625l-7.46875 0zm10.217819 -7.21875q-0.4375 0 -0.75 -0.296875q-0.296875 -0.3125 -0.296875 -0.75q0 -0.4375 0.296875 -0.734375q0.3125 -0.3125 0.75 -0.3125q0.4375 0 0.734375 0.3125q0.3125 0.296875 0.3125 0.734375q0 0.4375 -0.3125 0.75q-0.296875 0.296875 -0.734375 0.296875zm0 7.40625q-0.4375 0 -0.75 -0.296875q-0.296875 -0.3125 -0.296875 -0.75q0 -0.4375 0.296875 -0.734375q0.3125 -0.3125 0.75 -0.3125q0.4375 0 0.734375 0.3125q0.3125 0.296875 0.3125 0.734375q0 0.4375 -0.3125 0.75q-0.296875 0.296875 -0.734375 0.296875zm14.588623 -0.1875l-3.296875 -4.125l-1.53125 1.5l0 2.625l-1.421875 0l0 -12.671875l1.421875 0l0 8.375l4.828125 -4.875l1.8125 0l-4.0625 4.15625l4.078125 5.015625l-1.828125 0zm5.2611847 -0.453125q0 0.875 -0.453125 1.625q-0.4375 0.765625 -1.109375 1.234375l-0.703125 -0.578125q0.453125 -0.3125 0.8125 -0.8125q0.375 -0.484375 0.421875 -0.953125l-0.265625 0.03125q-0.390625 0 -0.65625 -0.265625q-0.25 -0.265625 -0.25 -0.703125q0 -0.421875 0.28125 -0.71875q0.28125 -0.3125 0.71875 -0.3125q0.484375 0 0.84375 0.390625q0.359375 0.375 0.359375 1.0625zm14.572998 0.453125l-3.21875 -5.03125l-2.53125 0l0 5.03125l-1.578125 0l0 -12.671875l5.09375 0q1.78125 0 2.875 1.0625q1.09375 1.0625 1.09375 2.75q0 1.59375 -0.921875 2.578125q-0.921875 0.984375 -2.359375 1.109375l3.40625 5.171875l-1.859375 0zm-2.421875 -6.421875q1.140625 0 1.828125 -0.671875q0.6875 -0.671875 0.6875 -1.765625q0 -1.078125 -0.6875 -1.734375q-0.6875 -0.671875 -1.828125 -0.671875l-3.328125 0l0 4.84375l3.328125 0zm7.1398773 -0.796875q-0.4375 0 -0.75 -0.296875q-0.296875 -0.3125 -0.296875 -0.75q0 -0.4375 0.296875 -0.734375q0.3125 -0.3125 0.75 -0.3125q0.4375 0 0.734375 0.3125q0.3125 0.296875 0.3125 0.734375q0 0.4375 -0.3125 0.75q-0.296875 0.296875 -0.734375 0.296875zm0 7.40625q-0.4375 0 -0.75 -0.296875q-0.296875 -0.3125 -0.296875 -0.75q0 -0.4375 0.296875 -0.734375q0.3125 -0.3125 0.75 -0.3125q0.4375 0 0.734375 0.3125q0.3125 0.296875 0.3125 0.734375q0 0.4375 -0.3125 0.75q-0.296875 0.296875 -0.734375 0.296875zm14.588623 -0.1875l-3.296875 -4.125l-1.53125 1.5l0 2.625l-1.421875 0l0 -12.671875l1.421875 0l0 8.375l4.828125 -4.875l1.8125 0l-4.0625 4.15625l4.078125 5.015625l-1.828125 0zm7.1986847 -5.90625l0 4.046875l-1.078125 0l0 -4.046875l-3.65625 0l0 -0.984375l3.65625 0l0 -3.9375l1.078125 0l0 3.9375l3.65625 0l0 0.984375l-3.65625 0zm7.4032135 5.90625l0 -10.578125l-2.03125 2.140625l-0.9375 -0.96875l3.171875 -3.265625l1.375 0l0 12.671875l-1.578125 0z" fill-rule="nonzero"></path><path fill="#000000" fill-opacity="0.0" d="m360.4856 338.20987l67.93701 0l0 61.763794l-67.93701 0z" fill-rule="evenodd"></path><path stroke="#434343" stroke-width="2.0" stroke-linejoin="round" stroke-linecap="butt" stroke-dasharray="2.0,6.0" d="m360.4856 338.20987l67.93701 0l0 61.763794l-67.93701 0z" fill-rule="evenodd"></path><path fill="#000000" fill-opacity="0.0" d="m394.4541 296.00516l0 42.204712" fill-rule="evenodd"></path><path stroke="#595959" stroke-width="1.0" stroke-linejoin="round" stroke-linecap="butt" d="m394.4541 296.00516l0 42.204712" fill-rule="evenodd"></path><path fill="#000000" fill-opacity="0.0" d="m338.91077 399.97375l111.08661 0l0 30.677155l-111.08661 0z" fill-rule="evenodd"></path><path fill="#000000" d="m349.39514 422.23233l0 -12.671875l1.578125 0l0 11.265625l5.890625 0l0 1.40625l-7.46875 0zm10.217804 -7.21875q-0.4375 0 -0.75 -0.296875q-0.296875 -0.3125 -0.296875 -0.75q0 -0.4375 0.296875 -0.734375q0.3125 -0.3125 0.75 -0.3125q0.4375 0 0.734375 0.3125q0.3125 0.296875 0.3125 0.734375q0 0.4375 -0.3125 0.75q-0.296875 0.296875 -0.734375 0.296875zm0 7.40625q-0.4375 0 -0.75 -0.296875q-0.296875 -0.3125 -0.296875 -0.75q0 -0.4375 0.296875 -0.734375q0.3125 -0.3125 0.75 -0.3125q0.4375 0 0.734375 0.3125q0.3125 0.296875 0.3125 0.734375q0 0.4375 -0.3125 0.75q-0.296875 0.296875 -0.734375 0.296875zm14.588623 -0.1875l-3.296875 -4.125l-1.53125 1.5l0 2.625l-1.421875 0l0 -12.671875l1.421875 0l0 8.375l4.828125 -4.875l1.8125 0l-4.0625 4.15625l4.078125 5.015625l-1.828125 0zm5.2612 -0.453125q0 0.875 -0.453125 1.625q-0.4375 0.765625 -1.109375 1.234375l-0.703125 -0.578125q0.453125 -0.3125 0.8125 -0.8125q0.375 -0.484375 0.421875 -0.953125l-0.265625 0.03125q-0.390625 0 -0.65625 -0.265625q-0.25 -0.265625 -0.25 -0.703125q0 -0.421875 0.28125 -0.71875q0.28125 -0.3125 0.71875 -0.3125q0.484375 0 0.84375 0.390625q0.359375 0.375 0.359375 1.0625zm14.572998 0.453125l-3.21875 -5.03125l-2.53125 0l0 5.03125l-1.578125 0l0 -12.671875l5.09375 0q1.78125 0 2.875 1.0625q1.09375 1.0625 1.09375 2.75q0 1.59375 -0.921875 2.578125q-0.921875 0.984375 -2.359375 1.109375l3.40625 5.171875l-1.859375 0zm-2.421875 -6.421875q1.140625 0 1.828125 -0.671875q0.6875 -0.671875 0.6875 -1.765625q0 -1.078125 -0.6875 -1.734375q-0.6875 -0.671875 -1.828125 -0.671875l-3.328125 0l0 4.84375l3.328125 0zm7.139862 -0.796875q-0.4375 0 -0.75 -0.296875q-0.296875 -0.3125 -0.296875 -0.75q0 -0.4375 0.296875 -0.734375q0.3125 -0.3125 0.75 -0.3125q0.4375 0 0.734375 0.3125q0.3125 0.296875 0.3125 0.734375q0 0.4375 -0.3125 0.75q-0.296875 0.296875 -0.734375 0.296875zm0 7.40625q-0.4375 0 -0.75 -0.296875q-0.296875 -0.3125 -0.296875 -0.75q0 -0.4375 0.296875 -0.734375q0.3125 -0.3125 0.75 -0.3125q0.4375 0 0.734375 0.3125q0.3125 0.296875 0.3125 0.734375q0 0.4375 -0.3125 0.75q-0.296875 0.296875 -0.734375 0.296875zm14.588623 -0.1875l-3.296875 -4.125l-1.53125 1.5l0 2.625l-1.421875 0l0 -12.671875l1.421875 0l0 8.375l4.828125 -4.875l1.8125 0l-4.0625 4.15625l4.078125 5.015625l-1.828125 0z" fill-rule="nonzero"></path><path fill="#000000" fill-opacity="0.0" d="m485.73233 338.20987l67.93698 0l0 61.763794l-67.93698 0z" fill-rule="evenodd"></path><path stroke="#ff0000" stroke-width="3.0" stroke-linejoin="round" stroke-linecap="butt" stroke-dasharray="3.0,9.0" d="m485.73233 338.20987l67.93698 0l0 61.763794l-67.93698 0z" fill-rule="evenodd"></path><path fill="#000000" fill-opacity="0.0" d="m519.7008 296.00516l0 42.204712" fill-rule="evenodd"></path><path stroke="#ff0000" stroke-width="3.0" stroke-linejoin="round" stroke-linecap="butt" d="m519.7008 296.00516l0 42.204712" fill-rule="evenodd"></path><path fill="#000000" fill-opacity="0.0" d="m464.15747 399.97375l130.99213 0l0 30.677155l-130.99213 0z" fill-rule="evenodd"></path><path fill="#000000" d="m474.64185 422.23233l0 -12.671875l1.578125 0l0 11.265625l5.890625 0l0 1.40625l-7.46875 0zm10.217834 -7.21875q-0.4375 0 -0.75 -0.296875q-0.296875 -0.3125 -0.296875 -0.75q0 -0.4375 0.296875 -0.734375q0.3125 -0.3125 0.75 -0.3125q0.4375 0 0.734375 0.3125q0.3125 0.296875 0.3125 0.734375q0 0.4375 -0.3125 0.75q-0.296875 0.296875 -0.734375 0.296875zm0 7.40625q-0.4375 0 -0.75 -0.296875q-0.296875 -0.3125 -0.296875 -0.75q0 -0.4375 0.296875 -0.734375q0.3125 -0.3125 0.75 -0.3125q0.4375 0 0.734375 0.3125q0.3125 0.296875 0.3125 0.734375q0 0.4375 -0.3125 0.75q-0.296875 0.296875 -0.734375 0.296875zm14.588623 -0.1875l-3.296875 -4.125l-1.53125 1.5l0 2.625l-1.421875 0l0 -12.671875l1.421875 0l0 8.375l4.828125 -4.875l1.8125 0l-4.0625 4.15625l4.078125 5.015625l-1.828125 0zm2.4799194 -3.96875l0 -1.25l4.5625 0l0 1.25l-4.5625 0zm8.409393 3.96875l0 -10.578125l-2.03125 2.140625l-0.9375 -0.96875l3.171875 -3.265625l1.375 0l0 12.671875l-1.578125 0zm6.2931824 -0.453125q0 0.875 -0.453125 1.625q-0.4375 0.765625 -1.109375 1.234375l-0.703125 -0.578125q0.453125 -0.3125 0.8125 -0.8125q0.375 -0.484375 0.421875 -0.953125l-0.265625 0.03125q-0.390625 0 -0.65625 -0.265625q-0.25 -0.265625 -0.25 -0.703125q0 -0.421875 0.28125 -0.71875q0.28125 -0.3125 0.71875 -0.3125q0.484375 0 0.84375 0.390625q0.359375 0.375 0.359375 1.0625zm14.572998 0.453125l-3.21875 -5.03125l-2.53125 0l0 5.03125l-1.578125 0l0 -12.671875l5.09375 0q1.78125 0 2.875 1.0625q1.09375 1.0625 1.09375 2.75q0 1.59375 -0.921875 2.578125q-0.921875 0.984375 -2.359375 1.109375l3.40625 5.171875l-1.859375 0zm-2.421875 -6.421875q1.140625 0 1.828125 -0.671875q0.6875 -0.671875 0.6875 -1.765625q0 -1.078125 -0.6875 -1.734375q-0.6875 -0.671875 -1.828125 -0.671875l-3.328125 0l0 4.84375l3.328125 0zm7.1398926 -0.796875q-0.4375 0 -0.75 -0.296875q-0.296875 -0.3125 -0.296875 -0.75q0 -0.4375 0.296875 -0.734375q0.3125 -0.3125 0.75 -0.3125q0.4375 0 0.734375 0.3125q0.3125 0.296875 0.3125 0.734375q0 0.4375 -0.3125 0.75q-0.296875 0.296875 -0.734375 0.296875zm0 7.40625q-0.4375 0 -0.75 -0.296875q-0.296875 -0.3125 -0.296875 -0.75q0 -0.4375 0.296875 -0.734375q0.3125 -0.3125 0.75 -0.3125q0.4375 0 0.734375 0.3125q0.3125 0.296875 0.3125 0.734375q0 0.4375 -0.3125 0.75q-0.296875 0.296875 -0.734375 0.296875zm14.588623 -0.1875l-3.296875 -4.125l-1.53125 1.5l0 2.625l-1.421875 0l0 -12.671875l1.421875 0l0 8.375l4.828125 -4.875l1.8125 0l-4.0625 4.15625l4.078125 5.015625l-1.828125 0zm7.1986694 -5.90625l0 4.046875l-1.078125 0l0 -4.046875l-3.65625 0l0 -0.984375l3.65625 0l0 -3.9375l1.078125 0l0 3.9375l3.65625 0l0 0.984375l-3.65625 0zm7.4032593 5.90625l0 -10.578125l-2.03125 2.140625l-0.9375 -0.96875l3.171875 -3.265625l1.375 0l0 12.671875l-1.578125 0z" fill-rule="nonzero"></path><path fill="#000000" fill-opacity="0.0" d="m666.52234 347.87393l67.93701 0l0 61.763763l-67.93701 0z" fill-rule="evenodd"></path><path stroke="#ff0000" stroke-width="3.0" stroke-linejoin="round" stroke-linecap="butt" stroke-dasharray="3.0,9.0" d="m666.52234 347.87393l67.93701 0l0 61.763763l-67.93701 0z" fill-rule="evenodd"></path><path fill="#000000" fill-opacity="0.0" d="m700.49084 305.6692l0 42.204742" fill-rule="evenodd"></path><path stroke="#ff0000" stroke-width="3.0" stroke-linejoin="round" stroke-linecap="butt" d="m700.49084 305.6692l0 42.204742" fill-rule="evenodd"></path><path fill="#000000" fill-opacity="0.0" d="m638.15485 409.6378l130.99213 0l0 30.677185l-130.99213 0z" fill-rule="evenodd"></path><path fill="#000000" d="m648.6392 431.89636l0 -12.671875l1.578125 0l0 11.265625l5.890625 0l0 1.40625l-7.46875 0zm10.217834 -7.21875q-0.4375 0 -0.75 -0.296875q-0.296875 -0.3125 -0.296875 -0.75q0 -0.4375 0.296875 -0.734375q0.3125 -0.3125 0.75 -0.3125q0.4375 0 0.734375 0.3125q0.3125 0.296875 0.3125 0.734375q0 0.4375 -0.3125 0.75q-0.296875 0.296875 -0.734375 0.296875zm0 7.40625q-0.4375 0 -0.75 -0.296875q-0.296875 -0.3125 -0.296875 -0.75q0 -0.4375 0.296875 -0.734375q0.3125 -0.3125 0.75 -0.3125q0.4375 0 0.734375 0.3125q0.3125 0.296875 0.3125 0.734375q0 0.4375 -0.3125 0.75q-0.296875 0.296875 -0.734375 0.296875zm14.588623 -0.1875l-3.296875 -4.125l-1.53125 1.5l0 2.625l-1.421875 0l0 -12.671875l1.421875 0l0 8.375l4.828125 -4.875l1.8125 0l-4.0625 4.15625l4.078125 5.015625l-1.828125 0zm7.1986694 -5.90625l0 4.046875l-1.078125 0l0 -4.046875l-3.65625 0l0 -0.984375l3.65625 0l0 -3.9375l1.078125 0l0 3.9375l3.65625 0l0 0.984375l-3.65625 0zm7.4031982 5.90625l0 -10.578125l-2.03125 2.140625l-0.9375 -0.96875l3.171875 -3.265625l1.375 0l0 12.671875l-1.578125 0zm6.293213 -0.453125q0 0.875 -0.453125 1.625q-0.4375 0.765625 -1.109375 1.234375l-0.703125 -0.578125q0.453125 -0.3125 0.8125 -0.8125q0.375 -0.484375 0.421875 -0.953125l-0.265625 0.03125q-0.390625 0 -0.65625 -0.265625q-0.25 -0.265625 -0.25 -0.703125q0 -0.421875 0.28125 -0.71875q0.28125 -0.3125 0.71875 -0.3125q0.484375 0 0.84375 0.390625q0.359375 0.375 0.359375 1.0625zm14.572998 0.453125l-3.21875 -5.03125l-2.53125 0l0 5.03125l-1.578125 0l0 -12.671875l5.09375 0q1.78125 0 2.875 1.0625q1.09375 1.0625 1.09375 2.75q0 1.59375 -0.921875 2.578125q-0.921875 0.984375 -2.359375 1.109375l3.40625 5.171875l-1.859375 0zm-2.421875 -6.421875q1.140625 0 1.828125 -0.671875q0.6875 -0.671875 0.6875 -1.765625q0 -1.078125 -0.6875 -1.734375q-0.6875 -0.671875 -1.828125 -0.671875l-3.328125 0l0 4.84375l3.328125 0zm7.1398926 -0.796875q-0.4375 0 -0.75 -0.296875q-0.296875 -0.3125 -0.296875 -0.75q0 -0.4375 0.296875 -0.734375q0.3125 -0.3125 0.75 -0.3125q0.4375 0 0.734375 0.3125q0.3125 0.296875 0.3125 0.734375q0 0.4375 -0.3125 0.75q-0.296875 0.296875 -0.734375 0.296875zm0 7.40625q-0.4375 0 -0.75 -0.296875q-0.296875 -0.3125 -0.296875 -0.75q0 -0.4375 0.296875 -0.734375q0.3125 -0.3125 0.75 -0.3125q0.4375 0 0.734375 0.3125q0.3125 0.296875 0.3125 0.734375q0 0.4375 -0.3125 0.75q-0.296875 0.296875 -0.734375 0.296875zm14.588623 -0.1875l-3.296875 -4.125l-1.53125 1.5l0 2.625l-1.421875 0l0 -12.671875l1.421875 0l0 8.375l4.828125 -4.875l1.8125 0l-4.0625 4.15625l4.078125 5.015625l-1.828125 0zm2.4799194 -3.96875l0 -1.25l4.5625 0l0 1.25l-4.5625 0zm8.409424 3.96875l0 -10.578125l-2.03125 2.140625l-0.9375 -0.96875l3.171875 -3.265625l1.375 0l0 12.671875l-1.578125 0z" fill-rule="nonzero"></path><path fill="#000000" fill-opacity="0.0" d="m791.76904 347.87393l67.93701 0l0 61.763763l-67.93701 0z" fill-rule="evenodd"></path><path stroke="#434343" stroke-width="2.0" stroke-linejoin="round" stroke-linecap="butt" stroke-dasharray="2.0,6.0" d="m791.76904 347.87393l67.93701 0l0 61.763763l-67.93701 0z" fill-rule="evenodd"></path><path fill="#000000" fill-opacity="0.0" d="m825.73755 305.6692l0 42.204742" fill-rule="evenodd"></path><path stroke="#595959" stroke-width="1.0" stroke-linejoin="round" stroke-linecap="butt" d="m825.73755 305.6692l0 42.204742" fill-rule="evenodd"></path><path fill="#000000" fill-opacity="0.0" d="m779.4803 409.6378l130.99213 0l0 30.677185l-130.99213 0z" fill-rule="evenodd"></path><path fill="#000000" d="m789.96466 431.89636l0 -12.671875l1.578125 0l0 11.265625l5.890625 0l0 1.40625l-7.46875 0zm10.217834 -7.21875q-0.4375 0 -0.75 -0.296875q-0.296875 -0.3125 -0.296875 -0.75q0 -0.4375 0.296875 -0.734375q0.3125 -0.3125 0.75 -0.3125q0.4375 0 0.734375 0.3125q0.3125 0.296875 0.3125 0.734375q0 0.4375 -0.3125 0.75q-0.296875 0.296875 -0.734375 0.296875zm0 7.40625q-0.4375 0 -0.75 -0.296875q-0.296875 -0.3125 -0.296875 -0.75q0 -0.4375 0.296875 -0.734375q0.3125 -0.3125 0.75 -0.3125q0.4375 0 0.734375 0.3125q0.3125 0.296875 0.3125 0.734375q0 0.4375 -0.3125 0.75q-0.296875 0.296875 -0.734375 0.296875zm14.588623 -0.1875l-3.296875 -4.125l-1.53125 1.5l0 2.625l-1.421875 0l0 -12.671875l1.421875 0l0 8.375l4.828125 -4.875l1.8125 0l-4.0625 4.15625l4.078125 5.015625l-1.828125 0zm15.543274 0l-3.21875 -5.03125l-2.53125 0l0 5.03125l-1.578125 0l0 -12.671875l5.09375 0q1.78125 0 2.875 1.0625q1.09375 1.0625 1.09375 2.75q0 1.59375 -0.921875 2.578125q-0.921875 0.984375 -2.359375 1.109375l3.40625 5.171875l-1.859375 0zm-2.421875 -6.421875q1.140625 0 1.828125 -0.671875q0.6875 -0.671875 0.6875 -1.765625q0 -1.078125 -0.6875 -1.734375q-0.6875 -0.671875 -1.828125 -0.671875l-3.328125 0l0 4.84375l3.328125 0zm8.296082 5.96875q0 0.875 -0.453125 1.625q-0.4375 0.765625 -1.109375 1.234375l-0.703125 -0.578125q0.453125 -0.3125 0.8125 -0.8125q0.375 -0.484375 0.421875 -0.953125l-0.265625 0.03125q-0.390625 0 -0.65625 -0.265625q-0.25 -0.265625 -0.25 -0.703125q0 -0.421875 0.28125 -0.71875q0.28125 -0.3125 0.71875 -0.3125q0.484375 0 0.84375 0.390625q0.359375 0.375 0.359375 1.0625zm13.432373 0.453125l-3.296875 -4.125l-1.53125 1.5l0 2.625l-1.421875 0l0 -12.671875l1.421875 0l0 8.375l4.828125 -4.875l1.8125 0l-4.0625 4.15625l4.078125 5.015625l-1.828125 0z" fill-rule="nonzero"></path></g></svg>

