<?xml version="1.0" standalone="yes"?>

<svg version="1.1" viewBox="0.0 0.0 960.0 540.0" fill="none" stroke="none" stroke-linecap="square" stroke-miterlimit="10" xmlns="http://www.w3.org/2000/svg" xmlns:xlink="http://www.w3.org/1999/xlink"><clipPath id="g282c0af4d9_0_41.0"><path d="m0 0l960.0 0l0 540.0l-960.0 0l0 -540.0z" clip-rule="nonzero"></path></clipPath><g clip-path="url(#g282c0af4d9_0_41.0)"><path fill="#ffffff" d="m0 0l960.0 0l0 540.0l-960.0 0z" fill-rule="evenodd"></path><path fill="#6d9eeb" d="m410.54633 52.742783l0 0c0 -26.492275 20.982697 -47.968506 46.86615 -47.968506l0 0c12.429657 0 24.35025 5.0538106 33.139374 14.04965c8.789093 8.99584 13.726776 21.196817 13.726776 33.918854l0 0c0 26.492271 -20.982697 47.968506 -46.86615 47.968506l0 0c-25.883453 0 -46.86615 -21.476234 -46.86615 -47.968506z" fill-rule="evenodd"></path><path stroke="#595959" stroke-width="1.0" stroke-linejoin="round" stroke-linecap="butt" d="m410.54633 52.742783l0 0c0 -26.492275 20.982697 -47.968506 46.86615 -47.968506l0 0c12.429657 0 24.35025 5.0538106 33.139374 14.04965c8.789093 8.99584 13.726776 21.196817 13.726776 33.918854l0 0c0 26.492271 -20.982697 47.968506 -46.86615 47.968506l0 0c-25.883453 0 -46.86615 -21.476234 -46.86615 -47.968506z" fill-rule="evenodd"></path><path fill="#000000" d="m447.80542 64.85341q-4.921875 0 -7.515625 -3.4375l1.640625 -1.75q2.203125 2.8125 5.875 2.8125q2.15625 0 3.546875 -1.296875q1.390625 -1.296875 1.390625 -3.28125q0 -2.015625 -1.328125 -3.3125q-1.328125 -1.296875 -3.578125 -1.296875q-2.84375 0 -4.921875 2.015625l-1.953125 -0.671875l0 -11.515625l13.0625 0l0 2.375l-10.40625 0l0 7.421875q0.765625 -0.765625 2.0625 -1.34375q1.296875 -0.578125 2.9375 -0.578125q2.90625 0 4.84375 1.890625q1.9375 1.875 1.9375 4.921875q0 3.171875 -2.09375 5.109375q-2.09375 1.9375 -5.5 1.9375zm19.05191 0q-3.71875 0 -5.953125 -3.0625q-2.21875 -3.0625 -2.21875 -7.984375q0 -4.953125 2.25 -7.96875q2.265625 -3.03125 5.921875 -3.03125q2.484375 0 4.328125 1.421875q1.84375 1.421875 2.828125 3.953125q1.0 2.515625 1.0 5.625q0 3.078125 -1.0 5.640625q-0.984375 2.546875 -2.8125 3.984375q-1.828125 1.421875 -4.34375 1.421875zm0 -2.375q2.5625 0 4.0 -2.296875q1.4375 -2.3125 1.4375 -6.375q0 -4.09375 -1.4375 -6.359375q-1.4375 -2.28125 -4.0 -2.28125q-2.5625 0 -4.0 2.28125q-1.4375 2.265625 -1.4375 6.359375q0 4.0625 1.421875 6.375q1.421875 2.296875 4.015625 2.296875z" fill-rule="nonzero"></path><path fill="#f9cb9c" d="m298.9616 199.65373l0 0c0 -26.49228 20.982666 -47.968506 46.86612 -47.968506l0 0c12.4296875 0 24.35028 5.0538025 33.139374 14.049652c8.789093 8.995834 13.726776 21.196808 13.726776 33.918854l0 0c0 26.492264 -20.982697 47.968506 -46.86615 47.968506l0 0c-25.883453 0 -46.86612 -21.476242 -46.86612 -47.968506z" fill-rule="evenodd"></path><path stroke="#595959" stroke-width="1.0" stroke-linejoin="round" stroke-linecap="butt" d="m298.9616 199.65373l0 0c0 -26.49228 20.982666 -47.968506 46.86612 -47.968506l0 0c12.4296875 0 24.35028 5.0538025 33.139374 14.049652c8.789093 8.995834 13.726776 21.196808 13.726776 33.918854l0 0c0 26.492264 -20.982697 47.968506 -46.86615 47.968506l0 0c-25.883453 0 -46.86612 -21.476242 -46.86612 -47.968506z" fill-rule="evenodd"></path><path fill="#000000" d="m328.71408 211.37373l0 -2.109375q5.625 -4.453125 7.734375 -6.484375q2.109375 -2.03125 3.09375 -3.640625q1.0 -1.625 1.0 -3.15625q0 -1.765625 -1.21875 -2.828125q-1.203125 -1.078125 -3.21875 -1.078125q-3.75 0 -5.796875 2.6875l-1.625 -1.6875q1.203125 -1.640625 3.171875 -2.5q1.96875 -0.859375 4.25 -0.859375q3.09375 0 5.125 1.71875q2.03125 1.703125 2.03125 4.546875q0 2.59375 -2.1875 5.453125q-2.1875 2.859375 -8.171875 7.5625l10.46875 0l0 2.375l-14.65625 0zm26.706665 0.390625q-4.921875 0 -7.515625 -3.4375l1.640625 -1.75q2.203125 2.8125 5.875 2.8125q2.15625 0 3.546875 -1.296875q1.390625 -1.296875 1.390625 -3.28125q0 -2.015625 -1.328125 -3.3125q-1.328125 -1.296875 -3.578125 -1.296875q-2.84375 0 -4.921875 2.015625l-1.953125 -0.671875l0 -11.515625l13.0625 0l0 2.375l-10.40625 0l0 7.421875q0.765625 -0.765625 2.0625 -1.34375q1.296875 -0.578125 2.9375 -0.578125q2.90625 0 4.84375 1.890625q1.9375 1.875 1.9375 4.921875q0 3.171875 -2.09375 5.109375q-2.09375 1.9375 -5.5 1.9375z" fill-rule="nonzero"></path><path fill="#f9cb9c" d="m509.1664 199.67297l0 0c0 -26.49228 20.982697 -47.968506 46.86612 -47.968506l0 0c12.4296875 0 24.35028 5.0538025 33.139404 14.049652c8.7890625 8.995834 13.726746 21.196808 13.726746 33.918854l0 0c0 26.492264 -20.982666 47.968506 -46.86615 47.968506l0 0c-25.883423 0 -46.86612 -21.476242 -46.86612 -47.968506z" fill-rule="evenodd"></path><path stroke="#595959" stroke-width="1.0" stroke-linejoin="round" stroke-linecap="butt" d="m509.1664 199.67297l0 0c0 -26.49228 20.982697 -47.968506 46.86612 -47.968506l0 0c12.4296875 0 24.35028 5.0538025 33.139404 14.049652c8.7890625 8.995834 13.726746 21.196808 13.726746 33.918854l0 0c0 26.492264 -20.982666 47.968506 -46.86615 47.968506l0 0c-25.883423 0 -46.86612 -21.476242 -46.86612 -47.968506z" fill-rule="evenodd"></path><path fill="#000000" d="m542.22754 211.39297l8.609375 -18.96875l-11.5 0l0 -2.375l14.5625 0l0 1.828125l-8.734375 19.515625l-2.9375 0zm22.22998 0.390625q-4.921875 0 -7.515625 -3.4375l1.640625 -1.75q2.203125 2.8125 5.875 2.8125q2.15625 0 3.546875 -1.296875q1.390625 -1.296875 1.390625 -3.28125q0 -2.015625 -1.328125 -3.3125q-1.328125 -1.296875 -3.578125 -1.296875q-2.84375 0 -4.921875 2.015625l-1.953125 -0.671875l0 -11.515625l13.0625 0l0 2.375l-10.40625 0l0 7.421875q0.765625 -0.765625 2.0625 -1.34375q1.296875 -0.578125 2.9375 -0.578125q2.90625 0 4.84375 1.890625q1.9375 1.875 1.9375 4.921875q0 3.171875 -2.09375 5.109375q-2.09375 1.9375 -5.5 1.9375z" fill-rule="nonzero"></path><path fill="#b6d7a8" d="m242.33662 373.61758l0 0c0 -26.492249 20.982681 -47.968506 46.866135 -47.968506l0 0c12.4296875 0 24.35025 5.053833 33.139374 14.049652c8.789093 8.99585 13.726776 21.196838 13.726776 33.918854l0 0c0 26.49228 -20.982697 47.968506 -46.86615 47.968506l0 0c-25.883453 0 -46.866135 -21.476227 -46.866135 -47.968506z" fill-rule="evenodd"></path><path stroke="#595959" stroke-width="1.0" stroke-linejoin="round" stroke-linecap="butt" d="m242.33662 373.61758l0 0c0 -26.492249 20.982681 -47.968506 46.866135 -47.968506l0 0c12.4296875 0 24.35025 5.053833 33.139374 14.049652c8.789093 8.99585 13.726776 21.196838 13.726776 33.918854l0 0c0 26.49228 -20.982697 47.968506 -46.86615 47.968506l0 0c-25.883453 0 -46.866135 -21.476227 -46.866135 -47.968506z" fill-rule="evenodd"></path><path fill="#000000" d="m270.7665 385.3376l0 -17.828125l-3.4375 3.625l-1.59375 -1.640625l5.34375 -5.5l2.34375 0l0 21.34375l-2.65625 0zm14.941772 0.390625q-3.71875 0 -5.953125 -3.0625q-2.21875 -3.0625 -2.21875 -7.984375q0 -4.953125 2.25 -7.96875q2.265625 -3.03125 5.921875 -3.03125q2.484375 0 4.328125 1.421875q1.84375 1.421875 2.828125 3.953125q1.0 2.515625 1.0 5.625q0 3.078125 -1.0 5.640625q-0.984375 2.546875 -2.8125 3.984375q-1.828125 1.421875 -4.34375 1.421875zm0 -2.375q2.5625 0 4.0 -2.296875q1.4375 -2.3125 1.4375 -6.375q0 -4.09375 -1.4375 -6.359375q-1.4375 -2.28125 -4.0 -2.28125q-2.5625 0 -4.0 2.28125q-1.4375 2.265625 -1.4375 6.359375q0 4.0625 1.421875 6.375q1.421875 2.296875 4.015625 2.296875z" fill-rule="nonzero"></path><path fill="#b6d7a8" d="m348.88434 373.61758l0 0c0 -26.492249 20.982697 -47.968506 46.86615 -47.968506l0 0c12.429657 0 24.35025 5.053833 33.139374 14.049652c8.789093 8.99585 13.726776 21.196838 13.726776 33.918854l0 0c0 26.49228 -20.982697 47.968506 -46.86615 47.968506l0 0c-25.883453 0 -46.86615 -21.476227 -46.86615 -47.968506z" fill-rule="evenodd"></path><path stroke="#595959" stroke-width="1.0" stroke-linejoin="round" stroke-linecap="butt" d="m348.88434 373.61758l0 0c0 -26.492249 20.982697 -47.968506 46.86615 -47.968506l0 0c12.429657 0 24.35025 5.053833 33.139374 14.049652c8.789093 8.99585 13.726776 21.196838 13.726776 33.918854l0 0c0 26.49228 -20.982697 47.968506 -46.86615 47.968506l0 0c-25.883453 0 -46.86615 -21.476227 -46.86615 -47.968506z" fill-rule="evenodd"></path><path fill="#000000" d="m388.53833 385.3376l0 -5.40625l-10.140625 0l0 -2.203125l9.140625 -13.734375l3.65625 0l0 13.59375l3.0 0l0 2.34375l-3.0 0l0 5.40625l-2.65625 0zm0 -18.875l-7.484375 11.125l7.484375 0l0 -11.125zm15.293518 19.234375q-3.65625 0 -5.921875 -2.5625l1.34375 -1.984375q0.828125 0.953125 1.859375 1.5625q1.046875 0.609375 2.71875 0.609375q2.78125 0 4.390625 -2.296875q1.625 -2.3125 1.625 -6.0625l0 -0.4375l-0.03125 -0.421875q-0.9375 1.4375 -2.65625 2.390625q-1.703125 0.9375 -3.359375 0.9375q-3.171875 0 -5.09375 -1.84375q-1.921875 -1.859375 -1.921875 -4.96875q0 -2.984375 2.078125 -4.984375q2.09375 -2.0 5.390625 -2.0q3.859375 0 6.046875 2.921875q2.203125 2.90625 2.203125 8.125q0 5.03125 -2.359375 8.03125q-2.34375 2.984375 -6.3125 2.984375zm0.578125 -10.5625q1.59375 0 3.03125 -0.859375q1.4375 -0.875 2.28125 -2.3125q-0.296875 -2.84375 -1.734375 -4.390625q-1.4375 -1.5625 -3.609375 -1.5625q-2.140625 0 -3.53125 1.328125q-1.375 1.328125 -1.375 3.1875q0 2.140625 1.328125 3.375q1.328125 1.234375 3.609375 1.234375z" fill-rule="nonzero"></path><path fill="#b6d7a8" d="m568.8211 373.60797l0 0c0 -26.49228 20.982666 -47.968506 46.86615 -47.968506l0 0c12.4296875 0 24.35022 5.0538025 33.139343 14.049652c8.789124 8.99585 13.726807 21.196808 13.726807 33.918854l0 0c0 26.49228 -20.982727 47.968506 -46.86615 47.968506l0 0c-25.883484 0 -46.86615 -21.476227 -46.86615 -47.968506z" fill-rule="evenodd"></path><path stroke="#595959" stroke-width="1.0" stroke-linejoin="round" stroke-linecap="butt" d="m568.8211 373.60797l0 0c0 -26.49228 20.982666 -47.968506 46.86615 -47.968506l0 0c12.4296875 0 24.35022 5.0538025 33.139343 14.049652c8.789124 8.99585 13.726807 21.196808 13.726807 33.918854l0 0c0 26.49228 -20.982727 47.968506 -46.86615 47.968506l0 0c-25.883484 0 -46.86615 -21.476227 -46.86615 -47.968506z" fill-rule="evenodd"></path><path fill="#000000" d="m605.3846 385.68735q-3.65625 0 -5.921875 -2.5625l1.34375 -1.984375q0.828125 0.953125 1.859375 1.5625q1.046875 0.609375 2.71875 0.609375q2.78125 0 4.390625 -2.296875q1.625 -2.3125 1.625 -6.0625l0 -0.4375l-0.03125 -0.421875q-0.9375 1.4375 -2.65625 2.390625q-1.703125 0.9375 -3.359375 0.9375q-3.171875 0 -5.09375 -1.84375q-1.921875 -1.859375 -1.921875 -4.96875q0 -2.984375 2.078125 -4.984375q2.09375 -2.0 5.390625 -2.0q3.859375 0 6.046875 2.921875q2.203125 2.90625 2.203125 8.125q0 5.03125 -2.359375 8.03125q-2.34375 2.984375 -6.3125 2.984375zm0.578125 -10.5625q1.59375 0 3.03125 -0.859375q1.4375 -0.875 2.28125 -2.3125q-0.296875 -2.84375 -1.734375 -4.390625q-1.4375 -1.5625 -3.609375 -1.5625q-2.140625 0 -3.53125 1.328125q-1.375 1.328125 -1.375 3.1875q0 2.140625 1.328125 3.375q1.328125 1.234375 3.609375 1.234375zm18.333923 10.5625q-3.65625 0 -5.921875 -2.5625l1.34375 -1.984375q0.828125 0.953125 1.859375 1.5625q1.046875 0.609375 2.71875 0.609375q2.78125 0 4.390625 -2.296875q1.625 -2.3125 1.625 -6.0625l0 -0.4375l-0.03125 -0.421875q-0.9375 1.4375 -2.65625 2.390625q-1.703125 0.9375 -3.359375 0.9375q-3.171875 0 -5.09375 -1.84375q-1.921875 -1.859375 -1.921875 -4.96875q0 -2.984375 2.078125 -4.984375q2.09375 -2.0 5.390625 -2.0q3.859375 0 6.046875 2.921875q2.203125 2.90625 2.203125 8.125q0 5.03125 -2.359375 8.03125q-2.34375 2.984375 -6.3125 2.984375zm0.578125 -10.5625q1.59375 0 3.03125 -0.859375q1.4375 -0.875 2.28125 -2.3125q-0.296875 -2.84375 -1.734375 -4.390625q-1.4375 -1.5625 -3.609375 -1.5625q-2.140625 0 -3.53125 1.328125q-1.375 1.328125 -1.375 3.1875q0 2.140625 1.328125 3.375q1.328125 1.234375 3.609375 1.234375z" fill-rule="nonzero"></path><path fill="#000000" fill-opacity="0.0" d="m457.41248 100.71129l-111.590546 50.960632" fill-rule="evenodd"></path><path stroke="#595959" stroke-width="1.0" stroke-linejoin="round" stroke-linecap="butt" d="m457.41248 100.71129l-111.590546 50.960632" fill-rule="evenodd"></path><path fill="#000000" fill-opacity="0.0" d="m457.41248 100.71129l98.6142 50.992126" fill-rule="evenodd"></path><path stroke="#595959" stroke-width="1.0" stroke-linejoin="round" stroke-linecap="butt" d="m457.41248 100.71129l98.6142 50.992126" fill-rule="evenodd"></path><path fill="#000000" fill-opacity="0.0" d="m345.82773 247.62224l-56.629913 78.01573" fill-rule="evenodd"></path><path stroke="#595959" stroke-width="1.0" stroke-linejoin="round" stroke-linecap="butt" d="m345.82773 247.62224l-56.629913 78.01573" fill-rule="evenodd"></path><path fill="#000000" fill-opacity="0.0" d="m345.82773 247.62224l49.921265 78.01573" fill-rule="evenodd"></path><path stroke="#595959" stroke-width="1.0" stroke-linejoin="round" stroke-linecap="butt" d="m345.82773 247.62224l49.921265 78.01573" fill-rule="evenodd"></path><path fill="#000000" fill-opacity="0.0" d="m556.03253 247.64148l59.653564 77.98425" fill-rule="evenodd"></path><path stroke="#595959" stroke-width="1.0" stroke-linejoin="round" stroke-linecap="butt" d="m556.03253 247.64148l59.653564 77.98425" fill-rule="evenodd"></path></g></svg>

