<?xml version="1.0" standalone="yes"?>

<svg version="1.1" viewBox="0.0 0.0 960.0 540.0" fill="none" stroke="none" stroke-linecap="square" stroke-miterlimit="10" xmlns="http://www.w3.org/2000/svg" xmlns:xlink="http://www.w3.org/1999/xlink"><clipPath id="g25e58ad6d8_0_0.0"><path d="m0 0l960.0 0l0 540.0l-960.0 0l0 -540.0z" clip-rule="nonzero"></path></clipPath><g clip-path="url(#g25e58ad6d8_0_0.0)"><path fill="#ffffff" d="m0 0l960.0 0l0 540.0l-960.0 0z" fill-rule="evenodd"></path><path fill="#000000" fill-opacity="0.0" d="m455.61154 101.784775l-109.79526 61.417328" fill-rule="evenodd"></path><path stroke="#595959" stroke-width="1.0" stroke-linejoin="round" stroke-linecap="butt" d="m455.61154 101.784775l-109.79526 61.417328" fill-rule="evenodd"></path><path fill="#000000" fill-opacity="0.0" d="m455.61154 101.784775l100.409454 61.448822" fill-rule="evenodd"></path><path stroke="#595959" stroke-width="1.0" stroke-linejoin="round" stroke-linecap="butt" d="m455.61154 101.784775l100.409454 61.448822" fill-rule="evenodd"></path><path fill="#000000" fill-opacity="0.0" d="m345.82678 236.08923l-55.748047 101.102356" fill-rule="evenodd"></path><path stroke="#595959" stroke-width="1.0" stroke-linejoin="round" stroke-linecap="butt" d="m345.82678 236.08923l-55.748047 101.102356" fill-rule="evenodd"></path><path fill="#000000" fill-opacity="0.0" d="m345.82678 236.08923l47.748016 101.102356" fill-rule="evenodd"></path><path stroke="#595959" stroke-width="1.0" stroke-linejoin="round" stroke-linecap="butt" d="m345.82678 236.08923l47.748016 101.102356" fill-rule="evenodd"></path><path fill="#000000" fill-opacity="0.0" d="m556.0315 236.11417l-46.897644 101.03937" fill-rule="evenodd"></path><path stroke="#595959" stroke-width="1.0" stroke-linejoin="round" stroke-linecap="butt" d="m556.0315 236.11417l-46.897644 101.03937" fill-rule="evenodd"></path><path fill="#000000" fill-opacity="0.0" d="m556.0315 236.11417l59.653564 101.07086" fill-rule="evenodd"></path><path stroke="#595959" stroke-width="1.0" stroke-linejoin="round" stroke-linecap="butt" d="m556.0315 236.11417l59.653564 101.07086" fill-rule="evenodd"></path><path fill="#3c78d8" d="m416.46194 28.902887l78.299225 0l0 72.88189l-78.299225 0z" fill-rule="evenodd"></path><path stroke="#434343" stroke-width="2.0" stroke-linejoin="round" stroke-linecap="butt" d="m416.46194 28.902887l78.299225 0l0 72.88189l-78.299225 0z" fill-rule="evenodd"></path><path fill="#ffffff" d="m441.8091 54.14383l-2.203125 -3.4375l-1.734375 0l0 3.4375l-1.078125 0l0 -8.671875l3.484375 0q1.21875 0 1.96875 0.734375q0.75 0.71875 0.75 1.875q0 1.09375 -0.640625 1.765625q-0.625 0.671875 -1.609375 0.765625l2.34375 3.53125l-1.28125 0zm-1.65625 -4.390625q0.765625 0 1.234375 -0.453125q0.484375 -0.46875 0.484375 -1.21875q0 -0.734375 -0.484375 -1.1875q-0.46875 -0.453125 -1.234375 -0.453125l-2.28125 0l0 3.3125l2.28125 0zm8.697235 4.546875q-1.90625 0 -3.109375 -1.265625q-1.203125 -1.28125 -1.203125 -3.21875q0 -1.953125 1.203125 -3.21875q1.203125 -1.265625 3.109375 -1.265625q1.90625 0 3.09375 1.28125q1.203125 1.265625 1.203125 3.203125q0 1.953125 -1.203125 3.21875q-1.203125 1.265625 -3.09375 1.265625zm0 -0.96875q1.421875 0 2.296875 -0.984375q0.890625 -1.0 0.890625 -2.53125q0 -1.5625 -0.890625 -2.546875q-0.875 -0.984375 -2.296875 -0.984375q-1.40625 0 -2.296875 0.96875q-0.890625 0.96875 -0.890625 2.5625q0 1.5625 0.875 2.546875q0.875 0.96875 2.3125 0.96875zm10.195984 0.96875q-1.90625 0 -3.109375 -1.265625q-1.203125 -1.28125 -1.203125 -3.21875q0 -1.953125 1.203125 -3.21875q1.203125 -1.265625 3.109375 -1.265625q1.90625 0 3.09375 1.28125q1.203125 1.265625 1.203125 3.203125q0 1.953125 -1.203125 3.21875q-1.203125 1.265625 -3.09375 1.265625zm0 -0.96875q1.421875 0 2.296875 -0.984375q0.890625 -1.0 0.890625 -2.53125q0 -1.5625 -0.890625 -2.546875q-0.875 -0.984375 -2.296875 -0.984375q-1.40625 0 -2.296875 0.96875q-0.890625 0.96875 -0.890625 2.5625q0 1.5625 0.875 2.546875q0.875 0.96875 2.3125 0.96875zm8.383484 0.8125l0 -7.703125l-2.734375 0l0 -0.96875l6.578125 0l0 0.96875l-2.765625 0l0 7.703125l-1.078125 0z" fill-rule="nonzero"></path><path fill="#ffffff" d="m433.35486 86.14383l0 -8.671875l3.484375 0q1.234375 0 1.96875 0.75q0.75 0.734375 0.75 1.859375q0 1.15625 -0.765625 1.890625q-0.75 0.734375 -1.953125 0.734375l-2.40625 0l0 3.4375l-1.078125 0zm3.359375 -4.40625q0.765625 0 1.234375 -0.453125q0.484375 -0.453125 0.484375 -1.203125q0 -0.734375 -0.484375 -1.1875q-0.46875 -0.453125 -1.234375 -0.453125l-2.28125 0l0 3.296875l2.28125 0zm10.651703 4.40625l-0.765625 -1.921875l-4.3125 0l-0.765625 1.921875l-1.25 0l3.484375 -8.671875l1.34375 0l3.5 8.671875l-1.234375 0zm-2.921875 -7.546875l-1.84375 4.65625l3.671875 0l-1.828125 -4.65625zm10.519867 7.546875l-2.203125 -3.4375l-1.734375 0l0 3.4375l-1.078125 0l0 -8.671875l3.484375 0q1.21875 0 1.96875 0.734375q0.75 0.71875 0.75 1.875q0 1.09375 -0.640625 1.765625q-0.625 0.671875 -1.609375 0.765625l2.34375 3.53125l-1.28125 0zm-1.65625 -4.390625q0.765625 0 1.234375 -0.453125q0.484375 -0.46875 0.484375 -1.21875q0 -0.734375 -0.484375 -1.1875q-0.46875 -0.453125 -1.234375 -0.453125l-2.28125 0l0 3.3125l2.28125 0zm4.7440796 4.390625l0 -8.671875l5.671875 0l0 0.96875l-4.59375 0l0 2.796875l4.515625 0l0 0.953125l-4.515625 0l0 2.984375l4.59375 0l0 0.96875l-5.671875 0zm13.724304 0l-5.0625 -6.921875l0 6.921875l-1.078125 0l0 -8.671875l1.109375 0l4.984375 6.78125l0 -6.78125l1.078125 0l0 8.671875l-1.03125 0zm5.4362793 0l0 -7.703125l-2.734375 0l0 -0.96875l6.578125 0l0 0.96875l-2.765625 0l0 7.703125l-1.078125 0z" fill-rule="nonzero"></path><path fill="#3c78d8" d="m306.67715 163.20735l78.299225 0l0 72.88188l-78.299225 0z" fill-rule="evenodd"></path><path stroke="#434343" stroke-width="2.0" stroke-linejoin="round" stroke-linecap="butt" d="m306.67715 163.20735l78.299225 0l0 72.88188l-78.299225 0z" fill-rule="evenodd"></path><path fill="#ffffff" d="m331.79953 188.60454q-1.90625 0 -3.1875 -1.25q-1.28125 -1.265625 -1.28125 -3.234375q0 -1.96875 1.28125 -3.21875q1.28125 -1.265625 3.1875 -1.265625q2.0625 0 3.28125 1.71875l-0.90625 0.5q-0.375 -0.546875 -1.015625 -0.90625q-0.625 -0.359375 -1.359375 -0.359375q-1.453125 0 -2.40625 1.015625q-0.9375 1.0 -0.9375 2.515625q0 1.53125 0.9375 2.53125q0.953125 0.984375 2.40625 0.984375q0.734375 0 1.359375 -0.34375q0.640625 -0.359375 1.015625 -0.90625l0.921875 0.5q-1.265625 1.71875 -3.296875 1.71875zm11.041046 -0.15625l0 -3.984375l-5.0625 0l0 3.984375l-1.078125 0l0 -8.671875l1.078125 0l0 3.734375l5.0625 0l0 -3.734375l1.078125 0l0 8.671875l-1.078125 0zm3.3489685 0l0 -8.671875l1.078125 0l0 8.671875l-1.078125 0zm3.1853943 0l0 -8.671875l1.078125 0l0 7.703125l4.03125 0l0 0.96875l-5.109375 0zm6.797333 0l0 -8.671875l2.96875 0q1.96875 0 3.203125 1.234375q1.234375 1.21875 1.234375 3.109375q0 1.890625 -1.25 3.109375q-1.234375 1.21875 -3.1875 1.21875l-2.96875 0zm2.96875 -0.96875q1.46875 0 2.390625 -0.921875q0.9375 -0.9375 0.9375 -2.4375q0 -1.515625 -0.921875 -2.4375q-0.90625 -0.9375 -2.40625 -0.9375l-1.890625 0l0 6.734375l1.890625 0z" fill-rule="nonzero"></path><path fill="#ffffff" d="m323.57007 220.44829l0 -8.671875l3.484375 0q1.234375 0 1.96875 0.75q0.75 0.734375 0.75 1.859375q0 1.15625 -0.765625 1.890625q-0.75 0.734375 -1.953125 0.734375l-2.40625 0l0 3.4375l-1.078125 0zm3.359375 -4.40625q0.765625 0 1.234375 -0.453125q0.484375 -0.453125 0.484375 -1.203125q0 -0.734375 -0.484375 -1.1875q-0.46875 -0.453125 -1.234375 -0.453125l-2.28125 0l0 3.296875l2.28125 0zm10.651703 4.40625l-0.765625 -1.921875l-4.3125 0l-0.765625 1.921875l-1.25 0l3.484375 -8.671875l1.34375 0l3.5 8.671875l-1.234375 0zm-2.921875 -7.546875l-1.84375 4.65625l3.671875 0l-1.828125 -4.65625zm10.519867 7.546875l-2.203125 -3.4375l-1.734375 0l0 3.4375l-1.078125 0l0 -8.671875l3.484375 0q1.21875 0 1.96875 0.734375q0.75 0.71875 0.75 1.875q0 1.09375 -0.640625 1.765625q-0.625 0.671875 -1.609375 0.765625l2.34375 3.53125l-1.28125 0zm-1.65625 -4.390625q0.765625 0 1.234375 -0.453125q0.484375 -0.46875 0.484375 -1.21875q0 -0.734375 -0.484375 -1.1875q-0.46875 -0.453125 -1.234375 -0.453125l-2.28125 0l0 3.3125l2.28125 0zm4.74411 4.390625l0 -8.671875l5.671875 0l0 0.96875l-4.59375 0l0 2.796875l4.515625 0l0 0.953125l-4.515625 0l0 2.984375l4.59375 0l0 0.96875l-5.671875 0zm13.724304 0l-5.0625 -6.921875l0 6.921875l-1.078125 0l0 -8.671875l1.109375 0l4.984375 6.78125l0 -6.78125l1.078125 0l0 8.671875l-1.03125 0zm5.4362793 0l0 -7.703125l-2.734375 0l0 -0.96875l6.578125 0l0 0.96875l-2.765625 0l0 7.703125l-1.078125 0z" fill-rule="nonzero"></path><path fill="#3c78d8" d="m516.8819 163.23228l78.299194 0l0 72.88188l-78.299194 0z" fill-rule="evenodd"></path><path stroke="#434343" stroke-width="2.0" stroke-linejoin="round" stroke-linecap="butt" d="m516.8819 163.23228l78.299194 0l0 72.88188l-78.299194 0z" fill-rule="evenodd"></path><path fill="#ffffff" d="m541.3228 188.62947q-1.90625 0 -3.1875 -1.25q-1.28125 -1.265625 -1.28125 -3.234375q0 -1.96875 1.28125 -3.21875q1.28125 -1.265625 3.1875 -1.265625q2.0625 0 3.28125 1.71875l-0.90625 0.5q-0.375 -0.546875 -1.015625 -0.90625q-0.625 -0.359375 -1.359375 -0.359375q-1.453125 0 -2.40625 1.015625q-0.9375 1.0 -0.9375 2.515625q0 1.53125 0.9375 2.53125q0.953125 0.984375 2.40625 0.984375q0.734375 0 1.359375 -0.34375q0.640625 -0.359375 1.015625 -0.90625l0.921875 0.5q-1.265625 1.71875 -3.296875 1.71875zm11.041016 -0.15625l0 -3.984375l-5.0625 0l0 3.984375l-1.078125 0l0 -8.671875l1.078125 0l0 3.734375l5.0625 0l0 -3.734375l1.078125 0l0 8.671875l-1.078125 0zm3.348999 0l0 -8.671875l1.078125 0l0 8.671875l-1.078125 0zm3.1854248 0l0 -8.671875l1.078125 0l0 7.703125l4.03125 0l0 0.96875l-5.109375 0zm6.7973022 0l0 -8.671875l2.96875 0q1.96875 0 3.203125 1.234375q1.234375 1.21875 1.234375 3.109375q0 1.890625 -1.25 3.109375q-1.234375 1.21875 -3.1875 1.21875l-2.96875 0zm2.96875 -0.96875q1.46875 0 2.390625 -0.921875q0.9375 -0.9375 0.9375 -2.4375q0 -1.515625 -0.921875 -2.4375q-0.90625 -0.9375 -2.40625 -0.9375l-1.890625 0l0 6.734375l1.890625 0z" fill-rule="nonzero"></path><path fill="#ffffff" d="m533.7748 220.47322l0 -8.671875l3.484375 0q1.234375 0 1.96875 0.75q0.75 0.734375 0.75 1.859375q0 1.15625 -0.765625 1.890625q-0.75 0.734375 -1.953125 0.734375l-2.40625 0l0 3.4375l-1.078125 0zm3.359375 -4.40625q0.765625 0 1.234375 -0.453125q0.484375 -0.453125 0.484375 -1.203125q0 -0.734375 -0.484375 -1.1875q-0.46875 -0.453125 -1.234375 -0.453125l-2.28125 0l0 3.296875l2.28125 0zm10.651733 4.40625l-0.765625 -1.921875l-4.3125 0l-0.765625 1.921875l-1.25 0l3.484375 -8.671875l1.34375 0l3.5 8.671875l-1.234375 0zm-2.921875 -7.546875l-1.84375 4.65625l3.671875 0l-1.828125 -4.65625zm10.519836 7.546875l-2.203125 -3.4375l-1.734375 0l0 3.4375l-1.078125 0l0 -8.671875l3.484375 0q1.21875 0 1.96875 0.734375q0.75 0.71875 0.75 1.875q0 1.09375 -0.640625 1.765625q-0.625 0.671875 -1.609375 0.765625l2.34375 3.53125l-1.28125 0zm-1.65625 -4.390625q0.765625 0 1.234375 -0.453125q0.484375 -0.46875 0.484375 -1.21875q0 -0.734375 -0.484375 -1.1875q-0.46875 -0.453125 -1.234375 -0.453125l-2.28125 0l0 3.3125l2.28125 0zm4.7441406 4.390625l0 -8.671875l5.671875 0l0 0.96875l-4.59375 0l0 2.796875l4.515625 0l0 0.953125l-4.515625 0l0 2.984375l4.59375 0l0 0.96875l-5.671875 0zm13.724304 0l-5.0625 -6.921875l0 6.921875l-1.078125 0l0 -8.671875l1.109375 0l4.984375 6.78125l0 -6.78125l1.078125 0l0 8.671875l-1.03125 0zm5.4362793 0l0 -7.703125l-2.734375 0l0 -0.96875l6.578125 0l0 0.96875l-2.765625 0l0 7.703125l-1.078125 0z" fill-rule="nonzero"></path><path fill="#3c78d8" d="m250.93176 337.18372l78.299194 0l0 72.8819l-78.299194 0z" fill-rule="evenodd"></path><path stroke="#434343" stroke-width="2.0" stroke-linejoin="round" stroke-linecap="butt" d="m250.93176 337.18372l78.299194 0l0 72.8819l-78.299194 0z" fill-rule="evenodd"></path><path fill="#ffffff" d="m275.37268 378.58093q-1.90625 0 -3.1875 -1.25q-1.28125 -1.265625 -1.28125 -3.234375q0 -1.96875 1.28125 -3.21875q1.28125 -1.265625 3.1875 -1.265625q2.0625 0 3.28125 1.71875l-0.90625 0.5q-0.375 -0.546875 -1.015625 -0.90625q-0.625 -0.359375 -1.359375 -0.359375q-1.453125 0 -2.40625 1.015625q-0.9375 1.0 -0.9375 2.515625q0 1.53125 0.9375 2.53125q0.953125 0.984375 2.40625 0.984375q0.734375 0 1.359375 -0.34375q0.640625 -0.359375 1.015625 -0.90625l0.921875 0.5q-1.265625 1.71875 -3.296875 1.71875zm11.041046 -0.15625l0 -3.984375l-5.0625 0l0 3.984375l-1.078125 0l0 -8.671875l1.078125 0l0 3.734375l5.0625 0l0 -3.734375l1.078125 0l0 8.671875l-1.078125 0zm3.3489685 0l0 -8.671875l1.078125 0l0 8.671875l-1.078125 0zm3.1853943 0l0 -8.671875l1.078125 0l0 7.703125l4.03125 0l0 0.96875l-5.109375 0zm6.797333 0l0 -8.671875l2.96875 0q1.96875 0 3.203125 1.234375q1.234375 1.21875 1.234375 3.109375q0 1.890625 -1.25 3.109375q-1.234375 1.21875 -3.1875 1.21875l-2.96875 0zm2.96875 -0.96875q1.46875 0 2.390625 -0.921875q0.9375 -0.9375 0.9375 -2.4375q0 -1.515625 -0.921875 -2.4375q-0.90625 -0.9375 -2.40625 -0.9375l-1.890625 0l0 6.734375l1.890625 0z" fill-rule="nonzero"></path><path fill="#3c78d8" d="m354.4134 337.18372l78.299194 0l0 72.8819l-78.299194 0z" fill-rule="evenodd"></path><path stroke="#434343" stroke-width="2.0" stroke-linejoin="round" stroke-linecap="butt" d="m354.4134 337.18372l78.299194 0l0 72.8819l-78.299194 0z" fill-rule="evenodd"></path><path fill="#ffffff" d="m378.8543 378.58093q-1.90625 0 -3.1875 -1.25q-1.28125 -1.265625 -1.28125 -3.234375q0 -1.96875 1.28125 -3.21875q1.28125 -1.265625 3.1875 -1.265625q2.0625 0 3.28125 1.71875l-0.90625 0.5q-0.375 -0.546875 -1.015625 -0.90625q-0.625 -0.359375 -1.359375 -0.359375q-1.453125 0 -2.40625 1.015625q-0.9375 1.0 -0.9375 2.515625q0 1.53125 0.9375 2.53125q0.953125 0.984375 2.40625 0.984375q0.734375 0 1.359375 -0.34375q0.640625 -0.359375 1.015625 -0.90625l0.921875 0.5q-1.265625 1.71875 -3.296875 1.71875zm11.041046 -0.15625l0 -3.984375l-5.0625 0l0 3.984375l-1.078125 0l0 -8.671875l1.078125 0l0 3.734375l5.0625 0l0 -3.734375l1.078125 0l0 8.671875l-1.078125 0zm3.3489685 0l0 -8.671875l1.078125 0l0 8.671875l-1.078125 0zm3.1853943 0l0 -8.671875l1.078125 0l0 7.703125l4.03125 0l0 0.96875l-5.109375 0zm6.797333 0l0 -8.671875l2.96875 0q1.96875 0 3.203125 1.234375q1.234375 1.21875 1.234375 3.109375q0 1.890625 -1.25 3.109375q-1.234375 1.21875 -3.1875 1.21875l-2.96875 0zm2.96875 -0.96875q1.46875 0 2.390625 -0.921875q0.9375 -0.9375 0.9375 -2.4375q0 -1.515625 -0.921875 -2.4375q-0.90625 -0.9375 -2.40625 -0.9375l-1.890625 0l0 6.734375l1.890625 0z" fill-rule="nonzero"></path><path fill="#3c78d8" d="m469.98688 337.16797l78.299194 0l0 72.8819l-78.299194 0z" fill-rule="evenodd"></path><path stroke="#434343" stroke-width="2.0" stroke-linejoin="round" stroke-linecap="butt" d="m469.98688 337.16797l78.299194 0l0 72.8819l-78.299194 0z" fill-rule="evenodd"></path><path fill="#ffffff" d="m494.4278 378.5652q-1.90625 0 -3.1875 -1.25q-1.28125 -1.265625 -1.28125 -3.234375q0 -1.96875 1.28125 -3.21875q1.28125 -1.265625 3.1875 -1.265625q2.0625 0 3.28125 1.71875l-0.90625 0.5q-0.375 -0.546875 -1.015625 -0.90625q-0.625 -0.359375 -1.359375 -0.359375q-1.453125 0 -2.40625 1.015625q-0.9375 1.0 -0.9375 2.515625q0 1.53125 0.9375 2.53125q0.953125 0.984375 2.40625 0.984375q0.734375 0 1.359375 -0.34375q0.640625 -0.359375 1.015625 -0.90625l0.921875 0.5q-1.265625 1.71875 -3.296875 1.71875zm11.041046 -0.15625l0 -3.984375l-5.0625 0l0 3.984375l-1.078125 0l0 -8.671875l1.078125 0l0 3.734375l5.0625 0l0 -3.734375l1.078125 0l0 8.671875l-1.078125 0zm3.3489685 0l0 -8.671875l1.078125 0l0 8.671875l-1.078125 0zm3.1854248 0l0 -8.671875l1.078125 0l0 7.703125l4.03125 0l0 0.96875l-5.109375 0zm6.7973022 0l0 -8.671875l2.96875 0q1.96875 0 3.203125 1.234375q1.234375 1.21875 1.234375 3.109375q0 1.890625 -1.25 3.109375q-1.234375 1.21875 -3.1875 1.21875l-2.96875 0zm2.96875 -0.96875q1.46875 0 2.390625 -0.921875q0.9375 -0.9375 0.9375 -2.4375q0 -1.515625 -0.921875 -2.4375q-0.90625 -0.9375 -2.40625 -0.9375l-1.890625 0l0 6.734375l1.890625 0z" fill-rule="nonzero"></path><path fill="#3c78d8" d="m576.5381 337.18372l78.299194 0l0 72.8819l-78.299194 0z" fill-rule="evenodd"></path><path stroke="#434343" stroke-width="2.0" stroke-linejoin="round" stroke-linecap="butt" d="m576.5381 337.18372l78.299194 0l0 72.8819l-78.299194 0z" fill-rule="evenodd"></path><path fill="#ffffff" d="m600.979 378.58093q-1.90625 0 -3.1875 -1.25q-1.28125 -1.265625 -1.28125 -3.234375q0 -1.96875 1.28125 -3.21875q1.28125 -1.265625 3.1875 -1.265625q2.0625 0 3.28125 1.71875l-0.90625 0.5q-0.375 -0.546875 -1.015625 -0.90625q-0.625 -0.359375 -1.359375 -0.359375q-1.453125 0 -2.40625 1.015625q-0.9375 1.0 -0.9375 2.515625q0 1.53125 0.9375 2.53125q0.953125 0.984375 2.40625 0.984375q0.734375 0 1.359375 -0.34375q0.640625 -0.359375 1.015625 -0.90625l0.921875 0.5q-1.265625 1.71875 -3.296875 1.71875zm11.041016 -0.15625l0 -3.984375l-5.0625 0l0 3.984375l-1.078125 0l0 -8.671875l1.078125 0l0 3.734375l5.0625 0l0 -3.734375l1.078125 0l0 8.671875l-1.078125 0zm3.348999 0l0 -8.671875l1.078125 0l0 8.671875l-1.078125 0zm3.1853638 0l0 -8.671875l1.078125 0l0 7.703125l4.03125 0l0 0.96875l-5.109375 0zm6.7973633 0l0 -8.671875l2.96875 0q1.96875 0 3.203125 1.234375q1.234375 1.21875 1.234375 3.109375q0 1.890625 -1.25 3.109375q-1.234375 1.21875 -3.1875 1.21875l-2.96875 0zm2.96875 -0.96875q1.46875 0 2.390625 -0.921875q0.9375 -0.9375 0.9375 -2.4375q0 -1.515625 -0.921875 -2.4375q-0.90625 -0.9375 -2.40625 -0.9375l-1.890625 0l0 6.734375l1.890625 0z" fill-rule="nonzero"></path><path fill="#000000" fill-opacity="0.0" d="m306.67715 201.44882l78.299225 0" fill-rule="evenodd"></path><path stroke="#ffffff" stroke-width="2.0" stroke-linejoin="round" stroke-linecap="butt" d="m306.67715 201.44882l78.299225 0" fill-rule="evenodd"></path><path fill="#000000" fill-opacity="0.0" d="m516.8819 199.44882l78.299194 0" fill-rule="evenodd"></path><path stroke="#ffffff" stroke-width="2.0" stroke-linejoin="round" stroke-linecap="butt" d="m516.8819 199.44882l78.299194 0" fill-rule="evenodd"></path><path fill="#000000" fill-opacity="0.0" d="m416.46194 65.34908l78.299225 0" fill-rule="evenodd"></path><path stroke="#ffffff" stroke-width="2.0" stroke-linejoin="round" stroke-linecap="butt" d="m416.46194 65.34908l78.299225 0" fill-rule="evenodd"></path></g></svg>

