<?xml version="1.0" standalone="yes"?>

<svg version="1.1" viewBox="0.0 0.0 960.0 540.0" fill="none" stroke="none" stroke-linecap="square" stroke-miterlimit="10" xmlns="http://www.w3.org/2000/svg" xmlns:xlink="http://www.w3.org/1999/xlink"><clipPath id="g25e5570c15_0_13.0"><path d="m0 0l960.0 0l0 540.0l-960.0 0l0 -540.0z" clip-rule="nonzero"></path></clipPath><g clip-path="url(#g25e5570c15_0_13.0)"><path fill="#ffffff" d="m0 0l960.0 0l0 540.0l-960.0 0z" fill-rule="evenodd"></path><path fill="#3c78d8" d="m182.99475 90.88189l78.299225 0l0 72.91338l-78.299225 0z" fill-rule="evenodd"></path><path stroke="#434343" stroke-width="2.0" stroke-linejoin="round" stroke-linecap="butt" d="m182.99475 90.88189l78.299225 0l0 72.91338l-78.299225 0z" fill-rule="evenodd"></path><path fill="#ffffff" d="m196.276 124.71921q-1.671875 0 -2.796875 -1.0625q-1.109375 -1.0625 -1.109375 -2.734375q0 -1.671875 1.09375 -2.734375q1.109375 -1.0625 2.8125 -1.0625q2.0 0 3.03125 1.640625l-1.296875 0.703125q-0.25 -0.390625 -0.703125 -0.671875q-0.4375 -0.296875 -1.03125 -0.296875q-1.0 0 -1.65625 0.6875q-0.640625 0.6875 -0.640625 1.734375q0 1.0625 0.65625 1.734375q0.65625 0.671875 1.640625 0.671875q0.5 0 0.921875 -0.171875q0.421875 -0.1875 0.640625 -0.390625l0 -0.875l-1.9375 0l0 -1.375l3.5 0l0 2.8125q-1.25 1.390625 -3.125 1.390625zm4.078827 -0.140625l0 -5.3125l1.40625 0l0 0.71875q0.28125 -0.34375 0.734375 -0.59375q0.453125 -0.25 0.953125 -0.25l0 1.359375l-0.375 -0.03125q-0.375 0 -0.765625 0.171875q-0.375 0.171875 -0.546875 0.421875l0 3.515625l-1.40625 0zm7.0394135 0l0 -0.546875q-0.59375 0.671875 -1.6875 0.671875q-0.765625 0 -1.3125 -0.484375q-0.53125 -0.484375 -0.53125 -1.265625q0 -0.78125 0.5 -1.25q0.515625 -0.46875 1.34375 -0.46875q1.140625 0 1.6875 0.65625l0 -0.71875q0 -0.40625 -0.328125 -0.640625q-0.3125 -0.25 -0.84375 -0.25q-0.875 0 -1.546875 0.625l-0.53125 -0.9375q0.96875 -0.828125 2.3125 -0.828125q1.125 0 1.71875 0.515625q0.609375 0.515625 0.609375 1.484375l0 3.4375l-1.390625 0zm-1.125 -0.8125q0.765625 0 1.125 -0.46875l0 -0.65625q-0.359375 -0.453125 -1.125 -0.453125q-0.421875 0 -0.71875 0.203125q-0.28125 0.203125 -0.28125 0.59375q0 0.375 0.28125 0.578125q0.296875 0.203125 0.71875 0.203125zm7.3020325 0.8125l0 -3.21875q0 -0.984375 -0.984375 -0.984375q-0.75 0 -1.203125 0.625l0 3.578125l-1.40625 0l0 -5.3125l1.40625 0l0 0.6875q0.25 -0.296875 0.71875 -0.546875q0.46875 -0.265625 1.140625 -0.265625q0.875 0 1.296875 0.453125q0.421875 0.453125 0.421875 1.234375l0 3.75l-1.390625 0zm6.2325287 0l0 -0.6875q-0.65625 0.8125 -1.640625 0.8125q-1.046875 0 -1.703125 -0.75q-0.640625 -0.765625 -0.640625 -2.03125q0 -1.25 0.640625 -2.015625q0.65625 -0.765625 1.703125 -0.765625q1.0 0 1.640625 0.8125l0 -2.71875l1.40625 0l0 7.34375l-1.40625 0zm-1.203125 -1.109375q0.34375 0 0.6875 -0.171875q0.34375 -0.171875 0.515625 -0.4375l0 -1.875q-0.171875 -0.265625 -0.515625 -0.4375q-0.34375 -0.171875 -0.6875 -0.171875q-0.59375 0 -0.96875 0.4375q-0.375 0.421875 -0.375 1.109375q0 0.671875 0.359375 1.109375q0.359375 0.4375 0.984375 0.4375zm6.994629 1.109375l0 -0.546875q-0.59375 0.671875 -1.6875 0.671875q-0.765625 0 -1.3125 -0.484375q-0.53125 -0.484375 -0.53125 -1.265625q0 -0.78125 0.5 -1.25q0.515625 -0.46875 1.34375 -0.46875q1.140625 0 1.6875 0.65625l0 -0.71875q0 -0.40625 -0.328125 -0.640625q-0.3125 -0.25 -0.84375 -0.25q-0.875 0 -1.546875 0.625l-0.53125 -0.9375q0.96875 -0.828125 2.3125 -0.828125q1.125 0 1.71875 0.515625q0.609375 0.515625 0.609375 1.484375l0 3.4375l-1.390625 0zm-1.125 -0.8125q0.765625 0 1.125 -0.46875l0 -0.65625q-0.359375 -0.453125 -1.125 -0.453125q-0.421875 0 -0.71875 0.203125q-0.28125 0.203125 -0.28125 0.59375q0 0.375 0.28125 0.578125q0.296875 0.203125 0.71875 0.203125zm7.3645325 0.8125l0 -0.6875q-0.65625 0.8125 -1.640625 0.8125q-1.046875 0 -1.703125 -0.75q-0.640625 -0.765625 -0.640625 -2.03125q0 -1.25 0.640625 -2.015625q0.65625 -0.765625 1.703125 -0.765625q1.0 0 1.640625 0.8125l0 -2.71875l1.40625 0l0 7.34375l-1.40625 0zm-1.203125 -1.109375q0.34375 0 0.6875 -0.171875q0.34375 -0.171875 0.515625 -0.4375l0 -1.875q-0.171875 -0.265625 -0.515625 -0.4375q-0.34375 -0.171875 -0.6875 -0.171875q-0.59375 0 -0.96875 0.4375q-0.375 0.421875 -0.375 1.109375q0 0.671875 0.359375 1.109375q0.359375 0.4375 0.984375 0.4375z" fill-rule="nonzero"></path><path fill="#ffffff" d="m192.85413 137.57858l0 -7.34375l4.8125 0l0 0.828125l-3.90625 0l0 2.359375l3.828125 0l0 0.8125l-3.828125 0l0 2.53125l3.90625 0l0 0.8125l-4.8125 0zm12.438461 0l0 -3.609375q0 -1.09375 -0.96875 -1.09375q-0.421875 0 -0.8125 0.25q-0.390625 0.234375 -0.609375 0.5625l0 3.890625l-0.8125 0l0 -3.609375q0 -1.09375 -0.984375 -1.09375q-0.40625 0 -0.796875 0.25q-0.375 0.25 -0.59375 0.5625l0 3.890625l-0.828125 0l0 -5.3125l0.828125 0l0 0.765625q0.1875 -0.3125 0.703125 -0.59375q0.515625 -0.296875 1.0 -0.296875q0.625 0 0.96875 0.28125q0.34375 0.28125 0.46875 0.703125q0.28125 -0.4375 0.78125 -0.703125q0.5 -0.28125 1.0 -0.28125q1.484375 0 1.484375 1.59375l0 3.84375l-0.828125 0zm8.610336 0l0 -3.609375q0 -1.09375 -0.96875 -1.09375q-0.421875 0 -0.8125 0.25q-0.390625 0.234375 -0.609375 0.5625l0 3.890625l-0.8125 0l0 -3.609375q0 -1.09375 -0.984375 -1.09375q-0.40625 0 -0.796875 0.25q-0.375 0.25 -0.59375 0.5625l0 3.890625l-0.828125 0l0 -5.3125l0.828125 0l0 0.765625q0.1875 -0.3125 0.703125 -0.59375q0.515625 -0.296875 1.0 -0.296875q0.625 0 0.96875 0.28125q0.34375 0.28125 0.46875 0.703125q0.28125 -0.4375 0.78125 -0.703125q0.5 -0.28125 1.0 -0.28125q1.484375 0 1.484375 1.59375l0 3.84375l-0.828125 0zm4.5947113 0.125q-1.1875 0 -1.953125 -0.78125q-0.75 -0.78125 -0.75 -2.0q0 -1.1875 0.75 -1.984375q0.75 -0.796875 1.875 -0.796875q1.140625 0 1.84375 0.796875q0.703125 0.78125 0.703125 2.046875l0 0.203125l-4.296875 0q0.046875 0.8125 0.578125 1.328125q0.546875 0.515625 1.328125 0.515625q0.96875 0 1.640625 -0.671875l0.390625 0.53125q-0.8125 0.8125 -2.109375 0.8125zm1.65625 -3.109375q0 -0.75 -0.484375 -1.265625q-0.484375 -0.515625 -1.265625 -0.515625q-0.734375 0 -1.234375 0.515625q-0.484375 0.515625 -0.5 1.265625l3.484375 0zm5.530777 2.984375l0 -3.46875q0 -0.71875 -0.328125 -0.96875q-0.3125 -0.265625 -0.859375 -0.265625q-0.453125 0 -0.90625 0.25q-0.4375 0.234375 -0.65625 0.5625l0 3.890625l-0.828125 0l0 -5.3125l0.828125 0l0 0.765625q0.328125 -0.390625 0.828125 -0.640625q0.5 -0.25 1.0625 -0.25q1.6875 0 1.6875 1.703125l0 3.734375l-0.828125 0z" fill-rule="nonzero"></path><path fill="#3c78d8" d="m533.1575 214.19685l78.299194 0l0 72.88188l-78.299194 0z" fill-rule="evenodd"></path><path stroke="#434343" stroke-width="2.0" stroke-linejoin="round" stroke-linecap="butt" d="m533.1575 214.19685l78.299194 0l0 72.88188l-78.299194 0z" fill-rule="evenodd"></path><path fill="#ffffff" d="m549.26685 247.87779l0 -5.140625l-2.078125 5.140625l-0.671875 0l-2.078125 -5.140625l0 5.140625l-1.5625 0l0 -7.34375l2.203125 0l1.78125 4.4375l1.78125 -4.4375l2.1875 0l0 7.34375l-1.5625 0zm5.158081 0.125q-1.234375 0 -2.015625 -0.78125q-0.78125 -0.796875 -0.78125 -2.0q0 -1.21875 0.78125 -2.0q0.78125 -0.78125 2.015625 -0.78125q1.234375 0 2.015625 0.78125q0.796875 0.78125 0.796875 2.0q0 1.21875 -0.796875 2.0q-0.78125 0.78125 -2.015625 0.78125zm0 -1.234375q0.609375 0 0.984375 -0.4375q0.375 -0.4375 0.375 -1.109375q0 -0.671875 -0.375 -1.109375q-0.375 -0.4375 -0.984375 -0.4375q-0.578125 0 -0.96875 0.421875q-0.390625 0.421875 -0.390625 1.125q0 0.703125 0.390625 1.125q0.390625 0.421875 0.96875 0.421875zm10.24176 1.109375l0 -3.359375q0 -0.84375 -0.796875 -0.84375q-0.375 0 -0.65625 0.203125q-0.28125 0.1875 -0.4375 0.40625l0 3.59375l-1.40625 0l0 -3.359375q0 -0.84375 -0.796875 -0.84375q-0.359375 0 -0.65625 0.203125q-0.28125 0.203125 -0.4375 0.421875l0 3.578125l-1.40625 0l0 -5.3125l1.40625 0l0 0.6875q0.1875 -0.296875 0.6875 -0.546875q0.515625 -0.265625 1.046875 -0.265625q1.15625 0 1.46875 0.953125q0.265625 -0.40625 0.765625 -0.671875q0.5 -0.28125 1.0625 -0.28125q1.5625 0 1.5625 1.59375l0 3.84375l-1.40625 0z" fill-rule="nonzero"></path><path fill="#ffffff" d="m543.01685 260.8778l0 -7.3437653l2.5 0q1.671875 0 2.71875 1.046875q1.046875 1.03125 1.046875 2.6406403q0 1.59375 -1.046875 2.625q-1.046875 1.03125 -2.71875 1.03125l-2.5 0zm2.5 -0.8125q1.265625 0 2.046875 -0.78125q0.78125 -0.796875 0.78125 -2.0625q0 -1.2812653 -0.78125 -2.0625153q-0.765625 -0.796875 -2.046875 -0.796875l-1.59375 0l0 5.7031403l1.59375 0zm7.3188477 0.9375q-1.1875 0 -1.953125 -0.78125q-0.75 -0.78125 -0.75 -2.0q0 -1.1875 0.75 -1.984375q0.75 -0.79689026 1.875 -0.79689026q1.140625 0 1.84375 0.79689026q0.703125 0.78125 0.703125 2.046875l0 0.203125l-4.296875 0q0.046875 0.8125 0.578125 1.328125q0.546875 0.515625 1.328125 0.515625q0.96875 0 1.640625 -0.671875l0.390625 0.53125q-0.8125 0.8125 -2.109375 0.8125zm1.65625 -3.109375q0 -0.75 -0.484375 -1.265625q-0.484375 -0.515625 -1.265625 -0.515625q-0.734375 0 -1.234375 0.515625q-0.484375 0.515625 -0.5 1.265625l3.484375 0zm1.9526367 2.984375l0 -7.3437653l0.828125 0l0 7.3437653l-0.828125 0zm2.63208 0l0 -4.59375l-0.890625 0l0 -0.71876526l0.890625 0l0 -0.40625q0 -0.828125 0.40625 -1.28125q0.40625 -0.453125 1.125 -0.453125q0.671875 0 1.125 0.40625l-0.34375 0.546875q-0.28125 -0.265625 -0.65625 -0.265625q-0.84375 0 -0.84375 1.046875l0 0.40625l1.078125 0l0 0.71876526l-1.078125 0l0 4.59375l-0.8125 0zm4.125122 0.125q-1.1875 0 -1.1875 -1.234375l0 -3.484375l-0.875 0l0 -0.71876526l0.875 0l0 -1.453125l0.828125 0l0 1.453125l1.078125 0l0 0.71876526l-1.078125 0l0 3.3125q0 0.296875 0.125 0.484375q0.140625 0.1875 0.421875 0.1875q0.328125 0 0.5625 -0.21875l0.234375 0.625q-0.34375 0.328125 -0.984375 0.328125z" fill-rule="nonzero"></path><path fill="#3c78d8" d="m261.29398 214.19685l78.299194 0l0 72.88188l-78.299194 0z" fill-rule="evenodd"></path><path stroke="#434343" stroke-width="2.0" stroke-linejoin="round" stroke-linecap="butt" d="m261.29398 214.19685l78.299194 0l0 72.88188l-78.299194 0z" fill-rule="evenodd"></path><path fill="#ffffff" d="m271.01273 247.87779l0 -7.34375l2.90625 0q1.734375 0 2.8125 1.015625q1.078125 1.015625 1.078125 2.671875q0 1.625 -1.078125 2.640625q-1.078125 1.015625 -2.8125 1.015625l-2.90625 0zm2.90625 -1.375q1.015625 0 1.65625 -0.640625q0.640625 -0.640625 0.640625 -1.640625q0 -1.046875 -0.609375 -1.671875q-0.609375 -0.640625 -1.6875 -0.640625l-1.34375 0l0 4.59375l1.34375 0zm7.91687 1.375l0 -0.546875q-0.59375 0.671875 -1.6875 0.671875q-0.765625 0 -1.3125 -0.484375q-0.53125 -0.484375 -0.53125 -1.265625q0 -0.78125 0.5 -1.25q0.515625 -0.46875 1.34375 -0.46875q1.140625 0 1.6875 0.65625l0 -0.71875q0 -0.40625 -0.328125 -0.640625q-0.3125 -0.25 -0.84375 -0.25q-0.875 0 -1.546875 0.625l-0.53125 -0.9375q0.96875 -0.828125 2.3125 -0.828125q1.125 0 1.71875 0.515625q0.609375 0.515625 0.609375 1.484375l0 3.4375l-1.390625 0zm-1.125 -0.8125q0.765625 0 1.125 -0.46875l0 -0.65625q-0.359375 -0.453125 -1.125 -0.453125q-0.421875 0 -0.71875 0.203125q-0.28125 0.203125 -0.28125 0.59375q0 0.375 0.28125 0.578125q0.296875 0.203125 0.71875 0.203125zm7.3645325 0.8125l0 -0.6875q-0.65625 0.8125 -1.640625 0.8125q-1.046875 0 -1.703125 -0.75q-0.640625 -0.765625 -0.640625 -2.03125q0 -1.25 0.640625 -2.015625q0.65625 -0.765625 1.703125 -0.765625q1.0 0 1.640625 0.8125l0 -2.71875l1.40625 0l0 7.34375l-1.40625 0zm-1.203125 -1.109375q0.34375 0 0.6875 -0.171875q0.34375 -0.171875 0.515625 -0.4375l0 -1.875q-0.171875 -0.265625 -0.515625 -0.4375q-0.34375 -0.171875 -0.6875 -0.171875q-0.59375 0 -0.96875 0.4375q-0.375 0.421875 -0.375 1.109375q0 0.671875 0.359375 1.109375q0.359375 0.4375 0.984375 0.4375z" fill-rule="nonzero"></path><path fill="#ffffff" d="m271.15335 260.8778l0 -7.3437653l2.5 0q1.671875 0 2.71875 1.046875q1.046875 1.03125 1.046875 2.6406403q0 1.59375 -1.046875 2.625q-1.046875 1.03125 -2.71875 1.03125l-2.5 0zm2.5 -0.8125q1.265625 0 2.046875 -0.78125q0.78125 -0.796875 0.78125 -2.0625q0 -1.2812653 -0.78125 -2.0625153q-0.765625 -0.796875 -2.046875 -0.796875l-1.59375 0l0 5.7031403l1.59375 0zm7.318817 0.9375q-1.1875 0 -1.953125 -0.78125q-0.75 -0.78125 -0.75 -2.0q0 -1.1875 0.75 -1.984375q0.75 -0.79689026 1.875 -0.79689026q1.140625 0 1.84375 0.79689026q0.703125 0.78125 0.703125 2.046875l0 0.203125l-4.296875 0q0.046875 0.8125 0.578125 1.328125q0.546875 0.515625 1.328125 0.515625q0.96875 0 1.640625 -0.671875l0.390625 0.53125q-0.8125 0.8125 -2.109375 0.8125zm1.65625 -3.109375q0 -0.75 -0.484375 -1.265625q-0.484375 -0.515625 -1.265625 -0.515625q-0.734375 0 -1.234375 0.515625q-0.484375 0.515625 -0.5 1.265625l3.484375 0zm1.9526672 2.984375l0 -7.3437653l0.828125 0l0 7.3437653l-0.828125 0zm2.6320496 0l0 -4.59375l-0.890625 0l0 -0.71876526l0.890625 0l0 -0.40625q0 -0.828125 0.40625 -1.28125q0.40625 -0.453125 1.125 -0.453125q0.671875 0 1.125 0.40625l-0.34375 0.546875q-0.28125 -0.265625 -0.65625 -0.265625q-0.84375 0 -0.84375 1.046875l0 0.40625l1.078125 0l0 0.71876526l-1.078125 0l0 4.59375l-0.8125 0zm4.125122 0.125q-1.1875 0 -1.1875 -1.234375l0 -3.484375l-0.875 0l0 -0.71876526l0.875 0l0 -1.453125l0.828125 0l0 1.453125l1.078125 0l0 0.71876526l-1.078125 0l0 3.3125q0 0.296875 0.125 0.484375q0.140625 0.1875 0.421875 0.1875q0.328125 0 0.5625 -0.21875l0.234375 0.625q-0.34375 0.328125 -0.984375 0.328125z" fill-rule="nonzero"></path><path fill="#3c78d8" d="m844.1706 136.8084l78.299194 0l0 72.8819l-78.299194 0z" fill-rule="evenodd"></path><path stroke="#434343" stroke-width="2.0" stroke-linejoin="round" stroke-linecap="butt" d="m844.1706 136.8084l78.299194 0l0 72.8819l-78.299194 0z" fill-rule="evenodd"></path><path fill="#ffffff" d="m857.20184 170.61435q-1.5625 0 -2.4375 -0.796875q-0.875 -0.796875 -0.875 -2.25l0 -4.421875l1.59375 0l0 4.359375q0 0.765625 0.421875 1.25q0.4375 0.484375 1.296875 0.484375q0.859375 0 1.28125 -0.484375q0.4375 -0.484375 0.4375 -1.25l0 -4.359375l1.59375 0l0 4.40625q0 1.453125 -0.859375 2.265625q-0.859375 0.796875 -2.453125 0.796875zm8.061096 -0.125l0 -3.21875q0 -0.984375 -0.984375 -0.984375q-0.75 0 -1.203125 0.625l0 3.578125l-1.40625 0l0 -5.3125l1.40625 0l0 0.6875q0.25 -0.296875 0.71875 -0.546875q0.46875 -0.265625 1.140625 -0.265625q0.875 0 1.296875 0.453125q0.421875 0.453125 0.421875 1.234375l0 3.75l-1.390625 0zm5.060669 0.125q-1.265625 0 -2.046875 -0.78125q-0.765625 -0.796875 -0.765625 -2.0q0 -1.203125 0.765625 -1.984375q0.78125 -0.796875 2.046875 -0.796875q0.8125 0 1.3125 0.296875q0.515625 0.296875 0.78125 0.65625l-0.90625 0.859375q-0.390625 -0.578125 -1.125 -0.578125q-0.640625 0 -1.046875 0.421875q-0.390625 0.421875 -0.390625 1.125q0 0.6875 0.390625 1.125q0.40625 0.421875 1.046875 0.421875q0.71875 0 1.125 -0.578125l0.90625 0.84375q-0.265625 0.375 -0.78125 0.671875q-0.5 0.296875 -1.3125 0.296875zm2.83313 -0.125l0 -7.34375l1.40625 0l0 7.34375l-1.40625 0zm5.196106 0.125q-1.25 0 -2.046875 -0.765625q-0.78125 -0.78125 -0.78125 -2.015625q0 -1.1875 0.78125 -1.984375q0.78125 -0.796875 1.96875 -0.796875q1.171875 0 1.90625 0.8125q0.75 0.796875 0.75 2.109375l0 0.296875l-3.953125 0q0.0625 0.515625 0.453125 0.875q0.390625 0.359375 1.078125 0.359375q0.328125 0 0.734375 -0.125q0.40625 -0.140625 0.6875 -0.390625l0.609375 0.890625q-0.390625 0.375 -0.984375 0.5625q-0.578125 0.171875 -1.203125 0.171875zm1.21875 -3.28125q-0.03125 -0.53125 -0.390625 -0.84375q-0.359375 -0.328125 -0.90625 -0.328125q-0.5625 0 -0.921875 0.34375q-0.34375 0.328125 -0.390625 0.828125l2.609375 0z" fill-rule="nonzero"></path><path fill="#ffffff" d="m857.4987 183.62997q-1.609375 0 -2.6875 -1.078125q-1.078125 -1.09375 -1.078125 -2.71875q0 -1.671875 1.078125 -2.734375q1.09375 -1.0625 2.6875 -1.0625q1.734375 0 2.859375 1.375l-0.734375 0.453125q-0.34375 -0.453125 -0.90625 -0.734375q-0.546875 -0.28125 -1.21875 -0.28125q-1.21875 0 -2.03125 0.84375q-0.796875 0.84375 -0.796875 2.140625q0 1.296875 0.8125 2.140625q0.8125 0.84375 2.015625 0.84375q0.5625 0 1.078125 -0.203125q0.53125 -0.21875 0.890625 -0.59375l0 -1.484375l-2.515625 0l0 -0.8125l3.4375 0l0 2.640625q-1.140625 1.265625 -2.890625 1.265625zm6.4104614 -0.015625q-1.15625 0 -1.890625 -0.78125q-0.734375 -0.78125 -0.734375 -2.0q0 -1.234375 0.734375 -2.0q0.734375 -0.78125 1.890625 -0.78125q1.15625 0 1.890625 0.78125q0.75 0.765625 0.75 2.0q0 1.21875 -0.75 2.0q-0.734375 0.78125 -1.890625 0.78125zm0 -0.734375q0.78125 0 1.265625 -0.578125q0.5 -0.578125 0.5 -1.46875q0 -0.890625 -0.5 -1.46875q-0.484375 -0.578125 -1.265625 -0.578125q-0.765625 0 -1.265625 0.578125q-0.5 0.5625 -0.5 1.46875q0 0.90625 0.484375 1.484375q0.5 0.5625 1.28125 0.5625zm7.361084 0.609375l0 -0.75q-0.296875 0.359375 -0.796875 0.625q-0.5 0.25 -1.09375 0.25q-1.6875 0 -1.6875 -1.6875l0 -3.75l0.828125 0l0 3.5q0 0.625 0.28125 0.921875q0.28125 0.28125 0.90625 0.28125q0.484375 0 0.90625 -0.234375q0.4375 -0.25 0.65625 -0.5625l0 -3.90625l0.828125 0l0 5.3125l-0.828125 0zm6.137268 0l0 -0.796875q-0.296875 0.40625 -0.765625 0.671875q-0.46875 0.25 -1.03125 0.25q-1.0625 0 -1.71875 -0.75q-0.640625 -0.765625 -0.640625 -2.03125q0 -1.265625 0.65625 -2.015625q0.65625 -0.765625 1.703125 -0.765625q0.546875 0 1.015625 0.25q0.46875 0.234375 0.78125 0.671875l0 -2.828125l0.828125 0l0 7.34375l-0.828125 0zm-1.59375 -0.609375q0.5 0 0.9375 -0.234375q0.4375 -0.25 0.65625 -0.59375l0 -2.40625q-0.21875 -0.359375 -0.65625 -0.609375q-0.4375 -0.25 -0.9375 -0.25q-0.765625 0 -1.234375 0.5625q-0.46875 0.546875 -0.46875 1.484375q0 0.921875 0.453125 1.484375q0.46875 0.5625 1.25 0.5625zm7.1899414 0.609375l0 -0.609375q-0.671875 0.734375 -1.75 0.734375q-0.8125 0 -1.34375 -0.5q-0.515625 -0.5 -0.515625 -1.25q0 -0.765625 0.515625 -1.25q0.53125 -0.5 1.34375 -0.5q1.140625 0 1.75 0.71875l0 -0.953125q0 -0.53125 -0.375 -0.828125q-0.375 -0.296875 -0.953125 -0.296875q-0.9375 0 -1.640625 0.734375l-0.375 -0.5625q0.84375 -0.875 2.125 -0.875q0.96875 0 1.5 0.46875q0.546875 0.46875 0.546875 1.3125l0 3.65625l-0.828125 0zm-1.453125 -0.46875q0.96875 0 1.453125 -0.65625l0 -1.0q-0.484375 -0.65625 -1.453125 -0.65625q-0.59375 0 -0.953125 0.328125q-0.359375 0.3125 -0.359375 0.84375q0 0.5 0.359375 0.828125q0.359375 0.3125 0.953125 0.3125z" fill-rule="nonzero"></path><path fill="#3c78d8" d="m731.2244 136.8084l78.299194 0l0 72.8819l-78.299194 0z" fill-rule="evenodd"></path><path stroke="#434343" stroke-width="2.0" stroke-linejoin="round" stroke-linecap="butt" d="m731.2244 136.8084l78.299194 0l0 72.8819l-78.299194 0z" fill-rule="evenodd"></path><path fill="#ffffff" d="m746.0057 170.48935l-3.5 -4.78125l0 4.78125l-1.5625 0l0 -7.34375l1.609375 0l3.40625 4.609375l0 -4.609375l1.5625 0l0 7.34375l-1.515625 0zm3.3778076 -5.890625q-0.34375 0 -0.59375 -0.234375q-0.25 -0.25 -0.25 -0.59375q0 -0.359375 0.25 -0.59375q0.25 -0.234375 0.59375 -0.234375q0.34375 0 0.578125 0.234375q0.25 0.234375 0.25 0.59375q0 0.34375 -0.25 0.59375q-0.234375 0.234375 -0.578125 0.234375zm-0.703125 5.890625l0 -5.3125l1.40625 0l0 5.3125l-1.40625 0zm5.180481 0.125q-1.265625 0 -2.046875 -0.78125q-0.765625 -0.796875 -0.765625 -2.0q0 -1.203125 0.765625 -1.984375q0.78125 -0.796875 2.046875 -0.796875q0.8125 0 1.3125 0.296875q0.515625 0.296875 0.78125 0.65625l-0.90625 0.859375q-0.390625 -0.578125 -1.125 -0.578125q-0.640625 0 -1.046875 0.421875q-0.390625 0.421875 -0.390625 1.125q0 0.6875 0.390625 1.125q0.40625 0.421875 1.046875 0.421875q0.71875 0 1.125 -0.578125l0.90625 0.84375q-0.265625 0.375 -0.78125 0.671875q-0.5 0.296875 -1.3125 0.296875zm5.33313 0q-1.25 0 -2.046875 -0.765625q-0.78125 -0.78125 -0.78125 -2.015625q0 -1.1875 0.78125 -1.984375q0.78125 -0.796875 1.96875 -0.796875q1.171875 0 1.90625 0.8125q0.75 0.796875 0.75 2.109375l0 0.296875l-3.953125 0q0.0625 0.515625 0.453125 0.875q0.390625 0.359375 1.078125 0.359375q0.328125 0 0.734375 -0.125q0.40625 -0.140625 0.6875 -0.390625l0.609375 0.890625q-0.390625 0.375 -0.984375 0.5625q-0.578125 0.171875 -1.203125 0.171875zm1.21875 -3.28125q-0.03125 -0.53125 -0.390625 -0.84375q-0.359375 -0.328125 -0.90625 -0.328125q-0.5625 0 -0.921875 0.34375q-0.34375 0.328125 -0.390625 0.828125l2.609375 0zm9.995972 3.15625l-0.453125 -1.25l-3.140625 0l-0.453125 1.25l-1.796875 0l2.84375 -7.34375l1.953125 0l2.828125 7.34375l-1.78125 0zm-2.015625 -5.78125l-1.140625 3.15625l2.28125 0l-1.140625 -3.15625zm7.8045654 5.78125l0 -0.671875q-0.71875 0.796875 -1.875 0.796875q-0.875 0 -1.296875 -0.4375q-0.421875 -0.453125 -0.421875 -1.234375l0 -3.765625l1.40625 0l0 3.21875q0 0.984375 0.96875 0.984375q0.71875 0 1.21875 -0.609375l0 -3.59375l1.390625 0l0 5.3125l-1.390625 0zm6.170044 0l0 -3.21875q0 -0.984375 -0.984375 -0.984375q-0.75 0 -1.203125 0.625l0 3.578125l-1.40625 0l0 -5.3125l1.40625 0l0 0.6875q0.25 -0.296875 0.71875 -0.546875q0.46875 -0.265625 1.140625 -0.265625q0.875 0 1.296875 0.453125q0.421875 0.453125 0.421875 1.234375l0 3.75l-1.390625 0zm4.357544 0.125q-1.5 0 -1.5 -1.4375l0 -2.78125l-0.875 0l0 -1.21875l0.875 0l0 -1.453125l1.40625 0l0 1.453125l1.078125 0l0 1.21875l-1.078125 0l0 2.40625q0 0.25 0.125 0.421875q0.125 0.15625 0.359375 0.15625q0.328125 0 0.484375 -0.15625l0.296875 1.0625q-0.359375 0.328125 -1.171875 0.328125z" fill-rule="nonzero"></path><path fill="#ffffff" d="m746.2869 183.48935l0 -3.359375l-4.296875 0l0 3.359375l-0.90625 0l0 -7.34375l0.90625 0l0 3.15625l4.296875 0l0 -3.15625l0.90625 0l0 7.34375l-0.90625 0zm4.7435303 0.125q-1.1875 0 -1.953125 -0.78125q-0.75 -0.78125 -0.75 -2.0q0 -1.1875 0.75 -1.984375q0.75 -0.796875 1.875 -0.796875q1.140625 0 1.84375 0.796875q0.703125 0.78125 0.703125 2.046875l0 0.203125l-4.296875 0q0.046875 0.8125 0.578125 1.328125q0.546875 0.515625 1.328125 0.515625q0.96875 0 1.640625 -0.671875l0.390625 0.53125q-0.8125 0.8125 -2.109375 0.8125zm1.65625 -3.109375q0 -0.75 -0.484375 -1.265625q-0.484375 -0.515625 -1.265625 -0.515625q-0.734375 0 -1.234375 0.515625q-0.484375 0.515625 -0.5 1.265625l3.484375 0zm4.3433228 3.109375q-1.1875 0 -1.953125 -0.78125q-0.75 -0.78125 -0.75 -2.0q0 -1.1875 0.75 -1.984375q0.75 -0.796875 1.875 -0.796875q1.140625 0 1.84375 0.796875q0.703125 0.78125 0.703125 2.046875l0 0.203125l-4.296875 0q0.046875 0.8125 0.578125 1.328125q0.546875 0.515625 1.328125 0.515625q0.96875 0 1.640625 -0.671875l0.390625 0.53125q-0.8125 0.8125 -2.109375 0.8125zm1.65625 -3.109375q0 -0.75 -0.484375 -1.265625q-0.484375 -0.515625 -1.265625 -0.515625q-0.734375 0 -1.234375 0.515625q-0.484375 0.515625 -0.5 1.265625l3.484375 0zm1.9526367 2.984375l0 -5.3125l0.828125 0l0 0.859375q0.734375 -0.96875 1.765625 -0.96875l0 0.84375l-0.328125 -0.03125q-0.375 0 -0.828125 0.28125q-0.453125 0.265625 -0.609375 0.5625l0 3.765625l-0.828125 0zm3.5166016 0l0 -7.34375l0.828125 0l0 7.34375l-0.828125 0zm4.788269 0.125q-1.1875 0 -1.953125 -0.78125q-0.75 -0.78125 -0.75 -2.0q0 -1.1875 0.75 -1.984375q0.75 -0.796875 1.875 -0.796875q1.140625 0 1.84375 0.796875q0.703125 0.78125 0.703125 2.046875l0 0.203125l-4.296875 0q0.046875 0.8125 0.578125 1.328125q0.546875 0.515625 1.328125 0.515625q0.96875 0 1.640625 -0.671875l0.390625 0.53125q-0.8125 0.8125 -2.109375 0.8125zm1.65625 -3.109375q0 -0.75 -0.484375 -1.265625q-0.484375 -0.515625 -1.265625 -0.515625q-0.734375 0 -1.234375 0.515625q-0.484375 0.515625 -0.5 1.265625l3.484375 0zm5.5308228 2.984375l0 -3.46875q0 -0.71875 -0.328125 -0.96875q-0.3125 -0.265625 -0.859375 -0.265625q-0.453125 0 -0.90625 0.25q-0.4375 0.234375 -0.65625 0.5625l0 3.890625l-0.828125 0l0 -5.3125l0.828125 0l0 0.765625q0.328125 -0.390625 0.828125 -0.640625q0.5 -0.25 1.0625 -0.25q1.6875 0 1.6875 1.703125l0 3.734375l-0.828125 0z" fill-rule="nonzero"></path><path fill="#3c78d8" d="m454.85828 90.89764l78.299194 0l0 72.88189l-78.299194 0z" fill-rule="evenodd"></path><path stroke="#434343" stroke-width="2.0" stroke-linejoin="round" stroke-linecap="butt" d="m454.85828 90.89764l78.299194 0l0 72.88189l-78.299194 0z" fill-rule="evenodd"></path><path fill="#ffffff" d="m468.13953 124.71921q-1.671875 0 -2.796875 -1.0625q-1.109375 -1.0625 -1.109375 -2.734375q0 -1.671875 1.09375 -2.734375q1.109375 -1.0625 2.8125 -1.0625q2.0 0 3.03125 1.640625l-1.296875 0.703125q-0.25 -0.390625 -0.703125 -0.671875q-0.4375 -0.296875 -1.03125 -0.296875q-1.0 0 -1.65625 0.6875q-0.640625 0.6875 -0.640625 1.734375q0 1.0625 0.65625 1.734375q0.65625 0.671875 1.640625 0.671875q0.5 0 0.921875 -0.171875q0.421875 -0.1875 0.640625 -0.390625l0 -0.875l-1.9375 0l0 -1.375l3.5 0l0 2.8125q-1.25 1.390625 -3.125 1.390625zm4.078827 -0.140625l0 -5.3125l1.40625 0l0 0.71875q0.28125 -0.34375 0.734375 -0.59375q0.453125 -0.25 0.953125 -0.25l0 1.359375l-0.375 -0.03125q-0.375 0 -0.765625 0.171875q-0.375 0.171875 -0.546875 0.421875l0 3.515625l-1.40625 0zm7.039398 0l0 -0.546875q-0.59375 0.671875 -1.6875 0.671875q-0.765625 0 -1.3125 -0.484375q-0.53125 -0.484375 -0.53125 -1.265625q0 -0.78125 0.5 -1.25q0.515625 -0.46875 1.34375 -0.46875q1.140625 0 1.6875 0.65625l0 -0.71875q0 -0.40625 -0.328125 -0.640625q-0.3125 -0.25 -0.84375 -0.25q-0.875 0 -1.546875 0.625l-0.53125 -0.9375q0.96875 -0.828125 2.3125 -0.828125q1.125 0 1.71875 0.515625q0.609375 0.515625 0.609375 1.484375l0 3.4375l-1.390625 0zm-1.125 -0.8125q0.765625 0 1.125 -0.46875l0 -0.65625q-0.359375 -0.453125 -1.125 -0.453125q-0.421875 0 -0.71875 0.203125q-0.28125 0.203125 -0.28125 0.59375q0 0.375 0.28125 0.578125q0.296875 0.203125 0.71875 0.203125zm7.3020325 0.8125l0 -3.21875q0 -0.984375 -0.984375 -0.984375q-0.75 0 -1.203125 0.625l0 3.578125l-1.40625 0l0 -5.3125l1.40625 0l0 0.6875q0.25 -0.296875 0.71875 -0.546875q0.46875 -0.265625 1.140625 -0.265625q0.875 0 1.296875 0.453125q0.421875 0.453125 0.421875 1.234375l0 3.75l-1.390625 0zm6.232544 0l0 -0.6875q-0.65625 0.8125 -1.640625 0.8125q-1.046875 0 -1.703125 -0.75q-0.640625 -0.765625 -0.640625 -2.03125q0 -1.25 0.640625 -2.015625q0.65625 -0.765625 1.703125 -0.765625q1.0 0 1.640625 0.8125l0 -2.71875l1.40625 0l0 7.34375l-1.40625 0zm-1.203125 -1.109375q0.34375 0 0.6875 -0.171875q0.34375 -0.171875 0.515625 -0.4375l0 -1.875q-0.171875 -0.265625 -0.515625 -0.4375q-0.34375 -0.171875 -0.6875 -0.171875q-0.59375 0 -0.96875 0.4375q-0.375 0.421875 -0.375 1.109375q0 0.671875 0.359375 1.109375q0.359375 0.4375 0.984375 0.4375zm10.385254 1.109375l0 -3.359375q0 -0.84375 -0.796875 -0.84375q-0.375 0 -0.65625 0.203125q-0.28125 0.1875 -0.4375 0.40625l0 3.59375l-1.40625 0l0 -3.359375q0 -0.84375 -0.796875 -0.84375q-0.359375 0 -0.65625 0.203125q-0.28125 0.203125 -0.4375 0.421875l0 3.578125l-1.40625 0l0 -5.3125l1.40625 0l0 0.6875q0.1875 -0.296875 0.6875 -0.546875q0.515625 -0.265625 1.046875 -0.265625q1.15625 0 1.46875 0.953125q0.265625 -0.40625 0.765625 -0.671875q0.5 -0.28125 1.0625 -0.28125q1.5625 0 1.5625 1.59375l0 3.84375l-1.40625 0zm5.6885986 0l0 -0.546875q-0.59375 0.671875 -1.6875 0.671875q-0.765625 0 -1.3125 -0.484375q-0.53125 -0.484375 -0.53125 -1.265625q0 -0.78125 0.5 -1.25q0.515625 -0.46875 1.34375 -0.46875q1.140625 0 1.6875 0.65625l0 -0.71875q0 -0.40625 -0.328125 -0.640625q-0.3125 -0.25 -0.84375 -0.25q-0.875 0 -1.546875 0.625l-0.53125 -0.9375q0.96875 -0.828125 2.3125 -0.828125q1.125 0 1.71875 0.515625q0.609375 0.515625 0.609375 1.484375l0 3.4375l-1.390625 0zm-1.125 -0.8125q0.765625 0 1.125 -0.46875l0 -0.65625q-0.359375 -0.453125 -1.125 -0.453125q-0.421875 0 -0.71875 0.203125q-0.28125 0.203125 -0.28125 0.59375q0 0.375 0.28125 0.578125q0.296875 0.203125 0.71875 0.203125z" fill-rule="nonzero"></path><path fill="#ffffff" d="m469.92078 137.57858l0 -3.359375l-4.296875 0l0 3.359375l-0.90625 0l0 -7.34375l0.90625 0l0 3.15625l4.296875 0l0 -3.15625l0.90625 0l0 7.34375l-0.90625 0zm4.743561 0.125q-1.1875 0 -1.953125 -0.78125q-0.75 -0.78125 -0.75 -2.0q0 -1.1875 0.75 -1.984375q0.75 -0.796875 1.875 -0.796875q1.140625 0 1.84375 0.796875q0.703125 0.78125 0.703125 2.046875l0 0.203125l-4.296875 0q0.046875 0.8125 0.578125 1.328125q0.546875 0.515625 1.328125 0.515625q0.96875 0 1.640625 -0.671875l0.390625 0.53125q-0.8125 0.8125 -2.109375 0.8125zm1.65625 -3.109375q0 -0.75 -0.484375 -1.265625q-0.484375 -0.515625 -1.265625 -0.515625q-0.734375 0 -1.234375 0.515625q-0.484375 0.515625 -0.5 1.265625l3.484375 0zm4.343292 3.109375q-1.1875 0 -1.953125 -0.78125q-0.75 -0.78125 -0.75 -2.0q0 -1.1875 0.75 -1.984375q0.75 -0.796875 1.875 -0.796875q1.140625 0 1.84375 0.796875q0.703125 0.78125 0.703125 2.046875l0 0.203125l-4.296875 0q0.046875 0.8125 0.578125 1.328125q0.546875 0.515625 1.328125 0.515625q0.96875 0 1.640625 -0.671875l0.390625 0.53125q-0.8125 0.8125 -2.109375 0.8125zm1.65625 -3.109375q0 -0.75 -0.484375 -1.265625q-0.484375 -0.515625 -1.265625 -0.515625q-0.734375 0 -1.234375 0.515625q-0.484375 0.515625 -0.5 1.265625l3.484375 0zm1.9526367 2.984375l0 -5.3125l0.828125 0l0 0.859375q0.734375 -0.96875 1.765625 -0.96875l0 0.84375l-0.328125 -0.03125q-0.375 0 -0.828125 0.28125q-0.453125 0.265625 -0.609375 0.5625l0 3.765625l-0.828125 0zm3.5166016 0l0 -7.34375l0.828125 0l0 7.34375l-0.828125 0zm4.7882996 0.125q-1.1875 0 -1.953125 -0.78125q-0.75 -0.78125 -0.75 -2.0q0 -1.1875 0.75 -1.984375q0.75 -0.796875 1.875 -0.796875q1.140625 0 1.84375 0.796875q0.703125 0.78125 0.703125 2.046875l0 0.203125l-4.296875 0q0.046875 0.8125 0.578125 1.328125q0.546875 0.515625 1.328125 0.515625q0.96875 0 1.640625 -0.671875l0.390625 0.53125q-0.8125 0.8125 -2.109375 0.8125zm1.65625 -3.109375q0 -0.75 -0.484375 -1.265625q-0.484375 -0.515625 -1.265625 -0.515625q-0.734375 0 -1.234375 0.515625q-0.484375 0.515625 -0.5 1.265625l3.484375 0zm5.530792 2.984375l0 -3.46875q0 -0.71875 -0.328125 -0.96875q-0.3125 -0.265625 -0.859375 -0.265625q-0.453125 0 -0.90625 0.25q-0.4375 0.234375 -0.65625 0.5625l0 3.890625l-0.828125 0l0 -5.3125l0.828125 0l0 0.765625q0.328125 -0.390625 0.828125 -0.640625q0.5 -0.25 1.0625 -0.25q1.6875 0 1.6875 1.703125l0 3.734375l-0.828125 0z" fill-rule="nonzero"></path><path fill="#3c78d8" d="m48.884514 136.79265l78.29921 0l0 72.91339l-78.29921 0z" fill-rule="evenodd"></path><path stroke="#00ff00" stroke-width="8.0" stroke-linejoin="round" stroke-linecap="butt" d="m48.884514 136.79265l78.29921 0l0 72.91339l-78.29921 0z" fill-rule="evenodd"></path><path fill="#ffffff" d="m62.165764 170.61435q-1.703125 0 -2.8125 -1.078125q-1.09375 -1.078125 -1.09375 -2.703125q0 -1.078125 0.5 -1.953125q0.515625 -0.890625 1.421875 -1.359375q0.90625 -0.484375 1.984375 -0.484375q2.015625 0 3.0625 1.78125l-1.34375 0.671875q-0.21875 -0.453125 -0.6875 -0.765625q-0.46875 -0.3125 -1.03125 -0.3125q-1.0 0 -1.65625 0.6875q-0.640625 0.6875 -0.640625 1.734375q0 1.0625 0.65625 1.734375q0.65625 0.671875 1.640625 0.671875q0.5625 0 1.03125 -0.296875q0.46875 -0.3125 0.6875 -0.78125l1.34375 0.65625q-1.046875 1.796875 -3.0625 1.796875zm3.7271729 -0.125l0 -5.3125l1.40625 0l0 0.71875q0.28125 -0.34375 0.734375 -0.59375q0.453125 -0.25 0.953125 -0.25l0 1.359375l-0.375 -0.03125q-0.375 0 -0.765625 0.171875q-0.375 0.171875 -0.546875 0.421875l0 3.515625l-1.40625 0zm7.0394135 0l0 -0.546875q-0.59375 0.671875 -1.6875 0.671875q-0.765625 0 -1.3125 -0.484375q-0.53125 -0.484375 -0.53125 -1.265625q0 -0.78125 0.5 -1.25q0.515625 -0.46875 1.34375 -0.46875q1.140625 0 1.6875 0.65625l0 -0.71875q0 -0.40625 -0.328125 -0.640625q-0.3125 -0.25 -0.84375 -0.25q-0.875 0 -1.546875 0.625l-0.53125 -0.9375q0.96875 -0.828125 2.3125 -0.828125q1.125 0 1.71875 0.515625q0.609375 0.515625 0.609375 1.484375l0 3.4375l-1.390625 0zm-1.125 -0.8125q0.765625 0 1.125 -0.46875l0 -0.65625q-0.359375 -0.453125 -1.125 -0.453125q-0.421875 0 -0.71875 0.203125q-0.28125 0.203125 -0.28125 0.59375q0 0.375 0.28125 0.578125q0.296875 0.203125 0.71875 0.203125zm3.4895325 0.8125l0 -1.046875l2.390625 -3.046875l-2.390625 0l0 -1.21875l4.28125 0l0 1.015625l-2.421875 3.078125l2.46875 0l0 1.21875l-4.328125 0zm5.3544006 0.828125q0.171875 0.078125 0.4375 0.078125q0.5625 0 0.734375 -0.375l0.203125 -0.453125l-2.15625 -5.390625l1.5 0l1.375 3.703125l1.390625 -3.703125l1.5 0l-2.484375 6.1875q-0.296875 0.734375 -0.828125 1.0q-0.515625 0.265625 -1.1875 0.28125q-0.390625 0 -0.703125 -0.078125l0.21875 -1.25zm13.257233 -0.828125l-0.453125 -1.25l-3.140625 0l-0.453125 1.25l-1.796875 0l2.84375 -7.34375l1.953125 0l2.828125 7.34375l-1.78125 0zm-2.015625 -5.78125l-1.140625 3.15625l2.28125 0l-1.140625 -3.15625zm7.8045807 5.78125l0 -0.671875q-0.71875 0.796875 -1.875 0.796875q-0.875 0 -1.296875 -0.4375q-0.421875 -0.453125 -0.421875 -1.234375l0 -3.765625l1.40625 0l0 3.21875q0 0.984375 0.96875 0.984375q0.71875 0 1.21875 -0.609375l0 -3.59375l1.390625 0l0 5.3125l-1.390625 0zm6.1700287 0l0 -3.21875q0 -0.984375 -0.984375 -0.984375q-0.75 0 -1.203125 0.625l0 3.578125l-1.40625 0l0 -5.3125l1.40625 0l0 0.6875q0.25 -0.296875 0.71875 -0.546875q0.46875 -0.265625 1.140625 -0.265625q0.875 0 1.296875 0.453125q0.421875 0.453125 0.421875 1.234375l0 3.75l-1.390625 0zm4.3575287 0.125q-1.5 0 -1.5 -1.4375l0 -2.78125l-0.875 0l0 -1.21875l0.875 0l0 -1.453125l1.40625 0l0 1.453125l1.078125 0l0 1.21875l-1.078125 0l0 2.40625q0 0.25 0.125 0.421875q0.125 0.15625 0.359375 0.15625q0.328125 0 0.484375 -0.15625l0.296875 1.0625q-0.359375 0.328125 -1.171875 0.328125z" fill-rule="nonzero"></path><path fill="#ffffff" d="m58.74389 183.48935l0 -7.34375l2.5 0q1.671875 0 2.71875 1.046875q1.046875 1.03125 1.046875 2.640625q0 1.59375 -1.046875 2.625q-1.046875 1.03125 -2.71875 1.03125l-2.5 0zm2.5 -0.8125q1.265625 0 2.046875 -0.78125q0.78125 -0.796875 0.78125 -2.0625q0 -1.28125 -0.78125 -2.0625q-0.765625 -0.796875 -2.046875 -0.796875l-1.59375 0l0 5.703125l1.59375 0zm7.3188324 0.9375q-1.1875 0 -1.953125 -0.78125q-0.75 -0.78125 -0.75 -2.0q0 -1.1875 0.75 -1.984375q0.75 -0.796875 1.875 -0.796875q1.140625 0 1.84375 0.796875q0.703125 0.78125 0.703125 2.046875l0 0.203125l-4.296875 0q0.046875 0.8125 0.578125 1.328125q0.546875 0.515625 1.328125 0.515625q0.96875 0 1.640625 -0.671875l0.390625 0.53125q-0.8125 0.8125 -2.109375 0.8125zm1.65625 -3.109375q0 -0.75 -0.484375 -1.265625q-0.484375 -0.515625 -1.265625 -0.515625q-0.734375 0 -1.234375 0.515625q-0.484375 0.515625 -0.5 1.265625l3.484375 0zm1.952652 2.984375l0 -7.34375l0.828125 0l0 7.34375l-0.828125 0zm2.6320496 0l0 -4.59375l-0.890625 0l0 -0.71875l0.890625 0l0 -0.40625q0 -0.828125 0.40625 -1.28125q0.40625 -0.453125 1.125 -0.453125q0.671875 0 1.125 0.40625l-0.34375 0.546875q-0.28125 -0.265625 -0.65625 -0.265625q-0.84375 0 -0.84375 1.046875l0 0.40625l1.078125 0l0 0.71875l-1.078125 0l0 4.59375l-0.8125 0zm4.125122 0.125q-1.1875 0 -1.1875 -1.234375l0 -3.484375l-0.875 0l0 -0.71875l0.875 0l0 -1.453125l0.828125 0l0 1.453125l1.078125 0l0 0.71875l-1.078125 0l0 3.3125q0 0.296875 0.125 0.484375q0.140625 0.1875 0.421875 0.1875q0.328125 0 0.5625 -0.21875l0.234375 0.625q-0.34375 0.328125 -0.984375 0.328125zm1.5392151 -0.125l0 -0.640625l2.921875 -3.953125l-2.921875 0l0 -0.71875l4.0 0l0 0.625l-2.953125 3.96875l3.0 0l0 0.71875l-4.046875 0zm5.6860504 -6.078125q-0.21875 0 -0.390625 -0.15625q-0.15625 -0.15625 -0.15625 -0.390625q0 -0.234375 0.15625 -0.390625q0.171875 -0.171875 0.390625 -0.171875q0.234375 0 0.390625 0.171875q0.171875 0.15625 0.171875 0.390625q0 0.234375 -0.171875 0.390625q-0.15625 0.15625 -0.390625 0.15625zm-0.40625 6.078125l0 -5.3125l0.828125 0l0 5.3125l-0.828125 0zm2.8039246 -6.078125q-0.21875 0 -0.390625 -0.15625q-0.15625 -0.15625 -0.15625 -0.390625q0 -0.234375 0.15625 -0.390625q0.171875 -0.171875 0.390625 -0.171875q0.234375 0 0.390625 0.171875q0.171875 0.15625 0.171875 0.390625q0 0.234375 -0.171875 0.390625q-0.15625 0.15625 -0.390625 0.15625zm-1.15625 8.234375q-0.40625 0 -0.65625 -0.109375q-0.265625 -0.09375 -0.515625 -0.28125l0.296875 -0.625q0.34375 0.328125 0.765625 0.328125q0.859375 0 0.859375 -0.953125l0 -5.828125l0.828125 0l0 5.828125q0 0.796875 -0.40625 1.21875q-0.40625 0.421875 -1.171875 0.421875zm3.1476746 -2.15625l0 -7.34375l0.828125 0l0 7.34375l-0.828125 0z" fill-rule="nonzero"></path><path fill="#3c78d8" d="m397.77167 301.9449l78.299194 0l0 72.91339l-78.299194 0z" fill-rule="evenodd"></path><path stroke="#434343" stroke-width="2.0" stroke-linejoin="round" stroke-linecap="butt" d="m397.77167 301.9449l78.299194 0l0 72.91339l-78.299194 0z" fill-rule="evenodd"></path><path fill="#ffffff" d="m413.88104 335.64157l0 -5.140625l-2.078125 5.140625l-0.671875 0l-2.078125 -5.140625l0 5.140625l-1.5625 0l0 -7.34375l2.203125 0l1.78125 4.4375l1.78125 -4.4375l2.1875 0l0 7.34375l-1.5625 0zm5.1893005 0.125q-1.25 0 -2.046875 -0.765625q-0.78125 -0.78125 -0.78125 -2.015625q0 -1.1875 0.78125 -1.984375q0.78125 -0.796875 1.96875 -0.796875q1.171875 0 1.90625 0.8125q0.75 0.796875 0.75 2.109375l0 0.296875l-3.953125 0q0.0625 0.515625 0.453125 0.875q0.390625 0.359375 1.078125 0.359375q0.328125 0 0.734375 -0.125q0.40625 -0.140625 0.6875 -0.390625l0.609375 0.890625q-0.390625 0.375 -0.984375 0.5625q-0.578125 0.171875 -1.203125 0.171875zm1.21875 -3.28125q-0.03125 -0.53125 -0.390625 -0.84375q-0.359375 -0.328125 -0.90625 -0.328125q-0.5625 0 -0.921875 0.34375q-0.34375 0.328125 -0.390625 0.828125l2.609375 0z" fill-rule="nonzero"></path><path fill="#ffffff" d="m407.63104 348.64157l0 -7.34375l2.5 0q1.671875 0 2.71875 1.046875q1.046875 1.03125 1.046875 2.640625q0 1.59375 -1.046875 2.625q-1.046875 1.03125 -2.71875 1.03125l-2.5 0zm2.5 -0.8125q1.265625 0 2.046875 -0.78125q0.78125 -0.796875 0.78125 -2.0625q0 -1.28125 -0.78125 -2.0625q-0.765625 -0.796875 -2.046875 -0.796875l-1.59375 0l0 5.703125l1.59375 0zm7.318817 0.9375q-1.1875 0 -1.953125 -0.78125q-0.75 -0.78125 -0.75 -2.0q0 -1.1875 0.75 -1.984375q0.75 -0.796875 1.875 -0.796875q1.140625 0 1.84375 0.796875q0.703125 0.78125 0.703125 2.046875l0 0.203125l-4.296875 0q0.046875 0.8125 0.578125 1.328125q0.546875 0.515625 1.328125 0.515625q0.96875 0 1.640625 -0.671875l0.390625 0.53125q-0.8125 0.8125 -2.109375 0.8125zm1.65625 -3.109375q0 -0.75 -0.484375 -1.265625q-0.484375 -0.515625 -1.265625 -0.515625q-0.734375 0 -1.234375 0.515625q-0.484375 0.515625 -0.5 1.265625l3.484375 0zm1.9526672 2.984375l0 -7.34375l0.828125 0l0 7.34375l-0.828125 0zm2.6320496 0l0 -4.59375l-0.890625 0l0 -0.71875l0.890625 0l0 -0.40625q0 -0.828125 0.40625 -1.28125q0.40625 -0.453125 1.125 -0.453125q0.671875 0 1.125 0.40625l-0.34375 0.546875q-0.28125 -0.265625 -0.65625 -0.265625q-0.84375 0 -0.84375 1.046875l0 0.40625l1.078125 0l0 0.71875l-1.078125 0l0 4.59375l-0.8125 0zm4.125122 0.125q-1.1875 0 -1.1875 -1.234375l0 -3.484375l-0.875 0l0 -0.71875l0.875 0l0 -1.453125l0.828125 0l0 1.453125l1.078125 0l0 0.71875l-1.078125 0l0 3.3125q0 0.296875 0.125 0.484375q0.140625 0.1875 0.421875 0.1875q0.328125 0 0.5625 -0.21875l0.234375 0.625q-0.34375 0.328125 -0.984375 0.328125z" fill-rule="nonzero"></path><path fill="#000000" fill-opacity="0.0" d="m397.77167 338.40158l-97.322845 0l0 -51.338593" fill-rule="evenodd"></path><path stroke="#595959" stroke-width="2.0" stroke-linejoin="round" stroke-linecap="butt" d="m397.77167 338.40158l-97.322845 0l0 -51.338593" fill-rule="evenodd"></path><path fill="#000000" fill-opacity="0.0" d="m476.07086 338.40158l96.25195 0l0 -51.338593" fill-rule="evenodd"></path><path stroke="#000000" stroke-width="2.0" stroke-linejoin="round" stroke-linecap="butt" d="m476.07086 338.40158l96.25195 0l0 -51.338593" fill-rule="evenodd"></path><path fill="#000000" fill-opacity="0.0" d="m261.29398 250.6378l-173.25986 0l0 -40.944885" fill-rule="evenodd"></path><path stroke="#595959" stroke-width="1.0" stroke-linejoin="round" stroke-linecap="butt" stroke-dasharray="8.0,3.0,1.0,3.0" d="m261.29398 250.6378l-173.25986 0l0 -40.944885" fill-rule="evenodd"></path><path fill="#000000" fill-opacity="0.0" d="m611.45667 250.6378l158.92914 0l0 -40.944885" fill-rule="evenodd"></path><path stroke="#595959" stroke-width="1.0" stroke-linejoin="round" stroke-linecap="butt" stroke-dasharray="8.0,3.0,1.0,3.0" d="m611.45667 250.6378l158.92914 0l0 -40.944885" fill-rule="evenodd"></path><path fill="#000000" fill-opacity="0.0" d="m611.45667 250.6378l271.87402 0l0 -40.944885" fill-rule="evenodd"></path><path stroke="#595959" stroke-width="1.0" stroke-linejoin="round" stroke-linecap="butt" stroke-dasharray="8.0,3.0,1.0,3.0" d="m611.45667 250.6378l271.87402 0l0 -40.944885" fill-rule="evenodd"></path><path fill="#3c78d8" d="m345.89502 90.88189l78.299194 0l0 72.91338l-78.299194 0z" fill-rule="evenodd"></path><path stroke="#434343" stroke-width="2.0" stroke-linejoin="round" stroke-linecap="butt" d="m345.89502 90.88189l78.299194 0l0 72.91338l-78.299194 0z" fill-rule="evenodd"></path><path fill="#ffffff" d="m359.17627 124.71921q-1.671875 0 -2.796875 -1.0625q-1.109375 -1.0625 -1.109375 -2.734375q0 -1.671875 1.09375 -2.734375q1.109375 -1.0625 2.8125 -1.0625q2.0 0 3.03125 1.640625l-1.296875 0.703125q-0.25 -0.390625 -0.703125 -0.671875q-0.4375 -0.296875 -1.03125 -0.296875q-1.0 0 -1.65625 0.6875q-0.640625 0.6875 -0.640625 1.734375q0 1.0625 0.65625 1.734375q0.65625 0.671875 1.640625 0.671875q0.5 0 0.921875 -0.171875q0.421875 -0.1875 0.640625 -0.390625l0 -0.875l-1.9375 0l0 -1.375l3.5 0l0 2.8125q-1.25 1.390625 -3.125 1.390625zm4.078827 -0.140625l0 -5.3125l1.40625 0l0 0.71875q0.28125 -0.34375 0.734375 -0.59375q0.453125 -0.25 0.953125 -0.25l0 1.359375l-0.375 -0.03125q-0.375 0 -0.765625 0.171875q-0.375 0.171875 -0.546875 0.421875l0 3.515625l-1.40625 0zm7.039398 0l0 -0.546875q-0.59375 0.671875 -1.6875 0.671875q-0.765625 0 -1.3125 -0.484375q-0.53125 -0.484375 -0.53125 -1.265625q0 -0.78125 0.5 -1.25q0.515625 -0.46875 1.34375 -0.46875q1.140625 0 1.6875 0.65625l0 -0.71875q0 -0.40625 -0.328125 -0.640625q-0.3125 -0.25 -0.84375 -0.25q-0.875 0 -1.546875 0.625l-0.53125 -0.9375q0.96875 -0.828125 2.3125 -0.828125q1.125 0 1.71875 0.515625q0.609375 0.515625 0.609375 1.484375l0 3.4375l-1.390625 0zm-1.125 -0.8125q0.765625 0 1.125 -0.46875l0 -0.65625q-0.359375 -0.453125 -1.125 -0.453125q-0.421875 0 -0.71875 0.203125q-0.28125 0.203125 -0.28125 0.59375q0 0.375 0.28125 0.578125q0.296875 0.203125 0.71875 0.203125zm7.3020325 0.8125l0 -3.21875q0 -0.984375 -0.984375 -0.984375q-0.75 0 -1.203125 0.625l0 3.578125l-1.40625 0l0 -5.3125l1.40625 0l0 0.6875q0.25 -0.296875 0.71875 -0.546875q0.46875 -0.265625 1.140625 -0.265625q0.875 0 1.296875 0.453125q0.421875 0.453125 0.421875 1.234375l0 3.75l-1.390625 0zm6.232544 0l0 -0.6875q-0.65625 0.8125 -1.640625 0.8125q-1.046875 0 -1.703125 -0.75q-0.640625 -0.765625 -0.640625 -2.03125q0 -1.25 0.640625 -2.015625q0.65625 -0.765625 1.703125 -0.765625q1.0 0 1.640625 0.8125l0 -2.71875l1.40625 0l0 7.34375l-1.40625 0zm-1.203125 -1.109375q0.34375 0 0.6875 -0.171875q0.34375 -0.171875 0.515625 -0.4375l0 -1.875q-0.171875 -0.265625 -0.515625 -0.4375q-0.34375 -0.171875 -0.6875 -0.171875q-0.59375 0 -0.96875 0.4375q-0.375 0.421875 -0.375 1.109375q0 0.671875 0.359375 1.109375q0.359375 0.4375 0.984375 0.4375zm10.385254 1.109375l0 -3.359375q0 -0.84375 -0.796875 -0.84375q-0.375 0 -0.65625 0.203125q-0.28125 0.1875 -0.4375 0.40625l0 3.59375l-1.40625 0l0 -3.359375q0 -0.84375 -0.796875 -0.84375q-0.359375 0 -0.65625 0.203125q-0.28125 0.203125 -0.4375 0.421875l0 3.578125l-1.40625 0l0 -5.3125l1.40625 0l0 0.6875q0.1875 -0.296875 0.6875 -0.546875q0.515625 -0.265625 1.046875 -0.265625q1.15625 0 1.46875 0.953125q0.265625 -0.40625 0.765625 -0.671875q0.5 -0.28125 1.0625 -0.28125q1.5625 0 1.5625 1.59375l0 3.84375l-1.40625 0zm5.6885986 0l0 -0.546875q-0.59375 0.671875 -1.6875 0.671875q-0.765625 0 -1.3125 -0.484375q-0.53125 -0.484375 -0.53125 -1.265625q0 -0.78125 0.5 -1.25q0.515625 -0.46875 1.34375 -0.46875q1.140625 0 1.6875 0.65625l0 -0.71875q0 -0.40625 -0.328125 -0.640625q-0.3125 -0.25 -0.84375 -0.25q-0.875 0 -1.546875 0.625l-0.53125 -0.9375q0.96875 -0.828125 2.3125 -0.828125q1.125 0 1.71875 0.515625q0.609375 0.515625 0.609375 1.484375l0 3.4375l-1.390625 0zm-1.125 -0.8125q0.765625 0 1.125 -0.46875l0 -0.65625q-0.359375 -0.453125 -1.125 -0.453125q-0.421875 0 -0.71875 0.203125q-0.28125 0.203125 -0.28125 0.59375q0 0.375 0.28125 0.578125q0.296875 0.203125 0.71875 0.203125z" fill-rule="nonzero"></path><path fill="#ffffff" d="m355.7544 137.57858l0 -7.34375l4.8125 0l0 0.828125l-3.90625 0l0 2.359375l3.828125 0l0 0.8125l-3.828125 0l0 2.53125l3.90625 0l0 0.8125l-4.8125 0zm12.438446 0l0 -3.609375q0 -1.09375 -0.96875 -1.09375q-0.421875 0 -0.8125 0.25q-0.390625 0.234375 -0.609375 0.5625l0 3.890625l-0.8125 0l0 -3.609375q0 -1.09375 -0.984375 -1.09375q-0.40625 0 -0.796875 0.25q-0.375 0.25 -0.59375 0.5625l0 3.890625l-0.828125 0l0 -5.3125l0.828125 0l0 0.765625q0.1875 -0.3125 0.703125 -0.59375q0.515625 -0.296875 1.0 -0.296875q0.625 0 0.96875 0.28125q0.34375 0.28125 0.46875 0.703125q0.28125 -0.4375 0.78125 -0.703125q0.5 -0.28125 1.0 -0.28125q1.484375 0 1.484375 1.59375l0 3.84375l-0.828125 0zm8.610352 0l0 -3.609375q0 -1.09375 -0.96875 -1.09375q-0.421875 0 -0.8125 0.25q-0.390625 0.234375 -0.609375 0.5625l0 3.890625l-0.8125 0l0 -3.609375q0 -1.09375 -0.984375 -1.09375q-0.40625 0 -0.796875 0.25q-0.375 0.25 -0.59375 0.5625l0 3.890625l-0.828125 0l0 -5.3125l0.828125 0l0 0.765625q0.1875 -0.3125 0.703125 -0.59375q0.515625 -0.296875 1.0 -0.296875q0.625 0 0.96875 0.28125q0.34375 0.28125 0.46875 0.703125q0.28125 -0.4375 0.78125 -0.703125q0.5 -0.28125 1.0 -0.28125q1.484375 0 1.484375 1.59375l0 3.84375l-0.828125 0zm4.594696 0.125q-1.1875 0 -1.953125 -0.78125q-0.75 -0.78125 -0.75 -2.0q0 -1.1875 0.75 -1.984375q0.75 -0.796875 1.875 -0.796875q1.140625 0 1.84375 0.796875q0.703125 0.78125 0.703125 2.046875l0 0.203125l-4.296875 0q0.046875 0.8125 0.578125 1.328125q0.546875 0.515625 1.328125 0.515625q0.96875 0 1.640625 -0.671875l0.390625 0.53125q-0.8125 0.8125 -2.109375 0.8125zm1.65625 -3.109375q0 -0.75 -0.484375 -1.265625q-0.484375 -0.515625 -1.265625 -0.515625q-0.734375 0 -1.234375 0.515625q-0.484375 0.515625 -0.5 1.265625l3.484375 0zm5.530792 2.984375l0 -3.46875q0 -0.71875 -0.328125 -0.96875q-0.3125 -0.265625 -0.859375 -0.265625q-0.453125 0 -0.90625 0.25q-0.4375 0.234375 -0.65625 0.5625l0 3.890625l-0.828125 0l0 -5.3125l0.828125 0l0 0.765625q0.328125 -0.390625 0.828125 -0.640625q0.5 -0.25 1.0625 -0.25q1.6875 0 1.6875 1.703125l0 3.734375l-0.828125 0z" fill-rule="nonzero"></path><path fill="#3c78d8" d="m618.2808 93.62992l78.299255 0l0 72.88189l-78.299255 0z" fill-rule="evenodd"></path><path stroke="#434343" stroke-width="2.0" stroke-linejoin="round" stroke-linecap="butt" d="m618.2808 93.62992l78.299255 0l0 72.88189l-78.299255 0z" fill-rule="evenodd"></path><path fill="#ffffff" d="m631.5621 127.45149q-1.671875 0 -2.796875 -1.0625q-1.109375 -1.0625 -1.109375 -2.734375q0 -1.671875 1.09375 -2.734375q1.109375 -1.0625 2.8125 -1.0625q2.0 0 3.03125 1.640625l-1.296875 0.703125q-0.25 -0.390625 -0.703125 -0.671875q-0.4375 -0.296875 -1.03125 -0.296875q-1.0 0 -1.65625 0.6875q-0.640625 0.6875 -0.640625 1.734375q0 1.0625 0.65625 1.734375q0.65625 0.671875 1.640625 0.671875q0.5 0 0.921875 -0.171875q0.421875 -0.1875 0.640625 -0.390625l0 -0.875l-1.9375 0l0 -1.375l3.5 0l0 2.8125q-1.25 1.390625 -3.125 1.390625zm4.0788574 -0.140625l0 -5.3125l1.40625 0l0 0.71875q0.28125 -0.34375 0.734375 -0.59375q0.453125 -0.25 0.953125 -0.25l0 1.359375l-0.375 -0.03125q-0.375 0 -0.765625 0.171875q-0.375 0.171875 -0.546875 0.421875l0 3.515625l-1.40625 0zm7.0394287 0l0 -0.546875q-0.59375 0.671875 -1.6875 0.671875q-0.765625 0 -1.3125 -0.484375q-0.53125 -0.484375 -0.53125 -1.265625q0 -0.78125 0.5 -1.25q0.515625 -0.46875 1.34375 -0.46875q1.140625 0 1.6875 0.65625l0 -0.71875q0 -0.40625 -0.328125 -0.640625q-0.3125 -0.25 -0.84375 -0.25q-0.875 0 -1.546875 0.625l-0.53125 -0.9375q0.96875 -0.828125 2.3125 -0.828125q1.125 0 1.71875 0.515625q0.609375 0.515625 0.609375 1.484375l0 3.4375l-1.390625 0zm-1.125 -0.8125q0.765625 0 1.125 -0.46875l0 -0.65625q-0.359375 -0.453125 -1.125 -0.453125q-0.421875 0 -0.71875 0.203125q-0.28125 0.203125 -0.28125 0.59375q0 0.375 0.28125 0.578125q0.296875 0.203125 0.71875 0.203125zm7.302002 0.8125l0 -3.21875q0 -0.984375 -0.984375 -0.984375q-0.75 0 -1.203125 0.625l0 3.578125l-1.40625 0l0 -5.3125l1.40625 0l0 0.6875q0.25 -0.296875 0.71875 -0.546875q0.46875 -0.265625 1.140625 -0.265625q0.875 0 1.296875 0.453125q0.421875 0.453125 0.421875 1.234375l0 3.75l-1.390625 0zm6.232544 0l0 -0.6875q-0.65625 0.8125 -1.640625 0.8125q-1.046875 0 -1.703125 -0.75q-0.640625 -0.765625 -0.640625 -2.03125q0 -1.25 0.640625 -2.015625q0.65625 -0.765625 1.703125 -0.765625q1.0 0 1.640625 0.8125l0 -2.71875l1.40625 0l0 7.34375l-1.40625 0zm-1.203125 -1.109375q0.34375 0 0.6875 -0.171875q0.34375 -0.171875 0.515625 -0.4375l0 -1.875q-0.171875 -0.265625 -0.515625 -0.4375q-0.34375 -0.171875 -0.6875 -0.171875q-0.59375 0 -0.96875 0.4375q-0.375 0.421875 -0.375 1.109375q0 0.671875 0.359375 1.109375q0.359375 0.4375 0.984375 0.4375zm7.447754 1.109375l0 -0.6875q-0.65625 0.8125 -1.640625 0.8125q-1.046875 0 -1.703125 -0.75q-0.640625 -0.765625 -0.640625 -2.03125q0 -1.25 0.640625 -2.015625q0.65625 -0.765625 1.703125 -0.765625q1.0 0 1.640625 0.8125l0 -2.71875l1.40625 0l0 7.34375l-1.40625 0zm-1.203125 -1.109375q0.34375 0 0.6875 -0.171875q0.34375 -0.171875 0.515625 -0.4375l0 -1.875q-0.171875 -0.265625 -0.515625 -0.4375q-0.34375 -0.171875 -0.6875 -0.171875q-0.59375 0 -0.96875 0.4375q-0.375 0.421875 -0.375 1.109375q0 0.671875 0.359375 1.109375q0.359375 0.4375 0.984375 0.4375zm6.994629 1.109375l0 -0.546875q-0.59375 0.671875 -1.6875 0.671875q-0.765625 0 -1.3125 -0.484375q-0.53125 -0.484375 -0.53125 -1.265625q0 -0.78125 0.5 -1.25q0.515625 -0.46875 1.34375 -0.46875q1.140625 0 1.6875 0.65625l0 -0.71875q0 -0.40625 -0.328125 -0.640625q-0.3125 -0.25 -0.84375 -0.25q-0.875 0 -1.546875 0.625l-0.53125 -0.9375q0.96875 -0.828125 2.3125 -0.828125q1.125 0 1.71875 0.515625q0.609375 0.515625 0.609375 1.484375l0 3.4375l-1.390625 0zm-1.125 -0.8125q0.765625 0 1.125 -0.46875l0 -0.65625q-0.359375 -0.453125 -1.125 -0.453125q-0.421875 0 -0.71875 0.203125q-0.28125 0.203125 -0.28125 0.59375q0 0.375 0.28125 0.578125q0.296875 0.203125 0.71875 0.203125zm7.364502 0.8125l0 -0.6875q-0.65625 0.8125 -1.640625 0.8125q-1.046875 0 -1.703125 -0.75q-0.640625 -0.765625 -0.640625 -2.03125q0 -1.25 0.640625 -2.015625q0.65625 -0.765625 1.703125 -0.765625q1.0 0 1.640625 0.8125l0 -2.71875l1.40625 0l0 7.34375l-1.40625 0zm-1.203125 -1.109375q0.34375 0 0.6875 -0.171875q0.34375 -0.171875 0.515625 -0.4375l0 -1.875q-0.171875 -0.265625 -0.515625 -0.4375q-0.34375 -0.171875 -0.6875 -0.171875q-0.59375 0 -0.96875 0.4375q-0.375 0.421875 -0.375 1.109375q0 0.671875 0.359375 1.109375q0.359375 0.4375 0.984375 0.4375z" fill-rule="nonzero"></path><path fill="#ffffff" d="m633.3433 140.31087l0 -3.359375l-4.296875 0l0 3.359375l-0.90625 0l0 -7.34375l0.90625 0l0 3.15625l4.296875 0l0 -3.15625l0.90625 0l0 7.34375l-0.90625 0zm4.7435913 0.125q-1.1875 0 -1.953125 -0.78125q-0.75 -0.78125 -0.75 -2.0q0 -1.1875 0.75 -1.984375q0.75 -0.796875 1.875 -0.796875q1.140625 0 1.84375 0.796875q0.703125 0.78125 0.703125 2.046875l0 0.203125l-4.296875 0q0.046875 0.8125 0.578125 1.328125q0.546875 0.515625 1.328125 0.515625q0.96875 0 1.640625 -0.671875l0.390625 0.53125q-0.8125 0.8125 -2.109375 0.8125zm1.65625 -3.109375q0 -0.75 -0.484375 -1.265625q-0.484375 -0.515625 -1.265625 -0.515625q-0.734375 0 -1.234375 0.515625q-0.484375 0.515625 -0.5 1.265625l3.484375 0zm4.3432617 3.109375q-1.1875 0 -1.953125 -0.78125q-0.75 -0.78125 -0.75 -2.0q0 -1.1875 0.75 -1.984375q0.75 -0.796875 1.875 -0.796875q1.140625 0 1.84375 0.796875q0.703125 0.78125 0.703125 2.046875l0 0.203125l-4.296875 0q0.046875 0.8125 0.578125 1.328125q0.546875 0.515625 1.328125 0.515625q0.96875 0 1.640625 -0.671875l0.390625 0.53125q-0.8125 0.8125 -2.109375 0.8125zm1.65625 -3.109375q0 -0.75 -0.484375 -1.265625q-0.484375 -0.515625 -1.265625 -0.515625q-0.734375 0 -1.234375 0.515625q-0.484375 0.515625 -0.5 1.265625l3.484375 0zm1.9526978 2.984375l0 -5.3125l0.828125 0l0 0.859375q0.734375 -0.96875 1.765625 -0.96875l0 0.84375l-0.328125 -0.03125q-0.375 0 -0.828125 0.28125q-0.453125 0.265625 -0.609375 0.5625l0 3.765625l-0.828125 0zm3.5166016 0l0 -7.34375l0.828125 0l0 7.34375l-0.828125 0zm4.788269 0.125q-1.1875 0 -1.953125 -0.78125q-0.75 -0.78125 -0.75 -2.0q0 -1.1875 0.75 -1.984375q0.75 -0.796875 1.875 -0.796875q1.140625 0 1.84375 0.796875q0.703125 0.78125 0.703125 2.046875l0 0.203125l-4.296875 0q0.046875 0.8125 0.578125 1.328125q0.546875 0.515625 1.328125 0.515625q0.96875 0 1.640625 -0.671875l0.390625 0.53125q-0.8125 0.8125 -2.109375 0.8125zm1.65625 -3.109375q0 -0.75 -0.484375 -1.265625q-0.484375 -0.515625 -1.265625 -0.515625q-0.734375 0 -1.234375 0.515625q-0.484375 0.515625 -0.5 1.265625l3.484375 0zm5.5307617 2.984375l0 -3.46875q0 -0.71875 -0.328125 -0.96875q-0.3125 -0.265625 -0.859375 -0.265625q-0.453125 0 -0.90625 0.25q-0.4375 0.234375 -0.65625 0.5625l0 3.890625l-0.828125 0l0 -5.3125l0.828125 0l0 0.765625q0.328125 -0.390625 0.828125 -0.640625q0.5 -0.25 1.0625 -0.25q1.6875 0 1.6875 1.703125l0 3.734375l-0.828125 0z" fill-rule="nonzero"></path><path fill="#000000" fill-opacity="0.0" d="m261.29398 250.6378l-39.149612 0l0 -86.834656" fill-rule="evenodd"></path><path stroke="#595959" stroke-width="2.0" stroke-linejoin="round" stroke-linecap="butt" d="m261.29398 250.6378l-39.149612 0l0 -86.834656" fill-rule="evenodd"></path><path fill="#000000" fill-opacity="0.0" d="m339.59317 250.6378l45.448822 0l0 -86.834656" fill-rule="evenodd"></path><path stroke="#595959" stroke-width="2.0" stroke-linejoin="round" stroke-linecap="butt" d="m339.59317 250.6378l45.448822 0l0 -86.834656" fill-rule="evenodd"></path><path fill="#000000" fill-opacity="0.0" d="m533.1575 250.6378l-39.149597 0l0 -86.86615" fill-rule="evenodd"></path><path stroke="#595959" stroke-width="2.0" stroke-linejoin="round" stroke-linecap="butt" d="m533.1575 250.6378l-39.149597 0l0 -86.86615" fill-rule="evenodd"></path><path fill="#000000" fill-opacity="0.0" d="m611.45667 250.6378l45.984253 0l0 -84.12599" fill-rule="evenodd"></path><path stroke="#595959" stroke-width="2.0" stroke-linejoin="round" stroke-linecap="butt" d="m611.45667 250.6378l45.984253 0l0 -84.12599" fill-rule="evenodd"></path><path fill="#000000" fill-opacity="0.0" d="m436.92126 374.85828c0 12.500305 52.376465 31.615265 99.767334 25.00061c47.39087 -6.6146545 89.7962 -38.958954 99.767334 -74.610535c9.971191 -35.65161 -12.49176 -74.61055 -24.98352 -74.61055" fill-rule="evenodd"></path><path stroke="#595959" stroke-width="2.0" stroke-linejoin="round" stroke-linecap="butt" stroke-dasharray="2.0,6.0" d="m436.92126 374.85828c0 12.500275 52.376465 31.615265 99.767334 25.00061c47.39087 -6.6146545 89.7962 -38.958954 99.767334 -74.610535c4.9855957 -17.825806 1.8626709 -36.478455 -4.068115 -50.67462c-2.965393 -7.098114 -6.6328125 -13.082092 -10.339539 -17.291534l-0.3400879 -0.38104248" fill-rule="evenodd"></path><path fill="#595959" stroke="#595959" stroke-width="2.0" stroke-linecap="butt" d="m623.43243 254.08339l-9.466064 -1.9195251l6.017578 7.5550995z" fill-rule="evenodd"></path><path fill="#000000" fill-opacity="0.0" d="m606.0551 334.76117l133.16534 0l0 100.724396l-133.16534 0z" fill-rule="evenodd"></path><path fill="#000000" d="m622.21136 389.92337l-5.0625 -6.921875l0 6.921875l-1.078125 0l0 -8.671875l1.109375 0l4.984375 6.78125l0 -6.78125l1.078125 0l0 8.671875l-1.03125 0zm5.9987793 0.15625q-1.359375 0 -2.234375 -0.921875q-0.875 -0.9375 -0.875 -2.375q0 -1.46875 0.875 -2.375q0.875 -0.921875 2.234375 -0.921875q1.359375 0 2.234375 0.921875q0.875 0.90625 0.875 2.375q0 1.4375 -0.875 2.375q-0.875 0.921875 -2.234375 0.921875zm0 -0.875q0.90625 0 1.484375 -0.671875q0.59375 -0.6875 0.59375 -1.75q0 -1.0625 -0.59375 -1.734375q-0.578125 -0.6875 -1.484375 -0.6875q-0.90625 0 -1.5 0.671875q-0.59375 0.671875 -0.59375 1.75q0 1.078125 0.578125 1.75q0.59375 0.671875 1.515625 0.671875zm4.998657 -1.71875l-0.203125 -6.234375l1.21875 0l-0.21875 6.234375l-0.796875 0zm0.40625 2.5625q-0.296875 0 -0.515625 -0.203125q-0.203125 -0.21875 -0.203125 -0.5q0 -0.3125 0.203125 -0.515625q0.21875 -0.203125 0.515625 -0.203125q0.296875 0 0.5 0.203125q0.203125 0.203125 0.203125 0.515625q0 0.28125 -0.203125 0.5q-0.203125 0.203125 -0.5 0.203125z" fill-rule="nonzero"></path><path fill="#000000" fill-opacity="0.0" d="m436.92126 374.85828c0 12.499786 -34.118103 35.972046 -68.23624 24.999603c-34.118103 -10.972443 -68.236206 -56.389557 -68.236206 -112.779144" fill-rule="evenodd"></path><path stroke="#000000" stroke-width="2.0" stroke-linejoin="round" stroke-linecap="butt" stroke-dasharray="2.0,6.0" d="m436.92126 374.85828c0 12.499786 -34.118103 35.972046 -68.23624 24.999603c-34.118103 -10.972443 -68.236206 -56.389557 -68.236206 -112.779144" fill-rule="evenodd"></path><path fill="#000000" fill-opacity="0.0" d="m300.44357 287.07874c0 12.499878 -30.556458 30.92157 -53.102417 24.999786c-22.54596 -5.921814 -37.08142 -36.187103 -53.1024 -69.413284c-16.020996 -33.22618 -33.52751 -69.41327 -67.05503 -69.41327" fill-rule="evenodd"></path><path stroke="#595959" stroke-width="2.0" stroke-linejoin="round" stroke-linecap="butt" stroke-dasharray="2.0,6.0" d="m300.44357 287.07874c0 12.499878 -30.556458 30.92157 -53.1024 24.999786c-22.545975 -5.921814 -37.081436 -36.187103 -53.102432 -69.413284c-8.010468 -16.613098 -16.392365 -33.966415 -26.962555 -47.166443c-5.285095 -6.6000214 -11.117264 -12.161728 -17.723633 -16.07344c-1.6515961 -0.9779053 -3.3515778 -1.8527222 -5.1035004 -2.6148376c-0.8759613 -0.38105774 -1.7648926 -0.73394775 -2.6672668 -1.0574646c-0.45118713 -0.16175842 -0.9057312 -0.31619263 -1.363678 -0.46310425c-0.22897339 -0.07347107 -0.45881653 -0.14505005 -0.6894989 -0.2147522l-0.65625 -0.19218445" fill-rule="evenodd"></path><path fill="#595959" stroke="#595959" stroke-width="2.0" stroke-linecap="butt" d="m139.52138 171.61021l-9.440979 2.0391693l8.5429535 4.5064545z" fill-rule="evenodd"></path><path fill="#000000" fill-opacity="0.0" d="m271.60892 313.45932l57.66931 0l0 100.724396l-57.66931 0z" fill-rule="evenodd"></path><path fill="#000000" d="m284.14017 368.62152l0 -3.671875l-3.421875 -5.0l1.265625 0l2.6875 4.03125l2.703125 -4.03125l1.25 0l-3.40625 5.0l0 3.671875l-1.078125 0zm8.624634 0.15625q-1.421875 0 -2.3125 -0.921875q-0.890625 -0.921875 -0.890625 -2.375q0 -1.390625 0.875 -2.34375q0.890625 -0.953125 2.21875 -0.953125q1.359375 0 2.1875 0.9375q0.828125 0.9375 0.828125 2.4375l0 0.234375l-5.078125 0q0.046875 0.96875 0.6875 1.578125q0.65625 0.59375 1.578125 0.59375q1.140625 0 1.9375 -0.78125l0.46875 0.625q-0.96875 0.96875 -2.5 0.96875zm1.953125 -3.6875q0 -0.875 -0.578125 -1.484375q-0.578125 -0.609375 -1.5 -0.609375q-0.859375 0 -1.453125 0.609375q-0.578125 0.609375 -0.59375 1.484375l4.125 0zm4.7068176 3.6875q-1.609375 0 -2.546875 -0.984375l0.515625 -0.703125q0.3125 0.359375 0.859375 0.625q0.5625 0.265625 1.203125 0.265625q0.734375 0 1.109375 -0.296875q0.375 -0.3125 0.375 -0.78125q0 -0.40625 -0.40625 -0.640625q-0.40625 -0.25 -1.53125 -0.515625q-0.953125 -0.1875 -1.453125 -0.609375q-0.5 -0.421875 -0.5 -1.140625q0 -0.796875 0.640625 -1.296875q0.640625 -0.515625 1.703125 -0.515625q1.421875 0 2.328125 0.90625l-0.453125 0.6875q-0.28125 -0.34375 -0.78125 -0.5625q-0.484375 -0.234375 -1.09375 -0.234375q-0.65625 0 -1.03125 0.296875q-0.359375 0.28125 -0.359375 0.6875q0 0.375 0.40625 0.609375q0.421875 0.21875 1.546875 0.453125q0.953125 0.21875 1.4375 0.671875q0.5 0.4375 0.5 1.1875q0 0.859375 -0.6875 1.375q-0.671875 0.515625 -1.78125 0.515625zm4.322571 -2.59375l-0.203125 -6.234375l1.21875 0l-0.21875 6.234375l-0.796875 0zm0.40625 2.5625q-0.296875 0 -0.515625 -0.203125q-0.203125 -0.21875 -0.203125 -0.5q0 -0.3125 0.203125 -0.515625q0.21875 -0.203125 0.515625 -0.203125q0.296875 0 0.5 0.203125q0.203125 0.203125 0.203125 0.515625q0 0.28125 -0.203125 0.5q-0.203125 0.203125 -0.5 0.203125z" fill-rule="nonzero"></path></g></svg>

