<?xml version="1.0" standalone="yes"?>

<svg version="1.1" viewBox="0.0 0.0 960.0 540.0" fill="none" stroke="none" stroke-linecap="square" stroke-miterlimit="10" xmlns="http://www.w3.org/2000/svg" xmlns:xlink="http://www.w3.org/1999/xlink"><clipPath id="g29be78fc1f_0_111.0"><path d="m0 0l960.0 0l0 540.0l-960.0 0l0 -540.0z" clip-rule="nonzero"></path></clipPath><g clip-path="url(#g29be78fc1f_0_111.0)"><path fill="#ffffff" d="m0 0l960.0 0l0 540.0l-960.0 0z" fill-rule="evenodd"></path><path fill="#000000" fill-opacity="0.0" d="m455.61154 101.784775l-109.79526 61.417328" fill-rule="evenodd"></path><path stroke="#595959" stroke-width="1.0" stroke-linejoin="round" stroke-linecap="butt" d="m455.61154 101.784775l-109.79526 61.417328" fill-rule="evenodd"></path><path fill="#000000" fill-opacity="0.0" d="m455.61154 101.784775l100.409454 61.448822" fill-rule="evenodd"></path><path stroke="#00ff00" stroke-width="8.0" stroke-linejoin="round" stroke-linecap="butt" d="m455.61154 101.784775l100.409454 61.448822" fill-rule="evenodd"></path><path fill="#000000" fill-opacity="0.0" d="m345.82678 236.08923l-55.748047 101.102356" fill-rule="evenodd"></path><path stroke="#595959" stroke-width="1.0" stroke-linejoin="round" stroke-linecap="butt" d="m345.82678 236.08923l-55.748047 101.102356" fill-rule="evenodd"></path><path fill="#000000" fill-opacity="0.0" d="m345.82678 236.08923l47.748016 101.102356" fill-rule="evenodd"></path><path stroke="#595959" stroke-width="1.0" stroke-linejoin="round" stroke-linecap="butt" d="m345.82678 236.08923l47.748016 101.102356" fill-rule="evenodd"></path><path fill="#000000" fill-opacity="0.0" d="m556.0315 236.11417l-46.897644 101.03937" fill-rule="evenodd"></path><path stroke="#595959" stroke-width="1.0" stroke-linejoin="round" stroke-linecap="butt" d="m556.0315 236.11417l-46.897644 101.03937" fill-rule="evenodd"></path><path fill="#000000" fill-opacity="0.0" d="m556.0315 236.11417l59.653564 101.07086" fill-rule="evenodd"></path><path stroke="#00ff00" stroke-width="8.0" stroke-linejoin="round" stroke-linecap="butt" d="m556.0315 236.11417l59.653564 101.07086" fill-rule="evenodd"></path><path fill="#3c78d8" d="m416.46194 28.902887l78.299225 0l0 72.88189l-78.299225 0z" fill-rule="evenodd"></path><path stroke="#434343" stroke-width="2.0" stroke-linejoin="round" stroke-linecap="butt" d="m416.46194 28.902887l78.299225 0l0 72.88189l-78.299225 0z" fill-rule="evenodd"></path><path fill="#ffffff" d="m441.8091 54.14383l-2.203125 -3.4375l-1.734375 0l0 3.4375l-1.078125 0l0 -8.671875l3.484375 0q1.21875 0 1.96875 0.734375q0.75 0.71875 0.75 1.875q0 1.09375 -0.640625 1.765625q-0.625 0.671875 -1.609375 0.765625l2.34375 3.53125l-1.28125 0zm-1.65625 -4.390625q0.765625 0 1.234375 -0.453125q0.484375 -0.46875 0.484375 -1.21875q0 -0.734375 -0.484375 -1.1875q-0.46875 -0.453125 -1.234375 -0.453125l-2.28125 0l0 3.3125l2.28125 0zm8.697235 4.546875q-1.90625 0 -3.109375 -1.265625q-1.203125 -1.28125 -1.203125 -3.21875q0 -1.953125 1.203125 -3.21875q1.203125 -1.265625 3.109375 -1.265625q1.90625 0 3.09375 1.28125q1.203125 1.265625 1.203125 3.203125q0 1.953125 -1.203125 3.21875q-1.203125 1.265625 -3.09375 1.265625zm0 -0.96875q1.421875 0 2.296875 -0.984375q0.890625 -1.0 0.890625 -2.53125q0 -1.5625 -0.890625 -2.546875q-0.875 -0.984375 -2.296875 -0.984375q-1.40625 0 -2.296875 0.96875q-0.890625 0.96875 -0.890625 2.5625q0 1.5625 0.875 2.546875q0.875 0.96875 2.3125 0.96875zm10.195984 0.96875q-1.90625 0 -3.109375 -1.265625q-1.203125 -1.28125 -1.203125 -3.21875q0 -1.953125 1.203125 -3.21875q1.203125 -1.265625 3.109375 -1.265625q1.90625 0 3.09375 1.28125q1.203125 1.265625 1.203125 3.203125q0 1.953125 -1.203125 3.21875q-1.203125 1.265625 -3.09375 1.265625zm0 -0.96875q1.421875 0 2.296875 -0.984375q0.890625 -1.0 0.890625 -2.53125q0 -1.5625 -0.890625 -2.546875q-0.875 -0.984375 -2.296875 -0.984375q-1.40625 0 -2.296875 0.96875q-0.890625 0.96875 -0.890625 2.5625q0 1.5625 0.875 2.546875q0.875 0.96875 2.3125 0.96875zm8.383484 0.8125l0 -7.703125l-2.734375 0l0 -0.96875l6.578125 0l0 0.96875l-2.765625 0l0 7.703125l-1.078125 0z" fill-rule="nonzero"></path><path fill="#ffffff" d="m433.35486 86.14383l0 -8.671875l3.484375 0q1.234375 0 1.96875 0.75q0.75 0.734375 0.75 1.859375q0 1.15625 -0.765625 1.890625q-0.75 0.734375 -1.953125 0.734375l-2.40625 0l0 3.4375l-1.078125 0zm3.359375 -4.40625q0.765625 0 1.234375 -0.453125q0.484375 -0.453125 0.484375 -1.203125q0 -0.734375 -0.484375 -1.1875q-0.46875 -0.453125 -1.234375 -0.453125l-2.28125 0l0 3.296875l2.28125 0zm10.651703 4.40625l-0.765625 -1.921875l-4.3125 0l-0.765625 1.921875l-1.25 0l3.484375 -8.671875l1.34375 0l3.5 8.671875l-1.234375 0zm-2.921875 -7.546875l-1.84375 4.65625l3.671875 0l-1.828125 -4.65625zm10.519867 7.546875l-2.203125 -3.4375l-1.734375 0l0 3.4375l-1.078125 0l0 -8.671875l3.484375 0q1.21875 0 1.96875 0.734375q0.75 0.71875 0.75 1.875q0 1.09375 -0.640625 1.765625q-0.625 0.671875 -1.609375 0.765625l2.34375 3.53125l-1.28125 0zm-1.65625 -4.390625q0.765625 0 1.234375 -0.453125q0.484375 -0.46875 0.484375 -1.21875q0 -0.734375 -0.484375 -1.1875q-0.46875 -0.453125 -1.234375 -0.453125l-2.28125 0l0 3.3125l2.28125 0zm4.7440796 4.390625l0 -8.671875l5.671875 0l0 0.96875l-4.59375 0l0 2.796875l4.515625 0l0 0.953125l-4.515625 0l0 2.984375l4.59375 0l0 0.96875l-5.671875 0zm13.724304 0l-5.0625 -6.921875l0 6.921875l-1.078125 0l0 -8.671875l1.109375 0l4.984375 6.78125l0 -6.78125l1.078125 0l0 8.671875l-1.03125 0zm5.4362793 0l0 -7.703125l-2.734375 0l0 -0.96875l6.578125 0l0 0.96875l-2.765625 0l0 7.703125l-1.078125 0z" fill-rule="nonzero"></path><path fill="#3c78d8" d="m306.67715 163.20735l78.299225 0l0 72.88188l-78.299225 0z" fill-rule="evenodd"></path><path stroke="#434343" stroke-width="2.0" stroke-linejoin="round" stroke-linecap="butt" d="m306.67715 163.20735l78.299225 0l0 72.88188l-78.299225 0z" fill-rule="evenodd"></path><path fill="#ffffff" d="m331.79953 188.60454q-1.90625 0 -3.1875 -1.25q-1.28125 -1.265625 -1.28125 -3.234375q0 -1.96875 1.28125 -3.21875q1.28125 -1.265625 3.1875 -1.265625q2.0625 0 3.28125 1.71875l-0.90625 0.5q-0.375 -0.546875 -1.015625 -0.90625q-0.625 -0.359375 -1.359375 -0.359375q-1.453125 0 -2.40625 1.015625q-0.9375 1.0 -0.9375 2.515625q0 1.53125 0.9375 2.53125q0.953125 0.984375 2.40625 0.984375q0.734375 0 1.359375 -0.34375q0.640625 -0.359375 1.015625 -0.90625l0.921875 0.5q-1.265625 1.71875 -3.296875 1.71875zm11.041046 -0.15625l0 -3.984375l-5.0625 0l0 3.984375l-1.078125 0l0 -8.671875l1.078125 0l0 3.734375l5.0625 0l0 -3.734375l1.078125 0l0 8.671875l-1.078125 0zm3.3489685 0l0 -8.671875l1.078125 0l0 8.671875l-1.078125 0zm3.1853943 0l0 -8.671875l1.078125 0l0 7.703125l4.03125 0l0 0.96875l-5.109375 0zm6.797333 0l0 -8.671875l2.96875 0q1.96875 0 3.203125 1.234375q1.234375 1.21875 1.234375 3.109375q0 1.890625 -1.25 3.109375q-1.234375 1.21875 -3.1875 1.21875l-2.96875 0zm2.96875 -0.96875q1.46875 0 2.390625 -0.921875q0.9375 -0.9375 0.9375 -2.4375q0 -1.515625 -0.921875 -2.4375q-0.90625 -0.9375 -2.40625 -0.9375l-1.890625 0l0 6.734375l1.890625 0z" fill-rule="nonzero"></path><path fill="#ffffff" d="m323.57007 220.44829l0 -8.671875l3.484375 0q1.234375 0 1.96875 0.75q0.75 0.734375 0.75 1.859375q0 1.15625 -0.765625 1.890625q-0.75 0.734375 -1.953125 0.734375l-2.40625 0l0 3.4375l-1.078125 0zm3.359375 -4.40625q0.765625 0 1.234375 -0.453125q0.484375 -0.453125 0.484375 -1.203125q0 -0.734375 -0.484375 -1.1875q-0.46875 -0.453125 -1.234375 -0.453125l-2.28125 0l0 3.296875l2.28125 0zm10.651703 4.40625l-0.765625 -1.921875l-4.3125 0l-0.765625 1.921875l-1.25 0l3.484375 -8.671875l1.34375 0l3.5 8.671875l-1.234375 0zm-2.921875 -7.546875l-1.84375 4.65625l3.671875 0l-1.828125 -4.65625zm10.519867 7.546875l-2.203125 -3.4375l-1.734375 0l0 3.4375l-1.078125 0l0 -8.671875l3.484375 0q1.21875 0 1.96875 0.734375q0.75 0.71875 0.75 1.875q0 1.09375 -0.640625 1.765625q-0.625 0.671875 -1.609375 0.765625l2.34375 3.53125l-1.28125 0zm-1.65625 -4.390625q0.765625 0 1.234375 -0.453125q0.484375 -0.46875 0.484375 -1.21875q0 -0.734375 -0.484375 -1.1875q-0.46875 -0.453125 -1.234375 -0.453125l-2.28125 0l0 3.3125l2.28125 0zm4.74411 4.390625l0 -8.671875l5.671875 0l0 0.96875l-4.59375 0l0 2.796875l4.515625 0l0 0.953125l-4.515625 0l0 2.984375l4.59375 0l0 0.96875l-5.671875 0zm13.724304 0l-5.0625 -6.921875l0 6.921875l-1.078125 0l0 -8.671875l1.109375 0l4.984375 6.78125l0 -6.78125l1.078125 0l0 8.671875l-1.03125 0zm5.4362793 0l0 -7.703125l-2.734375 0l0 -0.96875l6.578125 0l0 0.96875l-2.765625 0l0 7.703125l-1.078125 0z" fill-rule="nonzero"></path><path fill="#3c78d8" d="m516.8819 163.23228l78.299194 0l0 72.88188l-78.299194 0z" fill-rule="evenodd"></path><path stroke="#434343" stroke-width="2.0" stroke-linejoin="round" stroke-linecap="butt" d="m516.8819 163.23228l78.299194 0l0 72.88188l-78.299194 0z" fill-rule="evenodd"></path><path fill="#ffffff" d="m541.3228 188.62947q-1.90625 0 -3.1875 -1.25q-1.28125 -1.265625 -1.28125 -3.234375q0 -1.96875 1.28125 -3.21875q1.28125 -1.265625 3.1875 -1.265625q2.0625 0 3.28125 1.71875l-0.90625 0.5q-0.375 -0.546875 -1.015625 -0.90625q-0.625 -0.359375 -1.359375 -0.359375q-1.453125 0 -2.40625 1.015625q-0.9375 1.0 -0.9375 2.515625q0 1.53125 0.9375 2.53125q0.953125 0.984375 2.40625 0.984375q0.734375 0 1.359375 -0.34375q0.640625 -0.359375 1.015625 -0.90625l0.921875 0.5q-1.265625 1.71875 -3.296875 1.71875zm11.041016 -0.15625l0 -3.984375l-5.0625 0l0 3.984375l-1.078125 0l0 -8.671875l1.078125 0l0 3.734375l5.0625 0l0 -3.734375l1.078125 0l0 8.671875l-1.078125 0zm3.348999 0l0 -8.671875l1.078125 0l0 8.671875l-1.078125 0zm3.1854248 0l0 -8.671875l1.078125 0l0 7.703125l4.03125 0l0 0.96875l-5.109375 0zm6.7973022 0l0 -8.671875l2.96875 0q1.96875 0 3.203125 1.234375q1.234375 1.21875 1.234375 3.109375q0 1.890625 -1.25 3.109375q-1.234375 1.21875 -3.1875 1.21875l-2.96875 0zm2.96875 -0.96875q1.46875 0 2.390625 -0.921875q0.9375 -0.9375 0.9375 -2.4375q0 -1.515625 -0.921875 -2.4375q-0.90625 -0.9375 -2.40625 -0.9375l-1.890625 0l0 6.734375l1.890625 0z" fill-rule="nonzero"></path><path fill="#ffffff" d="m533.7748 220.47322l0 -8.671875l3.484375 0q1.234375 0 1.96875 0.75q0.75 0.734375 0.75 1.859375q0 1.15625 -0.765625 1.890625q-0.75 0.734375 -1.953125 0.734375l-2.40625 0l0 3.4375l-1.078125 0zm3.359375 -4.40625q0.765625 0 1.234375 -0.453125q0.484375 -0.453125 0.484375 -1.203125q0 -0.734375 -0.484375 -1.1875q-0.46875 -0.453125 -1.234375 -0.453125l-2.28125 0l0 3.296875l2.28125 0zm10.651733 4.40625l-0.765625 -1.921875l-4.3125 0l-0.765625 1.921875l-1.25 0l3.484375 -8.671875l1.34375 0l3.5 8.671875l-1.234375 0zm-2.921875 -7.546875l-1.84375 4.65625l3.671875 0l-1.828125 -4.65625zm10.519836 7.546875l-2.203125 -3.4375l-1.734375 0l0 3.4375l-1.078125 0l0 -8.671875l3.484375 0q1.21875 0 1.96875 0.734375q0.75 0.71875 0.75 1.875q0 1.09375 -0.640625 1.765625q-0.625 0.671875 -1.609375 0.765625l2.34375 3.53125l-1.28125 0zm-1.65625 -4.390625q0.765625 0 1.234375 -0.453125q0.484375 -0.46875 0.484375 -1.21875q0 -0.734375 -0.484375 -1.1875q-0.46875 -0.453125 -1.234375 -0.453125l-2.28125 0l0 3.3125l2.28125 0zm4.7441406 4.390625l0 -8.671875l5.671875 0l0 0.96875l-4.59375 0l0 2.796875l4.515625 0l0 0.953125l-4.515625 0l0 2.984375l4.59375 0l0 0.96875l-5.671875 0zm13.724304 0l-5.0625 -6.921875l0 6.921875l-1.078125 0l0 -8.671875l1.109375 0l4.984375 6.78125l0 -6.78125l1.078125 0l0 8.671875l-1.03125 0zm5.4362793 0l0 -7.703125l-2.734375 0l0 -0.96875l6.578125 0l0 0.96875l-2.765625 0l0 7.703125l-1.078125 0z" fill-rule="nonzero"></path><path fill="#3c78d8" d="m250.93176 337.18372l78.299194 0l0 72.8819l-78.299194 0z" fill-rule="evenodd"></path><path stroke="#434343" stroke-width="2.0" stroke-linejoin="round" stroke-linecap="butt" d="m250.93176 337.18372l78.299194 0l0 72.8819l-78.299194 0z" fill-rule="evenodd"></path><path fill="#ffffff" d="m275.37268 378.58093q-1.90625 0 -3.1875 -1.25q-1.28125 -1.265625 -1.28125 -3.234375q0 -1.96875 1.28125 -3.21875q1.28125 -1.265625 3.1875 -1.265625q2.0625 0 3.28125 1.71875l-0.90625 0.5q-0.375 -0.546875 -1.015625 -0.90625q-0.625 -0.359375 -1.359375 -0.359375q-1.453125 0 -2.40625 1.015625q-0.9375 1.0 -0.9375 2.515625q0 1.53125 0.9375 2.53125q0.953125 0.984375 2.40625 0.984375q0.734375 0 1.359375 -0.34375q0.640625 -0.359375 1.015625 -0.90625l0.921875 0.5q-1.265625 1.71875 -3.296875 1.71875zm11.041046 -0.15625l0 -3.984375l-5.0625 0l0 3.984375l-1.078125 0l0 -8.671875l1.078125 0l0 3.734375l5.0625 0l0 -3.734375l1.078125 0l0 8.671875l-1.078125 0zm3.3489685 0l0 -8.671875l1.078125 0l0 8.671875l-1.078125 0zm3.1853943 0l0 -8.671875l1.078125 0l0 7.703125l4.03125 0l0 0.96875l-5.109375 0zm6.797333 0l0 -8.671875l2.96875 0q1.96875 0 3.203125 1.234375q1.234375 1.21875 1.234375 3.109375q0 1.890625 -1.25 3.109375q-1.234375 1.21875 -3.1875 1.21875l-2.96875 0zm2.96875 -0.96875q1.46875 0 2.390625 -0.921875q0.9375 -0.9375 0.9375 -2.4375q0 -1.515625 -0.921875 -2.4375q-0.90625 -0.9375 -2.40625 -0.9375l-1.890625 0l0 6.734375l1.890625 0z" fill-rule="nonzero"></path><path fill="#3c78d8" d="m354.4134 337.18372l78.299194 0l0 72.8819l-78.299194 0z" fill-rule="evenodd"></path><path stroke="#434343" stroke-width="2.0" stroke-linejoin="round" stroke-linecap="butt" d="m354.4134 337.18372l78.299194 0l0 72.8819l-78.299194 0z" fill-rule="evenodd"></path><path fill="#ffffff" d="m378.8543 378.58093q-1.90625 0 -3.1875 -1.25q-1.28125 -1.265625 -1.28125 -3.234375q0 -1.96875 1.28125 -3.21875q1.28125 -1.265625 3.1875 -1.265625q2.0625 0 3.28125 1.71875l-0.90625 0.5q-0.375 -0.546875 -1.015625 -0.90625q-0.625 -0.359375 -1.359375 -0.359375q-1.453125 0 -2.40625 1.015625q-0.9375 1.0 -0.9375 2.515625q0 1.53125 0.9375 2.53125q0.953125 0.984375 2.40625 0.984375q0.734375 0 1.359375 -0.34375q0.640625 -0.359375 1.015625 -0.90625l0.921875 0.5q-1.265625 1.71875 -3.296875 1.71875zm11.041046 -0.15625l0 -3.984375l-5.0625 0l0 3.984375l-1.078125 0l0 -8.671875l1.078125 0l0 3.734375l5.0625 0l0 -3.734375l1.078125 0l0 8.671875l-1.078125 0zm3.3489685 0l0 -8.671875l1.078125 0l0 8.671875l-1.078125 0zm3.1853943 0l0 -8.671875l1.078125 0l0 7.703125l4.03125 0l0 0.96875l-5.109375 0zm6.797333 0l0 -8.671875l2.96875 0q1.96875 0 3.203125 1.234375q1.234375 1.21875 1.234375 3.109375q0 1.890625 -1.25 3.109375q-1.234375 1.21875 -3.1875 1.21875l-2.96875 0zm2.96875 -0.96875q1.46875 0 2.390625 -0.921875q0.9375 -0.9375 0.9375 -2.4375q0 -1.515625 -0.921875 -2.4375q-0.90625 -0.9375 -2.40625 -0.9375l-1.890625 0l0 6.734375l1.890625 0z" fill-rule="nonzero"></path><path fill="#3c78d8" d="m469.98688 337.16797l78.299194 0l0 72.8819l-78.299194 0z" fill-rule="evenodd"></path><path stroke="#434343" stroke-width="2.0" stroke-linejoin="round" stroke-linecap="butt" d="m469.98688 337.16797l78.299194 0l0 72.8819l-78.299194 0z" fill-rule="evenodd"></path><path fill="#ffffff" d="m494.4278 378.5652q-1.90625 0 -3.1875 -1.25q-1.28125 -1.265625 -1.28125 -3.234375q0 -1.96875 1.28125 -3.21875q1.28125 -1.265625 3.1875 -1.265625q2.0625 0 3.28125 1.71875l-0.90625 0.5q-0.375 -0.546875 -1.015625 -0.90625q-0.625 -0.359375 -1.359375 -0.359375q-1.453125 0 -2.40625 1.015625q-0.9375 1.0 -0.9375 2.515625q0 1.53125 0.9375 2.53125q0.953125 0.984375 2.40625 0.984375q0.734375 0 1.359375 -0.34375q0.640625 -0.359375 1.015625 -0.90625l0.921875 0.5q-1.265625 1.71875 -3.296875 1.71875zm11.041046 -0.15625l0 -3.984375l-5.0625 0l0 3.984375l-1.078125 0l0 -8.671875l1.078125 0l0 3.734375l5.0625 0l0 -3.734375l1.078125 0l0 8.671875l-1.078125 0zm3.3489685 0l0 -8.671875l1.078125 0l0 8.671875l-1.078125 0zm3.1854248 0l0 -8.671875l1.078125 0l0 7.703125l4.03125 0l0 0.96875l-5.109375 0zm6.7973022 0l0 -8.671875l2.96875 0q1.96875 0 3.203125 1.234375q1.234375 1.21875 1.234375 3.109375q0 1.890625 -1.25 3.109375q-1.234375 1.21875 -3.1875 1.21875l-2.96875 0zm2.96875 -0.96875q1.46875 0 2.390625 -0.921875q0.9375 -0.9375 0.9375 -2.4375q0 -1.515625 -0.921875 -2.4375q-0.90625 -0.9375 -2.40625 -0.9375l-1.890625 0l0 6.734375l1.890625 0z" fill-rule="nonzero"></path><path fill="#3c78d8" d="m576.5381 337.18372l78.299194 0l0 72.8819l-78.299194 0z" fill-rule="evenodd"></path><path stroke="#434343" stroke-width="2.0" stroke-linejoin="round" stroke-linecap="butt" d="m576.5381 337.18372l78.299194 0l0 72.8819l-78.299194 0z" fill-rule="evenodd"></path><path fill="#ffffff" d="m600.979 378.58093q-1.90625 0 -3.1875 -1.25q-1.28125 -1.265625 -1.28125 -3.234375q0 -1.96875 1.28125 -3.21875q1.28125 -1.265625 3.1875 -1.265625q2.0625 0 3.28125 1.71875l-0.90625 0.5q-0.375 -0.546875 -1.015625 -0.90625q-0.625 -0.359375 -1.359375 -0.359375q-1.453125 0 -2.40625 1.015625q-0.9375 1.0 -0.9375 2.515625q0 1.53125 0.9375 2.53125q0.953125 0.984375 2.40625 0.984375q0.734375 0 1.359375 -0.34375q0.640625 -0.359375 1.015625 -0.90625l0.921875 0.5q-1.265625 1.71875 -3.296875 1.71875zm11.041016 -0.15625l0 -3.984375l-5.0625 0l0 3.984375l-1.078125 0l0 -8.671875l1.078125 0l0 3.734375l5.0625 0l0 -3.734375l1.078125 0l0 8.671875l-1.078125 0zm3.348999 0l0 -8.671875l1.078125 0l0 8.671875l-1.078125 0zm3.1853638 0l0 -8.671875l1.078125 0l0 7.703125l4.03125 0l0 0.96875l-5.109375 0zm6.7973633 0l0 -8.671875l2.96875 0q1.96875 0 3.203125 1.234375q1.234375 1.21875 1.234375 3.109375q0 1.890625 -1.25 3.109375q-1.234375 1.21875 -3.1875 1.21875l-2.96875 0zm2.96875 -0.96875q1.46875 0 2.390625 -0.921875q0.9375 -0.9375 0.9375 -2.4375q0 -1.515625 -0.921875 -2.4375q-0.90625 -0.9375 -2.40625 -0.9375l-1.890625 0l0 6.734375l1.890625 0z" fill-rule="nonzero"></path><path fill="#000000" fill-opacity="0.0" d="m306.67715 201.44882l78.299225 0" fill-rule="evenodd"></path><path stroke="#ffffff" stroke-width="2.0" stroke-linejoin="round" stroke-linecap="butt" d="m306.67715 201.44882l78.299225 0" fill-rule="evenodd"></path><path fill="#000000" fill-opacity="0.0" d="m516.8819 199.44882l78.299194 0" fill-rule="evenodd"></path><path stroke="#ffffff" stroke-width="2.0" stroke-linejoin="round" stroke-linecap="butt" d="m516.8819 199.44882l78.299194 0" fill-rule="evenodd"></path><path fill="#000000" fill-opacity="0.0" d="m416.46194 65.34908l78.299225 0" fill-rule="evenodd"></path><path stroke="#ffffff" stroke-width="2.0" stroke-linejoin="round" stroke-linecap="butt" d="m416.46194 65.34908l78.299225 0" fill-rule="evenodd"></path><path fill="#000000" fill-opacity="0.0" d="m654.8373 373.62466c12.500122 0 32.45691 -43.48819 25.000183 -86.97638c-7.456665 -43.488174 -42.326843 -86.976364 -84.65375 -86.976364" fill-rule="evenodd"></path><path stroke="#595959" stroke-width="3.0" stroke-linejoin="round" stroke-linecap="butt" d="m668.1132 361.46948l0.20544434 -0.35507202c0.21313477 -0.37277222 0.42523193 -0.752655 0.6362915 -1.1394958c0.4220581 -0.7737732 0.8397217 -1.5753479 1.251831 -2.4035034c1.6486206 -3.312561 3.2094727 -7.049835 4.61438 -11.126862c5.619629 -16.308075 8.744629 -38.052155 5.0162964 -59.796265c-7.456665 -43.488174 -42.326904 -86.976364 -84.65375 -86.976364" fill-rule="evenodd"></path><path fill="#595959" stroke="#595959" stroke-width="3.0" stroke-linecap="butt" d="m664.767 357.81476l-6.6950684 12.848297l13.387451 -5.538849z" fill-rule="evenodd"></path><path fill="#000000" fill-opacity="0.0" d="m595.1811 199.67323c12.5 0 37.551147 -33.582687 24.999939 -67.16536c-12.551147 -33.58268 -62.70465 -67.16535 -125.40936 -67.16535" fill-rule="evenodd"></path><path stroke="#595959" stroke-width="3.0" stroke-linejoin="round" stroke-linecap="butt" d="m610.10254 189.60591l0.024169922 -0.029327393c0.119262695 -0.14665222 0.23834229 -0.29467773 0.3571167 -0.44406128c0.47509766 -0.59750366 0.94555664 -1.216507 1.4099731 -1.8560333c1.857544 -2.5580444 3.6173706 -5.4440613 5.1814575 -8.592438c6.2564087 -12.593506 9.381409 -29.384842 3.105835 -46.176178c-12.5512085 -33.58268 -62.704773 -67.16535 -125.409424 -67.16535" fill-rule="evenodd"></path><path fill="#595959" stroke="#595959" stroke-width="3.0" stroke-linecap="butt" d="m607.3311 185.49821l-8.514404 11.722107l14.057251 -3.5066986z" fill-rule="evenodd"></path><path fill="#000000" fill-opacity="0.0" d="m690.8688 353.99738l133.16534 0l0 100.724396l-133.16534 0z" fill-rule="evenodd"></path><path fill="#000000" d="m701.35315 411.27957l0 -12.671875l4.328125 0q2.890625 0 4.6875 1.796875q1.8125 1.796875 1.8125 4.546875q0 2.78125 -1.8125 4.5625q-1.8125 1.765625 -4.6875 1.765625l-4.328125 0zm4.328125 -1.40625q2.171875 0 3.515625 -1.359375q1.34375 -1.359375 1.34375 -3.5625q0 -2.203125 -1.328125 -3.5625q-1.328125 -1.375 -3.53125 -1.375l-2.75 0l0 9.859375l2.75 0zm12.809387 1.640625q-2.0625 0 -3.375 -1.34375q-1.296875 -1.359375 -1.296875 -3.484375q0 -2.03125 1.296875 -3.421875q1.296875 -1.390625 3.234375 -1.390625q1.96875 0 3.1875 1.375q1.21875 1.359375 1.21875 3.546875l0 0.359375l-7.4375 0q0.078125 1.40625 1.015625 2.296875q0.9375 0.875 2.296875 0.875q1.671875 0 2.828125 -1.15625l0.6875 0.9375q-1.40625 1.40625 -3.65625 1.40625zm2.859375 -5.40625q0 -1.265625 -0.84375 -2.15625q-0.828125 -0.90625 -2.1875 -0.90625q-1.265625 0 -2.109375 0.90625q-0.84375 0.890625 -0.890625 2.15625l6.03125 0zm8.034668 5.40625q-1.96875 0 -3.109375 -1.625l0 4.890625l-1.421875 0l0 -12.671875l1.421875 0l0 1.359375q0.5 -0.703125 1.3125 -1.140625q0.828125 -0.453125 1.796875 -0.453125q1.84375 0 2.953125 1.296875q1.125 1.28125 1.125 3.515625q0 2.203125 -1.109375 3.515625q-1.109375 1.3125 -2.96875 1.3125zm-0.359375 -1.28125q1.328125 0 2.125 -0.96875q0.8125 -0.96875 0.8125 -2.578125q0 -1.578125 -0.796875 -2.546875q-0.796875 -0.984375 -2.140625 -0.984375q-0.859375 0 -1.609375 0.421875q-0.75 0.421875 -1.140625 1.03125l0 4.140625q0.390625 0.609375 1.140625 1.046875q0.75 0.4375 1.609375 0.4375zm8.827637 1.28125q-2.046875 0 -2.046875 -2.15625l0 -6.0l-1.515625 0l0 -1.25l1.515625 0l0 -2.515625l1.4375 0l0 2.515625l1.859375 0l0 1.25l-1.859375 0l0 5.703125q0 0.515625 0.21875 0.84375q0.234375 0.328125 0.703125 0.328125q0.59375 0 0.96875 -0.375l0.421875 1.0625q-0.59375 0.59375 -1.703125 0.59375zm9.375549 -0.234375l0 -6.046875q0 -1.015625 -0.484375 -1.546875q-0.484375 -0.53125 -1.59375 -0.53125q-0.78125 0 -1.515625 0.40625q-0.71875 0.390625 -1.203125 1.015625l0 6.703125l-1.421875 0l0 -12.671875l1.421875 0l0 4.828125q0.609375 -0.703125 1.484375 -1.125q0.875 -0.4375 1.8125 -0.4375q2.921875 0 2.921875 2.921875l0 6.484375l-1.421875 0zm8.017822 -7.671875l0 -1.015625l8.390625 0l0 1.015625l-8.390625 0zm0 3.65625l0 -0.984375l8.390625 0l0 0.984375l-8.390625 0zm14.607178 4.015625l0 -1.25q3.34375 -2.640625 4.59375 -3.84375q1.25 -1.21875 1.84375 -2.171875q0.59375 -0.96875 0.59375 -1.875q0 -1.046875 -0.734375 -1.671875q-0.71875 -0.640625 -1.90625 -0.640625q-2.234375 0 -3.453125 1.59375l-0.96875 -1.015625q0.734375 -0.96875 1.890625 -1.46875q1.171875 -0.515625 2.53125 -0.515625q1.84375 0 3.046875 1.015625q1.203125 1.015625 1.203125 2.703125q0 1.546875 -1.3125 3.25q-1.296875 1.6875 -4.84375 4.484375l6.21875 0l0 1.40625l-8.703125 0z" fill-rule="nonzero"></path><path fill="#000000" fill-opacity="0.0" d="m690.8688 151.0853l133.16534 0l0 100.72441l-133.16534 0z" fill-rule="evenodd"></path><path fill="#000000" d="m701.35315 208.36751l0 -12.671875l4.328125 0q2.890625 0 4.6875 1.796875q1.8125 1.796875 1.8125 4.546875q0 2.78125 -1.8125 4.5625q-1.8125 1.765625 -4.6875 1.765625l-4.328125 0zm4.328125 -1.40625q2.171875 0 3.515625 -1.359375q1.34375 -1.359375 1.34375 -3.5625q0 -2.203125 -1.328125 -3.5625q-1.328125 -1.375 -3.53125 -1.375l-2.75 0l0 9.859375l2.75 0zm12.809387 1.640625q-2.0625 0 -3.375 -1.34375q-1.296875 -1.359375 -1.296875 -3.484375q0 -2.03125 1.296875 -3.421875q1.296875 -1.390625 3.234375 -1.390625q1.96875 0 3.1875 1.375q1.21875 1.359375 1.21875 3.546875l0 0.359375l-7.4375 0q0.078125 1.40625 1.015625 2.296875q0.9375 0.875 2.296875 0.875q1.671875 0 2.828125 -1.15625l0.6875 0.9375q-1.40625 1.40625 -3.65625 1.40625zm2.859375 -5.40625q0 -1.265625 -0.84375 -2.15625q-0.828125 -0.90625 -2.1875 -0.90625q-1.265625 0 -2.109375 0.90625q-0.84375 0.890625 -0.890625 2.15625l6.03125 0zm8.034668 5.40625q-1.96875 0 -3.109375 -1.625l0 4.890625l-1.421875 0l0 -12.671875l1.421875 0l0 1.359375q0.5 -0.703125 1.3125 -1.140625q0.828125 -0.453125 1.796875 -0.453125q1.84375 0 2.953125 1.296875q1.125 1.28125 1.125 3.515625q0 2.203125 -1.109375 3.515625q-1.109375 1.3125 -2.96875 1.3125zm-0.359375 -1.28125q1.328125 0 2.125 -0.96875q0.8125 -0.96875 0.8125 -2.578125q0 -1.578125 -0.796875 -2.546875q-0.796875 -0.984375 -2.140625 -0.984375q-0.859375 0 -1.609375 0.421875q-0.75 0.421875 -1.140625 1.03125l0 4.140625q0.390625 0.609375 1.140625 1.046875q0.75 0.4375 1.609375 0.4375zm8.827637 1.28125q-2.046875 0 -2.046875 -2.15625l0 -6.0l-1.515625 0l0 -1.25l1.515625 0l0 -2.515625l1.4375 0l0 2.515625l1.859375 0l0 1.25l-1.859375 0l0 5.703125q0 0.515625 0.21875 0.84375q0.234375 0.328125 0.703125 0.328125q0.59375 0 0.96875 -0.375l0.421875 1.0625q-0.59375 0.59375 -1.703125 0.59375zm9.375549 -0.234375l0 -6.046875q0 -1.015625 -0.484375 -1.546875q-0.484375 -0.53125 -1.59375 -0.53125q-0.78125 0 -1.515625 0.40625q-0.71875 0.390625 -1.203125 1.015625l0 6.703125l-1.421875 0l0 -12.671875l1.421875 0l0 4.828125q0.609375 -0.703125 1.484375 -1.125q0.875 -0.4375 1.8125 -0.4375q2.921875 0 2.921875 2.921875l0 6.484375l-1.421875 0zm8.017822 -7.671875l0 -1.015625l8.390625 0l0 1.015625l-8.390625 0zm0 3.65625l0 -0.984375l8.390625 0l0 0.984375l-8.390625 0zm16.950928 4.015625l0 -10.578125l-2.03125 2.140625l-0.9375 -0.96875l3.171875 -3.265625l1.375 0l0 12.671875l-1.578125 0z" fill-rule="nonzero"></path><path fill="#000000" fill-opacity="0.0" d="m681.4593 3.8700788l133.1654 0l0 100.72441l-133.1654 0z" fill-rule="evenodd"></path><path fill="#000000" d="m691.94366 61.152283l0 -12.671875l4.328125 0q2.890625 0 4.6875 1.796875q1.8125 1.796875 1.8125 4.546875q0 2.78125 -1.8125 4.5625q-1.8125 1.765625 -4.6875 1.765625l-4.328125 0zm4.328125 -1.40625q2.171875 0 3.515625 -1.359375q1.34375 -1.359375 1.34375 -3.5625q0 -2.203125 -1.328125 -3.5625q-1.328125 -1.375 -3.53125 -1.375l-2.75 0l0 9.859375l2.75 0zm12.809387 1.640625q-2.0625 0 -3.375 -1.34375q-1.296875 -1.359375 -1.296875 -3.484375q0 -2.03125 1.296875 -3.421875q1.296875 -1.390625 3.234375 -1.390625q1.96875 0 3.1875 1.375q1.21875 1.359375 1.21875 3.546875l0 0.359375l-7.4375 0q0.078125 1.40625 1.015625 2.296875q0.9375 0.875 2.296875 0.875q1.671875 0 2.828125 -1.15625l0.6875 0.9375q-1.40625 1.40625 -3.65625 1.40625zm2.859375 -5.40625q0 -1.265625 -0.84375 -2.15625q-0.828125 -0.90625 -2.1875 -0.90625q-1.265625 0 -2.109375 0.90625q-0.84375 0.890625 -0.890625 2.15625l6.03125 0zm8.034729 5.40625q-1.96875 0 -3.109375 -1.625l0 4.890625l-1.421875 0l0 -12.671875l1.421875 0l0 1.359375q0.5 -0.703125 1.3125 -1.140625q0.828125 -0.453125 1.796875 -0.453125q1.84375 0 2.953125 1.296875q1.125 1.28125 1.125 3.515625q0 2.203125 -1.109375 3.515625q-1.109375 1.3125 -2.96875 1.3125zm-0.359375 -1.28125q1.328125 0 2.125 -0.96875q0.8125 -0.96875 0.8125 -2.578125q0 -1.578125 -0.796875 -2.546875q-0.796875 -0.984375 -2.140625 -0.984375q-0.859375 0 -1.609375 0.421875q-0.75 0.421875 -1.140625 1.03125l0 4.140625q0.390625 0.609375 1.140625 1.046875q0.75 0.4375 1.609375 0.4375zm8.827637 1.28125q-2.046875 0 -2.046875 -2.15625l0 -6.0l-1.515625 0l0 -1.25l1.515625 0l0 -2.515625l1.4375 0l0 2.515625l1.859375 0l0 1.25l-1.859375 0l0 5.703125q0 0.515625 0.21875 0.84375q0.234375 0.328125 0.703125 0.328125q0.59375 0 0.96875 -0.375l0.421875 1.0625q-0.59375 0.59375 -1.703125 0.59375zm9.375549 -0.234375l0 -6.046875q0 -1.015625 -0.484375 -1.546875q-0.484375 -0.53125 -1.59375 -0.53125q-0.78125 0 -1.515625 0.40625q-0.71875 0.390625 -1.203125 1.015625l0 6.703125l-1.421875 0l0 -12.671875l1.421875 0l0 4.828125q0.609375 -0.703125 1.484375 -1.125q0.875 -0.4375 1.8125 -0.4375q2.921875 0 2.921875 2.921875l0 6.484375l-1.421875 0zm8.017822 -7.671875l0 -1.015625l8.390625 0l0 1.015625l-8.390625 0zm0 3.65625l0 -0.984375l8.390625 0l0 0.984375l-8.390625 0zm19.388367 4.25q-2.203125 0 -3.53125 -1.8125q-1.3125 -1.828125 -1.3125 -4.75q0 -2.9375 1.328125 -4.734375q1.34375 -1.796875 3.515625 -1.796875q1.484375 0 2.578125 0.84375q1.09375 0.84375 1.671875 2.34375q0.59375 1.5 0.59375 3.34375q0 1.828125 -0.59375 3.34375q-0.578125 1.515625 -1.671875 2.375q-1.078125 0.84375 -2.578125 0.84375zm0 -1.40625q1.515625 0 2.375 -1.359375q0.859375 -1.375 0.859375 -3.796875q0 -2.4375 -0.859375 -3.78125q-0.859375 -1.34375 -2.375 -1.34375q-1.515625 0 -2.375 1.34375q-0.859375 1.34375 -0.859375 3.78125q0 2.421875 0.84375 3.796875q0.859375 1.359375 2.390625 1.359375z" fill-rule="nonzero"></path><path fill="#000000" fill-opacity="0.0" d="m591.355 226.47244l64.188965 0l0 100.724396l-64.188965 0z" fill-rule="evenodd"></path><path fill="#000000" d="m601.3862 283.75464l0 -1.25q3.34375 -2.640625 4.59375 -3.84375q1.25 -1.21875 1.84375 -2.171875q0.59375 -0.96875 0.59375 -1.875q0 -1.046875 -0.734375 -1.671875q-0.71875 -0.640625 -1.90625 -0.640625q-2.234375 0 -3.453125 1.59375l-0.96875 -1.015625q0.734375 -0.96875 1.890625 -1.46875q1.171875 -0.515625 2.53125 -0.515625q1.84375 0 3.046875 1.015625q1.203125 1.015625 1.203125 2.703125q0 1.546875 -1.3125 3.25q-1.296875 1.6875 -4.84375 4.484375l6.21875 0l0 1.40625l-8.703125 0z" fill-rule="nonzero"></path><path fill="#000000" fill-opacity="0.0" d="m505.82874 65.34908l64.188965 0l0 100.7244l-64.188965 0z" fill-rule="evenodd"></path><path fill="#000000" d="m518.20374 122.63129l0 -10.578125l-2.03125 2.140625l-0.9375 -0.96875l3.171875 -3.265625l1.375 0l0 12.671875l-1.578125 0z" fill-rule="nonzero"></path><path fill="#000000" fill-opacity="0.0" d="m455.61154 28.902887c0 -12.499973 16.273285 -25.76268 32.07489 -24.999947c15.801605 0.76273346 31.131561 15.550907 32.07486 30.720446c0.94329834 15.16954 -12.500061 30.720448 -25.000122 30.720448" fill-rule="evenodd"></path><path stroke="#434343" stroke-width="3.0" stroke-linejoin="round" stroke-linecap="butt" d="m455.61154 28.902887c0 -12.499973 16.273254 -25.76268 32.07489 -24.999947c15.801636 0.76273346 31.131561 15.550907 32.07486 30.720446c0.47161865 7.584774 -2.6533813 15.264881 -7.4588013 21.048801c-0.30029297 0.36149216 -0.60723877 0.71558 -0.92022705 1.0617752c-0.15649414 0.1730957 -0.31451416 0.34422302 -0.47399902 0.5133133l-0.04660034 0.04834366" fill-rule="evenodd"></path><path fill="#434343" stroke="#434343" stroke-width="3.0" stroke-linecap="butt" d="m508.6461 52.863335l-9.962036 10.5195465l14.393219 -1.6549721z" fill-rule="evenodd"></path></g></svg>

