<?xml version="1.0" standalone="yes"?>

<svg version="1.1" viewBox="0.0 0.0 960.0 540.0" fill="none" stroke="none" stroke-linecap="square" stroke-miterlimit="10" xmlns="http://www.w3.org/2000/svg" xmlns:xlink="http://www.w3.org/1999/xlink"><clipPath id="g29c4bef3bf_0_28.0"><path d="m0 0l960.0 0l0 540.0l-960.0 0l0 -540.0z" clip-rule="nonzero"></path></clipPath><g clip-path="url(#g29c4bef3bf_0_28.0)"><path fill="#ffffff" d="m0 0l960.0 0l0 540.0l-960.0 0z" fill-rule="evenodd"></path><path fill="#000000" fill-opacity="0.0" d="m469.54813 90.666664l-98.834656 52.0315" fill-rule="evenodd"></path><path stroke="#595959" stroke-width="1.0" stroke-linejoin="round" stroke-linecap="butt" d="m469.54813 90.666664l-98.834656 52.0315" fill-rule="evenodd"></path><path fill="#000000" fill-opacity="0.0" d="m469.54813 90.666664l90.39371 52.062996" fill-rule="evenodd"></path><path stroke="#595959" stroke-width="1.0" stroke-linejoin="round" stroke-linecap="butt" d="m469.54813 90.666664l90.39371 52.062996" fill-rule="evenodd"></path><path fill="#000000" fill-opacity="0.0" d="m370.72348 204.47629l-50.173218 85.66931" fill-rule="evenodd"></path><path stroke="#595959" stroke-width="1.0" stroke-linejoin="round" stroke-linecap="butt" d="m370.72348 204.47629l-50.173218 85.66931" fill-rule="evenodd"></path><path fill="#000000" fill-opacity="0.0" d="m370.72348 204.47629l42.960632 85.66931" fill-rule="evenodd"></path><path stroke="#595959" stroke-width="1.0" stroke-linejoin="round" stroke-linecap="butt" d="m370.72348 204.47629l42.960632 85.66931" fill-rule="evenodd"></path><path fill="#3c78d8" d="m434.30402 28.902887l70.48819 0l0 61.76378l-70.48819 0z" fill-rule="evenodd"></path><path stroke="#434343" stroke-width="2.0" stroke-linejoin="round" stroke-linecap="butt" d="m434.30402 28.902887l70.48819 0l0 61.76378l-70.48819 0z" fill-rule="evenodd"></path><path fill="#ffffff" d="m464.17114 68.324776l0 -4.0625l-7.609375 0l0 -1.65625l6.859375 -10.296875l2.75 0l0 10.203125l2.25 0l0 1.75l-2.25 0l0 4.0625l-2.0 0zm0 -14.15625l-5.609375 8.34375l5.609375 0l0 -8.34375zm6.313843 14.15625l0 -1.578125q4.21875 -3.34375 5.796875 -4.859375q1.59375 -1.53125 2.328125 -2.734375q0.75 -1.21875 0.75 -2.375q0 -1.3125 -0.90625 -2.109375q-0.90625 -0.8125 -2.421875 -0.8125q-2.8125 0 -4.34375 2.015625l-1.234375 -1.28125q0.921875 -1.21875 2.390625 -1.859375q1.484375 -0.65625 3.1875 -0.65625q2.328125 0 3.84375 1.28125q1.53125 1.28125 1.53125 3.421875q0 1.953125 -1.65625 4.109375q-1.640625 2.140625 -6.125 5.65625l7.84375 0l0 1.78125l-10.984375 0z" fill-rule="nonzero"></path><path fill="#3c78d8" d="m335.4794 142.71251l70.48819 0l0 61.76378l-70.48819 0z" fill-rule="evenodd"></path><path stroke="#434343" stroke-width="2.0" stroke-linejoin="round" stroke-linecap="butt" d="m335.4794 142.71251l70.48819 0l0 61.76378l-70.48819 0z" fill-rule="evenodd"></path><path fill="#ffffff" d="m357.6204 182.1344l0 -1.578125q4.21875 -3.34375 5.796875 -4.859375q1.59375 -1.53125 2.328125 -2.734375q0.75 -1.21875 0.75 -2.375q0 -1.3125 -0.90625 -2.109375q-0.90625 -0.8125 -2.421875 -0.8125q-2.8125 0 -4.34375 2.015625l-1.234375 -1.28125q0.921875 -1.21875 2.390625 -1.859375q1.484375 -0.65625 3.1875 -0.65625q2.328125 0 3.84375 1.28125q1.53125 1.28125 1.53125 3.421875q0 1.953125 -1.65625 4.109375q-1.640625 2.140625 -6.125 5.65625l7.84375 0l0 1.78125l-10.984375 0zm20.158844 0.28125q-2.78125 0 -4.453125 -2.28125q-1.671875 -2.296875 -1.671875 -5.984375q0 -3.734375 1.6875 -6.0q1.703125 -2.265625 4.4375 -2.265625q1.875 0 3.25 1.078125q1.375 1.0625 2.125 2.96875q0.75 1.890625 0.75 4.21875q0 2.296875 -0.75 4.21875q-0.75 1.921875 -2.125 2.984375q-1.359375 1.0625 -3.25 1.0625zm0 -1.765625q1.921875 0 3.0 -1.71875q1.078125 -1.734375 1.078125 -4.78125q0 -3.078125 -1.078125 -4.78125q-1.078125 -1.703125 -3.0 -1.703125q-1.921875 0 -3.0 1.703125q-1.078125 1.703125 -1.078125 4.78125q0 3.046875 1.0625 4.78125q1.078125 1.71875 3.015625 1.71875z" fill-rule="nonzero"></path><path fill="#3c78d8" d="m524.6987 142.73364l70.48822 0l0 61.76378l-70.48822 0z" fill-rule="evenodd"></path><path stroke="#434343" stroke-width="2.0" stroke-linejoin="round" stroke-linecap="butt" d="m524.6987 142.73364l70.48822 0l0 61.76378l-70.48822 0z" fill-rule="evenodd"></path><path fill="#ffffff" d="m552.8975 182.43678q-2.90625 0 -4.546875 -2.171875q-1.625 -2.1875 -1.625 -6.078125q0 -3.796875 1.765625 -6.03125q1.765625 -2.25 4.75 -2.25q2.734375 0 4.4375 1.921875l-1.015625 1.484375q-0.625 -0.71875 -1.390625 -1.171875q-0.765625 -0.453125 -2.03125 -0.453125q-2.015625 0 -3.265625 1.75q-1.25 1.75 -1.25 4.53125l0 0.3125l0.015625 0.3125q0.71875 -1.09375 2.015625 -1.796875q1.296875 -0.703125 2.53125 -0.703125q2.328125 0 3.78125 1.375q1.453125 1.375 1.453125 3.75q0 2.25 -1.5625 3.734375q-1.5625 1.484375 -4.0625 1.484375zm-0.078125 -1.765625q1.640625 0 2.65625 -1.0q1.015625 -1.015625 1.015625 -2.390625q0 -1.625 -1.0 -2.53125q-0.984375 -0.921875 -2.6875 -0.921875q-1.203125 0 -2.28125 0.65625q-1.0625 0.65625 -1.734375 1.75q0.203125 2.03125 1.25 3.234375q1.0625 1.203125 2.78125 1.203125zm14.21521 1.765625q-2.78125 0 -4.453125 -2.28125q-1.671875 -2.296875 -1.671875 -5.984375q0 -3.734375 1.6875 -6.0q1.703125 -2.265625 4.4375 -2.265625q1.875 0 3.25 1.078125q1.375 1.0625 2.125 2.96875q0.75 1.890625 0.75 4.21875q0 2.296875 -0.75 4.21875q-0.75 1.921875 -2.125 2.984375q-1.359375 1.0625 -3.25 1.0625zm0 -1.765625q1.921875 0 3.0 -1.71875q1.078125 -1.734375 1.078125 -4.78125q0 -3.078125 -1.078125 -4.78125q-1.078125 -1.703125 -3.0 -1.703125q-1.921875 0 -3.0 1.703125q-1.078125 1.703125 -1.078125 4.78125q0 3.046875 1.0625 4.78125q1.078125 1.71875 3.015625 1.71875z" fill-rule="nonzero"></path><path fill="#3c78d8" d="m285.29922 290.14014l70.48819 0l0 61.763763l-70.48819 0z" fill-rule="evenodd"></path><path stroke="#434343" stroke-width="2.0" stroke-linejoin="round" stroke-linecap="butt" d="m285.29922 290.14014l70.48819 0l0 61.763763l-70.48819 0z" fill-rule="evenodd"></path><path fill="#ffffff" d="m313.66098 329.562l0 -13.375l-2.5625 2.71875l-1.203125 -1.21875l4.015625 -4.140625l1.75 0l0 16.015625l-2.0 0zm11.089081 0.28125q-3.6875 0 -5.640625 -2.5625l1.234375 -1.3125q1.65625 2.109375 4.40625 2.109375q1.609375 0 2.65625 -0.96875q1.046875 -0.984375 1.046875 -2.46875q0 -1.515625 -1.0 -2.484375q-1.0 -0.96875 -2.671875 -0.96875q-2.140625 0 -3.703125 1.515625l-1.453125 -0.515625l0 -8.640625l9.78125 0l0 1.78125l-7.796875 0l0 5.578125q0.578125 -0.578125 1.546875 -1.015625q0.96875 -0.4375 2.203125 -0.4375q2.1875 0 3.625 1.421875q1.453125 1.421875 1.453125 3.703125q0 2.375 -1.578125 3.828125q-1.5625 1.4375 -4.109375 1.4375z" fill-rule="nonzero"></path><path fill="#3c78d8" d="m378.44995 290.14014l70.48819 0l0 61.763763l-70.48819 0z" fill-rule="evenodd"></path><path stroke="#434343" stroke-width="2.0" stroke-linejoin="round" stroke-linecap="butt" d="m378.44995 290.14014l70.48819 0l0 61.763763l-70.48819 0z" fill-rule="evenodd"></path><path fill="#ffffff" d="m406.3207 329.84326q-2.046875 0 -3.5 -0.765625q-1.453125 -0.78125 -2.1875 -1.875l1.171875 -1.234375q0.6875 0.9375 1.84375 1.53125q1.171875 0.578125 2.625 0.578125q1.75 0 2.734375 -0.796875q1.0 -0.8125 1.0 -2.203125q0 -1.421875 -1.046875 -2.125q-1.046875 -0.703125 -2.9375 -0.703125l-0.984375 0l-0.671875 0.015625l0 -1.828125l0.703125 0.03125l0.953125 0q1.734375 0 2.71875 -0.703125q1.0 -0.71875 1.0 -1.9375q0 -1.21875 -1.0 -1.96875q-0.984375 -0.765625 -2.578125 -0.765625q-2.421875 0 -4.21875 1.9375l-1.109375 -1.25q2.015625 -2.46875 5.484375 -2.46875q2.4375 0 3.921875 1.171875q1.5 1.15625 1.5 3.109375q0 1.4375 -0.984375 2.453125q-0.984375 1.015625 -2.46875 1.265625q1.5 0.109375 2.59375 1.234375q1.09375 1.109375 1.09375 2.703125q0 2.078125 -1.5625 3.34375q-1.5625 1.25 -4.09375 1.25zm14.196106 0q-3.6875 0 -5.640625 -2.5625l1.234375 -1.3125q1.65625 2.109375 4.40625 2.109375q1.609375 0 2.65625 -0.96875q1.046875 -0.984375 1.046875 -2.46875q0 -1.515625 -1.0 -2.484375q-1.0 -0.96875 -2.671875 -0.96875q-2.140625 0 -3.703125 1.515625l-1.453125 -0.515625l0 -8.640625l9.78125 0l0 1.78125l-7.796875 0l0 5.578125q0.578125 -0.578125 1.546875 -1.015625q0.96875 -0.4375 2.203125 -0.4375q2.1875 0 3.625 1.421875q1.453125 1.421875 1.453125 3.703125q0 2.375 -1.578125 3.828125q-1.5625 1.4375 -4.109375 1.4375z" fill-rule="nonzero"></path><path fill="#000000" fill-opacity="0.0" d="m511.98502 90.66404l83.212616 0l0 32.62992l-83.212616 0z" fill-rule="evenodd"></path><path fill="#000000" d="m522.40686 117.58404l0 -9.171875l1.421875 0l0 1.484375q1.28125 -1.671875 3.0625 -1.671875l0 1.453125l-0.5625 -0.0625q-0.65625 0 -1.4375 0.46875q-0.765625 0.46875 -1.0625 1.0l0 6.5l-1.421875 0zm6.859741 -10.484375q-0.375 0 -0.671875 -0.265625q-0.28125 -0.28125 -0.28125 -0.6875q0 -0.40625 0.28125 -0.6875q0.296875 -0.28125 0.671875 -0.28125q0.40625 0 0.6875 0.28125q0.28125 0.28125 0.28125 0.6875q0 0.40625 -0.28125 0.6875q-0.28125 0.265625 -0.6875 0.265625zm-0.703125 10.484375l0 -9.171875l1.421875 0l0 9.171875l-1.421875 0zm7.885132 3.71875q-1.171875 0 -2.03125 -0.28125q-0.859375 -0.28125 -1.671875 -1.078125l0.71875 -1.0625q0.578125 0.671875 1.28125 0.953125q0.71875 0.296875 1.703125 0.296875q1.40625 0 2.171875 -0.734375q0.78125 -0.734375 0.78125 -2.015625l0 -1.3125q-0.5 0.703125 -1.3125 1.171875q-0.796875 0.453125 -1.765625 0.453125q-1.875 0 -2.984375 -1.3125q-1.109375 -1.3125 -1.109375 -3.4375q0 -2.203125 1.125 -3.484375q1.140625 -1.28125 2.96875 -1.28125q1.890625 0 3.078125 1.609375l0 -1.375l1.421875 0l0 8.90625q0 1.9375 -1.140625 2.953125q-1.140625 1.03125 -3.234375 1.03125zm0.203125 -4.859375q0.78125 0 1.546875 -0.40625q0.78125 -0.421875 1.203125 -1.09375l0 -4.015625q-0.421875 -0.65625 -1.203125 -1.0625q-0.78125 -0.40625 -1.546875 -0.40625q-1.34375 0 -2.140625 0.96875q-0.796875 0.96875 -0.796875 2.515625q0 1.578125 0.8125 2.546875q0.828125 0.953125 2.125 0.953125zm13.036804 1.140625l0 -6.046875q0 -1.015625 -0.484375 -1.546875q-0.484375 -0.53125 -1.59375 -0.53125q-0.78125 0 -1.515625 0.40625q-0.71875 0.390625 -1.203125 1.015625l0 6.703125l-1.421875 0l0 -12.671875l1.421875 0l0 4.828125q0.609375 -0.703125 1.484375 -1.125q0.875 -0.4375 1.8125 -0.4375q2.921875 0 2.921875 2.921875l0 6.484375l-1.421875 0zm6.407654 0.234375q-2.046875 0 -2.046875 -2.15625l0 -6.0l-1.515625 0l0 -1.25l1.515625 0l0 -2.515625l1.4375 0l0 2.515625l1.859375 0l0 1.25l-1.859375 0l0 5.703125q0 0.515625 0.21875 0.84375q0.234375 0.328125 0.703125 0.328125q0.59375 0 0.96875 -0.375l0.421875 1.0625q-0.59375 0.59375 -1.703125 0.59375z" fill-rule="nonzero"></path><path fill="#000000" fill-opacity="0.0" d="m370.72055 90.66302l53.700806 0l0 32.62992l-53.700806 0z" fill-rule="evenodd"></path><path fill="#000000" d="m381.14243 117.583015l0 -12.671875l1.421875 0l0 12.671875l-1.421875 0zm8.338287 0.234375q-2.0625 0 -3.375 -1.34375q-1.296875 -1.359375 -1.296875 -3.484375q0 -2.03125 1.296875 -3.421875q1.296875 -1.390625 3.234375 -1.390625q1.96875 0 3.1875 1.375q1.21875 1.359375 1.21875 3.546875l0 0.359375l-7.4375 0q0.078125 1.40625 1.015625 2.296875q0.9375 0.875 2.296875 0.875q1.671875 0 2.828125 -1.15625l0.6875 0.9375q-1.40625 1.40625 -3.65625 1.40625zm2.859375 -5.40625q0 -1.265625 -0.84375 -2.15625q-0.828125 -0.90625 -2.1875 -0.90625q-1.265625 0 -2.109375 0.90625q-0.84375 0.890625 -0.890625 2.15625l6.03125 0zm3.909729 5.171875l0 -7.921875l-1.53125 0l0 -1.25l1.53125 0l0 -0.703125q0 -1.4375 0.703125 -2.203125q0.71875 -0.78125 1.953125 -0.78125q1.15625 0 1.9375 0.703125l-0.59375 0.921875q-0.484375 -0.453125 -1.140625 -0.453125q-1.4375 0 -1.4375 1.8125l0 0.703125l1.859375 0l0 1.25l-1.859375 0l0 7.921875l-1.421875 0zm7.201599 0.234375q-2.046875 0 -2.046875 -2.15625l0 -6.0l-1.515625 0l0 -1.25l1.515625 0l0 -2.515625l1.4375 0l0 2.515625l1.859375 0l0 1.25l-1.859375 0l0 5.703125q0 0.515625 0.21875 0.84375q0.234375 0.328125 0.703125 0.328125q0.59375 0 0.96875 -0.375l0.421875 1.0625q-0.59375 0.59375 -1.703125 0.59375z" fill-rule="nonzero"></path><path fill="#000000" fill-opacity="0.0" d="m293.6913 234.63654l53.700775 0l0 32.629913l-53.700775 0z" fill-rule="evenodd"></path><path fill="#000000" d="m304.1132 261.55652l0 -12.67186l1.421875 0l0 12.67186l-1.421875 0zm8.338287 0.234375q-2.0625 0 -3.375 -1.34375q-1.296875 -1.359375 -1.296875 -3.484375q0 -2.0312347 1.296875 -3.4218597q1.296875 -1.390625 3.234375 -1.390625q1.96875 0 3.1875 1.375q1.21875 1.359375 1.21875 3.5468597l0 0.359375l-7.4375 0q0.078125 1.40625 1.015625 2.296875q0.9375 0.875 2.296875 0.875q1.671875 0 2.828125 -1.15625l0.6875 0.9375q-1.40625 1.40625 -3.65625 1.40625zm2.859375 -5.40625q0 -1.2656097 -0.84375 -2.1562347q-0.828125 -0.90625 -2.1875 -0.90625q-1.265625 0 -2.109375 0.90625q-0.84375 0.890625 -0.890625 2.1562347l6.03125 0zm3.909729 5.171875l0 -7.9218597l-1.53125 0l0 -1.25l1.53125 0l0 -0.703125q0 -1.4375 0.703125 -2.203125q0.71875 -0.78125 1.953125 -0.78125q1.15625 0 1.9375 0.703125l-0.59375 0.921875q-0.484375 -0.453125 -1.140625 -0.453125q-1.4375 0 -1.4375 1.8125l0 0.703125l1.859375 0l0 1.25l-1.859375 0l0 7.9218597l-1.421875 0zm7.201599 0.234375q-2.046875 0 -2.046875 -2.15625l0 -5.9999847l-1.515625 0l0 -1.25l1.515625 0l0 -2.515625l1.4375 0l0 2.515625l1.859375 0l0 1.25l-1.859375 0l0 5.7031097q0 0.515625 0.21875 0.84375q0.234375 0.328125 0.703125 0.328125q0.59375 0 0.96875 -0.375l0.421875 1.0625q-0.59375 0.59375 -1.703125 0.59375z" fill-rule="nonzero"></path><path fill="#000000" fill-opacity="0.0" d="m393.27762 230.98688l90.39371 0l0 32.629913l-90.39371 0z" fill-rule="evenodd"></path><path fill="#000000" d="m403.6995 257.90686l0 -9.17186l1.421875 0l0 1.484375q1.28125 -1.671875 3.0625 -1.671875l0 1.453125l-0.5625 -0.0625q-0.65625 0 -1.4375 0.46875q-0.765625 0.46875 -1.0625 1.0l0 6.4999847l-1.421875 0zm6.85968 -10.48436q-0.375 0 -0.671875 -0.265625q-0.28125 -0.28125 -0.28125 -0.6875q0 -0.40625 0.28125 -0.6875q0.296875 -0.28125 0.671875 -0.28125q0.40625 0 0.6875 0.28125q0.28125 0.28125 0.28125 0.6875q0 0.40625 -0.28125 0.6875q-0.28125 0.265625 -0.6875 0.265625zm-0.703125 10.48436l0 -9.17186l1.421875 0l0 9.17186l-1.421875 0zm7.8851624 3.71875q-1.171875 0 -2.03125 -0.28125q-0.859375 -0.28125 -1.671875 -1.078125l0.71875 -1.0625q0.578125 0.671875 1.28125 0.953125q0.71875 0.296875 1.703125 0.296875q1.40625 0 2.171875 -0.734375q0.78125 -0.734375 0.78125 -2.015625l0 -1.3125q-0.5 0.703125 -1.3125 1.171875q-0.796875 0.453125 -1.765625 0.453125q-1.875 0 -2.984375 -1.3125q-1.109375 -1.3124847 -1.109375 -3.4374847q0 -2.203125 1.125 -3.484375q1.140625 -1.28125 2.96875 -1.28125q1.890625 0 3.078125 1.609375l0 -1.375l1.421875 0l0 8.906235q0 1.9375 -1.140625 2.953125q-1.140625 1.03125 -3.234375 1.03125zm0.203125 -4.859375q0.78125 0 1.546875 -0.40625q0.78125 -0.42185974 1.203125 -1.0937347l0 -4.015625q-0.421875 -0.65625 -1.203125 -1.0625q-0.78125 -0.40625 -1.546875 -0.40625q-1.34375 0 -2.140625 0.96875q-0.796875 0.96875 -0.796875 2.515625q0 1.578125 0.8125 2.546875q0.828125 0.95310974 2.125 0.95310974zm13.036835 1.140625l0 -6.0468597q0 -1.015625 -0.484375 -1.546875q-0.484375 -0.53125 -1.59375 -0.53125q-0.78125 0 -1.515625 0.40625q-0.71875 0.390625 -1.203125 1.015625l0 6.7031097l-1.421875 0l0 -12.67186l1.421875 0l0 4.828125q0.609375 -0.703125 1.484375 -1.125q0.875 -0.4375 1.8125 -0.4375q2.921875 0 2.921875 2.921875l0 6.4843597l-1.421875 0zm6.4076233 0.234375q-2.046875 0 -2.046875 -2.1562347l0 -6.0l-1.515625 0l0 -1.25l1.515625 0l0 -2.515625l1.4375 0l0 2.515625l1.859375 0l0 1.25l-1.859375 0l0 5.703125q0 0.51560974 0.21875 0.84373474q0.234375 0.328125 0.703125 0.328125q0.59375 0 0.96875 -0.375l0.421875 1.0625q-0.59375 0.59375 -1.703125 0.59375z" fill-rule="nonzero"></path><path fill="#000000" fill-opacity="0.0" d="m320.5523 351.9039l42.960632 85.66931" fill-rule="evenodd"></path><path stroke="#595959" stroke-width="1.0" stroke-linejoin="round" stroke-linecap="butt" d="m320.5523 351.9039l42.960632 85.66931" fill-rule="evenodd"></path><path fill="#3c78d8" d="m335.48145 437.56796l70.48819 0l0 61.763763l-70.48819 0z" fill-rule="evenodd"></path><path stroke="#434343" stroke-width="2.0" stroke-linejoin="round" stroke-linecap="butt" d="m335.48145 437.56796l70.48819 0l0 61.763763l-70.48819 0z" fill-rule="evenodd"></path><path fill="#ffffff" d="m363.3522 477.2711q-2.046875 0 -3.5 -0.765625q-1.453125 -0.78125 -2.1875 -1.875l1.171875 -1.234375q0.6875 0.9375 1.84375 1.53125q1.171875 0.578125 2.625 0.578125q1.75 0 2.734375 -0.796875q1.0 -0.8125 1.0 -2.203125q0 -1.421875 -1.046875 -2.125q-1.046875 -0.703125 -2.9375 -0.703125l-0.984375 0l-0.671875 0.015625l0 -1.828125l0.703125 0.03125l0.953125 0q1.734375 0 2.71875 -0.703125q1.0 -0.71875 1.0 -1.9375q0 -1.21875 -1.0 -1.96875q-0.984375 -0.765625 -2.578125 -0.765625q-2.421875 0 -4.21875 1.9375l-1.109375 -1.25q2.015625 -2.46875 5.484375 -2.46875q2.4375 0 3.921875 1.171875q1.5 1.15625 1.5 3.109375q0 1.4375 -0.984375 2.453125q-0.984375 1.015625 -2.46875 1.265625q1.5 0.109375 2.59375 1.234375q1.09375 1.109375 1.09375 2.703125q0 2.078125 -1.5625 3.34375q-1.5625 1.25 -4.09375 1.25zm14.196106 0q-3.6875 0 -5.640625 -2.5625l1.234375 -1.3125q1.65625 2.109375 4.40625 2.109375q1.609375 0 2.65625 -0.96875q1.046875 -0.984375 1.046875 -2.46875q0 -1.515625 -1.0 -2.484375q-1.0 -0.96875 -2.671875 -0.96875q-2.140625 0 -3.703125 1.515625l-1.453125 -0.515625l0 -8.640625l9.78125 0l0 1.78125l-7.796875 0l0 5.578125q0.578125 -0.578125 1.546875 -1.015625q0.96875 -0.4375 2.203125 -0.4375q2.1875 0 3.625 1.421875q1.453125 1.421875 1.453125 3.703125q0 2.375 -1.578125 3.828125q-1.5625 1.4375 -4.109375 1.4375z" fill-rule="nonzero"></path><path fill="#000000" fill-opacity="0.0" d="m347.00726 378.41995l90.39371 0l0 32.629913l-90.39371 0z" fill-rule="evenodd"></path><path fill="#000000" d="m357.42914 405.33994l0 -9.171875l1.421875 0l0 1.484375q1.28125 -1.671875 3.0625 -1.671875l0 1.453125l-0.5625 -0.0625q-0.65625 0 -1.4375 0.46875q-0.765625 0.46875 -1.0625 1.0l0 6.5l-1.421875 0zm6.8597107 -10.484375q-0.375 0 -0.671875 -0.265625q-0.28125 -0.28125 -0.28125 -0.6875q0 -0.40625 0.28125 -0.6875q0.296875 -0.28125 0.671875 -0.28125q0.40625 0 0.6875 0.28125q0.28125 0.28125 0.28125 0.6875q0 0.40625 -0.28125 0.6875q-0.28125 0.265625 -0.6875 0.265625zm-0.703125 10.484375l0 -9.171875l1.421875 0l0 9.171875l-1.421875 0zm7.8851624 3.71875q-1.171875 0 -2.03125 -0.28125q-0.859375 -0.28125 -1.671875 -1.078125l0.71875 -1.0625q0.578125 0.671875 1.28125 0.953125q0.71875 0.296875 1.703125 0.296875q1.40625 0 2.171875 -0.734375q0.78125 -0.734375 0.78125 -2.015625l0 -1.3125q-0.5 0.703125 -1.3125 1.171875q-0.796875 0.453125 -1.765625 0.453125q-1.875 0 -2.984375 -1.3125q-1.109375 -1.3125 -1.109375 -3.4375q0 -2.203125 1.125 -3.484375q1.140625 -1.28125 2.96875 -1.28125q1.890625 0 3.078125 1.609375l0 -1.375l1.421875 0l0 8.90625q0 1.9375 -1.140625 2.953125q-1.140625 1.03125 -3.234375 1.03125zm0.203125 -4.859375q0.78125 0 1.546875 -0.40625q0.78125 -0.421875 1.203125 -1.09375l0 -4.015625q-0.421875 -0.65625 -1.203125 -1.0625q-0.78125 -0.40625 -1.546875 -0.40625q-1.34375 0 -2.140625 0.96875q-0.796875 0.96875 -0.796875 2.515625q0 1.578125 0.8125 2.546875q0.828125 0.953125 2.125 0.953125zm13.036804 1.140625l0 -6.046875q0 -1.015625 -0.484375 -1.546875q-0.484375 -0.53125 -1.59375 -0.53125q-0.78125 0 -1.515625 0.40625q-0.71875 0.390625 -1.203125 1.015625l0 6.703125l-1.421875 0l0 -12.671875l1.421875 0l0 4.828125q0.609375 -0.703125 1.484375 -1.125q0.875 -0.4375 1.8125 -0.4375q2.921875 0 2.921875 2.921875l0 6.484375l-1.421875 0zm6.4076233 0.234375q-2.046875 0 -2.046875 -2.15625l0 -6.0l-1.515625 0l0 -1.25l1.515625 0l0 -2.515625l1.4375 0l0 2.515625l1.859375 0l0 1.25l-1.859375 0l0 5.703125q0 0.515625 0.21875 0.84375q0.234375 0.328125 0.703125 0.328125q0.59375 0 0.96875 -0.375l0.421875 1.0625q-0.59375 0.59375 -1.703125 0.59375z" fill-rule="nonzero"></path><path fill="#000000" fill-opacity="0.0" d="m444.46194 59.78478l0 0c0 -11.680607 11.231659 -21.149609 25.086609 -21.149609l0 0c13.85495 0 25.086609 9.469002 25.086609 21.149609l0 0c0 11.680607 -11.231659 21.149601 -25.086609 21.149601l0 0c-13.85495 0 -25.086609 -9.468994 -25.086609 -21.149601z" fill-rule="evenodd"></path><path stroke="#000000" stroke-width="3.0" stroke-linejoin="round" stroke-linecap="butt" stroke-dasharray="3.0,9.0" d="m444.46194 59.78478l0 0c0 -11.680607 11.231659 -21.149609 25.086609 -21.149609l0 0c13.85495 0 25.086609 9.469002 25.086609 21.149609l0 0c0 11.680607 -11.231659 21.149601 -25.086609 21.149601l0 0c-13.85495 0 -25.086609 -9.468994 -25.086609 -21.149601z" fill-rule="evenodd"></path><path fill="#000000" fill-opacity="0.0" d="m494.63516 59.78478l74.17325 -16.598427" fill-rule="evenodd"></path><path stroke="#000000" stroke-width="3.0" stroke-linejoin="round" stroke-linecap="butt" stroke-dasharray="3.0,9.0" d="m494.63516 59.78478l74.17325 -16.598427" fill-rule="evenodd"></path><path fill="#000000" fill-opacity="0.0" d="m573.88525 22.603674l83.212585 0l0 32.62992l-83.212585 0z" fill-rule="evenodd"></path><path fill="#000000" d="m590.9634 49.523674l0 -1.375q-0.515625 0.703125 -1.328125 1.15625q-0.796875 0.453125 -1.765625 0.453125q-1.84375 0 -2.96875 -1.3125q-1.125 -1.3125 -1.125 -3.5q0 -2.203125 1.125 -3.515625q1.140625 -1.3125 2.96875 -1.3125q0.921875 0 1.734375 0.4375q0.8125 0.421875 1.359375 1.171875l0 -4.875l1.421875 0l0 12.671875l-1.421875 0zm-2.765625 -1.046875q0.859375 0 1.609375 -0.40625q0.765625 -0.421875 1.15625 -1.03125l0 -4.171875q-0.390625 -0.609375 -1.15625 -1.03125q-0.75 -0.4375 -1.609375 -0.4375q-1.328125 0 -2.140625 0.96875q-0.796875 0.96875 -0.796875 2.578125q0 1.578125 0.796875 2.5625q0.796875 0.96875 2.140625 0.96875zm12.571106 1.046875l0 -1.046875q-1.15625 1.28125 -3.03125 1.28125q-1.390625 0 -2.3125 -0.875q-0.90625 -0.875 -0.90625 -2.171875q0 -1.328125 0.90625 -2.171875q0.90625 -0.84375 2.3125 -0.84375q1.96875 0 3.03125 1.25l0 -1.65625q0 -0.921875 -0.65625 -1.421875q-0.640625 -0.515625 -1.65625 -0.515625q-1.609375 0 -2.8125 1.28125l-0.65625 -1.0q1.453125 -1.515625 3.65625 -1.515625q1.6875 0 2.625 0.828125q0.9375 0.8125 0.9375 2.265625l0 6.3125l-1.4375 0zm-2.515625 -0.796875q1.6875 0 2.515625 -1.140625l0 -1.734375q-0.828125 -1.140625 -2.515625 -1.140625q-1.015625 0 -1.640625 0.5625q-0.625 0.5625 -0.625 1.453125q0 0.875 0.625 1.4375q0.625 0.5625 1.640625 0.5625zm8.941223 1.03125q-2.046875 0 -2.046875 -2.15625l0 -6.0l-1.515625 0l0 -1.25l1.515625 0l0 -2.515625l1.4375 0l0 2.515625l1.859375 0l0 1.25l-1.859375 0l0 5.703125q0 0.515625 0.21875 0.84375q0.234375 0.328125 0.703125 0.328125q0.59375 0 0.96875 -0.375l0.421875 1.0625q-0.59375 0.59375 -1.703125 0.59375zm8.891174 -0.234375l0 -1.046875q-1.15625 1.28125 -3.03125 1.28125q-1.390625 0 -2.3125 -0.875q-0.90625 -0.875 -0.90625 -2.171875q0 -1.328125 0.90625 -2.171875q0.90625 -0.84375 2.3125 -0.84375q1.96875 0 3.03125 1.25l0 -1.65625q0 -0.921875 -0.65625 -1.421875q-0.640625 -0.515625 -1.65625 -0.515625q-1.609375 0 -2.8125 1.28125l-0.65625 -1.0q1.453125 -1.515625 3.65625 -1.515625q1.6875 0 2.625 0.828125q0.9375 0.8125 0.9375 2.265625l0 6.3125l-1.4375 0zm-2.515625 -0.796875q1.6875 0 2.515625 -1.140625l0 -1.734375q-0.828125 -1.140625 -2.515625 -1.140625q-1.015625 0 -1.640625 0.5625q-0.625 0.5625 -0.625 1.453125q0 0.875 0.625 1.4375q0.625 0.5625 1.640625 0.5625z" fill-rule="nonzero"></path></g></svg>

