<?xml version="1.0" standalone="yes"?>

<svg version="1.1" viewBox="0.0 0.0 960.0 540.0" fill="none" stroke="none" stroke-linecap="square" stroke-miterlimit="10" xmlns="http://www.w3.org/2000/svg" xmlns:xlink="http://www.w3.org/1999/xlink"><clipPath id="g29c4bef3bf_0_0.0"><path d="m0 0l960.0 0l0 540.0l-960.0 0l0 -540.0z" clip-rule="nonzero"></path></clipPath><g clip-path="url(#g29c4bef3bf_0_0.0)"><path fill="#ffffff" d="m0 0l960.0 0l0 540.0l-960.0 0z" fill-rule="evenodd"></path><path fill="#000000" fill-opacity="0.0" d="m455.61154 101.784775l-109.79526 61.417328" fill-rule="evenodd"></path><path stroke="#595959" stroke-width="1.0" stroke-linejoin="round" stroke-linecap="butt" d="m455.61154 101.784775l-109.79526 61.417328" fill-rule="evenodd"></path><path fill="#000000" fill-opacity="0.0" d="m455.61154 101.784775l100.409454 61.448822" fill-rule="evenodd"></path><path stroke="#595959" stroke-width="1.0" stroke-linejoin="round" stroke-linecap="butt" d="m455.61154 101.784775l100.409454 61.448822" fill-rule="evenodd"></path><path fill="#000000" fill-opacity="0.0" d="m345.82678 236.08923l-55.748047 101.102356" fill-rule="evenodd"></path><path stroke="#595959" stroke-width="1.0" stroke-linejoin="round" stroke-linecap="butt" d="m345.82678 236.08923l-55.748047 101.102356" fill-rule="evenodd"></path><path fill="#000000" fill-opacity="0.0" d="m345.82678 236.08923l47.748016 101.102356" fill-rule="evenodd"></path><path stroke="#595959" stroke-width="1.0" stroke-linejoin="round" stroke-linecap="butt" d="m345.82678 236.08923l47.748016 101.102356" fill-rule="evenodd"></path><path fill="#000000" fill-opacity="0.0" d="m556.0315 236.11417l-46.897644 101.03937" fill-rule="evenodd"></path><path stroke="#595959" stroke-width="1.0" stroke-linejoin="round" stroke-linecap="butt" d="m556.0315 236.11417l-46.897644 101.03937" fill-rule="evenodd"></path><path fill="#3c78d8" d="m416.46194 28.902887l78.299225 0l0 72.88189l-78.299225 0z" fill-rule="evenodd"></path><path stroke="#434343" stroke-width="2.0" stroke-linejoin="round" stroke-linecap="butt" d="m416.46194 28.902887l78.299225 0l0 72.88189l-78.299225 0z" fill-rule="evenodd"></path><path fill="#ffffff" d="m450.2346 73.88383l0 -4.0625l-7.609375 0l0 -1.65625l6.859375 -10.296875l2.75 0l0 10.203125l2.25 0l0 1.75l-2.25 0l0 4.0625l-2.0 0zm0 -14.15625l-5.609375 8.34375l5.609375 0l0 -8.34375zm6.313843 14.15625l0 -1.578125q4.21875 -3.34375 5.796875 -4.859375q1.59375 -1.53125 2.328125 -2.734375q0.75 -1.21875 0.75 -2.375q0 -1.3125 -0.90625 -2.109375q-0.90625 -0.8125 -2.421875 -0.8125q-2.8125 0 -4.34375 2.015625l-1.234375 -1.28125q0.921875 -1.21875 2.390625 -1.859375q1.484375 -0.65625 3.1875 -0.65625q2.328125 0 3.84375 1.28125q1.53125 1.28125 1.53125 3.421875q0 1.953125 -1.65625 4.109375q-1.640625 2.140625 -6.125 5.65625l7.84375 0l0 1.78125l-10.984375 0z" fill-rule="nonzero"></path><path fill="#3c78d8" d="m306.67715 163.20735l78.299225 0l0 72.88188l-78.299225 0z" fill-rule="evenodd"></path><path stroke="#434343" stroke-width="2.0" stroke-linejoin="round" stroke-linecap="butt" d="m306.67715 163.20735l78.299225 0l0 72.88188l-78.299225 0z" fill-rule="evenodd"></path><path fill="#ffffff" d="m332.7237 208.1883l0 -1.578125q4.21875 -3.34375 5.796875 -4.859375q1.59375 -1.53125 2.328125 -2.734375q0.75 -1.21875 0.75 -2.375q0 -1.3125 -0.90625 -2.109375q-0.90625 -0.8125 -2.421875 -0.8125q-2.8125 0 -4.34375 2.015625l-1.234375 -1.28125q0.921875 -1.21875 2.390625 -1.859375q1.484375 -0.65625 3.1875 -0.65625q2.328125 0 3.84375 1.28125q1.53125 1.28125 1.53125 3.421875q0 1.953125 -1.65625 4.109375q-1.640625 2.140625 -6.125 5.65625l7.84375 0l0 1.78125l-10.984375 0zm20.158813 0.28125q-2.78125 0 -4.453125 -2.28125q-1.671875 -2.296875 -1.671875 -5.984375q0 -3.734375 1.6875 -6.0q1.703125 -2.265625 4.4375 -2.265625q1.875 0 3.25 1.078125q1.375 1.0625 2.125 2.96875q0.75 1.890625 0.75 4.21875q0 2.296875 -0.75 4.21875q-0.75 1.921875 -2.125 2.984375q-1.359375 1.0625 -3.25 1.0625zm0 -1.765625q1.921875 0 3.0 -1.71875q1.078125 -1.734375 1.078125 -4.78125q0 -3.078125 -1.078125 -4.78125q-1.078125 -1.703125 -3.0 -1.703125q-1.921875 0 -3.0 1.703125q-1.078125 1.703125 -1.078125 4.78125q0 3.046875 1.0625 4.78125q1.078125 1.71875 3.015625 1.71875z" fill-rule="nonzero"></path><path fill="#3c78d8" d="m516.8819 163.23228l78.299194 0l0 72.88188l-78.299194 0z" fill-rule="evenodd"></path><path stroke="#434343" stroke-width="2.0" stroke-linejoin="round" stroke-linecap="butt" d="m516.8819 163.23228l78.299194 0l0 72.88188l-78.299194 0z" fill-rule="evenodd"></path><path fill="#ffffff" d="m548.98615 208.49448q-2.90625 0 -4.546875 -2.171875q-1.625 -2.1875 -1.625 -6.078125q0 -3.796875 1.765625 -6.03125q1.765625 -2.25 4.75 -2.25q2.734375 0 4.4375 1.921875l-1.015625 1.484375q-0.625 -0.71875 -1.390625 -1.171875q-0.765625 -0.453125 -2.03125 -0.453125q-2.015625 0 -3.265625 1.75q-1.25 1.75 -1.25 4.53125l0 0.3125l0.015625 0.3125q0.71875 -1.09375 2.015625 -1.796875q1.296875 -0.703125 2.53125 -0.703125q2.328125 0 3.78125 1.375q1.453125 1.375 1.453125 3.75q0 2.25 -1.5625 3.734375q-1.5625 1.484375 -4.0625 1.484375zm-0.078125 -1.765625q1.640625 0 2.65625 -1.0q1.015625 -1.015625 1.015625 -2.390625q0 -1.625 -1.0 -2.53125q-0.984375 -0.921875 -2.6875 -0.921875q-1.203125 0 -2.28125 0.65625q-1.0625 0.65625 -1.734375 1.75q0.203125 2.03125 1.25 3.234375q1.0625 1.203125 2.78125 1.203125zm14.21521 1.765625q-2.78125 0 -4.453125 -2.28125q-1.671875 -2.296875 -1.671875 -5.984375q0 -3.734375 1.6875 -6.0q1.703125 -2.265625 4.4375 -2.265625q1.875 0 3.25 1.078125q1.375 1.0625 2.125 2.96875q0.75 1.890625 0.75 4.21875q0 2.296875 -0.75 4.21875q-0.75 1.921875 -2.125 2.984375q-1.359375 1.0625 -3.25 1.0625zm0 -1.765625q1.921875 0 3.0 -1.71875q1.078125 -1.734375 1.078125 -4.78125q0 -3.078125 -1.078125 -4.78125q-1.078125 -1.703125 -3.0 -1.703125q-1.921875 0 -3.0 1.703125q-1.078125 1.703125 -1.078125 4.78125q0 3.046875 1.0625 4.78125q1.078125 1.71875 3.015625 1.71875z" fill-rule="nonzero"></path><path fill="#3c78d8" d="m250.93176 337.18372l78.299194 0l0 72.8819l-78.299194 0z" fill-rule="evenodd"></path><path stroke="#434343" stroke-width="2.0" stroke-linejoin="round" stroke-linecap="butt" d="m250.93176 337.18372l78.299194 0l0 72.8819l-78.299194 0z" fill-rule="evenodd"></path><path fill="#ffffff" d="m283.19904 382.16467l0 -13.375l-2.5625 2.71875l-1.203125 -1.21875l4.015625 -4.140625l1.75 0l0 16.015625l-2.0 0zm11.089081 0.28125q-3.6875 0 -5.640625 -2.5625l1.234375 -1.3125q1.65625 2.109375 4.40625 2.109375q1.609375 0 2.65625 -0.96875q1.046875 -0.984375 1.046875 -2.46875q0 -1.515625 -1.0 -2.484375q-1.0 -0.96875 -2.671875 -0.96875q-2.140625 0 -3.703125 1.515625l-1.453125 -0.515625l0 -8.640625l9.78125 0l0 1.78125l-7.796875 0l0 5.578125q0.578125 -0.578125 1.546875 -1.015625q0.96875 -0.4375 2.203125 -0.4375q2.1875 0 3.625 1.421875q1.453125 1.421875 1.453125 3.703125q0 2.375 -1.578125 3.828125q-1.5625 1.4375 -4.109375 1.4375z" fill-rule="nonzero"></path><path fill="#3c78d8" d="m354.4134 337.18372l78.299194 0l0 72.8819l-78.299194 0z" fill-rule="evenodd"></path><path stroke="#434343" stroke-width="2.0" stroke-linejoin="round" stroke-linecap="butt" d="m354.4134 337.18372l78.299194 0l0 72.8819l-78.299194 0z" fill-rule="evenodd"></path><path fill="#ffffff" d="m386.18967 382.44592q-2.046875 0 -3.5 -0.765625q-1.453125 -0.78125 -2.1875 -1.875l1.171875 -1.234375q0.6875 0.9375 1.84375 1.53125q1.171875 0.578125 2.625 0.578125q1.75 0 2.734375 -0.796875q1.0 -0.8125 1.0 -2.203125q0 -1.421875 -1.046875 -2.125q-1.046875 -0.703125 -2.9375 -0.703125l-0.984375 0l-0.671875 0.015625l0 -1.828125l0.703125 0.03125l0.953125 0q1.734375 0 2.71875 -0.703125q1.0 -0.71875 1.0 -1.9375q0 -1.21875 -1.0 -1.96875q-0.984375 -0.765625 -2.578125 -0.765625q-2.421875 0 -4.21875 1.9375l-1.109375 -1.25q2.015625 -2.46875 5.484375 -2.46875q2.4375 0 3.921875 1.171875q1.5 1.15625 1.5 3.109375q0 1.4375 -0.984375 2.453125q-0.984375 1.015625 -2.46875 1.265625q1.5 0.109375 2.59375 1.234375q1.09375 1.109375 1.09375 2.703125q0 2.078125 -1.5625 3.34375q-1.5625 1.25 -4.09375 1.25zm14.196075 0q-3.6875 0 -5.640625 -2.5625l1.234375 -1.3125q1.65625 2.109375 4.40625 2.109375q1.609375 0 2.65625 -0.96875q1.046875 -0.984375 1.046875 -2.46875q0 -1.515625 -1.0 -2.484375q-1.0 -0.96875 -2.671875 -0.96875q-2.140625 0 -3.703125 1.515625l-1.453125 -0.515625l0 -8.640625l9.78125 0l0 1.78125l-7.796875 0l0 5.578125q0.578125 -0.578125 1.546875 -1.015625q0.96875 -0.4375 2.203125 -0.4375q2.1875 0 3.625 1.421875q1.453125 1.421875 1.453125 3.703125q0 2.375 -1.578125 3.828125q-1.5625 1.4375 -4.109375 1.4375z" fill-rule="nonzero"></path><path fill="#3c78d8" d="m469.98688 337.16797l78.299194 0l0 72.8819l-78.299194 0z" fill-rule="evenodd"></path><path stroke="#434343" stroke-width="2.0" stroke-linejoin="round" stroke-linecap="butt" d="m469.98688 337.16797l78.299194 0l0 72.8819l-78.299194 0z" fill-rule="evenodd"></path><path fill="#ffffff" d="m502.19528 382.43018q-3.6875 0 -5.640625 -2.5625l1.234375 -1.3125q1.65625 2.109375 4.40625 2.109375q1.609375 0 2.65625 -0.96875q1.046875 -0.984375 1.046875 -2.46875q0 -1.515625 -1.0 -2.484375q-1.0 -0.96875 -2.671875 -0.96875q-2.140625 0 -3.703125 1.515625l-1.453125 -0.515625l0 -8.640625l9.78125 0l0 1.78125l-7.796875 0l0 5.578125q0.578125 -0.578125 1.546875 -1.015625q0.96875 -0.4375 2.203125 -0.4375q2.1875 0 3.625 1.421875q1.453125 1.421875 1.453125 3.703125q0 2.375 -1.578125 3.828125q-1.5625 1.4375 -4.109375 1.4375zm14.159943 0q-3.6875 0 -5.640625 -2.5625l1.234375 -1.3125q1.65625 2.109375 4.40625 2.109375q1.609375 0 2.65625 -0.96875q1.046875 -0.984375 1.046875 -2.46875q0 -1.515625 -1.0 -2.484375q-1.0 -0.96875 -2.671875 -0.96875q-2.140625 0 -3.703125 1.515625l-1.453125 -0.515625l0 -8.640625l9.78125 0l0 1.78125l-7.796875 0l0 5.578125q0.578125 -0.578125 1.546875 -1.015625q0.96875 -0.4375 2.203125 -0.4375q2.1875 0 3.625 1.421875q1.453125 1.421875 1.453125 3.703125q0 2.375 -1.578125 3.828125q-1.5625 1.4375 -4.109375 1.4375z" fill-rule="nonzero"></path><path fill="#000000" fill-opacity="0.0" d="m502.75592 101.784775l86.74017 0l0 38.519684l-86.74017 0z" fill-rule="evenodd"></path><path fill="#000000" d="m517.6153 128.93915q-2.3125 0 -3.609375 -1.734375q-1.28125 -1.734375 -1.28125 -4.8125q0 -3.0 1.390625 -4.765625q1.40625 -1.78125 3.765625 -1.78125q2.15625 0 3.515625 1.515625l-0.8125 1.171875q-0.484375 -0.5625 -1.09375 -0.921875q-0.609375 -0.359375 -1.609375 -0.359375q-1.609375 0 -2.59375 1.390625q-0.984375 1.375 -0.984375 3.578125l0 0.25l0.015625 0.25q0.578125 -0.875 1.59375 -1.421875q1.03125 -0.5625 2.0 -0.5625q1.84375 0 2.984375 1.09375q1.15625 1.078125 1.15625 2.96875q0 1.78125 -1.234375 2.96875q-1.234375 1.171875 -3.203125 1.171875zm-0.0625 -1.40625q1.296875 0 2.09375 -0.796875q0.8125 -0.8125 0.8125 -1.890625q0 -1.296875 -0.796875 -2.015625q-0.78125 -0.71875 -2.125 -0.71875q-0.953125 0 -1.796875 0.53125q-0.84375 0.515625 -1.375 1.375q0.140625 1.609375 0.96875 2.5625q0.84375 0.953125 2.21875 0.953125zm11.041443 1.40625q-2.203125 0 -3.53125 -1.8125q-1.3125 -1.828125 -1.3125 -4.75q0 -2.9375 1.328125 -4.734375q1.34375 -1.796875 3.515625 -1.796875q1.484375 0 2.578125 0.84375q1.09375 0.84375 1.671875 2.34375q0.59375 1.5 0.59375 3.34375q0 1.828125 -0.59375 3.34375q-0.578125 1.515625 -1.671875 2.375q-1.078125 0.84375 -2.578125 0.84375zm0 -1.40625q1.515625 0 2.375 -1.359375q0.859375 -1.375 0.859375 -3.796875q0 -2.4375 -0.859375 -3.78125q-0.859375 -1.34375 -2.375 -1.34375q-1.515625 0 -2.375 1.34375q-0.859375 1.34375 -0.859375 3.78125q0 2.421875 0.84375 3.796875q0.859375 1.359375 2.390625 1.359375zm10.965332 -0.53125l0 -1.1875l7.140625 -3.453125l-7.140625 -3.484375l0 -1.1875l8.390625 4.15625l0 1.0l-8.390625 4.15625z" fill-rule="nonzero"></path><path fill="#000000" d="m559.66675 128.70477l0 -2.625l-6.0625 0l0 -2.125l5.046875 -7.921875l3.71875 0l0 7.671875l1.640625 0l0 2.375l-1.640625 0l0 2.625l-2.703125 0zm0 -10.28125l-3.421875 5.28125l3.421875 0l0 -5.28125zm5.4971313 10.28125l0 -2.109375q4.484375 -3.34375 5.59375 -4.515625q1.109375 -1.171875 1.109375 -2.1875q0 -0.75 -0.578125 -1.203125q-0.5625 -0.453125 -1.46875 -0.453125q-1.96875 0 -3.40625 1.46875l-1.53125 -1.796875q0.921875 -1.078125 2.234375 -1.5625q1.3125 -0.5 2.640625 -0.5q2.15625 0 3.5 1.125q1.359375 1.109375 1.359375 2.921875q0 1.4375 -1.15625 2.9375q-1.15625 1.5 -3.921875 3.5l5.171875 0l0 2.375l-9.546875 0z" fill-rule="nonzero"></path><path fill="#000000" fill-opacity="0.0" d="m315.0 101.784775l90.48819 0l0 38.519684l-90.48819 0z" fill-rule="evenodd"></path><path fill="#000000" d="m325.03125 128.70477l0 -1.25q3.34375 -2.640625 4.59375 -3.84375q1.25 -1.21875 1.84375 -2.171875q0.59375 -0.96875 0.59375 -1.875q0 -1.046875 -0.734375 -1.671875q-0.71875 -0.640625 -1.90625 -0.640625q-2.234375 0 -3.453125 1.59375l-0.96875 -1.015625q0.734375 -0.96875 1.890625 -1.46875q1.171875 -0.515625 2.53125 -0.515625q1.84375 0 3.046875 1.015625q1.203125 1.015625 1.203125 2.703125q0 1.546875 -1.3125 3.25q-1.296875 1.6875 -4.84375 4.484375l6.21875 0l0 1.40625l-8.703125 0zm15.751129 0.234375q-2.203125 0 -3.53125 -1.8125q-1.3125 -1.828125 -1.3125 -4.75q0 -2.9375 1.328125 -4.734375q1.34375 -1.796875 3.515625 -1.796875q1.484375 0 2.578125 0.84375q1.09375 0.84375 1.671875 2.34375q0.59375 1.5 0.59375 3.34375q0 1.828125 -0.59375 3.34375q-0.578125 1.515625 -1.671875 2.375q-1.078125 0.84375 -2.578125 0.84375zm0 -1.40625q1.515625 0 2.375 -1.359375q0.859375 -1.375 0.859375 -3.796875q0 -2.4375 -0.859375 -3.78125q-0.859375 -1.34375 -2.375 -1.34375q-1.515625 0 -2.375 1.34375q-0.859375 1.34375 -0.859375 3.78125q0 2.421875 0.84375 3.796875q0.859375 1.359375 2.390625 1.359375zm10.9653015 -4.6875l0 -1.0l8.390625 -4.15625l0 1.1875l-7.171875 3.484375l7.171875 3.453125l0 1.1875l-8.390625 -4.15625z" fill-rule="nonzero"></path><path fill="#000000" d="m371.85483 128.70477l0 -2.625l-6.0625 0l0 -2.125l5.046875 -7.921875l3.71875 0l0 7.671875l1.640625 0l0 2.375l-1.640625 0l0 2.625l-2.703125 0zm0 -10.28125l-3.421875 5.28125l3.421875 0l0 -5.28125zm5.497162 10.28125l0 -2.109375q4.484375 -3.34375 5.59375 -4.515625q1.109375 -1.171875 1.109375 -2.1875q0 -0.75 -0.578125 -1.203125q-0.5625 -0.453125 -1.46875 -0.453125q-1.96875 0 -3.40625 1.46875l-1.53125 -1.796875q0.921875 -1.078125 2.234375 -1.5625q1.3125 -0.5 2.640625 -0.5q2.15625 0 3.5 1.125q1.359375 1.109375 1.359375 2.921875q0 1.4375 -1.15625 2.9375q-1.15625 1.5 -3.921875 3.5l5.171875 0l0 2.375l-9.546875 0z" fill-rule="nonzero"></path><path fill="#000000" fill-opacity="0.0" d="m229.41995 271.68503l90.48819 0l0 38.519684l-90.48819 0z" fill-rule="evenodd"></path><path fill="#000000" d="m241.79495 298.60504l0 -10.578125l-2.03125 2.140625l-0.9375 -0.96875l3.171875 -3.265625l1.375 0l0 12.671875l-1.578125 0zm8.668213 0.234375q-2.921875 0 -4.46875 -2.046875l0.96875 -1.03125q1.3125 1.671875 3.5 1.671875q1.265625 0 2.09375 -0.765625q0.828125 -0.78125 0.828125 -1.953125q0 -1.203125 -0.796875 -1.96875q-0.78125 -0.765625 -2.109375 -0.765625q-1.6875 0 -2.921875 1.1875l-1.15625 -0.390625l0 -6.84375l7.75 0l0 1.40625l-6.171875 0l0 4.40625q0.453125 -0.453125 1.21875 -0.796875q0.765625 -0.34375 1.734375 -0.34375q1.734375 0 2.875 1.125q1.15625 1.125 1.15625 2.921875q0 1.875 -1.25 3.03125q-1.234375 1.15625 -3.25 1.15625zm10.648621 -6.09375l0 -1.0l8.390625 -4.15625l0 1.1875l-7.171875 3.484375l7.171875 3.453125l0 1.1875l-8.390625 -4.15625z" fill-rule="nonzero"></path><path fill="#000000" d="m275.5783 298.60504l0 -2.109375q4.484375 -3.34375 5.59375 -4.515625q1.109375 -1.171875 1.109375 -2.1875q0 -0.75 -0.578125 -1.203125q-0.5625 -0.453125 -1.46875 -0.453125q-1.96875 0 -3.40625 1.46875l-1.53125 -1.796875q0.921875 -1.078125 2.234375 -1.5625q1.3125 -0.5 2.640625 -0.5q2.15625 0 3.5 1.125q1.359375 1.109375 1.359375 2.921875q0 1.4375 -1.15625 2.9375q-1.15625 1.5 -3.921875 3.5l5.171875 0l0 2.375l-9.546875 0zm16.193756 0.234375q-2.4375 0 -3.84375 -1.859375q-1.40625 -1.875 -1.40625 -4.703125q0 -1.84375 0.640625 -3.34375q0.640625 -1.515625 1.8125 -2.34375q1.1875 -0.84375 2.796875 -0.84375q2.390625 0 3.8125 1.828125q1.4375 1.828125 1.4375 4.703125q0 2.84375 -1.421875 4.703125q-1.421875 1.859375 -3.828125 1.859375zm0 -2.40625q1.171875 0 1.828125 -1.0625q0.65625 -1.078125 0.65625 -3.09375q0 -2.046875 -0.671875 -3.09375q-0.65625 -1.046875 -1.8125 -1.046875q-1.171875 0 -1.84375 1.046875q-0.671875 1.046875 -0.671875 3.09375q0 2.046875 0.65625 3.109375q0.65625 1.046875 1.859375 1.046875z" fill-rule="nonzero"></path><path fill="#000000" fill-opacity="0.0" d="m370.88715 267.37796l100.409454 0l0 38.519684l-100.409454 0z" fill-rule="evenodd"></path><path fill="#000000" d="m384.93402 294.53232q-1.609375 0 -2.765625 -0.609375q-1.140625 -0.625 -1.734375 -1.484375l0.9375 -0.984375q0.546875 0.734375 1.46875 1.203125q0.921875 0.46875 2.0625 0.46875q1.390625 0 2.171875 -0.640625q0.796875 -0.640625 0.796875 -1.734375q0 -1.125 -0.828125 -1.6875q-0.828125 -0.5625 -2.328125 -0.5625l-0.78125 0l-0.53125 0.015625l0 -1.4375l0.546875 0.015625l0.765625 0q1.359375 0 2.140625 -0.5625q0.796875 -0.5625 0.796875 -1.53125q0 -0.96875 -0.796875 -1.5625q-0.78125 -0.59375 -2.03125 -0.59375q-1.921875 0 -3.34375 1.53125l-0.875 -0.984375q1.59375 -1.953125 4.328125 -1.953125q1.9375 0 3.109375 0.921875q1.1875 0.921875 1.1875 2.453125q0 1.140625 -0.78125 1.953125q-0.765625 0.8125 -1.953125 1.0q1.203125 0.09375 2.0625 0.984375q0.859375 0.875 0.859375 2.125q0 1.65625 -1.234375 2.65625q-1.234375 1.0 -3.25 1.0zm11.063416 0q-2.921875 0 -4.46875 -2.046875l0.96875 -1.03125q1.3125 1.671875 3.5 1.671875q1.265625 0 2.09375 -0.765625q0.828125 -0.78125 0.828125 -1.953125q0 -1.203125 -0.796875 -1.96875q-0.78125 -0.765625 -2.109375 -0.765625q-1.6875 0 -2.921875 1.1875l-1.15625 -0.390625l0 -6.84375l7.75 0l0 1.40625l-6.171875 0l0 4.40625q0.453125 -0.453125 1.21875 -0.796875q0.765625 -0.34375 1.734375 -0.34375q1.734375 0 2.875 1.125q1.15625 1.125 1.15625 2.921875q0 1.875 -1.25 3.03125q-1.234375 1.15625 -3.25 1.15625zm10.648621 -1.9375l0 -1.1875l7.140625 -3.453125l-7.140625 -3.484375l0 -1.1875l8.390625 4.15625l0 1.0l-8.390625 4.15625z" fill-rule="nonzero"></path><path fill="#000000" d="m421.11258 294.29794l0 -2.109375q4.484375 -3.34375 5.59375 -4.515625q1.109375 -1.171875 1.109375 -2.1875q0 -0.75 -0.578125 -1.203125q-0.5625 -0.453125 -1.46875 -0.453125q-1.96875 0 -3.40625 1.46875l-1.53125 -1.796875q0.921875 -1.078125 2.234375 -1.5625q1.3125 -0.5 2.640625 -0.5q2.15625 0 3.5 1.125q1.359375 1.109375 1.359375 2.921875q0 1.4375 -1.15625 2.9375q-1.15625 1.5 -3.921875 3.5l5.171875 0l0 2.375l-9.546875 0zm16.193756 0.234375q-2.4375 0 -3.84375 -1.859375q-1.40625 -1.875 -1.40625 -4.703125q0 -1.84375 0.640625 -3.34375q0.640625 -1.515625 1.8125 -2.34375q1.1875 -0.84375 2.796875 -0.84375q2.390625 0 3.8125 1.828125q1.4375 1.828125 1.4375 4.703125q0 2.84375 -1.421875 4.703125q-1.421875 1.859375 -3.828125 1.859375zm0 -2.40625q1.171875 0 1.828125 -1.0625q0.65625 -1.078125 0.65625 -3.09375q0 -2.046875 -0.671875 -3.09375q-0.65625 -1.046875 -1.8125 -1.046875q-1.171875 0 -1.84375 1.046875q-0.671875 1.046875 -0.671875 3.09375q0 2.046875 0.65625 3.109375q0.65625 1.046875 1.859375 1.046875z" fill-rule="nonzero"></path><path fill="#000000" fill-opacity="0.0" d="m451.28552 267.3832l86.74017 0l0 38.519684l-86.74017 0z" fill-rule="evenodd"></path><path fill="#000000" d="m466.00427 294.53757q-2.921875 0 -4.46875 -2.046875l0.96875 -1.03125q1.3125 1.671875 3.5 1.671875q1.265625 0 2.09375 -0.765625q0.828125 -0.78125 0.828125 -1.953125q0 -1.203125 -0.796875 -1.96875q-0.78125 -0.765625 -2.109375 -0.765625q-1.6875 0 -2.921875 1.1875l-1.15625 -0.390625l0 -6.84375l7.75 0l0 1.40625l-6.171875 0l0 4.40625q0.453125 -0.453125 1.21875 -0.796875q0.765625 -0.34375 1.734375 -0.34375q1.734375 0 2.875 1.125q1.15625 1.125 1.15625 2.921875q0 1.875 -1.25 3.03125q-1.234375 1.15625 -3.25 1.15625zm11.007202 0q-2.921875 0 -4.46875 -2.046875l0.96875 -1.03125q1.3125 1.671875 3.5 1.671875q1.265625 0 2.09375 -0.765625q0.828125 -0.78125 0.828125 -1.953125q0 -1.203125 -0.796875 -1.96875q-0.78125 -0.765625 -2.109375 -0.765625q-1.6875 0 -2.921875 1.1875l-1.15625 -0.390625l0 -6.84375l7.75 0l0 1.40625l-6.171875 0l0 4.40625q0.453125 -0.453125 1.21875 -0.796875q0.765625 -0.34375 1.734375 -0.34375q1.734375 0 2.875 1.125q1.15625 1.125 1.15625 2.921875q0 1.875 -1.25 3.03125q-1.234375 1.15625 -3.25 1.15625zm10.648621 -6.09375l0 -1.0l8.390625 -4.15625l0 1.1875l-7.171875 3.484375l7.171875 3.453125l0 1.1875l-8.390625 -4.15625z" fill-rule="nonzero"></path><path fill="#000000" d="m507.361 294.53757q-2.578125 0 -4.03125 -1.734375q-1.453125 -1.734375 -1.453125 -4.8125q0 -2.9375 1.578125 -4.734375q1.578125 -1.8125 4.34375 -1.8125q2.21875 0 3.734375 1.3125l-1.21875 2.0625q-0.515625 -0.484375 -1.09375 -0.734375q-0.578125 -0.25 -1.421875 -0.25q-1.390625 0 -2.296875 1.046875q-0.890625 1.03125 -0.890625 2.546875l0.03125 0.265625q0.53125 -0.75 1.40625 -1.1875q0.890625 -0.453125 1.84375 -0.453125q1.875 0 3.09375 1.140625q1.2187195 1.140625 1.2187195 2.984375q0 1.90625 -1.3593445 3.140625q-1.359375 1.21875 -3.484375 1.21875zm-0.15625 -2.40625q1.0 0 1.625 -0.546875q0.640625 -0.5625 0.640625 -1.3125q0 -0.875 -0.65625 -1.375q-0.640625 -0.515625 -1.703125 -0.515625q-1.53125 0 -2.46875 1.1875q0.09375 1.140625 0.75 1.859375q0.671875 0.703125 1.8125 0.703125zm11.264862 2.40625q-2.4375 0 -3.84375 -1.859375q-1.40625 -1.875 -1.40625 -4.703125q0 -1.84375 0.640625 -3.34375q0.640625 -1.515625 1.8125 -2.34375q1.1875 -0.84375 2.796875 -0.84375q2.390625 0 3.8125 1.828125q1.4375 1.828125 1.4375 4.703125q0 2.84375 -1.421875 4.703125q-1.421875 1.859375 -3.828125 1.859375zm0 -2.40625q1.171875 0 1.828125 -1.0625q0.65625 -1.078125 0.65625 -3.09375q0 -2.046875 -0.671875 -3.09375q-0.65625 -1.046875 -1.8125 -1.046875q-1.171875 0 -1.84375 1.046875q-0.671875 1.046875 -0.671875 3.09375q0 2.046875 0.65625 3.109375q0.65625 1.046875 1.859375 1.046875z" fill-rule="nonzero"></path></g></svg>

