<?xml version="1.0" encoding="UTF-8" standalone="no"?>
<!DOCTYPE svg PUBLIC "-//W3C//DTD SVG 1.1//EN"
 "http://www.w3.org/Graphics/SVG/1.1/DTD/svg11.dtd">
<!-- Generated by graphviz version 2.26.3 (20100126.1600)
 -->
<!-- Title: MerkleTree2 Pages: 1 -->
<svg width="773pt" height="332pt"
 viewBox="0.00 0.00 773.00 332.00" xmlns="http://www.w3.org/2000/svg" xmlns:xlink="http://www.w3.org/1999/xlink">
<g id="graph1" class="graph" transform="scale(1 1) rotate(0) translate(4 328)">
<title>MerkleTree2</title>
<polygon fill="white" stroke="white" points="-4,5 -4,-328 770,-328 770,5 -4,5"/>
<!-- a5 -->
<g id="node1" class="node"><title>a5</title>
<polygon fill="none" stroke="black" points="73,-36 7,-36 7,-1.06581e-14 73,-0 73,-36"/>
<text text-anchor="middle" x="40" y="-13.9" font-family="Times Roman,serif" font-size="14.00">H(Y[0])</text>
</g>
<!-- b5 -->
<g id="node2" class="node"><title>b5</title>
<polygon fill="none" stroke="black" points="170,-36 104,-36 104,-1.06581e-14 170,-0 170,-36"/>
<text text-anchor="middle" x="137" y="-13.9" font-family="Times Roman,serif" font-size="14.00">H(Y[1])</text>
</g>
<!-- c5 -->
<g id="node3" class="node"><title>c5</title>
<polygon fill="none" stroke="black" stroke-width="2" points="270,-36 188,-36 188,-1.06581e-14 270,-0 270,-36"/>
<text text-anchor="middle" x="229" y="-13.9" font-family="Times Roman,serif" font-size="14.00">H(Y[i=2])</text>
</g>
<!-- d5 -->
<g id="node4" class="node"><title>d5</title>
<polygon fill="none" stroke="black" points="359,-36 293,-36 293,-1.06581e-14 359,-0 359,-36"/>
<text text-anchor="middle" x="326" y="-13.9" font-family="Times Roman,serif" font-size="14.00">H(Y[3])</text>
</g>
<!-- e5 -->
<g id="node5" class="node"><title>e5</title>
<polygon fill="none" stroke="black" points="464,-36 398,-36 398,-1.06581e-14 464,-0 464,-36"/>
<text text-anchor="middle" x="431" y="-13.9" font-family="Times Roman,serif" font-size="14.00">H(Y[4])</text>
</g>
<!-- f5 -->
<g id="node6" class="node"><title>f5</title>
<polygon fill="none" stroke="black" points="562,-36 496,-36 496,-1.06581e-14 562,-0 562,-36"/>
<text text-anchor="middle" x="529" y="-13.9" font-family="Times Roman,serif" font-size="14.00">H(Y[5])</text>
</g>
<!-- g5 -->
<g id="node7" class="node"><title>g5</title>
<polygon fill="none" stroke="black" points="660,-36 594,-36 594,-1.06581e-14 660,-0 660,-36"/>
<text text-anchor="middle" x="627" y="-13.9" font-family="Times Roman,serif" font-size="14.00">H(Y[6])</text>
</g>
<!-- h5 -->
<g id="node8" class="node"><title>h5</title>
<polygon fill="none" stroke="black" points="758,-36 692,-36 692,-1.06581e-14 758,-0 758,-36"/>
<text text-anchor="middle" x="725" y="-13.9" font-family="Times Roman,serif" font-size="14.00">H(Y[7])</text>
</g>
<!-- a4 -->
<g id="node9" class="node"><title>a4</title>
<ellipse fill="none" stroke="black" cx="40" cy="-90" rx="39.8056" ry="18"/>
<text text-anchor="middle" x="40" y="-85.9" font-family="Times Roman,serif" font-size="14.00">a[0,0]</text>
</g>
<!-- a4&#45;&gt;a5 -->
<g id="edge5" class="edge"><title>a4&#45;&gt;a5</title>
<path fill="none" stroke="black" d="M40,-61.5726C40,-53.1084 40,-44.0593 40,-36.4133"/>
<polygon fill="black" stroke="black" points="36.5001,-61.8313 40,-71.8314 43.5001,-61.8314 36.5001,-61.8313"/>
</g>
<!-- b4 -->
<g id="node10" class="node"><title>b4</title>
<ellipse fill="none" stroke="black" cx="138" cy="-90" rx="39.8056" ry="18"/>
<text text-anchor="middle" x="138" y="-85.9" font-family="Times Roman,serif" font-size="14.00">a[0,1]</text>
</g>
<!-- b4&#45;&gt;b5 -->
<g id="edge8" class="edge"><title>b4&#45;&gt;b5</title>
<path fill="none" stroke="black" d="M137.605,-61.5726C137.488,-53.1084 137.362,-44.0593 137.256,-36.4133"/>
<polygon fill="black" stroke="black" points="134.109,-61.881 137.748,-71.8314 141.108,-61.7837 134.109,-61.881"/>
</g>
<!-- c4 -->
<g id="node11" class="node"><title>c4</title>
<ellipse fill="none" stroke="black" stroke-width="2" cx="229" cy="-90" rx="31.9646" ry="18"/>
<text text-anchor="middle" x="229" y="-85.9" font-family="Times Roman,serif" font-size="14.00">A[0]</text>
</g>
<!-- c4&#45;&gt;c5 -->
<g id="edge12" class="edge"><title>c4&#45;&gt;c5</title>
<path fill="none" stroke="black" d="M229,-61.5726C229,-53.1084 229,-44.0593 229,-36.4133"/>
<polygon fill="black" stroke="black" points="225.5,-61.8313 229,-71.8314 232.5,-61.8314 225.5,-61.8313"/>
</g>
<!-- d4 -->
<g id="node12" class="node"><title>d4</title>
<ellipse fill="none" stroke="black" stroke-width="2" stroke-dasharray="5,2" cx="326" cy="-90" rx="46.7546" ry="18"/>
<text text-anchor="middle" x="326" y="-85.9" font-family="Times Roman,serif" font-size="14.00">auth[0]</text>
</g>
<!-- d4&#45;&gt;d5 -->
<g id="edge15" class="edge"><title>d4&#45;&gt;d5</title>
<path fill="none" stroke="black" d="M326,-61.5726C326,-53.1084 326,-44.0593 326,-36.4133"/>
<polygon fill="black" stroke="black" points="322.5,-61.8313 326,-71.8314 329.5,-61.8314 322.5,-61.8313"/>
</g>
<!-- e4 -->
<g id="node13" class="node"><title>e4</title>
<ellipse fill="none" stroke="black" cx="431" cy="-90" rx="39.8056" ry="18"/>
<text text-anchor="middle" x="431" y="-85.9" font-family="Times Roman,serif" font-size="14.00">a[0,4]</text>
</g>
<!-- e4&#45;&gt;e5 -->
<g id="edge20" class="edge"><title>e4&#45;&gt;e5</title>
<path fill="none" stroke="black" d="M431,-61.5726C431,-53.1084 431,-44.0593 431,-36.4133"/>
<polygon fill="black" stroke="black" points="427.5,-61.8313 431,-71.8314 434.5,-61.8314 427.5,-61.8313"/>
</g>
<!-- f4 -->
<g id="node14" class="node"><title>f4</title>
<ellipse fill="none" stroke="black" cx="529" cy="-90" rx="39.8056" ry="18"/>
<text text-anchor="middle" x="529" y="-85.9" font-family="Times Roman,serif" font-size="14.00">a[0,5]</text>
</g>
<!-- f4&#45;&gt;f5 -->
<g id="edge23" class="edge"><title>f4&#45;&gt;f5</title>
<path fill="none" stroke="black" d="M529,-61.5726C529,-53.1084 529,-44.0593 529,-36.4133"/>
<polygon fill="black" stroke="black" points="525.5,-61.8313 529,-71.8314 532.5,-61.8314 525.5,-61.8313"/>
</g>
<!-- g4 -->
<g id="node15" class="node"><title>g4</title>
<ellipse fill="none" stroke="black" cx="627" cy="-90" rx="39.8056" ry="18"/>
<text text-anchor="middle" x="627" y="-85.9" font-family="Times Roman,serif" font-size="14.00">a[0,6]</text>
</g>
<!-- g4&#45;&gt;g5 -->
<g id="edge27" class="edge"><title>g4&#45;&gt;g5</title>
<path fill="none" stroke="black" d="M627,-61.5726C627,-53.1084 627,-44.0593 627,-36.4133"/>
<polygon fill="black" stroke="black" points="623.5,-61.8313 627,-71.8314 630.5,-61.8314 623.5,-61.8313"/>
</g>
<!-- h4 -->
<g id="node16" class="node"><title>h4</title>
<ellipse fill="none" stroke="black" cx="725" cy="-90" rx="39.8056" ry="18"/>
<text text-anchor="middle" x="725" y="-85.9" font-family="Times Roman,serif" font-size="14.00">a[0,7]</text>
</g>
<!-- h4&#45;&gt;h5 -->
<g id="edge30" class="edge"><title>h4&#45;&gt;h5</title>
<path fill="none" stroke="black" d="M725,-61.5726C725,-53.1084 725,-44.0593 725,-36.4133"/>
<polygon fill="black" stroke="black" points="721.5,-61.8313 725,-71.8314 728.5,-61.8314 721.5,-61.8313"/>
</g>
<!-- a3 -->
<g id="node17" class="node"><title>a3</title>
<ellipse fill="none" stroke="black" stroke-width="2" stroke-dasharray="5,2" cx="138" cy="-162" rx="46.7546" ry="18"/>
<text text-anchor="middle" x="138" y="-157.9" font-family="Times Roman,serif" font-size="14.00">auth[1]</text>
</g>
<!-- a3&#45;&gt;a4 -->
<g id="edge4" class="edge"><title>a3&#45;&gt;a4</title>
<path fill="none" stroke="black" d="M108.138,-140.061C92.9095,-128.872 74.755,-115.534 61.0159,-105.44"/>
<polygon fill="black" stroke="black" points="106.12,-142.921 116.251,-146.021 110.264,-137.279 106.12,-142.921"/>
</g>
<!-- a3&#45;&gt;b4 -->
<g id="edge7" class="edge"><title>a3&#45;&gt;b4</title>
<path fill="none" stroke="black" d="M138,-133.573C138,-125.108 138,-116.059 138,-108.413"/>
<polygon fill="black" stroke="black" points="134.5,-133.831 138,-143.831 141.5,-133.831 134.5,-133.831"/>
</g>
<!-- b3 -->
<g id="node18" class="node"><title>b3</title>
<ellipse fill="none" stroke="black" stroke-width="2" cx="281" cy="-162" rx="31.9646" ry="18"/>
<text text-anchor="middle" x="281" y="-157.9" font-family="Times Roman,serif" font-size="14.00">A[1]</text>
</g>
<!-- b3&#45;&gt;c4 -->
<g id="edge11" class="edge"><title>b3&#45;&gt;c4</title>
<path fill="none" stroke="black" d="M262.96,-137.022C255.827,-127.145 247.809,-116.044 241.356,-107.109"/>
<polygon fill="black" stroke="black" points="260.247,-139.243 268.939,-145.301 265.922,-135.145 260.247,-139.243"/>
</g>
<!-- b3&#45;&gt;d4 -->
<g id="edge14" class="edge"><title>b3&#45;&gt;d4</title>
<path fill="none" stroke="black" d="M297.081,-136.271C303,-126.801 309.565,-116.296 314.942,-107.692"/>
<polygon fill="black" stroke="black" points="293.996,-134.602 291.664,-144.937 299.932,-138.312 293.996,-134.602"/>
</g>
<!-- c3 -->
<g id="node19" class="node"><title>c3</title>
<ellipse fill="none" stroke="black" cx="480" cy="-162" rx="39.8056" ry="18"/>
<text text-anchor="middle" x="480" y="-157.9" font-family="Times Roman,serif" font-size="14.00">a[1,2]</text>
</g>
<!-- c3&#45;&gt;e4 -->
<g id="edge19" class="edge"><title>c3&#45;&gt;e4</title>
<path fill="none" stroke="black" d="M462.403,-136.143C455.874,-126.55 448.634,-115.911 442.752,-107.269"/>
<polygon fill="black" stroke="black" points="459.619,-138.273 468.138,-144.571 465.406,-134.334 459.619,-138.273"/>
</g>
<!-- c3&#45;&gt;f4 -->
<g id="edge22" class="edge"><title>c3&#45;&gt;f4</title>
<path fill="none" stroke="black" d="M497.597,-136.143C504.126,-126.55 511.366,-115.911 517.248,-107.269"/>
<polygon fill="black" stroke="black" points="494.594,-134.334 491.862,-144.571 500.381,-138.273 494.594,-134.334"/>
</g>
<!-- d3 -->
<g id="node20" class="node"><title>d3</title>
<ellipse fill="none" stroke="black" cx="627" cy="-162" rx="39.8056" ry="18"/>
<text text-anchor="middle" x="627" y="-157.9" font-family="Times Roman,serif" font-size="14.00">a[1,3]</text>
</g>
<!-- d3&#45;&gt;g4 -->
<g id="edge26" class="edge"><title>d3&#45;&gt;g4</title>
<path fill="none" stroke="black" d="M627,-133.573C627,-125.108 627,-116.059 627,-108.413"/>
<polygon fill="black" stroke="black" points="623.5,-133.831 627,-143.831 630.5,-133.831 623.5,-133.831"/>
</g>
<!-- d3&#45;&gt;h4 -->
<g id="edge29" class="edge"><title>d3&#45;&gt;h4</title>
<path fill="none" stroke="black" d="M656.377,-140.417C671.628,-129.212 689.916,-115.776 703.777,-105.592"/>
<polygon fill="black" stroke="black" points="654.251,-137.636 648.265,-146.377 658.396,-143.277 654.251,-137.636"/>
</g>
<!-- a2 -->
<g id="node21" class="node"><title>a2</title>
<ellipse fill="none" stroke="black" stroke-width="2" cx="281" cy="-234" rx="31.9646" ry="18"/>
<text text-anchor="middle" x="281" y="-229.9" font-family="Times Roman,serif" font-size="14.00">A[2]</text>
</g>
<!-- a2&#45;&gt;a3 -->
<g id="edge3" class="edge"><title>a2&#45;&gt;a3</title>
<path fill="none" stroke="black" d="M248.104,-217.437C223.512,-205.055 190.218,-188.292 166.7,-176.45"/>
<polygon fill="black" stroke="black" points="246.559,-220.578 257.065,-221.949 249.707,-214.326 246.559,-220.578"/>
</g>
<!-- a2&#45;&gt;b3 -->
<g id="edge10" class="edge"><title>a2&#45;&gt;b3</title>
<path fill="none" stroke="black" d="M281,-205.573C281,-197.108 281,-188.059 281,-180.413"/>
<polygon fill="black" stroke="black" points="277.5,-205.831 281,-215.831 284.5,-205.831 277.5,-205.831"/>
</g>
<!-- b2 -->
<g id="node22" class="node"><title>b2</title>
<ellipse fill="none" stroke="black" stroke-width="2" stroke-dasharray="5,2" cx="480" cy="-234" rx="46.7546" ry="18"/>
<text text-anchor="middle" x="480" y="-229.9" font-family="Times Roman,serif" font-size="14.00">auth[2]</text>
</g>
<!-- b2&#45;&gt;c3 -->
<g id="edge18" class="edge"><title>b2&#45;&gt;c3</title>
<path fill="none" stroke="black" d="M480,-205.573C480,-197.108 480,-188.059 480,-180.413"/>
<polygon fill="black" stroke="black" points="476.5,-205.831 480,-215.831 483.5,-205.831 476.5,-205.831"/>
</g>
<!-- b2&#45;&gt;d3 -->
<g id="edge25" class="edge"><title>b2&#45;&gt;d3</title>
<path fill="none" stroke="black" d="M518.067,-215.355C543.567,-202.865 576.548,-186.711 599.509,-175.465"/>
<polygon fill="black" stroke="black" points="516.484,-212.233 509.042,-219.775 519.563,-218.52 516.484,-212.233"/>
</g>
<!-- a1 -->
<g id="node23" class="node"><title>a1</title>
<ellipse fill="none" stroke="black" stroke-width="2" cx="380" cy="-306" rx="30.0736" ry="18"/>
<text text-anchor="middle" x="380" y="-301.9" font-family="Times Roman,serif" font-size="14.00">a[3]</text>
</g>
<!-- a1&#45;&gt;a2 -->
<g id="edge2" class="edge"><title>a1&#45;&gt;a2</title>
<path fill="none" stroke="black" d="M352.299,-285.854C335.942,-273.958 315.617,-259.176 300.857,-248.442"/>
<polygon fill="black" stroke="black" points="350.295,-288.724 360.441,-291.775 354.412,-283.063 350.295,-288.724"/>
</g>
<!-- a1&#45;&gt;b2 -->
<g id="edge17" class="edge"><title>a1&#45;&gt;b2</title>
<path fill="none" stroke="black" d="M407.595,-286.132C423.349,-274.789 442.845,-260.752 457.636,-250.102"/>
<polygon fill="black" stroke="black" points="405.351,-283.434 399.281,-292.118 409.441,-289.115 405.351,-283.434"/>
</g>
</g>
</svg>
