<?xml version="1.0" standalone="yes"?>

<svg version="1.1" viewBox="0.0 0.0 960.0 540.0" fill="none" stroke="none" stroke-linecap="square" stroke-miterlimit="10" xmlns="http://www.w3.org/2000/svg" xmlns:xlink="http://www.w3.org/1999/xlink"><clipPath id="g282c0af4d9_2_42.0"><path d="m0 0l960.0 0l0 540.0l-960.0 0l0 -540.0z" clip-rule="nonzero"></path></clipPath><g clip-path="url(#g282c0af4d9_2_42.0)"><path fill="#ffffff" d="m0 0l960.0 0l0 540.0l-960.0 0z" fill-rule="evenodd"></path><path fill="#eeeeee" d="m178.94882 26.482939l78.11023 0l0 61.921257l-78.11023 0z" fill-rule="evenodd"></path><path stroke="#000000" stroke-width="1.0" stroke-linejoin="round" stroke-linecap="butt" d="m178.94882 26.482939l78.11023 0l0 61.921257l-78.11023 0z" fill-rule="evenodd"></path><path fill="#000000" d="m208.3969 69.55419q-4.921875 0 -7.515625 -3.4375l1.640625 -1.75q2.203125 2.8125 5.875 2.8125q2.15625 0 3.546875 -1.296875q1.390625 -1.296875 1.390625 -3.2812462q0 -2.015625 -1.328125 -3.3125q-1.328125 -1.296875 -3.578125 -1.296875q-2.84375 0 -4.921875 2.015625l-1.953125 -0.671875l0 -11.515625l13.0625 0l0 2.375l-10.40625 0l0 7.421875q0.765625 -0.765625 2.0625 -1.34375q1.296875 -0.578125 2.9375 -0.578125q2.90625 0 4.84375 1.890625q1.9375 1.875 1.9375 4.921875q0 3.1718712 -2.09375 5.109371q-2.09375 1.9375 -5.5 1.9375zm19.05191 0q-3.71875 0 -5.953125 -3.0625q-2.21875 -3.0624962 -2.21875 -7.984371q0 -4.953125 2.25 -7.96875q2.265625 -3.03125 5.921875 -3.03125q2.484375 0 4.328125 1.421875q1.84375 1.421875 2.828125 3.953125q1.0 2.515625 1.0 5.625q0 3.078125 -1.0 5.640621q-0.984375 2.546875 -2.8125 3.984375q-1.828125 1.421875 -4.34375 1.421875zm0 -2.375q2.5625 0 4.0 -2.296875q1.4375 -2.3124962 1.4375 -6.374996q0 -4.09375 -1.4375 -6.359375q-1.4375 -2.28125 -4.0 -2.28125q-2.5625 0 -4.0 2.28125q-1.4375 2.265625 -1.4375 6.359375q0 4.0625 1.421875 6.374996q1.421875 2.296875 4.015625 2.296875z" fill-rule="nonzero"></path><path fill="#eeeeee" d="m257.06375 26.48523l78.11023 0l0 61.921257l-78.11023 0z" fill-rule="evenodd"></path><path stroke="#595959" stroke-width="1.0" stroke-linejoin="round" stroke-linecap="butt" d="m257.06375 26.48523l78.11023 0l0 61.921257l-78.11023 0z" fill-rule="evenodd"></path><path fill="#000000" d="m288.5707 69.165855l0 -5.406246l-10.140625 0l0 -2.203125l9.140625 -13.734375l3.65625 0l0 13.59375l3.0 0l0 2.34375l-3.0 0l0 5.406246l-2.65625 0zm0 -18.874996l-7.484375 11.125l7.484375 0l0 -11.125zm16.481049 19.265621q-3.71875 0 -5.953125 -3.0625q-2.21875 -3.0624962 -2.21875 -7.984371q0 -4.953125 2.25 -7.96875q2.265625 -3.03125 5.921875 -3.03125q2.484375 0 4.328125 1.421875q1.84375 1.421875 2.828125 3.953125q1.0 2.515625 1.0 5.625q0 3.078125 -1.0 5.640621q-0.984375 2.546875 -2.8125 3.984375q-1.828125 1.421875 -4.34375 1.421875zm0 -2.375q2.5625 0 4.0 -2.296875q1.4375 -2.3124962 1.4375 -6.374996q0 -4.09375 -1.4375 -6.359375q-1.4375 -2.28125 -4.0 -2.28125q-2.5625 0 -4.0 2.28125q-1.4375 2.265625 -1.4375 6.359375q0 4.0625 1.421875 6.374996q1.421875 2.296875 4.015625 2.296875z" fill-rule="nonzero"></path><path fill="#eeeeee" d="m335.1787 26.48752l78.11023 0l0 61.921265l-78.11023 0z" fill-rule="evenodd"></path><path stroke="#595959" stroke-width="1.0" stroke-linejoin="round" stroke-linecap="butt" d="m335.1787 26.48752l78.11023 0l0 61.921265l-78.11023 0z" fill-rule="evenodd"></path><path fill="#000000" d="m360.07678 69.16815l8.609375 -18.968754l-11.5 0l0 -2.375l14.5625 0l0 1.828125l-8.734375 19.515629l-2.9375 0zm22.401886 0.390625q-3.71875 0 -5.953125 -3.0625q-2.21875 -3.0625038 -2.21875 -7.984379q0 -4.953125 2.25 -7.96875q2.265625 -3.03125 5.921875 -3.03125q2.484375 0 4.328125 1.421875q1.84375 1.421875 2.828125 3.953125q1.0 2.515625 1.0 5.625q0 3.078125 -1.0 5.640629q-0.984375 2.546875 -2.8125 3.984375q-1.828125 1.421875 -4.34375 1.421875zm0 -2.375q2.5625 0 4.0 -2.296875q1.4375 -2.3125038 1.4375 -6.375004q0 -4.09375 -1.4375 -6.359375q-1.4375 -2.28125 -4.0 -2.28125q-2.5625 0 -4.0 2.28125q-1.4375 2.265625 -1.4375 6.359375q0 4.0625 1.421875 6.375004q1.421875 2.296875 4.015625 2.296875z" fill-rule="nonzero"></path><path fill="#eeeeee" d="m413.29364 26.48752l78.11023 0l0 61.921265l-78.11023 0z" fill-rule="evenodd"></path><path stroke="#595959" stroke-width="1.0" stroke-linejoin="round" stroke-linecap="butt" d="m413.29364 26.48752l78.11023 0l0 61.921265l-78.11023 0z" fill-rule="evenodd"></path><path fill="#000000" d="m442.96008 69.55878q-3.875 0 -6.0625 -2.90625q-2.171875 -2.9218788 -2.171875 -8.109379q0 -5.0625 2.359375 -8.046875q2.359375 -2.984375 6.3125 -2.984375q3.65625 0 5.921875 2.546875l-1.34375 1.984375q-0.828125 -0.953125 -1.859375 -1.5625q-1.015625 -0.609375 -2.71875 -0.609375q-2.6875 0 -4.359375 2.34375q-1.65625 2.328125 -1.65625 6.046875l0 0.40625l0.03125 0.421875q0.96875 -1.46875 2.6875 -2.390625q1.734375 -0.9375 3.375 -0.9375q3.09375 0 5.03125 1.828125q1.9375 1.8125 1.9375 4.984375q0 3.0156288 -2.078125 5.000004q-2.078125 1.984375 -5.40625 1.984375zm-0.09375 -2.375q2.171875 0 3.53125 -1.34375q1.359375 -1.34375 1.359375 -3.1718788q0 -2.171875 -1.328125 -3.390625q-1.328125 -1.21875 -3.59375 -1.21875q-1.609375 0 -3.03125 0.890625q-1.421875 0.875 -2.3125 2.3125q0.25 2.71875 1.65625 4.328129q1.40625 1.59375 3.71875 1.59375zm18.943298 2.375q-3.71875 0 -5.953125 -3.0625q-2.21875 -3.0625038 -2.21875 -7.984379q0 -4.953125 2.25 -7.96875q2.265625 -3.03125 5.921875 -3.03125q2.484375 0 4.328125 1.421875q1.84375 1.421875 2.828125 3.953125q1.0 2.515625 1.0 5.625q0 3.078125 -1.0 5.640629q-0.984375 2.546875 -2.8125 3.984375q-1.828125 1.421875 -4.34375 1.421875zm0 -2.375q2.5625 0 4.0 -2.296875q1.4375 -2.3125038 1.4375 -6.375004q0 -4.09375 -1.4375 -6.359375q-1.4375 -2.28125 -4.0 -2.28125q-2.5625 0 -4.0 2.28125q-1.4375 2.265625 -1.4375 6.359375q0 4.0625 1.421875 6.375004q1.421875 2.296875 4.015625 2.296875z" fill-rule="nonzero"></path><path fill="#eeeeee" d="m647.6384 26.48752l78.11023 0l0 61.921265l-78.11023 0z" fill-rule="evenodd"></path><path stroke="#595959" stroke-width="1.0" stroke-linejoin="round" stroke-linecap="butt" d="m647.6384 26.48752l78.11023 0l0 61.921265l-78.11023 0z" fill-rule="evenodd"></path><path fill="#000000" d="m679.49744 69.16815l0 -5.406254l-10.140625 0l0 -2.203125l9.140625 -13.734375l3.65625 0l0 13.59375l3.0 0l0 2.34375l-3.0 0l0 5.406254l-2.65625 0zm0 -18.875004l-7.484375 11.125l7.484375 0l0 -11.125zm16.309143 19.265629q-4.921875 0 -7.515625 -3.4375l1.640625 -1.75q2.203125 2.8125 5.875 2.8125q2.15625 0 3.546875 -1.296875q1.390625 -1.296875 1.390625 -3.2812538q0 -2.015625 -1.328125 -3.3125q-1.328125 -1.296875 -3.578125 -1.296875q-2.84375 0 -4.921875 2.015625l-1.953125 -0.671875l0 -11.515625l13.0625 0l0 2.375l-10.40625 0l0 7.421875q0.765625 -0.765625 2.0625 -1.34375q1.296875 -0.578125 2.9375 -0.578125q2.90625 0 4.84375 1.890625q1.9375 1.875 1.9375 4.921875q0 3.1718788 -2.09375 5.109379q-2.09375 1.9375 -5.5 1.9375z" fill-rule="nonzero"></path><path fill="#eeff41" d="m491.40857 26.48752l78.11023 0l0 61.921265l-78.11023 0z" fill-rule="evenodd"></path><path stroke="#595959" stroke-width="1.0" stroke-linejoin="round" stroke-linecap="butt" d="m491.40857 26.48752l78.11023 0l0 61.921265l-78.11023 0z" fill-rule="evenodd"></path><path fill="#000000" d="m512.99805 69.16815l0 -2.109375q5.625 -4.453129 7.734375 -6.484379q2.109375 -2.03125 3.09375 -3.640625q1.0 -1.625 1.0 -3.15625q0 -1.765625 -1.21875 -2.828125q-1.203125 -1.078125 -3.21875 -1.078125q-3.75 0 -5.796875 2.6875l-1.625 -1.6875q1.203125 -1.640625 3.171875 -2.5q1.96875 -0.859375 4.25 -0.859375q3.09375 0 5.125 1.71875q2.03125 1.703125 2.03125 4.546875q0 2.59375 -2.1875 5.453125q-2.1875 2.859375 -8.171875 7.562504l10.46875 0l0 2.375l-14.65625 0zm26.87854 0.390625q-3.71875 0 -5.953125 -3.0625q-2.21875 -3.0625038 -2.21875 -7.984379q0 -4.953125 2.25 -7.96875q2.265625 -3.03125 5.921875 -3.03125q2.484375 0 4.328125 1.421875q1.84375 1.421875 2.828125 3.953125q1.0 2.515625 1.0 5.625q0 3.078125 -1.0 5.640629q-0.984375 2.546875 -2.8125 3.984375q-1.828125 1.421875 -4.34375 1.421875zm0 -2.375q2.5625 0 4.0 -2.296875q1.4375 -2.3125038 1.4375 -6.375004q0 -4.09375 -1.4375 -6.359375q-1.4375 -2.28125 -4.0 -2.28125q-2.5625 0 -4.0 2.28125q-1.4375 2.265625 -1.4375 6.359375q0 4.0625 1.421875 6.375004q1.421875 2.296875 4.015625 2.296875z" fill-rule="nonzero"></path><path fill="#eeeeee" d="m569.5235 26.48752l78.11023 0l0 61.921265l-78.11023 0z" fill-rule="evenodd"></path><path stroke="#595959" stroke-width="1.0" stroke-linejoin="round" stroke-linecap="butt" d="m569.5235 26.48752l78.11023 0l0 61.921265l-78.11023 0z" fill-rule="evenodd"></path><path fill="#000000" d="m598.276 69.52753q-3.65625 0 -5.921875 -2.5625l1.34375 -1.984375q0.828125 0.953125 1.859375 1.5625q1.046875 0.609375 2.71875 0.609375q2.78125 0 4.390625 -2.296875q1.625 -2.3125038 1.625 -6.062504l0 -0.4375l-0.03125 -0.421875q-0.9375 1.4375 -2.65625 2.390625q-1.703125 0.9375 -3.359375 0.9375q-3.171875 0 -5.09375 -1.84375q-1.921875 -1.859375 -1.921875 -4.96875q0 -2.984375 2.078125 -4.984375q2.09375 -2.0 5.390625 -2.0q3.859375 0 6.046875 2.921875q2.203125 2.90625 2.203125 8.125q0 5.03125 -2.359375 8.031254q-2.34375 2.984375 -6.3125 2.984375zm0.578125 -10.562504q1.59375 0 3.03125 -0.859375q1.4375 -0.875 2.28125 -2.3125q-0.296875 -2.84375 -1.734375 -4.390625q-1.4375 -1.5625 -3.609375 -1.5625q-2.140625 0 -3.53125 1.328125q-1.375 1.328125 -1.375 3.1875q0 2.140625 1.328125 3.375q1.328125 1.234375 3.609375 1.234375zm18.333862 10.562504q-3.65625 0 -5.921875 -2.5625l1.34375 -1.984375q0.828125 0.953125 1.859375 1.5625q1.046875 0.609375 2.71875 0.609375q2.78125 0 4.390625 -2.296875q1.625 -2.3125038 1.625 -6.062504l0 -0.4375l-0.03125 -0.421875q-0.9375 1.4375 -2.65625 2.390625q-1.703125 0.9375 -3.359375 0.9375q-3.171875 0 -5.09375 -1.84375q-1.921875 -1.859375 -1.921875 -4.96875q0 -2.984375 2.078125 -4.984375q2.09375 -2.0 5.390625 -2.0q3.859375 0 6.046875 2.921875q2.203125 2.90625 2.203125 8.125q0 5.03125 -2.359375 8.031254q-2.34375 2.984375 -6.3125 2.984375zm0.578125 -10.562504q1.59375 0 3.03125 -0.859375q1.4375 -0.875 2.28125 -2.3125q-0.296875 -2.84375 -1.734375 -4.390625q-1.4375 -1.5625 -3.609375 -1.5625q-2.140625 0 -3.53125 1.328125q-1.375 1.328125 -1.375 3.1875q0 2.140625 1.328125 3.375q1.328125 1.234375 3.609375 1.234375z" fill-rule="nonzero"></path><path fill="#f9cb9c" d="m494.24515 296.75433l0 0c0 -26.49228 20.982697 -47.968506 46.86612 -47.968506l0 0c12.4296875 0 24.35028 5.0538177 33.139404 14.049652c8.7890625 8.99585 13.726746 21.196808 13.726746 33.918854l0 0c0 26.49228 -20.982666 47.968506 -46.86615 47.968506l0 0c-25.883423 0 -46.86612 -21.476227 -46.86612 -47.968506z" fill-rule="evenodd"></path><path stroke="#595959" stroke-width="1.0" stroke-linejoin="round" stroke-linecap="butt" d="m494.24515 296.75433l0 0c0 -26.49228 20.982697 -47.968506 46.86612 -47.968506l0 0c12.4296875 0 24.35028 5.0538177 33.139404 14.049652c8.7890625 8.99585 13.726746 21.196808 13.726746 33.918854l0 0c0 26.49228 -20.982666 47.968506 -46.86615 47.968506l0 0c-25.883423 0 -46.86612 -21.476227 -46.86612 -47.968506z" fill-rule="evenodd"></path><path fill="#000000" d="m526.9542 308.47433l8.609375 -18.96875l-11.5 0l0 -2.375l14.5625 0l0 1.828125l-8.734375 19.515625l-2.9375 0zm22.401917 0.390625q-3.71875 0 -5.953125 -3.0625q-2.21875 -3.0625 -2.21875 -7.984375q0 -4.953125 2.25 -7.96875q2.265625 -3.03125 5.921875 -3.03125q2.484375 0 4.328125 1.421875q1.84375 1.421875 2.828125 3.953125q1.0 2.515625 1.0 5.625q0 3.078125 -1.0 5.640625q-0.984375 2.546875 -2.8125 3.984375q-1.828125 1.421875 -4.34375 1.421875zm0 -2.375q2.5625 0 4.0 -2.296875q1.4375 -2.3125 1.4375 -6.375q0 -4.09375 -1.4375 -6.359375q-1.4375 -2.28125 -4.0 -2.28125q-2.5625 0 -4.0 2.28125q-1.4375 2.265625 -1.4375 6.359375q0 4.0625 1.421875 6.375q1.421875 2.296875 4.015625 2.296875z" fill-rule="nonzero"></path><path fill="#b6d7a8" d="m227.41536 470.69897l0 0c0 -26.49228 20.982681 -47.968506 46.866135 -47.968506l0 0c12.4296875 0 24.35028 5.0538025 33.139374 14.049622c8.789093 8.99585 13.726776 21.196838 13.726776 33.918884l0 0c0 26.492249 -20.982697 47.968506 -46.86615 47.968506l0 0c-25.883453 0 -46.866135 -21.476257 -46.866135 -47.968506z" fill-rule="evenodd"></path><path stroke="#595959" stroke-width="1.0" stroke-linejoin="round" stroke-linecap="butt" d="m227.41536 470.69897l0 0c0 -26.49228 20.982681 -47.968506 46.866135 -47.968506l0 0c12.4296875 0 24.35028 5.0538025 33.139374 14.049622c8.789093 8.99585 13.726776 21.196838 13.726776 33.918884l0 0c0 26.492249 -20.982697 47.968506 -46.86615 47.968506l0 0c-25.883453 0 -46.866135 -21.476257 -46.866135 -47.968506z" fill-rule="evenodd"></path><path fill="#000000" d="m251.87651 482.41895l0 -2.109375q5.6249847 -4.453125 7.7343597 -6.484375q2.109375 -2.03125 3.09375 -3.640625q1.0 -1.625 1.0 -3.15625q0 -1.765625 -1.21875 -2.828125q-1.203125 -1.078125 -3.21875 -1.078125q-3.7499847 0 -5.7968597 2.6875l-1.625 -1.6875q1.203125 -1.640625 3.171875 -2.5q1.9687347 -0.859375 4.2499847 -0.859375q3.09375 0 5.125 1.71875q2.03125 1.703125 2.03125 4.546875q0 2.59375 -2.1875 5.453125q-2.1875 2.859375 -8.171875 7.5625l10.46875 0l0 2.375l-14.656235 0zm26.878525 0.390625q-3.71875 0 -5.953125 -3.0625q-2.21875 -3.0625 -2.21875 -7.984375q0 -4.953125 2.25 -7.96875q2.265625 -3.03125 5.921875 -3.03125q2.484375 0 4.328125 1.421875q1.84375 1.421875 2.828125 3.953125q1.0 2.515625 1.0 5.625q0 3.078125 -1.0 5.640625q-0.984375 2.546875 -2.8125 3.984375q-1.828125 1.421875 -4.34375 1.421875zm0 -2.375q2.5625 0 4.0 -2.296875q1.4375 -2.3125 1.4375 -6.375q0 -4.09375 -1.4375 -6.359375q-1.4375 -2.28125 -4.0 -2.28125q-2.5625 0 -4.0 2.28125q-1.4375 2.265625 -1.4375 6.359375q0 4.0625 1.421875 6.375q1.421875 2.296875 4.015625 2.296875z" fill-rule="nonzero"></path><path fill="#b6d7a8" d="m442.49063 455.99554l0 0c0 -26.49228 20.982697 -47.968506 46.86615 -47.968506l0 0c12.4296875 0 24.35025 5.0538025 33.139374 14.049652c8.789124 8.99585 13.726746 21.196808 13.726746 33.918854l0 0c0 26.49228 -20.982666 47.968506 -46.86612 47.968506l0 0c-25.883453 0 -46.86615 -21.476227 -46.86615 -47.968506z" fill-rule="evenodd"></path><path stroke="#ff9900" stroke-width="8.0" stroke-linejoin="round" stroke-linecap="butt" d="m442.49063 455.99554l0 0c0 -26.49228 20.982697 -47.968506 46.86615 -47.968506l0 0c12.4296875 0 24.35025 5.0538025 33.139374 14.049652c8.789124 8.99585 13.726746 21.196808 13.726746 33.918854l0 0c0 26.49228 -20.982666 47.968506 -46.86612 47.968506l0 0c-25.883453 0 -46.86615 -21.476227 -46.86615 -47.968506z" fill-rule="evenodd"></path><path fill="#000000" d="m479.9681 468.10617q-3.875 0 -6.0625 -2.90625q-2.171875 -2.921875 -2.171875 -8.109375q0 -5.0625 2.359375 -8.046875q2.359375 -2.984375 6.3125 -2.984375q3.65625 0 5.921875 2.546875l-1.34375 1.984375q-0.828125 -0.953125 -1.859375 -1.5625q-1.015625 -0.609375 -2.71875 -0.609375q-2.6875 0 -4.359375 2.34375q-1.65625 2.328125 -1.65625 6.046875l0 0.40625l0.03125 0.421875q0.96875 -1.46875 2.6875 -2.390625q1.734375 -0.9375 3.375 -0.9375q3.09375 0 5.03125 1.828125q1.9375 1.8125 1.9375 4.984375q0 3.015625 -2.078125 5.0q-2.078125 1.984375 -5.40625 1.984375zm-0.09375 -2.375q2.171875 0 3.53125 -1.34375q1.359375 -1.34375 1.359375 -3.171875q0 -2.171875 -1.328125 -3.390625q-1.328125 -1.21875 -3.59375 -1.21875q-1.609375 0 -3.03125 0.890625q-1.421875 0.875 -2.3125 2.3125q0.25 2.71875 1.65625 4.328125q1.40625 1.59375 3.71875 1.59375zm18.943298 2.375q-3.71875 0 -5.953125 -3.0625q-2.21875 -3.0625 -2.21875 -7.984375q0 -4.953125 2.25 -7.96875q2.265625 -3.03125 5.921875 -3.03125q2.484375 0 4.328125 1.421875q1.84375 1.421875 2.828125 3.953125q1.0 2.515625 1.0 5.625q0 3.078125 -1.0 5.640625q-0.984375 2.546875 -2.8125 3.984375q-1.828125 1.421875 -4.34375 1.421875zm0 -2.375q2.5625 0 4.0 -2.296875q1.4375 -2.3125 1.4375 -6.375q0 -4.09375 -1.4375 -6.359375q-1.4375 -2.28125 -4.0 -2.28125q-2.5625 0 -4.0 2.28125q-1.4375 2.265625 -1.4375 6.359375q0 4.0625 1.421875 6.375q1.421875 2.296875 4.015625 2.296875z" fill-rule="nonzero"></path><path fill="#000000" fill-opacity="0.0" d="m442.4912 197.79265l-111.590546 50.960632" fill-rule="evenodd"></path><path stroke="#595959" stroke-width="1.0" stroke-linejoin="round" stroke-linecap="butt" d="m442.4912 197.79265l-111.590546 50.960632" fill-rule="evenodd"></path><path fill="#000000" fill-opacity="0.0" d="m442.4912 197.79265l98.6142 50.992126" fill-rule="evenodd"></path><path stroke="#595959" stroke-width="1.0" stroke-linejoin="round" stroke-linecap="butt" d="m442.4912 197.79265l98.6142 50.992126" fill-rule="evenodd"></path><path fill="#000000" fill-opacity="0.0" d="m330.90646 344.70358l-56.629913 78.01575" fill-rule="evenodd"></path><path stroke="#595959" stroke-width="1.0" stroke-linejoin="round" stroke-linecap="butt" d="m330.90646 344.70358l-56.629913 78.01575" fill-rule="evenodd"></path><path fill="#000000" fill-opacity="0.0" d="m541.11127 344.72284l-51.748016 63.3071" fill-rule="evenodd"></path><path stroke="#595959" stroke-width="1.0" stroke-linejoin="round" stroke-linecap="butt" d="m541.11127 344.72284l-51.748016 63.3071" fill-rule="evenodd"></path><path fill="#6d9eeb" d="m395.62506 149.82414l0 0c0 -26.492271 20.982697 -47.9685 46.86615 -47.9685l0 0c12.429657 0 24.35025 5.05381 33.139374 14.049644c8.789093 8.995842 13.726776 21.196823 13.726776 33.918854l0 0c0 26.49228 -20.982697 47.968506 -46.86615 47.968506l0 0c-25.883453 0 -46.86615 -21.476227 -46.86615 -47.968506z" fill-rule="evenodd"></path><path stroke="#000000" stroke-width="1.0" stroke-linejoin="round" stroke-linecap="butt" d="m395.62506 149.82414l0 0c0 -26.492271 20.982697 -47.9685 46.86615 -47.9685l0 0c12.429657 0 24.35025 5.05381 33.139374 14.049644c8.789093 8.995842 13.726776 21.196823 13.726776 33.918854l0 0c0 26.49228 -20.982697 47.968506 -46.86615 47.968506l0 0c-25.883453 0 -46.86615 -21.476227 -46.86615 -47.968506z" fill-rule="evenodd"></path><path fill="#000000" d="m432.88416 161.93477q-4.921875 0 -7.515625 -3.4375l1.640625 -1.75q2.203125 2.8125 5.875 2.8125q2.15625 0 3.546875 -1.296875q1.390625 -1.296875 1.390625 -3.28125q0 -2.015625 -1.328125 -3.3125q-1.328125 -1.296875 -3.578125 -1.296875q-2.84375 0 -4.921875 2.015625l-1.953125 -0.671875l0 -11.515625l13.0625 0l0 2.375l-10.40625 0l0 7.421875q0.765625 -0.765625 2.0625 -1.34375q1.296875 -0.578125 2.9375 -0.578125q2.90625 0 4.84375 1.890625q1.9375 1.875 1.9375 4.921875q0 3.171875 -2.09375 5.109375q-2.09375 1.9375 -5.5 1.9375zm19.05191 0q-3.71875 0 -5.953125 -3.0625q-2.21875 -3.0625 -2.21875 -7.984375q0 -4.953125 2.25 -7.96875q2.265625 -3.03125 5.921875 -3.03125q2.484375 0 4.328125 1.421875q1.84375 1.421875 2.828125 3.953125q1.0 2.515625 1.0 5.625q0 3.078125 -1.0 5.640625q-0.984375 2.546875 -2.8125 3.984375q-1.828125 1.421875 -4.34375 1.421875zm0 -2.375q2.5625 0 4.0 -2.296875q1.4375 -2.3125 1.4375 -6.375q0 -4.09375 -1.4375 -6.359375q-1.4375 -2.28125 -4.0 -2.28125q-2.5625 0 -4.0 2.28125q-1.4375 2.265625 -1.4375 6.359375q0 4.0625 1.421875 6.375q1.421875 2.296875 4.015625 2.296875z" fill-rule="nonzero"></path><path fill="#f9cb9c" d="m284.04034 296.7351l0 0c0 -26.49228 20.982666 -47.96852 46.86612 -47.96852l0 0c12.4296875 0 24.35028 5.0538177 33.139374 14.049637c8.789124 8.99585 13.726776 21.196838 13.726776 33.918884l0 0c0 26.492249 -20.982666 47.968475 -46.86615 47.968475l0 0c-25.883453 0 -46.86612 -21.476227 -46.86612 -47.968475z" fill-rule="evenodd"></path><path stroke="#000000" stroke-width="1.0" stroke-linejoin="round" stroke-linecap="butt" d="m284.04034 296.7351l0 0c0 -26.49228 20.982666 -47.96852 46.86612 -47.96852l0 0c12.4296875 0 24.35028 5.0538177 33.139374 14.049637c8.789124 8.99585 13.726776 21.196838 13.726776 33.918884l0 0c0 26.492249 -20.982666 47.968475 -46.86615 47.968475l0 0c-25.883453 0 -46.86612 -21.476227 -46.86612 -47.968475z" fill-rule="evenodd"></path><path fill="#000000" d="m323.3583 308.45508l0 -5.40625l-10.140625 0l0 -2.203125l9.140625 -13.734375l3.65625 0l0 13.59375l3.0 0l0 2.34375l-3.0 0l0 5.40625l-2.65625 0zm0 -18.875l-7.484375 11.125l7.484375 0l0 -11.125zm16.481049 19.265625q-3.71875 0 -5.953125 -3.0625q-2.21875 -3.0625 -2.21875 -7.984375q0 -4.953125 2.25 -7.96875q2.265625 -3.03125 5.921875 -3.03125q2.484375 0 4.328125 1.421875q1.84375 1.421875 2.828125 3.953125q1.0 2.515625 1.0 5.625q0 3.078125 -1.0 5.640625q-0.984375 2.546875 -2.8125 3.984375q-1.828125 1.421875 -4.34375 1.421875zm0 -2.375q2.5625 0 4.0 -2.296875q1.4375 -2.3125 1.4375 -6.375q0 -4.09375 -1.4375 -6.359375q-1.4375 -2.28125 -4.0 -2.28125q-2.5625 0 -4.0 2.28125q-1.4375 2.265625 -1.4375 6.359375q0 4.0625 1.421875 6.375q1.421875 2.296875 4.015625 2.296875z" fill-rule="nonzero"></path></g></svg>

