<?xml version="1.0" standalone="yes"?>

<svg version="1.1" viewBox="0.0 0.0 960.0 540.0" fill="none" stroke="none" stroke-linecap="square" stroke-miterlimit="10" xmlns="http://www.w3.org/2000/svg" xmlns:xlink="http://www.w3.org/1999/xlink"><clipPath id="g282c0af4d9_0_97.0"><path d="m0 0l960.0 0l0 540.0l-960.0 0l0 -540.0z" clip-rule="nonzero"></path></clipPath><g clip-path="url(#g282c0af4d9_0_97.0)"><path fill="#ffffff" d="m0 0l960.0 0l0 540.0l-960.0 0z" fill-rule="evenodd"></path><path fill="#f9cb9c" d="m511.21365 215.3554l0 0c0 -26.49228 20.982697 -47.968506 46.86612 -47.968506l0 0c12.4296875 0 24.35028 5.0538025 33.139404 14.049652c8.7890625 8.995834 13.726746 21.196808 13.726746 33.918854l0 0c0 26.492264 -20.982666 47.96849 -46.86615 47.96849l0 0c-25.883423 0 -46.86612 -21.476227 -46.86612 -47.96849z" fill-rule="evenodd"></path><path stroke="#595959" stroke-width="1.0" stroke-linejoin="round" stroke-linecap="butt" d="m511.21365 215.3554l0 0c0 -26.49228 20.982697 -47.968506 46.86612 -47.968506l0 0c12.4296875 0 24.35028 5.0538025 33.139404 14.049652c8.7890625 8.995834 13.726746 21.196808 13.726746 33.918854l0 0c0 26.492264 -20.982666 47.96849 -46.86615 47.96849l0 0c-25.883423 0 -46.86612 -21.476227 -46.86612 -47.96849z" fill-rule="evenodd"></path><path fill="#000000" d="m544.2748 227.0754l8.609375 -18.96875l-11.5 0l0 -2.375l14.5625 0l0 1.828125l-8.734375 19.515625l-2.9375 0zm22.22998 0.390625q-4.921875 0 -7.515625 -3.4375l1.640625 -1.75q2.203125 2.8125 5.875 2.8125q2.15625 0 3.546875 -1.296875q1.390625 -1.296875 1.390625 -3.28125q0 -2.015625 -1.328125 -3.3125q-1.328125 -1.296875 -3.578125 -1.296875q-2.84375 0 -4.921875 2.015625l-1.953125 -0.671875l0 -11.515625l13.0625 0l0 2.375l-10.40625 0l0 7.421875q0.765625 -0.765625 2.0625 -1.34375q1.296875 -0.578125 2.9375 -0.578125q2.90625 0 4.84375 1.890625q1.9375 1.875 1.9375 4.921875q0 3.171875 -2.09375 5.109375q-2.09375 1.9375 -5.5 1.9375z" fill-rule="nonzero"></path><path fill="#b6d7a8" d="m244.38387 389.30002l0 0c0 -26.49228 20.982681 -47.968506 46.866135 -47.968506l0 0c12.4296875 0 24.35028 5.0538025 33.139374 14.049652c8.789093 8.995819 13.726776 21.196808 13.726776 33.918854l0 0c0 26.49228 -20.982697 47.968506 -46.86615 47.968506l0 0c-25.883453 0 -46.866135 -21.476227 -46.866135 -47.968506z" fill-rule="evenodd"></path><path stroke="#595959" stroke-width="1.0" stroke-linejoin="round" stroke-linecap="butt" d="m244.38387 389.30002l0 0c0 -26.49228 20.982681 -47.968506 46.866135 -47.968506l0 0c12.4296875 0 24.35028 5.0538025 33.139374 14.049652c8.789093 8.995819 13.726776 21.196808 13.726776 33.918854l0 0c0 26.49228 -20.982697 47.968506 -46.86615 47.968506l0 0c-25.883453 0 -46.866135 -21.476227 -46.866135 -47.968506z" fill-rule="evenodd"></path><path fill="#000000" d="m272.81375 401.02002l0 -17.828125l-3.4375 3.625l-1.59375 -1.640625l5.34375 -5.5l2.34375 0l0 21.34375l-2.65625 0zm14.941772 0.390625q-3.71875 0 -5.953125 -3.0625q-2.21875 -3.0625 -2.21875 -7.984375q0 -4.953125 2.25 -7.96875q2.265625 -3.03125 5.921875 -3.03125q2.484375 0 4.328125 1.421875q1.84375 1.421875 2.828125 3.953125q1.0 2.515625 1.0 5.625q0 3.078125 -1.0 5.640625q-0.984375 2.546875 -2.8125 3.984375q-1.828125 1.421875 -4.34375 1.421875zm0 -2.375q2.5625 0 4.0 -2.296875q1.4375 -2.3125 1.4375 -6.375q0 -4.09375 -1.4375 -6.359375q-1.4375 -2.28125 -4.0 -2.28125q-2.5625 0 -4.0 2.28125q-1.4375 2.265625 -1.4375 6.359375q0 4.0625 1.421875 6.375q1.421875 2.296875 4.015625 2.296875z" fill-rule="nonzero"></path><path fill="#b6d7a8" d="m350.93158 389.30002l0 0c0 -26.49228 20.982697 -47.968506 46.86615 -47.968506l0 0c12.4296875 0 24.35025 5.0538025 33.139374 14.049652c8.789093 8.995819 13.726776 21.196808 13.726776 33.918854l0 0c0 26.49228 -20.982697 47.968506 -46.86615 47.968506l0 0c-25.883453 0 -46.86615 -21.476227 -46.86615 -47.968506z" fill-rule="evenodd"></path><path stroke="#ff9900" stroke-width="8.0" stroke-linejoin="round" stroke-linecap="butt" d="m350.93158 389.30002l0 0c0 -26.49228 20.982697 -47.968506 46.86615 -47.968506l0 0c12.4296875 0 24.35025 5.0538025 33.139374 14.049652c8.789093 8.995819 13.726776 21.196808 13.726776 33.918854l0 0c0 26.49228 -20.982697 47.968506 -46.86615 47.968506l0 0c-25.883453 0 -46.86615 -21.476227 -46.86615 -47.968506z" fill-rule="evenodd"></path><path fill="#000000" d="m390.58557 401.02002l0 -5.40625l-10.140625 0l0 -2.203125l9.140625 -13.734375l3.65625 0l0 13.59375l3.0 0l0 2.34375l-3.0 0l0 5.40625l-2.65625 0zm0 -18.875l-7.484375 11.125l7.484375 0l0 -11.125zm15.293549 19.234375q-3.65625 0 -5.921875 -2.5625l1.34375 -1.984375q0.828125 0.953125 1.859375 1.5625q1.046875 0.609375 2.71875 0.609375q2.78125 0 4.390625 -2.296875q1.625 -2.3125 1.625 -6.0625l0 -0.4375l-0.03125 -0.421875q-0.9375 1.4375 -2.65625 2.390625q-1.703125 0.9375 -3.359375 0.9375q-3.171875 0 -5.09375 -1.84375q-1.921875 -1.859375 -1.921875 -4.96875q0 -2.984375 2.078125 -4.984375q2.09375 -2.0 5.390625 -2.0q3.859375 0 6.046875 2.921875q2.203125 2.90625 2.203125 8.125q0 5.03125 -2.359375 8.03125q-2.34375 2.984375 -6.3125 2.984375zm0.578125 -10.5625q1.59375 0 3.03125 -0.859375q1.4375 -0.875 2.28125 -2.3125q-0.296875 -2.84375 -1.734375 -4.390625q-1.4375 -1.5625 -3.609375 -1.5625q-2.140625 0 -3.53125 1.328125q-1.375 1.328125 -1.375 3.1875q0 2.140625 1.328125 3.375q1.328125 1.234375 3.609375 1.234375z" fill-rule="nonzero"></path><path fill="#b6d7a8" d="m570.86835 389.29037l0 0c0 -26.492249 20.982666 -47.968506 46.86615 -47.968506l0 0c12.4296875 0 24.35028 5.053833 33.139343 14.049652c8.789124 8.99585 13.726807 21.196838 13.726807 33.918854l0 0c0 26.49228 -20.982727 47.968506 -46.86615 47.968506l0 0c-25.883484 0 -46.86615 -21.476227 -46.86615 -47.968506z" fill-rule="evenodd"></path><path stroke="#595959" stroke-width="1.0" stroke-linejoin="round" stroke-linecap="butt" d="m570.86835 389.29037l0 0c0 -26.492249 20.982666 -47.968506 46.86615 -47.968506l0 0c12.4296875 0 24.35028 5.053833 33.139343 14.049652c8.789124 8.99585 13.726807 21.196838 13.726807 33.918854l0 0c0 26.49228 -20.982727 47.968506 -46.86615 47.968506l0 0c-25.883484 0 -46.86615 -21.476227 -46.86615 -47.968506z" fill-rule="evenodd"></path><path fill="#000000" d="m607.4318 401.36975q-3.65625 0 -5.921875 -2.5625l1.34375 -1.984375q0.828125 0.953125 1.859375 1.5625q1.046875 0.609375 2.71875 0.609375q2.78125 0 4.390625 -2.296875q1.625 -2.3125 1.625 -6.0625l0 -0.4375l-0.03125 -0.421875q-0.9375 1.4375 -2.65625 2.390625q-1.703125 0.9375 -3.359375 0.9375q-3.171875 0 -5.09375 -1.84375q-1.921875 -1.859375 -1.921875 -4.96875q0 -2.984375 2.078125 -4.984375q2.09375 -2.0 5.390625 -2.0q3.859375 0 6.046875 2.921875q2.203125 2.90625 2.203125 8.125q0 5.03125 -2.359375 8.03125q-2.34375 2.984375 -6.3125 2.984375zm0.578125 -10.5625q1.59375 0 3.03125 -0.859375q1.4375 -0.875 2.28125 -2.3125q-0.296875 -2.84375 -1.734375 -4.390625q-1.4375 -1.5625 -3.609375 -1.5625q-2.140625 0 -3.53125 1.328125q-1.375 1.328125 -1.375 3.1875q0 2.140625 1.328125 3.375q1.328125 1.234375 3.609375 1.234375zm18.333923 10.5625q-3.65625 0 -5.921875 -2.5625l1.34375 -1.984375q0.828125 0.953125 1.859375 1.5625q1.046875 0.609375 2.71875 0.609375q2.78125 0 4.390625 -2.296875q1.625 -2.3125 1.625 -6.0625l0 -0.4375l-0.03125 -0.421875q-0.9375 1.4375 -2.65625 2.390625q-1.703125 0.9375 -3.359375 0.9375q-3.171875 0 -5.09375 -1.84375q-1.921875 -1.859375 -1.921875 -4.96875q0 -2.984375 2.078125 -4.984375q2.09375 -2.0 5.390625 -2.0q3.859375 0 6.046875 2.921875q2.203125 2.90625 2.203125 8.125q0 5.03125 -2.359375 8.03125q-2.34375 2.984375 -6.3125 2.984375zm0.578125 -10.5625q1.59375 0 3.03125 -0.859375q1.4375 -0.875 2.28125 -2.3125q-0.296875 -2.84375 -1.734375 -4.390625q-1.4375 -1.5625 -3.609375 -1.5625q-2.140625 0 -3.53125 1.328125q-1.375 1.328125 -1.375 3.1875q0 2.140625 1.328125 3.375q1.328125 1.234375 3.609375 1.234375z" fill-rule="nonzero"></path><path fill="#000000" fill-opacity="0.0" d="m459.45972 116.3937l-111.590546 50.960625" fill-rule="evenodd"></path><path stroke="#595959" stroke-width="1.0" stroke-linejoin="round" stroke-linecap="butt" d="m459.45972 116.3937l-111.590546 50.960625" fill-rule="evenodd"></path><path fill="#000000" fill-opacity="0.0" d="m459.45972 116.3937l98.6142 50.99212" fill-rule="evenodd"></path><path stroke="#595959" stroke-width="1.0" stroke-linejoin="round" stroke-linecap="butt" d="m459.45972 116.3937l98.6142 50.99212" fill-rule="evenodd"></path><path fill="#000000" fill-opacity="0.0" d="m347.87497 263.30466l-56.629913 78.01575" fill-rule="evenodd"></path><path stroke="#595959" stroke-width="1.0" stroke-linejoin="round" stroke-linecap="butt" d="m347.87497 263.30466l-56.629913 78.01575" fill-rule="evenodd"></path><path fill="#000000" fill-opacity="0.0" d="m347.87497 263.30466l49.921265 78.01575" fill-rule="evenodd"></path><path stroke="#595959" stroke-width="1.0" stroke-linejoin="round" stroke-linecap="butt" d="m347.87497 263.30466l49.921265 78.01575" fill-rule="evenodd"></path><path fill="#000000" fill-opacity="0.0" d="m558.0798 263.32388l59.653564 77.98425" fill-rule="evenodd"></path><path stroke="#595959" stroke-width="1.0" stroke-linejoin="round" stroke-linecap="butt" d="m558.0798 263.32388l59.653564 77.98425" fill-rule="evenodd"></path><path fill="#6d9eeb" d="m412.59357 68.42519l0 0c0 -26.492271 20.982697 -47.968502 46.86615 -47.968502l0 0c12.429657 0 24.35025 5.05381 33.139374 14.049648c8.789093 8.995842 13.726776 21.19682 13.726776 33.918854l0 0c0 26.49228 -20.982697 47.968506 -46.86615 47.968506l0 0c-25.883453 0 -46.86615 -21.476227 -46.86615 -47.968506z" fill-rule="evenodd"></path><path stroke="#000000" stroke-width="1.0" stroke-linejoin="round" stroke-linecap="butt" d="m412.59357 68.42519l0 0c0 -26.492271 20.982697 -47.968502 46.86615 -47.968502l0 0c12.429657 0 24.35025 5.05381 33.139374 14.049648c8.789093 8.995842 13.726776 21.19682 13.726776 33.918854l0 0c0 26.49228 -20.982697 47.968506 -46.86615 47.968506l0 0c-25.883453 0 -46.86615 -21.476227 -46.86615 -47.968506z" fill-rule="evenodd"></path><path fill="#000000" d="m449.85266 80.53582q-4.921875 0 -7.515625 -3.4375l1.640625 -1.75q2.203125 2.8125 5.875 2.8125q2.15625 0 3.546875 -1.296875q1.390625 -1.296875 1.390625 -3.28125q0 -2.015625 -1.328125 -3.3125q-1.328125 -1.296875 -3.578125 -1.296875q-2.84375 0 -4.921875 2.015625l-1.953125 -0.671875l0 -11.515625l13.0625 0l0 2.375l-10.40625 0l0 7.421875q0.765625 -0.765625 2.0625 -1.34375q1.296875 -0.578125 2.9375 -0.578125q2.90625 0 4.84375 1.890625q1.9375 1.875 1.9375 4.921875q0 3.171875 -2.09375 5.109375q-2.09375 1.9375 -5.5 1.9375zm19.05191 0q-3.71875 0 -5.953125 -3.0625q-2.21875 -3.0625 -2.21875 -7.984375q0 -4.953125 2.25 -7.96875q2.265625 -3.03125 5.921875 -3.03125q2.484375 0 4.328125 1.421875q1.84375 1.421875 2.828125 3.953125q1.0 2.515625 1.0 5.625q0 3.078125 -1.0 5.640625q-0.984375 2.546875 -2.8125 3.984375q-1.828125 1.421875 -4.34375 1.421875zm0 -2.375q2.5625 0 4.0 -2.296875q1.4375 -2.3125 1.4375 -6.375q0 -4.09375 -1.4375 -6.359375q-1.4375 -2.28125 -4.0 -2.28125q-2.5625 0 -4.0 2.28125q-1.4375 2.265625 -1.4375 6.359375q0 4.0625 1.421875 6.375q1.421875 2.296875 4.015625 2.296875z" fill-rule="nonzero"></path><path fill="#000000" fill-opacity="0.0" d="m283.6378 466.08398l392.7244 0l0 45.826782l-392.7244 0z" fill-rule="evenodd"></path><path fill="#000000" d="m395.46677 498.40524q-3.875 0 -6.15625 -2.53125l1.1875 -1.515625q0.984375 1.109375 2.296875 1.703125q1.328125 0.578125 2.734375 0.578125q1.734375 0 2.75 -0.765625q1.015625 -0.78125 1.015625 -2.0q0 -1.890625 -2.96875 -2.703125q-3.53125 -0.9375 -4.5 -1.484375q-0.96875 -0.5625 -1.484375 -1.390625q-0.515625 -0.828125 -0.515625 -1.984375q0 -1.921875 1.546875 -3.171875q1.546875 -1.265625 3.9375 -1.265625q3.609375 0 5.6875 2.234375l-1.1875 1.46875q-1.734375 -1.921875 -4.640625 -1.921875q-1.4375 0 -2.359375 0.703125q-0.921875 0.6875 -0.921875 1.84375q0 0.828125 0.765625 1.421875q0.765625 0.59375 2.234375 0.953125q3.40625 0.9375 4.390625 1.53125q1.0 0.59375 1.53125 1.484375q0.546875 0.875 0.546875 2.109375q0 2.21875 -1.609375 3.46875q-1.59375 1.234375 -4.28125 1.234375zm14.032715 0q-2.609375 0 -4.265625 -1.703125q-1.640625 -1.703125 -1.640625 -4.390625q0 -2.5625 1.625 -4.3125q1.640625 -1.75 4.09375 -1.75q2.4999695 0 4.0312195 1.734375q1.53125 1.71875 1.53125 4.484375l0 0.453125l-9.3749695 0q0.09375 1.765625 1.28125 2.890625q1.1875 1.109375 2.890625 1.109375q2.1093445 0 3.5780945 -1.453125l0.859375 1.171875q-1.78125 1.765625 -4.6093445 1.765625zm3.5937195 -6.8125q0 -1.609375 -1.0625 -2.734375q-1.0468445 -1.125 -2.7499695 -1.125q-1.609375 0 -2.671875 1.125q-1.0625 1.125 -1.109375 2.734375l7.5937195 0zm11.933838 6.53125l0 -1.3125q-1.46875 1.59375 -3.84375 1.59375q-1.75 0 -2.90625 -1.09375q-1.140625 -1.109375 -1.140625 -2.734375q0 -1.6875 1.140625 -2.75q1.140625 -1.078125 2.90625 -1.078125q2.5 0 3.84375 1.59375l0 -2.09375q0 -1.171875 -0.828125 -1.796875q-0.828125 -0.640625 -2.09375 -0.640625q-2.046875 0 -3.5625 1.59375l-0.828125 -1.234375q1.84375 -1.921875 4.625 -1.921875q2.140625 0 3.3125 1.03125q1.171875 1.03125 1.171875 2.875l0 7.96875l-1.796875 0zm-3.1875 -1.015625q2.125 0 3.1875 -1.4375l0 -2.171875q-1.0625 -1.453125 -3.1875 -1.453125q-1.28125 0 -2.078125 0.71875q-0.78125 0.703125 -0.78125 1.828125q0 1.109375 0.78125 1.8125q0.796875 0.703125 2.078125 0.703125zm8.58548 1.015625l0 -11.59375l1.796875 0l0 1.875q1.609375 -2.109375 3.875 -2.109375l0 1.84375l-0.71875 -0.078125q-0.828125 0 -1.8125 0.59375q-0.984375 0.59375 -1.34375 1.265625l0 8.203125l-1.796875 0zm13.029358 0.28125q-2.53125 0 -4.15625 -1.71875q-1.625 -1.734375 -1.625 -4.375q0 -2.609375 1.625 -4.328125q1.625 -1.734375 4.15625 -1.734375q2.6875 0 4.25 2.015625l-1.203125 1.09375q-1.09375 -1.5 -2.9375 -1.5q-1.78125 0 -2.90625 1.234375q-1.109375 1.234375 -1.109375 3.21875q0 2.015625 1.09375 3.265625q1.109375 1.234375 2.921875 1.234375q1.8125 0 2.9375 -1.515625l1.203125 1.09375q-1.5625 2.015625 -4.25 2.015625zm14.614319 -0.28125l0 -7.625q0 -1.296875 -0.609375 -1.96875q-0.609375 -0.671875 -2.0 -0.671875q-0.984375 0 -1.90625 0.5q-0.921875 0.5 -1.53125 1.296875l0 8.46875l-1.796875 0l0 -16.015625l1.796875 0l0 6.109375q0.78125 -0.890625 1.875 -1.421875q1.109375 -0.546875 2.28125 -0.546875q3.703125 0 3.703125 3.6875l0 8.1875l-1.8125 0zm16.705566 0.28125q-2.53125 0 -4.15625 -1.71875q-1.625 -1.734375 -1.625 -4.375q0 -2.609375 1.625 -4.328125q1.625 -1.734375 4.15625 -1.734375q2.6875 0 4.25 2.015625l-1.203125 1.09375q-1.09375 -1.5 -2.9375 -1.5q-1.78125 0 -2.90625 1.234375q-1.109375 1.234375 -1.109375 3.21875q0 2.015625 1.09375 3.265625q1.109375 1.234375 2.921875 1.234375q1.8125 0 2.9375 -1.515625l1.203125 1.09375q-1.5625 2.015625 -4.25 2.015625zm11.833099 0q-2.515625 0 -4.125 -1.703125q-1.609375 -1.71875 -1.609375 -4.390625q0 -2.6875 1.609375 -4.375q1.609375 -1.6875 4.125 -1.6875q2.53125 0 4.125 1.6875q1.609375 1.6875 1.609375 4.375q0 2.671875 -1.609375 4.390625q-1.59375 1.703125 -4.125 1.703125zm0 -1.59375q1.6875 0 2.765625 -1.265625q1.078125 -1.265625 1.078125 -3.234375q0 -1.9375 -1.078125 -3.1875q-1.078125 -1.265625 -2.765625 -1.265625q-1.671875 0 -2.765625 1.25q-1.09375 1.234375 -1.09375 3.203125q0 2.0 1.078125 3.25q1.078125 1.25 2.78125 1.25zm22.665466 1.3125l0 -7.875q0 -2.390625 -2.140625 -2.390625q-0.90625 0 -1.765625 0.546875q-0.84375 0.53125 -1.3125 1.21875l0 8.5l-1.796875 0l0 -7.875q0 -2.390625 -2.140625 -2.390625q-0.875 0 -1.71875 0.546875q-0.84375 0.546875 -1.328125 1.25l0 8.46875l-1.796875 0l0 -11.59375l1.796875 0l0 1.6875q0.421875 -0.703125 1.546875 -1.328125q1.125 -0.640625 2.203125 -0.640625q1.34375 0 2.09375 0.625q0.765625 0.625 1.03125 1.53125q0.59375 -0.9375 1.6875 -1.546875q1.109375 -0.609375 2.203125 -0.609375q3.234375 0 3.234375 3.5l0 8.375l-1.796875 0zm11.110718 0.28125q-2.46875 0 -3.921875 -2.03125l0 6.171875l-1.796875 0l0 -16.015625l1.796875 0l0 1.734375q0.625 -0.890625 1.65625 -1.453125q1.03125 -0.5625 2.265625 -0.5625q2.328125 0 3.734375 1.640625q1.421875 1.625 1.421875 4.421875q0 2.78125 -1.40625 4.4375q-1.40625 1.65625 -3.75 1.65625zm-0.453125 -1.59375q1.671875 0 2.6875 -1.21875q1.03125 -1.234375 1.03125 -3.28125q0 -1.984375 -1.015625 -3.21875q-1.0 -1.234375 -2.703125 -1.234375q-1.09375 0 -2.046875 0.546875q-0.9375 0.53125 -1.421875 1.296875l0 5.234375q0.484375 0.765625 1.421875 1.328125q0.953125 0.546875 2.046875 0.546875zm8.462341 1.3125l0 -16.015625l1.796875 0l0 16.015625l-1.796875 0zm10.634338 0.28125q-2.609375 0 -4.265625 -1.703125q-1.640625 -1.703125 -1.640625 -4.390625q0 -2.5625 1.625 -4.3125q1.640625 -1.75 4.09375 -1.75q2.5 0 4.03125 1.734375q1.53125 1.71875 1.53125 4.484375l0 0.453125l-9.375 0q0.09375 1.765625 1.28125 2.890625q1.1875 1.109375 2.890625 1.109375q2.109375 0 3.578125 -1.453125l0.859375 1.171875q-1.78125 1.765625 -4.609375 1.765625zm3.59375 -6.8125q0 -1.609375 -1.0625 -2.734375q-1.046875 -1.125 -2.75 -1.125q-1.609375 0 -2.671875 1.125q-1.0625 1.125 -1.109375 2.734375l7.59375 0zm7.621338 6.8125q-2.578125 0 -2.578125 -2.703125l0 -7.59375l-1.921875 0l0 -1.578125l1.921875 0l0 -3.171875l1.796875 0l0 3.171875l2.359375 0l0 1.578125l-2.359375 0l0 7.203125q0 0.65625 0.28125 1.078125q0.296875 0.421875 0.90625 0.421875q0.734375 0 1.21875 -0.484375l0.53125 1.34375q-0.75 0.734375 -2.15625 0.734375zm9.352844 0q-2.609375 0 -4.265625 -1.703125q-1.640625 -1.703125 -1.640625 -4.390625q0 -2.5625 1.625 -4.3125q1.640625 -1.75 4.09375 -1.75q2.5 0 4.03125 1.734375q1.53125 1.71875 1.53125 4.484375l0 0.453125l-9.375 0q0.09375 1.765625 1.28125 2.890625q1.1875 1.109375 2.890625 1.109375q2.109375 0 3.578125 -1.453125l0.859375 1.171875q-1.78125 1.765625 -4.609375 1.765625zm3.59375 -6.8125q0 -1.609375 -1.0625 -2.734375q-1.046875 -1.125 -2.75 -1.125q-1.609375 0 -2.671875 1.125q-1.0625 1.125 -1.109375 2.734375l7.59375 0zm4.902588 2.046875l-0.390625 -11.53125l2.265625 0l-0.390625 11.53125l-1.484375 0zm0.75 4.71875q-0.5625 0 -0.953125 -0.390625q-0.375 -0.390625 -0.375 -0.921875q0 -0.546875 0.375 -0.9375q0.390625 -0.390625 0.953125 -0.390625q0.546875 0 0.921875 0.390625q0.390625 0.390625 0.390625 0.9375q0 0.53125 -0.390625 0.921875q-0.375 0.390625 -0.921875 0.390625z" fill-rule="nonzero"></path><path fill="#f9cb9c" d="m301.00885 215.33614l0 0c0 -26.492264 20.982666 -47.96849 46.86612 -47.96849l0 0c12.4296875 0 24.35028 5.0538025 33.139374 14.049637c8.789124 8.99585 13.726776 21.196823 13.726776 33.918854l0 0c0 26.49228 -20.982697 47.96852 -46.86615 47.96852l0 0c-25.883453 0 -46.86612 -21.476242 -46.86612 -47.96852z" fill-rule="evenodd"></path><path stroke="#000000" stroke-width="1.0" stroke-linejoin="round" stroke-linecap="butt" d="m301.00885 215.33614l0 0c0 -26.492264 20.982666 -47.96849 46.86612 -47.96849l0 0c12.4296875 0 24.35028 5.0538025 33.139374 14.049637c8.789124 8.99585 13.726776 21.196823 13.726776 33.918854l0 0c0 26.49228 -20.982697 47.96852 -46.86615 47.96852l0 0c-25.883453 0 -46.86612 -21.476242 -46.86612 -47.96852z" fill-rule="evenodd"></path><path fill="#000000" d="m330.76132 227.05614l0 -2.109375q5.625 -4.453125 7.734375 -6.484375q2.109375 -2.03125 3.09375 -3.640625q1.0 -1.625 1.0 -3.15625q0 -1.765625 -1.21875 -2.828125q-1.203125 -1.078125 -3.21875 -1.078125q-3.75 0 -5.796875 2.6875l-1.625 -1.6875q1.203125 -1.640625 3.171875 -2.5q1.96875 -0.859375 4.25 -0.859375q3.09375 0 5.125 1.71875q2.03125 1.703125 2.03125 4.546875q0 2.59375 -2.1875 5.453125q-2.1875 2.859375 -8.171875 7.5625l10.46875 0l0 2.375l-14.65625 0zm26.706665 0.390625q-4.921875 0 -7.515625 -3.4375l1.640625 -1.75q2.203125 2.8125 5.875 2.8125q2.15625 0 3.546875 -1.296875q1.390625 -1.296875 1.390625 -3.28125q0 -2.015625 -1.328125 -3.3125q-1.328125 -1.296875 -3.578125 -1.296875q-2.84375 0 -4.921875 2.015625l-1.953125 -0.671875l0 -11.515625l13.0625 0l0 2.375l-10.40625 0l0 7.421875q0.765625 -0.765625 2.0625 -1.34375q1.296875 -0.578125 2.9375 -0.578125q2.90625 0 4.84375 1.890625q1.9375 1.875 1.9375 4.921875q0 3.171875 -2.09375 5.109375q-2.09375 1.9375 -5.5 1.9375z" fill-rule="nonzero"></path></g></svg>

