<?xml version="1.0" standalone="yes"?>

<svg version="1.1" viewBox="0.0 0.0 960.0 540.0" fill="none" stroke="none" stroke-linecap="square" stroke-miterlimit="10" xmlns="http://www.w3.org/2000/svg" xmlns:xlink="http://www.w3.org/1999/xlink"><clipPath id="g287e6b1221_0_141.0"><path d="m0 0l960.0 0l0 540.0l-960.0 0l0 -540.0z" clip-rule="nonzero"></path></clipPath><g clip-path="url(#g287e6b1221_0_141.0)"><path fill="#ffffff" d="m0 0l960.0 0l0 540.0l-960.0 0z" fill-rule="evenodd"></path><path fill="#3c78d8" d="m198.21954 169.98811l70.48819 0l0 61.76378l-70.48819 0z" fill-rule="evenodd"></path><path stroke="#434343" stroke-width="2.0" stroke-linejoin="round" stroke-linecap="butt" d="m198.21954 169.98811l70.48819 0l0 61.76378l-70.48819 0z" fill-rule="evenodd"></path><path fill="#ffffff" d="m236.47665 209.41l0 -7.578125q0 -1.546875 -0.71875 -2.109375q-0.703125 -0.578125 -1.875 -0.578125q-1.0 0 -1.984375 0.546875q-0.96875 0.53125 -1.453125 1.25l0 8.46875l-1.796875 0l0 -11.59375l1.796875 0l0 1.6875q0.75 -0.875 1.84375 -1.421875q1.09375 -0.546875 2.296875 -0.546875q3.6875 0 3.6875 3.734375l0 8.140625l-1.796875 0z" fill-rule="nonzero"></path><path fill="#3c78d8" d="m251.99738 359.6181l49.417328 -85.66928l49.417328 85.66928z" fill-rule="evenodd"></path><path stroke="#000000" stroke-width="2.0" stroke-linejoin="round" stroke-linecap="butt" d="m251.99738 359.6181l49.417328 -85.66928l49.417328 85.66928z" fill-rule="evenodd"></path><path fill="#ffffff" d="m294.8897 335.74078l0 -16.015625l5.46875 0q3.640625 0 5.921875 2.28125q2.28125 2.265625 2.28125 5.75q0 3.5 -2.296875 5.75q-2.28125 2.234375 -5.90625 2.234375l-5.46875 0zm5.46875 -1.78125q2.734375 0 4.4375 -1.703125q1.703125 -1.71875 1.703125 -4.5q0 -2.796875 -1.6875 -4.515625q-1.671875 -1.734375 -4.453125 -1.734375l-3.484375 0l0 12.453125l3.484375 0z" fill-rule="nonzero"></path><path fill="#3c78d8" d="m126.750656 359.6181l49.417328 -85.66928l49.417313 85.66928z" fill-rule="evenodd"></path><path stroke="#000000" stroke-width="2.0" stroke-linejoin="round" stroke-linecap="butt" d="m126.750656 359.6181l49.417328 -85.66928l49.417313 85.66928z" fill-rule="evenodd"></path><path fill="#ffffff" d="m177.50912 336.02203q-3.53125 0 -5.890625 -2.328125q-2.34375 -2.328125 -2.34375 -5.9375q0 -3.625 2.34375 -5.953125q2.359375 -2.328125 5.890625 -2.328125q3.8125 0 6.078125 3.15625l-1.6875 0.9375q-0.6875 -1.0 -1.859375 -1.65625q-1.15625 -0.671875 -2.53125 -0.671875q-2.65625 0 -4.421875 1.859375q-1.75 1.84375 -1.75 4.65625q0 2.828125 1.734375 4.671875q1.75 1.828125 4.4375 1.828125q1.375 0 2.53125 -0.640625q1.171875 -0.65625 1.859375 -1.6875l1.703125 0.9375q-2.328125 3.15625 -6.09375 3.15625z" fill-rule="nonzero"></path><path fill="#000000" fill-opacity="0.0" d="m176.16798 273.94882l57.291336 -42.204727" fill-rule="evenodd"></path><path stroke="#595959" stroke-width="1.0" stroke-linejoin="round" stroke-linecap="butt" d="m176.16798 273.94882l57.291336 -42.204727" fill-rule="evenodd"></path><path fill="#000000" fill-opacity="0.0" d="m233.46364 231.75189l67.937 42.204712" fill-rule="evenodd"></path><path stroke="#595959" stroke-width="1.0" stroke-linejoin="round" stroke-linecap="butt" d="m233.46364 231.75189l67.937 42.204712" fill-rule="evenodd"></path><path fill="#000000" fill-opacity="0.0" d="m207.43307 122.57481l70.48819 0l0 30.677162l-70.48819 0z" fill-rule="evenodd"></path><path fill="#000000" d="m224.10495 144.83339l-3.296875 -4.125l-1.53125 1.5l0 2.625l-1.421875 0l0 -12.671875l1.421875 0l0 8.375l4.828125 -4.875l1.8125 0l-4.0625 4.15625l4.078125 5.015625l-1.828125 0zm7.1986847 -5.90625l0 4.046875l-1.078125 0l0 -4.046875l-3.65625 0l0 -0.984375l3.65625 0l0 -3.9375l1.078125 0l0 3.9375l3.65625 0l0 0.984375l-3.65625 0zm7.4032135 5.90625l0 -10.578125l-2.03125 2.140625l-0.9375 -0.96875l3.171875 -3.265625l1.375 0l0 12.671875l-1.578125 0z" fill-rule="nonzero"></path><path fill="#000000" fill-opacity="0.0" d="m301.40158 237.50919l70.48819 0l0 30.677155l-70.48819 0z" fill-rule="evenodd"></path><path fill="#000000" d="m318.07346 259.76776l-3.296875 -4.125l-1.53125 1.5l0 2.625l-1.421875 0l0 -12.671875l1.421875 0l0 8.375l4.828125 -4.875l1.8125 0l-4.0625 4.15625l4.078125 5.015625l-1.828125 0zm2.4799194 -3.96875l0 -1.25l4.5625 0l0 1.25l-4.5625 0zm8.409393 3.96875l0 -10.578125l-2.03125 2.140625l-0.9375 -0.96875l3.171875 -3.265625l1.375 0l0 12.671875l-1.578125 0z" fill-rule="nonzero"></path><path fill="#000000" fill-opacity="0.0" d="m140.92389 237.51181l70.48819 0l0 30.677155l-70.48819 0z" fill-rule="evenodd"></path><path fill="#000000" d="m157.59576 259.7704l-3.296875 -4.125l-1.53125 1.5l0 2.625l-1.421875 0l0 -12.671875l1.421875 0l0 8.375l4.828125 -4.875l1.8125 0l-4.0625 4.15625l4.078125 5.015625l-1.828125 0z" fill-rule="nonzero"></path><path fill="#3c78d8" d="m696.1093 137.08653l70.48816 0l0 61.76378l-70.48816 0z" fill-rule="evenodd"></path><path stroke="#434343" stroke-width="2.0" stroke-linejoin="round" stroke-linecap="butt" d="m696.1093 137.08653l70.48816 0l0 61.76378l-70.48816 0z" fill-rule="evenodd"></path><path fill="#ffffff" d="m734.3664 176.50842l0 -7.578125q0 -1.546875 -0.71875 -2.109375q-0.703125 -0.578125 -1.875 -0.578125q-1.0 0 -1.984375 0.546875q-0.96875 0.53125 -1.453125 1.25l0 8.46875l-1.796875 0l0 -11.59375l1.796875 0l0 1.6875q0.75 -0.875 1.84375 -1.421875q1.09375 -0.546875 2.296875 -0.546875q3.6875 0 3.6875 3.734375l0 8.140625l-1.796875 0z" fill-rule="nonzero"></path><path fill="#3c78d8" d="m749.88715 326.71652l49.417297 -85.66928l49.41736 85.66928z" fill-rule="evenodd"></path><path stroke="#000000" stroke-width="2.0" stroke-linejoin="round" stroke-linecap="butt" d="m749.88715 326.71652l49.417297 -85.66928l49.41736 85.66928z" fill-rule="evenodd"></path><path fill="#ffffff" d="m792.7795 302.8392l0 -16.015625l5.46875 0q3.640625 0 5.921875 2.28125q2.28125 2.265625 2.28125 5.75q0 3.5 -2.296875 5.75q-2.28125 2.234375 -5.90625 2.234375l-5.46875 0zm5.46875 -1.78125q2.734375 0 4.4375 -1.703125q1.703125 -1.71875 1.703125 -4.5q0 -2.796875 -1.6875 -4.515625q-1.671875 -1.734375 -4.453125 -1.734375l-3.484375 0l0 12.453125l3.484375 0z" fill-rule="nonzero"></path><path fill="#000000" fill-opacity="0.0" d="m674.0621 241.05504l57.29132 -42.204727" fill-rule="evenodd"></path><path stroke="#595959" stroke-width="1.0" stroke-linejoin="round" stroke-linecap="butt" d="m674.0621 241.05504l57.29132 -42.204727" fill-rule="evenodd"></path><path fill="#000000" fill-opacity="0.0" d="m731.3534 198.85031l67.93701 42.204727" fill-rule="evenodd"></path><path stroke="#595959" stroke-width="1.0" stroke-linejoin="round" stroke-linecap="butt" d="m731.3534 198.85031l67.93701 42.204727" fill-rule="evenodd"></path><path fill="#000000" fill-opacity="0.0" d="m705.3228 89.673225l70.48822 0l0 30.67717l-70.48822 0z" fill-rule="evenodd"></path><path fill="#000000" d="m721.9947 111.93181l-3.296875 -4.125l-1.53125 1.5l0 2.625l-1.421875 0l0 -12.671875l1.421875 0l0 8.375l4.828125 -4.875l1.8125 0l-4.0625 4.15625l4.078125 5.015625l-1.828125 0zm7.1987305 -5.90625l0 4.046875l-1.078125 0l0 -4.046875l-3.65625 0l0 -0.984375l3.65625 0l0 -3.9375l1.078125 0l0 3.9375l3.65625 0l0 0.984375l-3.65625 0zm7.4031982 5.90625l0 -10.578125l-2.03125 2.140625l-0.9375 -0.96875l3.171875 -3.265625l1.375 0l0 12.671875l-1.578125 0z" fill-rule="nonzero"></path><path fill="#000000" fill-opacity="0.0" d="m799.2913 204.6076l70.48822 0l0 30.67717l-70.48822 0z" fill-rule="evenodd"></path><path fill="#000000" d="m815.9632 226.8662l-3.296875 -4.125l-1.53125 1.5l0 2.625l-1.421875 0l0 -12.671875l1.421875 0l0 8.375l4.828125 -4.875l1.8125 0l-4.0625 4.15625l4.078125 5.015625l-1.828125 0zm2.4799805 -3.96875l0 -1.25l4.5625 0l0 1.25l-4.5625 0zm8.409363 3.96875l0 -10.578125l-2.03125 2.140625l-0.9375 -0.96875l3.171875 -3.265625l1.375 0l0 12.671875l-1.578125 0z" fill-rule="nonzero"></path><path fill="#000000" fill-opacity="0.0" d="m638.81366 204.61023l70.48816 0l0 30.67717l-70.48816 0z" fill-rule="evenodd"></path><path fill="#000000" d="m655.48553 226.86882l-3.296875 -4.125l-1.53125 1.5l0 2.625l-1.421875 0l0 -12.671875l1.421875 0l0 8.375l4.828125 -4.875l1.8125 0l-4.0625 4.15625l4.078125 5.015625l-1.828125 0z" fill-rule="nonzero"></path><path fill="#3c78d8" d="m638.81274 241.04979l70.48816 0l0 61.76378l-70.48816 0z" fill-rule="evenodd"></path><path stroke="#434343" stroke-width="2.0" stroke-linejoin="round" stroke-linecap="butt" d="m638.81274 241.04979l70.48816 0l0 61.76378l-70.48816 0z" fill-rule="evenodd"></path><path fill="#ffffff" d="m677.53735 280.47168l-3.484375 -4.75l-3.46875 4.75l-2.078125 0l4.453125 -5.953125l-4.203125 -5.640625l2.078125 0l3.21875 4.421875l3.21875 -4.421875l2.09375 0l-4.203125 5.640625l4.46875 5.953125l-2.09375 0z" fill-rule="nonzero"></path><path fill="#3c78d8" d="m557.3438 435.0l49.41736 -85.66928l49.417297 85.66928z" fill-rule="evenodd"></path><path stroke="#000000" stroke-width="2.0" stroke-linejoin="round" stroke-linecap="butt" d="m557.3438 435.0l49.41736 -85.66928l49.417297 85.66928z" fill-rule="evenodd"></path><path fill="#ffffff" d="m612.16205 411.12268l-1.421875 -3.546875l-7.96875 0l-1.40625 3.546875l-2.28125 0l6.421875 -16.015625l2.484375 0l6.453125 16.015625l-2.28125 0zm-5.40625 -13.9375l-3.40625 8.609375l6.796875 0l-3.390625 -8.609375z" fill-rule="nonzero"></path><path fill="#3c78d8" d="m674.05774 435.0l49.417297 -85.66928l49.41736 85.66928z" fill-rule="evenodd"></path><path stroke="#000000" stroke-width="2.0" stroke-linejoin="round" stroke-linecap="butt" d="m674.05774 435.0l49.417297 -85.66928l49.41736 85.66928z" fill-rule="evenodd"></path><path fill="#ffffff" d="m717.80206 411.12268l0 -16.015625l7.125 0q2.046875 0 3.265625 1.125q1.21875 1.109375 1.21875 2.96875q0 1.40625 -0.78125 2.390625q-0.78125 0.984375 -2.015625 1.28125q1.265625 0.1875 2.1875 1.34375q0.921875 1.140625 0.921875 2.59375q0 1.953125 -1.234375 3.140625q-1.234375 1.171875 -3.390625 1.171875l-7.296875 0zm6.78125 -9.078125q1.375 0 2.0625 -0.71875q0.703125 -0.734375 0.703125 -1.84375q0 -1.078125 -0.703125 -1.828125q-0.6875 -0.765625 -2.0625 -0.765625l-4.796875 0l0 5.15625l4.796875 0zm0.109375 7.296875q1.40625 0 2.1875 -0.71875q0.78125 -0.734375 0.78125 -2.03125q0 -1.234375 -0.8125 -2.0q-0.8125 -0.765625 -2.15625 -0.765625l-4.90625 0l0 5.515625l4.90625 0z" fill-rule="nonzero"></path><path fill="#000000" fill-opacity="0.0" d="m606.76117 349.33072l67.30707 -46.519684" fill-rule="evenodd"></path><path stroke="#595959" stroke-width="1.0" stroke-linejoin="round" stroke-linecap="butt" d="m606.76117 349.33072l67.30707 -46.519684" fill-rule="evenodd"></path><path fill="#000000" fill-opacity="0.0" d="m674.0568 302.81357l49.417297 46.519684" fill-rule="evenodd"></path><path stroke="#595959" stroke-width="1.0" stroke-linejoin="round" stroke-linecap="butt" d="m674.0568 302.81357l49.417297 46.519684" fill-rule="evenodd"></path><path fill="#000000" fill-opacity="0.0" d="m571.5171 310.73227l70.48816 0l0 30.677185l-70.48816 0z" fill-rule="evenodd"></path><path fill="#000000" d="m588.18896 332.99088l-3.296875 -4.125l-1.53125 1.5l0 2.625l-1.421875 0l0 -12.671875l1.421875 0l0 8.375l4.828125 -4.875l1.8125 0l-4.0625 4.15625l4.078125 5.015625l-1.828125 0zm2.4799194 -3.96875l0 -1.25l4.5625 0l0 1.25l-4.5625 0zm8.409363 3.96875l0 -10.578125l-2.03125 2.140625l-0.9375 -0.96875l3.171875 -3.265625l1.375 0l0 12.671875l-1.578125 0z" fill-rule="nonzero"></path><path fill="#000000" fill-opacity="0.0" d="m705.3228 310.73227l70.48822 0l0 30.677185l-70.48822 0z" fill-rule="evenodd"></path><path fill="#000000" d="m721.9947 332.99088l-3.296875 -4.125l-1.53125 1.5l0 2.625l-1.421875 0l0 -12.671875l1.421875 0l0 8.375l4.828125 -4.875l1.8125 0l-4.0625 4.15625l4.078125 5.015625l-1.828125 0zm2.4799805 -3.96875l0 -1.25l4.5625 0l0 1.25l-4.5625 0zm8.409363 3.96875l0 -10.578125l-2.03125 2.140625l-0.9375 -0.96875l3.171875 -3.265625l1.375 0l0 12.671875l-1.578125 0z" fill-rule="nonzero"></path><path fill="#000000" fill-opacity="0.0" d="m169.86684 236.02644c-23.589539 0 -50.005386 -6.984558 -70.627304 4.469818c-5.269066 2.9266815 -2.2531662 11.869873 -2.6824112 17.881882c-1.134613 15.891174 -4.2060394 31.584503 -6.259842 47.38321c-3.9756775 30.582489 -8.296608 61.25348 -8.939636 92.08661c-0.24519348 11.757141 -5.3126297 29.94107 5.36483 34.868774c27.790176 12.825256 61.563904 -3.0497131 91.191605 -10.729675c19.250763 -4.990082 43.904358 -4.1383667 56.325455 -19.669281c7.482437 -9.355804 -1.7088318 -23.927887 -3.577423 -35.76117c-1.880127 -11.9062195 -3.300415 -23.885468 -5.3648376 -35.76114c-2.1970673 -12.638824 0.61383057 -25.84195 -1.7873993 -38.443573c-3.2383118 -16.994629 -21.21289 -27.821838 -34.86876 -38.443573c-6.837555 -5.318344 -11.448013 -14.25 -19.666672 -16.986877" fill-rule="evenodd"></path><path stroke="#595959" stroke-width="3.0" stroke-linejoin="round" stroke-linecap="butt" stroke-dasharray="12.0,9.0" d="m169.86684 236.02644c-23.589539 0 -50.005386 -6.984558 -70.627304 4.469818c-5.269066 2.9266815 -2.2531662 11.869873 -2.6824112 17.881882c-1.134613 15.891174 -4.2060394 31.584503 -6.259842 47.38321c-3.9756775 30.582489 -8.296608 61.25348 -8.939636 92.08661c-0.24519348 11.757141 -5.3126297 29.94107 5.36483 34.868774c27.790176 12.825256 61.563904 -3.0497131 91.191605 -10.729675c19.250763 -4.990082 43.904358 -4.1383667 56.325455 -19.669281c7.482437 -9.355804 -1.7088318 -23.927887 -3.577423 -35.76117c-1.880127 -11.9062195 -3.300415 -23.885468 -5.3648376 -35.76114c-2.1970673 -12.638824 0.61383057 -25.84195 -1.7873993 -38.443573c-3.2383118 -16.994629 -21.21289 -27.821838 -34.86876 -38.443573c-6.837555 -5.318344 -11.448013 -14.25 -19.666672 -16.986877" fill-rule="evenodd"></path><path fill="#000000" fill-opacity="0.0" d="m656.33545 204.60892c-28.607605 12.103989 -69.396545 15.529266 -82.24933 43.80841c-28.895386 63.57666 -60.735107 144.95493 -29.503967 207.41733c20.54773 41.095367 90.89868 19.280457 136.78741 16.986877c14.828491 -0.7411499 29.017273 -6.7584534 43.80841 -8.044617c23.60254 -2.0523682 23.69159 0 47.38318 0c6.5564575 0 14.6085205 4.1683655 19.669312 0c11.167725 -9.198425 29.04248 -23.400696 23.24408 -36.65619c-11.658813 -26.652924 -28.4823 -50.735077 -42.91339 -75.99475c-8.177368 -14.313385 -27.655273 -21.69812 -32.183716 -37.548553c-7.257141 -25.401428 -22.462585 -52.382446 -15.199463 -77.78215c0.9050293 -3.1649017 2.0492554 -8.362518 -0.89501953 -9.8346405c-10.873047 -5.4365387 -26.270203 0.44387817 -35.76117 -7.152237c-4.4451294 -3.5576782 -6.064331 -11.2808075 -11.622009 -12.517059c-7.272827 -1.6177521 -15.28418 2.3581543 -22.351746 0" fill-rule="evenodd"></path><path stroke="#595959" stroke-width="3.0" stroke-linejoin="round" stroke-linecap="butt" stroke-dasharray="12.0,9.0" d="m656.33545 204.60892c-28.607605 12.103989 -69.396545 15.529266 -82.24933 43.80841c-28.895386 63.57666 -60.735107 144.95493 -29.503967 207.41733c20.54773 41.095367 90.89868 19.280457 136.78741 16.986877c14.828491 -0.7411499 29.017273 -6.7584534 43.80841 -8.044617c23.60254 -2.0523682 23.69159 0 47.38318 0c6.5564575 0 14.6085205 4.1683655 19.669312 0c11.167725 -9.198425 29.04248 -23.400696 23.24408 -36.65619c-11.658813 -26.652924 -28.4823 -50.735077 -42.91339 -75.99475c-8.177368 -14.313385 -27.655273 -21.69812 -32.183716 -37.548553c-7.257141 -25.401428 -22.462585 -52.382446 -15.199463 -77.78215c0.9050293 -3.1649017 2.0492554 -8.362518 -0.89501953 -9.8346405c-10.873047 -5.4365387 -26.270203 0.44387817 -35.76117 -7.152237c-4.4451294 -3.5576782 -6.064331 -11.2808075 -11.622009 -12.517059c-7.272827 -1.6177521 -15.28418 2.3581543 -22.351746 0" fill-rule="evenodd"></path><path fill="#eeeeee" d="m404.34384 244.07086l64.86612 0l0 -16.984253l33.968506 33.968506l-33.968506 33.968506l0 -16.984253l-64.86612 0z" fill-rule="evenodd"></path><path stroke="#595959" stroke-width="1.0" stroke-linejoin="round" stroke-linecap="butt" d="m404.34384 244.07086l64.86612 0l0 -16.984253l33.968506 33.968506l-33.968506 33.968506l0 -16.984253l-64.86612 0z" fill-rule="evenodd"></path></g></svg>

