<?xml version="1.0" standalone="yes"?>

<svg version="1.1" viewBox="0.0 0.0 960.0 540.0" fill="none" stroke="none" stroke-linecap="square" stroke-miterlimit="10" xmlns="http://www.w3.org/2000/svg" xmlns:xlink="http://www.w3.org/1999/xlink"><clipPath id="g287e6b1221_0_259.0"><path d="m0 0l960.0 0l0 540.0l-960.0 0l0 -540.0z" clip-rule="nonzero"></path></clipPath><g clip-path="url(#g287e6b1221_0_259.0)"><path fill="#ffffff" d="m0 0l960.0 0l0 540.0l-960.0 0z" fill-rule="evenodd"></path><path fill="#3c78d8" d="m183.54237 94.157394l70.48819 0l0 61.76378l-70.48819 0z" fill-rule="evenodd"></path><path stroke="#434343" stroke-width="2.0" stroke-linejoin="round" stroke-linecap="butt" d="m183.54237 94.157394l70.48819 0l0 61.76378l-70.48819 0z" fill-rule="evenodd"></path><path fill="#ffffff" d="m221.79948 133.57928l0 -7.578125q0 -1.546875 -0.71875 -2.109375q-0.703125 -0.578125 -1.875 -0.578125q-1.0 0 -1.984375 0.546875q-0.96875 0.53125 -1.453125 1.25l0 8.46875l-1.796875 0l0 -11.59375l1.796875 0l0 1.6875q0.75 -0.875 1.84375 -1.421875q1.09375 -0.546875 2.296875 -0.546875q3.6875 0 3.6875 3.734375l0 8.140625l-1.796875 0z" fill-rule="nonzero"></path><path fill="#3c78d8" d="m237.3202 283.7874l49.417313 -85.66931l49.417328 85.66931z" fill-rule="evenodd"></path><path stroke="#000000" stroke-width="2.0" stroke-linejoin="round" stroke-linecap="butt" d="m237.3202 283.7874l49.417313 -85.66931l49.417328 85.66931z" fill-rule="evenodd"></path><path fill="#ffffff" d="m280.21255 259.91006l0 -16.01561l5.46875 0q3.640625 0 5.921875 2.28125q2.28125 2.265625 2.28125 5.75q0 3.5 -2.296875 5.7499847q-2.28125 2.234375 -5.90625 2.234375l-5.46875 0zm5.46875 -1.78125q2.734375 0 4.4375 -1.703125q1.703125 -1.7187347 1.703125 -4.4999847q0 -2.796875 -1.6875 -4.515625q-1.671875 -1.734375 -4.453125 -1.734375l-3.484375 0l0 12.45311l3.484375 0z" fill-rule="nonzero"></path><path fill="#000000" fill-opacity="0.0" d="m161.49513 198.1259l57.291336 -42.204727" fill-rule="evenodd"></path><path stroke="#595959" stroke-width="1.0" stroke-linejoin="round" stroke-linecap="butt" d="m161.49513 198.1259l57.291336 -42.204727" fill-rule="evenodd"></path><path fill="#000000" fill-opacity="0.0" d="m218.78647 155.92117l67.93701 42.204727" fill-rule="evenodd"></path><path stroke="#595959" stroke-width="1.0" stroke-linejoin="round" stroke-linecap="butt" d="m218.78647 155.92117l67.93701 42.204727" fill-rule="evenodd"></path><path fill="#000000" fill-opacity="0.0" d="m286.7244 161.67848l70.48819 0l0 30.677155l-70.48819 0z" fill-rule="evenodd"></path><path fill="#000000" d="m303.39627 183.93706l-3.296875 -4.125l-1.53125 1.5l0 2.625l-1.421875 0l0 -12.671875l1.421875 0l0 8.375l4.828125 -4.875l1.8125 0l-4.0625 4.15625l4.078125 5.015625l-1.828125 0zm2.47995 -3.96875l0 -1.25l4.5625 0l0 1.25l-4.5625 0zm8.409363 3.96875l0 -10.578125l-2.03125 2.140625l-0.9375 -0.96875l3.171875 -3.265625l1.375 0l0 12.671875l-1.578125 0z" fill-rule="nonzero"></path><path fill="#000000" fill-opacity="0.0" d="m126.24672 161.6811l70.48819 0l0 30.677155l-70.48819 0z" fill-rule="evenodd"></path><path fill="#ff0000" d="m142.9186 183.93968l-3.296875 -4.125l-1.53125 1.5l0 2.625l-1.421875 0l0 -12.671875l1.421875 0l0 8.375l4.828125 -4.875l1.8125 0l-4.0625 4.15625l4.078125 5.015625l-1.828125 0z" fill-rule="nonzero"></path><path fill="#000000" d="m157.32121 183.93968l-3.296875 -4.125l-1.53125 1.5l0 2.625l-1.421875 0l0 -12.671875l1.421875 0l0 8.375l4.828125 -4.875l1.8125 0l-4.0625 4.15625l4.078125 5.015625l-1.828125 0zm7.1986847 -5.90625l0 4.046875l-1.078125 0l0 -4.046875l-3.65625 0l0 -0.984375l3.65625 0l0 -3.9375l1.078125 0l0 3.9375l3.65625 0l0 0.984375l-3.65625 0zm7.4032135 5.90625l0 -10.578125l-2.03125 2.140625l-0.9375 -0.96875l3.171875 -3.265625l1.375 0l0 12.671875l-1.578125 0z" fill-rule="nonzero"></path><path fill="#ff0000" d="m135.24672 177.77968l9.58931 0l0 1.1200104l-9.58931 0l0 -1.1200104z" fill-rule="nonzero"></path><path fill="#3c78d8" d="m126.24579 198.12065l70.48819 0l0 61.76378l-70.48819 0z" fill-rule="evenodd"></path><path stroke="#434343" stroke-width="2.0" stroke-linejoin="round" stroke-linecap="butt" d="m126.24579 198.12065l70.48819 0l0 61.76378l-70.48819 0z" fill-rule="evenodd"></path><path fill="#ffffff" d="m164.9704 237.54254l-3.484375 -4.75l-3.46875 4.75l-2.078125 0l4.453125 -5.953125l-4.203125 -5.640625l2.078125 0l3.21875 4.421875l3.21875 -4.421875l2.09375 0l-4.203125 5.640625l4.46875 5.953125l-2.09375 0z" fill-rule="nonzero"></path><path fill="#3c78d8" d="m44.7769 392.07086l49.417328 -85.66928l49.417313 85.66928z" fill-rule="evenodd"></path><path stroke="#000000" stroke-width="2.0" stroke-linejoin="round" stroke-linecap="butt" d="m44.7769 392.07086l49.417328 -85.66928l49.417313 85.66928z" fill-rule="evenodd"></path><path fill="#ffffff" d="m99.59512 368.19354l-1.421875 -3.546875l-7.96875 0l-1.40625 3.546875l-2.28125 0l6.421875 -16.015625l2.484375 0l6.453125 16.015625l-2.28125 0zm-5.40625 -13.9375l-3.40625 8.609375l6.796875 0l-3.390625 -8.609375z" fill-rule="nonzero"></path><path fill="#3c78d8" d="m161.49081 392.07086l49.417328 -85.66928l49.417328 85.66928z" fill-rule="evenodd"></path><path stroke="#000000" stroke-width="2.0" stroke-linejoin="round" stroke-linecap="butt" d="m161.49081 392.07086l49.417328 -85.66928l49.417328 85.66928z" fill-rule="evenodd"></path><path fill="#ffffff" d="m205.23515 368.19354l0 -16.015625l7.125 0q2.046875 0 3.265625 1.125q1.21875 1.109375 1.21875 2.96875q0 1.40625 -0.78125 2.390625q-0.78125 0.984375 -2.015625 1.28125q1.265625 0.1875 2.1875 1.34375q0.921875 1.140625 0.921875 2.59375q0 1.953125 -1.234375 3.140625q-1.234375 1.171875 -3.390625 1.171875l-7.296875 0zm6.78125 -9.078125q1.375 0 2.0625 -0.71875q0.703125 -0.734375 0.703125 -1.84375q0 -1.078125 -0.703125 -1.828125q-0.6875 -0.765625 -2.0625 -0.765625l-4.796875 0l0 5.15625l4.796875 0zm0.109375 7.296875q1.40625 0 2.1875 -0.71875q0.78125 -0.734375 0.78125 -2.03125q0 -1.234375 -0.8125 -2.0q-0.8125 -0.765625 -2.15625 -0.765625l-4.90625 0l0 5.515625l4.90625 0z" fill-rule="nonzero"></path><path fill="#000000" fill-opacity="0.0" d="m94.19423 306.40158l67.30708 -46.519684" fill-rule="evenodd"></path><path stroke="#595959" stroke-width="1.0" stroke-linejoin="round" stroke-linecap="butt" d="m94.19423 306.40158l67.30708 -46.519684" fill-rule="evenodd"></path><path fill="#000000" fill-opacity="0.0" d="m161.48988 259.88443l49.417328 46.519684" fill-rule="evenodd"></path><path stroke="#595959" stroke-width="1.0" stroke-linejoin="round" stroke-linecap="butt" d="m161.48988 259.88443l49.417328 46.519684" fill-rule="evenodd"></path><path fill="#000000" fill-opacity="0.0" d="m58.95013 267.80316l70.48819 0l0 30.677155l-70.48819 0z" fill-rule="evenodd"></path><path fill="#ff9900" d="m75.62201 290.06174l-3.296875 -4.125l-1.53125 1.5l0 2.625l-1.421875 0l0 -12.671875l1.421875 0l0 8.375l4.828125 -4.875l1.8125 0l-4.0625 4.15625l4.078125 5.015625l-1.828125 0zm2.4799347 -3.96875l0 -1.25l4.5625 0l0 1.25l-4.5625 0zm8.409378 3.96875l0 -10.578125l-2.03125 2.140625l-0.9375 -0.96875l3.171875 -3.265625l1.375 0l0 12.671875l-1.578125 0z" fill-rule="nonzero"></path><path fill="#000000" d="m101.94597 290.06174l-3.296875 -4.125l-1.53125 1.5l0 2.625l-1.421875 0l0 -12.671875l1.421875 0l0 8.375l4.828125 -4.875l1.8125 0l-4.0625 4.15625l4.078125 5.015625l-1.828125 0z" fill-rule="nonzero"></path><path fill="#ff9900" d="m67.950134 283.90173l21.51065 0l0 1.1199951l-21.51065 0l0 -1.1199951z" fill-rule="nonzero"></path><path fill="#000000" fill-opacity="0.0" d="m192.7559 267.80316l70.488174 0l0 30.677155l-70.488174 0z" fill-rule="evenodd"></path><path fill="#000000" d="m209.42778 290.06174l-3.296875 -4.125l-1.53125 1.5l0 2.625l-1.421875 0l0 -12.671875l1.421875 0l0 8.375l4.828125 -4.875l1.8125 0l-4.0625 4.15625l4.078125 5.015625l-1.828125 0zm2.4799347 -3.96875l0 -1.25l4.5625 0l0 1.25l-4.5625 0zm8.409378 3.96875l0 -10.578125l-2.03125 2.140625l-0.9375 -0.96875l3.171875 -3.265625l1.375 0l0 12.671875l-1.578125 0z" fill-rule="nonzero"></path><path fill="#3c78d8" d="m741.9256 210.0721l70.48816 0l0 61.76378l-70.48816 0z" fill-rule="evenodd"></path><path stroke="#434343" stroke-width="2.0" stroke-linejoin="round" stroke-linecap="butt" d="m741.9256 210.0721l70.48816 0l0 61.76378l-70.48816 0z" fill-rule="evenodd"></path><path fill="#ffffff" d="m780.1827 249.49399l0 -7.578125q0 -1.546875 -0.71875 -2.109375q-0.703125 -0.578125 -1.875 -0.578125q-1.0 0 -1.984375 0.546875q-0.96875 0.53125 -1.453125 1.25l0 8.46875l-1.796875 0l0 -11.59375l1.796875 0l0 1.6875q0.75 -0.875 1.84375 -1.421875q1.09375 -0.546875 2.296875 -0.546875q3.6875 0 3.6875 3.734375l0 8.140625l-1.796875 0z" fill-rule="nonzero"></path><path fill="#3c78d8" d="m789.0184 418.9567l49.417297 -85.66928l49.41736 85.66928z" fill-rule="evenodd"></path><path stroke="#000000" stroke-width="2.0" stroke-linejoin="round" stroke-linecap="butt" d="m789.0184 418.9567l49.417297 -85.66928l49.41736 85.66928z" fill-rule="evenodd"></path><path fill="#ffffff" d="m831.9107 395.07938l0 -16.015625l5.46875 0q3.640625 0 5.921875 2.28125q2.28125 2.265625 2.28125 5.75q0 3.5 -2.296875 5.75q-2.28125 2.234375 -5.90625 2.234375l-5.46875 0zm5.46875 -1.78125q2.734375 0 4.4375 -1.703125q1.703125 -1.71875 1.703125 -4.5q0 -2.796875 -1.6875 -4.515625q-1.671875 -1.734375 -4.453125 -1.734375l-3.484375 0l0 12.453125l3.484375 0z" fill-rule="nonzero"></path><path fill="#000000" fill-opacity="0.0" d="m680.6946 164.16133l96.47247 45.921265" fill-rule="evenodd"></path><path stroke="#595959" stroke-width="1.0" stroke-linejoin="round" stroke-linecap="butt" d="m680.6946 164.16133l96.47247 45.921265" fill-rule="evenodd"></path><path fill="#000000" fill-opacity="0.0" d="m777.1697 271.83588l61.259827 61.448822" fill-rule="evenodd"></path><path stroke="#595959" stroke-width="1.0" stroke-linejoin="round" stroke-linecap="butt" d="m777.1697 271.83588l61.259827 61.448822" fill-rule="evenodd"></path><path fill="#000000" fill-opacity="0.0" d="m838.4252 283.7874l70.48822 0l0 30.677155l-70.48822 0z" fill-rule="evenodd"></path><path fill="#000000" d="m855.09705 306.046l-3.296875 -4.125l-1.53125 1.5l0 2.625l-1.421875 0l0 -12.671875l1.421875 0l0 8.375l4.828125 -4.875l1.8125 0l-4.0625 4.15625l4.078125 5.015625l-1.828125 0zm2.4799805 -3.96875l0 -1.25l4.5625 0l0 1.25l-4.5625 0zm8.409363 3.96875l0 -10.578125l-2.03125 2.140625l-0.9375 -0.96875l3.171875 -3.265625l1.375 0l0 12.671875l-1.578125 0z" fill-rule="nonzero"></path><path fill="#000000" fill-opacity="0.0" d="m645.4514 59.7769l70.48822 0l0 30.67717l-70.48822 0z" fill-rule="evenodd"></path><path fill="#ff0000" d="m662.1233 82.035484l-3.296875 -4.125l-1.53125 1.5l0 2.625l-1.421875 0l0 -12.671875l1.421875 0l0 8.375l4.828125 -4.875l1.8125 0l-4.0625 4.15625l4.078125 5.015625l-1.828125 0z" fill-rule="nonzero"></path><path fill="#000000" d="m676.52594 82.035484l-3.296875 -4.125l-1.53125 1.5l0 2.625l-1.421875 0l0 -12.671875l1.421875 0l0 8.375l4.828125 -4.875l1.8125 0l-4.0625 4.15625l4.078125 5.015625l-1.828125 0zm7.1986694 -5.90625l0 4.046875l-1.078125 0l0 -4.046875l-3.65625 0l0 -0.984375l3.65625 0l0 -3.9375l1.078125 0l0 3.9375l3.65625 0l0 0.984375l-3.65625 0zm7.4031982 5.90625l0 -10.578125l-2.03125 2.140625l-0.9375 -0.96875l3.171875 -3.265625l1.375 0l0 12.671875l-1.578125 0z" fill-rule="nonzero"></path><path fill="#ff0000" d="m654.4514 75.87548l9.589355 0l0 1.1200027l-9.589355 0l0 -1.1200027z" fill-rule="nonzero"></path><path fill="#3c78d8" d="m645.4505 102.39755l70.48822 0l0 61.76378l-70.48822 0z" fill-rule="evenodd"></path><path stroke="#434343" stroke-width="2.0" stroke-linejoin="round" stroke-linecap="butt" d="m645.4505 102.39755l70.48822 0l0 61.76378l-70.48822 0z" fill-rule="evenodd"></path><path fill="#ffffff" d="m684.1751 141.81944l-3.484375 -4.75l-3.46875 4.75l-2.078125 0l4.453125 -5.953125l-4.203125 -5.640625l2.078125 0l3.21875 4.421875l3.21875 -4.421875l2.09375 0l-4.203125 5.640625l4.46875 5.953125l-2.09375 0z" fill-rule="nonzero"></path><path fill="#3c78d8" d="m519.4803 283.7861l49.41736 -85.66931l49.417297 85.66931z" fill-rule="evenodd"></path><path stroke="#000000" stroke-width="2.0" stroke-linejoin="round" stroke-linecap="butt" d="m519.4803 283.7861l49.41736 -85.66931l49.417297 85.66931z" fill-rule="evenodd"></path><path fill="#ffffff" d="m574.2985 259.90875l-1.421875 -3.546875l-7.96875 0l-1.40625 3.546875l-2.28125 0l6.421875 -16.01561l2.484375 0l6.453125 16.01561l-2.28125 0zm-5.40625 -13.937485l-3.40625 8.609375l6.796875 0l-3.390625 -8.609375z" fill-rule="nonzero"></path><path fill="#3c78d8" d="m654.2493 418.9567l49.41736 -85.66928l49.417297 85.66928z" fill-rule="evenodd"></path><path stroke="#000000" stroke-width="2.0" stroke-linejoin="round" stroke-linecap="butt" d="m654.2493 418.9567l49.41736 -85.66928l49.417297 85.66928z" fill-rule="evenodd"></path><path fill="#ffffff" d="m697.9937 395.07938l0 -16.015625l7.125 0q2.046875 0 3.265625 1.125q1.21875 1.109375 1.21875 2.96875q0 1.40625 -0.78125 2.390625q-0.78125 0.984375 -2.015625 1.28125q1.265625 0.1875 2.1875 1.34375q0.921875 1.140625 0.921875 2.59375q0 1.953125 -1.234375 3.140625q-1.234375 1.171875 -3.390625 1.171875l-7.296875 0zm6.78125 -9.078125q1.375 0 2.0625 -0.71875q0.703125 -0.734375 0.703125 -1.84375q0 -1.078125 -0.703125 -1.828125q-0.6875 -0.765625 -2.0625 -0.765625l-4.796875 0l0 5.15625l4.796875 0zm0.109375 7.296875q1.40625 0 2.1875 -0.71875q0.78125 -0.734375 0.78125 -2.03125q0 -1.234375 -0.8125 -2.0q-0.8125 -0.765625 -2.15625 -0.765625l-4.90625 0l0 5.515625l4.90625 0z" fill-rule="nonzero"></path><path fill="#000000" fill-opacity="0.0" d="m568.89764 198.11679l111.811035 -33.952744" fill-rule="evenodd"></path><path stroke="#595959" stroke-width="1.0" stroke-linejoin="round" stroke-linecap="butt" d="m568.89764 198.11679l111.811035 -33.952744" fill-rule="evenodd"></path><path fill="#000000" fill-opacity="0.0" d="m777.1697 271.83588l-73.51184 61.448822" fill-rule="evenodd"></path><path stroke="#595959" stroke-width="1.0" stroke-linejoin="round" stroke-linecap="butt" d="m777.1697 271.83588l-73.51184 61.448822" fill-rule="evenodd"></path><path fill="#000000" fill-opacity="0.0" d="m533.65356 294.68896l70.48816 0l0 30.677185l-70.48816 0z" fill-rule="evenodd"></path><path fill="#ff9900" d="m550.32544 316.94757l-3.296875 -4.125l-1.53125 1.5l0 2.625l-1.421875 0l0 -12.671875l1.421875 0l0 8.375l4.828125 -4.875l1.8125 0l-4.0625 4.15625l4.078125 5.015625l-1.828125 0zm2.4799194 -3.96875l0 -1.25l4.5625 0l0 1.25l-4.5625 0zm8.409363 3.96875l0 -10.578125l-2.03125 2.140625l-0.9375 -0.96875l3.171875 -3.265625l1.375 0l0 12.671875l-1.578125 0z" fill-rule="nonzero"></path><path fill="#000000" d="m576.64935 316.94757l-3.296875 -4.125l-1.53125 1.5l0 2.625l-1.421875 0l0 -12.671875l1.421875 0l0 8.375l4.828125 -4.875l1.8125 0l-4.0625 4.15625l4.078125 5.015625l-1.828125 0z" fill-rule="nonzero"></path><path fill="#ff9900" d="m542.65356 310.78757l21.51062 0l0 1.1199951l-21.51062 0l0 -1.1199951z" fill-rule="nonzero"></path><path fill="#000000" fill-opacity="0.0" d="m671.4383 283.7861l70.48822 0l0 30.677155l-70.48822 0z" fill-rule="evenodd"></path><path fill="#000000" d="m688.11017 306.04468l-3.296875 -4.125l-1.53125 1.5l0 2.625l-1.421875 0l0 -12.671875l1.421875 0l0 8.375l4.828125 -4.875l1.8125 0l-4.0625 4.15625l4.078125 5.015625l-1.828125 0zm2.4799805 -3.96875l0 -1.25l4.5625 0l0 1.25l-4.5625 0zm8.409363 3.96875l0 -10.578125l-2.03125 2.140625l-0.9375 -0.96875l3.171875 -3.265625l1.375 0l0 12.671875l-1.578125 0z" fill-rule="nonzero"></path><path fill="#000000" fill-opacity="0.0" d="m772.55646 171.78084l70.48816 0l0 30.67717l-70.48816 0z" fill-rule="evenodd"></path><path fill="#000000" d="m789.22833 194.03941l-3.296875 -4.125l-1.53125 1.5l0 2.625l-1.421875 0l0 -12.671875l1.421875 0l0 8.375l4.828125 -4.875l1.8125 0l-4.0625 4.15625l4.078125 5.015625l-1.828125 0z" fill-rule="nonzero"></path><path fill="#000000" d="m390.59088 189.94913l0 0l0 0c11.521881 -23.652573 40.03366 -33.480804 63.68283 -21.95198l6.645691 3.2397156l2.9803162 -6.118103l6.273834 18.20044l-18.195099 6.272003l2.9803162 -6.1181183l-6.645691 -3.2397156l0 0c-16.892273 -8.234879 -37.257812 -1.2147064 -45.487732 15.679977l0 0z" fill-rule="evenodd"></path><path stroke="#000000" stroke-width="1.0" stroke-linejoin="round" stroke-linecap="butt" d="m390.59088 189.94913l0 0l0 0c11.521881 -23.652573 40.03366 -33.480804 63.68283 -21.95198l6.645691 3.2397156l2.9803162 -6.118103l6.273834 18.20044l-18.195099 6.272003l2.9803162 -6.1181183l-6.645691 -3.2397156l0 0c-16.892273 -8.234879 -37.257812 -1.2147064 -45.487732 15.679977l0 0z" fill-rule="evenodd"></path><path fill="#000000" fill-opacity="0.0" d="m338.81946 91.06723l166.92911 -18.425194l11.055145 100.125984l-166.92914 18.425201z" fill-rule="evenodd"></path><path fill="#000000" d="m386.73267 143.41383l-3.7514648 -4.6477356l-2.5159607 0.27770996l0.55215454 5.0008545l-1.5686035 0.17314148l-1.390686 -12.595337l5.063019 -0.5588379q1.7704773 -0.19541931 2.9742432 0.7406616q1.2037354 0.9360962 1.3889465 2.6134033q0.17489624 1.5841217 -0.6333618 2.663681q-0.8082886 1.0795746 -2.2233887 1.3615265l3.9532776 4.7669373l-1.848175 0.20399475zm-3.1119995 -6.117386q1.133728 -0.12513733 1.7433472 -0.8683777q0.60961914 -0.74324036 0.489563 -1.8303833q-0.11831665 -1.0716248 -0.87368774 -1.6484833q-0.7570801 -0.59239197 -1.8908081 -0.46723938l-3.3080444 0.36512756l0.5315857 4.8144836l3.3080444 -0.36512756zm11.057648 5.476166q-1.9879456 0.21942139 -3.4106445 -0.9911804q-1.4071655 -1.2123108 -1.6386414 -3.3089447q-0.23321533 -2.1121674 0.8772888 -3.5866547q1.1260376 -1.4761963 3.1139832 -1.6956177q1.9723816 -0.2177124 3.3778381 0.9790802q1.42099 1.1950531 1.6542053 3.3072205q0.23147583 2.096634 -0.8928528 3.5883636q-1.1087952 1.4900208 -3.0811768 1.7077332zm-0.140625 -1.2735138q1.3200989 -0.14570618 2.0490112 -1.2322388q0.7444458 -1.0882416 0.57470703 -2.6257782q-0.16976929 -1.5375214 -1.1319885 -2.4216766q-0.9483948 -0.90138245 -2.2685242 -0.75567627q-1.3200989 0.14570618 -2.081787 1.2201385q-0.7461548 1.0727081 -0.5746765 2.625763q0.17318726 1.5686035 1.119873 2.4544678q0.96221924 0.88414 2.313385 0.7350006zm9.070251 0.28788757q-2.0345154 0.2245636 -2.2711487 -1.9186707l-0.6584778 -5.9637604l-1.5064697 0.16629028l-0.13717651 -1.2424469l1.5064697 -0.16629028l-0.27609253 -2.5004272l1.428833 -0.15771484l0.27609253 2.5004272l1.8481445 -0.20397949l0.13717651 1.2424469l-1.8481445 0.20399475l0.625885 5.6686707q0.05657959 0.5125122 0.31002808 0.8146515q0.26898193 0.3004303 0.7348938 0.24900818q0.5901489 -0.06513977 0.9217529 -0.47901917l0.5359192 1.0097961q-0.5249939 0.65530396 -1.6276855 0.7770233zm8.811798 -1.208435l-0.11489868 -1.0405426q-1.0086365 1.4003601 -2.8723145 1.6060638q-1.3822327 0.15257263 -2.3945923 -0.6159973q-0.99679565 -0.7702942 -1.1391296 -2.0593414q-0.14575195 -1.3200989 0.66244507 -2.2581787q0.8081665 -0.93807983 2.2059326 -1.0923615q1.9568787 -0.21598816 3.1501465 0.90989685l-0.18179321 -1.6462555q-0.10116577 -0.91630554 -0.8083191 -1.3412781q-0.69332886 -0.44223022 -1.7028503 -0.33081055q-1.5996399 0.1765747 -2.6549072 1.582077l-0.7620239 -0.92196655q1.2780151 -1.6658936 3.4678345 -1.9075928q1.6773376 -0.18513489 2.7000427 0.53512573q1.0210266 0.70474243 1.180481 2.1490936l0.69277954 6.2743683l-1.428833 0.15769958zm-2.5878906 -0.5160675q1.6773071 -0.18513489 2.3752747 -1.409729l-0.19033813 -1.7238922q-0.9483032 -1.0428772 -2.6256409 -0.8577423q-1.009491 0.11141968 -1.5689697 0.73908997q-0.5595093 0.6276703 -0.46176147 1.5129242q0.09603882 0.86972046 0.7789917 1.3602448q0.6829529 0.49053955 1.6924438 0.3791046zm9.000427 0.044067383q-2.0345154 0.22457886 -2.2711487 -1.9186554l-0.6584778 -5.9637604l-1.5064697 0.16629028l-0.13717651 -1.2424622l1.5064697 -0.16627502l-0.27609253 -2.5004272l1.428833 -0.15771484l0.276062 2.5004272l1.848175 -0.20399475l0.13717651 1.2424622l-1.8481445 0.20399475l0.625885 5.6686707q0.05657959 0.5125122 0.31002808 0.8146515q0.26895142 0.3004303 0.7348938 0.24900818q0.5901489 -0.06513977 0.9217224 -0.47901917l0.5359497 1.0097961q-0.5249939 0.65530396 -1.6276855 0.77700806zm7.2533875 -0.80059814q-2.0500488 0.22627258 -3.5021057 -0.96536255q-1.4382324 -1.2088776 -1.6714172 -3.321045q-0.22293091 -2.018982 0.9135132 -3.5434875q1.1364136 -1.5245056 3.0622253 -1.7370758q1.9568481 -0.21598816 3.3191528 1.0169983q1.3605652 1.217453 1.600647 3.391739l0.03942871 0.357193l-7.392578 0.815979q0.23196411 1.3891907 1.2615356 2.171585q1.0278931 0.76686096 2.3790588 0.61772156q1.6617737 -0.1834259 2.684143 -1.459549l0.7862549 0.8564148q-1.2434387 1.5520325 -3.4798584 1.7988892zm2.2488098 -5.6873016q-0.13891602 -1.2579803 -1.0752869 -2.0506592q-0.9226074 -0.80992126 -2.2737732 -0.66078186q-1.2579651 0.13885498 -1.9971619 1.1322021q-0.7409363 0.9778137 -0.6486206 2.2409363l5.9948425 -0.6616974zm8.834137 4.228195l-1.0065613 -9.116486l1.4132996 -0.1559906l0.16290283 1.4754181q1.0900269 -1.8023529 2.8605347 -1.9977722l0.15948486 1.4443512l-0.565979 -4.119873E-4q-0.6522827 0.07199097 -1.3773804 0.6236267q-0.7095642 0.5499115 -0.9463501 1.1105194l0.7133484 6.460739l-1.4132996 0.15600586zm5.667694 -11.173637q-0.3727417 0.041145325 -0.69696045 -0.19030762q-0.3104248 -0.24869537 -0.355011 -0.6524887q-0.04458618 -0.40380096 0.20410156 -0.7142029q0.2642212 -0.31212616 0.6369629 -0.35326385q0.40377808 -0.044570923 0.7142029 0.20412445q0.3104248 0.24869537 0.355011 0.6524887q0.04458618 0.40379333 -0.20410156 0.7142029q-0.25039673 0.2948761 -0.6542053 0.33944702zm0.4517212 10.498192l-1.0065613 -9.11647l1.4132996 -0.15600586l1.0065613 9.11647l-1.4132996 0.15600586zm8.245697 2.831192q-1.1648254 0.12857056 -2.0498657 -0.05670166q-0.8850403 -0.18525696 -1.7800903 -0.8881836l0.59780884 -1.1349335q0.64834595 0.6043854 1.3781128 0.8067932q0.74697876 0.2162323 1.7254028 0.10823059q1.3977661 -0.15428162 2.078186 -0.96821594q0.69592285 -0.81565857 0.55532837 -2.089157l-0.14404297 -1.3045807q-0.41983032 0.7537384 -1.1759644 1.3087921q-0.7423401 0.5378113 -1.7052307 0.644104q-1.8637085 0.20570374 -3.1104126 -0.9771576q-1.2467346 -1.1828613 -1.4799194 -3.2950287q-0.24179077 -2.1898193 0.7358093 -3.5867462q0.99313354 -1.3986511 2.8102112 -1.5992203q1.8792114 -0.20742035 3.2361755 1.2619553l-0.15090942 -1.3666992l1.4132996 -0.15599823l0.977417 8.852455q0.21261597 1.9257965 -0.80966187 3.0604248q-1.0205688 1.1501617 -3.101654 1.3798676zm-0.3314209 -4.85231q0.7765503 -0.08570862 1.492981 -0.5735016q0.7302246 -0.5050354 1.0758057 -1.2191315l-0.44067383 -3.9913788q-0.49136353 -0.6060028 -1.3124695 -0.9240875q-0.8211365 -0.31808472 -1.5821228 -0.23408508q-1.3356323 0.14743042 -2.0213928 1.1977539q-0.6857605 1.0503235 -0.5159912 2.58786q0.17318726 1.5685883 1.0870972 2.442337q0.9277344 0.8565216 2.2167664 0.7142334zm13.083313 -0.2965393l-0.66360474 -6.0103607q-0.11148071 -1.0094833 -0.6512146 -1.4843826q-0.5397644 -0.4748993 -1.6424255 -0.35318756q-0.7765503 0.08570862 -1.4619141 0.570076q-0.6715393 0.46712494 -1.0843811 1.1414871l0.7356262 6.662628l-1.4132996 0.15600586l-1.390686 -12.595337l1.4132996 -0.15599823l0.5298767 4.7989655q0.52853394 -0.7657318 1.3519592 -1.2810593q0.8216858 -0.5308533 1.75354 -0.63370514q2.9042358 -0.32056427 3.224884 2.5836563l0.7116394 6.4452057l-1.4132996 0.15600586zm6.3946533 -0.47003174q-2.0345154 0.2245636 -2.2711487 -1.9186554l-0.6584778 -5.9637604l-1.5064697 0.16627502l-0.13717651 -1.2424469l1.5064697 -0.16628265l-0.276062 -2.5004272l1.4288025 -0.15770721l0.27609253 2.5004272l1.8481445 -0.20399475l0.13717651 1.2424469l-1.8481445 0.20399475l0.625885 5.668686q0.05657959 0.51249695 0.31002808 0.8146515q0.26898193 0.3004303 0.7348938 0.24899292q0.59017944 -0.06513977 0.9217529 -0.47901917l0.5359192 1.0098114q-0.5249939 0.65530396 -1.6276855 0.77700806z" fill-rule="nonzero"></path></g></svg>

