<?xml version="1.0" standalone="yes"?>

<svg version="1.1" viewBox="0.0 0.0 960.0 540.0" fill="none" stroke="none" stroke-linecap="square" stroke-miterlimit="10" xmlns="http://www.w3.org/2000/svg" xmlns:xlink="http://www.w3.org/1999/xlink"><clipPath id="g287e6b1221_0_212.0"><path d="m0 0l960.0 0l0 540.0l-960.0 0l0 -540.0z" clip-rule="nonzero"></path></clipPath><g clip-path="url(#g287e6b1221_0_212.0)"><path fill="#ffffff" d="m0 0l960.0 0l0 540.0l-960.0 0z" fill-rule="evenodd"></path><path fill="#3c78d8" d="m209.75497 94.157394l70.48819 0l0 61.76378l-70.48819 0z" fill-rule="evenodd"></path><path stroke="#434343" stroke-width="2.0" stroke-linejoin="round" stroke-linecap="butt" d="m209.75497 94.157394l70.48819 0l0 61.76378l-70.48819 0z" fill-rule="evenodd"></path><path fill="#ffffff" d="m248.01208 133.57928l0 -7.578125q0 -1.546875 -0.71875 -2.109375q-0.703125 -0.578125 -1.875 -0.578125q-1.0 0 -1.984375 0.546875q-0.96875 0.53125 -1.453125 1.25l0 8.46875l-1.796875 0l0 -11.59375l1.796875 0l0 1.6875q0.75 -0.875 1.84375 -1.421875q1.09375 -0.546875 2.296875 -0.546875q3.6875 0 3.6875 3.734375l0 8.140625l-1.796875 0z" fill-rule="nonzero"></path><path fill="#3c78d8" d="m263.5328 283.7874l49.417328 -85.66931l49.417328 85.66931z" fill-rule="evenodd"></path><path stroke="#000000" stroke-width="2.0" stroke-linejoin="round" stroke-linecap="butt" d="m263.5328 283.7874l49.417328 -85.66931l49.417328 85.66931z" fill-rule="evenodd"></path><path fill="#ffffff" d="m306.42514 259.91006l0 -16.01561l5.46875 0q3.640625 0 5.921875 2.28125q2.28125 2.265625 2.28125 5.75q0 3.5 -2.296875 5.7499847q-2.28125 2.234375 -5.90625 2.234375l-5.46875 0zm5.46875 -1.78125q2.734375 0 4.4375 -1.703125q1.703125 -1.7187347 1.703125 -4.4999847q0 -2.796875 -1.6875 -4.515625q-1.671875 -1.734375 -4.453125 -1.734375l-3.484375 0l0 12.45311l3.484375 0z" fill-rule="nonzero"></path><path fill="#000000" fill-opacity="0.0" d="m187.70773 198.1259l57.291336 -42.204727" fill-rule="evenodd"></path><path stroke="#595959" stroke-width="1.0" stroke-linejoin="round" stroke-linecap="butt" d="m187.70773 198.1259l57.291336 -42.204727" fill-rule="evenodd"></path><path fill="#000000" fill-opacity="0.0" d="m244.99907 155.92117l67.937 42.204727" fill-rule="evenodd"></path><path stroke="#595959" stroke-width="1.0" stroke-linejoin="round" stroke-linecap="butt" d="m244.99907 155.92117l67.937 42.204727" fill-rule="evenodd"></path><path fill="#000000" fill-opacity="0.0" d="m312.937 161.67848l70.48819 0l0 30.677155l-70.48819 0z" fill-rule="evenodd"></path><path fill="#000000" d="m329.6089 183.93706l-3.296875 -4.125l-1.53125 1.5l0 2.625l-1.421875 0l0 -12.671875l1.421875 0l0 8.375l4.828125 -4.875l1.8125 0l-4.0625 4.15625l4.078125 5.015625l-1.828125 0zm2.4799194 -3.96875l0 -1.25l4.5625 0l0 1.25l-4.5625 0zm8.409393 3.96875l0 -10.578125l-2.03125 2.140625l-0.9375 -0.96875l3.171875 -3.265625l1.375 0l0 12.671875l-1.578125 0z" fill-rule="nonzero"></path><path fill="#000000" fill-opacity="0.0" d="m152.45932 161.6811l70.48819 0l0 30.677155l-70.48819 0z" fill-rule="evenodd"></path><path fill="#ff0000" d="m169.1312 183.93968l-3.296875 -4.125l-1.53125 1.5l0 2.625l-1.421875 0l0 -12.671875l1.421875 0l0 8.375l4.828125 -4.875l1.8125 0l-4.0625 4.15625l4.078125 5.015625l-1.828125 0z" fill-rule="nonzero"></path><path fill="#000000" d="m183.53381 183.93968l-3.296875 -4.125l-1.53125 1.5l0 2.625l-1.421875 0l0 -12.671875l1.421875 0l0 8.375l4.828125 -4.875l1.8125 0l-4.0625 4.15625l4.078125 5.015625l-1.828125 0zm7.1986847 -5.90625l0 4.046875l-1.078125 0l0 -4.046875l-3.65625 0l0 -0.984375l3.65625 0l0 -3.9375l1.078125 0l0 3.9375l3.65625 0l0 0.984375l-3.65625 0zm7.4032135 5.90625l0 -10.578125l-2.03125 2.140625l-0.9375 -0.96875l3.171875 -3.265625l1.375 0l0 12.671875l-1.578125 0z" fill-rule="nonzero"></path><path fill="#ff0000" d="m161.45932 177.77968l9.58931 0l0 1.1200104l-9.58931 0l0 -1.1200104z" fill-rule="nonzero"></path><path fill="#3c78d8" d="m152.45839 198.12065l70.48819 0l0 61.76378l-70.48819 0z" fill-rule="evenodd"></path><path stroke="#434343" stroke-width="2.0" stroke-linejoin="round" stroke-linecap="butt" d="m152.45839 198.12065l70.48819 0l0 61.76378l-70.48819 0z" fill-rule="evenodd"></path><path fill="#ffffff" d="m191.183 237.54254l-3.484375 -4.75l-3.46875 4.75l-2.078125 0l4.453125 -5.953125l-4.203125 -5.640625l2.078125 0l3.21875 4.421875l3.21875 -4.421875l2.09375 0l-4.203125 5.640625l4.46875 5.953125l-2.09375 0z" fill-rule="nonzero"></path><path fill="#3c78d8" d="m70.9895 392.07086l49.41732 -85.66928l49.41732 85.66928z" fill-rule="evenodd"></path><path stroke="#000000" stroke-width="2.0" stroke-linejoin="round" stroke-linecap="butt" d="m70.9895 392.07086l49.41732 -85.66928l49.41732 85.66928z" fill-rule="evenodd"></path><path fill="#ffffff" d="m125.807724 368.19354l-1.421875 -3.546875l-7.96875 0l-1.40625 3.546875l-2.28125 0l6.421875 -16.015625l2.484375 0l6.453125 16.015625l-2.28125 0zm-5.40625 -13.9375l-3.40625 8.609375l6.796875 0l-3.390625 -8.609375z" fill-rule="nonzero"></path><path fill="#3c78d8" d="m187.70341 392.07086l49.417313 -85.66928l49.417328 85.66928z" fill-rule="evenodd"></path><path stroke="#000000" stroke-width="2.0" stroke-linejoin="round" stroke-linecap="butt" d="m187.70341 392.07086l49.417313 -85.66928l49.417328 85.66928z" fill-rule="evenodd"></path><path fill="#ffffff" d="m231.44775 368.19354l0 -16.015625l7.125 0q2.046875 0 3.265625 1.125q1.21875 1.109375 1.21875 2.96875q0 1.40625 -0.78125 2.390625q-0.78125 0.984375 -2.015625 1.28125q1.265625 0.1875 2.1875 1.34375q0.921875 1.140625 0.921875 2.59375q0 1.953125 -1.234375 3.140625q-1.234375 1.171875 -3.390625 1.171875l-7.296875 0zm6.78125 -9.078125q1.375 0 2.0625 -0.71875q0.703125 -0.734375 0.703125 -1.84375q0 -1.078125 -0.703125 -1.828125q-0.6875 -0.765625 -2.0625 -0.765625l-4.796875 0l0 5.15625l4.796875 0zm0.109375 7.296875q1.40625 0 2.1875 -0.71875q0.78125 -0.734375 0.78125 -2.03125q0 -1.234375 -0.8125 -2.0q-0.8125 -0.765625 -2.15625 -0.765625l-4.90625 0l0 5.515625l4.90625 0z" fill-rule="nonzero"></path><path fill="#000000" fill-opacity="0.0" d="m120.40682 306.40158l67.30709 -46.519684" fill-rule="evenodd"></path><path stroke="#595959" stroke-width="1.0" stroke-linejoin="round" stroke-linecap="butt" d="m120.40682 306.40158l67.30709 -46.519684" fill-rule="evenodd"></path><path fill="#000000" fill-opacity="0.0" d="m187.70248 259.88443l49.417328 46.519684" fill-rule="evenodd"></path><path stroke="#595959" stroke-width="1.0" stroke-linejoin="round" stroke-linecap="butt" d="m187.70248 259.88443l49.417328 46.519684" fill-rule="evenodd"></path><path fill="#000000" fill-opacity="0.0" d="m85.16273 267.80316l70.4882 0l0 30.677155l-70.4882 0z" fill-rule="evenodd"></path><path fill="#ff9900" d="m101.8346 290.06174l-3.296875 -4.125l-1.53125 1.5l0 2.625l-1.421875 0l0 -12.671875l1.421875 0l0 8.375l4.828125 -4.875l1.8125 0l-4.0625 4.15625l4.078125 5.015625l-1.828125 0zm2.4799347 -3.96875l0 -1.25l4.5625 0l0 1.25l-4.5625 0zm8.409378 3.96875l0 -10.578125l-2.03125 2.140625l-0.9375 -0.96875l3.171875 -3.265625l1.375 0l0 12.671875l-1.578125 0z" fill-rule="nonzero"></path><path fill="#000000" d="m128.15857 290.06174l-3.2968826 -4.125l-1.53125 1.5l0 2.625l-1.421875 0l0 -12.671875l1.421875 0l0 8.375l4.8281326 -4.875l1.8125 0l-4.0625076 4.15625l4.0781326 5.015625l-1.828125 0z" fill-rule="nonzero"></path><path fill="#ff9900" d="m94.16273 283.90173l21.51065 0l0 1.1199951l-21.51065 0l0 -1.1199951z" fill-rule="nonzero"></path><path fill="#000000" fill-opacity="0.0" d="m218.9685 267.80316l70.48819 0l0 30.677155l-70.48819 0z" fill-rule="evenodd"></path><path fill="#000000" d="m235.64038 290.06174l-3.296875 -4.125l-1.53125 1.5l0 2.625l-1.421875 0l0 -12.671875l1.421875 0l0 8.375l4.828125 -4.875l1.8125 0l-4.0625 4.15625l4.078125 5.015625l-1.828125 0zm2.4799347 -3.96875l0 -1.25l4.5625 0l0 1.25l-4.5625 0zm8.409378 3.96875l0 -10.578125l-2.03125 2.140625l-0.9375 -0.96875l3.171875 -3.265625l1.375 0l0 12.671875l-1.578125 0z" fill-rule="nonzero"></path><path fill="#000000" fill-opacity="0.0" d="m86.438354 434.7663l67.93701 0l0 61.763794l-67.93701 0z" fill-rule="evenodd"></path><path stroke="#434343" stroke-width="2.0" stroke-linejoin="round" stroke-linecap="butt" stroke-dasharray="2.0,6.0" d="m86.438354 434.7663l67.93701 0l0 61.763794l-67.93701 0z" fill-rule="evenodd"></path><path fill="#000000" d="m117.10063 471.04758q0.515625 0.765625 1.46875 1.296875q0.96875 0.53125 2.109375 0.53125q1.75 0 2.6875 -0.84375q0.9375 -0.84375 0.9375 -2.265625q0 -1.40625 -1.03125 -2.1875q-1.03125 -0.78125 -2.734375 -0.78125l-0.84375 0l0 -1.609375l0.796875 0q1.578125 0 2.5 -0.734375q0.9375 -0.734375 0.9375 -2.078125q0 -1.265625 -0.890625 -2.046875q-0.875 -0.78125 -2.265625 -0.78125q-1.65625 0 -2.671875 1.03125q-1.0 1.015625 -1.0 2.6875l0 7.78125zm0 7.5625l-1.796875 0l0 -15.34375q0 -2.46875 1.546875 -3.890625q1.546875 -1.4375 3.921875 -1.4375q2.265625 0 3.65625 1.171875q1.390625 1.15625 1.390625 3.109375q0 1.4375 -0.96875 2.453125q-0.953125 1.015625 -2.375 1.265625q1.546875 0.140625 2.625 1.296875q1.078125 1.140625 1.078125 2.796875q0 1.90625 -1.390625 3.171875q-1.390625 1.265625 -3.578125 1.265625q-2.640625 0 -4.109375 -2.015625l0 6.15625z" fill-rule="nonzero"></path><path fill="#000000" fill-opacity="0.0" d="m120.40686 392.07077l0 42.204712" fill-rule="evenodd"></path><path stroke="#595959" stroke-width="1.0" stroke-linejoin="round" stroke-linecap="butt" d="m120.40686 392.07077l0 42.204712" fill-rule="evenodd"></path><path fill="#3c78d8" d="m636.1198 105.663956l70.48816 0l0 61.76378l-70.48816 0z" fill-rule="evenodd"></path><path stroke="#434343" stroke-width="2.0" stroke-linejoin="round" stroke-linecap="butt" d="m636.1198 105.663956l70.48816 0l0 61.76378l-70.48816 0z" fill-rule="evenodd"></path><path fill="#ffffff" d="m674.3769 145.08585l0 -7.578125q0 -1.546875 -0.71875 -2.109375q-0.703125 -0.578125 -1.875 -0.578125q-1.0 0 -1.984375 0.546875q-0.96875 0.53125 -1.453125 1.25l0 8.46875l-1.796875 0l0 -11.59375l1.796875 0l0 1.6875q0.75 -0.875 1.84375 -1.421875q1.09375 -0.546875 2.296875 -0.546875q3.6875 0 3.6875 3.734375l0 8.140625l-1.796875 0z" fill-rule="nonzero"></path><path fill="#3c78d8" d="m689.89764 295.29398l49.417297 -85.66931l49.41736 85.66931z" fill-rule="evenodd"></path><path stroke="#000000" stroke-width="2.0" stroke-linejoin="round" stroke-linecap="butt" d="m689.89764 295.29398l49.417297 -85.66931l49.41736 85.66931z" fill-rule="evenodd"></path><path fill="#ffffff" d="m732.79 271.41663l0 -16.01561l5.46875 0q3.640625 0 5.921875 2.2812347q2.28125 2.265625 2.28125 5.75q0 3.5 -2.296875 5.75q-2.28125 2.234375 -5.90625 2.234375l-5.46875 0zm5.46875 -1.78125q2.734375 0 4.4375 -1.703125q1.703125 -1.71875 1.703125 -4.5q0 -2.796875 -1.6875 -4.515625q-1.671875 -1.734375 -4.453125 -1.734375l-3.484375 0l0 12.453125l3.484375 0z" fill-rule="nonzero"></path><path fill="#000000" fill-opacity="0.0" d="m614.0726 209.63246l57.29132 -42.204727" fill-rule="evenodd"></path><path stroke="#595959" stroke-width="1.0" stroke-linejoin="round" stroke-linecap="butt" d="m614.0726 209.63246l57.29132 -42.204727" fill-rule="evenodd"></path><path fill="#000000" fill-opacity="0.0" d="m671.3639 167.42773l67.93701 42.204727" fill-rule="evenodd"></path><path stroke="#595959" stroke-width="1.0" stroke-linejoin="round" stroke-linecap="butt" d="m671.3639 167.42773l67.93701 42.204727" fill-rule="evenodd"></path><path fill="#000000" fill-opacity="0.0" d="m739.3018 173.18504l70.48822 0l0 30.677155l-70.48822 0z" fill-rule="evenodd"></path><path fill="#000000" d="m755.9737 195.44362l-3.296875 -4.125l-1.53125 1.5l0 2.625l-1.421875 0l0 -12.671875l1.421875 0l0 8.375l4.828125 -4.875l1.8125 0l-4.0625 4.15625l4.078125 5.015625l-1.828125 0zm2.4799805 -3.96875l0 -1.25l4.5625 0l0 1.25l-4.5625 0zm8.409363 3.96875l0 -10.578125l-2.03125 2.140625l-0.9375 -0.96875l3.171875 -3.265625l1.375 0l0 12.671875l-1.578125 0z" fill-rule="nonzero"></path><path fill="#000000" fill-opacity="0.0" d="m578.82416 173.18767l70.48816 0l0 30.677155l-70.48816 0z" fill-rule="evenodd"></path><path fill="#ff0000" d="m595.49603 195.44624l-3.296875 -4.125l-1.53125 1.5l0 2.625l-1.421875 0l0 -12.671875l1.421875 0l0 8.375l4.828125 -4.875l1.8125 0l-4.0625 4.15625l4.078125 5.015625l-1.828125 0z" fill-rule="nonzero"></path><path fill="#000000" d="m609.8986 195.44624l-3.296875 -4.125l-1.53125 1.5l0 2.625l-1.421875 0l0 -12.671875l1.421875 0l0 8.375l4.828125 -4.875l1.8125 0l-4.0625 4.15625l4.078125 5.015625l-1.828125 0zm7.1987305 -5.90625l0 4.046875l-1.078125 0l0 -4.046875l-3.65625 0l0 -0.984375l3.65625 0l0 -3.9375l1.078125 0l0 3.9375l3.65625 0l0 0.984375l-3.65625 0zm7.4031982 5.90625l0 -10.578125l-2.03125 2.140625l-0.9375 -0.96875l3.171875 -3.265625l1.375 0l0 12.671875l-1.578125 0z" fill-rule="nonzero"></path><path fill="#ff0000" d="m587.82416 189.28624l9.589294 0l0 1.1200104l-9.589294 0l0 -1.1200104z" fill-rule="nonzero"></path><path fill="#3c78d8" d="m578.82324 209.62721l70.48816 0l0 61.76378l-70.48816 0z" fill-rule="evenodd"></path><path stroke="#434343" stroke-width="2.0" stroke-linejoin="round" stroke-linecap="butt" d="m578.82324 209.62721l70.48816 0l0 61.76378l-70.48816 0z" fill-rule="evenodd"></path><path fill="#ffffff" d="m617.54785 249.0491l-3.484375 -4.75l-3.46875 4.75l-2.078125 0l4.453125 -5.953125l-4.203125 -5.640625l2.078125 0l3.21875 4.421875l3.21875 -4.421875l2.09375 0l-4.203125 5.640625l4.46875 5.953125l-2.09375 0z" fill-rule="nonzero"></path><path fill="#3c78d8" d="m497.35434 403.57742l49.417328 -85.66928l49.417297 85.66928z" fill-rule="evenodd"></path><path stroke="#000000" stroke-width="2.0" stroke-linejoin="round" stroke-linecap="butt" d="m497.35434 403.57742l49.417328 -85.66928l49.417297 85.66928z" fill-rule="evenodd"></path><path fill="#ffffff" d="m552.17255 379.7001l-1.421875 -3.546875l-7.96875 0l-1.40625 3.546875l-2.28125 0l6.421875 -16.015625l2.484375 0l6.453125 16.015625l-2.28125 0zm-5.40625 -13.9375l-3.40625 8.609375l6.796875 0l-3.390625 -8.609375z" fill-rule="nonzero"></path><path fill="#3c78d8" d="m614.06824 403.57742l49.417297 -85.66928l49.41736 85.66928z" fill-rule="evenodd"></path><path stroke="#000000" stroke-width="2.0" stroke-linejoin="round" stroke-linecap="butt" d="m614.06824 403.57742l49.417297 -85.66928l49.41736 85.66928z" fill-rule="evenodd"></path><path fill="#ffffff" d="m657.81256 379.7001l0 -16.015625l7.125 0q2.046875 0 3.265625 1.125q1.21875 1.109375 1.21875 2.96875q0 1.40625 -0.78125 2.390625q-0.78125 0.984375 -2.015625 1.28125q1.265625 0.1875 2.1875 1.34375q0.921875 1.140625 0.921875 2.59375q0 1.953125 -1.234375 3.140625q-1.234375 1.171875 -3.390625 1.171875l-7.296875 0zm6.78125 -9.078125q1.375 0 2.0625 -0.71875q0.703125 -0.734375 0.703125 -1.84375q0 -1.078125 -0.703125 -1.828125q-0.6875 -0.765625 -2.0625 -0.765625l-4.796875 0l0 5.15625l4.796875 0zm0.109375 7.296875q1.40625 0 2.1875 -0.71875q0.78125 -0.734375 0.78125 -2.03125q0 -1.234375 -0.8125 -2.0q-0.8125 -0.765625 -2.15625 -0.765625l-4.90625 0l0 5.515625l4.90625 0z" fill-rule="nonzero"></path><path fill="#000000" fill-opacity="0.0" d="m546.77167 317.90814l67.30707 -46.519684" fill-rule="evenodd"></path><path stroke="#595959" stroke-width="1.0" stroke-linejoin="round" stroke-linecap="butt" d="m546.77167 317.90814l67.30707 -46.519684" fill-rule="evenodd"></path><path fill="#000000" fill-opacity="0.0" d="m614.0673 271.391l49.417297 46.519684" fill-rule="evenodd"></path><path stroke="#595959" stroke-width="1.0" stroke-linejoin="round" stroke-linecap="butt" d="m614.0673 271.391l49.417297 46.519684" fill-rule="evenodd"></path><path fill="#000000" fill-opacity="0.0" d="m511.52756 279.30972l70.48819 0l0 30.677155l-70.48819 0z" fill-rule="evenodd"></path><path fill="#000000" d="m528.19946 301.5683l-3.296875 -4.125l-1.53125 1.5l0 2.625l-1.421875 0l0 -12.671875l1.421875 0l0 8.375l4.828125 -4.875l1.8125 0l-4.0625 4.15625l4.078125 5.015625l-1.828125 0zm2.4799194 -3.96875l0 -1.25l4.5625 0l0 1.25l-4.5625 0zm8.409363 3.96875l0 -10.578125l-2.03125 2.140625l-0.9375 -0.96875l3.171875 -3.265625l1.375 0l0 12.671875l-1.578125 0z" fill-rule="nonzero"></path><path fill="#000000" fill-opacity="0.0" d="m645.3333 279.30972l70.48822 0l0 30.677155l-70.48822 0z" fill-rule="evenodd"></path><path fill="#ff0000" d="m662.0052 290.5683l-3.296875 -4.125l-1.53125 1.5l0 2.625l-1.421875 0l0 -12.671875l1.421875 0l0 8.375l4.828125 -4.875l1.8125 0l-4.0625 4.15625l4.078125 5.015625l-1.828125 0zm2.4799805 -3.96875l0 -1.25l4.5625 0l0 1.25l-4.5625 0zm8.409363 3.96875l0 -10.578125l-2.03125 2.140625l-0.9375 -0.96875l3.171875 -3.265625l1.375 0l0 12.671875l-1.578125 0z" fill-rule="nonzero"></path><path fill="#000000" d="m688.32916 290.5683l-3.296875 -4.125l-1.53125 1.5l0 2.625l-1.421875 0l0 -12.671875l1.421875 0l0 8.375l4.828125 -4.875l1.8125 0l-4.0625 4.15625l4.078125 5.015625l-1.828125 0z" fill-rule="nonzero"></path><path fill="#ff0000" d="m654.3333 284.4083l21.510681 0l0 1.1199951l-21.510681 0l0 -1.1199951z" fill-rule="nonzero"></path><path fill="#000000" fill-opacity="0.0" d="m629.5171 445.78204l67.93701 0l0 61.763794l-67.93701 0z" fill-rule="evenodd"></path><path stroke="#434343" stroke-width="2.0" stroke-linejoin="round" stroke-linecap="butt" stroke-dasharray="2.0,6.0" d="m629.5171 445.78204l67.93701 0l0 61.763794l-67.93701 0z" fill-rule="evenodd"></path><path fill="#000000" d="m660.1794 482.06332q0.515625 0.765625 1.46875 1.296875q0.96875 0.53125 2.109375 0.53125q1.75 0 2.6875 -0.84375q0.9375 -0.84375 0.9375 -2.265625q0 -1.40625 -1.03125 -2.1875q-1.03125 -0.78125 -2.734375 -0.78125l-0.84375 0l0 -1.609375l0.796875 0q1.578125 0 2.5 -0.734375q0.9375 -0.734375 0.9375 -2.078125q0 -1.265625 -0.890625 -2.046875q-0.875 -0.78125 -2.265625 -0.78125q-1.65625 0 -2.671875 1.03125q-1.0 1.015625 -1.0 2.6875l0 7.78125zm0 7.5625l-1.796875 0l0 -15.34375q0 -2.46875 1.546875 -3.890625q1.546875 -1.4375 3.921875 -1.4375q2.265625 0 3.65625 1.171875q1.390625 1.15625 1.390625 3.109375q0 1.4375 -0.96875 2.453125q-0.953125 1.015625 -2.375 1.265625q1.546875 0.140625 2.625 1.296875q1.078125 1.140625 1.078125 2.796875q0 1.90625 -1.390625 3.171875q-1.390625 1.265625 -3.578125 1.265625q-2.640625 0 -4.109375 -2.015625l0 6.15625z" fill-rule="nonzero"></path><path fill="#000000" fill-opacity="0.0" d="m663.4856 403.57733l0 42.204712" fill-rule="evenodd"></path><path stroke="#595959" stroke-width="1.0" stroke-linejoin="round" stroke-linecap="butt" d="m663.4856 403.57733l0 42.204712" fill-rule="evenodd"></path></g></svg>

